solid Development Mockup rev2
facet normal -1.0 -0.0 -0.0
  outer loop
    vertex 120.00000000000023 539.9137095176226 44.99999999999915
    vertex 120.00000000000023 519.9137095176226 39.99999999999915
    vertex 120.00000000000023 519.9137095176226 44.99999999999915
  endloop
endfacet
facet normal -1.0 -0.0 -0.0
  outer loop
    vertex 120.00000000000023 519.9137095176226 39.99999999999915
    vertex 120.00000000000023 539.9137095176226 44.99999999999915
    vertex 120.00000000000023 539.9137095176226 39.99999999999915
  endloop
endfacet
facet normal 0.0 -1.0 0.0
  outer loop
    vertex 140.00000000000023 519.9137095176226 44.99999999999915
    vertex 120.00000000000023 519.9137095176226 39.99999999999915
    vertex 140.00000000000023 519.9137095176226 39.99999999999915
  endloop
endfacet
facet normal 0.0 -1.0 0.0
  outer loop
    vertex 120.00000000000023 519.9137095176226 39.99999999999915
    vertex 140.00000000000023 519.9137095176226 44.99999999999915
    vertex 120.00000000000023 519.9137095176226 44.99999999999915
  endloop
endfacet
facet normal 0.0 0.0 1.0
  outer loop
    vertex 140.00000000000023 519.9137095176226 44.99999999999915
    vertex 120.00000000000023 539.9137095176226 44.99999999999915
    vertex 120.00000000000023 519.9137095176226 44.99999999999915
  endloop
endfacet
facet normal 0.0 0.0 1.0
  outer loop
    vertex 120.00000000000023 539.9137095176226 44.99999999999915
    vertex 140.00000000000023 519.9137095176226 44.99999999999915
    vertex 140.00000000000023 539.9137095176226 44.99999999999915
  endloop
endfacet
facet normal 1.0 0.0 0.0
  outer loop
    vertex 140.00000000000023 544.9137095176227 39.99999999999915
    vertex 140.00000000000023 519.9137095176226 44.99999999999915
    vertex 140.00000000000023 519.9137095176226 39.99999999999915
  endloop
endfacet
facet normal 1.0 0.0 0.0
  outer loop
    vertex 140.00000000000023 519.9137095176226 44.99999999999915
    vertex 140.00000000000023 544.9137095176227 39.99999999999915
    vertex 140.00000000000023 539.9137095176226 44.99999999999915
  endloop
endfacet
facet normal 1.0 0.0 0.0
  outer loop
    vertex 140.00000000000023 539.9137095176226 44.99999999999915
    vertex 140.00000000000023 544.9137095176227 74.99999999999915
    vertex 140.00000000000023 539.9137095176225 74.99999999999915
  endloop
endfacet
facet normal 1.0 0.0 0.0
  outer loop
    vertex 140.00000000000023 544.9137095176227 74.99999999999915
    vertex 140.00000000000023 539.9137095176226 44.99999999999915
    vertex 140.00000000000023 544.9137095176227 39.99999999999915
  endloop
endfacet
facet normal 0.0 1.0 0.0
  outer loop
    vertex 20.00000000000023 544.9137095176227 39.99999999999915
    vertex 73.00000000000024 544.9137095176227 47.899999999998684
    vertex 140.00000000000023 544.9137095176227 39.99999999999915
  endloop
endfacet
facet normal 0.0 1.0 0.0
  outer loop
    vertex 73.00000000000024 544.9137095176227 47.899999999998684
    vertex 20.00000000000023 544.9137095176227 39.99999999999915
    vertex 20.00000000000023 544.9137095176227 74.99999999999915
  endloop
endfacet
facet normal 0.0 1.0 0.0
  outer loop
    vertex 73.00000000000024 544.9137095176227 47.899999999998684
    vertex 20.00000000000023 544.9137095176227 74.99999999999915
    vertex 73.00000000000024 544.9137095176227 67.09999999999962
  endloop
endfacet
facet normal 0.0 1.0 0.0
  outer loop
    vertex 73.00000000000024 544.9137095176227 67.09999999999962
    vertex 20.00000000000023 544.9137095176227 74.99999999999915
    vertex 100.00000000000023 544.9137095176227 67.09999999999962
  endloop
endfacet
facet normal 0.0 1.0 0.0
  outer loop
    vertex 140.00000000000023 544.9137095176227 39.99999999999915
    vertex 100.00000000000023 544.9137095176236 47.899999999998684
    vertex 140.00000000000023 544.9137095176227 74.99999999999915
  endloop
endfacet
facet normal 0.0 1.0 0.0
  outer loop
    vertex 100.00000000000023 544.9137095176236 47.899999999998684
    vertex 140.00000000000023 544.9137095176227 39.99999999999915
    vertex 73.00000000000024 544.9137095176227 47.899999999998684
  endloop
endfacet
facet normal 0.0 1.0 0.0
  outer loop
    vertex 140.00000000000023 544.9137095176227 74.99999999999915
    vertex 100.00000000000023 544.9137095176236 47.899999999998684
    vertex 100.00000000000023 544.9137095176227 67.09999999999962
  endloop
endfacet
facet normal 0.0 1.0 0.0
  outer loop
    vertex 140.00000000000023 544.9137095176227 74.99999999999915
    vertex 100.00000000000023 544.9137095176227 67.09999999999962
    vertex 20.00000000000023 544.9137095176227 74.99999999999915
  endloop
endfacet
facet normal -1.6710912489172731e-16 -1.0 -2.005309498700727e-15
  outer loop
    vertex 140.00000000000023 539.9137095176225 74.99999999999915
    vertex 120.00000000000023 539.9137095176226 44.99999999999915
    vertex 140.00000000000023 539.9137095176226 44.99999999999915
  endloop
endfacet
facet normal -1.6710912489172731e-16 -1.0 -2.005309498700727e-15
  outer loop
    vertex 120.00000000000023 539.9137095176226 44.99999999999915
    vertex 140.00000000000023 539.9137095176225 74.99999999999915
    vertex 100.00000000000031 539.9137095176227 47.89999999999853
  endloop
endfacet
facet normal -1.6710912489172731e-16 -1.0 -2.005309498700727e-15
  outer loop
    vertex 100.00000000000031 539.9137095176227 47.89999999999853
    vertex 140.00000000000023 539.9137095176225 74.99999999999915
    vertex 100.00000000000031 539.9137095176218 67.09999999999945
  endloop
endfacet
facet normal -1.6710912489172731e-16 -1.0 -2.005309498700727e-15
  outer loop
    vertex 100.00000000000031 539.9137095176218 67.09999999999945
    vertex 140.00000000000023 539.9137095176225 74.99999999999915
    vertex 73.00000000000031 539.9137095176218 67.09999999999945
  endloop
endfacet
facet normal -1.6710912489172731e-16 -1.0 -2.005309498700727e-15
  outer loop
    vertex 120.00000000000023 539.9137095176226 44.99999999999915
    vertex 2.319422431895646e-13 539.9137095176226 39.99999999999915
    vertex 120.00000000000023 539.9137095176226 39.99999999999915
  endloop
endfacet
facet normal -1.6710912489172731e-16 -1.0 -2.005309498700727e-15
  outer loop
    vertex 2.319422431895646e-13 539.9137095176226 39.99999999999915
    vertex 120.00000000000023 539.9137095176226 44.99999999999915
    vertex 73.00000000000031 539.9137095176218 47.89999999999853
  endloop
endfacet
facet normal -1.6710912489172731e-16 -1.0 -2.005309498700727e-15
  outer loop
    vertex 2.319422431895646e-13 539.9137095176226 39.99999999999915
    vertex 73.00000000000031 539.9137095176218 47.89999999999853
    vertex 2.319422431895646e-13 539.9137095176226 74.99999999999915
  endloop
endfacet
facet normal -1.6710912489172731e-16 -1.0 -2.005309498700727e-15
  outer loop
    vertex 73.00000000000031 539.9137095176218 47.89999999999853
    vertex 120.00000000000023 539.9137095176226 44.99999999999915
    vertex 100.00000000000031 539.9137095176227 47.89999999999853
  endloop
endfacet
facet normal -1.6710912489172731e-16 -1.0 -2.005309498700727e-15
  outer loop
    vertex 2.319422431895646e-13 539.9137095176226 74.99999999999915
    vertex 73.00000000000031 539.9137095176218 47.89999999999853
    vertex 73.00000000000031 539.9137095176218 67.09999999999945
  endloop
endfacet
facet normal -1.6710912489172731e-16 -1.0 -2.005309498700727e-15
  outer loop
    vertex 2.319422431895646e-13 539.9137095176226 74.99999999999915
    vertex 73.00000000000031 539.9137095176218 67.09999999999945
    vertex 140.00000000000023 539.9137095176225 74.99999999999915
  endloop
endfacet
facet normal -1.6710912489172731e-16 -1.0 -2.005309498700727e-15
  outer loop
    vertex 2.319422431895646e-13 539.9137095176226 74.99999999999915
    vertex 140.00000000000023 539.9137095176225 74.99999999999915
    vertex 20.00000000000023 539.9137095176225 74.99999999999915
  endloop
endfacet
facet normal -1.0 0.0 0.0
  outer loop
    vertex 2.319422431895646e-13 544.9137095176227 74.99999999999915
    vertex 2.319422431895646e-13 539.9137095176226 39.99999999999915
    vertex 2.319422431895646e-13 539.9137095176226 74.99999999999915
  endloop
endfacet
facet normal -1.0 0.0 0.0
  outer loop
    vertex 2.319422431895646e-13 539.9137095176226 39.99999999999915
    vertex 2.319422431895646e-13 544.9137095176227 74.99999999999915
    vertex 2.319422431895646e-13 544.9137095176227 39.99999999999915
  endloop
endfacet
facet normal 0.0 0.0 1.0
  outer loop
    vertex 20.00000000000023 539.9137095176225 74.99999999999915
    vertex 2.319422431895646e-13 544.9137095176227 74.99999999999915
    vertex 2.319422431895646e-13 539.9137095176226 74.99999999999915
  endloop
endfacet
facet normal 0.0 0.0 1.0
  outer loop
    vertex 2.319422431895646e-13 544.9137095176227 74.99999999999915
    vertex 20.00000000000023 539.9137095176225 74.99999999999915
    vertex 20.00000000000023 544.9137095176227 74.99999999999915
  endloop
endfacet
facet normal 0.0 1.0 0.0
  outer loop
    vertex 2.319422431895646e-13 544.9137095176227 74.99999999999915
    vertex 20.00000000000023 544.9137095176227 39.99999999999915
    vertex 2.319422431895646e-13 544.9137095176227 39.99999999999915
  endloop
endfacet
facet normal 0.0 1.0 0.0
  outer loop
    vertex 20.00000000000023 544.9137095176227 39.99999999999915
    vertex 2.319422431895646e-13 544.9137095176227 74.99999999999915
    vertex 20.00000000000023 544.9137095176227 74.99999999999915
  endloop
endfacet
facet normal 0.0 0.0 -1.0
  outer loop
    vertex 20.00000000000023 544.9137095176227 39.99999999999915
    vertex 2.319422431895646e-13 539.9137095176226 39.99999999999915
    vertex 2.319422431895646e-13 544.9137095176227 39.99999999999915
  endloop
endfacet
facet normal 0.0 0.0 -1.0
  outer loop
    vertex 2.319422431895646e-13 539.9137095176226 39.99999999999915
    vertex 20.00000000000023 544.9137095176227 39.99999999999915
    vertex 120.00000000000023 539.9137095176226 39.99999999999915
  endloop
endfacet
facet normal 0.0 0.0 -1.0
  outer loop
    vertex 120.00000000000023 539.9137095176226 39.99999999999915
    vertex 20.00000000000023 544.9137095176227 39.99999999999915
    vertex 140.00000000000023 544.9137095176227 39.99999999999915
  endloop
endfacet
facet normal 0.0 0.0 -1.0
  outer loop
    vertex 120.00000000000023 539.9137095176226 39.99999999999915
    vertex 140.00000000000023 544.9137095176227 39.99999999999915
    vertex 120.00000000000023 519.9137095176226 39.99999999999915
  endloop
endfacet
facet normal 0.0 0.0 -1.0
  outer loop
    vertex 120.00000000000023 519.9137095176226 39.99999999999915
    vertex 140.00000000000023 544.9137095176227 39.99999999999915
    vertex 140.00000000000023 519.9137095176226 39.99999999999915
  endloop
endfacet
facet normal 0.0 0.0 1.0
  outer loop
    vertex 140.00000000000023 539.9137095176225 194.99999999999915
    vertex 20.00000000000023 544.9137095176227 194.99999999999915
    vertex 20.00000000000023 539.9137095176225 194.99999999999915
  endloop
endfacet
facet normal 0.0 0.0 1.0
  outer loop
    vertex 20.00000000000023 544.9137095176227 194.99999999999915
    vertex 140.00000000000023 539.9137095176225 194.99999999999915
    vertex 140.00000000000023 544.9137095176227 194.99999999999915
  endloop
endfacet
facet normal 0.0 -1.0 0.0
  outer loop
    vertex 140.00000000000023 539.9137095176225 194.99999999999915
    vertex 20.00000000000023 539.9137095176225 74.99999999999915
    vertex 140.00000000000023 539.9137095176225 74.99999999999915
  endloop
endfacet
facet normal 0.0 -1.0 0.0
  outer loop
    vertex 20.00000000000023 539.9137095176225 74.99999999999915
    vertex 140.00000000000023 539.9137095176225 194.99999999999915
    vertex 20.00000000000023 539.9137095176225 194.99999999999915
  endloop
endfacet
facet normal 0.0 0.0 1.0
  outer loop
    vertex 140.00000000000023 539.9137095176225 74.99999999999915
    vertex 20.00000000000023 544.9137095176227 74.99999999999915
    vertex 20.00000000000023 539.9137095176225 74.99999999999915
  endloop
endfacet
facet normal 0.0 0.0 1.0
  outer loop
    vertex 20.00000000000023 544.9137095176227 74.99999999999915
    vertex 140.00000000000023 539.9137095176225 74.99999999999915
    vertex 140.00000000000023 544.9137095176227 74.99999999999915
  endloop
endfacet
facet normal -1.0 0.0 0.0
  outer loop
    vertex 20.00000000000023 544.9137095176227 194.99999999999915
    vertex 20.00000000000023 539.9137095176225 74.99999999999915
    vertex 20.00000000000023 539.9137095176225 194.99999999999915
  endloop
endfacet
facet normal -1.0 0.0 0.0
  outer loop
    vertex 20.00000000000023 539.9137095176225 74.99999999999915
    vertex 20.00000000000023 544.9137095176227 194.99999999999915
    vertex 20.00000000000023 544.9137095176227 74.99999999999915
  endloop
endfacet
facet normal 1.0 0.0 0.0
  outer loop
    vertex 140.00000000000023 544.9137095176227 74.99999999999915
    vertex 140.00000000000023 539.9137095176225 194.99999999999915
    vertex 140.00000000000023 539.9137095176225 74.99999999999915
  endloop
endfacet
facet normal 1.0 0.0 0.0
  outer loop
    vertex 140.00000000000023 539.9137095176225 194.99999999999915
    vertex 140.00000000000023 544.9137095176227 74.99999999999915
    vertex 140.00000000000023 544.9137095176227 194.99999999999915
  endloop
endfacet
facet normal 0.0 1.0 0.0
  outer loop
    vertex 20.00000000000023 544.9137095176227 194.99999999999915
    vertex 140.00000000000023 544.9137095176227 74.99999999999915
    vertex 20.00000000000023 544.9137095176227 74.99999999999915
  endloop
endfacet
facet normal 0.0 1.0 0.0
  outer loop
    vertex 140.00000000000023 544.9137095176227 74.99999999999915
    vertex 20.00000000000023 544.9137095176227 194.99999999999915
    vertex 140.00000000000023 544.9137095176227 194.99999999999915
  endloop
endfacet
facet normal 1.0 1.6710912489172728e-14 0.0
  outer loop
    vertex 73.00000000000024 544.9137095176227 47.899999999998684
    vertex 73.00000000000031 539.9137095176218 67.09999999999945
    vertex 73.00000000000031 539.9137095176218 47.89999999999853
  endloop
endfacet
facet normal 1.0 1.6710912489172728e-14 0.0
  outer loop
    vertex 73.00000000000031 539.9137095176218 67.09999999999945
    vertex 73.00000000000024 544.9137095176227 47.899999999998684
    vertex 73.00000000000024 544.9137095176227 67.09999999999962
  endloop
endfacet
facet normal 1.0182876496795614e-27 -3.045563801151214e-14 1.0
  outer loop
    vertex 73.00000000000031 539.9137095176218 47.89999999999853
    vertex 100.00000000000023 544.9137095176236 47.899999999998684
    vertex 73.00000000000024 544.9137095176227 47.899999999998684
  endloop
endfacet
facet normal 1.0182876496795614e-27 -3.045563801151214e-14 1.0
  outer loop
    vertex 100.00000000000023 544.9137095176236 47.899999999998684
    vertex 73.00000000000031 539.9137095176218 47.89999999999853
    vertex 100.00000000000031 539.9137095176227 47.89999999999853
  endloop
endfacet
facet normal -1.0 -1.6710912489172728e-14 -7.854035518709304e-28
  outer loop
    vertex 100.00000000000023 544.9137095176227 67.09999999999962
    vertex 100.00000000000031 539.9137095176227 47.89999999999853
    vertex 100.00000000000031 539.9137095176218 67.09999999999945
  endloop
endfacet
facet normal -1.0 -1.6710912489172728e-14 -7.854035518709304e-28
  outer loop
    vertex 100.00000000000031 539.9137095176227 47.89999999999853
    vertex 100.00000000000023 544.9137095176227 67.09999999999962
    vertex 100.00000000000023 544.9137095176236 47.899999999998684
  endloop
endfacet
facet normal 0.0 3.133296091719732e-14 -1.0
  outer loop
    vertex 100.00000000000023 544.9137095176227 67.09999999999962
    vertex 73.00000000000031 539.9137095176218 67.09999999999945
    vertex 73.00000000000024 544.9137095176227 67.09999999999962
  endloop
endfacet
facet normal 0.0 3.133296091719732e-14 -1.0
  outer loop
    vertex 73.00000000000031 539.9137095176218 67.09999999999945
    vertex 100.00000000000023 544.9137095176227 67.09999999999962
    vertex 100.00000000000031 539.9137095176218 67.09999999999945
  endloop
endfacet
endsolid Development Mockup rev2
