solid Development Mockup rev2
facet normal -0.9238795325112836 0.3826834323650976 0.0
  outer loop
    vertex 111.34169966190947 290.33269350804073 663.5519023064752
    vertex 111.0919486056479 289.72974112079703 661.5519023064752
    vertex 111.0919486056479 289.72974112079703 663.5519023064752
  endloop
endfacet
facet normal -0.9238795325112836 0.3826834323650976 0.0
  outer loop
    vertex 111.0919486056479 289.72974112079703 661.5519023064752
    vertex 111.34169966190947 290.33269350804073 663.5519023064752
    vertex 111.34169966190947 290.33269350804073 661.5519023064752
  endloop
endfacet
facet normal -1.5159214111019794e-41 -1.0 1.8243677355569437e-13
  outer loop
    vertex 105.26973316626732 286.60654310878726 661.551902306475
    vertex 98.2697535573745 286.6065431087848 647.9495432191247
    vertex 105.26973316626732 286.6065431087848 647.9495432191247
  endloop
endfacet
facet normal -1.5159214111019794e-41 -1.0 1.8243677355569437e-13
  outer loop
    vertex 98.2697535573745 286.6065431087848 647.9495432191247
    vertex 105.26973316626732 286.60654310878726 661.551902306475
    vertex 98.2697535573745 286.60654310878726 661.551902306475
  endloop
endfacet
facet normal -0.7933533402912544 0.6087614290086959 0.0
  outer loop
    vertex 111.0919486056479 289.72974112079703 663.5519023064752
    vertex 110.69465204915316 289.21197416783065 661.5519023064752
    vertex 110.69465204915316 289.21197416783065 663.5519023064752
  endloop
endfacet
facet normal -0.7933533402912544 0.6087614290086959 0.0
  outer loop
    vertex 110.69465204915316 289.21197416783065 661.5519023064752
    vertex 111.0919486056479 289.72974112079703 663.5519023064752
    vertex 111.0919486056479 289.72974112079703 661.5519023064752
  endloop
endfacet
facet normal -0.1305261922200539 -0.9914448613738103 -6.643019626822166e-29
  outer loop
    vertex 109.5739327089431 293.3945556865197 663.5519023064752
    vertex 108.9268850961868 293.47974112079703 661.5519023064752
    vertex 109.5739327089431 293.3945556865197 661.5519023064752
  endloop
endfacet
facet normal -0.1305261922200539 -0.9914448613738103 -6.643019626822166e-29
  outer loop
    vertex 108.9268850961868 293.47974112079703 661.5519023064752
    vertex 109.5739327089431 293.3945556865197 663.5519023064752
    vertex 108.9268850961868 293.47974112079703 663.5519023064752
  endloop
endfacet
facet normal -0.3826834323650976 -0.9238795325112836 0.0
  outer loop
    vertex 110.1768850961868 293.14480463025814 663.5519023064752
    vertex 109.5739327089431 293.3945556865197 661.5519023064752
    vertex 110.1768850961868 293.14480463025814 661.5519023064752
  endloop
endfacet
facet normal -0.3826834323650976 -0.9238795325112836 0.0
  outer loop
    vertex 109.5739327089431 293.3945556865197 661.5519023064752
    vertex 110.1768850961868 293.14480463025814 663.5519023064752
    vertex 109.5739327089431 293.3945556865197 663.5519023064752
  endloop
endfacet
facet normal -0.9914448613738096 0.13052619222005837 0.0
  outer loop
    vertex 111.42688509618681 290.97974112079703 663.5519023064752
    vertex 111.34169966190947 290.33269350804073 661.5519023064752
    vertex 111.34169966190947 290.33269350804073 663.5519023064752
  endloop
endfacet
facet normal -0.9914448613738096 0.13052619222005837 0.0
  outer loop
    vertex 111.34169966190947 290.33269350804073 661.5519023064752
    vertex 111.42688509618681 290.97974112079703 663.5519023064752
    vertex 111.42688509618681 290.97974112079703 661.5519023064752
  endloop
endfacet
facet normal -0.6087614290087074 -0.7933533402912453 0.0
  outer loop
    vertex 110.69465204915316 292.7475080737634 663.5519023064752
    vertex 110.1768850961868 293.14480463025814 661.5519023064752
    vertex 110.69465204915316 292.7475080737634 661.5519023064752
  endloop
endfacet
facet normal -0.6087614290087074 -0.7933533402912453 0.0
  outer loop
    vertex 110.1768850961868 293.14480463025814 661.5519023064752
    vertex 110.69465204915316 292.7475080737634 663.5519023064752
    vertex 110.1768850961868 293.14480463025814 663.5519023064752
  endloop
endfacet
facet normal -0.6087614290087074 0.7933533402912453 0.0
  outer loop
    vertex 110.1768850961868 288.8146776113359 663.5519023064752
    vertex 110.69465204915316 289.21197416783065 661.5519023064752
    vertex 110.1768850961868 288.8146776113359 661.5519023064752
  endloop
endfacet
facet normal -0.6087614290087074 0.7933533402912453 0.0
  outer loop
    vertex 110.69465204915316 289.21197416783065 661.5519023064752
    vertex 110.1768850961868 288.8146776113359 663.5519023064752
    vertex 110.69465204915316 289.21197416783065 663.5519023064752
  endloop
endfacet
facet normal -0.9417440838834015 0.3363303145281631 -3.35032099579562e-15
  outer loop
    vertex 114.62908864234375 292.33280439905747 661.5519023064752
    vertex 112.58403702610629 286.6065431087848 647.9495432191247
    vertex 112.58403702610629 286.6065431087848 661.5519023064752
  endloop
endfacet
facet normal -0.9417440838834015 0.3363303145281631 -3.35032099579562e-15
  outer loop
    vertex 112.58403702610629 286.6065431087848 647.9495432191247
    vertex 114.62908864234375 292.33280439905747 661.5519023064752
    vertex 114.62908864234386 292.3328043990575 647.9495432191247
  endloop
endfacet
facet normal -0.9914448613738096 -0.13052619222005837 0.0
  outer loop
    vertex 111.34169966190947 291.6267887335533 663.5519023064752
    vertex 111.42688509618681 290.97974112079703 661.5519023064752
    vertex 111.42688509618681 290.97974112079703 663.5519023064752
  endloop
endfacet
facet normal -0.9914448613738096 -0.13052619222005837 0.0
  outer loop
    vertex 111.42688509618681 290.97974112079703 661.5519023064752
    vertex 111.34169966190947 291.6267887335533 663.5519023064752
    vertex 111.34169966190947 291.6267887335533 661.5519023064752
  endloop
endfacet
facet normal -0.9238795325112937 -0.3826834323650732 0.0
  outer loop
    vertex 111.0919486056479 292.22974112079703 663.5519023064752
    vertex 111.34169966190947 291.6267887335533 661.5519023064752
    vertex 111.34169966190947 291.6267887335533 663.5519023064752
  endloop
endfacet
facet normal -0.9238795325112937 -0.3826834323650732 0.0
  outer loop
    vertex 111.34169966190947 291.6267887335533 661.5519023064752
    vertex 111.0919486056479 292.22974112079703 663.5519023064752
    vertex 111.0919486056479 292.22974112079703 661.5519023064752
  endloop
endfacet
facet normal -0.7933533402912287 -0.6087614290087292 0.0
  outer loop
    vertex 110.69465204915316 292.7475080737634 663.5519023064752
    vertex 111.0919486056479 292.22974112079703 661.5519023064752
    vertex 111.0919486056479 292.22974112079703 663.5519023064752
  endloop
endfacet
facet normal -0.7933533402912287 -0.6087614290087292 0.0
  outer loop
    vertex 111.0919486056479 292.22974112079703 661.5519023064752
    vertex 110.69465204915316 292.7475080737634 663.5519023064752
    vertex 110.69465204915316 292.7475080737634 661.5519023064752
  endloop
endfacet
facet normal -0.1305261922200539 0.9914448613738103 -6.643019626822166e-29
  outer loop
    vertex 108.9268850961868 288.479741120797 663.5519023064752
    vertex 109.5739327089431 288.56492655507435 661.5519023064752
    vertex 108.9268850961868 288.479741120797 661.5519023064752
  endloop
endfacet
facet normal -0.1305261922200539 0.9914448613738103 -6.643019626822166e-29
  outer loop
    vertex 109.5739327089431 288.56492655507435 661.5519023064752
    vertex 108.9268850961868 288.479741120797 663.5519023064752
    vertex 109.5739327089431 288.56492655507435 663.5519023064752
  endloop
endfacet
facet normal -0.3826834323650976 0.9238795325112836 0.0
  outer loop
    vertex 109.5739327089431 288.56492655507435 663.5519023064752
    vertex 110.1768850961868 288.8146776113359 661.5519023064752
    vertex 109.5739327089431 288.56492655507435 661.5519023064752
  endloop
endfacet
facet normal -0.3826834323650976 0.9238795325112836 0.0
  outer loop
    vertex 110.1768850961868 288.8146776113359 661.5519023064752
    vertex 109.5739327089431 288.56492655507435 663.5519023064752
    vertex 110.1768850961868 288.8146776113359 663.5519023064752
  endloop
endfacet
facet normal 1.0 0.0 0.0
  outer loop
    vertex 103.22468155002973 292.3328043990575 647.9495432191247
    vertex 103.22468155002983 294.58028181851205 661.5519023064752
    vertex 103.22468155002983 292.33280439905747 661.5519023064752
  endloop
endfacet
facet normal 1.0 0.0 0.0
  outer loop
    vertex 103.22468155002983 294.58028181851205 661.5519023064752
    vertex 103.22468155002973 292.3328043990575 647.9495432191247
    vertex 103.22468155002973 294.5802818185121 647.9495432191247
  endloop
endfacet
facet normal 0.3826834323650976 0.9238795325112836 0.0
  outer loop
    vertex 107.67688509618678 288.8146776113359 663.5519023064752
    vertex 108.27983748343047 288.56492655507435 661.5519023064752
    vertex 107.67688509618678 288.8146776113359 661.5519023064752
  endloop
endfacet
facet normal 0.3826834323650976 0.9238795325112836 0.0
  outer loop
    vertex 108.27983748343047 288.56492655507435 661.5519023064752
    vertex 107.67688509618678 288.8146776113359 663.5519023064752
    vertex 108.27983748343047 288.56492655507435 663.5519023064752
  endloop
endfacet
facet normal 0.6087614290087074 -0.7933533402912453 -0.0
  outer loop
    vertex 107.67688509618678 293.14480463025814 663.5519023064752
    vertex 107.15911814322041 292.7475080737634 661.5519023064752
    vertex 107.67688509618678 293.14480463025814 661.5519023064752
  endloop
endfacet
facet normal 0.6087614290087074 -0.7933533402912453 -0.0
  outer loop
    vertex 107.15911814322041 292.7475080737634 661.5519023064752
    vertex 107.67688509618678 293.14480463025814 663.5519023064752
    vertex 107.15911814322041 292.7475080737634 663.5519023064752
  endloop
endfacet
facet normal 0.37124962626068064 -0.9285330984953121 -6.158831352947776e-15
  outer loop
    vertex 108.9268850961868 297.2802818185121 661.5519023064752
    vertex 103.92468155002972 295.28028181851215 647.9495432191247
    vertex 108.92688509618668 297.28028181851215 647.9495432191247
  endloop
endfacet
facet normal 0.37124962626068064 -0.9285330984953121 -6.158831352947776e-15
  outer loop
    vertex 103.92468155002972 295.28028181851215 647.9495432191247
    vertex 108.9268850961868 297.2802818185121 661.5519023064752
    vertex 103.92468155002983 295.2802818185121 661.5519023064752
  endloop
endfacet
facet normal -1.0 -9.100655915086579e-15 -5.891473946912883e-16
  outer loop
    vertex 98.26975355737439 300.2802818185123 663.5519023064752
    vertex 98.2697535573745 286.10654310878726 661.5519023064752
    vertex 98.2697535573745 286.10654310878476 663.5519023064752
  endloop
endfacet
facet normal -1.0 -9.100655915086579e-15 -5.891473946912883e-16
  outer loop
    vertex 98.2697535573745 286.10654310878726 661.5519023064752
    vertex 98.26975355737439 300.2802818185123 663.5519023064752
    vertex 98.2697535573745 286.60654310878726 661.551902306475
  endloop
endfacet
facet normal -1.0 -9.100655915086579e-15 -5.891473946912883e-16
  outer loop
    vertex 98.2697535573745 286.60654310878726 661.551902306475
    vertex 98.26975355737439 300.2802818185123 663.5519023064752
    vertex 98.26975355737439 300.28028181851215 647.9495432191247
  endloop
endfacet
facet normal -1.0 -9.100655915086579e-15 -5.891473946912883e-16
  outer loop
    vertex 98.26975355737439 300.28028181851215 647.9495432191247
    vertex 98.2697535573745 286.6065431087848 647.9495432191247
    vertex 98.2697535573745 286.60654310878726 661.551902306475
  endloop
endfacet
facet normal 0.6087614290087074 0.7933533402912453 0.0
  outer loop
    vertex 107.15911814322041 289.21197416783065 663.5519023064752
    vertex 107.67688509618678 288.8146776113359 661.5519023064752
    vertex 107.15911814322041 289.21197416783065 661.5519023064752
  endloop
endfacet
facet normal 0.6087614290087074 0.7933533402912453 0.0
  outer loop
    vertex 107.67688509618678 288.8146776113359 661.5519023064752
    vertex 107.15911814322041 289.21197416783065 663.5519023064752
    vertex 107.67688509618678 288.8146776113359 663.5519023064752
  endloop
endfacet
facet normal 1.0 -8.273323559169615e-15 -5.355885406284437e-16
  outer loop
    vertex 119.58401663499919 300.28028181851215 647.9495432191247
    vertex 119.58401663499907 286.6065431087848 661.5519023064752
    vertex 119.58401663499907 286.6065431087848 647.9495432191247
  endloop
endfacet
facet normal 1.0 -8.273323559169615e-15 -5.355885406284437e-16
  outer loop
    vertex 119.58401663499907 286.6065431087848 661.5519023064752
    vertex 119.58401663499907 286.10654310878476 663.5519023064752
    vertex 119.58401663499907 286.10654310878476 661.5519023064752
  endloop
endfacet
facet normal 1.0 -8.273323559169615e-15 -5.355885406284437e-16
  outer loop
    vertex 119.58401663499907 286.10654310878476 663.5519023064752
    vertex 119.58401663499907 286.6065431087848 661.5519023064752
    vertex 119.58401663499919 300.2802818185123 663.5519023064752
  endloop
endfacet
facet normal 1.0 -8.273323559169615e-15 -5.355885406284437e-16
  outer loop
    vertex 119.58401663499919 300.2802818185123 663.5519023064752
    vertex 119.58401663499907 286.6065431087848 661.5519023064752
    vertex 119.58401663499919 300.28028181851215 647.9495432191247
  endloop
endfacet
facet normal 0.3826834323650976 -0.9238795325112836 -0.0
  outer loop
    vertex 108.27983748343047 293.3945556865197 663.5519023064752
    vertex 107.67688509618678 293.14480463025814 661.5519023064752
    vertex 108.27983748343047 293.3945556865197 661.5519023064752
  endloop
endfacet
facet normal 0.3826834323650976 -0.9238795325112836 -0.0
  outer loop
    vertex 107.67688509618678 293.14480463025814 661.5519023064752
    vertex 108.27983748343047 293.3945556865197 663.5519023064752
    vertex 107.67688509618678 293.14480463025814 663.5519023064752
  endloop
endfacet
facet normal 0.9914448613738096 0.13052619222005837 0.0
  outer loop
    vertex 106.42688509618677 290.97974112079703 661.5519023064752
    vertex 106.5120705304641 290.33269350804073 663.5519023064752
    vertex 106.5120705304641 290.33269350804073 661.5519023064752
  endloop
endfacet
facet normal 0.9914448613738096 0.13052619222005837 0.0
  outer loop
    vertex 106.5120705304641 290.33269350804073 663.5519023064752
    vertex 106.42688509618677 290.97974112079703 661.5519023064752
    vertex 106.42688509618677 290.97974112079703 663.5519023064752
  endloop
endfacet
facet normal 0.7933533402912287 -0.6087614290087292 -0.0
  outer loop
    vertex 107.15911814322041 292.7475080737634 661.5519023064752
    vertex 106.76182158672569 292.22974112079703 663.5519023064752
    vertex 106.76182158672569 292.22974112079703 661.5519023064752
  endloop
endfacet
facet normal 0.7933533402912287 -0.6087614290087292 -0.0
  outer loop
    vertex 106.76182158672569 292.22974112079703 663.5519023064752
    vertex 107.15911814322041 292.7475080737634 661.5519023064752
    vertex 107.15911814322041 292.7475080737634 663.5519023064752
  endloop
endfacet
facet normal 0.9238795325112836 0.3826834323650976 0.0
  outer loop
    vertex 106.5120705304641 290.33269350804073 661.5519023064752
    vertex 106.76182158672569 289.72974112079703 663.5519023064752
    vertex 106.76182158672569 289.72974112079703 661.5519023064752
  endloop
endfacet
facet normal 0.9238795325112836 0.3826834323650976 0.0
  outer loop
    vertex 106.76182158672569 289.72974112079703 663.5519023064752
    vertex 106.5120705304641 290.33269350804073 661.5519023064752
    vertex 106.5120705304641 290.33269350804073 663.5519023064752
  endloop
endfacet
facet normal 0.7933533402912541 0.6087614290086958 0.0
  outer loop
    vertex 106.76182158672569 289.72974112079703 661.5519023064752
    vertex 107.15911814322041 289.21197416783065 663.5519023064752
    vertex 107.15911814322041 289.21197416783065 661.5519023064752
  endloop
endfacet
facet normal 0.7933533402912541 0.6087614290086958 0.0
  outer loop
    vertex 107.15911814322041 289.21197416783065 663.5519023064752
    vertex 106.76182158672569 289.72974112079703 661.5519023064752
    vertex 106.76182158672569 289.72974112079703 663.5519023064752
  endloop
endfacet
facet normal 0.1305261922200539 -0.9914448613738103 -6.643019626822166e-29
  outer loop
    vertex 108.9268850961868 293.47974112079703 663.5519023064752
    vertex 108.27983748343047 293.3945556865197 661.5519023064752
    vertex 108.9268850961868 293.47974112079703 661.5519023064752
  endloop
endfacet
facet normal 0.1305261922200539 -0.9914448613738103 -6.643019626822166e-29
  outer loop
    vertex 108.27983748343047 293.3945556865197 661.5519023064752
    vertex 108.9268850961868 293.47974112079703 663.5519023064752
    vertex 108.27983748343047 293.3945556865197 663.5519023064752
  endloop
endfacet
facet normal 0.1305261922200539 0.9914448613738103 -6.643019626822166e-29
  outer loop
    vertex 108.27983748343047 288.56492655507435 663.5519023064752
    vertex 108.9268850961868 288.479741120797 661.5519023064752
    vertex 108.27983748343047 288.56492655507435 661.5519023064752
  endloop
endfacet
facet normal 0.1305261922200539 0.9914448613738103 -6.643019626822166e-29
  outer loop
    vertex 108.9268850961868 288.479741120797 661.5519023064752
    vertex 108.27983748343047 288.56492655507435 663.5519023064752
    vertex 108.9268850961868 288.479741120797 663.5519023064752
  endloop
endfacet
facet normal 0.0 0.0 1.0
  outer loop
    vertex 98.2697535573745 286.10654310878476 663.5519023064752
    vertex 106.5120705304641 290.33269350804073 663.5519023064752
    vertex 106.42688509618677 290.97974112079703 663.5519023064752
  endloop
endfacet
facet normal 0.0 0.0 1.0
  outer loop
    vertex 106.5120705304641 290.33269350804073 663.5519023064752
    vertex 98.2697535573745 286.10654310878476 663.5519023064752
    vertex 106.76182158672569 289.72974112079703 663.5519023064752
  endloop
endfacet
facet normal 0.0 0.0 1.0
  outer loop
    vertex 106.76182158672569 289.72974112079703 663.5519023064752
    vertex 98.2697535573745 286.10654310878476 663.5519023064752
    vertex 107.15911814322041 289.21197416783065 663.5519023064752
  endloop
endfacet
facet normal 0.0 0.0 1.0
  outer loop
    vertex 107.15911814322041 289.21197416783065 663.5519023064752
    vertex 98.2697535573745 286.10654310878476 663.5519023064752
    vertex 107.67688509618678 288.8146776113359 663.5519023064752
  endloop
endfacet
facet normal 0.0 0.0 1.0
  outer loop
    vertex 107.67688509618678 288.8146776113359 663.5519023064752
    vertex 98.2697535573745 286.10654310878476 663.5519023064752
    vertex 108.27983748343047 288.56492655507435 663.5519023064752
  endloop
endfacet
facet normal 0.0 0.0 1.0
  outer loop
    vertex 108.27983748343047 288.56492655507435 663.5519023064752
    vertex 98.2697535573745 286.10654310878476 663.5519023064752
    vertex 119.58401663499907 286.10654310878476 663.5519023064752
  endloop
endfacet
facet normal 0.0 0.0 1.0
  outer loop
    vertex 108.27983748343047 288.56492655507435 663.5519023064752
    vertex 119.58401663499907 286.10654310878476 663.5519023064752
    vertex 108.9268850961868 288.479741120797 663.5519023064752
  endloop
endfacet
facet normal 0.0 0.0 1.0
  outer loop
    vertex 108.9268850961868 288.479741120797 663.5519023064752
    vertex 119.58401663499907 286.10654310878476 663.5519023064752
    vertex 109.5739327089431 288.56492655507435 663.5519023064752
  endloop
endfacet
facet normal 0.0 0.0 1.0
  outer loop
    vertex 109.5739327089431 288.56492655507435 663.5519023064752
    vertex 119.58401663499907 286.10654310878476 663.5519023064752
    vertex 110.1768850961868 288.8146776113359 663.5519023064752
  endloop
endfacet
facet normal 0.0 0.0 1.0
  outer loop
    vertex 110.1768850961868 288.8146776113359 663.5519023064752
    vertex 119.58401663499907 286.10654310878476 663.5519023064752
    vertex 110.69465204915316 289.21197416783065 663.5519023064752
  endloop
endfacet
facet normal 0.0 0.0 1.0
  outer loop
    vertex 110.69465204915316 289.21197416783065 663.5519023064752
    vertex 119.58401663499907 286.10654310878476 663.5519023064752
    vertex 111.0919486056479 289.72974112079703 663.5519023064752
  endloop
endfacet
facet normal 0.0 0.0 1.0
  outer loop
    vertex 111.0919486056479 289.72974112079703 663.5519023064752
    vertex 119.58401663499907 286.10654310878476 663.5519023064752
    vertex 111.34169966190947 290.33269350804073 663.5519023064752
  endloop
endfacet
facet normal 0.0 0.0 1.0
  outer loop
    vertex 111.34169966190947 290.33269350804073 663.5519023064752
    vertex 119.58401663499907 286.10654310878476 663.5519023064752
    vertex 111.42688509618681 290.97974112079703 663.5519023064752
  endloop
endfacet
facet normal 0.0 0.0 1.0
  outer loop
    vertex 98.26975355737439 300.2802818185123 663.5519023064752
    vertex 107.67688509618678 293.14480463025814 663.5519023064752
    vertex 119.58401663499919 300.2802818185123 663.5519023064752
  endloop
endfacet
facet normal 0.0 0.0 1.0
  outer loop
    vertex 107.67688509618678 293.14480463025814 663.5519023064752
    vertex 98.26975355737439 300.2802818185123 663.5519023064752
    vertex 98.2697535573745 286.10654310878476 663.5519023064752
  endloop
endfacet
facet normal 0.0 0.0 1.0
  outer loop
    vertex 107.67688509618678 293.14480463025814 663.5519023064752
    vertex 98.2697535573745 286.10654310878476 663.5519023064752
    vertex 107.15911814322041 292.7475080737634 663.5519023064752
  endloop
endfacet
facet normal 0.0 0.0 1.0
  outer loop
    vertex 107.15911814322041 292.7475080737634 663.5519023064752
    vertex 98.2697535573745 286.10654310878476 663.5519023064752
    vertex 106.76182158672569 292.22974112079703 663.5519023064752
  endloop
endfacet
facet normal 0.0 0.0 1.0
  outer loop
    vertex 106.76182158672569 292.22974112079703 663.5519023064752
    vertex 98.2697535573745 286.10654310878476 663.5519023064752
    vertex 106.5120705304641 291.6267887335533 663.5519023064752
  endloop
endfacet
facet normal 0.0 0.0 1.0
  outer loop
    vertex 106.5120705304641 291.6267887335533 663.5519023064752
    vertex 98.2697535573745 286.10654310878476 663.5519023064752
    vertex 106.42688509618677 290.97974112079703 663.5519023064752
  endloop
endfacet
facet normal 0.0 0.0 1.0
  outer loop
    vertex 119.58401663499919 300.2802818185123 663.5519023064752
    vertex 107.67688509618678 293.14480463025814 663.5519023064752
    vertex 108.27983748343047 293.3945556865197 663.5519023064752
  endloop
endfacet
facet normal 0.0 0.0 1.0
  outer loop
    vertex 119.58401663499919 300.2802818185123 663.5519023064752
    vertex 108.27983748343047 293.3945556865197 663.5519023064752
    vertex 108.9268850961868 293.47974112079703 663.5519023064752
  endloop
endfacet
facet normal 0.0 0.0 1.0
  outer loop
    vertex 119.58401663499919 300.2802818185123 663.5519023064752
    vertex 108.9268850961868 293.47974112079703 663.5519023064752
    vertex 109.5739327089431 293.3945556865197 663.5519023064752
  endloop
endfacet
facet normal 0.0 0.0 1.0
  outer loop
    vertex 119.58401663499919 300.2802818185123 663.5519023064752
    vertex 109.5739327089431 293.3945556865197 663.5519023064752
    vertex 110.1768850961868 293.14480463025814 663.5519023064752
  endloop
endfacet
facet normal 0.0 0.0 1.0
  outer loop
    vertex 119.58401663499919 300.2802818185123 663.5519023064752
    vertex 110.1768850961868 293.14480463025814 663.5519023064752
    vertex 110.69465204915316 292.7475080737634 663.5519023064752
  endloop
endfacet
facet normal 0.0 0.0 1.0
  outer loop
    vertex 119.58401663499919 300.2802818185123 663.5519023064752
    vertex 110.69465204915316 292.7475080737634 663.5519023064752
    vertex 111.0919486056479 292.22974112079703 663.5519023064752
  endloop
endfacet
facet normal 0.0 0.0 1.0
  outer loop
    vertex 119.58401663499919 300.2802818185123 663.5519023064752
    vertex 111.0919486056479 292.22974112079703 663.5519023064752
    vertex 111.34169966190947 291.6267887335533 663.5519023064752
  endloop
endfacet
facet normal 0.0 0.0 1.0
  outer loop
    vertex 119.58401663499919 300.2802818185123 663.5519023064752
    vertex 111.34169966190947 291.6267887335533 663.5519023064752
    vertex 111.42688509618681 290.97974112079703 663.5519023064752
  endloop
endfacet
facet normal 0.0 0.0 1.0
  outer loop
    vertex 119.58401663499919 300.2802818185123 663.5519023064752
    vertex 111.42688509618681 290.97974112079703 663.5519023064752
    vertex 119.58401663499907 286.10654310878476 663.5519023064752
  endloop
endfacet
facet normal 0.9238795325112937 -0.3826834323650732 -0.0
  outer loop
    vertex 106.76182158672569 292.22974112079703 661.5519023064752
    vertex 106.5120705304641 291.6267887335533 663.5519023064752
    vertex 106.5120705304641 291.6267887335533 661.5519023064752
  endloop
endfacet
facet normal 0.9238795325112937 -0.3826834323650732 -0.0
  outer loop
    vertex 106.5120705304641 291.6267887335533 663.5519023064752
    vertex 106.76182158672569 292.22974112079703 661.5519023064752
    vertex 106.76182158672569 292.22974112079703 663.5519023064752
  endloop
endfacet
facet normal 0.9914448613738096 -0.13052619222005837 -0.0
  outer loop
    vertex 106.5120705304641 291.6267887335533 661.5519023064752
    vertex 106.42688509618677 290.97974112079703 663.5519023064752
    vertex 106.42688509618677 290.97974112079703 661.5519023064752
  endloop
endfacet
facet normal 0.9914448613738096 -0.13052619222005837 -0.0
  outer loop
    vertex 106.42688509618677 290.97974112079703 663.5519023064752
    vertex 106.5120705304641 291.6267887335533 661.5519023064752
    vertex 106.5120705304641 291.6267887335533 663.5519023064752
  endloop
endfacet
facet normal 0.7071067811865589 -0.7071067811865361 -0.0
  outer loop
    vertex 103.22468155002973 294.5802818185121 647.9495432191247
    vertex 103.92468155002983 295.2802818185121 661.5519023064752
    vertex 103.22468155002983 294.58028181851205 661.5519023064752
  endloop
endfacet
facet normal 0.7071067811865589 -0.7071067811865361 -0.0
  outer loop
    vertex 103.92468155002983 295.2802818185121 661.5519023064752
    vertex 103.22468155002973 294.5802818185121 647.9495432191247
    vertex 103.92468155002972 295.28028181851215 647.9495432191247
  endloop
endfacet
facet normal -1.0 0.0 0.0
  outer loop
    vertex 114.62908864234375 294.58028181851205 661.5519023064752
    vertex 114.62908864234386 292.3328043990575 647.9495432191247
    vertex 114.62908864234375 292.33280439905747 661.5519023064752
  endloop
endfacet
facet normal -1.0 0.0 0.0
  outer loop
    vertex 114.62908864234386 292.3328043990575 647.9495432191247
    vertex 114.62908864234375 294.58028181851205 661.5519023064752
    vertex 114.62908864234386 294.5802818185121 647.9495432191247
  endloop
endfacet
facet normal 4.106205745742128e-15 5.8046789641688866e-15 -1.0
  outer loop
    vertex 103.92468155002983 295.2802818185121 661.5519023064752
    vertex 103.22468155002983 292.33280439905747 661.5519023064752
    vertex 103.22468155002983 294.58028181851205 661.5519023064752
  endloop
endfacet
facet normal 4.106205745742128e-15 5.8046789641688866e-15 -1.0
  outer loop
    vertex 103.22468155002983 292.33280439905747 661.5519023064752
    vertex 103.92468155002983 295.2802818185121 661.5519023064752
    vertex 105.26973316626732 286.60654310878726 661.551902306475
  endloop
endfacet
facet normal 4.106205745742128e-15 5.8046789641688866e-15 -1.0
  outer loop
    vertex 105.26973316626732 286.60654310878726 661.551902306475
    vertex 103.92468155002983 295.2802818185121 661.5519023064752
    vertex 106.5120705304641 291.6267887335533 661.5519023064752
  endloop
endfacet
facet normal 4.106205745742128e-15 5.8046789641688866e-15 -1.0
  outer loop
    vertex 106.5120705304641 291.6267887335533 661.5519023064752
    vertex 103.92468155002983 295.2802818185121 661.5519023064752
    vertex 106.76182158672569 292.22974112079703 661.5519023064752
  endloop
endfacet
facet normal 4.106205745742128e-15 5.8046789641688866e-15 -1.0
  outer loop
    vertex 106.76182158672569 292.22974112079703 661.5519023064752
    vertex 103.92468155002983 295.2802818185121 661.5519023064752
    vertex 108.9268850961868 297.2802818185121 661.5519023064752
  endloop
endfacet
facet normal 4.106205745742128e-15 5.8046789641688866e-15 -1.0
  outer loop
    vertex 105.26973316626732 286.60654310878726 661.551902306475
    vertex 106.5120705304641 291.6267887335533 661.5519023064752
    vertex 106.42688509618677 290.97974112079703 661.5519023064752
  endloop
endfacet
facet normal 4.106205745742128e-15 5.8046789641688866e-15 -1.0
  outer loop
    vertex 106.76182158672569 292.22974112079703 661.5519023064752
    vertex 108.9268850961868 297.2802818185121 661.5519023064752
    vertex 107.15911814322041 292.7475080737634 661.5519023064752
  endloop
endfacet
facet normal 4.106205745742128e-15 5.8046789641688866e-15 -1.0
  outer loop
    vertex 107.15911814322041 292.7475080737634 661.5519023064752
    vertex 108.9268850961868 297.2802818185121 661.5519023064752
    vertex 107.67688509618678 293.14480463025814 661.5519023064752
  endloop
endfacet
facet normal 4.106205745742128e-15 5.8046789641688866e-15 -1.0
  outer loop
    vertex 107.67688509618678 293.14480463025814 661.5519023064752
    vertex 108.9268850961868 297.2802818185121 661.5519023064752
    vertex 108.27983748343047 293.3945556865197 661.5519023064752
  endloop
endfacet
facet normal 4.106205745742128e-15 5.8046789641688866e-15 -1.0
  outer loop
    vertex 108.27983748343047 293.3945556865197 661.5519023064752
    vertex 108.9268850961868 297.2802818185121 661.5519023064752
    vertex 108.9268850961868 293.47974112079703 661.5519023064752
  endloop
endfacet
facet normal 4.106205745742128e-15 5.8046789641688866e-15 -1.0
  outer loop
    vertex 108.9268850961868 293.47974112079703 661.5519023064752
    vertex 108.9268850961868 297.2802818185121 661.5519023064752
    vertex 113.92908864234374 295.2802818185121 661.5519023064752
  endloop
endfacet
facet normal 4.106205745742128e-15 5.8046789641688866e-15 -1.0
  outer loop
    vertex 108.9268850961868 293.47974112079703 661.5519023064752
    vertex 113.92908864234374 295.2802818185121 661.5519023064752
    vertex 109.5739327089431 293.3945556865197 661.5519023064752
  endloop
endfacet
facet normal 4.106205745742128e-15 5.8046789641688866e-15 -1.0
  outer loop
    vertex 109.5739327089431 293.3945556865197 661.5519023064752
    vertex 113.92908864234374 295.2802818185121 661.5519023064752
    vertex 110.1768850961868 293.14480463025814 661.5519023064752
  endloop
endfacet
facet normal 4.106205745742128e-15 5.8046789641688866e-15 -1.0
  outer loop
    vertex 110.1768850961868 293.14480463025814 661.5519023064752
    vertex 113.92908864234374 295.2802818185121 661.5519023064752
    vertex 110.69465204915316 292.7475080737634 661.5519023064752
  endloop
endfacet
facet normal 4.106205745742128e-15 5.8046789641688866e-15 -1.0
  outer loop
    vertex 110.69465204915316 292.7475080737634 661.5519023064752
    vertex 113.92908864234374 295.2802818185121 661.5519023064752
    vertex 111.0919486056479 292.22974112079703 661.5519023064752
  endloop
endfacet
facet normal 4.106205745742128e-15 5.8046789641688866e-15 -1.0
  outer loop
    vertex 111.0919486056479 292.22974112079703 661.5519023064752
    vertex 113.92908864234374 295.2802818185121 661.5519023064752
    vertex 111.34169966190947 291.6267887335533 661.5519023064752
  endloop
endfacet
facet normal 4.106205745742128e-15 5.8046789641688866e-15 -1.0
  outer loop
    vertex 111.34169966190947 291.6267887335533 661.5519023064752
    vertex 113.92908864234374 295.2802818185121 661.5519023064752
    vertex 111.42688509618681 290.97974112079703 661.5519023064752
  endloop
endfacet
facet normal 4.106205745742128e-15 5.8046789641688866e-15 -1.0
  outer loop
    vertex 111.42688509618681 290.97974112079703 661.5519023064752
    vertex 113.92908864234374 295.2802818185121 661.5519023064752
    vertex 112.58403702610629 286.6065431087848 661.5519023064752
  endloop
endfacet
facet normal 4.106205745742128e-15 5.8046789641688866e-15 -1.0
  outer loop
    vertex 112.58403702610629 286.6065431087848 661.5519023064752
    vertex 113.92908864234374 295.2802818185121 661.5519023064752
    vertex 114.62908864234375 292.33280439905747 661.5519023064752
  endloop
endfacet
facet normal 4.106205745742128e-15 5.8046789641688866e-15 -1.0
  outer loop
    vertex 114.62908864234375 292.33280439905747 661.5519023064752
    vertex 113.92908864234374 295.2802818185121 661.5519023064752
    vertex 114.62908864234375 294.58028181851205 661.5519023064752
  endloop
endfacet
facet normal 4.106205745742128e-15 5.8046789641688866e-15 -1.0
  outer loop
    vertex 105.26973316626732 286.60654310878726 661.551902306475
    vertex 98.2697535573745 286.10654310878726 661.5519023064752
    vertex 98.2697535573745 286.60654310878726 661.551902306475
  endloop
endfacet
facet normal 4.106205745742128e-15 5.8046789641688866e-15 -1.0
  outer loop
    vertex 98.2697535573745 286.10654310878726 661.5519023064752
    vertex 105.26973316626732 286.60654310878726 661.551902306475
    vertex 119.58401663499907 286.10654310878476 661.5519023064752
  endloop
endfacet
facet normal 4.106205745742128e-15 5.8046789641688866e-15 -1.0
  outer loop
    vertex 119.58401663499907 286.10654310878476 661.5519023064752
    vertex 105.26973316626732 286.60654310878726 661.551902306475
    vertex 112.58403702610629 286.6065431087848 661.5519023064752
  endloop
endfacet
facet normal 4.106205745742128e-15 5.8046789641688866e-15 -1.0
  outer loop
    vertex 112.58403702610629 286.6065431087848 661.5519023064752
    vertex 105.26973316626732 286.60654310878726 661.551902306475
    vertex 107.67688509618678 288.8146776113359 661.5519023064752
  endloop
endfacet
facet normal 4.106205745742128e-15 5.8046789641688866e-15 -1.0
  outer loop
    vertex 107.67688509618678 288.8146776113359 661.5519023064752
    vertex 105.26973316626732 286.60654310878726 661.551902306475
    vertex 107.15911814322041 289.21197416783065 661.5519023064752
  endloop
endfacet
facet normal 4.106205745742128e-15 5.8046789641688866e-15 -1.0
  outer loop
    vertex 107.15911814322041 289.21197416783065 661.5519023064752
    vertex 105.26973316626732 286.60654310878726 661.551902306475
    vertex 106.76182158672569 289.72974112079703 661.5519023064752
  endloop
endfacet
facet normal 4.106205745742128e-15 5.8046789641688866e-15 -1.0
  outer loop
    vertex 106.76182158672569 289.72974112079703 661.5519023064752
    vertex 105.26973316626732 286.60654310878726 661.551902306475
    vertex 106.5120705304641 290.33269350804073 661.5519023064752
  endloop
endfacet
facet normal 4.106205745742128e-15 5.8046789641688866e-15 -1.0
  outer loop
    vertex 106.5120705304641 290.33269350804073 661.5519023064752
    vertex 105.26973316626732 286.60654310878726 661.551902306475
    vertex 106.42688509618677 290.97974112079703 661.5519023064752
  endloop
endfacet
facet normal 4.106205745742128e-15 5.8046789641688866e-15 -1.0
  outer loop
    vertex 112.58403702610629 286.6065431087848 661.5519023064752
    vertex 107.67688509618678 288.8146776113359 661.5519023064752
    vertex 108.27983748343047 288.56492655507435 661.5519023064752
  endloop
endfacet
facet normal 4.106205745742128e-15 5.8046789641688866e-15 -1.0
  outer loop
    vertex 112.58403702610629 286.6065431087848 661.5519023064752
    vertex 108.27983748343047 288.56492655507435 661.5519023064752
    vertex 108.9268850961868 288.479741120797 661.5519023064752
  endloop
endfacet
facet normal 4.106205745742128e-15 5.8046789641688866e-15 -1.0
  outer loop
    vertex 112.58403702610629 286.6065431087848 661.5519023064752
    vertex 108.9268850961868 288.479741120797 661.5519023064752
    vertex 109.5739327089431 288.56492655507435 661.5519023064752
  endloop
endfacet
facet normal 4.106205745742128e-15 5.8046789641688866e-15 -1.0
  outer loop
    vertex 112.58403702610629 286.6065431087848 661.5519023064752
    vertex 109.5739327089431 288.56492655507435 661.5519023064752
    vertex 110.1768850961868 288.8146776113359 661.5519023064752
  endloop
endfacet
facet normal 4.106205745742128e-15 5.8046789641688866e-15 -1.0
  outer loop
    vertex 112.58403702610629 286.6065431087848 661.5519023064752
    vertex 110.1768850961868 288.8146776113359 661.5519023064752
    vertex 110.69465204915316 289.21197416783065 661.5519023064752
  endloop
endfacet
facet normal 4.106205745742128e-15 5.8046789641688866e-15 -1.0
  outer loop
    vertex 112.58403702610629 286.6065431087848 661.5519023064752
    vertex 110.69465204915316 289.21197416783065 661.5519023064752
    vertex 111.0919486056479 289.72974112079703 661.5519023064752
  endloop
endfacet
facet normal 4.106205745742128e-15 5.8046789641688866e-15 -1.0
  outer loop
    vertex 112.58403702610629 286.6065431087848 661.5519023064752
    vertex 111.0919486056479 289.72974112079703 661.5519023064752
    vertex 111.34169966190947 290.33269350804073 661.5519023064752
  endloop
endfacet
facet normal 4.106205745742128e-15 5.8046789641688866e-15 -1.0
  outer loop
    vertex 112.58403702610629 286.6065431087848 661.5519023064752
    vertex 111.34169966190947 290.33269350804073 661.5519023064752
    vertex 111.42688509618681 290.97974112079703 661.5519023064752
  endloop
endfacet
facet normal 4.106205745742128e-15 5.8046789641688866e-15 -1.0
  outer loop
    vertex 119.58401663499907 286.10654310878476 661.5519023064752
    vertex 112.58403702610629 286.6065431087848 661.5519023064752
    vertex 119.58401663499907 286.6065431087848 661.5519023064752
  endloop
endfacet
facet normal -0.7071067811865589 -0.7071067811865361 0.0
  outer loop
    vertex 113.92908864234374 295.2802818185121 661.5519023064752
    vertex 114.62908864234386 294.5802818185121 647.9495432191247
    vertex 114.62908864234375 294.58028181851205 661.5519023064752
  endloop
endfacet
facet normal -0.7071067811865589 -0.7071067811865361 0.0
  outer loop
    vertex 114.62908864234386 294.5802818185121 647.9495432191247
    vertex 113.92908864234374 295.2802818185121 661.5519023064752
    vertex 113.92908864234386 295.28028181851215 647.9495432191247
  endloop
endfacet
facet normal -0.3712496262606735 -0.928533098495315 -3.077847981015082e-15
  outer loop
    vertex 113.92908864234374 295.2802818185121 661.5519023064752
    vertex 108.92688509618668 297.28028181851215 647.9495432191247
    vertex 113.92908864234386 295.28028181851215 647.9495432191247
  endloop
endfacet
facet normal -0.3712496262606735 -0.928533098495315 -3.077847981015082e-15
  outer loop
    vertex 108.92688509618668 297.28028181851215 647.9495432191247
    vertex 113.92908864234374 295.2802818185121 661.5519023064752
    vertex 108.9268850961868 297.2802818185121 661.5519023064752
  endloop
endfacet
facet normal -5.526955854928891e-14 -1.0 -3.1019631308026944e-13
  outer loop
    vertex 119.58401663499907 286.10654310878476 663.5519023064752
    vertex 98.2697535573745 286.10654310878726 661.5519023064752
    vertex 119.58401663499907 286.10654310878476 661.5519023064752
  endloop
endfacet
facet normal -5.526955854928891e-14 -1.0 -3.1019631308026944e-13
  outer loop
    vertex 98.2697535573745 286.10654310878726 661.5519023064752
    vertex 119.58401663499907 286.10654310878476 663.5519023064752
    vertex 98.2697535573745 286.10654310878476 663.5519023064752
  endloop
endfacet
facet normal 0.0 -1.0 0.0
  outer loop
    vertex 119.58401663499907 286.6065431087848 661.5519023064752
    vertex 112.58403702610629 286.6065431087848 647.9495432191247
    vertex 119.58401663499907 286.6065431087848 647.9495432191247
  endloop
endfacet
facet normal 0.0 -1.0 0.0
  outer loop
    vertex 112.58403702610629 286.6065431087848 647.9495432191247
    vertex 119.58401663499907 286.6065431087848 661.5519023064752
    vertex 112.58403702610629 286.6065431087848 661.5519023064752
  endloop
endfacet
facet normal -4.5594313329345075e-31 1.0 -1.1567344006932128e-14
  outer loop
    vertex 98.26975355737439 300.2802818185123 663.5519023064752
    vertex 119.58401663499919 300.28028181851215 647.9495432191247
    vertex 98.26975355737439 300.28028181851215 647.9495432191247
  endloop
endfacet
facet normal -4.5594313329345075e-31 1.0 -1.1567344006932128e-14
  outer loop
    vertex 119.58401663499919 300.28028181851215 647.9495432191247
    vertex 98.26975355737439 300.2802818185123 663.5519023064752
    vertex 119.58401663499919 300.2802818185123 663.5519023064752
  endloop
endfacet
facet normal 0.9417440838833772 0.336330314528231 -3.40346714317442e-14
  outer loop
    vertex 103.22468155002973 292.3328043990575 647.9495432191247
    vertex 105.26973316626732 286.60654310878726 661.551902306475
    vertex 105.26973316626732 286.6065431087848 647.9495432191247
  endloop
endfacet
facet normal 0.9417440838833772 0.336330314528231 -3.40346714317442e-14
  outer loop
    vertex 105.26973316626732 286.60654310878726 661.551902306475
    vertex 103.22468155002973 292.3328043990575 647.9495432191247
    vertex 103.22468155002983 292.33280439905747 661.5519023064752
  endloop
endfacet
facet normal -1.085777096620884e-15 -6.803076821403229e-16 -1.0
  outer loop
    vertex 98.26975355737439 300.28028181851215 647.9495432191247
    vertex 103.22468155002973 294.5802818185121 647.9495432191247
    vertex 98.2697535573745 286.6065431087848 647.9495432191247
  endloop
endfacet
facet normal -1.085777096620884e-15 -6.803076821403229e-16 -1.0
  outer loop
    vertex 103.22468155002973 294.5802818185121 647.9495432191247
    vertex 98.26975355737439 300.28028181851215 647.9495432191247
    vertex 103.92468155002972 295.28028181851215 647.9495432191247
  endloop
endfacet
facet normal -1.085777096620884e-15 -6.803076821403229e-16 -1.0
  outer loop
    vertex 103.92468155002972 295.28028181851215 647.9495432191247
    vertex 98.26975355737439 300.28028181851215 647.9495432191247
    vertex 108.92688509618668 297.28028181851215 647.9495432191247
  endloop
endfacet
facet normal -1.085777096620884e-15 -6.803076821403229e-16 -1.0
  outer loop
    vertex 108.92688509618668 297.28028181851215 647.9495432191247
    vertex 98.26975355737439 300.28028181851215 647.9495432191247
    vertex 119.58401663499919 300.28028181851215 647.9495432191247
  endloop
endfacet
facet normal -1.085777096620884e-15 -6.803076821403229e-16 -1.0
  outer loop
    vertex 108.92688509618668 297.28028181851215 647.9495432191247
    vertex 119.58401663499919 300.28028181851215 647.9495432191247
    vertex 113.92908864234386 295.28028181851215 647.9495432191247
  endloop
endfacet
facet normal -1.085777096620884e-15 -6.803076821403229e-16 -1.0
  outer loop
    vertex 113.92908864234386 295.28028181851215 647.9495432191247
    vertex 119.58401663499919 300.28028181851215 647.9495432191247
    vertex 114.62908864234386 294.5802818185121 647.9495432191247
  endloop
endfacet
facet normal -1.085777096620884e-15 -6.803076821403229e-16 -1.0
  outer loop
    vertex 114.62908864234386 294.5802818185121 647.9495432191247
    vertex 119.58401663499919 300.28028181851215 647.9495432191247
    vertex 114.62908864234386 292.3328043990575 647.9495432191247
  endloop
endfacet
facet normal -1.085777096620884e-15 -6.803076821403229e-16 -1.0
  outer loop
    vertex 114.62908864234386 292.3328043990575 647.9495432191247
    vertex 119.58401663499919 300.28028181851215 647.9495432191247
    vertex 119.58401663499907 286.6065431087848 647.9495432191247
  endloop
endfacet
facet normal -1.085777096620884e-15 -6.803076821403229e-16 -1.0
  outer loop
    vertex 119.58401663499907 286.6065431087848 647.9495432191247
    vertex 112.58403702610629 286.6065431087848 647.9495432191247
    vertex 114.62908864234386 292.3328043990575 647.9495432191247
  endloop
endfacet
facet normal -1.085777096620884e-15 -6.803076821403229e-16 -1.0
  outer loop
    vertex 98.2697535573745 286.6065431087848 647.9495432191247
    vertex 103.22468155002973 292.3328043990575 647.9495432191247
    vertex 105.26973316626732 286.6065431087848 647.9495432191247
  endloop
endfacet
facet normal -1.085777096620884e-15 -6.803076821403229e-16 -1.0
  outer loop
    vertex 103.22468155002973 292.3328043990575 647.9495432191247
    vertex 98.2697535573745 286.6065431087848 647.9495432191247
    vertex 103.22468155002973 294.5802818185121 647.9495432191247
  endloop
endfacet
endsolid Development Mockup rev2
