solid Development Mockup rev2
facet normal -0.9870874576374976 -0.16018224300696293 5.068478405393847e-16
  outer loop
    vertex -57.38309937186677 608.2802368575664 13.600000000000003
    vertex -57.21138594581311 607.2220910482449 3.5999999999999996
    vertex -57.21138594581311 607.2220910482449 13.600000000000003
  endloop
endfacet
facet normal -0.9870874576374976 -0.16018224300696293 5.068478405393847e-16
  outer loop
    vertex -57.21138594581311 607.2220910482449 3.5999999999999996
    vertex -57.38309937186677 608.2802368575664 13.600000000000003
    vertex -57.38309937186677 608.2802368575664 3.5999999999999996
  endloop
endfacet
facet normal -0.9642692009944032 0.26492434394297437 4.951311643574113e-16
  outer loop
    vertex -57.38309937186677 604.0230513659011 13.600000000000003
    vertex -57.6670950625844 602.9893664515654 3.6000000000000005
    vertex -57.6670950625844 602.9893664515654 13.600000000000003
  endloop
endfacet
facet normal -0.9642692009944032 0.26492434394297437 4.951311643574113e-16
  outer loop
    vertex -57.6670950625844 602.9893664515654 3.6000000000000005
    vertex -57.38309937186677 604.0230513659011 13.600000000000003
    vertex -57.38309937186677 604.0230513659011 3.5999999999999996
  endloop
endfacet
facet normal -0.9991360663705621 -0.04155864383687366 5.130345378483281e-16
  outer loop
    vertex -53.709597529875396 608.1598619037611 11.6
    vertex -53.66784808744304 607.1561387349117 5.600000000000005
    vertex -53.66784808744304 607.1561387349117 11.6
  endloop
endfacet
facet normal -0.9991360663705621 -0.04155864383687366 5.130345378483281e-16
  outer loop
    vertex -53.66784808744304 607.1561387349117 5.600000000000005
    vertex -53.709597529875396 608.1598619037611 11.6
    vertex -53.709597529875396 608.1598619037611 5.600000000000006
  endloop
endfacet
facet normal -0.9642692009944043 -0.2649243439429707 4.951311643574119e-16
  outer loop
    vertex -57.667095062584394 609.3139217719021 13.600000000000003
    vertex -57.38309937186677 608.2802368575664 3.5999999999999996
    vertex -57.38309937186677 608.2802368575664 13.600000000000003
  endloop
endfacet
facet normal -0.9642692009944043 -0.2649243439429707 4.951311643574119e-16
  outer loop
    vertex -57.38309937186677 608.2802368575664 3.5999999999999996
    vertex -57.667095062584394 609.3139217719021 13.600000000000003
    vertex -57.6670950625844 609.3139217719021 3.6000000000000005
  endloop
endfacet
facet normal -0.9985625192564667 0.053599394923627565 5.127400339378816e-16
  outer loop
    vertex -57.15392804308954 606.1516441117337 13.600000000000003
    vertex -57.21138594581311 605.0811971752225 3.5999999999999996
    vertex -57.21138594581311 605.0811971752225 13.600000000000003
  endloop
endfacet
facet normal -0.9985625192564667 0.053599394923627565 5.127400339378816e-16
  outer loop
    vertex -57.21138594581311 605.0811971752225 3.5999999999999996
    vertex -57.15392804308954 606.1516441117337 13.600000000000003
    vertex -57.15392804308954 606.1516441117337 3.5999999999999996
  endloop
endfacet
facet normal -0.8310096523592961 -0.5562579956150581 4.2732437418283754e-16
  outer loop
    vertex -58.65392804308953 611.4046798802888 13.600000000000003
    vertex -58.55762620336169 611.2608118208907 3.6000000000000005
    vertex -58.55762620336169 611.2608118208907 13.600000000000003
  endloop
endfacet
facet normal -0.8310096523592961 -0.5562579956150581 4.2732437418283754e-16
  outer loop
    vertex -58.55762620336169 611.2608118208907 3.6000000000000005
    vertex -58.65392804308953 611.4046798802888 13.600000000000003
    vertex -58.653928043089536 611.4046798802888 3.600000000000023
  endloop
endfacet
facet normal -0.9884056936697223 -0.15183604552699284 5.072468605166903e-16
  outer loop
    vertex -54.15392804308955 612.1516441117337 11.600000000000001
    vertex -54.00139490782249 611.1587005794653 5.600000000000006
    vertex -54.00139490782249 611.1587005794653 11.6
  endloop
endfacet
facet normal -0.9884056936697223 -0.15183604552699284 5.072468605166903e-16
  outer loop
    vertex -54.00139490782249 611.1587005794653 5.600000000000006
    vertex -54.15392804308955 612.1516441117337 11.600000000000001
    vertex -54.15392804308955 612.1516441117337 5.6000000000000005
  endloop
endfacet
facet normal -0.9999039950856421 -0.013856428535965751 5.134129414285004e-16
  outer loop
    vertex -53.66784808744304 607.1561387349117 11.6
    vertex -53.65392804308955 606.1516441117337 5.6
    vertex -53.65392804308955 606.1516441117337 11.6
  endloop
endfacet
facet normal -0.9999039950856421 -0.013856428535965751 5.134129414285004e-16
  outer loop
    vertex -53.65392804308955 606.1516441117337 5.6
    vertex -53.66784808744304 607.1561387349117 11.6
    vertex -53.66784808744304 607.1561387349117 5.600000000000005
  endloop
endfacet
facet normal -0.9303699671613092 -0.36662204544225735 4.777246485200343e-16
  outer loop
    vertex -58.06010945861177 610.3112671178013 13.600000000000003
    vertex -57.6670950625844 609.3139217719021 3.6000000000000005
    vertex -57.667095062584394 609.3139217719021 13.600000000000003
  endloop
endfacet
facet normal -0.9303699671613092 -0.36662204544225735 4.777246485200343e-16
  outer loop
    vertex -57.6670950625844 609.3139217719021 3.6000000000000005
    vertex -58.06010945861177 610.3112671178013 13.600000000000003
    vertex -58.06010945861177 610.3112671178013 3.6000000000000005
  endloop
endfacet
facet normal -0.8310096523592961 0.5562579956150581 4.267052980024549e-16
  outer loop
    vertex -58.55762620336169 601.0424764025769 13.600000000000003
    vertex -58.653928043089536 600.8986083431788 3.6000000000000005
    vertex -58.65392804308953 600.8986083431788 13.600000000000003
  endloop
endfacet
facet normal -0.8310096523592961 0.5562579956150581 4.267052980024549e-16
  outer loop
    vertex -58.653928043089536 600.8986083431788 3.6000000000000005
    vertex -58.55762620336169 601.0424764025769 13.600000000000003
    vertex -58.55762620336169 601.0424764025769 3.6000000000000005
  endloop
endfacet
facet normal -0.8857793119141714 -0.4641066801769365 4.548283214059803e-16
  outer loop
    vertex -58.55762620336169 611.2608118208907 13.600000000000003
    vertex -58.06010945861177 610.3112671178013 3.6000000000000005
    vertex -58.06010945861177 610.3112671178013 13.600000000000003
  endloop
endfacet
facet normal -0.8857793119141714 -0.4641066801769365 4.548283214059803e-16
  outer loop
    vertex -58.06010945861177 610.3112671178013 3.6000000000000005
    vertex -58.55762620336169 611.2608118208907 13.600000000000003
    vertex -58.55762620336169 611.2608118208907 3.6000000000000005
  endloop
endfacet
facet normal -0.9922335513315549 -0.12438882430496184 5.094902472034192e-16
  outer loop
    vertex -54.00139490782249 611.1587005794653 11.6
    vertex -53.87643500586004 610.1619116155767 5.600000000000006
    vertex -53.87643500586004 610.1619116155767 11.6
  endloop
endfacet
facet normal -0.9922335513315549 -0.12438882430496184 5.094902472034192e-16
  outer loop
    vertex -53.87643500586004 610.1619116155767 5.600000000000006
    vertex -54.00139490782249 611.1587005794653 11.6
    vertex -54.00139490782249 611.1587005794653 5.600000000000006
  endloop
endfacet
facet normal 1.0719966062082177e-15 -7.165475863398754e-33 1.0
  outer loop
    vertex -52.65392804308955 600.1516441117337 13.600000000000003
    vertex -58.65392804308953 600.8986083431788 13.600000000000003
    vertex -58.65392804308953 600.1516441117337 13.600000000000003
  endloop
endfacet
facet normal 1.0719966062082177e-15 -7.165475863398754e-33 1.0
  outer loop
    vertex -58.65392804308953 600.8986083431788 13.600000000000003
    vertex -52.65392804308955 600.1516441117337 13.600000000000003
    vertex -58.55762620336169 601.0424764025769 13.600000000000003
  endloop
endfacet
facet normal 1.0719966062082177e-15 -7.165475863398754e-33 1.0
  outer loop
    vertex -58.55762620336169 601.0424764025769 13.600000000000003
    vertex -52.65392804308955 600.1516441117337 13.600000000000003
    vertex -58.06010945861177 601.9920211056661 13.600000000000003
  endloop
endfacet
facet normal 1.0719966062082177e-15 -7.165475863398754e-33 1.0
  outer loop
    vertex -58.06010945861177 601.9920211056661 13.600000000000003
    vertex -52.65392804308955 600.1516441117337 13.600000000000003
    vertex -57.6670950625844 602.9893664515654 13.600000000000003
  endloop
endfacet
facet normal 1.0719966062082177e-15 -7.165475863398754e-33 1.0
  outer loop
    vertex -57.6670950625844 602.9893664515654 13.600000000000003
    vertex -52.65392804308955 600.1516441117337 13.600000000000003
    vertex -57.38309937186677 604.0230513659011 13.600000000000003
  endloop
endfacet
facet normal 1.0719966062082177e-15 -7.165475863398754e-33 1.0
  outer loop
    vertex -57.38309937186677 604.0230513659011 13.600000000000003
    vertex -52.65392804308955 600.1516441117337 13.600000000000003
    vertex -57.21138594581311 605.0811971752225 13.600000000000003
  endloop
endfacet
facet normal 1.0719966062082177e-15 -7.165475863398754e-33 1.0
  outer loop
    vertex -57.21138594581311 605.0811971752225 13.600000000000003
    vertex -52.65392804308955 600.1516441117337 13.600000000000003
    vertex -57.15392804308954 606.1516441117337 13.600000000000003
  endloop
endfacet
facet normal 1.0719966062082177e-15 -7.165475863398754e-33 1.0
  outer loop
    vertex -51.05392804308954 604.1516441117337 13.6
    vertex -52.65392804308955 605.5516441117338 13.600000000000003
    vertex -52.65392804308955 604.1516441117337 13.600000000000003
  endloop
endfacet
facet normal 1.0719966062082177e-15 -7.165475863398754e-33 1.0
  outer loop
    vertex -52.65392804308955 605.5516441117338 13.600000000000003
    vertex -51.05392804308954 604.1516441117337 13.6
    vertex -51.05392804308954 605.5516441117338 13.6
  endloop
endfacet
facet normal 1.0719966062082177e-15 -7.165475863398754e-33 1.0
  outer loop
    vertex -51.05392804308954 605.5516441117338 13.6
    vertex -51.05392804308954 604.1516441117337 13.6
    vertex -50.05392804308954 603.1516441117337 13.6
  endloop
endfacet
facet normal 1.0719966062082177e-15 -7.165475863398754e-33 1.0
  outer loop
    vertex -51.05392804308954 605.5516441117338 13.6
    vertex -50.05392804308954 603.1516441117337 13.6
    vertex -49.053928043089655 604.8516441117338 13.599999999999978
  endloop
endfacet
facet normal 1.0719966062082177e-15 -7.165475863398754e-33 1.0
  outer loop
    vertex -49.053928043089655 604.8516441117338 13.599999999999978
    vertex -50.05392804308954 603.1516441117337 13.6
    vertex -49.05392804308955 604.1516441117337 13.6
  endloop
endfacet
facet normal 1.0719966062082177e-15 -7.165475863398754e-33 1.0
  outer loop
    vertex -51.05392804308954 606.7516441117338 13.6
    vertex -52.65392804308955 608.1516441117337 13.600000000000003
    vertex -52.65392804308955 606.7516441117338 13.600000000000003
  endloop
endfacet
facet normal 1.0719966062082177e-15 -7.165475863398754e-33 1.0
  outer loop
    vertex -52.65392804308955 608.1516441117337 13.600000000000003
    vertex -51.05392804308954 606.7516441117338 13.6
    vertex -51.05392804308954 608.1516441117337 13.6
  endloop
endfacet
facet normal 1.0719966062082177e-15 -7.165475863398754e-33 1.0
  outer loop
    vertex -51.05392804308954 608.1516441117337 13.6
    vertex -51.05392804308954 606.7516441117338 13.6
    vertex -49.053928043089655 607.4516441117337 13.599999999999978
  endloop
endfacet
facet normal 1.0719966062082177e-15 -7.165475863398754e-33 1.0
  outer loop
    vertex -51.05392804308954 608.1516441117337 13.6
    vertex -49.053928043089655 607.4516441117337 13.599999999999978
    vertex -50.05392804308954 609.1516441117338 13.6
  endloop
endfacet
facet normal 1.0719966062082177e-15 -7.165475863398754e-33 1.0
  outer loop
    vertex -50.05392804308954 609.1516441117338 13.6
    vertex -49.053928043089655 607.4516441117337 13.599999999999978
    vertex -49.05392804308955 608.1516441117337 13.6
  endloop
endfacet
facet normal 1.0719966062082177e-15 -7.165475863398754e-33 1.0
  outer loop
    vertex -58.55762620336169 611.2608118208907 13.600000000000003
    vertex -58.65392804308953 612.1516441117337 13.600000000000003
    vertex -58.65392804308953 611.4046798802888 13.600000000000003
  endloop
endfacet
facet normal 1.0719966062082177e-15 -7.165475863398754e-33 1.0
  outer loop
    vertex -58.65392804308953 612.1516441117337 13.600000000000003
    vertex -58.55762620336169 611.2608118208907 13.600000000000003
    vertex -52.65392804308955 612.1516441117337 13.600000000000003
  endloop
endfacet
facet normal 1.0719966062082177e-15 -7.165475863398754e-33 1.0
  outer loop
    vertex -52.65392804308955 612.1516441117337 13.600000000000003
    vertex -58.55762620336169 611.2608118208907 13.600000000000003
    vertex -58.06010945861177 610.3112671178013 13.600000000000003
  endloop
endfacet
facet normal 1.0719966062082177e-15 -7.165475863398754e-33 1.0
  outer loop
    vertex -52.65392804308955 612.1516441117337 13.600000000000003
    vertex -58.06010945861177 610.3112671178013 13.600000000000003
    vertex -57.667095062584394 609.3139217719021 13.600000000000003
  endloop
endfacet
facet normal 1.0719966062082177e-15 -7.165475863398754e-33 1.0
  outer loop
    vertex -52.65392804308955 612.1516441117337 13.600000000000003
    vertex -57.667095062584394 609.3139217719021 13.600000000000003
    vertex -57.38309937186677 608.2802368575664 13.600000000000003
  endloop
endfacet
facet normal 1.0719966062082177e-15 -7.165475863398754e-33 1.0
  outer loop
    vertex -52.65392804308955 612.1516441117337 13.600000000000003
    vertex -57.38309937186677 608.2802368575664 13.600000000000003
    vertex -57.21138594581311 607.2220910482449 13.600000000000003
  endloop
endfacet
facet normal 1.0719966062082177e-15 -7.165475863398754e-33 1.0
  outer loop
    vertex -52.65392804308955 612.1516441117337 13.600000000000003
    vertex -57.21138594581311 607.2220910482449 13.600000000000003
    vertex -57.15392804308954 606.1516441117337 13.600000000000003
  endloop
endfacet
facet normal 1.0719966062082177e-15 -7.165475863398754e-33 1.0
  outer loop
    vertex -52.65392804308955 612.1516441117337 13.600000000000003
    vertex -57.15392804308954 606.1516441117337 13.600000000000003
    vertex -52.65392804308955 600.1516441117337 13.600000000000003
  endloop
endfacet
facet normal 1.0719966062082177e-15 -7.165475863398754e-33 1.0
  outer loop
    vertex -52.65392804308955 612.1516441117337 13.600000000000003
    vertex -52.65392804308955 600.1516441117337 13.600000000000003
    vertex -52.65392804308955 604.1516441117337 13.600000000000003
  endloop
endfacet
facet normal 1.0719966062082177e-15 -7.165475863398754e-33 1.0
  outer loop
    vertex -52.65392804308955 612.1516441117337 13.600000000000003
    vertex -52.65392804308955 604.1516441117337 13.600000000000003
    vertex -52.65392804308955 605.5516441117338 13.600000000000003
  endloop
endfacet
facet normal 1.0719966062082177e-15 -7.165475863398754e-33 1.0
  outer loop
    vertex -52.65392804308955 612.1516441117337 13.600000000000003
    vertex -52.65392804308955 605.5516441117338 13.600000000000003
    vertex -52.65392804308955 606.7516441117338 13.600000000000003
  endloop
endfacet
facet normal 1.0719966062082177e-15 -7.165475863398754e-33 1.0
  outer loop
    vertex -52.65392804308955 612.1516441117337 13.600000000000003
    vertex -52.65392804308955 606.7516441117338 13.600000000000003
    vertex -52.65392804308955 608.1516441117337 13.600000000000003
  endloop
endfacet
facet normal -0.997600798711534 -0.06922894199761812 5.12246211452721e-16
  outer loop
    vertex -53.77914430671265 609.1620427564318 11.6
    vertex -53.709597529875396 608.1598619037611 5.600000000000006
    vertex -53.709597529875396 608.1598619037611 11.6
  endloop
endfacet
facet normal -0.997600798711534 -0.06922894199761812 5.12246211452721e-16
  outer loop
    vertex -53.709597529875396 608.1598619037611 5.600000000000006
    vertex -53.77914430671265 609.1620427564318 11.6
    vertex -53.77914430671265 609.1620427564318 5.600000000000006
  endloop
endfacet
facet normal 0.0 1.0 0.0
  outer loop
    vertex -58.653928043089536 612.1516441117337 3.600000000000023
    vertex -57.15392804308954 612.1516441117337 5.600000000000002
    vertex -54.15392804308955 612.1516441117337 5.6000000000000005
  endloop
endfacet
facet normal 0.0 1.0 0.0
  outer loop
    vertex -57.15392804308954 612.1516441117337 5.600000000000002
    vertex -58.653928043089536 612.1516441117337 3.600000000000023
    vertex -58.65392804308953 612.1516441117337 13.600000000000003
  endloop
endfacet
facet normal 0.0 1.0 0.0
  outer loop
    vertex -57.15392804308954 612.1516441117337 5.600000000000002
    vertex -58.65392804308953 612.1516441117337 13.600000000000003
    vertex -57.15392804308954 612.1516441117337 11.600000000000003
  endloop
endfacet
facet normal 0.0 1.0 0.0
  outer loop
    vertex -52.65392804308955 612.1516441117337 3.5999999999999974
    vertex -54.15392804308955 612.1516441117337 5.6000000000000005
    vertex -52.65392804308955 612.1516441117337 13.600000000000003
  endloop
endfacet
facet normal 0.0 1.0 0.0
  outer loop
    vertex -54.15392804308955 612.1516441117337 5.6000000000000005
    vertex -52.65392804308955 612.1516441117337 3.5999999999999974
    vertex -58.653928043089536 612.1516441117337 3.600000000000023
  endloop
endfacet
facet normal 0.0 1.0 0.0
  outer loop
    vertex -52.65392804308955 612.1516441117337 13.600000000000003
    vertex -54.15392804308955 612.1516441117337 5.6000000000000005
    vertex -54.15392804308955 612.1516441117337 11.600000000000001
  endloop
endfacet
facet normal 0.0 1.0 0.0
  outer loop
    vertex -52.65392804308955 612.1516441117337 13.600000000000003
    vertex -54.15392804308955 612.1516441117337 11.600000000000001
    vertex -57.15392804308954 612.1516441117337 11.600000000000003
  endloop
endfacet
facet normal 0.0 1.0 0.0
  outer loop
    vertex -52.65392804308955 612.1516441117337 13.600000000000003
    vertex -57.15392804308954 612.1516441117337 11.600000000000003
    vertex -58.65392804308953 612.1516441117337 13.600000000000003
  endloop
endfacet
facet normal -0.9952993711978776 -0.09684607216149609 5.110644787132061e-16
  outer loop
    vertex -53.87643500586004 610.1619116155767 11.6
    vertex -53.77914430671265 609.1620427564318 5.600000000000006
    vertex -53.77914430671265 609.1620427564318 11.6
  endloop
endfacet
facet normal -0.9952993711978776 -0.09684607216149609 5.110644787132061e-16
  outer loop
    vertex -53.77914430671265 609.1620427564318 5.600000000000006
    vertex -53.87643500586004 610.1619116155767 11.6
    vertex -53.87643500586004 610.1619116155767 5.600000000000006
  endloop
endfacet
facet normal -0.93036996716131 0.36662204544225513 4.777246485200347e-16
  outer loop
    vertex -57.6670950625844 602.9893664515654 13.600000000000003
    vertex -58.06010945861177 601.9920211056661 3.6000000000000005
    vertex -58.06010945861177 601.9920211056661 13.600000000000003
  endloop
endfacet
facet normal -0.93036996716131 0.36662204544225513 4.777246485200347e-16
  outer loop
    vertex -58.06010945861177 601.9920211056661 3.6000000000000005
    vertex -57.6670950625844 602.9893664515654 13.600000000000003
    vertex -57.6670950625844 602.9893664515654 3.6000000000000005
  endloop
endfacet
facet normal -0.9985625192564667 -0.05359939492362625 5.127400339378816e-16
  outer loop
    vertex -57.21138594581311 607.2220910482449 13.600000000000003
    vertex -57.15392804308954 606.1516441117337 3.5999999999999996
    vertex -57.15392804308954 606.1516441117337 13.600000000000003
  endloop
endfacet
facet normal -0.9985625192564667 -0.05359939492362625 5.127400339378816e-16
  outer loop
    vertex -57.15392804308954 606.1516441117337 3.5999999999999996
    vertex -57.21138594581311 607.2220910482449 13.600000000000003
    vertex -57.21138594581311 607.2220910482449 3.5999999999999996
  endloop
endfacet
facet normal -0.9870874576374978 0.16018224300696038 5.068478405393848e-16
  outer loop
    vertex -57.21138594581311 605.0811971752225 13.600000000000003
    vertex -57.38309937186677 604.0230513659011 3.5999999999999996
    vertex -57.38309937186677 604.0230513659011 13.600000000000003
  endloop
endfacet
facet normal -0.9870874576374978 0.16018224300696038 5.068478405393848e-16
  outer loop
    vertex -57.38309937186677 604.0230513659011 3.5999999999999996
    vertex -57.21138594581311 605.0811971752225 13.600000000000003
    vertex -57.21138594581311 605.0811971752225 3.5999999999999996
  endloop
endfacet
facet normal -0.8857793119141714 0.4641066801769365 4.548283214059803e-16
  outer loop
    vertex -58.06010945861177 601.9920211056661 13.600000000000003
    vertex -58.55762620336169 601.0424764025769 3.6000000000000005
    vertex -58.55762620336169 601.0424764025769 13.600000000000003
  endloop
endfacet
facet normal -0.8857793119141714 0.4641066801769365 4.548283214059803e-16
  outer loop
    vertex -58.55762620336169 601.0424764025769 3.6000000000000005
    vertex -58.06010945861177 601.9920211056661 13.600000000000003
    vertex -58.06010945861177 601.9920211056661 3.6000000000000005
  endloop
endfacet
facet normal -1.82453646023694e-15 -2.276134650425586e-16 1.0
  outer loop
    vertex -54.15392804308955 600.1516441117337 5.6000000000000005
    vertex -56.55762620336169 601.0424764025769 5.599999999999996
    vertex -57.15392804308954 600.1516441117337 5.600000000000002
  endloop
endfacet
facet normal -1.82453646023694e-15 -2.276134650425586e-16 1.0
  outer loop
    vertex -56.55762620336169 601.0424764025769 5.599999999999996
    vertex -54.15392804308955 600.1516441117337 5.6000000000000005
    vertex -56.06010945861178 601.9920211056661 5.599999999999995
  endloop
endfacet
facet normal -1.82453646023694e-15 -2.276134650425586e-16 1.0
  outer loop
    vertex -56.06010945861178 601.9920211056661 5.599999999999995
    vertex -54.15392804308955 600.1516441117337 5.6000000000000005
    vertex -55.66709506258441 602.9893664515654 5.599999999999995
  endloop
endfacet
facet normal -1.82453646023694e-15 -2.276134650425586e-16 1.0
  outer loop
    vertex -55.66709506258441 602.9893664515654 5.599999999999995
    vertex -54.15392804308955 600.1516441117337 5.6000000000000005
    vertex -55.38309937186678 604.0230513659011 5.599999999999995
  endloop
endfacet
facet normal -1.82453646023694e-15 -2.276134650425586e-16 1.0
  outer loop
    vertex -55.38309937186678 604.0230513659011 5.599999999999995
    vertex -54.15392804308955 600.1516441117337 5.6000000000000005
    vertex -55.21138594581312 605.0811971752225 5.599999999999995
  endloop
endfacet
facet normal -1.82453646023694e-15 -2.276134650425586e-16 1.0
  outer loop
    vertex -55.21138594581312 605.0811971752225 5.599999999999995
    vertex -54.15392804308955 600.1516441117337 5.6000000000000005
    vertex -55.15392804308954 606.1516441117337 5.599999999999995
  endloop
endfacet
facet normal -1.82453646023694e-15 -2.276134650425586e-16 1.0
  outer loop
    vertex -56.55762620336169 611.2608118208907 5.599999999999996
    vertex -54.15392804308955 612.1516441117337 5.6000000000000005
    vertex -57.15392804308954 612.1516441117337 5.600000000000002
  endloop
endfacet
facet normal -1.82453646023694e-15 -2.276134650425586e-16 1.0
  outer loop
    vertex -54.15392804308955 612.1516441117337 5.6000000000000005
    vertex -56.55762620336169 611.2608118208907 5.599999999999996
    vertex -56.06010945861178 610.3112671178013 5.599999999999995
  endloop
endfacet
facet normal -1.82453646023694e-15 -2.276134650425586e-16 1.0
  outer loop
    vertex -54.15392804308955 612.1516441117337 5.6000000000000005
    vertex -56.06010945861178 610.3112671178013 5.599999999999995
    vertex -55.66709506258441 609.3139217719021 5.599999999999995
  endloop
endfacet
facet normal -1.82453646023694e-15 -2.276134650425586e-16 1.0
  outer loop
    vertex -54.15392804308955 612.1516441117337 5.6000000000000005
    vertex -55.66709506258441 609.3139217719021 5.599999999999995
    vertex -55.38309937186678 608.2802368575664 5.599999999999995
  endloop
endfacet
facet normal -1.82453646023694e-15 -2.276134650425586e-16 1.0
  outer loop
    vertex -54.15392804308955 612.1516441117337 5.6000000000000005
    vertex -55.38309937186678 608.2802368575664 5.599999999999995
    vertex -55.21138594581312 607.2220910482449 5.599999999999995
  endloop
endfacet
facet normal -1.82453646023694e-15 -2.276134650425586e-16 1.0
  outer loop
    vertex -54.15392804308955 612.1516441117337 5.6000000000000005
    vertex -55.21138594581312 607.2220910482449 5.599999999999995
    vertex -55.15392804308954 606.1516441117337 5.599999999999995
  endloop
endfacet
facet normal -1.82453646023694e-15 -2.276134650425586e-16 1.0
  outer loop
    vertex -54.15392804308955 612.1516441117337 5.6000000000000005
    vertex -55.15392804308954 606.1516441117337 5.599999999999995
    vertex -54.15392804308955 600.1516441117337 5.6000000000000005
  endloop
endfacet
facet normal -1.82453646023694e-15 -2.276134650425586e-16 1.0
  outer loop
    vertex -54.15392804308955 612.1516441117337 5.6000000000000005
    vertex -54.15392804308955 600.1516441117337 5.6000000000000005
    vertex -54.0013949078225 601.1445876440023 5.6000000000000005
  endloop
endfacet
facet normal -1.82453646023694e-15 -2.276134650425586e-16 1.0
  outer loop
    vertex -54.15392804308955 612.1516441117337 5.6000000000000005
    vertex -54.0013949078225 601.1445876440023 5.6000000000000005
    vertex -54.00139490782249 611.1587005794653 5.600000000000006
  endloop
endfacet
facet normal -1.82453646023694e-15 -2.276134650425586e-16 1.0
  outer loop
    vertex -54.00139490782249 611.1587005794653 5.600000000000006
    vertex -54.0013949078225 601.1445876440023 5.6000000000000005
    vertex -53.876435005860024 602.1413766078907 5.6000000000000005
  endloop
endfacet
facet normal -1.82453646023694e-15 -2.276134650425586e-16 1.0
  outer loop
    vertex -54.00139490782249 611.1587005794653 5.600000000000006
    vertex -53.876435005860024 602.1413766078907 5.6000000000000005
    vertex -53.87643500586004 610.1619116155767 5.600000000000006
  endloop
endfacet
facet normal -1.82453646023694e-15 -2.276134650425586e-16 1.0
  outer loop
    vertex -53.87643500586004 610.1619116155767 5.600000000000006
    vertex -53.876435005860024 602.1413766078907 5.6000000000000005
    vertex -53.77914430671265 609.1620427564318 5.600000000000006
  endloop
endfacet
facet normal -1.82453646023694e-15 -2.276134650425586e-16 1.0
  outer loop
    vertex -53.77914430671265 609.1620427564318 5.600000000000006
    vertex -53.876435005860024 602.1413766078907 5.6000000000000005
    vertex -53.779144306712666 603.1412454670357 5.6000000000000005
  endloop
endfacet
facet normal -1.82453646023694e-15 -2.276134650425586e-16 1.0
  outer loop
    vertex -53.77914430671265 609.1620427564318 5.600000000000006
    vertex -53.779144306712666 603.1412454670357 5.6000000000000005
    vertex -53.709597529875396 604.1434263197065 5.6000000000000005
  endloop
endfacet
facet normal -1.82453646023694e-15 -2.276134650425586e-16 1.0
  outer loop
    vertex -53.77914430671265 609.1620427564318 5.600000000000006
    vertex -53.709597529875396 604.1434263197065 5.6000000000000005
    vertex -53.709597529875396 608.1598619037611 5.600000000000006
  endloop
endfacet
facet normal -1.82453646023694e-15 -2.276134650425586e-16 1.0
  outer loop
    vertex -53.709597529875396 608.1598619037611 5.600000000000006
    vertex -53.709597529875396 604.1434263197065 5.6000000000000005
    vertex -53.66784808744304 605.1471494885558 5.6
  endloop
endfacet
facet normal -1.82453646023694e-15 -2.276134650425586e-16 1.0
  outer loop
    vertex -53.709597529875396 608.1598619037611 5.600000000000006
    vertex -53.66784808744304 605.1471494885558 5.6
    vertex -53.66784808744304 607.1561387349117 5.600000000000005
  endloop
endfacet
facet normal -1.82453646023694e-15 -2.276134650425586e-16 1.0
  outer loop
    vertex -53.66784808744304 607.1561387349117 5.600000000000005
    vertex -53.66784808744304 605.1471494885558 5.6
    vertex -53.65392804308955 606.1516441117337 5.6
  endloop
endfacet
facet normal -0.9884056936697232 0.1518360455269874 5.075247259370108e-16
  outer loop
    vertex -54.0013949078225 601.1445876440023 11.6
    vertex -54.15392804308955 600.1516441117337 5.6000000000000005
    vertex -54.15392804308955 600.1516441117337 11.600000000000001
  endloop
endfacet
facet normal -0.9884056936697232 0.1518360455269874 5.075247259370108e-16
  outer loop
    vertex -54.15392804308955 600.1516441117337 5.6000000000000005
    vertex -54.0013949078225 601.1445876440023 11.6
    vertex -54.0013949078225 601.1445876440023 5.6000000000000005
  endloop
endfacet
facet normal -0.9952993711978787 0.09684607216148496 5.110644787132067e-16
  outer loop
    vertex -53.779144306712666 603.1412454670357 11.6
    vertex -53.876435005860024 602.1413766078907 5.6000000000000005
    vertex -53.876435005860024 602.1413766078907 11.6
  endloop
endfacet
facet normal -0.9952993711978787 0.09684607216148496 5.110644787132067e-16
  outer loop
    vertex -53.876435005860024 602.1413766078907 5.6000000000000005
    vertex -53.779144306712666 603.1412454670357 11.6
    vertex -53.779144306712666 603.1412454670357 5.6000000000000005
  endloop
endfacet
facet normal 0.9642692009944036 0.2649243439429731 -4.935064073677251e-16
  outer loop
    vertex -55.66709506258441 609.3139217719021 5.599999999999995
    vertex -55.38309937186678 608.2802368575664 11.600000000000001
    vertex -55.38309937186678 608.2802368575664 5.599999999999995
  endloop
endfacet
facet normal 0.9642692009944036 0.2649243439429731 -4.935064073677251e-16
  outer loop
    vertex -55.38309937186678 608.2802368575664 11.600000000000001
    vertex -55.66709506258441 609.3139217719021 5.599999999999995
    vertex -55.66709506258441 609.3139217719021 11.600000000000001
  endloop
endfacet
facet normal 0.8857793119141714 -0.4641066801769365 -4.530892045930432e-16
  outer loop
    vertex -56.06010945861178 601.9920211056661 5.599999999999995
    vertex -56.55762620336169 601.0424764025769 11.600000000000001
    vertex -56.55762620336169 601.0424764025769 5.599999999999996
  endloop
endfacet
facet normal 0.8857793119141714 -0.4641066801769365 -4.530892045930432e-16
  outer loop
    vertex -56.55762620336169 601.0424764025769 11.600000000000001
    vertex -56.06010945861178 601.9920211056661 5.599999999999995
    vertex -56.06010945861178 601.9920211056661 11.600000000000001
  endloop
endfacet
facet normal 0.0 -1.0 0.0
  outer loop
    vertex -52.65392804308955 600.1516441117337 3.5999999999999974
    vertex -54.15392804308955 600.1516441117337 5.6000000000000005
    vertex -58.653928043089536 600.1516441117337 3.6000000000000005
  endloop
endfacet
facet normal 0.0 -1.0 0.0
  outer loop
    vertex -54.15392804308955 600.1516441117337 5.6000000000000005
    vertex -52.65392804308955 600.1516441117337 3.5999999999999974
    vertex -52.65392804308955 600.1516441117337 13.600000000000003
  endloop
endfacet
facet normal 0.0 -1.0 0.0
  outer loop
    vertex -54.15392804308955 600.1516441117337 5.6000000000000005
    vertex -52.65392804308955 600.1516441117337 13.600000000000003
    vertex -54.15392804308955 600.1516441117337 11.600000000000001
  endloop
endfacet
facet normal 0.0 -1.0 0.0
  outer loop
    vertex -54.15392804308955 600.1516441117337 11.600000000000001
    vertex -52.65392804308955 600.1516441117337 13.600000000000003
    vertex -57.15392804308954 600.1516441117337 11.600000000000003
  endloop
endfacet
facet normal 0.0 -1.0 0.0
  outer loop
    vertex -58.653928043089536 600.1516441117337 3.6000000000000005
    vertex -57.15392804308954 600.1516441117337 5.600000000000002
    vertex -58.65392804308953 600.1516441117337 13.600000000000003
  endloop
endfacet
facet normal 0.0 -1.0 0.0
  outer loop
    vertex -57.15392804308954 600.1516441117337 5.600000000000002
    vertex -58.653928043089536 600.1516441117337 3.6000000000000005
    vertex -54.15392804308955 600.1516441117337 5.6000000000000005
  endloop
endfacet
facet normal 0.0 -1.0 0.0
  outer loop
    vertex -58.65392804308953 600.1516441117337 13.600000000000003
    vertex -57.15392804308954 600.1516441117337 5.600000000000002
    vertex -57.15392804308954 600.1516441117337 11.600000000000003
  endloop
endfacet
facet normal 0.0 -1.0 0.0
  outer loop
    vertex -58.65392804308953 600.1516441117337 13.600000000000003
    vertex -57.15392804308954 600.1516441117337 11.600000000000003
    vertex -52.65392804308955 600.1516441117337 13.600000000000003
  endloop
endfacet
facet normal -0.9991360663705622 0.041558643836868046 5.130345378483281e-16
  outer loop
    vertex -53.66784808744304 605.1471494885558 11.6
    vertex -53.709597529875396 604.1434263197065 5.6000000000000005
    vertex -53.709597529875396 604.1434263197065 11.6
  endloop
endfacet
facet normal -0.9991360663705622 0.041558643836868046 5.130345378483281e-16
  outer loop
    vertex -53.709597529875396 604.1434263197065 5.6000000000000005
    vertex -53.66784808744304 605.1471494885558 11.6
    vertex -53.66784808744304 605.1471494885558 5.6
  endloop
endfacet
facet normal 0.9985625192564667 -0.053599394923627565 -5.128739336249671e-16
  outer loop
    vertex -55.15392804308954 606.1516441117337 5.599999999999995
    vertex -55.21138594581312 605.0811971752225 11.600000000000001
    vertex -55.21138594581312 605.0811971752225 5.599999999999995
  endloop
endfacet
facet normal 0.9985625192564667 -0.053599394923627565 -5.128739336249671e-16
  outer loop
    vertex -55.21138594581312 605.0811971752225 11.600000000000001
    vertex -55.15392804308954 606.1516441117337 5.599999999999995
    vertex -55.153928043089536 606.1516441117337 11.600000000000001
  endloop
endfacet
facet normal 0.8310096523593474 -0.5562579956149816 -4.268627910431016e-16
  outer loop
    vertex -56.55762620336169 601.0424764025769 5.599999999999996
    vertex -57.15392804308954 600.1516441117337 11.600000000000003
    vertex -57.15392804308954 600.1516441117337 5.600000000000002
  endloop
endfacet
facet normal 0.8310096523593474 -0.5562579956149816 -4.268627910431016e-16
  outer loop
    vertex -57.15392804308954 600.1516441117337 11.600000000000003
    vertex -56.55762620336169 601.0424764025769 5.599999999999996
    vertex -56.55762620336169 601.0424764025769 11.600000000000001
  endloop
endfacet
facet normal -0.9922335513315536 0.1243888243049729 5.094902472034185e-16
  outer loop
    vertex -53.876435005860024 602.1413766078907 11.6
    vertex -54.0013949078225 601.1445876440023 5.6000000000000005
    vertex -54.0013949078225 601.1445876440023 11.6
  endloop
endfacet
facet normal -0.9922335513315536 0.1243888243049729 5.094902472034185e-16
  outer loop
    vertex -54.0013949078225 601.1445876440023 5.6000000000000005
    vertex -53.876435005860024 602.1413766078907 11.6
    vertex -53.876435005860024 602.1413766078907 5.6000000000000005
  endloop
endfacet
facet normal 0.9985625192564667 0.05359939492362756 -5.126061342507967e-16
  outer loop
    vertex -55.21138594581312 607.2220910482449 5.599999999999995
    vertex -55.153928043089536 606.1516441117337 11.600000000000001
    vertex -55.15392804308954 606.1516441117337 5.599999999999995
  endloop
endfacet
facet normal 0.9985625192564667 0.05359939492362756 -5.126061342507967e-16
  outer loop
    vertex -55.153928043089536 606.1516441117337 11.600000000000001
    vertex -55.21138594581312 607.2220910482449 5.599999999999995
    vertex -55.21138594581312 607.2220910482449 11.600000000000001
  endloop
endfacet
facet normal -0.9999039950856421 0.013856428535965753 5.134288524634262e-16
  outer loop
    vertex -53.65392804308955 606.1516441117337 11.6
    vertex -53.66784808744304 605.1471494885558 5.6
    vertex -53.66784808744304 605.1471494885558 11.6
  endloop
endfacet
facet normal -0.9999039950856421 0.013856428535965753 5.134288524634262e-16
  outer loop
    vertex -53.66784808744304 605.1471494885558 5.6
    vertex -53.65392804308955 606.1516441117337 11.6
    vertex -53.65392804308955 606.1516441117337 5.6
  endloop
endfacet
facet normal 0.9303699671613097 -0.36662204544225635 -4.798026328155578e-16
  outer loop
    vertex -55.66709506258441 602.9893664515654 5.599999999999995
    vertex -56.06010945861178 601.9920211056661 11.600000000000001
    vertex -56.06010945861178 601.9920211056661 5.599999999999995
  endloop
endfacet
facet normal 0.9303699671613097 -0.36662204544225635 -4.798026328155578e-16
  outer loop
    vertex -56.06010945861178 601.9920211056661 11.600000000000001
    vertex -55.66709506258441 602.9893664515654 5.599999999999995
    vertex -55.66709506258441 602.9893664515654 11.600000000000001
  endloop
endfacet
facet normal 0.8310096523593474 0.5562579956149816 -4.268627910431016e-16
  outer loop
    vertex -57.15392804308954 612.1516441117337 5.600000000000002
    vertex -56.55762620336169 611.2608118208907 11.600000000000001
    vertex -56.55762620336169 611.2608118208907 5.599999999999996
  endloop
endfacet
facet normal 0.8310096523593474 0.5562579956149816 -4.268627910431016e-16
  outer loop
    vertex -56.55762620336169 611.2608118208907 11.600000000000001
    vertex -57.15392804308954 612.1516441117337 5.600000000000002
    vertex -57.15392804308954 612.1516441117337 11.600000000000003
  endloop
endfacet
facet normal 0.9642692009944036 -0.2649243439429731 -4.96755921347098e-16
  outer loop
    vertex -55.38309937186678 604.0230513659011 5.599999999999995
    vertex -55.66709506258441 602.9893664515654 11.600000000000001
    vertex -55.66709506258441 602.9893664515654 5.599999999999995
  endloop
endfacet
facet normal 0.9642692009944036 -0.2649243439429731 -4.96755921347098e-16
  outer loop
    vertex -55.66709506258441 602.9893664515654 11.600000000000001
    vertex -55.38309937186678 604.0230513659011 5.599999999999995
    vertex -55.38309937186678 604.0230513659011 11.600000000000001
  endloop
endfacet
facet normal 0.8857793119141714 0.4641066801769365 -4.5656743821891745e-16
  outer loop
    vertex -56.55762620336169 611.2608118208907 5.599999999999996
    vertex -56.06010945861178 610.3112671178013 11.600000000000001
    vertex -56.06010945861178 610.3112671178013 5.599999999999995
  endloop
endfacet
facet normal 0.8857793119141714 0.4641066801769365 -4.5656743821891745e-16
  outer loop
    vertex -56.06010945861178 610.3112671178013 11.600000000000001
    vertex -56.55762620336169 611.2608118208907 5.599999999999996
    vertex -56.55762620336169 611.2608118208907 11.600000000000001
  endloop
endfacet
facet normal 6.245418530039418e-16 6.419551279114101e-16 -1.0
  outer loop
    vertex -52.65392804308955 612.1516441117337 3.5999999999999974
    vertex -58.653928043089536 611.4046798802888 3.600000000000023
    vertex -58.653928043089536 612.1516441117337 3.600000000000023
  endloop
endfacet
facet normal 6.245418530039418e-16 6.419551279114101e-16 -1.0
  outer loop
    vertex -58.653928043089536 611.4046798802888 3.600000000000023
    vertex -52.65392804308955 612.1516441117337 3.5999999999999974
    vertex -58.55762620336169 611.2608118208907 3.6000000000000005
  endloop
endfacet
facet normal 6.245418530039418e-16 6.419551279114101e-16 -1.0
  outer loop
    vertex -58.55762620336169 611.2608118208907 3.6000000000000005
    vertex -52.65392804308955 612.1516441117337 3.5999999999999974
    vertex -58.06010945861177 610.3112671178013 3.6000000000000005
  endloop
endfacet
facet normal 6.245418530039418e-16 6.419551279114101e-16 -1.0
  outer loop
    vertex -58.06010945861177 610.3112671178013 3.6000000000000005
    vertex -52.65392804308955 612.1516441117337 3.5999999999999974
    vertex -57.6670950625844 609.3139217719021 3.6000000000000005
  endloop
endfacet
facet normal 6.245418530039418e-16 6.419551279114101e-16 -1.0
  outer loop
    vertex -57.6670950625844 609.3139217719021 3.6000000000000005
    vertex -52.65392804308955 612.1516441117337 3.5999999999999974
    vertex -57.38309937186677 608.2802368575664 3.5999999999999996
  endloop
endfacet
facet normal 6.245418530039418e-16 6.419551279114101e-16 -1.0
  outer loop
    vertex -57.38309937186677 608.2802368575664 3.5999999999999996
    vertex -52.65392804308955 612.1516441117337 3.5999999999999974
    vertex -57.21138594581311 607.2220910482449 3.5999999999999996
  endloop
endfacet
facet normal 6.245418530039418e-16 6.419551279114101e-16 -1.0
  outer loop
    vertex -57.21138594581311 607.2220910482449 3.5999999999999996
    vertex -52.65392804308955 612.1516441117337 3.5999999999999974
    vertex -57.15392804308954 606.1516441117337 3.5999999999999996
  endloop
endfacet
facet normal 6.245418530039418e-16 6.419551279114101e-16 -1.0
  outer loop
    vertex -51.053928043089556 608.1516441117337 3.599999999999997
    vertex -52.65392804308955 606.7516441117338 3.5999999999999974
    vertex -52.65392804308955 608.1516441117337 3.5999999999999974
  endloop
endfacet
facet normal 6.245418530039418e-16 6.419551279114101e-16 -1.0
  outer loop
    vertex -52.65392804308955 606.7516441117338 3.5999999999999974
    vertex -51.053928043089556 608.1516441117337 3.599999999999997
    vertex -51.053928043089556 606.7516441117338 3.599999999999997
  endloop
endfacet
facet normal 6.245418530039418e-16 6.419551279114101e-16 -1.0
  outer loop
    vertex -51.053928043089556 606.7516441117338 3.599999999999997
    vertex -51.053928043089556 608.1516441117337 3.599999999999997
    vertex -50.05392804308955 609.1516441117338 3.6000000000000187
  endloop
endfacet
facet normal 6.245418530039418e-16 6.419551279114101e-16 -1.0
  outer loop
    vertex -51.053928043089556 606.7516441117338 3.599999999999997
    vertex -50.05392804308955 609.1516441117338 3.6000000000000187
    vertex -49.05392804308955 607.4516441117337 3.6000000000000183
  endloop
endfacet
facet normal 6.245418530039418e-16 6.419551279114101e-16 -1.0
  outer loop
    vertex -49.05392804308955 607.4516441117337 3.6000000000000183
    vertex -50.05392804308955 609.1516441117338 3.6000000000000187
    vertex -49.05392804308955 608.1516441117337 3.6000000000000183
  endloop
endfacet
facet normal 6.245418530039418e-16 6.419551279114101e-16 -1.0
  outer loop
    vertex -51.053928043089556 605.5516441117338 3.599999999999997
    vertex -52.65392804308955 604.1516441117337 3.5999999999999974
    vertex -52.65392804308955 605.5516441117338 3.5999999999999974
  endloop
endfacet
facet normal 6.245418530039418e-16 6.419551279114101e-16 -1.0
  outer loop
    vertex -52.65392804308955 604.1516441117337 3.5999999999999974
    vertex -51.053928043089556 605.5516441117338 3.599999999999997
    vertex -51.053928043089556 604.1516441117337 3.599999999999997
  endloop
endfacet
facet normal 6.245418530039418e-16 6.419551279114101e-16 -1.0
  outer loop
    vertex -51.053928043089556 604.1516441117337 3.599999999999997
    vertex -51.053928043089556 605.5516441117338 3.599999999999997
    vertex -49.05392804308955 604.8516441117338 3.6000000000000183
  endloop
endfacet
facet normal 6.245418530039418e-16 6.419551279114101e-16 -1.0
  outer loop
    vertex -51.053928043089556 604.1516441117337 3.599999999999997
    vertex -49.05392804308955 604.8516441117338 3.6000000000000183
    vertex -50.05392804308955 603.1516441117337 3.6000000000000187
  endloop
endfacet
facet normal 6.245418530039418e-16 6.419551279114101e-16 -1.0
  outer loop
    vertex -50.05392804308955 603.1516441117337 3.6000000000000187
    vertex -49.05392804308955 604.8516441117338 3.6000000000000183
    vertex -49.05392804308955 604.1516441117337 3.6000000000000183
  endloop
endfacet
facet normal 6.245418530039418e-16 6.419551279114101e-16 -1.0
  outer loop
    vertex -58.55762620336169 601.0424764025769 3.6000000000000005
    vertex -58.653928043089536 600.1516441117337 3.6000000000000005
    vertex -58.653928043089536 600.8986083431788 3.6000000000000005
  endloop
endfacet
facet normal 6.245418530039418e-16 6.419551279114101e-16 -1.0
  outer loop
    vertex -58.653928043089536 600.1516441117337 3.6000000000000005
    vertex -58.55762620336169 601.0424764025769 3.6000000000000005
    vertex -52.65392804308955 600.1516441117337 3.5999999999999974
  endloop
endfacet
facet normal 6.245418530039418e-16 6.419551279114101e-16 -1.0
  outer loop
    vertex -52.65392804308955 600.1516441117337 3.5999999999999974
    vertex -58.55762620336169 601.0424764025769 3.6000000000000005
    vertex -58.06010945861177 601.9920211056661 3.6000000000000005
  endloop
endfacet
facet normal 6.245418530039418e-16 6.419551279114101e-16 -1.0
  outer loop
    vertex -52.65392804308955 600.1516441117337 3.5999999999999974
    vertex -58.06010945861177 601.9920211056661 3.6000000000000005
    vertex -57.6670950625844 602.9893664515654 3.6000000000000005
  endloop
endfacet
facet normal 6.245418530039418e-16 6.419551279114101e-16 -1.0
  outer loop
    vertex -52.65392804308955 600.1516441117337 3.5999999999999974
    vertex -57.6670950625844 602.9893664515654 3.6000000000000005
    vertex -57.38309937186677 604.0230513659011 3.5999999999999996
  endloop
endfacet
facet normal 6.245418530039418e-16 6.419551279114101e-16 -1.0
  outer loop
    vertex -52.65392804308955 600.1516441117337 3.5999999999999974
    vertex -57.38309937186677 604.0230513659011 3.5999999999999996
    vertex -57.21138594581311 605.0811971752225 3.5999999999999996
  endloop
endfacet
facet normal 6.245418530039418e-16 6.419551279114101e-16 -1.0
  outer loop
    vertex -52.65392804308955 600.1516441117337 3.5999999999999974
    vertex -57.21138594581311 605.0811971752225 3.5999999999999996
    vertex -57.15392804308954 606.1516441117337 3.5999999999999996
  endloop
endfacet
facet normal 6.245418530039418e-16 6.419551279114101e-16 -1.0
  outer loop
    vertex -52.65392804308955 600.1516441117337 3.5999999999999974
    vertex -57.15392804308954 606.1516441117337 3.5999999999999996
    vertex -52.65392804308955 612.1516441117337 3.5999999999999974
  endloop
endfacet
facet normal 6.245418530039418e-16 6.419551279114101e-16 -1.0
  outer loop
    vertex -52.65392804308955 600.1516441117337 3.5999999999999974
    vertex -52.65392804308955 612.1516441117337 3.5999999999999974
    vertex -52.65392804308955 608.1516441117337 3.5999999999999974
  endloop
endfacet
facet normal 6.245418530039418e-16 6.419551279114101e-16 -1.0
  outer loop
    vertex -52.65392804308955 600.1516441117337 3.5999999999999974
    vertex -52.65392804308955 608.1516441117337 3.5999999999999974
    vertex -52.65392804308955 606.7516441117338 3.5999999999999974
  endloop
endfacet
facet normal 6.245418530039418e-16 6.419551279114101e-16 -1.0
  outer loop
    vertex -52.65392804308955 600.1516441117337 3.5999999999999974
    vertex -52.65392804308955 606.7516441117338 3.5999999999999974
    vertex -52.65392804308955 605.5516441117338 3.5999999999999974
  endloop
endfacet
facet normal 6.245418530039418e-16 6.419551279114101e-16 -1.0
  outer loop
    vertex -52.65392804308955 600.1516441117337 3.5999999999999974
    vertex -52.65392804308955 605.5516441117338 3.5999999999999974
    vertex -52.65392804308955 604.1516441117337 3.5999999999999974
  endloop
endfacet
facet normal 0.9870874576374976 0.1601822430069629 -5.074643153237172e-16
  outer loop
    vertex -55.38309937186678 608.2802368575664 5.599999999999995
    vertex -55.21138594581312 607.2220910482449 11.600000000000001
    vertex -55.21138594581312 607.2220910482449 5.599999999999995
  endloop
endfacet
facet normal 0.9870874576374976 0.1601822430069629 -5.074643153237172e-16
  outer loop
    vertex -55.21138594581312 607.2220910482449 11.600000000000001
    vertex -55.38309937186678 608.2802368575664 5.599999999999995
    vertex -55.38309937186678 608.2802368575664 11.600000000000001
  endloop
endfacet
facet normal 0.9303699671613097 0.36662204544225624 -4.783057010097807e-16
  outer loop
    vertex -56.06010945861178 610.3112671178013 5.599999999999995
    vertex -55.66709506258441 609.3139217719021 11.600000000000001
    vertex -55.66709506258441 609.3139217719021 5.599999999999995
  endloop
endfacet
facet normal 0.9303699671613097 0.36662204544225624 -4.783057010097807e-16
  outer loop
    vertex -55.66709506258441 609.3139217719021 11.600000000000001
    vertex -56.06010945861178 610.3112671178013 5.599999999999995
    vertex -56.06010945861178 610.3112671178013 11.600000000000001
  endloop
endfacet
facet normal 0.9870874576374976 -0.16018224300696296 -5.07064154981501e-16
  outer loop
    vertex -55.21138594581312 605.0811971752225 5.599999999999995
    vertex -55.38309937186678 604.0230513659011 11.600000000000001
    vertex -55.38309937186678 604.0230513659011 5.599999999999995
  endloop
endfacet
facet normal 0.9870874576374976 -0.16018224300696296 -5.07064154981501e-16
  outer loop
    vertex -55.38309937186678 604.0230513659011 11.600000000000001
    vertex -55.21138594581312 605.0811971752225 5.599999999999995
    vertex -55.21138594581312 605.0811971752225 11.600000000000001
  endloop
endfacet
facet normal -0.9976007987115333 0.0692289419976293 5.122462114527206e-16
  outer loop
    vertex -53.709597529875396 604.1434263197065 11.6
    vertex -53.779144306712666 603.1412454670357 5.6000000000000005
    vertex -53.779144306712666 603.1412454670357 11.6
  endloop
endfacet
facet normal -0.9976007987115333 0.0692289419976293 5.122462114527206e-16
  outer loop
    vertex -53.779144306712666 603.1412454670357 5.6000000000000005
    vertex -53.709597529875396 604.1434263197065 11.6
    vertex -53.709597529875396 604.1434263197065 5.6000000000000005
  endloop
endfacet
facet normal -1.0 -1.887618150799941e-15 5.134781488891349e-16
  outer loop
    vertex -58.65392804308953 600.8986083431788 13.600000000000003
    vertex -58.653928043089536 600.1516441117337 3.6000000000000005
    vertex -58.65392804308953 600.1516441117337 13.600000000000003
  endloop
endfacet
facet normal -1.0 -1.887618150799941e-15 5.134781488891349e-16
  outer loop
    vertex -58.653928043089536 600.1516441117337 3.6000000000000005
    vertex -58.65392804308953 600.8986083431788 13.600000000000003
    vertex -58.653928043089536 600.8986083431788 3.6000000000000005
  endloop
endfacet
facet normal 0.3303504247281234 -0.9438583563660113 1.693759420164679e-15
  outer loop
    vertex -49.05392804308955 607.4516441117337 3.6000000000000183
    vertex -51.05392804308954 606.7516441117338 13.6
    vertex -51.053928043089556 606.7516441117338 3.599999999999997
  endloop
endfacet
facet normal 0.3303504247281234 -0.9438583563660113 1.693759420164679e-15
  outer loop
    vertex -51.05392804308954 606.7516441117338 13.6
    vertex -49.05392804308955 607.4516441117337 3.6000000000000183
    vertex -49.053928043089655 607.4516441117337 13.599999999999978
  endloop
endfacet
facet normal 0.0 -1.0 0.0
  outer loop
    vertex -51.05392804308954 606.7516441117338 13.6
    vertex -52.65392804308955 606.7516441117338 3.5999999999999974
    vertex -51.053928043089556 606.7516441117338 3.599999999999997
  endloop
endfacet
facet normal 0.0 -1.0 0.0
  outer loop
    vertex -52.65392804308955 606.7516441117338 3.5999999999999974
    vertex -51.05392804308954 606.7516441117338 13.6
    vertex -52.65392804308955 606.7516441117338 13.600000000000003
  endloop
endfacet
facet normal 0.33035042472812337 0.9438583563660115 1.6937594201646789e-15
  outer loop
    vertex -51.05392804308954 605.5516441117338 13.6
    vertex -49.05392804308955 604.8516441117338 3.6000000000000183
    vertex -51.053928043089556 605.5516441117338 3.599999999999997
  endloop
endfacet
facet normal 0.33035042472812337 0.9438583563660115 1.6937594201646789e-15
  outer loop
    vertex -49.05392804308955 604.8516441117338 3.6000000000000183
    vertex -51.05392804308954 605.5516441117338 13.6
    vertex -49.053928043089655 604.8516441117338 13.599999999999978
  endloop
endfacet
facet normal 1.0 -8.057047092993757e-14 5.126454816206671e-15
  outer loop
    vertex -49.05392804308955 608.1516441117337 3.6000000000000183
    vertex -49.053928043089655 607.4516441117337 13.599999999999978
    vertex -49.05392804308955 607.4516441117337 3.6000000000000183
  endloop
endfacet
facet normal 1.0 -8.057047092993757e-14 5.126454816206671e-15
  outer loop
    vertex -49.053928043089655 607.4516441117337 13.599999999999978
    vertex -49.05392804308955 608.1516441117337 3.6000000000000183
    vertex -49.05392804308955 608.1516441117337 13.6
  endloop
endfacet
facet normal -5.134781488891349e-16 0.0 -1.0
  outer loop
    vertex -54.15392804308955 612.1516441117337 11.600000000000001
    vertex -56.55762620336169 611.2608118208907 11.600000000000001
    vertex -57.15392804308954 612.1516441117337 11.600000000000003
  endloop
endfacet
facet normal -5.134781488891349e-16 0.0 -1.0
  outer loop
    vertex -56.55762620336169 611.2608118208907 11.600000000000001
    vertex -54.15392804308955 612.1516441117337 11.600000000000001
    vertex -56.06010945861178 610.3112671178013 11.600000000000001
  endloop
endfacet
facet normal -5.134781488891349e-16 0.0 -1.0
  outer loop
    vertex -56.06010945861178 610.3112671178013 11.600000000000001
    vertex -54.15392804308955 612.1516441117337 11.600000000000001
    vertex -55.66709506258441 609.3139217719021 11.600000000000001
  endloop
endfacet
facet normal -5.134781488891349e-16 0.0 -1.0
  outer loop
    vertex -55.66709506258441 609.3139217719021 11.600000000000001
    vertex -54.15392804308955 612.1516441117337 11.600000000000001
    vertex -55.38309937186678 608.2802368575664 11.600000000000001
  endloop
endfacet
facet normal -5.134781488891349e-16 0.0 -1.0
  outer loop
    vertex -55.38309937186678 608.2802368575664 11.600000000000001
    vertex -54.15392804308955 612.1516441117337 11.600000000000001
    vertex -55.21138594581312 607.2220910482449 11.600000000000001
  endloop
endfacet
facet normal -5.134781488891349e-16 0.0 -1.0
  outer loop
    vertex -55.21138594581312 607.2220910482449 11.600000000000001
    vertex -54.15392804308955 612.1516441117337 11.600000000000001
    vertex -55.153928043089536 606.1516441117337 11.600000000000001
  endloop
endfacet
facet normal -5.134781488891349e-16 0.0 -1.0
  outer loop
    vertex -56.55762620336169 601.0424764025769 11.600000000000001
    vertex -54.15392804308955 600.1516441117337 11.600000000000001
    vertex -57.15392804308954 600.1516441117337 11.600000000000003
  endloop
endfacet
facet normal -5.134781488891349e-16 0.0 -1.0
  outer loop
    vertex -54.15392804308955 600.1516441117337 11.600000000000001
    vertex -56.55762620336169 601.0424764025769 11.600000000000001
    vertex -56.06010945861178 601.9920211056661 11.600000000000001
  endloop
endfacet
facet normal -5.134781488891349e-16 0.0 -1.0
  outer loop
    vertex -54.15392804308955 600.1516441117337 11.600000000000001
    vertex -56.06010945861178 601.9920211056661 11.600000000000001
    vertex -55.66709506258441 602.9893664515654 11.600000000000001
  endloop
endfacet
facet normal -5.134781488891349e-16 0.0 -1.0
  outer loop
    vertex -54.15392804308955 600.1516441117337 11.600000000000001
    vertex -55.66709506258441 602.9893664515654 11.600000000000001
    vertex -55.38309937186678 604.0230513659011 11.600000000000001
  endloop
endfacet
facet normal -5.134781488891349e-16 0.0 -1.0
  outer loop
    vertex -54.15392804308955 600.1516441117337 11.600000000000001
    vertex -55.38309937186678 604.0230513659011 11.600000000000001
    vertex -55.21138594581312 605.0811971752225 11.600000000000001
  endloop
endfacet
facet normal -5.134781488891349e-16 0.0 -1.0
  outer loop
    vertex -54.15392804308955 600.1516441117337 11.600000000000001
    vertex -55.21138594581312 605.0811971752225 11.600000000000001
    vertex -55.153928043089536 606.1516441117337 11.600000000000001
  endloop
endfacet
facet normal -5.134781488891349e-16 0.0 -1.0
  outer loop
    vertex -54.15392804308955 600.1516441117337 11.600000000000001
    vertex -55.153928043089536 606.1516441117337 11.600000000000001
    vertex -54.15392804308955 612.1516441117337 11.600000000000001
  endloop
endfacet
facet normal -5.134781488891349e-16 0.0 -1.0
  outer loop
    vertex -54.15392804308955 600.1516441117337 11.600000000000001
    vertex -54.15392804308955 612.1516441117337 11.600000000000001
    vertex -54.00139490782249 611.1587005794653 11.6
  endloop
endfacet
facet normal -5.134781488891349e-16 0.0 -1.0
  outer loop
    vertex -54.15392804308955 600.1516441117337 11.600000000000001
    vertex -54.00139490782249 611.1587005794653 11.6
    vertex -54.0013949078225 601.1445876440023 11.6
  endloop
endfacet
facet normal -5.134781488891349e-16 0.0 -1.0
  outer loop
    vertex -54.0013949078225 601.1445876440023 11.6
    vertex -54.00139490782249 611.1587005794653 11.6
    vertex -53.876435005860024 602.1413766078907 11.6
  endloop
endfacet
facet normal -5.134781488891349e-16 0.0 -1.0
  outer loop
    vertex -53.876435005860024 602.1413766078907 11.6
    vertex -54.00139490782249 611.1587005794653 11.6
    vertex -53.87643500586004 610.1619116155767 11.6
  endloop
endfacet
facet normal -5.134781488891349e-16 0.0 -1.0
  outer loop
    vertex -53.876435005860024 602.1413766078907 11.6
    vertex -53.87643500586004 610.1619116155767 11.6
    vertex -53.77914430671265 609.1620427564318 11.6
  endloop
endfacet
facet normal -5.134781488891349e-16 0.0 -1.0
  outer loop
    vertex -53.876435005860024 602.1413766078907 11.6
    vertex -53.77914430671265 609.1620427564318 11.6
    vertex -53.779144306712666 603.1412454670357 11.6
  endloop
endfacet
facet normal -5.134781488891349e-16 0.0 -1.0
  outer loop
    vertex -53.779144306712666 603.1412454670357 11.6
    vertex -53.77914430671265 609.1620427564318 11.6
    vertex -53.709597529875396 604.1434263197065 11.6
  endloop
endfacet
facet normal -5.134781488891349e-16 0.0 -1.0
  outer loop
    vertex -53.709597529875396 604.1434263197065 11.6
    vertex -53.77914430671265 609.1620427564318 11.6
    vertex -53.709597529875396 608.1598619037611 11.6
  endloop
endfacet
facet normal -5.134781488891349e-16 0.0 -1.0
  outer loop
    vertex -53.709597529875396 604.1434263197065 11.6
    vertex -53.709597529875396 608.1598619037611 11.6
    vertex -53.66784808744304 607.1561387349117 11.6
  endloop
endfacet
facet normal -5.134781488891349e-16 0.0 -1.0
  outer loop
    vertex -53.709597529875396 604.1434263197065 11.6
    vertex -53.66784808744304 607.1561387349117 11.6
    vertex -53.66784808744304 605.1471494885558 11.6
  endloop
endfacet
facet normal -5.134781488891349e-16 0.0 -1.0
  outer loop
    vertex -53.66784808744304 605.1471494885558 11.6
    vertex -53.66784808744304 607.1561387349117 11.6
    vertex -53.65392804308955 606.1516441117337 11.6
  endloop
endfacet
facet normal 0.7071067811865628 -0.7071067811865324 -3.630838810706308e-16
  outer loop
    vertex -49.05392804308955 604.1516441117337 3.6000000000000183
    vertex -50.05392804308954 603.1516441117337 13.6
    vertex -50.05392804308955 603.1516441117337 3.6000000000000187
  endloop
endfacet
facet normal 0.7071067811865628 -0.7071067811865324 -3.630838810706308e-16
  outer loop
    vertex -50.05392804308954 603.1516441117337 13.6
    vertex -49.05392804308955 604.1516441117337 3.6000000000000183
    vertex -49.05392804308955 604.1516441117337 13.6
  endloop
endfacet
facet normal 0.0 -1.0 0.0
  outer loop
    vertex -51.05392804308954 604.1516441117337 13.6
    vertex -52.65392804308955 604.1516441117337 3.5999999999999974
    vertex -51.053928043089556 604.1516441117337 3.599999999999997
  endloop
endfacet
facet normal 0.0 -1.0 0.0
  outer loop
    vertex -52.65392804308955 604.1516441117337 3.5999999999999974
    vertex -51.05392804308954 604.1516441117337 13.6
    vertex -52.65392804308955 604.1516441117337 13.600000000000003
  endloop
endfacet
facet normal 0.0 1.0 0.0
  outer loop
    vertex -52.65392804308955 605.5516441117338 3.5999999999999974
    vertex -51.05392804308954 605.5516441117338 13.6
    vertex -51.053928043089556 605.5516441117338 3.599999999999997
  endloop
endfacet
facet normal 0.0 1.0 0.0
  outer loop
    vertex -51.05392804308954 605.5516441117338 13.6
    vertex -52.65392804308955 605.5516441117338 3.5999999999999974
    vertex -52.65392804308955 605.5516441117338 13.600000000000003
  endloop
endfacet
facet normal -1.0 0.0 5.134781488891349e-16
  outer loop
    vertex -58.65392804308953 612.1516441117337 13.600000000000003
    vertex -58.653928043089536 611.4046798802888 3.600000000000023
    vertex -58.65392804308953 611.4046798802888 13.600000000000003
  endloop
endfacet
facet normal -1.0 0.0 5.134781488891349e-16
  outer loop
    vertex -58.653928043089536 611.4046798802888 3.600000000000023
    vertex -58.65392804308953 612.1516441117337 13.600000000000003
    vertex -58.653928043089536 612.1516441117337 3.600000000000023
  endloop
endfacet
facet normal 1.0 8.057047092993757e-14 5.126454816206671e-15
  outer loop
    vertex -49.05392804308955 604.8516441117338 3.6000000000000183
    vertex -49.05392804308955 604.1516441117337 13.6
    vertex -49.05392804308955 604.1516441117337 3.6000000000000183
  endloop
endfacet
facet normal 1.0 8.057047092993757e-14 5.126454816206671e-15
  outer loop
    vertex -49.05392804308955 604.1516441117337 13.6
    vertex -49.05392804308955 604.8516441117338 3.6000000000000183
    vertex -49.053928043089655 604.8516441117338 13.599999999999978
  endloop
endfacet
facet normal 1.0 0.0 -5.134781488891349e-16
  outer loop
    vertex -52.65392804308955 612.1516441117337 3.5999999999999974
    vertex -52.65392804308955 608.1516441117337 13.600000000000003
    vertex -52.65392804308955 608.1516441117337 3.5999999999999974
  endloop
endfacet
facet normal 1.0 0.0 -5.134781488891349e-16
  outer loop
    vertex -52.65392804308955 608.1516441117337 13.600000000000003
    vertex -52.65392804308955 612.1516441117337 3.5999999999999974
    vertex -52.65392804308955 612.1516441117337 13.600000000000003
  endloop
endfacet
facet normal 0.7071067811865631 0.7071067811865319 -3.63083881070631e-16
  outer loop
    vertex -50.05392804308955 609.1516441117338 3.6000000000000187
    vertex -49.05392804308955 608.1516441117337 13.6
    vertex -49.05392804308955 608.1516441117337 3.6000000000000183
  endloop
endfacet
facet normal 0.7071067811865631 0.7071067811865319 -3.63083881070631e-16
  outer loop
    vertex -49.05392804308955 608.1516441117337 13.6
    vertex -50.05392804308955 609.1516441117338 3.6000000000000187
    vertex -50.05392804308954 609.1516441117338 13.6
  endloop
endfacet
facet normal -0.7071067811865628 -0.7071067811865323 3.6506232023205634e-16
  outer loop
    vertex -51.05392804308954 604.1516441117337 13.6
    vertex -50.05392804308955 603.1516441117337 3.6000000000000187
    vertex -50.05392804308954 603.1516441117337 13.6
  endloop
endfacet
facet normal -0.7071067811865628 -0.7071067811865323 3.6506232023205634e-16
  outer loop
    vertex -50.05392804308955 603.1516441117337 3.6000000000000187
    vertex -51.05392804308954 604.1516441117337 13.6
    vertex -51.053928043089556 604.1516441117337 3.599999999999997
  endloop
endfacet
facet normal 1.0 0.0 -5.134781488891349e-16
  outer loop
    vertex -52.65392804308955 604.1516441117337 3.5999999999999974
    vertex -52.65392804308955 600.1516441117337 13.600000000000003
    vertex -52.65392804308955 600.1516441117337 3.5999999999999974
  endloop
endfacet
facet normal 1.0 0.0 -5.134781488891349e-16
  outer loop
    vertex -52.65392804308955 600.1516441117337 13.600000000000003
    vertex -52.65392804308955 604.1516441117337 3.5999999999999974
    vertex -52.65392804308955 604.1516441117337 13.600000000000003
  endloop
endfacet
facet normal 0.0 1.0 0.0
  outer loop
    vertex -52.65392804308955 608.1516441117337 3.5999999999999974
    vertex -51.05392804308954 608.1516441117337 13.6
    vertex -51.053928043089556 608.1516441117337 3.599999999999997
  endloop
endfacet
facet normal 0.0 1.0 0.0
  outer loop
    vertex -51.05392804308954 608.1516441117337 13.6
    vertex -52.65392804308955 608.1516441117337 3.5999999999999974
    vertex -52.65392804308955 608.1516441117337 13.600000000000003
  endloop
endfacet
facet normal -0.7071067811865629 0.7071067811865321 3.6308388107064154e-16
  outer loop
    vertex -50.05392804308954 609.1516441117338 13.6
    vertex -51.053928043089556 608.1516441117337 3.599999999999997
    vertex -51.05392804308954 608.1516441117337 13.6
  endloop
endfacet
facet normal -0.7071067811865629 0.7071067811865321 3.6308388107064154e-16
  outer loop
    vertex -51.053928043089556 608.1516441117337 3.599999999999997
    vertex -50.05392804308954 609.1516441117338 13.6
    vertex -50.05392804308955 609.1516441117338 3.6000000000000187
  endloop
endfacet
facet normal 1.0 0.0 -5.134781488891349e-16
  outer loop
    vertex -52.65392804308955 606.7516441117338 3.5999999999999974
    vertex -52.65392804308955 605.5516441117338 13.600000000000003
    vertex -52.65392804308955 605.5516441117338 3.5999999999999974
  endloop
endfacet
facet normal 1.0 0.0 -5.134781488891349e-16
  outer loop
    vertex -52.65392804308955 605.5516441117338 13.600000000000003
    vertex -52.65392804308955 606.7516441117338 3.5999999999999974
    vertex -52.65392804308955 606.7516441117338 13.600000000000003
  endloop
endfacet
endsolid Development Mockup rev2
