solid Development Mockup rev2
facet normal -0.9870874576374976 -0.16018224300696293 5.068478405393847e-16
  outer loop
    vertex -57.38309937186679 608.2802368575664 13.600000000000003
    vertex -57.21138594581311 607.2220910482449 3.5999999999999983
    vertex -57.21138594581314 607.2220910482449 13.600000000000003
  endloop
endfacet
facet normal -0.9870874576374976 -0.16018224300696293 5.068478405393847e-16
  outer loop
    vertex -57.21138594581311 607.2220910482449 3.5999999999999983
    vertex -57.38309937186679 608.2802368575664 13.600000000000003
    vertex -57.38309937186677 608.2802368575664 3.5999999999999983
  endloop
endfacet
facet normal 6.582536368211111e-16 7.400926341963648e-17 1.0
  outer loop
    vertex -52.65392804308957 598.1516441117337 13.599999999999998
    vertex -58.65392804308955 600.8986083431788 13.600000000000003
    vertex -58.65392804308955 598.1516441117336 13.599999999999998
  endloop
endfacet
facet normal 6.582536368211111e-16 7.400926341963648e-17 1.0
  outer loop
    vertex -58.65392804308955 600.8986083431788 13.600000000000003
    vertex -52.65392804308957 598.1516441117337 13.599999999999998
    vertex -58.557626203361714 601.0424764025769 13.600000000000003
  endloop
endfacet
facet normal 6.582536368211111e-16 7.400926341963648e-17 1.0
  outer loop
    vertex -58.557626203361714 601.0424764025769 13.600000000000003
    vertex -52.65392804308957 598.1516441117337 13.599999999999998
    vertex -58.06010945861179 601.9920211056661 13.600000000000003
  endloop
endfacet
facet normal 6.582536368211111e-16 7.400926341963648e-17 1.0
  outer loop
    vertex -58.06010945861179 601.9920211056661 13.600000000000003
    vertex -52.65392804308957 598.1516441117337 13.599999999999998
    vertex -57.66709506258442 602.9893664515654 13.600000000000003
  endloop
endfacet
facet normal 6.582536368211111e-16 7.400926341963648e-17 1.0
  outer loop
    vertex -57.66709506258442 602.9893664515654 13.600000000000003
    vertex -52.65392804308957 598.1516441117337 13.599999999999998
    vertex -57.38309937186679 604.0230513659011 13.600000000000003
  endloop
endfacet
facet normal 6.582536368211111e-16 7.400926341963648e-17 1.0
  outer loop
    vertex -57.38309937186679 604.0230513659011 13.600000000000003
    vertex -52.65392804308957 598.1516441117337 13.599999999999998
    vertex -57.21138594581314 605.0811971752225 13.600000000000003
  endloop
endfacet
facet normal 6.582536368211111e-16 7.400926341963648e-17 1.0
  outer loop
    vertex -57.21138594581314 605.0811971752225 13.600000000000003
    vertex -52.65392804308957 598.1516441117337 13.599999999999998
    vertex -57.153928043089564 606.1516441117337 13.600000000000003
  endloop
endfacet
facet normal 6.582536368211111e-16 7.400926341963648e-17 1.0
  outer loop
    vertex -51.05392804308956 606.7516441117338 13.6
    vertex -52.65392804308957 608.1516441117337 13.600000000000003
    vertex -52.65392804308957 606.7516441117338 13.600000000000003
  endloop
endfacet
facet normal 6.582536368211111e-16 7.400926341963648e-17 1.0
  outer loop
    vertex -52.65392804308957 608.1516441117337 13.600000000000003
    vertex -51.05392804308956 606.7516441117338 13.6
    vertex -51.05392804308956 608.1516441117337 13.6
  endloop
endfacet
facet normal 6.582536368211111e-16 7.400926341963648e-17 1.0
  outer loop
    vertex -51.05392804308956 608.1516441117337 13.6
    vertex -51.05392804308956 606.7516441117338 13.6
    vertex -49.053928043089655 607.4516441117337 13.599999999999978
  endloop
endfacet
facet normal 6.582536368211111e-16 7.400926341963648e-17 1.0
  outer loop
    vertex -51.05392804308956 608.1516441117337 13.6
    vertex -49.053928043089655 607.4516441117337 13.599999999999978
    vertex -50.05392804308954 609.1516441117338 13.6
  endloop
endfacet
facet normal 6.582536368211111e-16 7.400926341963648e-17 1.0
  outer loop
    vertex -50.05392804308954 609.1516441117338 13.6
    vertex -49.053928043089655 607.4516441117337 13.599999999999978
    vertex -49.05392804308955 608.1516441117337 13.6
  endloop
endfacet
facet normal 6.582536368211111e-16 7.400926341963648e-17 1.0
  outer loop
    vertex -58.557626203361714 611.2608118208907 13.600000000000003
    vertex -58.65392804308955 614.1516441117338 13.600000000000003
    vertex -58.65392804308955 611.4046798802888 13.600000000000003
  endloop
endfacet
facet normal 6.582536368211111e-16 7.400926341963648e-17 1.0
  outer loop
    vertex -58.65392804308955 614.1516441117338 13.600000000000003
    vertex -58.557626203361714 611.2608118208907 13.600000000000003
    vertex -52.65392804308957 614.1516441117338 13.600000000000003
  endloop
endfacet
facet normal 6.582536368211111e-16 7.400926341963648e-17 1.0
  outer loop
    vertex -52.65392804308957 614.1516441117338 13.600000000000003
    vertex -58.557626203361714 611.2608118208907 13.600000000000003
    vertex -58.06010945861179 610.3112671178013 13.600000000000003
  endloop
endfacet
facet normal 6.582536368211111e-16 7.400926341963648e-17 1.0
  outer loop
    vertex -52.65392804308957 614.1516441117338 13.600000000000003
    vertex -58.06010945861179 610.3112671178013 13.600000000000003
    vertex -57.667095062584416 609.3139217719021 13.600000000000003
  endloop
endfacet
facet normal 6.582536368211111e-16 7.400926341963648e-17 1.0
  outer loop
    vertex -52.65392804308957 614.1516441117338 13.600000000000003
    vertex -57.667095062584416 609.3139217719021 13.600000000000003
    vertex -57.38309937186679 608.2802368575664 13.600000000000003
  endloop
endfacet
facet normal 6.582536368211111e-16 7.400926341963648e-17 1.0
  outer loop
    vertex -52.65392804308957 614.1516441117338 13.600000000000003
    vertex -57.38309937186679 608.2802368575664 13.600000000000003
    vertex -57.21138594581314 607.2220910482449 13.600000000000003
  endloop
endfacet
facet normal 6.582536368211111e-16 7.400926341963648e-17 1.0
  outer loop
    vertex -52.65392804308957 614.1516441117338 13.600000000000003
    vertex -57.21138594581314 607.2220910482449 13.600000000000003
    vertex -57.153928043089564 606.1516441117337 13.600000000000003
  endloop
endfacet
facet normal 6.582536368211111e-16 7.400926341963648e-17 1.0
  outer loop
    vertex -52.65392804308957 614.1516441117338 13.600000000000003
    vertex -57.153928043089564 606.1516441117337 13.600000000000003
    vertex -52.65392804308957 598.1516441117337 13.599999999999998
  endloop
endfacet
facet normal 6.582536368211111e-16 7.400926341963648e-17 1.0
  outer loop
    vertex -52.65392804308957 614.1516441117338 13.600000000000003
    vertex -52.65392804308957 598.1516441117337 13.599999999999998
    vertex -52.65392804308957 600.1516441117337 13.600000000000003
  endloop
endfacet
facet normal 6.582536368211111e-16 7.400926341963648e-17 1.0
  outer loop
    vertex -52.65392804308957 614.1516441117338 13.600000000000003
    vertex -52.65392804308957 600.1516441117337 13.600000000000003
    vertex -52.65392804308957 604.1516441117337 13.600000000000003
  endloop
endfacet
facet normal 6.582536368211111e-16 7.400926341963648e-17 1.0
  outer loop
    vertex -52.65392804308957 614.1516441117338 13.600000000000003
    vertex -52.65392804308957 604.1516441117337 13.600000000000003
    vertex -52.65392804308957 605.5516441117338 13.600000000000003
  endloop
endfacet
facet normal 6.582536368211111e-16 7.400926341963648e-17 1.0
  outer loop
    vertex -52.65392804308957 614.1516441117338 13.600000000000003
    vertex -52.65392804308957 605.5516441117338 13.600000000000003
    vertex -52.65392804308957 606.1516441117337 13.600000000000003
  endloop
endfacet
facet normal 6.582536368211111e-16 7.400926341963648e-17 1.0
  outer loop
    vertex -52.65392804308957 614.1516441117338 13.600000000000003
    vertex -52.65392804308957 606.1516441117337 13.600000000000003
    vertex -52.65392804308957 606.7516441117338 13.600000000000003
  endloop
endfacet
facet normal 6.582536368211111e-16 7.400926341963648e-17 1.0
  outer loop
    vertex -52.65392804308957 614.1516441117338 13.600000000000003
    vertex -52.65392804308957 606.7516441117338 13.600000000000003
    vertex -52.65392804308957 608.1516441117337 13.600000000000003
  endloop
endfacet
facet normal -0.9642692009944032 0.26492434394297437 4.951311643574113e-16
  outer loop
    vertex -57.38309937186679 604.0230513659011 13.600000000000003
    vertex -57.6670950625844 602.9893664515654 3.6000000000000005
    vertex -57.66709506258442 602.9893664515654 13.600000000000003
  endloop
endfacet
facet normal -0.9642692009944032 0.26492434394297437 4.951311643574113e-16
  outer loop
    vertex -57.6670950625844 602.9893664515654 3.6000000000000005
    vertex -57.38309937186679 604.0230513659011 13.600000000000003
    vertex -57.38309937186677 604.0230513659011 3.5999999999999983
  endloop
endfacet
facet normal -0.999136066370562 -0.04155864383687365 -3.757368004041352e-15
  outer loop
    vertex -53.20959752987542 608.1598619037611 12.599999999999994
    vertex -53.16784808744304 607.1561387349117 4.600000000000004
    vertex -53.16784808744306 607.1561387349117 12.599999999999994
  endloop
endfacet
facet normal -0.999136066370562 -0.04155864383687365 -3.757368004041352e-15
  outer loop
    vertex -53.16784808744304 607.1561387349117 4.600000000000004
    vertex -53.20959752987542 608.1598619037611 12.599999999999994
    vertex -53.209597529875396 608.1598619037611 4.600000000000006
  endloop
endfacet
facet normal -0.9642692009944043 -0.2649243439429707 4.951311643574119e-16
  outer loop
    vertex -57.667095062584416 609.3139217719021 13.600000000000003
    vertex -57.38309937186677 608.2802368575664 3.5999999999999983
    vertex -57.38309937186679 608.2802368575664 13.600000000000003
  endloop
endfacet
facet normal -0.9642692009944043 -0.2649243439429707 4.951311643574119e-16
  outer loop
    vertex -57.38309937186677 608.2802368575664 3.5999999999999983
    vertex -57.667095062584416 609.3139217719021 13.600000000000003
    vertex -57.6670950625844 609.3139217719021 3.6000000000000005
  endloop
endfacet
facet normal -0.9985625192564667 0.053599394923627565 5.127400339378816e-16
  outer loop
    vertex -57.153928043089564 606.1516441117337 13.600000000000003
    vertex -57.21138594581311 605.0811971752225 3.5999999999999983
    vertex -57.21138594581314 605.0811971752225 13.600000000000003
  endloop
endfacet
facet normal -0.9985625192564667 0.053599394923627565 5.127400339378816e-16
  outer loop
    vertex -57.21138594581311 605.0811971752225 3.5999999999999983
    vertex -57.153928043089564 606.1516441117337 13.600000000000003
    vertex -57.15392804308954 606.1516441117337 3.5999999999999983
  endloop
endfacet
facet normal -0.8310096523592961 -0.5562579956150581 4.2732437418283754e-16
  outer loop
    vertex -58.65392804308955 611.4046798802888 13.600000000000003
    vertex -58.55762620336169 611.2608118208907 3.599999999999999
    vertex -58.557626203361714 611.2608118208907 13.600000000000003
  endloop
endfacet
facet normal -0.8310096523592961 -0.5562579956150581 4.2732437418283754e-16
  outer loop
    vertex -58.55762620336169 611.2608118208907 3.599999999999999
    vertex -58.65392804308955 611.4046798802888 13.600000000000003
    vertex -58.653928043089536 611.4046798802888 3.6000000000000214
  endloop
endfacet
facet normal -0.988405693669722 -0.15183604552699564 -3.716134407722087e-15
  outer loop
    vertex -53.65392804308957 612.1516441117337 12.6
    vertex -53.50139490782249 611.1587005794653 4.600000000000006
    vertex -53.50139490782251 611.1587005794653 12.599999999999994
  endloop
endfacet
facet normal -0.988405693669722 -0.15183604552699564 -3.716134407722087e-15
  outer loop
    vertex -53.50139490782249 611.1587005794653 4.600000000000006
    vertex -53.65392804308957 612.1516441117337 12.6
    vertex -53.65392804308955 612.1516441117337 4.6
  endloop
endfacet
facet normal -0.9999039950856421 -0.013856428535962244 -3.7597313252701776e-15
  outer loop
    vertex -53.16784808744306 607.1561387349117 12.599999999999994
    vertex -53.15392804308955 606.1516441117337 4.599999999999999
    vertex -53.15392804308957 606.1516441117337 12.599999999999994
  endloop
endfacet
facet normal -0.9999039950856421 -0.013856428535962244 -3.7597313252701776e-15
  outer loop
    vertex -53.15392804308955 606.1516441117337 4.599999999999999
    vertex -53.16784808744306 607.1561387349117 12.599999999999994
    vertex -53.16784808744304 607.1561387349117 4.600000000000004
  endloop
endfacet
facet normal -0.9303699671613092 -0.36662204544225735 4.777246485200343e-16
  outer loop
    vertex -58.06010945861179 610.3112671178013 13.600000000000003
    vertex -57.6670950625844 609.3139217719021 3.6000000000000005
    vertex -57.667095062584416 609.3139217719021 13.600000000000003
  endloop
endfacet
facet normal -0.9303699671613092 -0.36662204544225735 4.777246485200343e-16
  outer loop
    vertex -57.6670950625844 609.3139217719021 3.6000000000000005
    vertex -58.06010945861179 610.3112671178013 13.600000000000003
    vertex -58.06010945861177 610.3112671178013 3.6000000000000005
  endloop
endfacet
facet normal -0.8310096523592961 0.5562579956150581 4.267052980024549e-16
  outer loop
    vertex -58.557626203361714 601.0424764025769 13.600000000000003
    vertex -58.653928043089536 600.8986083431788 3.599999999999999
    vertex -58.65392804308955 600.8986083431788 13.600000000000003
  endloop
endfacet
facet normal -0.8310096523592961 0.5562579956150581 4.267052980024549e-16
  outer loop
    vertex -58.653928043089536 600.8986083431788 3.599999999999999
    vertex -58.557626203361714 601.0424764025769 13.600000000000003
    vertex -58.55762620336169 601.0424764025769 3.599999999999999
  endloop
endfacet
facet normal -0.8857793119141714 -0.4641066801769365 4.548283214059803e-16
  outer loop
    vertex -58.557626203361714 611.2608118208907 13.600000000000003
    vertex -58.06010945861177 610.3112671178013 3.6000000000000005
    vertex -58.06010945861179 610.3112671178013 13.600000000000003
  endloop
endfacet
facet normal -0.8857793119141714 -0.4641066801769365 4.548283214059803e-16
  outer loop
    vertex -58.06010945861177 610.3112671178013 3.6000000000000005
    vertex -58.557626203361714 611.2608118208907 13.600000000000003
    vertex -58.55762620336169 611.2608118208907 3.599999999999999
  endloop
endfacet
facet normal -0.9922335513315558 -0.12438882430495632 -3.7305261030108874e-15
  outer loop
    vertex -53.50139490782251 611.1587005794653 12.599999999999994
    vertex -53.37643500586004 610.1619116155767 4.600000000000006
    vertex -53.37643500586006 610.1619116155767 12.599999999999994
  endloop
endfacet
facet normal -0.9922335513315558 -0.12438882430495632 -3.7305261030108874e-15
  outer loop
    vertex -53.37643500586004 610.1619116155767 4.600000000000006
    vertex -53.50139490782251 611.1587005794653 12.599999999999994
    vertex -53.50139490782249 611.1587005794653 4.600000000000006
  endloop
endfacet
facet normal 4.310059225628891e-15 3.653268396271922e-15 1.0
  outer loop
    vertex -51.05392804308956 604.1516441117337 13.6
    vertex -52.65392804308957 605.5516441117338 13.600000000000003
    vertex -52.65392804308957 604.1516441117337 13.600000000000003
  endloop
endfacet
facet normal 4.310059225628891e-15 3.653268396271922e-15 1.0
  outer loop
    vertex -52.65392804308957 605.5516441117338 13.600000000000003
    vertex -51.05392804308956 604.1516441117337 13.6
    vertex -51.05392804308956 605.5516441117338 13.6
  endloop
endfacet
facet normal 4.310059225628891e-15 3.653268396271922e-15 1.0
  outer loop
    vertex -51.05392804308956 605.5516441117338 13.6
    vertex -51.05392804308956 604.1516441117337 13.6
    vertex -50.05392804308954 603.1516441117337 13.6
  endloop
endfacet
facet normal 4.310059225628891e-15 3.653268396271922e-15 1.0
  outer loop
    vertex -51.05392804308956 605.5516441117338 13.6
    vertex -50.05392804308954 603.1516441117337 13.6
    vertex -49.053928043089655 604.8516441117338 13.599999999999978
  endloop
endfacet
facet normal 4.310059225628891e-15 3.653268396271922e-15 1.0
  outer loop
    vertex -49.053928043089655 604.8516441117338 13.599999999999978
    vertex -50.05392804308954 603.1516441117337 13.6
    vertex -49.05392804308955 604.1516441117337 13.6
  endloop
endfacet
facet normal -0.997600798711534 -0.06922894199761812 -3.750167431254141e-15
  outer loop
    vertex -53.27914430671268 609.1620427564318 12.599999999999994
    vertex -53.209597529875396 608.1598619037611 4.600000000000006
    vertex -53.20959752987542 608.1598619037611 12.599999999999994
  endloop
endfacet
facet normal -0.997600798711534 -0.06922894199761812 -3.750167431254141e-15
  outer loop
    vertex -53.209597529875396 608.1598619037611 4.600000000000006
    vertex -53.27914430671268 609.1620427564318 12.599999999999994
    vertex -53.27914430671265 609.1620427564318 4.600000000000006
  endloop
endfacet
facet normal -0.995299371197877 -0.09684607216150164 -3.743019683817446e-15
  outer loop
    vertex -53.37643500586006 610.1619116155767 12.599999999999994
    vertex -53.27914430671265 609.1620427564318 4.600000000000006
    vertex -53.27914430671268 609.1620427564318 12.599999999999994
  endloop
endfacet
facet normal -0.995299371197877 -0.09684607216150164 -3.743019683817446e-15
  outer loop
    vertex -53.27914430671265 609.1620427564318 4.600000000000006
    vertex -53.37643500586006 610.1619116155767 12.599999999999994
    vertex -53.37643500586004 610.1619116155767 4.600000000000006
  endloop
endfacet
facet normal -0.93036996716131 0.36662204544225513 4.777246485200347e-16
  outer loop
    vertex -57.66709506258442 602.9893664515654 13.600000000000003
    vertex -58.06010945861177 601.9920211056661 3.6000000000000005
    vertex -58.06010945861179 601.9920211056661 13.600000000000003
  endloop
endfacet
facet normal -0.93036996716131 0.36662204544225513 4.777246485200347e-16
  outer loop
    vertex -58.06010945861177 601.9920211056661 3.6000000000000005
    vertex -57.66709506258442 602.9893664515654 13.600000000000003
    vertex -57.6670950625844 602.9893664515654 3.6000000000000005
  endloop
endfacet
facet normal -0.9985625192564667 -0.05359939492362625 5.127400339378816e-16
  outer loop
    vertex -57.21138594581314 607.2220910482449 13.600000000000003
    vertex -57.15392804308954 606.1516441117337 3.5999999999999983
    vertex -57.153928043089564 606.1516441117337 13.600000000000003
  endloop
endfacet
facet normal -0.9985625192564667 -0.05359939492362625 5.127400339378816e-16
  outer loop
    vertex -57.15392804308954 606.1516441117337 3.5999999999999983
    vertex -57.21138594581314 607.2220910482449 13.600000000000003
    vertex -57.21138594581311 607.2220910482449 3.5999999999999983
  endloop
endfacet
facet normal -0.9870874576374978 0.16018224300696038 5.068478405393848e-16
  outer loop
    vertex -57.21138594581314 605.0811971752225 13.600000000000003
    vertex -57.38309937186677 604.0230513659011 3.5999999999999983
    vertex -57.38309937186679 604.0230513659011 13.600000000000003
  endloop
endfacet
facet normal -0.9870874576374978 0.16018224300696038 5.068478405393848e-16
  outer loop
    vertex -57.38309937186677 604.0230513659011 3.5999999999999983
    vertex -57.21138594581314 605.0811971752225 13.600000000000003
    vertex -57.21138594581311 605.0811971752225 3.5999999999999983
  endloop
endfacet
facet normal -0.8857793119141714 0.4641066801769365 4.548283214059803e-16
  outer loop
    vertex -58.06010945861179 601.9920211056661 13.600000000000003
    vertex -58.55762620336169 601.0424764025769 3.599999999999999
    vertex -58.557626203361714 601.0424764025769 13.600000000000003
  endloop
endfacet
facet normal -0.8857793119141714 0.4641066801769365 4.548283214059803e-16
  outer loop
    vertex -58.55762620336169 601.0424764025769 3.599999999999999
    vertex -58.06010945861179 601.9920211056661 13.600000000000003
    vertex -58.06010945861177 601.9920211056661 3.6000000000000005
  endloop
endfacet
facet normal -1.0 -1.4949978917963237e-44 -3.759955310063863e-15
  outer loop
    vertex -53.65392804308957 600.1516441117337 12.6
    vertex -53.65392804308955 598.1516441117336 4.59999999999999
    vertex -53.65392804308957 598.1516441117336 12.599999999999993
  endloop
endfacet
facet normal -1.0 -1.4949978917963237e-44 -3.759955310063863e-15
  outer loop
    vertex -53.65392804308955 598.1516441117336 4.59999999999999
    vertex -53.65392804308957 600.1516441117337 12.6
    vertex -53.65392804308955 600.1516441117337 4.6
  endloop
endfacet
facet normal 1.0 0.0 3.7599553100638635e-15
  outer loop
    vertex -57.15392804308954 600.1516441117337 4.600000000000003
    vertex -57.153928043089564 598.1516441117336 12.599999999999994
    vertex -57.15392804308954 598.1516441117336 4.5999999999999925
  endloop
endfacet
facet normal 1.0 0.0 3.7599553100638635e-15
  outer loop
    vertex -57.153928043089564 598.1516441117336 12.599999999999994
    vertex -57.15392804308954 600.1516441117337 4.600000000000003
    vertex -57.153928043089564 600.1516441117337 12.600000000000001
  endloop
endfacet
facet normal -0.9884056936697236 0.15183604552698465 -3.717996860031655e-15
  outer loop
    vertex -53.50139490782252 601.1445876440023 12.599999999999994
    vertex -53.65392804308955 600.1516441117337 4.6
    vertex -53.65392804308957 600.1516441117337 12.6
  endloop
endfacet
facet normal -0.9884056936697236 0.15183604552698465 -3.717996860031655e-15
  outer loop
    vertex -53.65392804308955 600.1516441117337 4.6
    vertex -53.50139490782252 601.1445876440023 12.599999999999994
    vertex -53.5013949078225 601.1445876440023 4.6
  endloop
endfacet
facet normal -0.9952993711978791 0.09684607216147939 -3.742052745123617e-15
  outer loop
    vertex -53.27914430671269 603.1412454670357 12.599999999999994
    vertex -53.37643500586003 602.1413766078907 4.6
    vertex -53.37643500586005 602.1413766078907 12.599999999999994
  endloop
endfacet
facet normal -0.9952993711978791 0.09684607216147939 -3.742052745123617e-15
  outer loop
    vertex -53.37643500586003 602.1413766078907 4.6
    vertex -53.27914430671269 603.1412454670357 12.599999999999994
    vertex -53.279144306712666 603.1412454670357 4.6
  endloop
endfacet
facet normal 0.9642692009944036 0.2649243439429731 -4.935064073677251e-16
  outer loop
    vertex -55.66709506258441 609.3139217719021 4.599999999999994
    vertex -55.3830993718668 608.2802368575664 12.6
    vertex -55.38309937186678 608.2802368575664 4.599999999999996
  endloop
endfacet
facet normal 0.9642692009944036 0.2649243439429731 -4.935064073677251e-16
  outer loop
    vertex -55.3830993718668 608.2802368575664 12.6
    vertex -55.66709506258441 609.3139217719021 4.599999999999994
    vertex -55.66709506258443 609.3139217719021 12.6
  endloop
endfacet
facet normal 0.8857793119141714 -0.4641066801769365 -4.530892045930432e-16
  outer loop
    vertex -56.06010945861178 601.9920211056661 4.599999999999996
    vertex -56.55762620336172 601.0424764025769 12.599999999999996
    vertex -56.55762620336169 601.0424764025769 4.599999999999996
  endloop
endfacet
facet normal 0.8857793119141714 -0.4641066801769365 -4.530892045930432e-16
  outer loop
    vertex -56.55762620336172 601.0424764025769 12.599999999999996
    vertex -56.06010945861178 601.9920211056661 4.599999999999996
    vertex -56.0601094586118 601.9920211056661 12.6
  endloop
endfacet
facet normal -0.999136066370562 0.04155864383687365 -3.7565596754408436e-15
  outer loop
    vertex -53.16784808744306 605.1471494885558 12.599999999999994
    vertex -53.209597529875396 604.1434263197065 4.6
    vertex -53.20959752987542 604.1434263197065 12.599999999999994
  endloop
endfacet
facet normal -0.999136066370562 0.04155864383687365 -3.7565596754408436e-15
  outer loop
    vertex -53.209597529875396 604.1434263197065 4.6
    vertex -53.16784808744306 605.1471494885558 12.599999999999994
    vertex -53.16784808744304 605.1471494885558 4.599999999999999
  endloop
endfacet
facet normal 0.9985625192564667 -0.053599394923627565 -5.128739336249671e-16
  outer loop
    vertex -55.15392804308954 606.1516441117337 4.599999999999996
    vertex -55.21138594581314 605.0811971752225 12.6
    vertex -55.21138594581312 605.0811971752225 4.599999999999996
  endloop
endfacet
facet normal 0.9985625192564667 -0.053599394923627565 -5.128739336249671e-16
  outer loop
    vertex -55.21138594581314 605.0811971752225 12.6
    vertex -55.15392804308954 606.1516441117337 4.599999999999996
    vertex -55.15392804308956 606.1516441117337 12.6
  endloop
endfacet
facet normal 0.8310096523593474 -0.5562579956149816 -4.268627910431016e-16
  outer loop
    vertex -56.55762620336169 601.0424764025769 4.599999999999996
    vertex -57.153928043089564 600.1516441117337 12.600000000000001
    vertex -57.15392804308954 600.1516441117337 4.600000000000003
  endloop
endfacet
facet normal 0.8310096523593474 -0.5562579956149816 -4.268627910431016e-16
  outer loop
    vertex -57.153928043089564 600.1516441117337 12.600000000000001
    vertex -56.55762620336169 601.0424764025769 4.599999999999996
    vertex -56.55762620336172 601.0424764025769 12.599999999999996
  endloop
endfacet
facet normal -1.0 -1.4949978917963237e-44 -3.759955310063862e-15
  outer loop
    vertex -53.65392804308957 614.1516441117338 12.6
    vertex -53.65392804308955 612.1516441117337 4.6
    vertex -53.65392804308957 612.1516441117337 12.6
  endloop
endfacet
facet normal -1.0 -1.4949978917963237e-44 -3.759955310063862e-15
  outer loop
    vertex -53.65392804308955 612.1516441117337 4.6
    vertex -53.65392804308957 614.1516441117338 12.6
    vertex -53.65392804308955 614.1516441117338 4.6
  endloop
endfacet
facet normal -0.9922335513315529 0.12438882430497844 -3.731490063244206e-15
  outer loop
    vertex -53.37643500586005 602.1413766078907 12.599999999999994
    vertex -53.5013949078225 601.1445876440023 4.6
    vertex -53.50139490782252 601.1445876440023 12.599999999999994
  endloop
endfacet
facet normal -0.9922335513315529 0.12438882430497844 -3.731490063244206e-15
  outer loop
    vertex -53.5013949078225 601.1445876440023 4.6
    vertex -53.37643500586005 602.1413766078907 12.599999999999994
    vertex -53.37643500586003 602.1413766078907 4.6
  endloop
endfacet
facet normal 0.9985625192564667 0.05359939492362756 -5.126061342507967e-16
  outer loop
    vertex -55.21138594581312 607.2220910482449 4.599999999999996
    vertex -55.15392804308956 606.1516441117337 12.6
    vertex -55.15392804308954 606.1516441117337 4.599999999999996
  endloop
endfacet
facet normal 0.9985625192564667 0.05359939492362756 -5.126061342507967e-16
  outer loop
    vertex -55.15392804308956 606.1516441117337 12.6
    vertex -55.21138594581312 607.2220910482449 4.599999999999996
    vertex -55.21138594581314 607.2220910482449 12.6
  endloop
endfacet
facet normal -0.9999039950856421 0.013856428535962244 -3.759378602203485e-15
  outer loop
    vertex -53.15392804308957 606.1516441117337 12.599999999999994
    vertex -53.16784808744304 605.1471494885558 4.599999999999999
    vertex -53.16784808744306 605.1471494885558 12.599999999999994
  endloop
endfacet
facet normal -0.9999039950856421 0.013856428535962244 -3.759378602203485e-15
  outer loop
    vertex -53.16784808744304 605.1471494885558 4.599999999999999
    vertex -53.15392804308957 606.1516441117337 12.599999999999994
    vertex -53.15392804308955 606.1516441117337 4.599999999999999
  endloop
endfacet
facet normal 0.9303699671613097 -0.36662204544225635 -4.79802632815558e-16
  outer loop
    vertex -55.66709506258441 602.9893664515654 4.599999999999994
    vertex -56.0601094586118 601.9920211056661 12.6
    vertex -56.06010945861178 601.9920211056661 4.599999999999996
  endloop
endfacet
facet normal 0.9303699671613097 -0.36662204544225635 -4.79802632815558e-16
  outer loop
    vertex -56.0601094586118 601.9920211056661 12.6
    vertex -55.66709506258441 602.9893664515654 4.599999999999994
    vertex -55.66709506258443 602.9893664515654 12.6
  endloop
endfacet
facet normal 1.0 -0.0 3.7599553100638635e-15
  outer loop
    vertex -57.15392804308954 614.1516441117338 4.600000000000003
    vertex -57.153928043089564 612.1516441117337 12.600000000000001
    vertex -57.15392804308954 612.1516441117337 4.600000000000003
  endloop
endfacet
facet normal 1.0 -0.0 3.7599553100638635e-15
  outer loop
    vertex -57.153928043089564 612.1516441117337 12.600000000000001
    vertex -57.15392804308954 614.1516441117338 4.600000000000003
    vertex -57.153928043089564 614.1516441117338 12.600000000000001
  endloop
endfacet
facet normal 0.8310096523593474 0.5562579956149816 -4.268627910431016e-16
  outer loop
    vertex -57.15392804308954 612.1516441117337 4.600000000000003
    vertex -56.55762620336172 611.2608118208907 12.599999999999996
    vertex -56.55762620336169 611.2608118208907 4.599999999999996
  endloop
endfacet
facet normal 0.8310096523593474 0.5562579956149816 -4.268627910431016e-16
  outer loop
    vertex -56.55762620336172 611.2608118208907 12.599999999999996
    vertex -57.15392804308954 612.1516441117337 4.600000000000003
    vertex -57.153928043089564 612.1516441117337 12.600000000000001
  endloop
endfacet
facet normal 0.9642692009944036 -0.2649243439429731 -4.96755921347098e-16
  outer loop
    vertex -55.38309937186678 604.0230513659011 4.599999999999996
    vertex -55.66709506258443 602.9893664515654 12.6
    vertex -55.66709506258441 602.9893664515654 4.599999999999994
  endloop
endfacet
facet normal 0.9642692009944036 -0.2649243439429731 -4.96755921347098e-16
  outer loop
    vertex -55.66709506258443 602.9893664515654 12.6
    vertex -55.38309937186678 604.0230513659011 4.599999999999996
    vertex -55.3830993718668 604.0230513659011 12.6
  endloop
endfacet
facet normal 0.8857793119141714 0.4641066801769365 -4.5656743821891745e-16
  outer loop
    vertex -56.55762620336169 611.2608118208907 4.599999999999996
    vertex -56.0601094586118 610.3112671178013 12.6
    vertex -56.06010945861178 610.3112671178013 4.599999999999996
  endloop
endfacet
facet normal 0.8857793119141714 0.4641066801769365 -4.5656743821891745e-16
  outer loop
    vertex -56.0601094586118 610.3112671178013 12.6
    vertex -56.55762620336169 611.2608118208907 4.599999999999996
    vertex -56.55762620336172 611.2608118208907 12.599999999999996
  endloop
endfacet
facet normal 6.245418530039418e-16 6.419551279114101e-16 -1.0
  outer loop
    vertex -52.65392804308955 614.1516441117338 3.5999999999999974
    vertex -58.653928043089536 611.4046798802888 3.6000000000000214
    vertex -58.653928043089536 614.1516441117338 3.6000000000000214
  endloop
endfacet
facet normal 6.245418530039418e-16 6.419551279114101e-16 -1.0
  outer loop
    vertex -58.653928043089536 611.4046798802888 3.6000000000000214
    vertex -52.65392804308955 614.1516441117338 3.5999999999999974
    vertex -58.55762620336169 611.2608118208907 3.599999999999999
  endloop
endfacet
facet normal 6.245418530039418e-16 6.419551279114101e-16 -1.0
  outer loop
    vertex -58.55762620336169 611.2608118208907 3.599999999999999
    vertex -52.65392804308955 614.1516441117338 3.5999999999999974
    vertex -58.06010945861177 610.3112671178013 3.6000000000000005
  endloop
endfacet
facet normal 6.245418530039418e-16 6.419551279114101e-16 -1.0
  outer loop
    vertex -58.06010945861177 610.3112671178013 3.6000000000000005
    vertex -52.65392804308955 614.1516441117338 3.5999999999999974
    vertex -57.6670950625844 609.3139217719021 3.6000000000000005
  endloop
endfacet
facet normal 6.245418530039418e-16 6.419551279114101e-16 -1.0
  outer loop
    vertex -57.6670950625844 609.3139217719021 3.6000000000000005
    vertex -52.65392804308955 614.1516441117338 3.5999999999999974
    vertex -57.38309937186677 608.2802368575664 3.5999999999999983
  endloop
endfacet
facet normal 6.245418530039418e-16 6.419551279114101e-16 -1.0
  outer loop
    vertex -57.38309937186677 608.2802368575664 3.5999999999999983
    vertex -52.65392804308955 614.1516441117338 3.5999999999999974
    vertex -57.21138594581311 607.2220910482449 3.5999999999999983
  endloop
endfacet
facet normal 6.245418530039418e-16 6.419551279114101e-16 -1.0
  outer loop
    vertex -57.21138594581311 607.2220910482449 3.5999999999999983
    vertex -52.65392804308955 614.1516441117338 3.5999999999999974
    vertex -57.15392804308954 606.1516441117337 3.5999999999999983
  endloop
endfacet
facet normal 6.245418530039418e-16 6.419551279114101e-16 -1.0
  outer loop
    vertex -51.053928043089556 608.1516441117337 3.599999999999997
    vertex -52.65392804308955 606.7516441117338 3.5999999999999974
    vertex -52.65392804308955 608.1516441117337 3.5999999999999974
  endloop
endfacet
facet normal 6.245418530039418e-16 6.419551279114101e-16 -1.0
  outer loop
    vertex -52.65392804308955 606.7516441117338 3.5999999999999974
    vertex -51.053928043089556 608.1516441117337 3.599999999999997
    vertex -51.053928043089556 606.7516441117338 3.599999999999997
  endloop
endfacet
facet normal 6.245418530039418e-16 6.419551279114101e-16 -1.0
  outer loop
    vertex -51.053928043089556 606.7516441117338 3.599999999999997
    vertex -51.053928043089556 608.1516441117337 3.599999999999997
    vertex -50.05392804308955 609.1516441117338 3.6000000000000187
  endloop
endfacet
facet normal 6.245418530039418e-16 6.419551279114101e-16 -1.0
  outer loop
    vertex -51.053928043089556 606.7516441117338 3.599999999999997
    vertex -50.05392804308955 609.1516441117338 3.6000000000000187
    vertex -49.05392804308955 607.4516441117337 3.6000000000000165
  endloop
endfacet
facet normal 6.245418530039418e-16 6.419551279114101e-16 -1.0
  outer loop
    vertex -49.05392804308955 607.4516441117337 3.6000000000000165
    vertex -50.05392804308955 609.1516441117338 3.6000000000000187
    vertex -49.05392804308955 608.1516441117337 3.6000000000000165
  endloop
endfacet
facet normal 6.245418530039418e-16 6.419551279114101e-16 -1.0
  outer loop
    vertex -51.053928043089556 605.5516441117338 3.599999999999997
    vertex -52.65392804308955 604.1516441117337 3.5999999999999974
    vertex -52.65392804308955 605.5516441117338 3.5999999999999974
  endloop
endfacet
facet normal 6.245418530039418e-16 6.419551279114101e-16 -1.0
  outer loop
    vertex -52.65392804308955 604.1516441117337 3.5999999999999974
    vertex -51.053928043089556 605.5516441117338 3.599999999999997
    vertex -51.053928043089556 604.1516441117337 3.599999999999997
  endloop
endfacet
facet normal 6.245418530039418e-16 6.419551279114101e-16 -1.0
  outer loop
    vertex -51.053928043089556 604.1516441117337 3.599999999999997
    vertex -51.053928043089556 605.5516441117338 3.599999999999997
    vertex -49.05392804308955 604.8516441117338 3.6000000000000165
  endloop
endfacet
facet normal 6.245418530039418e-16 6.419551279114101e-16 -1.0
  outer loop
    vertex -51.053928043089556 604.1516441117337 3.599999999999997
    vertex -49.05392804308955 604.8516441117338 3.6000000000000165
    vertex -50.05392804308955 603.1516441117337 3.6000000000000187
  endloop
endfacet
facet normal 6.245418530039418e-16 6.419551279114101e-16 -1.0
  outer loop
    vertex -50.05392804308955 603.1516441117337 3.6000000000000187
    vertex -49.05392804308955 604.8516441117338 3.6000000000000165
    vertex -49.05392804308955 604.1516441117337 3.6000000000000165
  endloop
endfacet
facet normal 6.245418530039418e-16 6.419551279114101e-16 -1.0
  outer loop
    vertex -58.55762620336169 601.0424764025769 3.599999999999999
    vertex -58.653928043089536 598.1516441117336 3.5999999999999885
    vertex -58.653928043089536 600.8986083431788 3.599999999999999
  endloop
endfacet
facet normal 6.245418530039418e-16 6.419551279114101e-16 -1.0
  outer loop
    vertex -58.653928043089536 598.1516441117336 3.5999999999999885
    vertex -58.55762620336169 601.0424764025769 3.599999999999999
    vertex -52.65392804308955 598.1516441117336 3.599999999999987
  endloop
endfacet
facet normal 6.245418530039418e-16 6.419551279114101e-16 -1.0
  outer loop
    vertex -52.65392804308955 598.1516441117336 3.599999999999987
    vertex -58.55762620336169 601.0424764025769 3.599999999999999
    vertex -58.06010945861177 601.9920211056661 3.6000000000000005
  endloop
endfacet
facet normal 6.245418530039418e-16 6.419551279114101e-16 -1.0
  outer loop
    vertex -52.65392804308955 598.1516441117336 3.599999999999987
    vertex -58.06010945861177 601.9920211056661 3.6000000000000005
    vertex -57.6670950625844 602.9893664515654 3.6000000000000005
  endloop
endfacet
facet normal 6.245418530039418e-16 6.419551279114101e-16 -1.0
  outer loop
    vertex -52.65392804308955 598.1516441117336 3.599999999999987
    vertex -57.6670950625844 602.9893664515654 3.6000000000000005
    vertex -57.38309937186677 604.0230513659011 3.5999999999999983
  endloop
endfacet
facet normal 6.245418530039418e-16 6.419551279114101e-16 -1.0
  outer loop
    vertex -52.65392804308955 598.1516441117336 3.599999999999987
    vertex -57.38309937186677 604.0230513659011 3.5999999999999983
    vertex -57.21138594581311 605.0811971752225 3.5999999999999983
  endloop
endfacet
facet normal 6.245418530039418e-16 6.419551279114101e-16 -1.0
  outer loop
    vertex -52.65392804308955 598.1516441117336 3.599999999999987
    vertex -57.21138594581311 605.0811971752225 3.5999999999999983
    vertex -57.15392804308954 606.1516441117337 3.5999999999999983
  endloop
endfacet
facet normal 6.245418530039418e-16 6.419551279114101e-16 -1.0
  outer loop
    vertex -52.65392804308955 598.1516441117336 3.599999999999987
    vertex -57.15392804308954 606.1516441117337 3.5999999999999983
    vertex -52.65392804308955 614.1516441117338 3.5999999999999974
  endloop
endfacet
facet normal 6.245418530039418e-16 6.419551279114101e-16 -1.0
  outer loop
    vertex -52.65392804308955 598.1516441117336 3.599999999999987
    vertex -52.65392804308955 614.1516441117338 3.5999999999999974
    vertex -52.65392804308955 608.1516441117337 3.5999999999999974
  endloop
endfacet
facet normal 6.245418530039418e-16 6.419551279114101e-16 -1.0
  outer loop
    vertex -52.65392804308955 598.1516441117336 3.599999999999987
    vertex -52.65392804308955 608.1516441117337 3.5999999999999974
    vertex -52.65392804308955 606.7516441117338 3.5999999999999974
  endloop
endfacet
facet normal 6.245418530039418e-16 6.419551279114101e-16 -1.0
  outer loop
    vertex -52.65392804308955 598.1516441117336 3.599999999999987
    vertex -52.65392804308955 606.7516441117338 3.5999999999999974
    vertex -52.65392804308955 605.5516441117338 3.5999999999999974
  endloop
endfacet
facet normal 6.245418530039418e-16 6.419551279114101e-16 -1.0
  outer loop
    vertex -52.65392804308955 598.1516441117336 3.599999999999987
    vertex -52.65392804308955 605.5516441117338 3.5999999999999974
    vertex -52.65392804308955 604.1516441117337 3.5999999999999974
  endloop
endfacet
facet normal 0.9870874576374976 0.1601822430069629 -5.074643153237172e-16
  outer loop
    vertex -55.38309937186678 608.2802368575664 4.599999999999996
    vertex -55.21138594581314 607.2220910482449 12.6
    vertex -55.21138594581312 607.2220910482449 4.599999999999996
  endloop
endfacet
facet normal 0.9870874576374976 0.1601822430069629 -5.074643153237172e-16
  outer loop
    vertex -55.21138594581314 607.2220910482449 12.6
    vertex -55.38309937186678 608.2802368575664 4.599999999999996
    vertex -55.3830993718668 608.2802368575664 12.6
  endloop
endfacet
facet normal 0.9303699671613097 0.36662204544225624 -4.783057010097807e-16
  outer loop
    vertex -56.06010945861178 610.3112671178013 4.599999999999996
    vertex -55.66709506258443 609.3139217719021 12.6
    vertex -55.66709506258441 609.3139217719021 4.599999999999994
  endloop
endfacet
facet normal 0.9303699671613097 0.36662204544225624 -4.783057010097807e-16
  outer loop
    vertex -55.66709506258443 609.3139217719021 12.6
    vertex -56.06010945861178 610.3112671178013 4.599999999999996
    vertex -56.0601094586118 610.3112671178013 12.6
  endloop
endfacet
facet normal 0.9870874576374976 -0.16018224300696296 -5.07064154981501e-16
  outer loop
    vertex -55.21138594581312 605.0811971752225 4.599999999999996
    vertex -55.3830993718668 604.0230513659011 12.6
    vertex -55.38309937186678 604.0230513659011 4.599999999999996
  endloop
endfacet
facet normal 0.9870874576374976 -0.16018224300696296 -5.07064154981501e-16
  outer loop
    vertex -55.3830993718668 604.0230513659011 12.6
    vertex -55.21138594581312 605.0811971752225 4.599999999999996
    vertex -55.21138594581314 605.0811971752225 12.6
  endloop
endfacet
facet normal -0.9976007987115333 0.0692289419976293 -3.7507054815709516e-15
  outer loop
    vertex -53.20959752987542 604.1434263197065 12.599999999999994
    vertex -53.279144306712666 603.1412454670357 4.6
    vertex -53.27914430671269 603.1412454670357 12.599999999999994
  endloop
endfacet
facet normal -0.9976007987115333 0.0692289419976293 -3.7507054815709516e-15
  outer loop
    vertex -53.279144306712666 603.1412454670357 4.6
    vertex -53.20959752987542 604.1434263197065 12.599999999999994
    vertex -53.209597529875396 604.1434263197065 4.6
  endloop
endfacet
facet normal 6.8351895854883844e-15 -1.0 4.793509579433414e-15
  outer loop
    vertex -52.65392804308955 598.1516441117336 3.599999999999987
    vertex -53.65392804308955 598.1516441117336 4.59999999999999
    vertex -58.653928043089536 598.1516441117336 3.5999999999999885
  endloop
endfacet
facet normal 6.8351895854883844e-15 -1.0 4.793509579433414e-15
  outer loop
    vertex -53.65392804308955 598.1516441117336 4.59999999999999
    vertex -52.65392804308955 598.1516441117336 3.599999999999987
    vertex -52.65392804308957 598.1516441117337 13.599999999999998
  endloop
endfacet
facet normal 6.8351895854883844e-15 -1.0 4.793509579433414e-15
  outer loop
    vertex -53.65392804308955 598.1516441117336 4.59999999999999
    vertex -52.65392804308957 598.1516441117337 13.599999999999998
    vertex -53.65392804308957 598.1516441117336 12.599999999999993
  endloop
endfacet
facet normal 6.8351895854883844e-15 -1.0 4.793509579433414e-15
  outer loop
    vertex -53.65392804308957 598.1516441117336 12.599999999999993
    vertex -52.65392804308957 598.1516441117337 13.599999999999998
    vertex -57.153928043089564 598.1516441117336 12.599999999999994
  endloop
endfacet
facet normal 6.8351895854883844e-15 -1.0 4.793509579433414e-15
  outer loop
    vertex -58.653928043089536 598.1516441117336 3.5999999999999885
    vertex -57.15392804308954 598.1516441117336 4.5999999999999925
    vertex -58.65392804308955 598.1516441117336 13.599999999999998
  endloop
endfacet
facet normal 6.8351895854883844e-15 -1.0 4.793509579433414e-15
  outer loop
    vertex -57.15392804308954 598.1516441117336 4.5999999999999925
    vertex -58.653928043089536 598.1516441117336 3.5999999999999885
    vertex -53.65392804308955 598.1516441117336 4.59999999999999
  endloop
endfacet
facet normal 6.8351895854883844e-15 -1.0 4.793509579433414e-15
  outer loop
    vertex -58.65392804308955 598.1516441117336 13.599999999999998
    vertex -57.15392804308954 598.1516441117336 4.5999999999999925
    vertex -57.153928043089564 598.1516441117336 12.599999999999994
  endloop
endfacet
facet normal 6.8351895854883844e-15 -1.0 4.793509579433414e-15
  outer loop
    vertex -58.65392804308955 598.1516441117336 13.599999999999998
    vertex -57.153928043089564 598.1516441117336 12.599999999999994
    vertex -52.65392804308957 598.1516441117337 13.599999999999998
  endloop
endfacet
facet normal -1.0298957490957881e-15 -1.0978285550830085e-16 1.0
  outer loop
    vertex -53.65392804308955 598.1516441117336 4.59999999999999
    vertex -57.15392804308954 600.1516441117337 4.600000000000003
    vertex -57.15392804308954 598.1516441117336 4.5999999999999925
  endloop
endfacet
facet normal -1.0298957490957881e-15 -1.0978285550830085e-16 1.0
  outer loop
    vertex -57.15392804308954 600.1516441117337 4.600000000000003
    vertex -53.65392804308955 598.1516441117336 4.59999999999999
    vertex -56.55762620336169 601.0424764025769 4.599999999999996
  endloop
endfacet
facet normal -1.0298957490957881e-15 -1.0978285550830085e-16 1.0
  outer loop
    vertex -56.55762620336169 601.0424764025769 4.599999999999996
    vertex -53.65392804308955 598.1516441117336 4.59999999999999
    vertex -56.06010945861178 601.9920211056661 4.599999999999996
  endloop
endfacet
facet normal -1.0298957490957881e-15 -1.0978285550830085e-16 1.0
  outer loop
    vertex -56.06010945861178 601.9920211056661 4.599999999999996
    vertex -53.65392804308955 598.1516441117336 4.59999999999999
    vertex -55.66709506258441 602.9893664515654 4.599999999999994
  endloop
endfacet
facet normal -1.0298957490957881e-15 -1.0978285550830085e-16 1.0
  outer loop
    vertex -55.66709506258441 602.9893664515654 4.599999999999994
    vertex -53.65392804308955 598.1516441117336 4.59999999999999
    vertex -55.38309937186678 604.0230513659011 4.599999999999996
  endloop
endfacet
facet normal -1.0298957490957881e-15 -1.0978285550830085e-16 1.0
  outer loop
    vertex -55.38309937186678 604.0230513659011 4.599999999999996
    vertex -53.65392804308955 598.1516441117336 4.59999999999999
    vertex -55.21138594581312 605.0811971752225 4.599999999999996
  endloop
endfacet
facet normal -1.0298957490957881e-15 -1.0978285550830085e-16 1.0
  outer loop
    vertex -55.21138594581312 605.0811971752225 4.599999999999996
    vertex -53.65392804308955 598.1516441117336 4.59999999999999
    vertex -55.15392804308954 606.1516441117337 4.599999999999996
  endloop
endfacet
facet normal -1.0298957490957881e-15 -1.0978285550830085e-16 1.0
  outer loop
    vertex -53.5013949078225 601.1445876440023 4.6
    vertex -53.65392804308955 612.1516441117337 4.6
    vertex -53.65392804308955 600.1516441117337 4.6
  endloop
endfacet
facet normal -1.0298957490957881e-15 -1.0978285550830085e-16 1.0
  outer loop
    vertex -53.65392804308955 612.1516441117337 4.6
    vertex -53.5013949078225 601.1445876440023 4.6
    vertex -53.50139490782249 611.1587005794653 4.600000000000006
  endloop
endfacet
facet normal -1.0298957490957881e-15 -1.0978285550830085e-16 1.0
  outer loop
    vertex -53.50139490782249 611.1587005794653 4.600000000000006
    vertex -53.5013949078225 601.1445876440023 4.6
    vertex -53.37643500586003 602.1413766078907 4.6
  endloop
endfacet
facet normal -1.0298957490957881e-15 -1.0978285550830085e-16 1.0
  outer loop
    vertex -53.50139490782249 611.1587005794653 4.600000000000006
    vertex -53.37643500586003 602.1413766078907 4.6
    vertex -53.37643500586004 610.1619116155767 4.600000000000006
  endloop
endfacet
facet normal -1.0298957490957881e-15 -1.0978285550830085e-16 1.0
  outer loop
    vertex -53.37643500586004 610.1619116155767 4.600000000000006
    vertex -53.37643500586003 602.1413766078907 4.6
    vertex -53.27914430671265 609.1620427564318 4.600000000000006
  endloop
endfacet
facet normal -1.0298957490957881e-15 -1.0978285550830085e-16 1.0
  outer loop
    vertex -53.27914430671265 609.1620427564318 4.600000000000006
    vertex -53.37643500586003 602.1413766078907 4.6
    vertex -53.279144306712666 603.1412454670357 4.6
  endloop
endfacet
facet normal -1.0298957490957881e-15 -1.0978285550830085e-16 1.0
  outer loop
    vertex -53.27914430671265 609.1620427564318 4.600000000000006
    vertex -53.279144306712666 603.1412454670357 4.6
    vertex -53.209597529875396 604.1434263197065 4.6
  endloop
endfacet
facet normal -1.0298957490957881e-15 -1.0978285550830085e-16 1.0
  outer loop
    vertex -53.27914430671265 609.1620427564318 4.600000000000006
    vertex -53.209597529875396 604.1434263197065 4.6
    vertex -53.209597529875396 608.1598619037611 4.600000000000006
  endloop
endfacet
facet normal -1.0298957490957881e-15 -1.0978285550830085e-16 1.0
  outer loop
    vertex -53.209597529875396 608.1598619037611 4.600000000000006
    vertex -53.209597529875396 604.1434263197065 4.6
    vertex -53.16784808744304 605.1471494885558 4.599999999999999
  endloop
endfacet
facet normal -1.0298957490957881e-15 -1.0978285550830085e-16 1.0
  outer loop
    vertex -53.209597529875396 608.1598619037611 4.600000000000006
    vertex -53.16784808744304 605.1471494885558 4.599999999999999
    vertex -53.16784808744304 607.1561387349117 4.600000000000004
  endloop
endfacet
facet normal -1.0298957490957881e-15 -1.0978285550830085e-16 1.0
  outer loop
    vertex -53.16784808744304 607.1561387349117 4.600000000000004
    vertex -53.16784808744304 605.1471494885558 4.599999999999999
    vertex -53.15392804308955 606.1516441117337 4.599999999999999
  endloop
endfacet
facet normal -1.0298957490957881e-15 -1.0978285550830085e-16 1.0
  outer loop
    vertex -56.55762620336169 611.2608118208907 4.599999999999996
    vertex -57.15392804308954 614.1516441117338 4.600000000000003
    vertex -57.15392804308954 612.1516441117337 4.600000000000003
  endloop
endfacet
facet normal -1.0298957490957881e-15 -1.0978285550830085e-16 1.0
  outer loop
    vertex -57.15392804308954 614.1516441117338 4.600000000000003
    vertex -56.55762620336169 611.2608118208907 4.599999999999996
    vertex -53.65392804308955 614.1516441117338 4.6
  endloop
endfacet
facet normal -1.0298957490957881e-15 -1.0978285550830085e-16 1.0
  outer loop
    vertex -53.65392804308955 614.1516441117338 4.6
    vertex -56.55762620336169 611.2608118208907 4.599999999999996
    vertex -56.06010945861178 610.3112671178013 4.599999999999996
  endloop
endfacet
facet normal -1.0298957490957881e-15 -1.0978285550830085e-16 1.0
  outer loop
    vertex -53.65392804308955 614.1516441117338 4.6
    vertex -56.06010945861178 610.3112671178013 4.599999999999996
    vertex -55.66709506258441 609.3139217719021 4.599999999999994
  endloop
endfacet
facet normal -1.0298957490957881e-15 -1.0978285550830085e-16 1.0
  outer loop
    vertex -53.65392804308955 614.1516441117338 4.6
    vertex -55.66709506258441 609.3139217719021 4.599999999999994
    vertex -55.38309937186678 608.2802368575664 4.599999999999996
  endloop
endfacet
facet normal -1.0298957490957881e-15 -1.0978285550830085e-16 1.0
  outer loop
    vertex -53.65392804308955 614.1516441117338 4.6
    vertex -55.38309937186678 608.2802368575664 4.599999999999996
    vertex -55.21138594581312 607.2220910482449 4.599999999999996
  endloop
endfacet
facet normal -1.0298957490957881e-15 -1.0978285550830085e-16 1.0
  outer loop
    vertex -53.65392804308955 614.1516441117338 4.6
    vertex -55.21138594581312 607.2220910482449 4.599999999999996
    vertex -55.15392804308954 606.1516441117337 4.599999999999996
  endloop
endfacet
facet normal -1.0298957490957881e-15 -1.0978285550830085e-16 1.0
  outer loop
    vertex -53.65392804308955 614.1516441117338 4.6
    vertex -55.15392804308954 606.1516441117337 4.599999999999996
    vertex -53.65392804308955 598.1516441117336 4.59999999999999
  endloop
endfacet
facet normal -1.0298957490957881e-15 -1.0978285550830085e-16 1.0
  outer loop
    vertex -53.65392804308955 614.1516441117338 4.6
    vertex -53.65392804308955 598.1516441117336 4.59999999999999
    vertex -53.65392804308955 600.1516441117337 4.6
  endloop
endfacet
facet normal -1.0298957490957881e-15 -1.0978285550830085e-16 1.0
  outer loop
    vertex -53.65392804308955 614.1516441117338 4.6
    vertex -53.65392804308955 600.1516441117337 4.6
    vertex -53.65392804308955 612.1516441117337 4.6
  endloop
endfacet
facet normal -1.449784155076947e-15 8.819632946251475e-32 -1.0
  outer loop
    vertex -53.65392804308957 614.1516441117338 12.6
    vertex -57.153928043089564 612.1516441117337 12.600000000000001
    vertex -57.153928043089564 614.1516441117338 12.600000000000001
  endloop
endfacet
facet normal -1.449784155076947e-15 8.819632946251475e-32 -1.0
  outer loop
    vertex -57.153928043089564 612.1516441117337 12.600000000000001
    vertex -53.65392804308957 614.1516441117338 12.6
    vertex -56.55762620336172 611.2608118208907 12.599999999999996
  endloop
endfacet
facet normal -1.449784155076947e-15 8.819632946251475e-32 -1.0
  outer loop
    vertex -56.55762620336172 611.2608118208907 12.599999999999996
    vertex -53.65392804308957 614.1516441117338 12.6
    vertex -56.0601094586118 610.3112671178013 12.6
  endloop
endfacet
facet normal -1.449784155076947e-15 8.819632946251475e-32 -1.0
  outer loop
    vertex -56.0601094586118 610.3112671178013 12.6
    vertex -53.65392804308957 614.1516441117338 12.6
    vertex -55.66709506258443 609.3139217719021 12.6
  endloop
endfacet
facet normal -1.449784155076947e-15 8.819632946251475e-32 -1.0
  outer loop
    vertex -55.66709506258443 609.3139217719021 12.6
    vertex -53.65392804308957 614.1516441117338 12.6
    vertex -55.3830993718668 608.2802368575664 12.6
  endloop
endfacet
facet normal -1.449784155076947e-15 8.819632946251475e-32 -1.0
  outer loop
    vertex -55.3830993718668 608.2802368575664 12.6
    vertex -53.65392804308957 614.1516441117338 12.6
    vertex -55.21138594581314 607.2220910482449 12.6
  endloop
endfacet
facet normal -1.449784155076947e-15 8.819632946251475e-32 -1.0
  outer loop
    vertex -55.21138594581314 607.2220910482449 12.6
    vertex -53.65392804308957 614.1516441117338 12.6
    vertex -55.15392804308956 606.1516441117337 12.6
  endloop
endfacet
facet normal -1.449784155076947e-15 8.819632946251475e-32 -1.0
  outer loop
    vertex -53.50139490782251 611.1587005794653 12.599999999999994
    vertex -53.65392804308957 600.1516441117337 12.6
    vertex -53.65392804308957 612.1516441117337 12.6
  endloop
endfacet
facet normal -1.449784155076947e-15 8.819632946251475e-32 -1.0
  outer loop
    vertex -53.65392804308957 600.1516441117337 12.6
    vertex -53.50139490782251 611.1587005794653 12.599999999999994
    vertex -53.50139490782252 601.1445876440023 12.599999999999994
  endloop
endfacet
facet normal -1.449784155076947e-15 8.819632946251475e-32 -1.0
  outer loop
    vertex -53.50139490782252 601.1445876440023 12.599999999999994
    vertex -53.50139490782251 611.1587005794653 12.599999999999994
    vertex -53.37643500586005 602.1413766078907 12.599999999999994
  endloop
endfacet
facet normal -1.449784155076947e-15 8.819632946251475e-32 -1.0
  outer loop
    vertex -53.37643500586005 602.1413766078907 12.599999999999994
    vertex -53.50139490782251 611.1587005794653 12.599999999999994
    vertex -53.37643500586006 610.1619116155767 12.599999999999994
  endloop
endfacet
facet normal -1.449784155076947e-15 8.819632946251475e-32 -1.0
  outer loop
    vertex -53.37643500586005 602.1413766078907 12.599999999999994
    vertex -53.37643500586006 610.1619116155767 12.599999999999994
    vertex -53.27914430671268 609.1620427564318 12.599999999999994
  endloop
endfacet
facet normal -1.449784155076947e-15 8.819632946251475e-32 -1.0
  outer loop
    vertex -53.37643500586005 602.1413766078907 12.599999999999994
    vertex -53.27914430671268 609.1620427564318 12.599999999999994
    vertex -53.27914430671269 603.1412454670357 12.599999999999994
  endloop
endfacet
facet normal -1.449784155076947e-15 8.819632946251475e-32 -1.0
  outer loop
    vertex -53.27914430671269 603.1412454670357 12.599999999999994
    vertex -53.27914430671268 609.1620427564318 12.599999999999994
    vertex -53.20959752987542 604.1434263197065 12.599999999999994
  endloop
endfacet
facet normal -1.449784155076947e-15 8.819632946251475e-32 -1.0
  outer loop
    vertex -53.20959752987542 604.1434263197065 12.599999999999994
    vertex -53.27914430671268 609.1620427564318 12.599999999999994
    vertex -53.20959752987542 608.1598619037611 12.599999999999994
  endloop
endfacet
facet normal -1.449784155076947e-15 8.819632946251475e-32 -1.0
  outer loop
    vertex -53.20959752987542 604.1434263197065 12.599999999999994
    vertex -53.20959752987542 608.1598619037611 12.599999999999994
    vertex -53.16784808744306 607.1561387349117 12.599999999999994
  endloop
endfacet
facet normal -1.449784155076947e-15 8.819632946251475e-32 -1.0
  outer loop
    vertex -53.20959752987542 604.1434263197065 12.599999999999994
    vertex -53.16784808744306 607.1561387349117 12.599999999999994
    vertex -53.16784808744306 605.1471494885558 12.599999999999994
  endloop
endfacet
facet normal -1.449784155076947e-15 8.819632946251475e-32 -1.0
  outer loop
    vertex -53.16784808744306 605.1471494885558 12.599999999999994
    vertex -53.16784808744306 607.1561387349117 12.599999999999994
    vertex -53.15392804308957 606.1516441117337 12.599999999999994
  endloop
endfacet
facet normal -1.449784155076947e-15 8.819632946251475e-32 -1.0
  outer loop
    vertex -56.55762620336172 601.0424764025769 12.599999999999996
    vertex -57.153928043089564 598.1516441117336 12.599999999999994
    vertex -57.153928043089564 600.1516441117337 12.600000000000001
  endloop
endfacet
facet normal -1.449784155076947e-15 8.819632946251475e-32 -1.0
  outer loop
    vertex -57.153928043089564 598.1516441117336 12.599999999999994
    vertex -56.55762620336172 601.0424764025769 12.599999999999996
    vertex -53.65392804308957 598.1516441117336 12.599999999999993
  endloop
endfacet
facet normal -1.449784155076947e-15 8.819632946251475e-32 -1.0
  outer loop
    vertex -53.65392804308957 598.1516441117336 12.599999999999993
    vertex -56.55762620336172 601.0424764025769 12.599999999999996
    vertex -56.0601094586118 601.9920211056661 12.6
  endloop
endfacet
facet normal -1.449784155076947e-15 8.819632946251475e-32 -1.0
  outer loop
    vertex -53.65392804308957 598.1516441117336 12.599999999999993
    vertex -56.0601094586118 601.9920211056661 12.6
    vertex -55.66709506258443 602.9893664515654 12.6
  endloop
endfacet
facet normal -1.449784155076947e-15 8.819632946251475e-32 -1.0
  outer loop
    vertex -53.65392804308957 598.1516441117336 12.599999999999993
    vertex -55.66709506258443 602.9893664515654 12.6
    vertex -55.3830993718668 604.0230513659011 12.6
  endloop
endfacet
facet normal -1.449784155076947e-15 8.819632946251475e-32 -1.0
  outer loop
    vertex -53.65392804308957 598.1516441117336 12.599999999999993
    vertex -55.3830993718668 604.0230513659011 12.6
    vertex -55.21138594581314 605.0811971752225 12.6
  endloop
endfacet
facet normal -1.449784155076947e-15 8.819632946251475e-32 -1.0
  outer loop
    vertex -53.65392804308957 598.1516441117336 12.599999999999993
    vertex -55.21138594581314 605.0811971752225 12.6
    vertex -55.15392804308956 606.1516441117337 12.6
  endloop
endfacet
facet normal -1.449784155076947e-15 8.819632946251475e-32 -1.0
  outer loop
    vertex -53.65392804308957 598.1516441117336 12.599999999999993
    vertex -55.15392804308956 606.1516441117337 12.6
    vertex -53.65392804308957 614.1516441117338 12.6
  endloop
endfacet
facet normal -1.449784155076947e-15 8.819632946251475e-32 -1.0
  outer loop
    vertex -53.65392804308957 598.1516441117336 12.599999999999993
    vertex -53.65392804308957 614.1516441117338 12.6
    vertex -53.65392804308957 612.1516441117337 12.6
  endloop
endfacet
facet normal -1.449784155076947e-15 8.819632946251475e-32 -1.0
  outer loop
    vertex -53.65392804308957 598.1516441117336 12.599999999999993
    vertex -53.65392804308957 612.1516441117337 12.6
    vertex -53.65392804308957 600.1516441117337 12.6
  endloop
endfacet
facet normal 0.0 1.0 0.0
  outer loop
    vertex -58.653928043089536 614.1516441117338 3.6000000000000214
    vertex -57.15392804308954 614.1516441117338 4.600000000000003
    vertex -53.65392804308955 614.1516441117338 4.6
  endloop
endfacet
facet normal 0.0 1.0 0.0
  outer loop
    vertex -57.15392804308954 614.1516441117338 4.600000000000003
    vertex -58.653928043089536 614.1516441117338 3.6000000000000214
    vertex -58.65392804308955 614.1516441117338 13.600000000000003
  endloop
endfacet
facet normal 0.0 1.0 0.0
  outer loop
    vertex -57.15392804308954 614.1516441117338 4.600000000000003
    vertex -58.65392804308955 614.1516441117338 13.600000000000003
    vertex -57.153928043089564 614.1516441117338 12.600000000000001
  endloop
endfacet
facet normal 0.0 1.0 0.0
  outer loop
    vertex -52.65392804308955 614.1516441117338 3.5999999999999974
    vertex -53.65392804308955 614.1516441117338 4.6
    vertex -52.65392804308957 614.1516441117338 13.600000000000003
  endloop
endfacet
facet normal 0.0 1.0 0.0
  outer loop
    vertex -53.65392804308955 614.1516441117338 4.6
    vertex -52.65392804308955 614.1516441117338 3.5999999999999974
    vertex -58.653928043089536 614.1516441117338 3.6000000000000214
  endloop
endfacet
facet normal 0.0 1.0 0.0
  outer loop
    vertex -52.65392804308957 614.1516441117338 13.600000000000003
    vertex -53.65392804308955 614.1516441117338 4.6
    vertex -53.65392804308957 614.1516441117338 12.6
  endloop
endfacet
facet normal 0.0 1.0 0.0
  outer loop
    vertex -52.65392804308957 614.1516441117338 13.600000000000003
    vertex -53.65392804308957 614.1516441117338 12.6
    vertex -57.153928043089564 614.1516441117338 12.600000000000001
  endloop
endfacet
facet normal 0.0 1.0 0.0
  outer loop
    vertex -52.65392804308957 614.1516441117338 13.600000000000003
    vertex -57.153928043089564 614.1516441117338 12.600000000000001
    vertex -58.65392804308955 614.1516441117338 13.600000000000003
  endloop
endfacet
facet normal -1.0 -1.887618150799941e-15 5.134781488891349e-16
  outer loop
    vertex -58.65392804308955 600.8986083431788 13.600000000000003
    vertex -58.653928043089536 598.1516441117336 3.5999999999999885
    vertex -58.65392804308955 598.1516441117336 13.599999999999998
  endloop
endfacet
facet normal -1.0 -1.887618150799941e-15 5.134781488891349e-16
  outer loop
    vertex -58.653928043089536 598.1516441117336 3.5999999999999885
    vertex -58.65392804308955 600.8986083431788 13.600000000000003
    vertex -58.653928043089536 600.8986083431788 3.599999999999999
  endloop
endfacet
facet normal 0.3303504247281234 -0.9438583563660113 1.693759420164679e-15
  outer loop
    vertex -49.05392804308955 607.4516441117337 3.6000000000000165
    vertex -51.05392804308956 606.7516441117338 13.6
    vertex -51.053928043089556 606.7516441117338 3.599999999999997
  endloop
endfacet
facet normal 0.3303504247281234 -0.9438583563660113 1.693759420164679e-15
  outer loop
    vertex -51.05392804308956 606.7516441117338 13.6
    vertex -49.05392804308955 607.4516441117337 3.6000000000000165
    vertex -49.053928043089655 607.4516441117337 13.599999999999978
  endloop
endfacet
facet normal 0.0 -1.0 0.0
  outer loop
    vertex -51.05392804308956 606.7516441117338 13.6
    vertex -52.65392804308955 606.7516441117338 3.5999999999999974
    vertex -51.053928043089556 606.7516441117338 3.599999999999997
  endloop
endfacet
facet normal 0.0 -1.0 0.0
  outer loop
    vertex -52.65392804308955 606.7516441117338 3.5999999999999974
    vertex -51.05392804308956 606.7516441117338 13.6
    vertex -52.65392804308957 606.7516441117338 13.600000000000003
  endloop
endfacet
facet normal 0.33035042472812337 0.9438583563660115 1.6937594201646789e-15
  outer loop
    vertex -51.05392804308956 605.5516441117338 13.6
    vertex -49.05392804308955 604.8516441117338 3.6000000000000165
    vertex -51.053928043089556 605.5516441117338 3.599999999999997
  endloop
endfacet
facet normal 0.33035042472812337 0.9438583563660115 1.6937594201646789e-15
  outer loop
    vertex -49.05392804308955 604.8516441117338 3.6000000000000165
    vertex -51.05392804308956 605.5516441117338 13.6
    vertex -49.053928043089655 604.8516441117338 13.599999999999978
  endloop
endfacet
facet normal 1.0 -8.057047092993757e-14 5.126454816206671e-15
  outer loop
    vertex -49.05392804308955 608.1516441117337 3.6000000000000165
    vertex -49.053928043089655 607.4516441117337 13.599999999999978
    vertex -49.05392804308955 607.4516441117337 3.6000000000000165
  endloop
endfacet
facet normal 1.0 -8.057047092993757e-14 5.126454816206671e-15
  outer loop
    vertex -49.053928043089655 607.4516441117337 13.599999999999978
    vertex -49.05392804308955 608.1516441117337 3.6000000000000165
    vertex -49.05392804308955 608.1516441117337 13.6
  endloop
endfacet
facet normal 0.7071067811865628 -0.7071067811865324 -3.630838810706308e-16
  outer loop
    vertex -49.05392804308955 604.1516441117337 3.6000000000000165
    vertex -50.05392804308954 603.1516441117337 13.6
    vertex -50.05392804308955 603.1516441117337 3.6000000000000187
  endloop
endfacet
facet normal 0.7071067811865628 -0.7071067811865324 -3.630838810706308e-16
  outer loop
    vertex -50.05392804308954 603.1516441117337 13.6
    vertex -49.05392804308955 604.1516441117337 3.6000000000000165
    vertex -49.05392804308955 604.1516441117337 13.6
  endloop
endfacet
facet normal 0.0 -1.0 0.0
  outer loop
    vertex -51.05392804308956 604.1516441117337 13.6
    vertex -52.65392804308955 604.1516441117337 3.5999999999999974
    vertex -51.053928043089556 604.1516441117337 3.599999999999997
  endloop
endfacet
facet normal 0.0 -1.0 0.0
  outer loop
    vertex -52.65392804308955 604.1516441117337 3.5999999999999974
    vertex -51.05392804308956 604.1516441117337 13.6
    vertex -52.65392804308957 604.1516441117337 13.600000000000003
  endloop
endfacet
facet normal -0.0 1.0 -0.0
  outer loop
    vertex -52.65392804308955 605.5516441117338 3.5999999999999974
    vertex -51.05392804308956 605.5516441117338 13.6
    vertex -51.053928043089556 605.5516441117338 3.599999999999997
  endloop
endfacet
facet normal -0.0 1.0 -0.0
  outer loop
    vertex -51.05392804308956 605.5516441117338 13.6
    vertex -52.65392804308955 605.5516441117338 3.5999999999999974
    vertex -52.65392804308957 605.5516441117338 13.600000000000003
  endloop
endfacet
facet normal -1.0 0.0 5.134781488891349e-16
  outer loop
    vertex -58.65392804308955 614.1516441117338 13.600000000000003
    vertex -58.653928043089536 611.4046798802888 3.6000000000000214
    vertex -58.65392804308955 611.4046798802888 13.600000000000003
  endloop
endfacet
facet normal -1.0 0.0 5.134781488891349e-16
  outer loop
    vertex -58.653928043089536 611.4046798802888 3.6000000000000214
    vertex -58.65392804308955 614.1516441117338 13.600000000000003
    vertex -58.653928043089536 614.1516441117338 3.6000000000000214
  endloop
endfacet
facet normal 1.0 8.057047092993757e-14 5.126454816206671e-15
  outer loop
    vertex -49.05392804308955 604.8516441117338 3.6000000000000165
    vertex -49.05392804308955 604.1516441117337 13.6
    vertex -49.05392804308955 604.1516441117337 3.6000000000000165
  endloop
endfacet
facet normal 1.0 8.057047092993757e-14 5.126454816206671e-15
  outer loop
    vertex -49.05392804308955 604.1516441117337 13.6
    vertex -49.05392804308955 604.8516441117338 3.6000000000000165
    vertex -49.053928043089655 604.8516441117338 13.599999999999978
  endloop
endfacet
facet normal 1.0 0.0 -5.134781488891349e-16
  outer loop
    vertex -52.65392804308955 614.1516441117338 3.5999999999999974
    vertex -52.65392804308957 608.1516441117337 13.600000000000003
    vertex -52.65392804308955 608.1516441117337 3.5999999999999974
  endloop
endfacet
facet normal 1.0 0.0 -5.134781488891349e-16
  outer loop
    vertex -52.65392804308957 608.1516441117337 13.600000000000003
    vertex -52.65392804308955 614.1516441117338 3.5999999999999974
    vertex -52.65392804308957 614.1516441117338 13.600000000000003
  endloop
endfacet
facet normal 0.7071067811865631 0.7071067811865319 -3.63083881070631e-16
  outer loop
    vertex -50.05392804308955 609.1516441117338 3.6000000000000187
    vertex -49.05392804308955 608.1516441117337 13.6
    vertex -49.05392804308955 608.1516441117337 3.6000000000000165
  endloop
endfacet
facet normal 0.7071067811865631 0.7071067811865319 -3.63083881070631e-16
  outer loop
    vertex -49.05392804308955 608.1516441117337 13.6
    vertex -50.05392804308955 609.1516441117338 3.6000000000000187
    vertex -50.05392804308954 609.1516441117338 13.6
  endloop
endfacet
facet normal -0.7071067811865628 -0.7071067811865323 3.6506232023205634e-16
  outer loop
    vertex -51.05392804308956 604.1516441117337 13.6
    vertex -50.05392804308955 603.1516441117337 3.6000000000000187
    vertex -50.05392804308954 603.1516441117337 13.6
  endloop
endfacet
facet normal -0.7071067811865628 -0.7071067811865323 3.6506232023205634e-16
  outer loop
    vertex -50.05392804308955 603.1516441117337 3.6000000000000187
    vertex -51.05392804308956 604.1516441117337 13.6
    vertex -51.053928043089556 604.1516441117337 3.599999999999997
  endloop
endfacet
facet normal 1.0 1.4910395555054486e-31 2.255973186038316e-15
  outer loop
    vertex -52.65392804308955 604.1516441117337 3.5999999999999974
    vertex -52.65392804308957 598.1516441117337 13.599999999999998
    vertex -52.65392804308955 598.1516441117336 3.599999999999987
  endloop
endfacet
facet normal 1.0 1.4910395555054486e-31 2.255973186038316e-15
  outer loop
    vertex -52.65392804308957 598.1516441117337 13.599999999999998
    vertex -52.65392804308955 604.1516441117337 3.5999999999999974
    vertex -52.65392804308957 600.1516441117337 13.600000000000003
  endloop
endfacet
facet normal 1.0 1.4910395555054486e-31 2.255973186038316e-15
  outer loop
    vertex -52.65392804308957 600.1516441117337 13.600000000000003
    vertex -52.65392804308955 604.1516441117337 3.5999999999999974
    vertex -52.65392804308957 604.1516441117337 13.600000000000003
  endloop
endfacet
facet normal 0.0 1.0 0.0
  outer loop
    vertex -52.65392804308955 608.1516441117337 3.5999999999999974
    vertex -51.05392804308956 608.1516441117337 13.6
    vertex -51.053928043089556 608.1516441117337 3.599999999999997
  endloop
endfacet
facet normal 0.0 1.0 0.0
  outer loop
    vertex -51.05392804308956 608.1516441117337 13.6
    vertex -52.65392804308955 608.1516441117337 3.5999999999999974
    vertex -52.65392804308957 608.1516441117337 13.600000000000003
  endloop
endfacet
facet normal -0.7071067811865629 0.7071067811865321 3.6308388107064154e-16
  outer loop
    vertex -50.05392804308954 609.1516441117338 13.6
    vertex -51.053928043089556 608.1516441117337 3.599999999999997
    vertex -51.05392804308956 608.1516441117337 13.6
  endloop
endfacet
facet normal -0.7071067811865629 0.7071067811865321 3.6308388107064154e-16
  outer loop
    vertex -51.053928043089556 608.1516441117337 3.599999999999997
    vertex -50.05392804308954 609.1516441117338 13.6
    vertex -50.05392804308955 609.1516441117338 3.6000000000000187
  endloop
endfacet
facet normal 1.0 -0.0 2.255973186038317e-15
  outer loop
    vertex -52.65392804308955 606.7516441117338 3.5999999999999974
    vertex -52.65392804308957 605.5516441117338 13.600000000000003
    vertex -52.65392804308955 605.5516441117338 3.5999999999999974
  endloop
endfacet
facet normal 1.0 -0.0 2.255973186038317e-15
  outer loop
    vertex -52.65392804308957 605.5516441117338 13.600000000000003
    vertex -52.65392804308955 606.7516441117338 3.5999999999999974
    vertex -52.65392804308957 606.1516441117337 13.600000000000003
  endloop
endfacet
facet normal 1.0 -0.0 2.255973186038317e-15
  outer loop
    vertex -52.65392804308957 606.1516441117337 13.600000000000003
    vertex -52.65392804308955 606.7516441117338 3.5999999999999974
    vertex -52.65392804308957 606.7516441117338 13.600000000000003
  endloop
endfacet
endsolid Development Mockup rev2
