solid Development Mockup rev2
facet normal -1.0145882028320107e-30 0.8513965815666017 0.5245225075215599
  outer loop
    vertex -115.28830942833957 561.8723140069585 7.438043722058026
    vertex -105.2883094283396 562.0719069151764 7.114067691811601
    vertex -115.28830942833957 562.0719069151764 7.114067691811601
  endloop
endfacet
facet normal -1.0145882028320107e-30 0.8513965815666017 0.5245225075215599
  outer loop
    vertex -105.2883094283396 562.0719069151764 7.114067691811601
    vertex -115.28830942833957 561.8723140069585 7.438043722058026
    vertex -105.2883094283396 561.8723140069585 7.438043722058026
  endloop
endfacet
facet normal -1.1099437168205296e-30 -0.8189837645128668 0.5738166897749956
  outer loop
    vertex -105.2883094283396 544.1345898532336 7.74968592806141
    vertex -115.28830942833957 543.9162393720743 7.438043722058041
    vertex -105.2883094283396 543.9162393720743 7.438043722058041
  endloop
endfacet
facet normal -1.1099437168205296e-30 -0.8189837645128668 0.5738166897749956
  outer loop
    vertex -115.28830942833957 543.9162393720743 7.438043722058041
    vertex -105.2883094283396 544.1345898532336 7.74968592806141
    vertex -115.28830942833957 544.1345898532336 7.74968592806141
  endloop
endfacet
facet normal -9.157118402288377e-31 -0.8808461067618785 0.47340272094955416
  outer loop
    vertex -105.2883094283396 543.7166464638563 7.1140676918116155
    vertex -115.28830942833957 543.5365058131164 6.778885438199979
    vertex -105.2883094283396 543.5365058131164 6.778885438199979
  endloop
endfacet
facet normal -9.157118402288377e-31 -0.8808461067618785 0.47340272094955416
  outer loop
    vertex -115.28830942833957 543.5365058131164 6.778885438199979
    vertex -105.2883094283396 543.7166464638563 7.1140676918116155
    vertex -115.28830942833957 543.7166464638563 7.1140676918116155
  endloop
endfacet
facet normal -1.2887363711854442e-30 -0.7457294281028904 0.6662489174935566
  outer loop
    vertex -105.2883094283396 544.6244610119811 8.331676878854472
    vertex -115.28830942833957 544.3709379369313 8.047909636906894
    vertex -105.2883094283396 544.3709379369313 8.047909636906894
  endloop
endfacet
facet normal -1.2887363711854442e-30 -0.7457294281028904 0.6662489174935566
  outer loop
    vertex -115.28830942833957 544.3709379369313 8.047909636906894
    vertex -105.2883094283396 544.6244610119811 8.331676878854472
    vertex -115.28830942833957 544.6244610119811 8.331676878854472
  endloop
endfacet
facet normal -1.1099386902418354e-30 0.8189837645128678 0.5738166897749938
  outer loop
    vertex -115.28830942833957 561.6539635257992 7.749685928061396
    vertex -105.2883094283396 561.8723140069585 7.438043722058026
    vertex -115.28830942833957 561.8723140069585 7.438043722058026
  endloop
endfacet
facet normal -1.1099386902418354e-30 0.8189837645128678 0.5738166897749938
  outer loop
    vertex -105.2883094283396 561.8723140069585 7.438043722058026
    vertex -115.28830942833957 561.6539635257992 7.749685928061396
    vertex -105.2883094283396 561.6539635257992 7.749685928061396
  endloop
endfacet
facet normal -1.3715564479707305e-30 -0.7051428709859394 0.709065251932223
  outer loop
    vertex -105.2883094283396 544.6244610119811 8.331676878854472
    vertex -115.28830942833957 544.8942766895165 8.599999999999998
    vertex -115.28830942833957 544.6244610119811 8.331676878854472
  endloop
endfacet
facet normal -1.3715564479707305e-30 -0.7051428709859394 0.709065251932223
  outer loop
    vertex -115.28830942833957 544.8942766895165 8.599999999999998
    vertex -105.2883094283396 544.6244610119811 8.331676878854472
    vertex -105.2883094283396 544.8942766895165 8.599999999999998
  endloop
endfacet
facet normal -7.087367794629247e-31 0.9304559549571964 0.3664037607403774
  outer loop
    vertex -115.28830942833957 562.4121089783617 6.4336635654410985
    vertex -105.2883094283396 562.551534057628 6.079603620718836
    vertex -115.28830942833957 562.551534057628 6.079603620718836
  endloop
endfacet
facet normal -7.087367794629247e-31 0.9304559549571964 0.3664037607403774
  outer loop
    vertex -105.2883094283396 562.551534057628 6.079603620718836
    vertex -115.28830942833957 562.4121089783617 6.4336635654410985
    vertex -105.2883094283396 562.4121089783617 6.4336635654410985
  endloop
endfacet
facet normal -3.8074198662438684e-31 -0.9804367908565418 0.1968341919863669
  outer loop
    vertex -105.2883094283396 543.02194572844 5.349925219923874
    vertex -115.28830942833957 542.9470457799116 4.976846414715622
    vertex -105.2883094283396 542.9470457799116 4.976846414715622
  endloop
endfacet
facet normal -3.8074198662438684e-31 -0.9804367908565418 0.1968341919863669
  outer loop
    vertex -115.28830942833957 542.9470457799116 4.976846414715622
    vertex -105.2883094283396 543.02194572844 5.349925219923874
    vertex -115.28830942833957 543.02194572844 5.349925219923874
  endloop
endfacet
facet normal -4.919145927349104e-31 -0.9671232403509349 0.2543081555379375
  outer loop
    vertex -105.2883094283396 543.1187158452976 5.717937912189365
    vertex -115.28830942833957 543.02194572844 5.349925219923874
    vertex -105.2883094283396 543.02194572844 5.349925219923874
  endloop
endfacet
facet normal -4.919145927349104e-31 -0.9671232403509349 0.2543081555379375
  outer loop
    vertex -115.28830942833957 543.02194572844 5.349925219923874
    vertex -105.2883094283396 543.1187158452976 5.717937912189365
    vertex -115.28830942833957 543.1187158452976 5.717937912189365
  endloop
endfacet
facet normal -9.157064339650516e-31 0.8808461067618778 0.47340272094955577
  outer loop
    vertex -115.28830942833957 562.0719069151764 7.114067691811601
    vertex -105.2883094283396 562.2520475659163 6.778885438199966
    vertex -115.28830942833957 562.2520475659163 6.778885438199966
  endloop
endfacet
facet normal -9.157064339650516e-31 0.8808461067618778 0.47340272094955577
  outer loop
    vertex -105.2883094283396 562.2520475659163 6.778885438199966
    vertex -115.28830942833957 562.0719069151764 7.114067691811601
    vertex -105.2883094283396 562.0719069151764 7.114067691811601
  endloop
endfacet
facet normal -6.810428025145575e-20 0.9903379241373522 0.13867514562934571
  outer loop
    vertex -115.28830942833957 562.8415075991212 4.9768464147156175
    vertex -105.28830942833957 562.8942766895163 4.599999999999999
    vertex -115.28830942833957 562.8942766895163 4.599999999999999
  endloop
endfacet
facet normal -6.810428025145575e-20 0.9903379241373522 0.13867514562934571
  outer loop
    vertex -105.28830942833957 562.8942766895163 4.599999999999999
    vertex -115.28830942833957 562.8415075991212 4.9768464147156175
    vertex -105.2883094283396 562.8415075991212 4.9768464147156175
  endloop
endfacet
facet normal -8.13643110536619e-31 -0.907229840816848 0.42063525283960285
  outer loop
    vertex -105.2883094283396 543.5365058131164 6.778885438199979
    vertex -115.28830942833957 543.3764444006711 6.433663565441109
    vertex -105.2883094283396 543.3764444006711 6.433663565441109
  endloop
endfacet
facet normal -8.13643110536619e-31 -0.907229840816848 0.42063525283960285
  outer loop
    vertex -115.28830942833957 543.3764444006711 6.433663565441109
    vertex -105.2883094283396 543.5365058131164 6.778885438199979
    vertex -115.28830942833957 543.5365058131164 6.778885438199979
  endloop
endfacet
facet normal -1.9343132106638677e-30 0.0 1.0
  outer loop
    vertex -105.2883094283396 544.8942766895165 8.599999999999998
    vertex -115.28830942833957 560.8942766895163 8.599999999999998
    vertex -115.28830942833957 544.8942766895165 8.599999999999998
  endloop
endfacet
facet normal -1.9343132106638677e-30 0.0 1.0
  outer loop
    vertex -115.28830942833957 560.8942766895163 8.599999999999998
    vertex -105.2883094283396 544.8942766895165 8.599999999999998
    vertex -105.2883094283396 560.8942766895163 8.599999999999998
  endloop
endfacet
facet normal 0.0 -0.8944271909999082 -0.44721359549997336
  outer loop
    vertex -105.2883094283396 559.8942766895163 6.599999999999999
    vertex -115.28830942833957 560.8942766895163 4.599999999999999
    vertex -105.2883094283396 560.8942766895163 4.599999999999999
  endloop
endfacet
facet normal 0.0 -0.8944271909999082 -0.44721359549997336
  outer loop
    vertex -115.28830942833957 560.8942766895163 4.599999999999999
    vertex -105.2883094283396 559.8942766895163 6.599999999999999
    vertex -115.28830942833957 559.8942766895163 6.599999999999999
  endloop
endfacet
facet normal -6.013692531822424e-31 0.9504436105277481 0.31089699774519947
  outer loop
    vertex -115.28830942833957 562.551534057628 6.079603620718836
    vertex -105.2883094283396 562.6698375337352 5.717937912189356
    vertex -115.28830942833957 562.6698375337352 5.717937912189356
  endloop
endfacet
facet normal -6.013692531822424e-31 0.9504436105277481 0.31089699774519947
  outer loop
    vertex -105.2883094283396 562.6698375337352 5.717937912189356
    vertex -115.28830942833957 562.551534057628 6.079603620718836
    vertex -105.2883094283396 562.551534057628 6.079603620718836
  endloop
endfacet
facet normal 1.2589777582240265e-19 -0.9903379241373524 0.13867514562934394
  outer loop
    vertex -105.2883094283396 542.9470457799116 4.976846414715622
    vertex -115.28830942833957 542.8942766895165 4.599999999999999
    vertex -105.28830942833957 542.8942766895165 4.599999999999999
  endloop
endfacet
facet normal 1.2589777582240265e-19 -0.9903379241373524 0.13867514562934394
  outer loop
    vertex -115.28830942833957 542.8942766895165 4.599999999999999
    vertex -105.2883094283396 542.9470457799116 4.976846414715622
    vertex -115.28830942833957 542.9470457799116 4.976846414715622
  endloop
endfacet
facet normal -6.013750866063026e-31 -0.9504436105277485 0.31089699774519786
  outer loop
    vertex -105.2883094283396 543.2370193214048 6.0796036207188475
    vertex -115.28830942833957 543.1187158452976 5.717937912189365
    vertex -105.2883094283396 543.1187158452976 5.717937912189365
  endloop
endfacet
facet normal -6.013750866063026e-31 -0.9504436105277485 0.31089699774519786
  outer loop
    vertex -115.28830942833957 543.1187158452976 5.717937912189365
    vertex -105.2883094283396 543.2370193214048 6.0796036207188475
    vertex -115.28830942833957 543.2370193214048 6.0796036207188475
  endloop
endfacet
facet normal -1.3715521200996463e-30 0.7051428709859543 0.7090652519322082
  outer loop
    vertex -105.2883094283396 560.8942766895163 8.599999999999998
    vertex -115.28830942833957 561.1640923670517 8.331676878854461
    vertex -115.28830942833957 560.8942766895163 8.599999999999998
  endloop
endfacet
facet normal -1.3715521200996463e-30 0.7051428709859543 0.7090652519322082
  outer loop
    vertex -115.28830942833957 561.1640923670517 8.331676878854461
    vertex -105.2883094283396 560.8942766895163 8.599999999999998
    vertex -105.2883094283396 561.1640923670517 8.331676878854461
  endloop
endfacet
facet normal -0.0 0.8762159086766435 -0.4819187497721627
  outer loop
    vertex -115.28830942833957 545.9942766895165 6.599999999999999
    vertex -105.2883094283396 544.8942766895165 4.599999999999999
    vertex -115.28830942833957 544.8942766895165 4.599999999999999
  endloop
endfacet
facet normal -0.0 0.8762159086766435 -0.4819187497721627
  outer loop
    vertex -105.2883094283396 544.8942766895165 4.599999999999999
    vertex -115.28830942833957 545.9942766895165 6.599999999999999
    vertex -105.2883094283396 545.9942766895165 6.599999999999999
  endloop
endfacet
facet normal -7.087424902111453e-31 -0.9304559549571964 0.3664037607403774
  outer loop
    vertex -105.2883094283396 543.3764444006711 6.433663565441109
    vertex -115.28830942833957 543.2370193214048 6.0796036207188475
    vertex -105.2883094283396 543.2370193214048 6.0796036207188475
  endloop
endfacet
facet normal -7.087424902111453e-31 -0.9304559549571964 0.3664037607403774
  outer loop
    vertex -115.28830942833957 543.2370193214048 6.0796036207188475
    vertex -105.2883094283396 543.3764444006711 6.433663565441109
    vertex -115.28830942833957 543.3764444006711 6.433663565441109
  endloop
endfacet
facet normal -1.2014260281452105e-30 0.7837204686408422 0.6211136989580721
  outer loop
    vertex -115.28830942833957 561.4176154421014 8.047909636906878
    vertex -105.2883094283396 561.6539635257992 7.749685928061396
    vertex -115.28830942833957 561.6539635257992 7.749685928061396
  endloop
endfacet
facet normal -1.2014260281452105e-30 0.7837204686408422 0.6211136989580721
  outer loop
    vertex -105.2883094283396 561.6539635257992 7.749685928061396
    vertex -115.28830942833957 561.4176154421014 8.047909636906878
    vertex -105.2883094283396 561.4176154421014 8.047909636906878
  endloop
endfacet
facet normal -4.9190865693828065e-31 0.9671232403509347 0.2543081555379389
  outer loop
    vertex -115.28830942833957 562.6698375337352 5.717937912189356
    vertex -105.2883094283396 562.7666076505928 5.3499252199238665
    vertex -115.28830942833957 562.7666076505928 5.3499252199238665
  endloop
endfacet
facet normal -4.9190865693828065e-31 0.9671232403509347 0.2543081555379389
  outer loop
    vertex -105.2883094283396 562.7666076505928 5.3499252199238665
    vertex -115.28830942833957 562.6698375337352 5.717937912189356
    vertex -105.2883094283396 562.6698375337352 5.717937912189356
  endloop
endfacet
facet normal -3.807359691147701e-31 0.9804367908565415 0.19683419198636795
  outer loop
    vertex -115.28830942833957 562.7666076505928 5.3499252199238665
    vertex -105.2883094283396 562.8415075991212 4.9768464147156175
    vertex -115.28830942833957 562.8415075991212 4.9768464147156175
  endloop
endfacet
facet normal -3.807359691147701e-31 0.9804367908565415 0.19683419198636795
  outer loop
    vertex -105.2883094283396 562.8415075991212 4.9768464147156175
    vertex -115.28830942833957 562.7666076505928 5.3499252199238665
    vertex -105.2883094283396 562.7666076505928 5.3499252199238665
  endloop
endfacet
facet normal -1.0145934283473012e-30 -0.8513965815664968 0.5245225075217302
  outer loop
    vertex -105.2883094283396 543.9162393720743 7.438043722058041
    vertex -115.28830942833957 543.7166464638563 7.1140676918116155
    vertex -105.2883094283396 543.7166464638563 7.1140676918116155
  endloop
endfacet
facet normal -1.0145934283473012e-30 -0.8513965815664968 0.5245225075217302
  outer loop
    vertex -115.28830942833957 543.7166464638563 7.1140676918116155
    vertex -105.2883094283396 543.9162393720743 7.438043722058041
    vertex -115.28830942833957 543.9162393720743 7.438043722058041
  endloop
endfacet
facet normal 1.9343132106638677e-30 0.0 -1.0
  outer loop
    vertex -105.2883094283396 559.8942766895163 6.599999999999999
    vertex -115.28830942833957 545.9942766895165 6.599999999999999
    vertex -115.28830942833957 559.8942766895163 6.599999999999999
  endloop
endfacet
facet normal 1.9343132106638677e-30 0.0 -1.0
  outer loop
    vertex -115.28830942833957 545.9942766895165 6.599999999999999
    vertex -105.2883094283396 559.8942766895163 6.599999999999999
    vertex -105.2883094283396 545.9942766895165 6.599999999999999
  endloop
endfacet
facet normal -1.2887317942108662e-30 0.7457294281030132 0.6662489174934193
  outer loop
    vertex -115.28830942833957 561.1640923670517 8.331676878854461
    vertex -105.2883094283396 561.4176154421014 8.047909636906878
    vertex -115.28830942833957 561.4176154421014 8.047909636906878
  endloop
endfacet
facet normal -1.2887317942108662e-30 0.7457294281030132 0.6662489174934193
  outer loop
    vertex -105.2883094283396 561.4176154421014 8.047909636906878
    vertex -115.28830942833957 561.1640923670517 8.331676878854461
    vertex -105.2883094283396 561.1640923670517 8.331676878854461
  endloop
endfacet
facet normal -1.201430838292303e-30 -0.7837204686409591 0.6211136989579247
  outer loop
    vertex -105.2883094283396 544.3709379369313 8.047909636906894
    vertex -115.28830942833957 544.1345898532336 7.74968592806141
    vertex -105.2883094283396 544.1345898532336 7.74968592806141
  endloop
endfacet
facet normal -1.201430838292303e-30 -0.7837204686409591 0.6211136989579247
  outer loop
    vertex -115.28830942833957 544.1345898532336 7.74968592806141
    vertex -105.2883094283396 544.3709379369313 8.047909636906894
    vertex -115.28830942833957 544.3709379369313 8.047909636906894
  endloop
endfacet
facet normal -8.136375423409215e-31 0.907229840816757 0.4206352528397995
  outer loop
    vertex -115.28830942833957 562.2520475659163 6.778885438199966
    vertex -105.2883094283396 562.4121089783617 6.4336635654410985
    vertex -115.28830942833957 562.4121089783617 6.4336635654410985
  endloop
endfacet
facet normal -8.136375423409215e-31 0.907229840816757 0.4206352528397995
  outer loop
    vertex -105.2883094283396 562.4121089783617 6.4336635654410985
    vertex -115.28830942833957 562.2520475659163 6.778885438199966
    vertex -105.2883094283396 562.2520475659163 6.778885438199966
  endloop
endfacet
facet normal 1.0663674183200114e-29 0.7071067811865321 0.7071067811865629
  outer loop
    vertex -105.28830942833957 554.8942766895163 1.9999999999999991
    vertex -115.28830942833956 555.8942766895165 0.9999999999999992
    vertex -115.28830942833957 554.8942766895163 1.9999999999999991
  endloop
endfacet
facet normal 1.0663674183200114e-29 0.7071067811865321 0.7071067811865629
  outer loop
    vertex -115.28830942833956 555.8942766895165 0.9999999999999992
    vertex -105.28830942833957 554.8942766895163 1.9999999999999991
    vertex -105.28830942833957 555.8942766895165 0.9999999999999992
  endloop
endfacet
facet normal 1.863387144738815e-15 0.9438583563660115 -0.33035042472812337
  outer loop
    vertex -115.28830942833957 552.2942766895164 2.0
    vertex -105.2883094283396 551.5942766895164 1.127986593019159e-13
    vertex -115.28830942833956 551.5942766895164 0.0
  endloop
endfacet
facet normal 1.863387144738815e-15 0.9438583563660115 -0.33035042472812337
  outer loop
    vertex -105.2883094283396 551.5942766895164 1.127986593019159e-13
    vertex -115.28830942833957 552.2942766895164 2.0
    vertex -105.28830942833957 552.2942766895164 2.0
  endloop
endfacet
facet normal 1.8633871447388155e-15 -0.9438583563660113 -0.3303504247281234
  outer loop
    vertex -105.2883094283396 554.1942766895164 1.127986593019159e-13
    vertex -115.28830942833957 553.4942766895164 1.9999999999999991
    vertex -115.28830942833956 554.1942766895164 0.0
  endloop
endfacet
facet normal 1.8633871447388155e-15 -0.9438583563660113 -0.3303504247281234
  outer loop
    vertex -115.28830942833957 553.4942766895164 1.9999999999999991
    vertex -105.2883094283396 554.1942766895164 1.127986593019159e-13
    vertex -105.28830942833957 553.4942766895164 1.9999999999999991
  endloop
endfacet
facet normal -1.0 -2.2380087318121104e-17 -2.067148387274424e-15
  outer loop
    vertex -115.28830942833956 550.8942766895165 0.0
    vertex -115.28830942833956 549.8942766895163 1.0000000000000002
    vertex -115.28830942833957 550.8942766895165 2.0
  endloop
endfacet
facet normal -1.0 -2.2380087318121104e-17 -2.067148387274424e-15
  outer loop
    vertex -115.28830942833957 544.8942766895165 8.599999999999998
    vertex -115.28830942833957 545.9942766895165 6.599999999999999
    vertex -115.28830942833957 544.8942766895165 4.599999999999999
  endloop
endfacet
facet normal -1.0 -2.2380087318121104e-17 -2.067148387274424e-15
  outer loop
    vertex -115.28830942833957 545.9942766895165 6.599999999999999
    vertex -115.28830942833957 544.8942766895165 8.599999999999998
    vertex -115.28830942833957 560.8942766895163 8.599999999999998
  endloop
endfacet
facet normal -1.0 -2.2380087318121104e-17 -2.067148387274424e-15
  outer loop
    vertex -115.28830942833957 545.9942766895165 6.599999999999999
    vertex -115.28830942833957 560.8942766895163 8.599999999999998
    vertex -115.28830942833957 559.8942766895163 6.599999999999999
  endloop
endfacet
facet normal -1.0 -2.2380087318121104e-17 -2.067148387274424e-15
  outer loop
    vertex -115.28830942833957 559.8942766895163 6.599999999999999
    vertex -115.28830942833957 560.8942766895163 8.599999999999998
    vertex -115.28830942833957 560.8942766895163 4.599999999999999
  endloop
endfacet
facet normal -1.0 -2.2380087318121104e-17 -2.067148387274424e-15
  outer loop
    vertex -115.28830942833957 560.8942766895163 4.599999999999999
    vertex -115.28830942833957 560.8942766895163 8.599999999999998
    vertex -115.28830942833957 561.1640923670517 8.331676878854461
  endloop
endfacet
facet normal -1.0 -2.2380087318121104e-17 -2.067148387274424e-15
  outer loop
    vertex -115.28830942833957 542.9470457799116 4.976846414715622
    vertex -115.28830942833957 542.8942766895165 3.599999999999999
    vertex -115.28830942833957 542.8942766895165 4.599999999999999
  endloop
endfacet
facet normal -1.0 -2.2380087318121104e-17 -2.067148387274424e-15
  outer loop
    vertex -115.28830942833957 542.8942766895165 3.599999999999999
    vertex -115.28830942833957 542.9470457799116 4.976846414715622
    vertex -115.28830942833957 544.8942766895165 4.599999999999999
  endloop
endfacet
facet normal -1.0 -2.2380087318121104e-17 -2.067148387274424e-15
  outer loop
    vertex -115.28830942833957 542.8942766895165 3.599999999999999
    vertex -115.28830942833957 544.8942766895165 4.599999999999999
    vertex -115.28830942833957 550.8942766895165 3.599999999999999
  endloop
endfacet
facet normal -1.0 -2.2380087318121104e-17 -2.067148387274424e-15
  outer loop
    vertex -115.28830942833957 544.8942766895165 4.599999999999999
    vertex -115.28830942833957 542.9470457799116 4.976846414715622
    vertex -115.28830942833957 543.02194572844 5.349925219923874
  endloop
endfacet
facet normal -1.0 -2.2380087318121104e-17 -2.067148387274424e-15
  outer loop
    vertex -115.28830942833957 544.8942766895165 4.599999999999999
    vertex -115.28830942833957 543.02194572844 5.349925219923874
    vertex -115.28830942833957 543.1187158452976 5.717937912189365
  endloop
endfacet
facet normal -1.0 -2.2380087318121104e-17 -2.067148387274424e-15
  outer loop
    vertex -115.28830942833957 544.8942766895165 4.599999999999999
    vertex -115.28830942833957 543.1187158452976 5.717937912189365
    vertex -115.28830942833957 543.2370193214048 6.0796036207188475
  endloop
endfacet
facet normal -1.0 -2.2380087318121104e-17 -2.067148387274424e-15
  outer loop
    vertex -115.28830942833957 544.8942766895165 4.599999999999999
    vertex -115.28830942833957 543.2370193214048 6.0796036207188475
    vertex -115.28830942833957 543.3764444006711 6.433663565441109
  endloop
endfacet
facet normal -1.0 -2.2380087318121104e-17 -2.067148387274424e-15
  outer loop
    vertex -115.28830942833957 544.8942766895165 4.599999999999999
    vertex -115.28830942833957 543.3764444006711 6.433663565441109
    vertex -115.28830942833957 543.5365058131164 6.778885438199979
  endloop
endfacet
facet normal -1.0 -2.2380087318121104e-17 -2.067148387274424e-15
  outer loop
    vertex -115.28830942833957 544.8942766895165 4.599999999999999
    vertex -115.28830942833957 543.5365058131164 6.778885438199979
    vertex -115.28830942833957 543.7166464638563 7.1140676918116155
  endloop
endfacet
facet normal -1.0 -2.2380087318121104e-17 -2.067148387274424e-15
  outer loop
    vertex -115.28830942833957 544.8942766895165 4.599999999999999
    vertex -115.28830942833957 543.7166464638563 7.1140676918116155
    vertex -115.28830942833957 543.9162393720743 7.438043722058041
  endloop
endfacet
facet normal -1.0 -2.2380087318121104e-17 -2.067148387274424e-15
  outer loop
    vertex -115.28830942833957 544.8942766895165 4.599999999999999
    vertex -115.28830942833957 543.9162393720743 7.438043722058041
    vertex -115.28830942833957 544.1345898532336 7.74968592806141
  endloop
endfacet
facet normal -1.0 -2.2380087318121104e-17 -2.067148387274424e-15
  outer loop
    vertex -115.28830942833957 544.8942766895165 4.599999999999999
    vertex -115.28830942833957 544.1345898532336 7.74968592806141
    vertex -115.28830942833957 544.3709379369313 8.047909636906894
  endloop
endfacet
facet normal -1.0 -2.2380087318121104e-17 -2.067148387274424e-15
  outer loop
    vertex -115.28830942833957 544.8942766895165 4.599999999999999
    vertex -115.28830942833957 544.3709379369313 8.047909636906894
    vertex -115.28830942833957 544.6244610119811 8.331676878854472
  endloop
endfacet
facet normal -1.0 -2.2380087318121104e-17 -2.067148387274424e-15
  outer loop
    vertex -115.28830942833957 544.8942766895165 4.599999999999999
    vertex -115.28830942833957 544.6244610119811 8.331676878854472
    vertex -115.28830942833957 544.8942766895165 8.599999999999998
  endloop
endfacet
facet normal -1.0 -2.2380087318121104e-17 -2.067148387274424e-15
  outer loop
    vertex -115.28830942833957 550.8942766895165 3.599999999999999
    vertex -115.28830942833957 544.8942766895165 4.599999999999999
    vertex -115.28830942833957 560.8942766895163 4.599999999999999
  endloop
endfacet
facet normal -1.0 -2.2380087318121104e-17 -2.067148387274424e-15
  outer loop
    vertex -115.28830942833957 550.8942766895165 3.599999999999999
    vertex -115.28830942833957 560.8942766895163 4.599999999999999
    vertex -115.28830942833957 552.2942766895164 3.599999999999999
  endloop
endfacet
facet normal -1.0 -2.2380087318121104e-17 -2.067148387274424e-15
  outer loop
    vertex -115.28830942833957 550.8942766895165 3.599999999999999
    vertex -115.28830942833957 552.2942766895164 3.599999999999999
    vertex -115.28830942833957 550.8942766895165 2.0
  endloop
endfacet
facet normal -1.0 -2.2380087318121104e-17 -2.067148387274424e-15
  outer loop
    vertex -115.28830942833957 550.8942766895165 2.0
    vertex -115.28830942833957 552.2942766895164 3.599999999999999
    vertex -115.28830942833956 550.8942766895165 0.0
  endloop
endfacet
facet normal -1.0 -2.2380087318121104e-17 -2.067148387274424e-15
  outer loop
    vertex -115.28830942833956 550.8942766895165 0.0
    vertex -115.28830942833957 552.2942766895164 3.599999999999999
    vertex -115.28830942833956 551.5942766895164 0.0
  endloop
endfacet
facet normal -1.0 -2.2380087318121104e-17 -2.067148387274424e-15
  outer loop
    vertex -115.28830942833957 552.2942766895164 3.599999999999999
    vertex -115.28830942833957 560.8942766895163 4.599999999999999
    vertex -115.28830942833957 553.4942766895164 3.599999999999999
  endloop
endfacet
facet normal -1.0 -2.2380087318121104e-17 -2.067148387274424e-15
  outer loop
    vertex -115.28830942833957 553.4942766895164 3.599999999999999
    vertex -115.28830942833957 560.8942766895163 4.599999999999999
    vertex -115.28830942833957 554.8942766895163 3.599999999999999
  endloop
endfacet
facet normal -1.0 -2.2380087318121104e-17 -2.067148387274424e-15
  outer loop
    vertex -115.28830942833957 553.4942766895164 3.599999999999999
    vertex -115.28830942833957 554.8942766895163 3.599999999999999
    vertex -115.28830942833957 553.4942766895164 1.9999999999999991
  endloop
endfacet
facet normal -1.0 -2.2380087318121104e-17 -2.067148387274424e-15
  outer loop
    vertex -115.28830942833957 553.4942766895164 1.9999999999999991
    vertex -115.28830942833957 554.8942766895163 3.599999999999999
    vertex -115.28830942833956 554.1942766895164 0.0
  endloop
endfacet
facet normal -1.0 -2.2380087318121104e-17 -2.067148387274424e-15
  outer loop
    vertex -115.28830942833957 554.8942766895163 3.599999999999999
    vertex -115.28830942833957 560.8942766895163 4.599999999999999
    vertex -115.28830942833957 562.8942766895163 3.599999999999999
  endloop
endfacet
facet normal -1.0 -2.2380087318121104e-17 -2.067148387274424e-15
  outer loop
    vertex -115.28830942833957 562.8942766895163 3.599999999999999
    vertex -115.28830942833957 560.8942766895163 4.599999999999999
    vertex -115.28830942833957 561.1640923670517 8.331676878854461
  endloop
endfacet
facet normal -1.0 -2.2380087318121104e-17 -2.067148387274424e-15
  outer loop
    vertex -115.28830942833957 562.8942766895163 3.599999999999999
    vertex -115.28830942833957 561.1640923670517 8.331676878854461
    vertex -115.28830942833957 561.4176154421014 8.047909636906878
  endloop
endfacet
facet normal -1.0 -2.2380087318121104e-17 -2.067148387274424e-15
  outer loop
    vertex -115.28830942833957 562.8942766895163 3.599999999999999
    vertex -115.28830942833957 561.4176154421014 8.047909636906878
    vertex -115.28830942833957 561.6539635257992 7.749685928061396
  endloop
endfacet
facet normal -1.0 -2.2380087318121104e-17 -2.067148387274424e-15
  outer loop
    vertex -115.28830942833957 562.8942766895163 3.599999999999999
    vertex -115.28830942833957 561.6539635257992 7.749685928061396
    vertex -115.28830942833957 561.8723140069585 7.438043722058026
  endloop
endfacet
facet normal -1.0 -2.2380087318121104e-17 -2.067148387274424e-15
  outer loop
    vertex -115.28830942833957 562.8942766895163 3.599999999999999
    vertex -115.28830942833957 561.8723140069585 7.438043722058026
    vertex -115.28830942833957 562.0719069151764 7.114067691811601
  endloop
endfacet
facet normal -1.0 -2.2380087318121104e-17 -2.067148387274424e-15
  outer loop
    vertex -115.28830942833957 562.8942766895163 3.599999999999999
    vertex -115.28830942833957 562.0719069151764 7.114067691811601
    vertex -115.28830942833957 562.2520475659163 6.778885438199966
  endloop
endfacet
facet normal -1.0 -2.2380087318121104e-17 -2.067148387274424e-15
  outer loop
    vertex -115.28830942833957 562.8942766895163 3.599999999999999
    vertex -115.28830942833957 562.2520475659163 6.778885438199966
    vertex -115.28830942833957 562.4121089783617 6.4336635654410985
  endloop
endfacet
facet normal -1.0 -2.2380087318121104e-17 -2.067148387274424e-15
  outer loop
    vertex -115.28830942833957 562.8942766895163 3.599999999999999
    vertex -115.28830942833957 562.4121089783617 6.4336635654410985
    vertex -115.28830942833957 562.551534057628 6.079603620718836
  endloop
endfacet
facet normal -1.0 -2.2380087318121104e-17 -2.067148387274424e-15
  outer loop
    vertex -115.28830942833957 562.8942766895163 3.599999999999999
    vertex -115.28830942833957 562.551534057628 6.079603620718836
    vertex -115.28830942833957 562.6698375337352 5.717937912189356
  endloop
endfacet
facet normal -1.0 -2.2380087318121104e-17 -2.067148387274424e-15
  outer loop
    vertex -115.28830942833957 562.8942766895163 3.599999999999999
    vertex -115.28830942833957 562.6698375337352 5.717937912189356
    vertex -115.28830942833957 562.7666076505928 5.3499252199238665
  endloop
endfacet
facet normal -1.0 -2.2380087318121104e-17 -2.067148387274424e-15
  outer loop
    vertex -115.28830942833957 562.8942766895163 3.599999999999999
    vertex -115.28830942833957 562.7666076505928 5.3499252199238665
    vertex -115.28830942833957 562.8415075991212 4.9768464147156175
  endloop
endfacet
facet normal -1.0 -2.2380087318121104e-17 -2.067148387274424e-15
  outer loop
    vertex -115.28830942833957 562.8942766895163 3.599999999999999
    vertex -115.28830942833957 562.8415075991212 4.9768464147156175
    vertex -115.28830942833957 562.8942766895163 4.599999999999999
  endloop
endfacet
facet normal -1.0 -2.2380087318121104e-17 -2.067148387274424e-15
  outer loop
    vertex -115.28830942833957 554.8942766895163 3.599999999999999
    vertex -115.28830942833956 554.8942766895163 0.0
    vertex -115.28830942833956 554.1942766895164 0.0
  endloop
endfacet
facet normal -1.0 -2.2380087318121104e-17 -2.067148387274424e-15
  outer loop
    vertex -115.28830942833956 554.8942766895163 0.0
    vertex -115.28830942833957 554.8942766895163 3.599999999999999
    vertex -115.28830942833957 554.8942766895163 1.9999999999999991
  endloop
endfacet
facet normal -1.0 -2.2380087318121104e-17 -2.067148387274424e-15
  outer loop
    vertex -115.28830942833956 554.8942766895163 0.0
    vertex -115.28830942833957 554.8942766895163 1.9999999999999991
    vertex -115.28830942833956 555.8942766895165 0.9999999999999992
  endloop
endfacet
facet normal -1.0 -2.2380087318121104e-17 -2.067148387274424e-15
  outer loop
    vertex -115.28830942833957 552.2942766895164 2.0
    vertex -115.28830942833956 551.5942766895164 0.0
    vertex -115.28830942833957 552.2942766895164 3.599999999999999
  endloop
endfacet
facet normal 1.978439161425534e-18 -0.7071067811865323 0.7071067811865628
  outer loop
    vertex -115.28830942833956 549.8942766895163 1.0000000000000002
    vertex -105.28830942833957 550.8942766895165 2.0
    vertex -115.28830942833957 550.8942766895165 2.0
  endloop
endfacet
facet normal 1.978439161425534e-18 -0.7071067811865323 0.7071067811865628
  outer loop
    vertex -105.28830942833957 550.8942766895165 2.0
    vertex -115.28830942833956 549.8942766895163 1.0000000000000002
    vertex -105.28830942833957 549.8942766895163 1.0000000000000002
  endloop
endfacet
facet normal -0.0 -0.7071067811865324 -0.7071067811865628
  outer loop
    vertex -105.28830942833957 550.8942766895165 0.0
    vertex -115.28830942833956 549.8942766895163 1.0000000000000002
    vertex -115.28830942833956 550.8942766895165 0.0
  endloop
endfacet
facet normal -0.0 -0.7071067811865324 -0.7071067811865628
  outer loop
    vertex -115.28830942833956 549.8942766895163 1.0000000000000002
    vertex -105.28830942833957 550.8942766895165 0.0
    vertex -105.28830942833957 549.8942766895163 1.0000000000000002
  endloop
endfacet
facet normal 5.639932965095806e-15 8.057047092993757e-14 -1.0
  outer loop
    vertex -105.2883094283396 551.5942766895164 1.127986593019159e-13
    vertex -115.28830942833956 550.8942766895165 0.0
    vertex -115.28830942833956 551.5942766895164 0.0
  endloop
endfacet
facet normal 5.639932965095806e-15 8.057047092993757e-14 -1.0
  outer loop
    vertex -115.28830942833956 550.8942766895165 0.0
    vertex -105.2883094283396 551.5942766895164 1.127986593019159e-13
    vertex -105.28830942833957 550.8942766895165 0.0
  endloop
endfacet
facet normal 0.0 0.7071067811865319 -0.7071067811865631
  outer loop
    vertex -105.28830942833957 555.8942766895165 0.9999999999999992
    vertex -115.28830942833956 554.8942766895163 0.0
    vertex -115.28830942833956 555.8942766895165 0.9999999999999992
  endloop
endfacet
facet normal 0.0 0.7071067811865319 -0.7071067811865631
  outer loop
    vertex -115.28830942833956 554.8942766895163 0.0
    vertex -105.28830942833957 555.8942766895165 0.9999999999999992
    vertex -105.28830942833957 554.8942766895163 0.0
  endloop
endfacet
facet normal -0.0 1.0 -0.0
  outer loop
    vertex -115.28830942833957 562.8942766895163 4.599999999999999
    vertex -105.28830942833957 562.8942766895163 3.599999999999999
    vertex -115.28830942833957 562.8942766895163 3.599999999999999
  endloop
endfacet
facet normal -0.0 1.0 -0.0
  outer loop
    vertex -105.28830942833957 562.8942766895163 3.599999999999999
    vertex -115.28830942833957 562.8942766895163 4.599999999999999
    vertex -105.28830942833957 562.8942766895163 4.599999999999999
  endloop
endfacet
facet normal 0.0 -1.0 0.0
  outer loop
    vertex -105.28830942833957 553.4942766895164 3.599999999999999
    vertex -115.28830942833957 553.4942766895164 1.9999999999999991
    vertex -105.28830942833957 553.4942766895164 1.9999999999999991
  endloop
endfacet
facet normal 0.0 -1.0 0.0
  outer loop
    vertex -115.28830942833957 553.4942766895164 1.9999999999999991
    vertex -105.28830942833957 553.4942766895164 3.599999999999999
    vertex -115.28830942833957 553.4942766895164 3.599999999999999
  endloop
endfacet
facet normal 0.0 0.0 -1.0
  outer loop
    vertex -105.28830942833957 562.8942766895163 3.599999999999999
    vertex -115.28830942833957 554.8942766895163 3.599999999999999
    vertex -115.28830942833957 562.8942766895163 3.599999999999999
  endloop
endfacet
facet normal 0.0 0.0 -1.0
  outer loop
    vertex -115.28830942833957 554.8942766895163 3.599999999999999
    vertex -105.28830942833957 562.8942766895163 3.599999999999999
    vertex -105.28830942833957 554.8942766895163 3.599999999999999
  endloop
endfacet
facet normal 1.0 -2.2187408235687947e-17 2.8911693907712584e-15
  outer loop
    vertex -105.28830942833957 550.8942766895165 0.0
    vertex -105.28830942833957 550.8942766895165 2.0
    vertex -105.28830942833957 549.8942766895163 1.0000000000000002
  endloop
endfacet
facet normal 1.0 -2.2187408235687947e-17 2.8911693907712584e-15
  outer loop
    vertex -105.28830942833957 550.8942766895165 2.0
    vertex -105.28830942833957 550.8942766895165 0.0
    vertex -105.2883094283396 551.5942766895164 1.127986593019159e-13
  endloop
endfacet
facet normal 1.0 -2.2187408235687947e-17 2.8911693907712584e-15
  outer loop
    vertex -105.28830942833957 550.8942766895165 2.0
    vertex -105.2883094283396 551.5942766895164 1.127986593019159e-13
    vertex -105.28830942833957 550.8942766895165 3.599999999999999
  endloop
endfacet
facet normal 1.0 -2.2187408235687947e-17 2.8911693907712584e-15
  outer loop
    vertex -105.2883094283396 554.1942766895164 1.127986593019159e-13
    vertex -105.28830942833957 553.4942766895164 3.599999999999999
    vertex -105.28830942833957 553.4942766895164 1.9999999999999991
  endloop
endfacet
facet normal 1.0 -2.2187408235687947e-17 2.8911693907712584e-15
  outer loop
    vertex -105.28830942833957 555.8942766895165 0.9999999999999992
    vertex -105.28830942833957 554.8942766895163 1.9999999999999991
    vertex -105.28830942833957 554.8942766895163 0.0
  endloop
endfacet
facet normal 1.0 -2.2187408235687947e-17 2.8911693907712584e-15
  outer loop
    vertex -105.28830942833957 550.8942766895165 3.599999999999999
    vertex -105.28830942833957 542.8942766895165 4.599999999999999
    vertex -105.28830942833957 542.8942766895165 3.599999999999999
  endloop
endfacet
facet normal 1.0 -2.2187408235687947e-17 2.8911693907712584e-15
  outer loop
    vertex -105.28830942833957 542.8942766895165 4.599999999999999
    vertex -105.28830942833957 550.8942766895165 3.599999999999999
    vertex -105.2883094283396 544.8942766895165 4.599999999999999
  endloop
endfacet
facet normal 1.0 -2.2187408235687947e-17 2.8911693907712584e-15
  outer loop
    vertex -105.28830942833957 542.8942766895165 4.599999999999999
    vertex -105.2883094283396 544.8942766895165 4.599999999999999
    vertex -105.2883094283396 542.9470457799116 4.976846414715622
  endloop
endfacet
facet normal 1.0 -2.2187408235687947e-17 2.8911693907712584e-15
  outer loop
    vertex -105.2883094283396 542.9470457799116 4.976846414715622
    vertex -105.2883094283396 544.8942766895165 4.599999999999999
    vertex -105.2883094283396 543.02194572844 5.349925219923874
  endloop
endfacet
facet normal 1.0 -2.2187408235687947e-17 2.8911693907712584e-15
  outer loop
    vertex -105.2883094283396 543.02194572844 5.349925219923874
    vertex -105.2883094283396 544.8942766895165 4.599999999999999
    vertex -105.2883094283396 543.1187158452976 5.717937912189365
  endloop
endfacet
facet normal 1.0 -2.2187408235687947e-17 2.8911693907712584e-15
  outer loop
    vertex -105.2883094283396 543.1187158452976 5.717937912189365
    vertex -105.2883094283396 544.8942766895165 4.599999999999999
    vertex -105.2883094283396 543.2370193214048 6.0796036207188475
  endloop
endfacet
facet normal 1.0 -2.2187408235687947e-17 2.8911693907712584e-15
  outer loop
    vertex -105.2883094283396 543.2370193214048 6.0796036207188475
    vertex -105.2883094283396 544.8942766895165 4.599999999999999
    vertex -105.2883094283396 543.3764444006711 6.433663565441109
  endloop
endfacet
facet normal 1.0 -2.2187408235687947e-17 2.8911693907712584e-15
  outer loop
    vertex -105.2883094283396 543.3764444006711 6.433663565441109
    vertex -105.2883094283396 544.8942766895165 4.599999999999999
    vertex -105.2883094283396 543.5365058131164 6.778885438199979
  endloop
endfacet
facet normal 1.0 -2.2187408235687947e-17 2.8911693907712584e-15
  outer loop
    vertex -105.2883094283396 543.5365058131164 6.778885438199979
    vertex -105.2883094283396 544.8942766895165 4.599999999999999
    vertex -105.2883094283396 543.7166464638563 7.1140676918116155
  endloop
endfacet
facet normal 1.0 -2.2187408235687947e-17 2.8911693907712584e-15
  outer loop
    vertex -105.2883094283396 543.7166464638563 7.1140676918116155
    vertex -105.2883094283396 544.8942766895165 4.599999999999999
    vertex -105.2883094283396 543.9162393720743 7.438043722058041
  endloop
endfacet
facet normal 1.0 -2.2187408235687947e-17 2.8911693907712584e-15
  outer loop
    vertex -105.2883094283396 543.9162393720743 7.438043722058041
    vertex -105.2883094283396 544.8942766895165 4.599999999999999
    vertex -105.2883094283396 544.1345898532336 7.74968592806141
  endloop
endfacet
facet normal 1.0 -2.2187408235687947e-17 2.8911693907712584e-15
  outer loop
    vertex -105.2883094283396 544.1345898532336 7.74968592806141
    vertex -105.2883094283396 544.8942766895165 4.599999999999999
    vertex -105.2883094283396 544.3709379369313 8.047909636906894
  endloop
endfacet
facet normal 1.0 -2.2187408235687947e-17 2.8911693907712584e-15
  outer loop
    vertex -105.2883094283396 544.3709379369313 8.047909636906894
    vertex -105.2883094283396 544.8942766895165 4.599999999999999
    vertex -105.2883094283396 544.6244610119811 8.331676878854472
  endloop
endfacet
facet normal 1.0 -2.2187408235687947e-17 2.8911693907712584e-15
  outer loop
    vertex -105.2883094283396 544.8942766895165 4.599999999999999
    vertex -105.28830942833957 550.8942766895165 3.599999999999999
    vertex -105.2883094283396 560.8942766895163 4.599999999999999
  endloop
endfacet
facet normal 1.0 -2.2187408235687947e-17 2.8911693907712584e-15
  outer loop
    vertex -105.2883094283396 560.8942766895163 4.599999999999999
    vertex -105.28830942833957 550.8942766895165 3.599999999999999
    vertex -105.28830942833957 552.2942766895164 3.599999999999999
  endloop
endfacet
facet normal 1.0 -2.2187408235687947e-17 2.8911693907712584e-15
  outer loop
    vertex -105.28830942833957 552.2942766895164 3.599999999999999
    vertex -105.28830942833957 550.8942766895165 3.599999999999999
    vertex -105.2883094283396 551.5942766895164 1.127986593019159e-13
  endloop
endfacet
facet normal 1.0 -2.2187408235687947e-17 2.8911693907712584e-15
  outer loop
    vertex -105.28830942833957 552.2942766895164 3.599999999999999
    vertex -105.2883094283396 551.5942766895164 1.127986593019159e-13
    vertex -105.28830942833957 552.2942766895164 2.0
  endloop
endfacet
facet normal 1.0 -2.2187408235687947e-17 2.8911693907712584e-15
  outer loop
    vertex -105.2883094283396 560.8942766895163 4.599999999999999
    vertex -105.28830942833957 552.2942766895164 3.599999999999999
    vertex -105.28830942833957 553.4942766895164 3.599999999999999
  endloop
endfacet
facet normal 1.0 -2.2187408235687947e-17 2.8911693907712584e-15
  outer loop
    vertex -105.2883094283396 560.8942766895163 4.599999999999999
    vertex -105.28830942833957 553.4942766895164 3.599999999999999
    vertex -105.28830942833957 554.8942766895163 3.599999999999999
  endloop
endfacet
facet normal 1.0 -2.2187408235687947e-17 2.8911693907712584e-15
  outer loop
    vertex -105.28830942833957 554.8942766895163 3.599999999999999
    vertex -105.28830942833957 553.4942766895164 3.599999999999999
    vertex -105.2883094283396 554.1942766895164 1.127986593019159e-13
  endloop
endfacet
facet normal 1.0 -2.2187408235687947e-17 2.8911693907712584e-15
  outer loop
    vertex -105.28830942833957 554.8942766895163 3.599999999999999
    vertex -105.2883094283396 554.1942766895164 1.127986593019159e-13
    vertex -105.28830942833957 554.8942766895163 0.0
  endloop
endfacet
facet normal 1.0 -2.2187408235687947e-17 2.8911693907712584e-15
  outer loop
    vertex -105.28830942833957 554.8942766895163 3.599999999999999
    vertex -105.28830942833957 554.8942766895163 0.0
    vertex -105.28830942833957 554.8942766895163 1.9999999999999991
  endloop
endfacet
facet normal 1.0 -2.2187408235687947e-17 2.8911693907712584e-15
  outer loop
    vertex -105.2883094283396 560.8942766895163 4.599999999999999
    vertex -105.28830942833957 554.8942766895163 3.599999999999999
    vertex -105.28830942833957 562.8942766895163 3.599999999999999
  endloop
endfacet
facet normal 1.0 -2.2187408235687947e-17 2.8911693907712584e-15
  outer loop
    vertex -105.2883094283396 560.8942766895163 4.599999999999999
    vertex -105.28830942833957 562.8942766895163 3.599999999999999
    vertex -105.2883094283396 560.8942766895163 8.599999999999998
  endloop
endfacet
facet normal 1.0 -2.2187408235687947e-17 2.8911693907712584e-15
  outer loop
    vertex -105.2883094283396 560.8942766895163 8.599999999999998
    vertex -105.28830942833957 562.8942766895163 3.599999999999999
    vertex -105.2883094283396 561.1640923670517 8.331676878854461
  endloop
endfacet
facet normal 1.0 -2.2187408235687947e-17 2.8911693907712584e-15
  outer loop
    vertex -105.2883094283396 561.1640923670517 8.331676878854461
    vertex -105.28830942833957 562.8942766895163 3.599999999999999
    vertex -105.2883094283396 561.4176154421014 8.047909636906878
  endloop
endfacet
facet normal 1.0 -2.2187408235687947e-17 2.8911693907712584e-15
  outer loop
    vertex -105.2883094283396 561.4176154421014 8.047909636906878
    vertex -105.28830942833957 562.8942766895163 3.599999999999999
    vertex -105.2883094283396 561.6539635257992 7.749685928061396
  endloop
endfacet
facet normal 1.0 -2.2187408235687947e-17 2.8911693907712584e-15
  outer loop
    vertex -105.2883094283396 561.6539635257992 7.749685928061396
    vertex -105.28830942833957 562.8942766895163 3.599999999999999
    vertex -105.2883094283396 561.8723140069585 7.438043722058026
  endloop
endfacet
facet normal 1.0 -2.2187408235687947e-17 2.8911693907712584e-15
  outer loop
    vertex -105.2883094283396 561.8723140069585 7.438043722058026
    vertex -105.28830942833957 562.8942766895163 3.599999999999999
    vertex -105.2883094283396 562.0719069151764 7.114067691811601
  endloop
endfacet
facet normal 1.0 -2.2187408235687947e-17 2.8911693907712584e-15
  outer loop
    vertex -105.2883094283396 562.0719069151764 7.114067691811601
    vertex -105.28830942833957 562.8942766895163 3.599999999999999
    vertex -105.2883094283396 562.2520475659163 6.778885438199966
  endloop
endfacet
facet normal 1.0 -2.2187408235687947e-17 2.8911693907712584e-15
  outer loop
    vertex -105.2883094283396 562.2520475659163 6.778885438199966
    vertex -105.28830942833957 562.8942766895163 3.599999999999999
    vertex -105.2883094283396 562.4121089783617 6.4336635654410985
  endloop
endfacet
facet normal 1.0 -2.2187408235687947e-17 2.8911693907712584e-15
  outer loop
    vertex -105.2883094283396 562.4121089783617 6.4336635654410985
    vertex -105.28830942833957 562.8942766895163 3.599999999999999
    vertex -105.2883094283396 562.551534057628 6.079603620718836
  endloop
endfacet
facet normal 1.0 -2.2187408235687947e-17 2.8911693907712584e-15
  outer loop
    vertex -105.2883094283396 562.551534057628 6.079603620718836
    vertex -105.28830942833957 562.8942766895163 3.599999999999999
    vertex -105.2883094283396 562.6698375337352 5.717937912189356
  endloop
endfacet
facet normal 1.0 -2.2187408235687947e-17 2.8911693907712584e-15
  outer loop
    vertex -105.2883094283396 562.6698375337352 5.717937912189356
    vertex -105.28830942833957 562.8942766895163 3.599999999999999
    vertex -105.2883094283396 562.7666076505928 5.3499252199238665
  endloop
endfacet
facet normal 1.0 -2.2187408235687947e-17 2.8911693907712584e-15
  outer loop
    vertex -105.2883094283396 562.7666076505928 5.3499252199238665
    vertex -105.28830942833957 562.8942766895163 3.599999999999999
    vertex -105.2883094283396 562.8415075991212 4.9768464147156175
  endloop
endfacet
facet normal 1.0 -2.2187408235687947e-17 2.8911693907712584e-15
  outer loop
    vertex -105.2883094283396 562.8415075991212 4.9768464147156175
    vertex -105.28830942833957 562.8942766895163 3.599999999999999
    vertex -105.28830942833957 562.8942766895163 4.599999999999999
  endloop
endfacet
facet normal 1.0 -2.2187408235687947e-17 2.8911693907712584e-15
  outer loop
    vertex -105.2883094283396 544.8942766895165 4.599999999999999
    vertex -105.2883094283396 544.8942766895165 8.599999999999998
    vertex -105.2883094283396 544.6244610119811 8.331676878854472
  endloop
endfacet
facet normal 1.0 -2.2187408235687947e-17 2.8911693907712584e-15
  outer loop
    vertex -105.2883094283396 544.8942766895165 8.599999999999998
    vertex -105.2883094283396 544.8942766895165 4.599999999999999
    vertex -105.2883094283396 545.9942766895165 6.599999999999999
  endloop
endfacet
facet normal 1.0 -2.2187408235687947e-17 2.8911693907712584e-15
  outer loop
    vertex -105.2883094283396 544.8942766895165 8.599999999999998
    vertex -105.2883094283396 545.9942766895165 6.599999999999999
    vertex -105.2883094283396 560.8942766895163 8.599999999999998
  endloop
endfacet
facet normal 1.0 -2.2187408235687947e-17 2.8911693907712584e-15
  outer loop
    vertex -105.2883094283396 560.8942766895163 8.599999999999998
    vertex -105.2883094283396 545.9942766895165 6.599999999999999
    vertex -105.2883094283396 559.8942766895163 6.599999999999999
  endloop
endfacet
facet normal 1.0 -2.2187408235687947e-17 2.8911693907712584e-15
  outer loop
    vertex -105.2883094283396 560.8942766895163 8.599999999999998
    vertex -105.2883094283396 559.8942766895163 6.599999999999999
    vertex -105.2883094283396 560.8942766895163 4.599999999999999
  endloop
endfacet
facet normal 0.0 0.0 -1.0
  outer loop
    vertex -105.28830942833957 550.8942766895165 3.599999999999999
    vertex -115.28830942833957 542.8942766895165 3.599999999999999
    vertex -115.28830942833957 550.8942766895165 3.599999999999999
  endloop
endfacet
facet normal 0.0 0.0 -1.0
  outer loop
    vertex -115.28830942833957 542.8942766895165 3.599999999999999
    vertex -105.28830942833957 550.8942766895165 3.599999999999999
    vertex -105.28830942833957 542.8942766895165 3.599999999999999
  endloop
endfacet
facet normal 0.0 -1.0 0.0
  outer loop
    vertex -105.28830942833957 550.8942766895165 3.599999999999999
    vertex -115.28830942833957 550.8942766895165 2.0
    vertex -105.28830942833957 550.8942766895165 2.0
  endloop
endfacet
facet normal 0.0 -1.0 0.0
  outer loop
    vertex -115.28830942833957 550.8942766895165 2.0
    vertex -105.28830942833957 550.8942766895165 3.599999999999999
    vertex -115.28830942833957 550.8942766895165 3.599999999999999
  endloop
endfacet
facet normal 0.0 0.0 -1.0
  outer loop
    vertex -105.28830942833957 553.4942766895164 3.599999999999999
    vertex -115.28830942833957 552.2942766895164 3.599999999999999
    vertex -115.28830942833957 553.4942766895164 3.599999999999999
  endloop
endfacet
facet normal 0.0 0.0 -1.0
  outer loop
    vertex -115.28830942833957 552.2942766895164 3.599999999999999
    vertex -105.28830942833957 553.4942766895164 3.599999999999999
    vertex -105.28830942833957 552.2942766895164 3.599999999999999
  endloop
endfacet
facet normal 0.0 1.0 0.0
  outer loop
    vertex -115.28830942833957 554.8942766895163 3.599999999999999
    vertex -105.28830942833957 554.8942766895163 1.9999999999999991
    vertex -115.28830942833957 554.8942766895163 1.9999999999999991
  endloop
endfacet
facet normal 0.0 1.0 0.0
  outer loop
    vertex -105.28830942833957 554.8942766895163 1.9999999999999991
    vertex -115.28830942833957 554.8942766895163 3.599999999999999
    vertex -105.28830942833957 554.8942766895163 3.599999999999999
  endloop
endfacet
facet normal 0.0 1.0 0.0
  outer loop
    vertex -115.28830942833957 552.2942766895164 3.599999999999999
    vertex -105.28830942833957 552.2942766895164 2.0
    vertex -115.28830942833957 552.2942766895164 2.0
  endloop
endfacet
facet normal 0.0 1.0 0.0
  outer loop
    vertex -105.28830942833957 552.2942766895164 2.0
    vertex -115.28830942833957 552.2942766895164 3.599999999999999
    vertex -105.28830942833957 552.2942766895164 3.599999999999999
  endloop
endfacet
facet normal -0.0 -0.0 1.0
  outer loop
    vertex -105.2883094283396 544.8942766895165 4.599999999999999
    vertex -115.28830942833957 560.8942766895163 4.599999999999999
    vertex -115.28830942833957 544.8942766895165 4.599999999999999
  endloop
endfacet
facet normal -0.0 -0.0 1.0
  outer loop
    vertex -115.28830942833957 560.8942766895163 4.599999999999999
    vertex -105.2883094283396 544.8942766895165 4.599999999999999
    vertex -105.2883094283396 560.8942766895163 4.599999999999999
  endloop
endfacet
facet normal 5.639932965095806e-15 -8.057047092993757e-14 -1.0
  outer loop
    vertex -105.28830942833957 554.8942766895163 0.0
    vertex -115.28830942833956 554.1942766895164 0.0
    vertex -115.28830942833956 554.8942766895163 0.0
  endloop
endfacet
facet normal 5.639932965095806e-15 -8.057047092993757e-14 -1.0
  outer loop
    vertex -115.28830942833956 554.1942766895164 0.0
    vertex -105.28830942833957 554.8942766895163 0.0
    vertex -105.2883094283396 554.1942766895164 1.127986593019159e-13
  endloop
endfacet
facet normal 0.0 -1.0 0.0
  outer loop
    vertex -105.28830942833957 542.8942766895165 4.599999999999999
    vertex -115.28830942833957 542.8942766895165 3.599999999999999
    vertex -105.28830942833957 542.8942766895165 3.599999999999999
  endloop
endfacet
facet normal 0.0 -1.0 0.0
  outer loop
    vertex -115.28830942833957 542.8942766895165 3.599999999999999
    vertex -105.28830942833957 542.8942766895165 4.599999999999999
    vertex -115.28830942833957 542.8942766895165 4.599999999999999
  endloop
endfacet
endsolid Development Mockup rev2
