solid Development Mockup rev2
facet normal 0.6087614280328538 5.247756117660881e-05 -0.7933533393044402
  outer loop
    vertex 101.54863176699199 350.27827477269216 671.5062786723037
    vertex 101.19658499853023 349.07830678162446 671.2360643122246
    vertex 101.19655023901116 350.27827493031174 671.2361170140226
  endloop
endfacet
facet normal 0.6087614280328538 5.247756117660881e-05 -0.7933533393044402
  outer loop
    vertex 101.19658499853023 349.07830678162446 671.2360643122246
    vertex 101.54863176699199 350.27827477269216 671.5062786723037
    vertex 101.54866652651106 349.07830662400494 671.5062259705056
  endloop
endfacet
facet normal 0.38268343143883937 5.1661375023569754e-05 0.9238795314505553
  outer loop
    vertex 101.54866652651106 349.07830662400494 668.5617156173273
    vertex 101.95863939022122 350.2782778295609 668.3918321973565
    vertex 101.54863176699199 350.27827477269216 668.5616629155293
  endloop
endfacet
facet normal 0.38268343143883937 5.1661375023569754e-05 0.9238795314505553
  outer loop
    vertex 101.95863939022122 350.2782778295609 668.3918321973565
    vertex 101.54866652651106 349.07830662400494 668.5617156173273
    vertex 101.95867414974028 349.0783096808737 668.3918848991545
  endloop
endfacet
facet normal -0.9238795324696616 -9.954850269185141e-06 -0.3826834323361029
  outer loop
    vertex 103.87087495228607 350.2783275425962 670.8840354861818
    vertex 104.0407404298432 349.0783714112938 670.4739751612634
    vertex 103.87090971180511 349.0783593939089 670.8839827843838
  endloop
endfacet
facet normal -0.9238795324696616 -9.954850269185141e-06 -0.3826834323361029
  outer loop
    vertex 104.0407404298432 349.0783714112938 670.4739751612634
    vertex 103.87087495228607 350.2783275425962 670.8840354861818
    vertex 104.04070567032416 350.278339559981 670.4740278630615
  endloop
endfacet
facet normal 0.9238795317352296 4.356925072346122e-05 -0.3826834317584358
  outer loop
    vertex 100.7565926217424 349.0783164790326 670.4739751612634
    vertex 100.92638858056839 350.2782782916782 670.8840354861819
    vertex 100.92642334008745 349.0783101429909 670.8839827843838
  endloop
endfacet
facet normal 0.9238795317352296 4.356925072346122e-05 -0.3826834317584358
  outer loop
    vertex 100.92638858056839 350.2782782916782 670.8840354861819
    vertex 100.7565926217424 349.0783164790326 670.4739751612634
    vertex 100.75655786222333 350.27828462771987 670.4740278630615
  endloop
endfacet
facet normal 2.8233518179904346e-05 -9.069108893765123e-05 -0.9999999954889975
  outer loop
    vertex 109.40576814724783 348.10968837401407 678.1322119010773
    vertex 97.70425959635607 346.9163681064932 678.1317320465188
    vertex 97.7042219589302 348.1096935754471 678.1318388366382
  endloop
endfacet
facet normal 2.8233518179904346e-05 -9.069108893765123e-05 -0.9999999954889975
  outer loop
    vertex 97.70425959635607 346.9163681064932 678.1317320465188
    vertex 109.40576814724783 348.10968837401407 678.1322119010773
    vertex 109.40581809934349 346.91630040887185 678.1324994255821
  endloop
endfacet
facet normal -0.6087614293535081 1.7209534284222114e-05 -0.7933533398400149
  outer loop
    vertex 103.60071329410691 350.27831514351794 671.2361170140226
    vertex 103.24866652584741 349.0783350590357 671.5062259705056
    vertex 103.24863176632837 350.2783032077229 671.5062786723037
  endloop
endfacet
facet normal -0.6087614293535081 1.7209534284222114e-05 -0.7933533398400149
  outer loop
    vertex 103.24866652584741 349.0783350590357 671.5062259705056
    vertex 103.60071329410691 350.27831514351794 671.2361170140226
    vertex 103.60074805362595 349.07834699483067 671.2360643122246
  endloop
endfacet
facet normal 4.185738052080396e-05 -0.9999999701000375 0.00024093128518456092
  outer loop
    vertex 109.40581809934349 346.91630040887185 678.1324994255821
    vertex 97.70441208272345 346.9162067846175 680.131946140322
    vertex 97.70425959635607 346.9163681064932 678.1317320465188
  endloop
endfacet
facet normal 4.185738052080396e-05 -0.9999999701000375 0.00024093128518456092
  outer loop
    vertex 97.70441208272345 346.9162067846175 680.131946140322
    vertex 109.40581809934349 346.91630040887185 678.1324994255821
    vertex 109.40601438650893 346.91742564934134 680.1317771841033
  endloop
endfacet
facet normal 0.3826834314388305 5.1661375002489096e-05 -0.9238795314505591
  outer loop
    vertex 101.95863939022122 350.2782778295609 671.6761093904764
    vertex 101.54866652651106 349.07830662400494 671.5062259705056
    vertex 101.54863176699199 350.27827477269216 671.5062786723037
  endloop
endfacet
facet normal 0.3826834314388305 5.1661375002489096e-05 -0.9238795314505591
  outer loop
    vertex 101.54866652651106 349.07830662400494 671.5062259705056
    vertex 101.95863939022122 350.2782778295609 671.6761093904764
    vertex 101.95867414974028 349.0783096808737 671.6760566886784
  endloop
endfacet
facet normal -6.202070714942969e-07 -0.9999999999998077 -1.183508802771646e-10
  outer loop
    vertex 109.00604962980108 349.0782568710963 667.8339707927204
    vertex 102.39866652562806 349.07835379298956 668.3339588030234
    vertex 97.70444425647368 349.0782408110666 667.8339715082085
  endloop
endfacet
facet normal -6.202070714942969e-07 -0.9999999999998077 -1.183508802771646e-10
  outer loop
    vertex 102.39866652562806 349.07835379298956 668.3339588030234
    vertex 109.00604962980108 349.0782568710963 667.8339707927204
    vertex 102.72705012746138 349.0784438945674 668.3771913211194
  endloop
endfacet
facet normal -6.202070714942969e-07 -0.9999999999998077 -1.183508802771646e-10
  outer loop
    vertex 102.72705012746138 349.0784438945674 668.3771913211194
    vertex 109.00604962980108 349.0782568710963 667.8339707927204
    vertex 103.24866652584737 349.0783350590357 668.5617156173273
  endloop
endfacet
facet normal -6.202070714942969e-07 -0.9999999999998077 -1.183508802771646e-10
  outer loop
    vertex 103.24866652584737 349.0783350590357 668.5617156173273
    vertex 109.00604962980108 349.0782568710963 667.8339707927204
    vertex 109.00604962980113 349.0782568710963 672.2339707951126
  endloop
endfacet
facet normal -6.202070714942969e-07 -0.9999999999998077 -1.183508802771646e-10
  outer loop
    vertex 103.24866652584737 349.0783350590357 668.5617156173273
    vertex 109.00604962980113 349.0782568710963 672.2339707951126
    vertex 103.60074805362588 349.07834699483067 668.8318772756085
  endloop
endfacet
facet normal -6.202070714942969e-07 -0.9999999999998077 -1.183508802771646e-10
  outer loop
    vertex 103.60074805362588 349.07834699483067 668.8318772756085
    vertex 109.00604962980113 349.0782568710963 672.2339707951126
    vertex 103.87090971180506 349.0783593939089 669.1839588034493
  endloop
endfacet
facet normal -6.202070714942969e-07 -0.9999999999998077 -1.183508802771646e-10
  outer loop
    vertex 103.87090971180506 349.0783593939089 669.1839588034493
    vertex 109.00604962980113 349.0782568710963 672.2339707951126
    vertex 104.04074042984313 349.0783714112938 669.5939664265695
  endloop
endfacet
facet normal -6.202070714942969e-07 -0.9999999999998077 -1.183508802771646e-10
  outer loop
    vertex 104.04074042984313 349.0783714112938 669.5939664265695
    vertex 109.00604962980113 349.0782568710963 672.2339707951126
    vertex 104.09866652496444 349.07838222802036 670.0339827848096
  endloop
endfacet
facet normal -6.202070714942969e-07 -0.9999999999998077 -1.183508802771646e-10
  outer loop
    vertex 104.09866652496444 349.07838222802036 670.0339827848096
    vertex 109.00604962980113 349.0782568710963 672.2339707951126
    vertex 104.0407404298432 349.0783714112938 670.4739751612634
  endloop
endfacet
facet normal -6.202070714942969e-07 -0.9999999999998077 -1.183508802771646e-10
  outer loop
    vertex 104.0407404298432 349.0783714112938 670.4739751612634
    vertex 109.00604962980113 349.0782568710963 672.2339707951126
    vertex 103.87090971180511 349.0783593939089 670.8839827843838
  endloop
endfacet
facet normal -6.202070714942969e-07 -0.9999999999998077 -1.183508802771646e-10
  outer loop
    vertex 103.87090971180511 349.0783593939089 670.8839827843838
    vertex 109.00604962980113 349.0782568710963 672.2339707951126
    vertex 103.60074805362595 349.07834699483067 671.2360643122246
  endloop
endfacet
facet normal -6.202070714942969e-07 -0.9999999999998077 -1.183508802771646e-10
  outer loop
    vertex 103.60074805362595 349.07834699483067 671.2360643122246
    vertex 109.00604962980113 349.0782568710963 672.2339707951126
    vertex 103.24866652584741 349.0783350590357 671.5062259705056
  endloop
endfacet
facet normal -6.202070714942969e-07 -0.9999999999998077 -1.183508802771646e-10
  outer loop
    vertex 103.24866652584741 349.0783350590357 671.5062259705056
    vertex 109.00604962980113 349.0782568710963 672.2339707951126
    vertex 102.72705012746141 349.0784438945674 671.6907502667136
  endloop
endfacet
facet normal -6.202070714942969e-07 -0.9999999999998077 -1.183508802771646e-10
  outer loop
    vertex 102.72705012746141 349.0784438945674 671.6907502667136
    vertex 109.00604962980113 349.0782568710963 672.2339707951126
    vertex 102.39866652562806 349.07835379298956 671.7339827848095
  endloop
endfacet
facet normal -6.202070714942969e-07 -0.9999999999998077 -1.183508802771646e-10
  outer loop
    vertex 102.39866652562806 349.07835379298956 671.7339827848095
    vertex 109.00604962980113 349.0782568710963 672.2339707951126
    vertex 97.70444425647366 349.0782408110666 672.2339703870765
  endloop
endfacet
facet normal -6.202070714942969e-07 -0.9999999999998077 -1.183508802771646e-10
  outer loop
    vertex 97.70444425647368 349.0782408110666 667.8339715082085
    vertex 101.19658499853023 349.07830678162446 668.8318772756085
    vertex 97.70444425647366 349.0782408110666 672.2339703870765
  endloop
endfacet
facet normal -6.202070714942969e-07 -0.9999999999998077 -1.183508802771646e-10
  outer loop
    vertex 101.19658499853023 349.07830678162446 668.8318772756085
    vertex 97.70444425647368 349.0782408110666 667.8339715082085
    vertex 101.54866652651106 349.07830662400494 668.5617156173273
  endloop
endfacet
facet normal -6.202070714942969e-07 -0.9999999999998077 -1.183508802771646e-10
  outer loop
    vertex 101.54866652651106 349.07830662400494 668.5617156173273
    vertex 97.70444425647368 349.0782408110666 667.8339715082085
    vertex 101.95867414974028 349.0783096808737 668.3918848991545
  endloop
endfacet
facet normal -6.202070714942969e-07 -0.9999999999998077 -1.183508802771646e-10
  outer loop
    vertex 101.95867414974028 349.0783096808737 668.3918848991545
    vertex 97.70444425647368 349.0782408110666 667.8339715082085
    vertex 102.39866652562806 349.07835379298956 668.3339588030234
  endloop
endfacet
facet normal -6.202070714942969e-07 -0.9999999999998077 -1.183508802771646e-10
  outer loop
    vertex 97.70444425647366 349.0782408110666 672.2339703870765
    vertex 101.19658499853023 349.07830678162446 668.8318772756085
    vertex 100.92642334008745 349.0783101429909 669.1839588034492
  endloop
endfacet
facet normal -6.202070714942969e-07 -0.9999999999998077 -1.183508802771646e-10
  outer loop
    vertex 97.70444425647366 349.0782408110666 672.2339703870765
    vertex 100.92642334008745 349.0783101429909 669.1839588034492
    vertex 100.7565926217424 349.0783164790326 669.5939664265695
  endloop
endfacet
facet normal -6.202070714942969e-07 -0.9999999999998077 -1.183508802771646e-10
  outer loop
    vertex 97.70444425647366 349.0782408110666 672.2339703870765
    vertex 100.7565926217424 349.0783164790326 669.5939664265695
    vertex 100.69866640701997 349.0782946874372 670.0339776611168
  endloop
endfacet
facet normal -6.202070714942969e-07 -0.9999999999998077 -1.183508802771646e-10
  outer loop
    vertex 97.70444425647366 349.0782408110666 672.2339703870765
    vertex 100.69866640701997 349.0782946874372 670.0339776611168
    vertex 100.7565926217424 349.0783164790326 670.4739751612634
  endloop
endfacet
facet normal -6.202070714942969e-07 -0.9999999999998077 -1.183508802771646e-10
  outer loop
    vertex 97.70444425647366 349.0782408110666 672.2339703870765
    vertex 100.7565926217424 349.0783164790326 670.4739751612634
    vertex 100.92642334008745 349.0783101429909 670.8839827843838
  endloop
endfacet
facet normal -6.202070714942969e-07 -0.9999999999998077 -1.183508802771646e-10
  outer loop
    vertex 97.70444425647366 349.0782408110666 672.2339703870765
    vertex 100.92642334008745 349.0783101429909 670.8839827843838
    vertex 101.19658499853023 349.07830678162446 671.2360643122246
  endloop
endfacet
facet normal -6.202070714942969e-07 -0.9999999999998077 -1.183508802771646e-10
  outer loop
    vertex 97.70444425647366 349.0782408110666 672.2339703870765
    vertex 101.19658499853023 349.07830678162446 671.2360643122246
    vertex 101.54866652651106 349.07830662400494 671.5062259705056
  endloop
endfacet
facet normal -6.202070714942969e-07 -0.9999999999998077 -1.183508802771646e-10
  outer loop
    vertex 97.70444425647366 349.0782408110666 672.2339703870765
    vertex 101.54866652651106 349.07830662400494 671.5062259705056
    vertex 101.95867414974028 349.0783096808737 671.6760566886784
  endloop
endfacet
facet normal -6.202070714942969e-07 -0.9999999999998077 -1.183508802771646e-10
  outer loop
    vertex 97.70444425647366 349.0782408110666 672.2339703870765
    vertex 101.95867414974028 349.0783096808737 671.6760566886784
    vertex 102.39866652562806 349.07835379298956 671.7339827848095
  endloop
endfacet
facet normal 0.1305261894613902 4.73245514530679e-05 -0.9914448606075258
  outer loop
    vertex 102.398631766109 350.27832194167684 671.7340354866076
    vertex 101.95867414974028 349.0783096808737 671.6760566886784
    vertex 101.95863939022122 350.2782778295609 671.6761093904764
  endloop
endfacet
facet normal 0.1305261894613902 4.73245514530679e-05 -0.9914448606075258
  outer loop
    vertex 101.95867414974028 349.0783096808737 671.6760566886784
    vertex 102.398631766109 350.27832194167684 671.7340354866076
    vertex 102.39866652562806 349.07835379298956 671.7339827848095
  endloop
endfacet
facet normal -0.33350208928277475 3.1744354371909854e-05 -0.9427493598175074
  outer loop
    vertex 103.24863176632837 350.2783032077229 671.5062786723037
    vertex 102.72705012746141 349.0784438945674 671.6907502667136
    vertex 102.72701536794236 350.27841204325466 671.6908029685117
  endloop
endfacet
facet normal -0.33350208928277475 3.1744354371909854e-05 -0.9427493598175074
  outer loop
    vertex 102.72705012746141 349.0784438945674 671.6907502667136
    vertex 103.24863176632837 350.2783032077229 671.5062786723037
    vertex 103.24866652584741 349.0783350590357 671.5062259705056
  endloop
endfacet
facet normal -0.9914478042927205 -2.8719302979404214e-05 0.1305038334239476
  outer loop
    vertex 104.09866652496444 349.07838222802036 670.0339827848096
    vertex 104.04070567032409 350.278339559981 669.5939137247715
    vertex 104.04074042984313 349.0783714112938 669.5939664265695
  endloop
endfacet
facet normal -0.9914478042927205 -2.8719302979404214e-05 0.1305038334239476
  outer loop
    vertex 104.04070567032409 350.278339559981 669.5939137247715
    vertex 104.09866652496444 349.07838222802036 670.0339827848096
    vertex 104.09863176544539 350.2783503767076 670.0340354866076
  endloop
endfacet
facet normal -0.9999999997577278 -2.20112753063697e-05 2.1960850878775886e-07
  outer loop
    vertex 97.70442444937363 348.12849961778545 667.8339715089023
    vertex 97.7042219589302 348.1096935754471 661.9361030586467
    vertex 97.70432291516619 347.61023518314164 664.9353832515477
  endloop
endfacet
facet normal -0.9999999997577278 -2.20112753063697e-05 2.1960850878775886e-07
  outer loop
    vertex 97.70435144875444 348.2788571972724 680.1317091954523
    vertex 97.70425959635607 346.9163681064932 678.1317320465188
    vertex 97.70441208272345 346.9162067846175 680.131946140322
  endloop
endfacet
facet normal -0.9999999997577278 -2.20112753063697e-05 2.1960850878775886e-07
  outer loop
    vertex 97.70425959635607 346.9163681064932 678.1317320465188
    vertex 97.70435144875444 348.2788571972724 680.1317091954523
    vertex 97.7042219589302 348.1096935754471 678.1318388366382
  endloop
endfacet
facet normal -0.9999999997577278 -2.20112753063697e-05 2.1960850878775886e-07
  outer loop
    vertex 97.7042219589302 348.1096935754471 678.1318388366382
    vertex 97.70435144875444 348.2788571972724 680.1317091954523
    vertex 97.70442444937365 348.12849961778545 672.2339703863827
  endloop
endfacet
facet normal -0.9999999997577278 -2.20112753063697e-05 2.1960850878775886e-07
  outer loop
    vertex 97.70442444937365 348.12849961778545 672.2339703863827
    vertex 97.70435144875444 348.2788571972724 680.1317091954523
    vertex 97.70444425647366 349.0782408110666 672.2339703870765
  endloop
endfacet
facet normal -0.9999999997577278 -2.20112753063697e-05 2.1960850878775886e-07
  outer loop
    vertex 97.70444425647366 349.0782408110666 672.2339703870765
    vertex 97.70435144875444 348.2788571972724 680.1317091954523
    vertex 97.70422530971905 350.2776266371318 679.1317235795233
  endloop
endfacet
facet normal -0.9999999997577278 -2.20112753063697e-05 2.1960850878775886e-07
  outer loop
    vertex 97.70444425647366 349.0782408110666 672.2339703870765
    vertex 97.70422530971905 350.2776266371318 679.1317235795233
    vertex 97.70444425647368 349.0782408110666 667.8339715082085
  endloop
endfacet
facet normal -0.9999999997577278 -2.20112753063697e-05 2.1960850878775886e-07
  outer loop
    vertex 97.70423938881959 346.91640415446375 661.9361918353478
    vertex 97.70433124121796 348.27889324524284 659.9362146864142
    vertex 97.70439187518697 346.91624283258795 659.9359777415445
  endloop
endfacet
facet normal -0.9999999997577278 -2.20112753063697e-05 2.1960850878775886e-07
  outer loop
    vertex 97.70433124121796 348.27889324524284 659.9362146864142
    vertex 97.70423938881959 346.91640415446375 661.9361918353478
    vertex 97.7042219589302 348.1096935754471 661.9361030586467
  endloop
endfacet
facet normal -0.9999999997577278 -2.20112753063697e-05 2.1960850878775886e-07
  outer loop
    vertex 97.70433124121796 348.27889324524284 659.9362146864142
    vertex 97.7042219589302 348.1096935754471 661.9361030586467
    vertex 97.70442444937363 348.12849961778545 667.8339715089023
  endloop
endfacet
facet normal -0.9999999997577278 -2.20112753063697e-05 2.1960850878775886e-07
  outer loop
    vertex 97.70433124121796 348.27889324524284 659.9362146864142
    vertex 97.70442444937363 348.12849961778545 667.8339715089023
    vertex 97.70444425647368 349.0782408110666 667.8339715082085
  endloop
endfacet
facet normal -0.9999999997577278 -2.20112753063697e-05 2.1960850878775886e-07
  outer loop
    vertex 97.70433124121796 348.27889324524284 659.9362146864142
    vertex 97.70444425647368 349.0782408110666 667.8339715082085
    vertex 97.70420510218257 350.27766268510226 660.9362003023433
  endloop
endfacet
facet normal -0.9999999997577278 -2.20112753063697e-05 2.1960850878775886e-07
  outer loop
    vertex 97.70420510218257 350.27766268510226 660.9362003023433
    vertex 97.70444425647368 349.0782408110666 667.8339715082085
    vertex 97.70422530971905 350.2776266371318 679.1317235795233
  endloop
endfacet
facet normal -0.9999999997577278 -2.20112753063697e-05 2.1960850878775886e-07
  outer loop
    vertex 97.70442444937365 348.12849961778545 672.2339703863827
    vertex 97.7043229151662 347.61023518314164 675.1325586437373
    vertex 97.7042219589302 348.1096935754471 678.1318388366382
  endloop
endfacet
facet normal -7.309604297917193e-06 -0.9864164676021345 -0.16426366728493888
  outer loop
    vertex 109.40586878731008 347.6102326830203 664.9350084953643
    vertex 97.7042219589302 348.1096935754471 661.9361030586467
    vertex 109.40576814724778 348.10968837401407 661.9357296867556
  endloop
endfacet
facet normal -7.309604297917193e-06 -0.9864164676021345 -0.16426366728493888
  outer loop
    vertex 97.7042219589302 348.1096935754471 661.9361030586467
    vertex 109.40586878731008 347.6102326830203 664.9350084953643
    vertex 97.70432291516619 347.61023518314164 664.9353832515477
  endloop
endfacet
facet normal 5.2997346964100166e-08 6.634323156790057e-10 0.9999999999999987
  outer loop
    vertex 109.40596965275053 348.1285157024166 667.8339707722221
    vertex 97.70444425647368 349.0782408110666 667.8339715082085
    vertex 97.70442444937363 348.12849961778545 667.8339715089023
  endloop
endfacet
facet normal 5.2997346964100166e-08 6.634323156790057e-10 0.9999999999999987
  outer loop
    vertex 97.70444425647368 349.0782408110666 667.8339715082085
    vertex 109.40596965275053 348.1285157024166 667.8339707722221
    vertex 109.00604962980108 349.0782568710963 667.8339707927204
  endloop
endfacet
facet normal 5.2997346964100166e-08 6.634323156790057e-10 0.9999999999999987
  outer loop
    vertex 109.00604962980108 349.0782568710963 667.8339707927204
    vertex 109.40596965275053 348.1285157024166 667.8339707722221
    vertex 109.40598156387146 348.27903112827767 667.833970771804
  endloop
endfacet
facet normal 1.95222037234912e-05 0.4473817335654942 -0.8943431019976712
  outer loop
    vertex 108.40542809221817 350.2781829217173 660.936432509194
    vertex 97.70433124121796 348.27889324524284 659.9362146864142
    vertex 97.70420510218257 350.27766268510226 660.9362003023433
  endloop
endfacet
facet normal 1.95222037234912e-05 0.4473817335654942 -0.8943431019976712
  outer loop
    vertex 97.70433124121796 348.27889324524284 659.9362146864142
    vertex 108.40542809221817 350.2781829217173 660.936432509194
    vertex 109.40595383019824 348.27884550673616 659.9364468932648
  endloop
endfacet
facet normal 0.9999999999877456 -2.681535667285504e-07 -4.943403578250739e-06
  outer loop
    vertex 109.40601438650889 346.91742564934134 659.9361644037297
    vertex 109.40576814724778 348.10968837401407 661.9357296867556
    vertex 109.40581809934342 346.91630040887185 661.9354421622509
  endloop
endfacet
facet normal 0.9999999999877456 -2.681535667285504e-07 -4.943403578250739e-06
  outer loop
    vertex 109.40576814724778 348.10968837401407 661.9357296867556
    vertex 109.40601438650889 346.91742564934134 659.9361644037297
    vertex 109.40595383019824 348.27884550673616 659.9364468932648
  endloop
endfacet
facet normal 0.9999999999877456 -2.681535667285504e-07 -4.943403578250739e-06
  outer loop
    vertex 109.40576814724778 348.10968837401407 661.9357296867556
    vertex 109.40595383019824 348.27884550673616 659.9364468932648
    vertex 109.40596965275053 348.1285157024166 667.8339707722221
  endloop
endfacet
facet normal 0.9999999999877456 -2.681535667285504e-07 -4.943403578250739e-06
  outer loop
    vertex 109.40596965275053 348.1285157024166 667.8339707722221
    vertex 109.40595383019824 348.27884550673616 659.9364468932648
    vertex 109.40598156387146 348.27903112827767 667.833970771804
  endloop
endfacet
facet normal 0.9999999999877456 -2.681535667285504e-07 -4.943403578250739e-06
  outer loop
    vertex 109.40596965275053 348.1285157024166 667.8339707722221
    vertex 109.40586878731008 347.6102326830203 664.9350084953643
    vertex 109.40576814724778 348.10968837401407 661.9357296867556
  endloop
endfacet
facet normal 0.6087614280328539 5.247756119972883e-05 0.7933533393044401
  outer loop
    vertex 101.19658499853023 349.07830678162446 668.8318772756085
    vertex 101.54863176699199 350.27827477269216 668.5616629155293
    vertex 101.19655023901116 350.27827493031174 668.8318245738103
  endloop
endfacet
facet normal 0.6087614280328539 5.247756119972883e-05 0.7933533393044401
  outer loop
    vertex 101.54863176699199 350.27827477269216 668.5616629155293
    vertex 101.19658499853023 349.07830678162446 668.8318772756085
    vertex 101.54866652651106 349.07830662400494 668.5617156173273
  endloop
endfacet
facet normal 3.0098435824022378e-05 0.00019067693240485388 -0.9999999813681958
  outer loop
    vertex 109.40595383019824 348.27884550673616 659.9364468932648
    vertex 97.70439187518697 346.91624283258795 659.9359777415445
    vertex 97.70433124121796 348.27889324524284 659.9362146864142
  endloop
endfacet
facet normal 3.0098435824022378e-05 0.00019067693240485388 -0.9999999813681958
  outer loop
    vertex 97.70439187518697 346.91624283258795 659.9359777415445
    vertex 109.40595383019824 348.27884550673616 659.9364468932648
    vertex 109.40601438650889 346.91742564934134 659.9361644037297
  endloop
endfacet
facet normal 0.13052618946139022 4.732455147515974e-05 0.9914448606075259
  outer loop
    vertex 101.95867414974028 349.0783096808737 668.3918848991545
    vertex 102.398631766109 350.27832194167684 668.3339061012254
    vertex 101.95863939022122 350.2782778295609 668.3918321973565
  endloop
endfacet
facet normal 0.13052618946139022 4.732455147515974e-05 0.9914448606075259
  outer loop
    vertex 102.398631766109 350.27832194167684 668.3339061012254
    vertex 101.95867414974028 349.0783096808737 668.3918848991545
    vertex 102.39866652562806 349.07835379298956 668.3339588030234
  endloop
endfacet
facet normal -0.3335020892827877 3.174435439835899e-05 0.942749359817503
  outer loop
    vertex 102.72705012746138 349.0784438945674 668.3771913211194
    vertex 103.24863176632833 350.2783032077229 668.5616629155293
    vertex 102.72701536794234 350.27841204325466 668.3771386193213
  endloop
endfacet
facet normal -0.3335020892827877 3.174435439835899e-05 0.942749359817503
  outer loop
    vertex 103.24863176632833 350.2783032077229 668.5616629155293
    vertex 102.72705012746138 349.0784438945674 668.3771913211194
    vertex 103.24866652584737 349.0783350590357 668.5617156173273
  endloop
endfacet
facet normal -0.130526193189605 3.976263803209972e-05 0.9914448604488111
  outer loop
    vertex 102.39866652562806 349.07835379298956 668.3339588030234
    vertex 102.72701536794234 350.27841204325466 668.3771386193213
    vertex 102.398631766109 350.27832194167684 668.3339061012254
  endloop
endfacet
facet normal -0.130526193189605 3.976263803209972e-05 0.9914448604488111
  outer loop
    vertex 102.72701536794234 350.27841204325466 668.3771386193213
    vertex 102.39866652562806 349.07835379298956 668.3339588030234
    vertex 102.72705012746138 349.0784438945674 668.3771913211194
  endloop
endfacet
facet normal -0.7933533404604779 3.7553008029004286e-06 0.6087614287765764
  outer loop
    vertex 103.87090971180506 349.0783593939089 669.1839588034493
    vertex 103.60071329410684 350.27831514351794 668.8318245738103
    vertex 103.60074805362588 349.07834699483067 668.8318772756085
  endloop
endfacet
facet normal -0.7933533404604779 3.7553008029004286e-06 0.6087614287765764
  outer loop
    vertex 103.60071329410684 350.27831514351794 668.8318245738103
    vertex 103.87090971180506 349.0783593939089 669.1839588034493
    vertex 103.870874952286 350.2783275425962 669.1839061016511
  endloop
endfacet
facet normal 0.7933533393639717 4.971748830179186e-05 0.6087614281869427
  outer loop
    vertex 101.19655023901116 350.27827493031174 668.8318245738103
    vertex 100.92642334008745 349.0783101429909 669.1839588034492
    vertex 101.19658499853023 349.07830678162446 668.8318772756085
  endloop
endfacet
facet normal 0.7933533393639717 4.971748830179186e-05 0.6087614281869427
  outer loop
    vertex 100.92642334008745 349.0783101429909 669.1839588034492
    vertex 101.19655023901116 350.27827493031174 668.8318245738103
    vertex 100.92638858056839 350.2782782916782 669.183906101651
  endloop
endfacet
facet normal 0.9914475727340399 2.871929628419839e-05 0.13050559258124825
  outer loop
    vertex 100.7565926217424 349.0783164790326 669.5939664265695
    vertex 100.6986316475009 350.2782628361245 670.0340303629148
    vertex 100.69866640701997 349.0782946874372 670.0339776611168
  endloop
endfacet
facet normal 0.9914475727340399 2.871929628419839e-05 0.13050559258124825
  outer loop
    vertex 100.6986316475009 350.2782628361245 670.0340303629148
    vertex 100.7565926217424 349.0783164790326 669.5939664265695
    vertex 100.75655786222333 350.27828462771987 669.5939137247715
  endloop
endfacet
facet normal 2.2301513505249624e-06 -0.9843902196394414 0.1759997030487242
  outer loop
    vertex 109.40596965275053 348.1285157024166 667.8339707722221
    vertex 97.70432291516619 347.61023518314164 664.9353832515477
    vertex 109.40586878731008 347.6102326830203 664.9350084953643
  endloop
endfacet
facet normal 2.2301513505249624e-06 -0.9843902196394414 0.1759997030487242
  outer loop
    vertex 97.70432291516619 347.61023518314164 664.9353832515477
    vertex 109.40596965275053 348.1285157024166 667.8339707722221
    vertex 97.70442444937363 348.12849961778545 667.8339715089023
  endloop
endfacet
facet normal 0.8942766895279893 0.44751447190773663 -4.5879175784998204e-11
  outer loop
    vertex 108.40542809221817 350.2781829217173 660.936432509194
    vertex 109.40598156387146 348.27903112827767 667.833970771804
    vertex 109.40595383019824 348.27884550673616 659.9364468932648
  endloop
endfacet
facet normal 0.8942766895279893 0.44751447190773663 -4.5879175784998204e-11
  outer loop
    vertex 109.40598156387146 348.27903112827767 667.833970771804
    vertex 108.40542809221817 350.2781829217173 660.936432509194
    vertex 109.00604962980108 349.0782568710963 667.8339707927204
  endloop
endfacet
facet normal 0.8942766895279893 0.44751447190773663 -4.5879175784998204e-11
  outer loop
    vertex 109.00604962980108 349.0782568710963 667.8339707927204
    vertex 108.40542809221817 350.2781829217173 660.936432509194
    vertex 109.00604962980113 349.0782568710963 672.2339707951126
  endloop
endfacet
facet normal 0.8942766895279893 0.44751447190773663 -4.5879175784998204e-11
  outer loop
    vertex 109.4059815638715 348.27903112827767 672.2339708160289
    vertex 108.40542809221822 350.2781829217173 679.131509078639
    vertex 109.40595383019829 348.27884550673616 680.1314946945681
  endloop
endfacet
facet normal 0.8942766895279893 0.44751447190773663 -4.5879175784998204e-11
  outer loop
    vertex 108.40542809221822 350.2781829217173 679.131509078639
    vertex 109.4059815638715 348.27903112827767 672.2339708160289
    vertex 109.00604962980113 349.0782568710963 672.2339707951126
  endloop
endfacet
facet normal 0.8942766895279893 0.44751447190773663 -4.5879175784998204e-11
  outer loop
    vertex 108.40542809221822 350.2781829217173 679.131509078639
    vertex 109.00604962980113 349.0782568710963 672.2339707951126
    vertex 108.40542809221817 350.2781829217173 660.936432509194
  endloop
endfacet
facet normal -0.6087614293535326 1.7209534310378162e-05 0.7933533398399959
  outer loop
    vertex 103.24866652584737 349.0783350590357 668.5617156173273
    vertex 103.60071329410684 350.27831514351794 668.8318245738103
    vertex 103.24863176632833 350.2783032077229 668.5616629155293
  endloop
endfacet
facet normal -0.6087614293535326 1.7209534310378162e-05 0.7933533398399959
  outer loop
    vertex 103.60071329410684 350.27831514351794 668.8318245738103
    vertex 103.24866652584737 349.0783350590357 668.5617156173273
    vertex 103.60074805362588 349.07834699483067 668.8318772756085
  endloop
endfacet
facet normal 4.18573805208041e-05 -0.9999999701000375 -0.00024093128518456067
  outer loop
    vertex 109.40601438650889 346.91742564934134 659.9361644037297
    vertex 97.70423938881959 346.91640415446375 661.9361918353478
    vertex 97.70439187518697 346.91624283258795 659.9359777415445
  endloop
endfacet
facet normal 4.18573805208041e-05 -0.9999999701000375 -0.00024093128518456067
  outer loop
    vertex 97.70423938881959 346.91640415446375 661.9361918353478
    vertex 109.40601438650889 346.91742564934134 659.9361644037297
    vertex 109.40581809934342 346.91630040887185 661.9354421622509
  endloop
endfacet
facet normal -4.82022145721028e-05 0.9999999988382733 6.107714269104967e-11
  outer loop
    vertex 97.70420510218257 350.27766268510226 660.9362003023433
    vertex 101.19655023901116 350.27827493031174 668.8318245738103
    vertex 108.40542809221817 350.2781829217173 660.936432509194
  endloop
endfacet
facet normal -4.82022145721028e-05 0.9999999988382733 6.107714269104967e-11
  outer loop
    vertex 101.19655023901116 350.27827493031174 668.8318245738103
    vertex 97.70420510218257 350.27766268510226 660.9362003023433
    vertex 100.92638858056839 350.2782782916782 669.183906101651
  endloop
endfacet
facet normal -4.82022145721028e-05 0.9999999988382733 6.107714269104967e-11
  outer loop
    vertex 100.92638858056839 350.2782782916782 669.183906101651
    vertex 97.70420510218257 350.27766268510226 660.9362003023433
    vertex 100.75655786222333 350.27828462771987 669.5939137247715
  endloop
endfacet
facet normal -4.82022145721028e-05 0.9999999988382733 6.107714269104967e-11
  outer loop
    vertex 100.75655786222333 350.27828462771987 669.5939137247715
    vertex 97.70420510218257 350.27766268510226 660.9362003023433
    vertex 97.70422530971905 350.2776266371318 679.1317235795233
  endloop
endfacet
facet normal -4.82022145721028e-05 0.9999999988382733 6.107714269104967e-11
  outer loop
    vertex 108.40542809221817 350.2781829217173 660.936432509194
    vertex 101.19655023901116 350.27827493031174 668.8318245738103
    vertex 101.54863176699199 350.27827477269216 668.5616629155293
  endloop
endfacet
facet normal -4.82022145721028e-05 0.9999999988382733 6.107714269104967e-11
  outer loop
    vertex 108.40542809221817 350.2781829217173 660.936432509194
    vertex 101.54863176699199 350.27827477269216 668.5616629155293
    vertex 101.95863939022122 350.2782778295609 668.3918321973565
  endloop
endfacet
facet normal -4.82022145721028e-05 0.9999999988382733 6.107714269104967e-11
  outer loop
    vertex 108.40542809221817 350.2781829217173 660.936432509194
    vertex 101.95863939022122 350.2782778295609 668.3918321973565
    vertex 102.398631766109 350.27832194167684 668.3339061012254
  endloop
endfacet
facet normal -4.82022145721028e-05 0.9999999988382733 6.107714269104967e-11
  outer loop
    vertex 100.75655786222333 350.27828462771987 669.5939137247715
    vertex 97.70422530971905 350.2776266371318 679.1317235795233
    vertex 100.6986316475009 350.2782628361245 670.0340303629148
  endloop
endfacet
facet normal -4.82022145721028e-05 0.9999999988382733 6.107714269104967e-11
  outer loop
    vertex 100.6986316475009 350.2782628361245 670.0340303629148
    vertex 97.70422530971905 350.2776266371318 679.1317235795233
    vertex 100.75655786222333 350.27828462771987 670.4740278630615
  endloop
endfacet
facet normal -4.82022145721028e-05 0.9999999988382733 6.107714269104967e-11
  outer loop
    vertex 100.75655786222333 350.27828462771987 670.4740278630615
    vertex 97.70422530971905 350.2776266371318 679.1317235795233
    vertex 100.92638858056839 350.2782782916782 670.8840354861819
  endloop
endfacet
facet normal -4.82022145721028e-05 0.9999999988382733 6.107714269104967e-11
  outer loop
    vertex 100.92638858056839 350.2782782916782 670.8840354861819
    vertex 97.70422530971905 350.2776266371318 679.1317235795233
    vertex 101.19655023901116 350.27827493031174 671.2361170140226
  endloop
endfacet
facet normal -4.82022145721028e-05 0.9999999988382733 6.107714269104967e-11
  outer loop
    vertex 101.19655023901116 350.27827493031174 671.2361170140226
    vertex 97.70422530971905 350.2776266371318 679.1317235795233
    vertex 101.54863176699199 350.27827477269216 671.5062786723037
  endloop
endfacet
facet normal -4.82022145721028e-05 0.9999999988382733 6.107714269104967e-11
  outer loop
    vertex 101.54863176699199 350.27827477269216 671.5062786723037
    vertex 97.70422530971905 350.2776266371318 679.1317235795233
    vertex 101.95863939022122 350.2782778295609 671.6761093904764
  endloop
endfacet
facet normal -4.82022145721028e-05 0.9999999988382733 6.107714269104967e-11
  outer loop
    vertex 101.95863939022122 350.2782778295609 671.6761093904764
    vertex 97.70422530971905 350.2776266371318 679.1317235795233
    vertex 102.398631766109 350.27832194167684 671.7340354866076
  endloop
endfacet
facet normal -4.82022145721028e-05 0.9999999988382733 6.107714269104967e-11
  outer loop
    vertex 102.398631766109 350.27832194167684 671.7340354866076
    vertex 97.70422530971905 350.2776266371318 679.1317235795233
    vertex 108.40542809221822 350.2781829217173 679.131509078639
  endloop
endfacet
facet normal -4.82022145721028e-05 0.9999999988382733 6.107714269104967e-11
  outer loop
    vertex 108.40542809221817 350.2781829217173 660.936432509194
    vertex 103.870874952286 350.2783275425962 669.1839061016511
    vertex 108.40542809221822 350.2781829217173 679.131509078639
  endloop
endfacet
facet normal -4.82022145721028e-05 0.9999999988382733 6.107714269104967e-11
  outer loop
    vertex 103.870874952286 350.2783275425962 669.1839061016511
    vertex 108.40542809221817 350.2781829217173 660.936432509194
    vertex 103.60071329410684 350.27831514351794 668.8318245738103
  endloop
endfacet
facet normal -4.82022145721028e-05 0.9999999988382733 6.107714269104967e-11
  outer loop
    vertex 103.60071329410684 350.27831514351794 668.8318245738103
    vertex 108.40542809221817 350.2781829217173 660.936432509194
    vertex 103.24863176632833 350.2783032077229 668.5616629155293
  endloop
endfacet
facet normal -4.82022145721028e-05 0.9999999988382733 6.107714269104967e-11
  outer loop
    vertex 103.24863176632833 350.2783032077229 668.5616629155293
    vertex 108.40542809221817 350.2781829217173 660.936432509194
    vertex 102.72701536794234 350.27841204325466 668.3771386193213
  endloop
endfacet
facet normal -4.82022145721028e-05 0.9999999988382733 6.107714269104967e-11
  outer loop
    vertex 102.72701536794234 350.27841204325466 668.3771386193213
    vertex 108.40542809221817 350.2781829217173 660.936432509194
    vertex 102.398631766109 350.27832194167684 668.3339061012254
  endloop
endfacet
facet normal -4.82022145721028e-05 0.9999999988382733 6.107714269104967e-11
  outer loop
    vertex 108.40542809221822 350.2781829217173 679.131509078639
    vertex 103.870874952286 350.2783275425962 669.1839061016511
    vertex 104.04070567032409 350.278339559981 669.5939137247715
  endloop
endfacet
facet normal -4.82022145721028e-05 0.9999999988382733 6.107714269104967e-11
  outer loop
    vertex 108.40542809221822 350.2781829217173 679.131509078639
    vertex 104.04070567032409 350.278339559981 669.5939137247715
    vertex 104.09863176544539 350.2783503767076 670.0340354866076
  endloop
endfacet
facet normal -4.82022145721028e-05 0.9999999988382733 6.107714269104967e-11
  outer loop
    vertex 108.40542809221822 350.2781829217173 679.131509078639
    vertex 104.09863176544539 350.2783503767076 670.0340354866076
    vertex 104.04070567032416 350.278339559981 670.4740278630615
  endloop
endfacet
facet normal -4.82022145721028e-05 0.9999999988382733 6.107714269104967e-11
  outer loop
    vertex 108.40542809221822 350.2781829217173 679.131509078639
    vertex 104.04070567032416 350.278339559981 670.4740278630615
    vertex 103.87087495228607 350.2783275425962 670.8840354861818
  endloop
endfacet
facet normal -4.82022145721028e-05 0.9999999988382733 6.107714269104967e-11
  outer loop
    vertex 108.40542809221822 350.2781829217173 679.131509078639
    vertex 103.87087495228607 350.2783275425962 670.8840354861818
    vertex 103.60071329410691 350.27831514351794 671.2361170140226
  endloop
endfacet
facet normal -4.82022145721028e-05 0.9999999988382733 6.107714269104967e-11
  outer loop
    vertex 108.40542809221822 350.2781829217173 679.131509078639
    vertex 103.60071329410691 350.27831514351794 671.2361170140226
    vertex 103.24863176632837 350.2783032077229 671.5062786723037
  endloop
endfacet
facet normal -4.82022145721028e-05 0.9999999988382733 6.107714269104967e-11
  outer loop
    vertex 108.40542809221822 350.2781829217173 679.131509078639
    vertex 103.24863176632837 350.2783032077229 671.5062786723037
    vertex 102.72701536794236 350.27841204325466 671.6908029685117
  endloop
endfacet
facet normal -4.82022145721028e-05 0.9999999988382733 6.107714269104967e-11
  outer loop
    vertex 108.40542809221822 350.2781829217173 679.131509078639
    vertex 102.72701536794236 350.27841204325466 671.6908029685117
    vertex 102.398631766109 350.27832194167684 671.7340354866076
  endloop
endfacet
facet normal -0.9238795324696617 -9.954850249073611e-06 0.3826834323361029
  outer loop
    vertex 104.04074042984313 349.0783714112938 669.5939664265695
    vertex 103.870874952286 350.2783275425962 669.1839061016511
    vertex 103.87090971180506 349.0783593939089 669.1839588034493
  endloop
endfacet
facet normal -0.9238795324696617 -9.954850249073611e-06 0.3826834323361029
  outer loop
    vertex 103.870874952286 350.2783275425962 669.1839061016511
    vertex 104.04074042984313 349.0783714112938 669.5939664265695
    vertex 104.04070567032409 350.278339559981 669.5939137247715
  endloop
endfacet
facet normal 0.9238795317352296 4.3569250738959905e-05 0.38268343175843567
  outer loop
    vertex 100.92638858056839 350.2782782916782 669.183906101651
    vertex 100.7565926217424 349.0783164790326 669.5939664265695
    vertex 100.92642334008745 349.0783101429909 669.1839588034492
  endloop
endfacet
facet normal 0.9238795317352296 4.3569250738959905e-05 0.38268343175843567
  outer loop
    vertex 100.7565926217424 349.0783164790326 669.5939664265695
    vertex 100.92638858056839 350.2782782916782 669.183906101651
    vertex 100.75655786222333 350.27828462771987 669.5939137247715
  endloop
endfacet
facet normal 2.9126386817441094e-05 -8.44743410023804e-05 0.9999999960078698
  outer loop
    vertex 97.70423938881959 346.91640415446375 661.9361918353478
    vertex 109.40576814724778 348.10968837401407 661.9357296867556
    vertex 97.7042219589302 348.1096935754471 661.9361030586467
  endloop
endfacet
facet normal 2.9126386817441094e-05 -8.44743410023804e-05 0.9999999960078698
  outer loop
    vertex 109.40576814724778 348.10968837401407 661.9357296867556
    vertex 97.70423938881959 346.91640415446375 661.9361918353478
    vertex 109.40581809934342 346.91630040887185 661.9354421622509
  endloop
endfacet
facet normal -0.13052619318959618 3.9762638006902256e-05 -0.9914448604488124
  outer loop
    vertex 102.72701536794236 350.27841204325466 671.6908029685117
    vertex 102.39866652562806 349.07835379298956 671.7339827848095
    vertex 102.398631766109 350.27832194167684 671.7340354866076
  endloop
endfacet
facet normal -0.13052619318959618 3.9762638006902256e-05 -0.9914448604488124
  outer loop
    vertex 102.39866652562806 349.07835379298956 671.7339827848095
    vertex 102.72701536794236 350.27841204325466 671.6908029685117
    vertex 102.72705012746141 349.0784438945674 671.6907502667136
  endloop
endfacet
facet normal -0.793353340460478 3.755300778949631e-06 -0.6087614287765764
  outer loop
    vertex 103.60071329410691 350.27831514351794 671.2361170140226
    vertex 103.87090971180511 349.0783593939089 670.8839827843838
    vertex 103.60074805362595 349.07834699483067 671.2360643122246
  endloop
endfacet
facet normal -0.793353340460478 3.755300778949631e-06 -0.6087614287765764
  outer loop
    vertex 103.87090971180511 349.0783593939089 670.8839827843838
    vertex 103.60071329410691 350.27831514351794 671.2361170140226
    vertex 103.87087495228607 350.2783275425962 670.8840354861818
  endloop
endfacet
facet normal 0.7933533393639718 4.971748828177819e-05 -0.6087614281869426
  outer loop
    vertex 100.92642334008745 349.0783101429909 670.8839827843838
    vertex 101.19655023901116 350.27827493031174 671.2361170140226
    vertex 101.19658499853023 349.07830678162446 671.2360643122246
  endloop
endfacet
facet normal 0.7933533393639718 4.971748828177819e-05 -0.6087614281869426
  outer loop
    vertex 101.19655023901116 350.27827493031174 671.2361170140226
    vertex 100.92642334008745 349.0783101429909 670.8839827843838
    vertex 100.92638858056839 350.2782782916782 670.8840354861819
  endloop
endfacet
facet normal -4.435184673789244e-06 -0.0001653751944244503 0.999999986315687
  outer loop
    vertex 97.70441208272345 346.9162067846175 680.131946140322
    vertex 109.40595383019829 348.27884550673616 680.1314946945681
    vertex 97.70435144875444 348.2788571972724 680.1317091954523
  endloop
endfacet
facet normal -4.435184673789244e-06 -0.0001653751944244503 0.999999986315687
  outer loop
    vertex 109.40595383019829 348.27884550673616 680.1314946945681
    vertex 97.70441208272345 346.9162067846175 680.131946140322
    vertex 109.40601438650893 346.91742564934134 680.1317771841033
  endloop
endfacet
facet normal -1.4514202495573085e-05 0.4473749188087477 0.8943465110404382
  outer loop
    vertex 97.70435144875444 348.2788571972724 680.1317091954523
    vertex 108.40542809221822 350.2781829217173 679.131509078639
    vertex 97.70422530971905 350.2776266371318 679.1317235795233
  endloop
endfacet
facet normal -1.4514202495573085e-05 0.4473749188087477 0.8943465110404382
  outer loop
    vertex 108.40542809221822 350.2781829217173 679.131509078639
    vertex 97.70435144875444 348.2788571972724 680.1317091954523
    vertex 109.40595383019829 348.27884550673616 680.1314946945681
  endloop
endfacet
facet normal -0.9914448610849177 -2.2986594706859574e-05 -0.13052619239035781
  outer loop
    vertex 104.04070567032416 350.278339559981 670.4740278630615
    vertex 104.09866652496444 349.07838222802036 670.0339827848096
    vertex 104.0407404298432 349.0783714112938 670.4739751612634
  endloop
endfacet
facet normal -0.9914448610849177 -2.2986594706859574e-05 -0.13052619239035781
  outer loop
    vertex 104.09866652496444 349.07838222802036 670.0339827848096
    vertex 104.04070567032416 350.278339559981 670.4740278630615
    vertex 104.09863176544539 350.2783503767076 670.0340354866076
  endloop
endfacet
facet normal 0.9999999998560316 1.4480157947018686e-05 8.846570402081094e-06
  outer loop
    vertex 109.4059696527506 348.1285157024166 672.2339708156109
    vertex 109.40576814724783 348.10968837401407 678.1322119010773
    vertex 109.40586878731014 347.6102326830203 675.1329330924686
  endloop
endfacet
facet normal 0.9999999998560316 1.4480157947018686e-05 8.846570402081094e-06
  outer loop
    vertex 109.40576814724783 348.10968837401407 678.1322119010773
    vertex 109.40601438650893 346.91742564934134 680.1317771841033
    vertex 109.40581809934349 346.91630040887185 678.1324994255821
  endloop
endfacet
facet normal 0.9999999998560316 1.4480157947018686e-05 8.846570402081094e-06
  outer loop
    vertex 109.40601438650893 346.91742564934134 680.1317771841033
    vertex 109.40576814724783 348.10968837401407 678.1322119010773
    vertex 109.40595383019829 348.27884550673616 680.1314946945681
  endloop
endfacet
facet normal 0.9999999998560316 1.4480157947018686e-05 8.846570402081094e-06
  outer loop
    vertex 109.40595383019829 348.27884550673616 680.1314946945681
    vertex 109.40576814724783 348.10968837401407 678.1322119010773
    vertex 109.4059696527506 348.1285157024166 672.2339708156109
  endloop
endfacet
facet normal 0.9999999998560316 1.4480157947018686e-05 8.846570402081094e-06
  outer loop
    vertex 109.40595383019829 348.27884550673616 680.1314946945681
    vertex 109.4059696527506 348.1285157024166 672.2339708156109
    vertex 109.4059815638715 348.27903112827767 672.2339708160289
  endloop
endfacet
facet normal 0.991445022431143 3.445179150845408e-05 -0.13052496431558433
  outer loop
    vertex 100.6986316475009 350.2782628361245 670.0340303629148
    vertex 100.7565926217424 349.0783164790326 670.4739751612634
    vertex 100.69866640701997 349.0782946874372 670.0339776611168
  endloop
endfacet
facet normal 0.991445022431143 3.445179150845408e-05 -0.13052496431558433
  outer loop
    vertex 100.7565926217424 349.0783164790326 670.4739751612634
    vertex 100.6986316475009 350.2782628361245 670.0340303629148
    vertex 100.75655786222333 350.27828462771987 670.4740278630615
  endloop
endfacet
facet normal 1.8368216703923507e-06 -0.9843900878368967 -0.17600044024119052
  outer loop
    vertex 109.4059696527506 348.1285157024166 672.2339708156109
    vertex 97.7043229151662 347.61023518314164 675.1325586437373
    vertex 97.70442444937365 348.12849961778545 672.2339703863827
  endloop
endfacet
facet normal 1.8368216703923507e-06 -0.9843900878368967 -0.17600044024119052
  outer loop
    vertex 97.7043229151662 347.61023518314164 675.1325586437373
    vertex 109.4059696527506 348.1285157024166 672.2339708156109
    vertex 109.40586878731014 347.6102326830203 675.1329330924686
  endloop
endfacet
facet normal -6.4844082153055595e-06 -0.986416467603255 0.16426366731285819
  outer loop
    vertex 109.40586878731014 347.6102326830203 675.1329330924686
    vertex 97.7042219589302 348.1096935754471 678.1318388366382
    vertex 97.7043229151662 347.61023518314164 675.1325586437373
  endloop
endfacet
facet normal -6.4844082153055595e-06 -0.986416467603255 0.16426366731285819
  outer loop
    vertex 97.7042219589302 348.1096935754471 678.1318388366382
    vertex 109.40586878731014 347.6102326830203 675.1329330924686
    vertex 109.40576814724783 348.10968837401407 678.1322119010773
  endloop
endfacet
facet normal 5.2987927118986316e-08 5.637559747292089e-10 -0.9999999999999987
  outer loop
    vertex 97.70444425647366 349.0782408110666 672.2339703870765
    vertex 109.4059696527506 348.1285157024166 672.2339708156109
    vertex 97.70442444937365 348.12849961778545 672.2339703863827
  endloop
endfacet
facet normal 5.2987927118986316e-08 5.637559747292089e-10 -0.9999999999999987
  outer loop
    vertex 109.4059696527506 348.1285157024166 672.2339708156109
    vertex 97.70444425647366 349.0782408110666 672.2339703870765
    vertex 109.00604962980113 349.0782568710963 672.2339707951126
  endloop
endfacet
facet normal 5.2987927118986316e-08 5.637559747292089e-10 -0.9999999999999987
  outer loop
    vertex 109.4059696527506 348.1285157024166 672.2339708156109
    vertex 109.00604962980113 349.0782568710963 672.2339707951126
    vertex 109.4059815638715 348.27903112827767 672.2339708160289
  endloop
endfacet
endsolid Development Mockup rev2
