solid Development Mockup rev2
facet normal 6.751514467974414e-06 -0.9218928091793848 0.3874450262137321
  outer loop
    vertex 109.40596965275053 348.4685611280273 667.8339707722221
    vertex 96.70432291528184 347.2502672921823 664.9353840864518
    vertex 109.40586878731008 347.2502799791253 664.9350084953643
  endloop
endfacet
facet normal 6.751514467974414e-06 -0.9218928091793848 0.3874450262137321
  outer loop
    vertex 96.70432291528184 347.2502672921823 664.9353840864518
    vertex 109.40596965275053 348.4685611280273 667.8339707722221
    vertex 96.70442444948928 348.4685298563317 667.8339723438064
  endloop
endfacet
facet normal 0.999999996862623 -7.913554924914141e-05 -3.5098322324419634e-06
  outer loop
    vertex 109.40598156387146 348.61907655388836 667.833970771804
    vertex 109.40596965275053 348.4685611280273 667.8339707722221
    vertex 109.40595383019824 348.61889093234686 659.9364468932648
  endloop
endfacet
facet normal 0.9999999943101019 4.355036332742162e-05 9.738152850494117e-05
  outer loop
    vertex 109.40600753450019 347.4211700074778 659.9362038439249
    vertex 109.40576814724778 348.44973379962477 661.9357296867556
    vertex 109.40581124733473 347.42004476700833 661.9354816024461
  endloop
endfacet
facet normal 0.9999999943101019 4.355036332742162e-05 9.738152850494117e-05
  outer loop
    vertex 109.40576814724778 348.44973379962477 661.9357296867556
    vertex 109.40600753450019 347.4211700074778 659.9362038439249
    vertex 109.40595383019824 348.61889093234686 659.9364468932648
  endloop
endfacet
facet normal 0.9999989528173719 -0.0014468901982556768 -2.954511561673574e-05
  outer loop
    vertex 109.40595383019824 348.61889093234686 659.9364468932648
    vertex 109.40596965275053 348.4685611280273 667.8339707722221
    vertex 109.40576814724778 348.44973379962477 661.9357296867556
  endloop
endfacet
facet normal -1.2175633745789169e-05 -0.9285040836558272 -0.37132218690270447
  outer loop
    vertex 109.40586878731008 347.2502799791253 664.9350084953643
    vertex 96.70422195904585 348.44972381399344 661.9361038935508
    vertex 109.40576814724778 348.44973379962477 661.9357296867556
  endloop
endfacet
facet normal -1.2175633745789169e-05 -0.9285040836558272 -0.37132218690270447
  outer loop
    vertex 96.70422195904585 348.44972381399344 661.9361038935508
    vertex 109.40586878731008 347.2502799791253 664.9350084953643
    vertex 96.70432291528184 347.2502672921823 664.9353840864518
  endloop
endfacet
facet normal 0.999999999415446 -1.5105354216231952e-06 -3.415883826378797e-05
  outer loop
    vertex 109.40596965275053 348.4685611280273 667.8339707722221
    vertex 109.40586878731008 347.2502799791253 664.9350084953643
    vertex 109.40576814724778 348.44973379962477 661.9357296867556
  endloop
endfacet
facet normal 0.7933533400633298 1.8643748840926674e-05 -0.6087614290202439
  outer loop
    vertex 100.92642334008745 349.4183555686016 670.8839827843838
    vertex 101.19655023901116 352.61832035592244 671.2361170140226
    vertex 101.19658499853023 349.41835220723516 671.2360643122246
  endloop
endfacet
facet normal 0.7933533400633298 1.8643748840926674e-05 -0.6087614290202439
  outer loop
    vertex 101.19655023901116 352.61832035592244 671.2361170140226
    vertex 100.92642334008745 349.4183555686016 670.8839827843838
    vertex 100.92638858056839 352.6183237172889 670.8840354861819
  endloop
endfacet
facet normal 0.7933533400633298 1.8643748840923963e-05 0.6087614290202439
  outer loop
    vertex 101.19655023901116 352.61832035592244 668.8318245738103
    vertex 100.92642334008745 349.4183555686016 669.1839588034492
    vertex 101.19658499853023 349.41835220723516 668.8318772756085
  endloop
endfacet
facet normal 0.7933533400633298 1.8643748840923963e-05 0.6087614290202439
  outer loop
    vertex 100.92642334008745 349.4183555686016 669.1839588034492
    vertex 101.19655023901116 352.61832035592244 668.8318245738103
    vertex 100.92638858056839 352.6183237172889 669.183906101651
  endloop
endfacet
facet normal 0.8868523399507675 0.44378021109468785 -0.12865477591058389
  outer loop
    vertex 108.40542809221822 352.618228347328 679.131509078639
    vertex 109.4059815638715 348.61907655388836 672.2339708160289
    vertex 109.00604962980113 349.418302296707 672.2339707951126
  endloop
endfacet
facet normal -0.9914478047011823 -1.0769559959763916e-05 0.1305038330365156
  outer loop
    vertex 104.09866652496444 349.418427653631 670.0339827848096
    vertex 104.04070567032409 352.6183849855917 669.5939137247715
    vertex 104.04074042984313 349.4184168369045 669.5939664265695
  endloop
endfacet
facet normal -0.9914478047011823 -1.0769559959763916e-05 0.1305038330365156
  outer loop
    vertex 104.04070567032409 352.6183849855917 669.5939137247715
    vertex 104.09866652496444 349.418427653631 670.0339827848096
    vertex 104.09863176544539 352.6183958023183 670.0340354866076
  endloop
endfacet
facet normal -0.6087614292014973 6.453468311722839e-06 0.7933533401170648
  outer loop
    vertex 103.24866652584737 349.4183804846463 668.5617156173273
    vertex 103.60071329410684 352.6183605691286 668.8318245738103
    vertex 103.24863176632833 352.6183486333336 668.5616629155293
  endloop
endfacet
facet normal -0.6087614292014973 6.453468311722839e-06 0.7933533401170648
  outer loop
    vertex 103.60071329410684 352.6183605691286 668.8318245738103
    vertex 103.24866652584737 349.4183804846463 668.5617156173273
    vertex 103.60074805362588 349.41839242044136 668.8318772756085
  endloop
endfacet
facet normal 0.38268343208317823 1.9372694270364086e-05 0.9238795324249468
  outer loop
    vertex 101.54866652651106 349.41835204961563 668.5617156173273
    vertex 101.95863939022122 352.6183232551716 668.3918321973565
    vertex 101.54863176699199 352.61832019830285 668.5616629155293
  endloop
endfacet
facet normal 0.38268343208317823 1.9372694270364086e-05 0.9238795324249468
  outer loop
    vertex 101.95863939022122 352.6183232551716 668.3918321973565
    vertex 101.54866652651106 349.41835204961563 668.5617156173273
    vertex 101.95867414974028 349.41835510648434 668.3918848991545
  endloop
endfacet
facet normal 1.523871189485849e-05 0.2425881641125001 -0.9701293637450156
  outer loop
    vertex 108.40542809221817 352.618228347328 660.936432509194
    vertex 96.7043312413336 348.61892348378916 659.9362155213183
    vertex 96.70420510229822 352.6176929236485 660.9362011372474
  endloop
endfacet
facet normal 1.523871189485849e-05 0.2425881641125001 -0.9701293637450156
  outer loop
    vertex 96.7043312413336 348.61892348378916 659.9362155213183
    vertex 108.40542809221817 352.618228347328 660.936432509194
    vertex 109.40595383019824 348.61889093234686 659.9364468932648
  endloop
endfacet
facet normal 0.9914450230747955 1.2919207481161346e-05 -0.13052496333388558
  outer loop
    vertex 100.6986316475009 352.6183082617352 670.0340303629148
    vertex 100.7565926217424 349.4183619046433 670.4739751612634
    vertex 100.69866640701997 349.4183401130479 670.0339776611168
  endloop
endfacet
facet normal 0.9914450230747955 1.2919207481161346e-05 -0.13052496333388558
  outer loop
    vertex 100.7565926217424 349.4183619046433 670.4739751612634
    vertex 100.6986316475009 352.6183082617352 670.0340303629148
    vertex 100.75655786222333 352.61833005333057 670.4740278630615
  endloop
endfacet
facet normal 0.13052619250188088 1.7746412438556722e-05 -0.9914448611778806
  outer loop
    vertex 102.398631766109 352.6183673672875 671.7340354866076
    vertex 101.95867414974028 349.41835510648434 671.6760566886784
    vertex 101.95863939022122 352.6183232551716 671.6761093904764
  endloop
endfacet
facet normal 0.13052619250188088 1.7746412438556722e-05 -0.9914448611778806
  outer loop
    vertex 101.95867414974028 349.41835510648434 671.6760566886784
    vertex 102.398631766109 352.6183673672875 671.7340354866076
    vertex 102.39866652562806 349.41839921860026 671.7339827848095
  endloop
endfacet
facet normal -0.6087614292014728 6.453468311723402e-06 -0.7933533401170837
  outer loop
    vertex 103.60071329410691 352.6183605691286 671.2361170140226
    vertex 103.24866652584741 349.4183804846463 671.5062259705056
    vertex 103.24863176632837 352.6183486333336 671.5062786723037
  endloop
endfacet
facet normal -0.6087614292014728 6.453468311723402e-06 -0.7933533401170837
  outer loop
    vertex 103.24866652584741 349.4183804846463 671.5062259705056
    vertex 103.60071329410691 352.6183605691286 671.2361170140226
    vertex 103.60074805362595 349.41839242044136 671.2360643122246
  endloop
endfacet
facet normal 0.9828368191174639 0.1844770635799088 -2.8586348641744164e-15
  outer loop
    vertex 108.40542809221817 352.618228347328 660.936432509194
    vertex 109.00604962980113 349.418302296707 672.2339707951126
    vertex 109.00604962980108 349.418302296707 667.8339707927204
  endloop
endfacet
facet normal 0.9828368191174639 0.1844770635799088 -2.8586348641744164e-15
  outer loop
    vertex 109.00604962980113 349.418302296707 672.2339707951126
    vertex 108.40542809221817 352.618228347328 660.936432509194
    vertex 108.40542809221822 352.618228347328 679.131509078639
  endloop
endfacet
facet normal -0.7933533404253655 1.4082144405793314e-06 0.6087614288322898
  outer loop
    vertex 103.87090971180506 349.4184048195196 669.1839588034493
    vertex 103.60071329410684 352.6183605691286 668.8318245738103
    vertex 103.60074805362588 349.41839242044136 668.8318772756085
  endloop
endfacet
facet normal -0.7933533404253655 1.4082144405793314e-06 0.6087614288322898
  outer loop
    vertex 103.60071329410684 352.6183605691286 668.8318245738103
    vertex 103.87090971180506 349.4184048195196 669.1839588034493
    vertex 103.870874952286 352.6183729682068 669.1839061016511
  endloop
endfacet
facet normal -0.33350209310646084 1.1903935360826576e-05 -0.9427493589241553
  outer loop
    vertex 103.24863176632837 352.6183486333336 671.5062786723037
    vertex 102.72705012746141 349.4184893201781 671.6907502667136
    vertex 102.72701536794236 352.61845746886536 671.6908029685117
  endloop
endfacet
facet normal -0.33350209310646084 1.1903935360826576e-05 -0.9427493589241553
  outer loop
    vertex 102.72705012746141 349.4184893201781 671.6907502667136
    vertex 103.24863176632837 352.6183486333336 671.5062786723037
    vertex 103.24866652584741 349.4183804846463 671.5062259705056
  endloop
endfacet
facet normal -0.9914448613557227 -8.619830023145782e-06 -0.13052619207281893
  outer loop
    vertex 104.04070567032416 352.6183849855917 670.4740278630615
    vertex 104.09866652496444 349.418427653631 670.0339827848096
    vertex 104.0407404298432 349.4184168369045 670.4739751612634
  endloop
endfacet
facet normal -0.9914448613557227 -8.619830023145782e-06 -0.13052619207281893
  outer loop
    vertex 104.09866652496444 349.418427653631 670.0339827848096
    vertex 104.04070567032416 352.6183849855917 670.4740278630615
    vertex 104.09863176544539 352.6183958023183 670.0340354866076
  endloop
endfacet
facet normal -0.13052618657561407 1.4910741995284218e-05 0.9914448620047904
  outer loop
    vertex 102.39866652562806 349.41839921860026 668.3339588030234
    vertex 102.72701536794234 352.61845746886536 668.3771386193213
    vertex 102.398631766109 352.6183673672875 668.3339061012254
  endloop
endfacet
facet normal -0.13052618657561407 1.4910741995284218e-05 0.9914448620047904
  outer loop
    vertex 102.72701536794234 352.61845746886536 668.3771386193213
    vertex 102.39866652562806 349.41839921860026 668.3339588030234
    vertex 102.72705012746138 349.4184893201781 668.3771913211194
  endloop
endfacet
facet normal 0.8868523399507681 0.4437802110946871 0.12865477591058339
  outer loop
    vertex 108.40542809221817 352.618228347328 660.936432509194
    vertex 109.00604962980108 349.418302296707 667.8339707927204
    vertex 109.40598156387146 348.61907655388836 667.833970771804
  endloop
endfacet
facet normal 0.9238795323400315 1.633819799949828e-05 -0.3826834324297672
  outer loop
    vertex 100.7565926217424 349.4183619046433 670.4739751612634
    vertex 100.92638858056839 352.6183237172889 670.8840354861819
    vertex 100.92642334008745 349.4183555686016 670.8839827843838
  endloop
endfacet
facet normal 0.9238795323400315 1.633819799949828e-05 -0.3826834324297672
  outer loop
    vertex 100.92638858056839 352.6183237172889 670.8840354861819
    vertex 100.7565926217424 349.4183619046433 670.4739751612634
    vertex 100.75655786222333 352.61833005333057 670.4740278630615
  endloop
endfacet
facet normal 0.9914475732004248 1.0769557451202776e-05 0.1305055917537832
  outer loop
    vertex 100.7565926217424 349.4183619046433 669.5939664265695
    vertex 100.6986316475009 352.6183082617352 670.0340303629148
    vertex 100.69866640701997 349.4183401130479 670.0339776611168
  endloop
endfacet
facet normal 0.9914475732004248 1.0769557451202776e-05 0.1305055917537832
  outer loop
    vertex 100.6986316475009 352.6183082617352 670.0340303629148
    vertex 100.7565926217424 349.4183619046433 669.5939664265695
    vertex 100.75655786222333 352.61833005333057 669.5939137247715
  endloop
endfacet
facet normal -0.9238795325734771 -3.7330069174896732e-06 0.3826834321967416
  outer loop
    vertex 104.04074042984313 349.4184168369045 669.5939664265695
    vertex 103.870874952286 352.6183729682068 669.1839061016511
    vertex 103.87090971180506 349.4184048195196 669.1839588034493
  endloop
endfacet
facet normal -0.9238795325734771 -3.7330069174896732e-06 0.3826834321967416
  outer loop
    vertex 103.870874952286 352.6183729682068 669.1839061016511
    vertex 104.04074042984313 349.4184168369045 669.5939664265695
    vertex 104.04070567032409 352.6183849855917 669.5939137247715
  endloop
endfacet
facet normal -0.9238795325734771 -3.7330069174896732e-06 -0.3826834321967416
  outer loop
    vertex 103.87087495228607 352.6183729682068 670.8840354861818
    vertex 104.0407404298432 349.4184168369045 670.4739751612634
    vertex 103.87090971180511 349.4184048195196 670.8839827843838
  endloop
endfacet
facet normal -0.9238795325734771 -3.7330069174896732e-06 -0.3826834321967416
  outer loop
    vertex 104.0407404298432 349.4184168369045 670.4739751612634
    vertex 103.87087495228607 352.6183729682068 670.8840354861818
    vertex 104.04070567032416 352.6183849855917 670.4740278630615
  endloop
endfacet
facet normal -0.7933533404253655 1.4082144405793314e-06 -0.6087614288322898
  outer loop
    vertex 103.60071329410691 352.6183605691286 671.2361170140226
    vertex 103.87090971180511 349.4184048195196 670.8839827843838
    vertex 103.60074805362595 349.41839242044136 671.2360643122246
  endloop
endfacet
facet normal -0.7933533404253655 1.4082144405793314e-06 -0.6087614288322898
  outer loop
    vertex 103.87090971180511 349.4184048195196 670.8839827843838
    vertex 103.60071329410691 352.6183605691286 671.2361170140226
    vertex 103.87087495228607 352.6183729682068 670.8840354861818
  endloop
endfacet
facet normal -0.13052618657560527 1.4910741995284308e-05 -0.9914448620047915
  outer loop
    vertex 102.72701536794236 352.61845746886536 671.6908029685117
    vertex 102.39866652562806 349.41839921860026 671.7339827848095
    vertex 102.398631766109 352.6183673672875 671.7340354866076
  endloop
endfacet
facet normal -0.13052618657560527 1.4910741995284308e-05 -0.9914448620047915
  outer loop
    vertex 102.39866652562806 349.41839921860026 671.7339827848095
    vertex 102.72701536794236 352.61845746886536 671.6908029685117
    vertex 102.72705012746141 349.4184893201781 671.6907502667136
  endloop
endfacet
facet normal 0.38268343208317823 1.9372694270364083e-05 -0.9238795324249468
  outer loop
    vertex 101.95863939022122 352.6183232551716 671.6761093904764
    vertex 101.54866652651106 349.41835204961563 671.5062259705056
    vertex 101.54863176699199 352.61832019830285 671.5062786723037
  endloop
endfacet
facet normal 0.38268343208317823 1.9372694270364083e-05 -0.9238795324249468
  outer loop
    vertex 101.54866652651106 349.41835204961563 671.5062259705056
    vertex 101.95863939022122 352.6183232551716 671.6761093904764
    vertex 101.95867414974028 349.41835510648434 671.6760566886784
  endloop
endfacet
facet normal 0.13052619250188088 1.7746412438556722e-05 0.9914448611778806
  outer loop
    vertex 101.95867414974028 349.41835510648434 668.3918848991545
    vertex 102.398631766109 352.6183673672875 668.3339061012254
    vertex 101.95863939022122 352.6183232551716 668.3918321973565
  endloop
endfacet
facet normal 0.13052619250188088 1.7746412438556722e-05 0.9914448611778806
  outer loop
    vertex 102.398631766109 352.6183673672875 668.3339061012254
    vertex 101.95867414974028 349.41835510648434 668.3918848991545
    vertex 102.39866652562806 349.41839921860026 668.3339588030234
  endloop
endfacet
facet normal -0.33350209310647366 1.1903935360826282e-05 0.9427493589241508
  outer loop
    vertex 102.72705012746138 349.4184893201781 668.3771913211194
    vertex 103.24863176632833 352.6183486333336 668.5616629155293
    vertex 102.72701536794234 352.61845746886536 668.3771386193213
  endloop
endfacet
facet normal -0.33350209310647366 1.1903935360826282e-05 0.9427493589241508
  outer loop
    vertex 103.24863176632833 352.6183486333336 668.5616629155293
    vertex 102.72705012746138 349.4184893201781 668.3771913211194
    vertex 103.24866652584737 349.4183804846463 668.5617156173273
  endloop
endfacet
facet normal 1.2929187804365293e-05 0.24258789215149187 0.970129431784405
  outer loop
    vertex 96.70435144887009 348.6188874358187 680.1317100303564
    vertex 108.40542809221822 352.618228347328 679.131509078639
    vertex 96.7042253098347 352.61765687567805 679.1317244144274
  endloop
endfacet
facet normal 1.2929187804365293e-05 0.24258789215149187 0.970129431784405
  outer loop
    vertex 108.40542809221822 352.618228347328 679.131509078639
    vertex 96.70435144887009 348.6188874358187 680.1317100303564
    vertex 109.40595383019829 348.61889093234686 680.1314946945681
  endloop
endfacet
facet normal 0.608761428743972 1.967875900917389e-05 -0.7933533402503227
  outer loop
    vertex 101.54863176699199 352.61832019830285 671.5062786723037
    vertex 101.19658499853023 349.41835220723516 671.2360643122246
    vertex 101.19655023901116 352.61832035592244 671.2361170140226
  endloop
endfacet
facet normal 0.608761428743972 1.967875900917389e-05 -0.7933533402503227
  outer loop
    vertex 101.19658499853023 349.41835220723516 671.2360643122246
    vertex 101.54863176699199 352.61832019830285 671.5062786723037
    vertex 101.54866652651106 349.41835204961563 671.5062259705056
  endloop
endfacet
facet normal 0.9701024906178144 0.24269560691142303 9.110961768505363e-06
  outer loop
    vertex 108.40542809221822 352.618228347328 679.131509078639
    vertex 109.40595383019829 348.61889093234686 680.1314946945681
    vertex 109.4059815638715 348.61907655388836 672.2339708160289
  endloop
endfacet
facet normal 0.608761428743972 1.967875900917389e-05 0.7933533402503228
  outer loop
    vertex 101.19658499853023 349.41835220723516 668.8318772756085
    vertex 101.54863176699199 352.61832019830285 668.5616629155293
    vertex 101.19655023901116 352.61832035592244 668.8318245738103
  endloop
endfacet
facet normal 0.608761428743972 1.967875900917389e-05 0.7933533402503228
  outer loop
    vertex 101.54863176699199 352.61832019830285 668.5616629155293
    vertex 101.19658499853023 349.41835220723516 668.8318772756085
    vertex 101.54866652651106 349.41835204961563 668.5617156173273
  endloop
endfacet
facet normal 0.9701024906178144 0.24269560691142308 -9.110961768497136e-06
  outer loop
    vertex 108.40542809221817 352.618228347328 660.936432509194
    vertex 109.40598156387146 348.61907655388836 667.833970771804
    vertex 109.40595383019824 348.61889093234686 659.9364468932648
  endloop
endfacet
facet normal 0.9238795323400315 1.633819799949828e-05 0.3826834324297672
  outer loop
    vertex 100.92638858056839 352.6183237172889 669.183906101651
    vertex 100.7565926217424 349.4183619046433 669.5939664265695
    vertex 100.92642334008745 349.4183555686016 669.1839588034492
  endloop
endfacet
facet normal 0.9238795323400315 1.633819799949828e-05 0.3826834324297672
  outer loop
    vertex 100.7565926217424 349.4183619046433 669.5939664265695
    vertex 100.92638858056839 352.6183237172889 669.183906101651
    vertex 100.75655786222333 352.61833005333057 669.5939137247715
  endloop
endfacet
facet normal -4.435184673789244e-06 -0.0001653751944244503 0.999999986315687
  outer loop
    vertex 96.70440538070437 347.4163553688636 680.1319083977062
    vertex 109.40595383019829 348.61889093234686 680.1314946945681
    vertex 96.70435144887009 348.6188874358187 680.1317100303564
  endloop
endfacet
facet normal -4.435184673789244e-06 -0.0001653751944244503 0.999999986315687
  outer loop
    vertex 109.40595383019829 348.61889093234686 680.1314946945681
    vertex 96.70440538070437 347.4163553688636 680.1319083977062
    vertex 109.40600768437419 347.4175894206519 680.1317386065833
  endloop
endfacet
facet normal 2.8233518179904346e-05 -9.069108893765123e-05 -0.9999999954889975
  outer loop
    vertex 109.40576814724783 348.44973379962477 678.1322119010773
    vertex 96.70425289433699 347.4165166907394 678.1316943039029
    vertex 96.70422195904585 348.44972381399344 678.1318396715423
  endloop
endfacet
facet normal 2.8233518179904346e-05 -9.069108893765123e-05 -0.9999999954889975
  outer loop
    vertex 96.70425289433699 347.4165166907394 678.1316943039029
    vertex 109.40576814724783 348.44973379962477 678.1322119010773
    vertex 109.40581139720877 347.4164641801824 678.1324608480621
  endloop
endfacet
facet normal 4.185738052080396e-05 -0.9999999701000375 0.00024093128518456092
  outer loop
    vertex 109.40581139720877 347.4164641801824 678.1324608480621
    vertex 96.70440538070437 347.4163553688636 680.1319083977062
    vertex 96.70425289433699 347.4165166907394 678.1316943039029
  endloop
endfacet
facet normal 4.185738052080396e-05 -0.9999999701000375 0.00024093128518456092
  outer loop
    vertex 96.70440538070437 347.4163553688636 680.1319083977062
    vertex 109.40581139720877 347.4164641801824 678.1324608480621
    vertex 109.40600768437419 347.4175894206519 680.1317386065833
  endloop
endfacet
facet normal 5.2987927118986316e-08 5.637559747292089e-10 -0.9999999999999987
  outer loop
    vertex 96.70444425658931 349.41827104961294 672.2339712219806
    vertex 109.4059696527506 348.4685611280273 672.2339708156109
    vertex 96.7044244494893 348.4685298563317 672.2339712212868
  endloop
endfacet
facet normal 5.2987927118986316e-08 5.637559747292089e-10 -0.9999999999999987
  outer loop
    vertex 109.4059696527506 348.4685611280273 672.2339708156109
    vertex 96.70444425658931 349.41827104961294 672.2339712219806
    vertex 109.00604962980113 349.418302296707 672.2339707951126
  endloop
endfacet
facet normal 5.2987927118986316e-08 5.637559747292089e-10 -0.9999999999999987
  outer loop
    vertex 109.4059696527506 348.4685611280273 672.2339708156109
    vertex 109.00604962980113 349.418302296707 672.2339707951126
    vertex 109.4059815638715 348.61907655388836 672.2339708160289
  endloop
endfacet
facet normal -6.202070714942969e-07 -0.9999999999998077 -1.183508802771646e-10
  outer loop
    vertex 109.00604962980108 349.418302296707 667.8339707927204
    vertex 102.39866652562806 349.41839921860026 668.3339588030234
    vertex 96.70444425658931 349.41827104961294 667.8339723431126
  endloop
endfacet
facet normal -6.202070714942969e-07 -0.9999999999998077 -1.183508802771646e-10
  outer loop
    vertex 102.39866652562806 349.41839921860026 668.3339588030234
    vertex 109.00604962980108 349.418302296707 667.8339707927204
    vertex 102.72705012746138 349.4184893201781 668.3771913211194
  endloop
endfacet
facet normal -6.202070714942969e-07 -0.9999999999998077 -1.183508802771646e-10
  outer loop
    vertex 102.72705012746138 349.4184893201781 668.3771913211194
    vertex 109.00604962980108 349.418302296707 667.8339707927204
    vertex 103.24866652584737 349.4183804846463 668.5617156173273
  endloop
endfacet
facet normal -6.202070714942969e-07 -0.9999999999998077 -1.183508802771646e-10
  outer loop
    vertex 103.24866652584737 349.4183804846463 668.5617156173273
    vertex 109.00604962980108 349.418302296707 667.8339707927204
    vertex 109.00604962980113 349.418302296707 672.2339707951126
  endloop
endfacet
facet normal -6.202070714942969e-07 -0.9999999999998077 -1.183508802771646e-10
  outer loop
    vertex 103.24866652584737 349.4183804846463 668.5617156173273
    vertex 109.00604962980113 349.418302296707 672.2339707951126
    vertex 103.60074805362588 349.41839242044136 668.8318772756085
  endloop
endfacet
facet normal -6.202070714942969e-07 -0.9999999999998077 -1.183508802771646e-10
  outer loop
    vertex 103.60074805362588 349.41839242044136 668.8318772756085
    vertex 109.00604962980113 349.418302296707 672.2339707951126
    vertex 103.87090971180506 349.4184048195196 669.1839588034493
  endloop
endfacet
facet normal -6.202070714942969e-07 -0.9999999999998077 -1.183508802771646e-10
  outer loop
    vertex 103.87090971180506 349.4184048195196 669.1839588034493
    vertex 109.00604962980113 349.418302296707 672.2339707951126
    vertex 104.04074042984313 349.4184168369045 669.5939664265695
  endloop
endfacet
facet normal -6.202070714942969e-07 -0.9999999999998077 -1.183508802771646e-10
  outer loop
    vertex 104.04074042984313 349.4184168369045 669.5939664265695
    vertex 109.00604962980113 349.418302296707 672.2339707951126
    vertex 104.09866652496444 349.418427653631 670.0339827848096
  endloop
endfacet
facet normal -6.202070714942969e-07 -0.9999999999998077 -1.183508802771646e-10
  outer loop
    vertex 104.09866652496444 349.418427653631 670.0339827848096
    vertex 109.00604962980113 349.418302296707 672.2339707951126
    vertex 104.0407404298432 349.4184168369045 670.4739751612634
  endloop
endfacet
facet normal -6.202070714942969e-07 -0.9999999999998077 -1.183508802771646e-10
  outer loop
    vertex 104.0407404298432 349.4184168369045 670.4739751612634
    vertex 109.00604962980113 349.418302296707 672.2339707951126
    vertex 103.87090971180511 349.4184048195196 670.8839827843838
  endloop
endfacet
facet normal -6.202070714942969e-07 -0.9999999999998077 -1.183508802771646e-10
  outer loop
    vertex 103.87090971180511 349.4184048195196 670.8839827843838
    vertex 109.00604962980113 349.418302296707 672.2339707951126
    vertex 103.60074805362595 349.41839242044136 671.2360643122246
  endloop
endfacet
facet normal -6.202070714942969e-07 -0.9999999999998077 -1.183508802771646e-10
  outer loop
    vertex 103.60074805362595 349.41839242044136 671.2360643122246
    vertex 109.00604962980113 349.418302296707 672.2339707951126
    vertex 103.24866652584741 349.4183804846463 671.5062259705056
  endloop
endfacet
facet normal -6.202070714942969e-07 -0.9999999999998077 -1.183508802771646e-10
  outer loop
    vertex 103.24866652584741 349.4183804846463 671.5062259705056
    vertex 109.00604962980113 349.418302296707 672.2339707951126
    vertex 102.72705012746141 349.4184893201781 671.6907502667136
  endloop
endfacet
facet normal -6.202070714942969e-07 -0.9999999999998077 -1.183508802771646e-10
  outer loop
    vertex 102.72705012746141 349.4184893201781 671.6907502667136
    vertex 109.00604962980113 349.418302296707 672.2339707951126
    vertex 102.39866652562806 349.41839921860026 671.7339827848095
  endloop
endfacet
facet normal -6.202070714942969e-07 -0.9999999999998077 -1.183508802771646e-10
  outer loop
    vertex 96.70444425658931 349.41827104961294 667.8339723431126
    vertex 101.54866652651106 349.41835204961563 668.5617156173273
    vertex 96.70444425658931 349.41827104961294 672.2339712219806
  endloop
endfacet
facet normal -6.202070714942969e-07 -0.9999999999998077 -1.183508802771646e-10
  outer loop
    vertex 101.54866652651106 349.41835204961563 668.5617156173273
    vertex 96.70444425658931 349.41827104961294 667.8339723431126
    vertex 101.95867414974028 349.41835510648434 668.3918848991545
  endloop
endfacet
facet normal -6.202070714942969e-07 -0.9999999999998077 -1.183508802771646e-10
  outer loop
    vertex 101.95867414974028 349.41835510648434 668.3918848991545
    vertex 96.70444425658931 349.41827104961294 667.8339723431126
    vertex 102.39866652562806 349.41839921860026 668.3339588030234
  endloop
endfacet
facet normal -6.202070714942969e-07 -0.9999999999998077 -1.183508802771646e-10
  outer loop
    vertex 96.70444425658931 349.41827104961294 672.2339712219806
    vertex 101.54866652651106 349.41835204961563 668.5617156173273
    vertex 101.19658499853023 349.41835220723516 668.8318772756085
  endloop
endfacet
facet normal -6.202070714942969e-07 -0.9999999999998077 -1.183508802771646e-10
  outer loop
    vertex 96.70444425658931 349.41827104961294 672.2339712219806
    vertex 101.19658499853023 349.41835220723516 668.8318772756085
    vertex 100.92642334008745 349.4183555686016 669.1839588034492
  endloop
endfacet
facet normal -6.202070714942969e-07 -0.9999999999998077 -1.183508802771646e-10
  outer loop
    vertex 96.70444425658931 349.41827104961294 672.2339712219806
    vertex 100.92642334008745 349.4183555686016 669.1839588034492
    vertex 100.7565926217424 349.4183619046433 669.5939664265695
  endloop
endfacet
facet normal -6.202070714942969e-07 -0.9999999999998077 -1.183508802771646e-10
  outer loop
    vertex 96.70444425658931 349.41827104961294 672.2339712219806
    vertex 100.7565926217424 349.4183619046433 669.5939664265695
    vertex 100.69866640701997 349.4183401130479 670.0339776611168
  endloop
endfacet
facet normal -6.202070714942969e-07 -0.9999999999998077 -1.183508802771646e-10
  outer loop
    vertex 96.70444425658931 349.41827104961294 672.2339712219806
    vertex 100.69866640701997 349.4183401130479 670.0339776611168
    vertex 100.7565926217424 349.4183619046433 670.4739751612634
  endloop
endfacet
facet normal -6.202070714942969e-07 -0.9999999999998077 -1.183508802771646e-10
  outer loop
    vertex 96.70444425658931 349.41827104961294 672.2339712219806
    vertex 100.7565926217424 349.4183619046433 670.4739751612634
    vertex 100.92642334008745 349.4183555686016 670.8839827843838
  endloop
endfacet
facet normal -6.202070714942969e-07 -0.9999999999998077 -1.183508802771646e-10
  outer loop
    vertex 96.70444425658931 349.41827104961294 672.2339712219806
    vertex 100.92642334008745 349.4183555686016 670.8839827843838
    vertex 101.19658499853023 349.41835220723516 671.2360643122246
  endloop
endfacet
facet normal -6.202070714942969e-07 -0.9999999999998077 -1.183508802771646e-10
  outer loop
    vertex 96.70444425658931 349.41827104961294 672.2339712219806
    vertex 101.19658499853023 349.41835220723516 671.2360643122246
    vertex 101.54866652651106 349.41835204961563 671.5062259705056
  endloop
endfacet
facet normal -6.202070714942969e-07 -0.9999999999998077 -1.183508802771646e-10
  outer loop
    vertex 96.70444425658931 349.41827104961294 672.2339712219806
    vertex 101.54866652651106 349.41835204961563 671.5062259705056
    vertex 101.95867414974028 349.41835510648434 671.6760566886784
  endloop
endfacet
facet normal -6.202070714942969e-07 -0.9999999999998077 -1.183508802771646e-10
  outer loop
    vertex 96.70444425658931 349.41827104961294 672.2339712219806
    vertex 101.95867414974028 349.41835510648434 671.6760566886784
    vertex 102.39866652562806 349.41839921860026 671.7339827848095
  endloop
endfacet
facet normal -6.202070714942969e-07 -0.9999999999998077 -1.183508802771646e-10
  outer loop
    vertex 96.70444425658931 349.41827104961294 672.2339712219806
    vertex 102.39866652562806 349.41839921860026 671.7339827848095
    vertex 109.00604962980113 349.418302296707 672.2339707951126
  endloop
endfacet
facet normal 5.2997346964100166e-08 6.634323156790057e-10 0.9999999999999987
  outer loop
    vertex 109.40596965275053 348.4685611280273 667.8339707722221
    vertex 96.70444425658931 349.41827104961294 667.8339723431126
    vertex 96.70442444948928 348.4685298563317 667.8339723438064
  endloop
endfacet
facet normal 5.2997346964100166e-08 6.634323156790057e-10 0.9999999999999987
  outer loop
    vertex 96.70444425658931 349.41827104961294 667.8339723431126
    vertex 109.40596965275053 348.4685611280273 667.8339707722221
    vertex 109.00604962980108 349.418302296707 667.8339707927204
  endloop
endfacet
facet normal 5.2997346964100166e-08 6.634323156790057e-10 0.9999999999999987
  outer loop
    vertex 109.00604962980108 349.418302296707 667.8339707927204
    vertex 109.40596965275053 348.4685611280273 667.8339707722221
    vertex 109.40598156387146 348.61907655388836 667.833970771804
  endloop
endfacet
facet normal 3.0098435824022378e-05 0.00019067693240485388 -0.9999999813681958
  outer loop
    vertex 109.40595383019824 348.61889093234686 659.9364468932648
    vertex 96.7043850232939 347.41997200366 659.9360180166439
    vertex 96.7043312413336 348.61892348378916 659.9362155213183
  endloop
endfacet
facet normal 3.0098435824022378e-05 0.00019067693240485388 -0.9999999813681958
  outer loop
    vertex 96.7043850232939 347.41997200366 659.9360180166439
    vertex 109.40595383019824 348.61889093234686 659.9364468932648
    vertex 109.40600753450019 347.4211700074778 659.9362038439249
  endloop
endfacet
facet normal 4.18573805208041e-05 -0.9999999701000375 -0.00024093128518456067
  outer loop
    vertex 109.40600753450019 347.4211700074778 659.9362038439249
    vertex 96.70423253692651 347.4201333255358 661.936232110447
    vertex 96.7043850232939 347.41997200366 659.9360180166439
  endloop
endfacet
facet normal 4.18573805208041e-05 -0.9999999701000375 -0.00024093128518456067
  outer loop
    vertex 96.70423253692651 347.4201333255358 661.936232110447
    vertex 109.40600753450019 347.4211700074778 659.9362038439249
    vertex 109.40581124733473 347.42004476700833 661.9354816024461
  endloop
endfacet
facet normal -5.029902657799119e-05 0.9999999987345134 9.906247634944263e-07
  outer loop
    vertex 96.70420510229822 352.6176929236485 660.9362011372474
    vertex 101.19655023901116 352.61832035592244 668.8318245738103
    vertex 108.40542809221817 352.618228347328 660.936432509194
  endloop
endfacet
facet normal -5.029902657799119e-05 0.9999999987345134 9.906247634944263e-07
  outer loop
    vertex 101.19655023901116 352.61832035592244 668.8318245738103
    vertex 96.70420510229822 352.6176929236485 660.9362011372474
    vertex 100.92638858056839 352.6183237172889 669.183906101651
  endloop
endfacet
facet normal -5.029902657799119e-05 0.9999999987345134 9.906247634944263e-07
  outer loop
    vertex 100.92638858056839 352.6183237172889 669.183906101651
    vertex 96.70420510229822 352.6176929236485 660.9362011372474
    vertex 96.7042253098347 352.61765687567805 679.1317244144274
  endloop
endfacet
facet normal -5.029902657799119e-05 0.9999999987345134 9.906247634944263e-07
  outer loop
    vertex 108.40542809221817 352.618228347328 660.936432509194
    vertex 101.19655023901116 352.61832035592244 668.8318245738103
    vertex 101.54863176699199 352.61832019830285 668.5616629155293
  endloop
endfacet
facet normal -5.029902657799119e-05 0.9999999987345134 9.906247634944263e-07
  outer loop
    vertex 108.40542809221817 352.618228347328 660.936432509194
    vertex 101.54863176699199 352.61832019830285 668.5616629155293
    vertex 101.95863939022122 352.6183232551716 668.3918321973565
  endloop
endfacet
facet normal -5.029902657799119e-05 0.9999999987345134 9.906247634944263e-07
  outer loop
    vertex 108.40542809221817 352.618228347328 660.936432509194
    vertex 101.95863939022122 352.6183232551716 668.3918321973565
    vertex 102.398631766109 352.6183673672875 668.3339061012254
  endloop
endfacet
facet normal -5.029902657799119e-05 0.9999999987345134 9.906247634944263e-07
  outer loop
    vertex 100.92638858056839 352.6183237172889 669.183906101651
    vertex 96.7042253098347 352.61765687567805 679.1317244144274
    vertex 100.75655786222333 352.61833005333057 669.5939137247715
  endloop
endfacet
facet normal -5.029902657799119e-05 0.9999999987345134 9.906247634944263e-07
  outer loop
    vertex 100.75655786222333 352.61833005333057 669.5939137247715
    vertex 96.7042253098347 352.61765687567805 679.1317244144274
    vertex 100.6986316475009 352.6183082617352 670.0340303629148
  endloop
endfacet
facet normal -5.029902657799119e-05 0.9999999987345134 9.906247634944263e-07
  outer loop
    vertex 100.6986316475009 352.6183082617352 670.0340303629148
    vertex 96.7042253098347 352.61765687567805 679.1317244144274
    vertex 100.75655786222333 352.61833005333057 670.4740278630615
  endloop
endfacet
facet normal -5.029902657799119e-05 0.9999999987345134 9.906247634944263e-07
  outer loop
    vertex 100.75655786222333 352.61833005333057 670.4740278630615
    vertex 96.7042253098347 352.61765687567805 679.1317244144274
    vertex 100.92638858056839 352.6183237172889 670.8840354861819
  endloop
endfacet
facet normal -5.029902657799119e-05 0.9999999987345134 9.906247634944263e-07
  outer loop
    vertex 100.92638858056839 352.6183237172889 670.8840354861819
    vertex 96.7042253098347 352.61765687567805 679.1317244144274
    vertex 101.19655023901116 352.61832035592244 671.2361170140226
  endloop
endfacet
facet normal -5.029902657799119e-05 0.9999999987345134 9.906247634944263e-07
  outer loop
    vertex 101.19655023901116 352.61832035592244 671.2361170140226
    vertex 96.7042253098347 352.61765687567805 679.1317244144274
    vertex 101.54863176699199 352.61832019830285 671.5062786723037
  endloop
endfacet
facet normal -5.029902657799119e-05 0.9999999987345134 9.906247634944263e-07
  outer loop
    vertex 101.54863176699199 352.61832019830285 671.5062786723037
    vertex 96.7042253098347 352.61765687567805 679.1317244144274
    vertex 101.95863939022122 352.6183232551716 671.6761093904764
  endloop
endfacet
facet normal -5.029902657799119e-05 0.9999999987345134 9.906247634944263e-07
  outer loop
    vertex 101.95863939022122 352.6183232551716 671.6761093904764
    vertex 96.7042253098347 352.61765687567805 679.1317244144274
    vertex 102.398631766109 352.6183673672875 671.7340354866076
  endloop
endfacet
facet normal -5.029902657799119e-05 0.9999999987345134 9.906247634944263e-07
  outer loop
    vertex 102.398631766109 352.6183673672875 671.7340354866076
    vertex 96.7042253098347 352.61765687567805 679.1317244144274
    vertex 108.40542809221822 352.618228347328 679.131509078639
  endloop
endfacet
facet normal -5.029902657799119e-05 0.9999999987345134 9.906247634944263e-07
  outer loop
    vertex 108.40542809221817 352.618228347328 660.936432509194
    vertex 103.870874952286 352.6183729682068 669.1839061016511
    vertex 108.40542809221822 352.618228347328 679.131509078639
  endloop
endfacet
facet normal -5.029902657799119e-05 0.9999999987345134 9.906247634944263e-07
  outer loop
    vertex 103.870874952286 352.6183729682068 669.1839061016511
    vertex 108.40542809221817 352.618228347328 660.936432509194
    vertex 103.60071329410684 352.6183605691286 668.8318245738103
  endloop
endfacet
facet normal -5.029902657799119e-05 0.9999999987345134 9.906247634944263e-07
  outer loop
    vertex 103.60071329410684 352.6183605691286 668.8318245738103
    vertex 108.40542809221817 352.618228347328 660.936432509194
    vertex 103.24863176632833 352.6183486333336 668.5616629155293
  endloop
endfacet
facet normal -5.029902657799119e-05 0.9999999987345134 9.906247634944263e-07
  outer loop
    vertex 103.24863176632833 352.6183486333336 668.5616629155293
    vertex 108.40542809221817 352.618228347328 660.936432509194
    vertex 102.72701536794234 352.61845746886536 668.3771386193213
  endloop
endfacet
facet normal -5.029902657799119e-05 0.9999999987345134 9.906247634944263e-07
  outer loop
    vertex 102.72701536794234 352.61845746886536 668.3771386193213
    vertex 108.40542809221817 352.618228347328 660.936432509194
    vertex 102.398631766109 352.6183673672875 668.3339061012254
  endloop
endfacet
facet normal -5.029902657799119e-05 0.9999999987345134 9.906247634944263e-07
  outer loop
    vertex 108.40542809221822 352.618228347328 679.131509078639
    vertex 103.870874952286 352.6183729682068 669.1839061016511
    vertex 104.04070567032409 352.6183849855917 669.5939137247715
  endloop
endfacet
facet normal -5.029902657799119e-05 0.9999999987345134 9.906247634944263e-07
  outer loop
    vertex 108.40542809221822 352.618228347328 679.131509078639
    vertex 104.04070567032409 352.6183849855917 669.5939137247715
    vertex 104.09863176544539 352.6183958023183 670.0340354866076
  endloop
endfacet
facet normal -5.029902657799119e-05 0.9999999987345134 9.906247634944263e-07
  outer loop
    vertex 108.40542809221822 352.618228347328 679.131509078639
    vertex 104.09863176544539 352.6183958023183 670.0340354866076
    vertex 104.04070567032416 352.6183849855917 670.4740278630615
  endloop
endfacet
facet normal -5.029902657799119e-05 0.9999999987345134 9.906247634944263e-07
  outer loop
    vertex 108.40542809221822 352.618228347328 679.131509078639
    vertex 104.04070567032416 352.6183849855917 670.4740278630615
    vertex 103.87087495228607 352.6183729682068 670.8840354861818
  endloop
endfacet
facet normal -5.029902657799119e-05 0.9999999987345134 9.906247634944263e-07
  outer loop
    vertex 108.40542809221822 352.618228347328 679.131509078639
    vertex 103.87087495228607 352.6183729682068 670.8840354861818
    vertex 103.60071329410691 352.6183605691286 671.2361170140226
  endloop
endfacet
facet normal -5.029902657799119e-05 0.9999999987345134 9.906247634944263e-07
  outer loop
    vertex 108.40542809221822 352.618228347328 679.131509078639
    vertex 103.60071329410691 352.6183605691286 671.2361170140226
    vertex 103.24863176632837 352.6183486333336 671.5062786723037
  endloop
endfacet
facet normal -5.029902657799119e-05 0.9999999987345134 9.906247634944263e-07
  outer loop
    vertex 108.40542809221822 352.618228347328 679.131509078639
    vertex 103.24863176632837 352.6183486333336 671.5062786723037
    vertex 102.72701536794236 352.61845746886536 671.6908029685117
  endloop
endfacet
facet normal -5.029902657799119e-05 0.9999999987345134 9.906247634944263e-07
  outer loop
    vertex 108.40542809221822 352.618228347328 679.131509078639
    vertex 102.72701536794236 352.61845746886536 671.6908029685117
    vertex 102.398631766109 352.6183673672875 671.7340354866076
  endloop
endfacet
facet normal 2.9126386817441094e-05 -8.44743410023804e-05 0.9999999960078698
  outer loop
    vertex 96.70423253692651 347.4201333255358 661.936232110447
    vertex 109.40576814724778 348.44973379962477 661.9357296867556
    vertex 96.70422195904585 348.44972381399344 661.9361038935508
  endloop
endfacet
facet normal 2.9126386817441094e-05 -8.44743410023804e-05 0.9999999960078698
  outer loop
    vertex 109.40576814724778 348.44973379962477 661.9357296867556
    vertex 96.70423253692651 347.4201333255358 661.936232110447
    vertex 109.40581124733473 347.42004476700833 661.9354816024461
  endloop
endfacet
facet normal 0.9999997238484718 -0.000743043602417668 1.3754461099041352e-05
  outer loop
    vertex 109.4059696527506 348.4685611280273 672.2339708156109
    vertex 109.40595383019829 348.61889093234686 680.1314946945681
    vertex 109.40576814724783 348.44973379962477 678.1322119010773
  endloop
endfacet
facet normal 0.9999997238484718 -0.000743043602417668 1.3754461099041352e-05
  outer loop
    vertex 109.40595383019829 348.61889093234686 680.1314946945681
    vertex 109.4059696527506 348.4685611280273 672.2339708156109
    vertex 109.4059815638715 348.61907655388836 672.2339708160289
  endloop
endfacet
facet normal 6.741342528359046e-06 -0.9218925967018032 -0.3874455317860318
  outer loop
    vertex 109.40586878731014 347.25027810863094 675.1329330924686
    vertex 96.7044244494893 348.4685298563317 672.2339712212868
    vertex 109.4059696527506 348.4685611280273 672.2339708156109
  endloop
endfacet
facet normal 6.741342528359046e-06 -0.9218925967018032 -0.3874455317860318
  outer loop
    vertex 96.7044244494893 348.4685298563317 672.2339712212868
    vertex 109.40586878731014 347.25027810863094 675.1329330924686
    vertex 96.70432291528185 347.2502654216879 675.1325594786414
  endloop
endfacet
facet normal 0.9999999942715196 4.435250051364469e-05 -9.74156888863212e-05
  outer loop
    vertex 109.40576814724783 348.44973379962477 678.1322119010773
    vertex 109.40600768437419 347.4175894206519 680.1317386065833
    vertex 109.40581139720877 347.4164641801824 678.1324608480621
  endloop
endfacet
facet normal 0.9999999942715196 4.435250051364469e-05 -9.74156888863212e-05
  outer loop
    vertex 109.40600768437419 347.4175894206519 680.1317386065833
    vertex 109.40576814724783 348.44973379962477 678.1322119010773
    vertex 109.40595383019829 348.61889093234686 680.1314946945681
  endloop
endfacet
facet normal -1.2165893330395929e-05 -0.9285038840109334 0.37132268612165675
  outer loop
    vertex 109.40586878731014 347.25027810863094 675.1329330924686
    vertex 96.70422195904585 348.44972381399344 678.1318396715423
    vertex 96.70432291528185 347.2502654216879 675.1325594786414
  endloop
endfacet
facet normal -1.2165893330395929e-05 -0.9285038840109334 0.37132268612165675
  outer loop
    vertex 96.70422195904585 348.44972381399344 678.1318396715423
    vertex 109.40586878731014 347.25027810863094 675.1329330924686
    vertex 109.40576814724783 348.44973379962477 678.1322119010773
  endloop
endfacet
facet normal 0.999999999415446 -1.5105330941561016e-06 3.4158838275042135e-05
  outer loop
    vertex 109.4059696527506 348.4685611280273 672.2339708156109
    vertex 109.40576814724783 348.44973379962477 678.1322119010773
    vertex 109.40586878731014 347.25027810863094 675.1329330924686
  endloop
endfacet
facet normal -0.9999999998843281 -1.5187064364531732e-05 8.349040240927838e-07
  outer loop
    vertex 96.70442444948928 348.4685298563317 667.8339723438064
    vertex 96.70422195904585 348.44972381399344 661.9361038935508
    vertex 96.70432291528184 347.2502672921823 664.9353840864518
  endloop
endfacet
facet normal -0.9999999998843281 -1.5187064364531732e-05 8.349040240927838e-07
  outer loop
    vertex 96.70435144887009 348.6188874358187 680.1317100303564
    vertex 96.70425289433699 347.4165166907394 678.1316943039029
    vertex 96.70440538070437 347.4163553688636 680.1319083977062
  endloop
endfacet
facet normal -0.9999999998843281 -1.5187064364531732e-05 8.349040240927838e-07
  outer loop
    vertex 96.70425289433699 347.4165166907394 678.1316943039029
    vertex 96.70435144887009 348.6188874358187 680.1317100303564
    vertex 96.70422195904585 348.44972381399344 678.1318396715423
  endloop
endfacet
facet normal -0.9999999998843281 -1.5187064364531732e-05 8.349040240927838e-07
  outer loop
    vertex 96.70422195904585 348.44972381399344 678.1318396715423
    vertex 96.70435144887009 348.6188874358187 680.1317100303564
    vertex 96.7044244494893 348.4685298563317 672.2339712212868
  endloop
endfacet
facet normal -0.9999999998843281 -1.5187064364531732e-05 8.349040240927838e-07
  outer loop
    vertex 96.7044244494893 348.4685298563317 672.2339712212868
    vertex 96.70435144887009 348.6188874358187 680.1317100303564
    vertex 96.70444425658931 349.41827104961294 672.2339712219806
  endloop
endfacet
facet normal -0.9999999998843281 -1.5187064364531732e-05 8.349040240927838e-07
  outer loop
    vertex 96.70444425658931 349.41827104961294 672.2339712219806
    vertex 96.70435144887009 348.6188874358187 680.1317100303564
    vertex 96.7042253098347 352.61765687567805 679.1317244144274
  endloop
endfacet
facet normal -0.9999999998843281 -1.5187064364531732e-05 8.349040240927838e-07
  outer loop
    vertex 96.70444425658931 349.41827104961294 672.2339712219806
    vertex 96.7042253098347 352.61765687567805 679.1317244144274
    vertex 96.70444425658931 349.41827104961294 667.8339723431126
  endloop
endfacet
facet normal -0.9999999998843281 -1.5187064364531732e-05 8.349040240927838e-07
  outer loop
    vertex 96.70423253692651 347.4201333255358 661.936232110447
    vertex 96.7043312413336 348.61892348378916 659.9362155213183
    vertex 96.7043850232939 347.41997200366 659.9360180166439
  endloop
endfacet
facet normal -0.9999999998843281 -1.5187064364531732e-05 8.349040240927838e-07
  outer loop
    vertex 96.7043312413336 348.61892348378916 659.9362155213183
    vertex 96.70423253692651 347.4201333255358 661.936232110447
    vertex 96.70422195904585 348.44972381399344 661.9361038935508
  endloop
endfacet
facet normal -0.9999999998843281 -1.5187064364531732e-05 8.349040240927838e-07
  outer loop
    vertex 96.7043312413336 348.61892348378916 659.9362155213183
    vertex 96.70422195904585 348.44972381399344 661.9361038935508
    vertex 96.70442444948928 348.4685298563317 667.8339723438064
  endloop
endfacet
facet normal -0.9999999998843281 -1.5187064364531732e-05 8.349040240927838e-07
  outer loop
    vertex 96.7043312413336 348.61892348378916 659.9362155213183
    vertex 96.70442444948928 348.4685298563317 667.8339723438064
    vertex 96.70444425658931 349.41827104961294 667.8339723431126
  endloop
endfacet
facet normal -0.9999999998843281 -1.5187064364531732e-05 8.349040240927838e-07
  outer loop
    vertex 96.7043312413336 348.61892348378916 659.9362155213183
    vertex 96.70444425658931 349.41827104961294 667.8339723431126
    vertex 96.70420510229822 352.6176929236485 660.9362011372474
  endloop
endfacet
facet normal -0.9999999998843281 -1.5187064364531732e-05 8.349040240927838e-07
  outer loop
    vertex 96.70420510229822 352.6176929236485 660.9362011372474
    vertex 96.70444425658931 349.41827104961294 667.8339723431126
    vertex 96.7042253098347 352.61765687567805 679.1317244144274
  endloop
endfacet
facet normal -0.9999999998843281 -1.5187064364531732e-05 8.349040240927838e-07
  outer loop
    vertex 96.7044244494893 348.4685298563317 672.2339712212868
    vertex 96.70432291528185 347.2502654216879 675.1325594786414
    vertex 96.70422195904585 348.44972381399344 678.1318396715423
  endloop
endfacet
facet normal 1.637532147953768e-05 0.0001839801621678054 0.9999999829415743
  outer loop
    vertex 96.70440538070437 347.4163553688636 680.1319083977062
    vertex 109.40595383019829 348.61889093234686 680.1314946945681
    vertex 96.70435144887009 348.6188874358187 680.1317100303564
  endloop
endfacet
facet normal 1.637532147953768e-05 0.0001839801621678054 0.9999999829415743
  outer loop
    vertex 109.40595383019829 348.61889093234686 680.1314946945681
    vertex 96.70440538070437 347.4163553688636 680.1319083977062
    vertex 109.40600768437419 347.4175894206519 680.1317386065833
  endloop
endfacet
endsolid Development Mockup rev2
