solid Development Mockup
facet normal 1.24755538539058e-15 1.0 7.17181589252777e-14
outer loop
vertex 373.28447000764 282.319969217026 602.961507646527
vertex 374.578565233153 282.149598348471 609.561507646527
vertex 374.578565233152 282.149598348471 602.961507646527
endloop
endfacet
facet normal 0.258819045102528 0.965925826289066 5.32798545929852e-14
outer loop
vertex 374.578565233153 282.149598348471 609.561507646527
vertex 373.28447000764 282.319969217026 602.961507646527
vertex 373.28447000764 282.319969217025 609.561507646527
endloop
endfacet
facet normal -0.793353340291252 0.608761429008699 -6.72432386804755e-14
outer loop
vertex 376.112897132386 274.491542092281 610.561507646529
vertex 376.748571622777 275.319969217026 602.961507646528
vertex 376.112897132386 274.49154209228 602.961507646528
endloop
endfacet
facet normal -0.866025403784449 0.499999999999983 -5.77772194050702e-14
outer loop
vertex 376.748571622777 275.319969217026 602.961507646528
vertex 376.112897132386 274.491542092281 610.561507646529
vertex 376.748571622777 275.319969217027 610.561507646529
endloop
endfacet
facet normal 0.866025403784445 -0.49999999999999 -8.93779448231863e-14
outer loop
vertex 377.614597026562 274.819969217026 602.961507646527
vertex 378.114099139085 276.025873991513 609.561507646527
vertex 377.614597026562 274.819969217025 609.561507646527
endloop
endfacet
facet normal 0.96592582628907 -0.258819045102515 -7.82545633184133e-14
outer loop
vertex 378.114099139085 276.025873991513 609.561507646527
vertex 377.614597026562 274.819969217026 602.961507646527
vertex 378.114099139085 276.025873991513 602.961507646527
endloop
endfacet
facet normal 0.499999999999988 -0.866025403784445 -9.30088788645756e-14
outer loop
vertex 375.78447000764 272.989842198103 609.561507646527
vertex 374.578565233152 272.490340085581 602.961507646527
vertex 375.78447000764 272.989842198104 602.961507646527
endloop
endfacet
facet normal 0.258819045102507 -0.965925826289072 -8.5268989246673e-14
outer loop
vertex 374.578565233152 272.490340085581 602.961507646527
vertex 375.78447000764 272.989842198103 609.561507646527
vertex 374.578565233153 272.49034008558 609.561507646527
endloop
endfacet
facet normal 0.923879532511273 0.382683432365123 -2.53816449583803e-14
outer loop
vertex 369.420766702483 276.284693036616 602.961507646528
vertex 369.820368392502 275.319969217027 610.561507646528
vertex 369.820368392502 275.319969217026 602.961507646527
endloop
endfacet
facet normal 0.866025403784449 0.499999999999982 -3.72114508185388e-14
outer loop
vertex 369.820368392502 275.319969217027 610.561507646528
vertex 369.420766702483 276.284693036616 602.961507646528
vertex 369.420766702483 276.284693036617 610.561507646529
endloop
endfacet
facet normal 1.0 -1.33577537335732e-14 1.49669023309752e-14
outer loop
vertex 379.28447000764 277.319969217026 609.561507646528
vertex 379.080024965374 275.767054946411 610.561507646529
vertex 379.080024965374 275.767054946411 609.561507646528
endloop
endfacet
facet normal 0.965925826289073 -0.258819045102503 4.84727738365662e-14
outer loop
vertex 379.080024965374 275.767054946411 610.561507646529
vertex 379.28447000764 277.319969217026 609.561507646528
vertex 379.28447000764 277.319969217026 610.561507646528
endloop
endfacet
facet normal -0.500000000000006 0.866025403784435 -1.21302724806599e-13
outer loop
vertex 370.28447000764 282.516121639732 609.561507646527
vertex 371.731555737025 283.115524174761 610.561507646528
vertex 371.731555737025 283.11552417476 609.561507646527
endloop
endfacet
facet normal -0.258819045102517 0.965925826289069 -1.30822623476626e-13
outer loop
vertex 371.731555737025 283.115524174761 610.561507646528
vertex 370.28447000764 282.516121639732 609.561507646527
vertex 370.28447000764 282.516121639733 610.561507646528
endloop
endfacet
facet normal 0.866025403784432 -0.500000000000011 7.86753059102491e-14
outer loop
vertex 378.480622430346 274.319969217026 609.561507646528
vertex 377.527110694759 273.077328529907 610.561507646529
vertex 377.527110694759 273.077328529906 609.561507646529
endloop
endfacet
facet normal 0.707106781186573 -0.707106781186522 1.03516245903231e-13
outer loop
vertex 377.527110694759 273.077328529907 610.561507646529
vertex 378.480622430346 274.319969217026 609.561507646528
vertex 378.480622430346 274.319969217026 610.561507646529
endloop
endfacet
facet normal 0.382683432364974 0.923879532511334 3.16248516190632e-13
outer loop
vertex 371.58447000764 274.375482844159 610.561507646529
vertex 372.404485254294 274.035821407645 602.961507646527
vertex 371.584470007643 274.375482844161 602.961507646527
endloop
endfacet
facet normal 0.382683432364974 0.923879532511334 3.16248516190632e-13
outer loop
vertex 372.404485254294 274.035821407645 602.961507646527
vertex 371.58447000764 274.375482844159 610.561507646529
vertex 372.404485254292 274.035821407643 610.561507646529
endloop
endfacet
facet normal -0.382683432364974 -0.923879532511334 1.28659568586555e-13
outer loop
vertex 374.984470007639 280.264455589893 610.561507646528
vertex 374.164454760988 280.604117026408 602.961507646527
vertex 374.984470007639 280.264455589892 602.961507646527
endloop
endfacet
facet normal -0.382683432364974 -0.923879532511334 1.28659568586555e-13
outer loop
vertex 374.164454760988 280.604117026408 602.961507646527
vertex 374.984470007639 280.264455589893 610.561507646528
vertex 374.164454760988 280.604117026409 610.561507646528
endloop
endfacet
facet normal -0.258819045102508 -0.965925826289072 -5.32798545929869e-14
outer loop
vertex 371.990374782127 272.49034008558 609.561507646527
vertex 370.78447000764 272.989842198104 602.961507646527
vertex 371.990374782127 272.490340085581 602.961507646527
endloop
endfacet
facet normal -0.499999999999993 -0.866025403784443 -3.12106162193054e-14
outer loop
vertex 370.78447000764 272.989842198104 602.961507646527
vertex 371.990374782127 272.49034008558 609.561507646527
vertex 370.78447000764 272.989842198103 609.561507646527
endloop
endfacet
facet normal -1.63590259758545e-14 -4.76663000377374e-14 -1.0
outer loop
vertex 367.488915049905 278.872883487641 609.561507646528
vertex 367.488915049905 275.767054946411 609.561507646528
vertex 367.28447000764 277.319969217026 609.561507646528
endloop
endfacet
facet normal -1.63590259758545e-14 -4.76663000377374e-14 -1.0
outer loop
vertex 367.488915049905 275.767054946411 609.561507646528
vertex 367.488915049905 278.872883487641 609.561507646528
vertex 368.088317584933 280.319969217026 609.561507646527
endloop
endfacet
facet normal -1.63590259758545e-14 -4.76663000377374e-14 -1.0
outer loop
vertex 367.488915049905 275.767054946411 609.561507646528
vertex 368.088317584933 280.319969217026 609.561507646527
vertex 368.088317584933 274.319969217026 609.561507646528
endloop
endfacet
facet normal -1.63590259758545e-14 -4.76663000377374e-14 -1.0
outer loop
vertex 368.088317584933 274.319969217026 609.561507646528
vertex 368.088317584933 280.319969217026 609.561507646527
vertex 368.28447000764 277.319969217026 609.561507646528
endloop
endfacet
facet normal -1.63590259758545e-14 -4.76663000377374e-14 -1.0
outer loop
vertex 368.28447000764 277.319969217026 609.561507646528
vertex 368.088317584933 280.319969217026 609.561507646527
vertex 368.454840876195 278.614064442538 609.561507646528
endloop
endfacet
facet normal -1.63590259758545e-14 -4.76663000377374e-14 -1.0
outer loop
vertex 368.454840876195 278.614064442538 609.561507646528
vertex 368.088317584933 280.319969217026 609.561507646527
vertex 369.04182932052 281.562609904145 609.561507646527
endloop
endfacet
facet normal -1.63590259758545e-14 -4.76663000377374e-14 -1.0
outer loop
vertex 368.454840876195 278.614064442538 609.561507646528
vertex 369.04182932052 281.562609904145 609.561507646527
vertex 368.954342988718 279.819969217025 609.561507646527
endloop
endfacet
facet normal -1.63590259758545e-14 -4.76663000377374e-14 -1.0
outer loop
vertex 368.954342988718 279.819969217025 609.561507646527
vertex 369.04182932052 281.562609904145 609.561507646527
vertex 369.748936101707 280.855503122958 609.561507646527
endloop
endfacet
facet normal -1.63590259758545e-14 -4.76663000377374e-14 -1.0
outer loop
vertex 369.748936101707 280.855503122958 609.561507646527
vertex 369.04182932052 281.562609904145 609.561507646527
vertex 370.28447000764 282.516121639732 609.561507646527
endloop
endfacet
facet normal -1.63590259758545e-14 -4.76663000377374e-14 -1.0
outer loop
vertex 369.748936101707 280.855503122958 609.561507646527
vertex 370.28447000764 282.516121639732 609.561507646527
vertex 370.78447000764 281.650096235948 609.561507646527
endloop
endfacet
facet normal -1.63590259758545e-14 -4.76663000377374e-14 -1.0
outer loop
vertex 370.78447000764 281.650096235948 609.561507646527
vertex 370.28447000764 282.516121639732 609.561507646527
vertex 371.731555737025 283.11552417476 609.561507646527
endloop
endfacet
facet normal -1.63590259758545e-14 -4.76663000377374e-14 -1.0
outer loop
vertex 370.78447000764 281.650096235948 609.561507646527
vertex 371.731555737025 283.11552417476 609.561507646527
vertex 371.990374782127 282.149598348471 609.561507646527
endloop
endfacet
facet normal -1.63590259758545e-14 -4.76663000377374e-14 -1.0
outer loop
vertex 371.990374782127 282.149598348471 609.561507646527
vertex 371.731555737025 283.11552417476 609.561507646527
vertex 373.28447000764 283.319969217026 609.561507646527
endloop
endfacet
facet normal -1.63590259758545e-14 -4.76663000377374e-14 -1.0
outer loop
vertex 371.990374782127 282.149598348471 609.561507646527
vertex 373.28447000764 283.319969217026 609.561507646527
vertex 373.28447000764 282.319969217025 609.561507646527
endloop
endfacet
facet normal -1.63590259758545e-14 -4.76663000377374e-14 -1.0
outer loop
vertex 373.28447000764 282.319969217025 609.561507646527
vertex 373.28447000764 283.319969217026 609.561507646527
vertex 374.837384278255 283.11552417476 609.561507646527
endloop
endfacet
facet normal -1.63590259758545e-14 -4.76663000377374e-14 -1.0
outer loop
vertex 373.28447000764 282.319969217025 609.561507646527
vertex 374.837384278255 283.11552417476 609.561507646527
vertex 374.578565233153 282.149598348471 609.561507646527
endloop
endfacet
facet normal -1.63590259758545e-14 -4.76663000377374e-14 -1.0
outer loop
vertex 374.578565233153 282.149598348471 609.561507646527
vertex 374.837384278255 283.11552417476 609.561507646527
vertex 375.78447000764 281.650096235948 609.561507646527
endloop
endfacet
facet normal -1.63590259758545e-14 -4.76663000377374e-14 -1.0
outer loop
vertex 375.78447000764 281.650096235948 609.561507646527
vertex 374.837384278255 283.11552417476 609.561507646527
vertex 376.28447000764 282.516121639732 609.561507646527
endloop
endfacet
facet normal -1.63590259758545e-14 -4.76663000377374e-14 -1.0
outer loop
vertex 375.78447000764 281.650096235948 609.561507646527
vertex 376.28447000764 282.516121639732 609.561507646527
vertex 376.820003913573 280.855503122958 609.561507646527
endloop
endfacet
facet normal -1.63590259758545e-14 -4.76663000377374e-14 -1.0
outer loop
vertex 376.820003913573 280.855503122958 609.561507646527
vertex 376.28447000764 282.516121639732 609.561507646527
vertex 377.527110694759 281.562609904145 609.561507646527
endloop
endfacet
facet normal -1.63590259758545e-14 -4.76663000377374e-14 -1.0
outer loop
vertex 376.820003913573 280.855503122958 609.561507646527
vertex 377.527110694759 281.562609904145 609.561507646527
vertex 377.614597026562 279.819969217025 609.561507646527
endloop
endfacet
facet normal -1.63590259758545e-14 -4.76663000377374e-14 -1.0
outer loop
vertex 377.614597026562 279.819969217025 609.561507646527
vertex 377.527110694759 281.562609904145 609.561507646527
vertex 378.480622430346 280.319969217026 609.561507646528
endloop
endfacet
facet normal -1.63590259758545e-14 -4.76663000377374e-14 -1.0
outer loop
vertex 377.614597026562 279.819969217025 609.561507646527
vertex 378.480622430346 280.319969217026 609.561507646528
vertex 378.114099139085 278.614064442538 609.561507646526
endloop
endfacet
facet normal -1.63590259758545e-14 -4.76663000377374e-14 -1.0
outer loop
vertex 378.114099139085 278.614064442538 609.561507646526
vertex 378.480622430346 280.319969217026 609.561507646528
vertex 378.28447000764 277.319969217025 609.561507646527
endloop
endfacet
facet normal -1.63590259758545e-14 -4.76663000377374e-14 -1.0
outer loop
vertex 368.088317584933 274.319969217026 609.561507646528
vertex 368.454840876195 276.025873991513 609.561507646528
vertex 369.04182932052 273.077328529907 609.561507646528
endloop
endfacet
facet normal -1.63590259758545e-14 -4.76663000377374e-14 -1.0
outer loop
vertex 368.454840876195 276.025873991513 609.561507646528
vertex 368.088317584933 274.319969217026 609.561507646528
vertex 368.28447000764 277.319969217026 609.561507646528
endloop
endfacet
facet normal -1.63590259758545e-14 -4.76663000377374e-14 -1.0
outer loop
vertex 369.04182932052 273.077328529907 609.561507646528
vertex 368.454840876195 276.025873991513 609.561507646528
vertex 368.954342988718 274.819969217026 609.561507646527
endloop
endfacet
facet normal -1.63590259758545e-14 -4.76663000377374e-14 -1.0
outer loop
vertex 369.04182932052 273.077328529907 609.561507646528
vertex 368.954342988718 274.819969217026 609.561507646527
vertex 369.748936101707 273.784435311093 609.561507646527
endloop
endfacet
facet normal -1.63590259758545e-14 -4.76663000377374e-14 -1.0
outer loop
vertex 369.04182932052 273.077328529907 609.561507646528
vertex 369.748936101707 273.784435311093 609.561507646527
vertex 370.28447000764 272.12381679432 609.561507646528
endloop
endfacet
facet normal -1.63590259758545e-14 -4.76663000377374e-14 -1.0
outer loop
vertex 370.28447000764 272.12381679432 609.561507646528
vertex 369.748936101707 273.784435311093 609.561507646527
vertex 370.78447000764 272.989842198103 609.561507646527
endloop
endfacet
facet normal -1.63590259758545e-14 -4.76663000377374e-14 -1.0
outer loop
vertex 370.28447000764 272.12381679432 609.561507646528
vertex 370.78447000764 272.989842198103 609.561507646527
vertex 371.731555737025 271.524414259292 609.561507646529
endloop
endfacet
facet normal -1.63590259758545e-14 -4.76663000377374e-14 -1.0
outer loop
vertex 371.731555737025 271.524414259292 609.561507646529
vertex 370.78447000764 272.989842198103 609.561507646527
vertex 371.990374782127 272.49034008558 609.561507646527
endloop
endfacet
facet normal -1.63590259758545e-14 -4.76663000377374e-14 -1.0
outer loop
vertex 371.731555737025 271.524414259292 609.561507646529
vertex 371.990374782127 272.49034008558 609.561507646527
vertex 373.28447000764 271.319969217026 609.561507646529
endloop
endfacet
facet normal -1.63590259758545e-14 -4.76663000377374e-14 -1.0
outer loop
vertex 373.28447000764 271.319969217026 609.561507646529
vertex 371.990374782127 272.49034008558 609.561507646527
vertex 373.28447000764 272.319969217026 609.561507646527
endloop
endfacet
facet normal -1.63590259758545e-14 -4.76663000377374e-14 -1.0
outer loop
vertex 373.28447000764 271.319969217026 609.561507646529
vertex 373.28447000764 272.319969217026 609.561507646527
vertex 374.837384278255 271.524414259291 609.561507646528
endloop
endfacet
facet normal -1.63590259758545e-14 -4.76663000377374e-14 -1.0
outer loop
vertex 374.837384278255 271.524414259291 609.561507646528
vertex 373.28447000764 272.319969217026 609.561507646527
vertex 374.578565233153 272.49034008558 609.561507646527
endloop
endfacet
facet normal -1.63590259758545e-14 -4.76663000377374e-14 -1.0
outer loop
vertex 374.837384278255 271.524414259291 609.561507646528
vertex 374.578565233153 272.49034008558 609.561507646527
vertex 375.78447000764 272.989842198103 609.561507646527
endloop
endfacet
facet normal -1.63590259758545e-14 -4.76663000377374e-14 -1.0
outer loop
vertex 374.837384278255 271.524414259291 609.561507646528
vertex 375.78447000764 272.989842198103 609.561507646527
vertex 376.28447000764 272.123816794319 609.561507646528
endloop
endfacet
facet normal -1.63590259758545e-14 -4.76663000377374e-14 -1.0
outer loop
vertex 376.28447000764 272.123816794319 609.561507646528
vertex 375.78447000764 272.989842198103 609.561507646527
vertex 376.820003913573 273.784435311093 609.561507646527
endloop
endfacet
facet normal -1.63590259758545e-14 -4.76663000377374e-14 -1.0
outer loop
vertex 376.28447000764 272.123816794319 609.561507646528
vertex 376.820003913573 273.784435311093 609.561507646527
vertex 377.527110694759 273.077328529906 609.561507646529
endloop
endfacet
facet normal -1.63590259758545e-14 -4.76663000377374e-14 -1.0
outer loop
vertex 377.527110694759 273.077328529906 609.561507646529
vertex 376.820003913573 273.784435311093 609.561507646527
vertex 377.614597026562 274.819969217025 609.561507646527
endloop
endfacet
facet normal -1.63590259758545e-14 -4.76663000377374e-14 -1.0
outer loop
vertex 377.527110694759 273.077328529906 609.561507646529
vertex 377.614597026562 274.819969217025 609.561507646527
vertex 378.480622430346 274.319969217026 609.561507646528
endloop
endfacet
facet normal -1.63590259758545e-14 -4.76663000377374e-14 -1.0
outer loop
vertex 378.480622430346 274.319969217026 609.561507646528
vertex 377.614597026562 274.819969217025 609.561507646527
vertex 378.114099139085 276.025873991513 609.561507646527
endloop
endfacet
facet normal -1.63590259758545e-14 -4.76663000377374e-14 -1.0
outer loop
vertex 378.480622430346 274.319969217026 609.561507646528
vertex 378.114099139085 276.025873991513 609.561507646527
vertex 378.28447000764 277.319969217025 609.561507646527
endloop
endfacet
facet normal -1.63590259758545e-14 -4.76663000377374e-14 -1.0
outer loop
vertex 378.480622430346 274.319969217026 609.561507646528
vertex 378.28447000764 277.319969217025 609.561507646527
vertex 378.480622430346 280.319969217026 609.561507646528
endloop
endfacet
facet normal -1.63590259758545e-14 -4.76663000377374e-14 -1.0
outer loop
vertex 378.480622430346 274.319969217026 609.561507646528
vertex 378.480622430346 280.319969217026 609.561507646528
vertex 379.080024965374 278.872883487641 609.561507646527
endloop
endfacet
facet normal -1.63590259758545e-14 -4.76663000377374e-14 -1.0
outer loop
vertex 378.480622430346 274.319969217026 609.561507646528
vertex 379.080024965374 278.872883487641 609.561507646527
vertex 379.080024965374 275.767054946411 609.561507646528
endloop
endfacet
facet normal -1.63590259758545e-14 -4.76663000377374e-14 -1.0
outer loop
vertex 379.080024965374 275.767054946411 609.561507646528
vertex 379.080024965374 278.872883487641 609.561507646527
vertex 379.28447000764 277.319969217026 609.561507646528
endloop
endfacet
facet normal -0.707106781186573 0.707106781186522 -1.03516245903231e-13
outer loop
vertex 369.04182932052 281.562609904145 609.561507646527
vertex 370.28447000764 282.516121639733 610.561507646528
vertex 370.28447000764 282.516121639732 609.561507646527
endloop
endfacet
facet normal -0.499999999999986 0.866025403784447 -1.213027248066e-13
outer loop
vertex 370.28447000764 282.516121639733 610.561507646528
vertex 369.04182932052 281.562609904145 609.561507646527
vertex 369.04182932052 281.562609904146 610.561507646528
endloop
endfacet
facet normal 0.707106781186522 -0.707106781186573 1.03516245903237e-13
outer loop
vertex 377.527110694759 273.077328529906 609.561507646529
vertex 376.28447000764 272.12381679432 610.561507646528
vertex 376.28447000764 272.123816794319 609.561507646528
endloop
endfacet
facet normal 0.500000000000024 -0.866025403784424 1.21302724806598e-13
outer loop
vertex 376.28447000764 272.12381679432 610.561507646528
vertex 377.527110694759 273.077328529906 609.561507646529
vertex 377.527110694759 273.077328529907 610.561507646529
endloop
endfacet
facet normal -0.965925826288971 0.258819045102883 -3.64656775662211e-14
outer loop
vertex 374.164454760988 280.604117026409 610.561507646528
vertex 374.31974618805 281.183672522182 602.961507646527
vertex 374.164454760988 280.604117026408 602.961507646527
endloop
endfacet
facet normal -0.965925826288971 0.258819045102883 -3.64656775662211e-14
outer loop
vertex 374.31974618805 281.183672522182 602.961507646527
vertex 374.164454760988 280.604117026409 610.561507646528
vertex 374.31974618805 281.183672522183 610.561507646528
endloop
endfacet
facet normal 0.707106781186543 -0.707106781186552 -9.4410367092297e-14
outer loop
vertex 376.820003913573 273.784435311093 609.561507646527
vertex 375.78447000764 272.989842198104 602.961507646527
vertex 376.820003913572 273.784435311093 602.961507646527
endloop
endfacet
facet normal 0.499999999999989 -0.866025403784445 -9.30088788645756e-14
outer loop
vertex 375.78447000764 272.989842198104 602.961507646527
vertex 376.820003913573 273.784435311093 609.561507646527
vertex 375.78447000764 272.989842198103 609.561507646527
endloop
endfacet
facet normal -0.991444861373814 -0.130526192220028 5.11071516386577e-15
outer loop
vertex 376.568617817022 278.199953970375 610.561507646528
vertex 376.68447000764 277.319969217027 602.961507646527
vertex 376.68447000764 277.319969217027 610.561507646528
endloop
endfacet
facet normal -0.991444861373814 -0.130526192220028 5.11071516386577e-15
outer loop
vertex 376.68447000764 277.319969217027 602.961507646527
vertex 376.568617817022 278.199953970375 610.561507646528
vertex 376.568617817022 278.199953970375 602.961507646527
endloop
endfacet
facet normal 0.258819045102506 -0.965925826289072 -8.52689892466729e-14
outer loop
vertex 374.578565233153 272.49034008558 609.561507646527
vertex 373.28447000764 272.319969217026 602.961507646527
vertex 374.578565233152 272.490340085581 602.961507646527
endloop
endfacet
facet normal 6.23777692695267e-16 -1.0 -7.17181589252779e-14
outer loop
vertex 373.28447000764 272.319969217026 602.961507646527
vertex 374.578565233153 272.49034008558 609.561507646527
vertex 373.28447000764 272.319969217026 609.561507646527
endloop
endfacet
facet normal 0.382683432365245 -0.923879532511222 8.55889335399691e-13
outer loop
vertex 372.404485254291 280.604117026409 610.561507646528
vertex 371.584470007642 280.264455589887 602.961507646527
vertex 372.404485254293 280.604117026403 602.961507646527
endloop
endfacet
facet normal 0.382683432365245 -0.923879532511222 8.55889335399691e-13
outer loop
vertex 371.584470007642 280.264455589887 602.961507646527
vertex 372.404485254291 280.604117026409 610.561507646528
vertex 371.584470007639 280.264455589893 610.561507646528
endloop
endfacet
facet normal 0.965925826289071 0.258819045102509 -4.11305124993122e-14
outer loop
vertex 378.114099139085 278.614064442539 602.961507646527
vertex 377.614597026562 279.819969217025 609.561507646527
vertex 378.114099139085 278.614064442538 609.561507646526
endloop
endfacet
facet normal 0.866025403784435 0.500000000000006 -1.76597858979082e-14
outer loop
vertex 377.614597026562 279.819969217025 609.561507646527
vertex 378.114099139085 278.614064442539 602.961507646527
vertex 377.614597026562 279.819969217026 602.961507646528
endloop
endfacet
facet normal -1.24488870137212e-14 1.2794644461127e-13 1.0
outer loop
vertex 370.000322198257 276.439984463677 610.561507646529
vertex 369.420766702483 278.355245397437 610.561507646528
vertex 369.420766702483 276.284693036617 610.561507646529
endloop
endfacet
facet normal -1.24488870137212e-14 1.2794644461127e-13 1.0
outer loop
vertex 369.420766702483 278.355245397437 610.561507646528
vertex 370.000322198257 276.439984463677 610.561507646529
vertex 369.88447000764 277.319969217026 610.561507646528
endloop
endfacet
facet normal -1.24488870137212e-14 1.2794644461127e-13 1.0
outer loop
vertex 369.04182932052 281.562609904146 610.561507646528
vertex 369.420766702483 278.355245397437 610.561507646528
vertex 370.28447000764 282.516121639733 610.561507646528
endloop
endfacet
facet normal -1.24488870137212e-14 1.2794644461127e-13 1.0
outer loop
vertex 369.420766702483 278.355245397437 610.561507646528
vertex 369.04182932052 281.562609904146 610.561507646528
vertex 369.420766702483 276.284693036617 610.561507646529
endloop
endfacet
facet normal -1.24488870137212e-14 1.2794644461127e-13 1.0
outer loop
vertex 370.28447000764 282.516121639733 610.561507646528
vertex 369.420766702483 278.355245397437 610.561507646528
vertex 369.820368392502 279.319969217027 610.561507646528
endloop
endfacet
facet normal -1.24488870137212e-14 1.2794644461127e-13 1.0
outer loop
vertex 370.28447000764 282.516121639733 610.561507646528
vertex 369.820368392502 279.319969217027 610.561507646528
vertex 370.456042882893 280.148396341773 610.561507646528
endloop
endfacet
facet normal -1.24488870137212e-14 1.2794644461127e-13 1.0
outer loop
vertex 370.28447000764 282.516121639733 610.561507646528
vertex 370.456042882893 280.148396341773 610.561507646528
vertex 371.731555737025 283.115524174761 610.561507646528
endloop
endfacet
facet normal -1.24488870137212e-14 1.2794644461127e-13 1.0
outer loop
vertex 371.731555737025 283.115524174761 610.561507646528
vertex 370.456042882893 280.148396341773 610.561507646528
vertex 370.880306951605 279.72413227306 610.561507646528
endloop
endfacet
facet normal -1.24488870137212e-14 1.2794644461127e-13 1.0
outer loop
vertex 371.731555737025 283.115524174761 610.561507646528
vertex 370.880306951605 279.72413227306 610.561507646528
vertex 371.584470007639 280.264455589893 610.561507646528
endloop
endfacet
facet normal -1.24488870137212e-14 1.2794644461127e-13 1.0
outer loop
vertex 371.731555737025 283.115524174761 610.561507646528
vertex 371.584470007639 280.264455589893 610.561507646528
vertex 372.404485254291 280.604117026409 610.561507646528
endloop
endfacet
facet normal -1.24488870137212e-14 1.2794644461127e-13 1.0
outer loop
vertex 371.731555737025 283.115524174761 610.561507646528
vertex 372.404485254291 280.604117026409 610.561507646528
vertex 372.249193827229 281.183672522183 610.561507646527
endloop
endfacet
facet normal -1.24488870137212e-14 1.2794644461127e-13 1.0
outer loop
vertex 373.28447000764 271.319969217026 610.561507646529
vertex 372.249193827229 273.456265911871 610.561507646529
vertex 371.731555737025 271.524414259292 610.561507646529
endloop
endfacet
facet normal -1.24488870137212e-14 1.2794644461127e-13 1.0
outer loop
vertex 372.249193827229 273.456265911871 610.561507646529
vertex 373.28447000764 271.319969217026 610.561507646529
vertex 373.28447000764 273.319969217027 610.561507646529
endloop
endfacet
facet normal -1.24488870137212e-14 1.2794644461127e-13 1.0
outer loop
vertex 373.28447000764 273.319969217027 610.561507646529
vertex 373.28447000764 271.319969217026 610.561507646529
vertex 374.31974618805 273.45626591187 610.561507646529
endloop
endfacet
facet normal -1.24488870137212e-14 1.2794644461127e-13 1.0
outer loop
vertex 374.31974618805 273.45626591187 610.561507646529
vertex 373.28447000764 271.319969217026 610.561507646529
vertex 374.837384278255 271.524414259292 610.561507646529
endloop
endfacet
facet normal -1.24488870137212e-14 1.2794644461127e-13 1.0
outer loop
vertex 377.148173312796 276.284693036617 610.561507646528
vertex 376.68447000764 277.319969217027 610.561507646528
vertex 376.568617817022 276.439984463678 610.561507646528
endloop
endfacet
facet normal -1.24488870137212e-14 1.2794644461127e-13 1.0
outer loop
vertex 374.31974618805 273.45626591187 610.561507646529
vertex 374.98447000764 274.37548284416 610.561507646529
vertex 374.164454760989 274.035821407644 610.561507646529
endloop
endfacet
facet normal -1.24488870137212e-14 1.2794644461127e-13 1.0
outer loop
vertex 374.98447000764 274.37548284416 610.561507646529
vertex 374.31974618805 273.45626591187 610.561507646529
vertex 374.837384278255 271.524414259292 610.561507646529
endloop
endfacet
facet normal -1.24488870137212e-14 1.2794644461127e-13 1.0
outer loop
vertex 374.98447000764 274.37548284416 610.561507646529
vertex 374.837384278255 271.524414259292 610.561507646529
vertex 376.28447000764 272.12381679432 610.561507646528
endloop
endfacet
facet normal -1.24488870137212e-14 1.2794644461127e-13 1.0
outer loop
vertex 374.98447000764 274.37548284416 610.561507646529
vertex 376.28447000764 272.12381679432 610.561507646528
vertex 375.688633063674 274.915806160992 610.561507646529
endloop
endfacet
facet normal -1.24488870137212e-14 1.2794644461127e-13 1.0
outer loop
vertex 375.688633063674 274.915806160992 610.561507646529
vertex 376.28447000764 272.12381679432 610.561507646528
vertex 376.112897132386 274.491542092281 610.561507646529
endloop
endfacet
facet normal -1.24488870137212e-14 1.2794644461127e-13 1.0
outer loop
vertex 376.112897132386 274.491542092281 610.561507646529
vertex 376.28447000764 272.12381679432 610.561507646528
vertex 376.748571622777 275.319969217027 610.561507646529
endloop
endfacet
facet normal -1.24488870137212e-14 1.2794644461127e-13 1.0
outer loop
vertex 376.748571622777 275.319969217027 610.561507646529
vertex 376.28447000764 272.12381679432 610.561507646528
vertex 377.527110694759 273.077328529907 610.561507646529
endloop
endfacet
facet normal -1.24488870137212e-14 1.2794644461127e-13 1.0
outer loop
vertex 376.748571622777 275.319969217027 610.561507646529
vertex 377.527110694759 273.077328529907 610.561507646529
vertex 377.148173312796 276.284693036617 610.561507646528
endloop
endfacet
facet normal -1.24488870137212e-14 1.2794644461127e-13 1.0
outer loop
vertex 377.148173312796 276.284693036617 610.561507646528
vertex 377.527110694759 273.077328529907 610.561507646529
vertex 377.148173312796 278.355245397437 610.561507646528
endloop
endfacet
facet normal -1.24488870137212e-14 1.2794644461127e-13 1.0
outer loop
vertex 374.984470007639 280.264455589893 610.561507646528
vertex 374.31974618805 281.183672522183 610.561507646528
vertex 374.164454760988 280.604117026409 610.561507646528
endloop
endfacet
facet normal -1.24488870137212e-14 1.2794644461127e-13 1.0
outer loop
vertex 374.31974618805 281.183672522183 610.561507646528
vertex 374.984470007639 280.264455589893 610.561507646528
vertex 374.837384278255 283.115524174761 610.561507646527
endloop
endfacet
facet normal -1.24488870137212e-14 1.2794644461127e-13 1.0
outer loop
vertex 374.837384278255 283.115524174761 610.561507646527
vertex 374.984470007639 280.264455589893 610.561507646528
vertex 376.28447000764 282.516121639733 610.561507646527
endloop
endfacet
facet normal -1.24488870137212e-14 1.2794644461127e-13 1.0
outer loop
vertex 376.28447000764 282.516121639733 610.561507646527
vertex 374.984470007639 280.264455589893 610.561507646528
vertex 375.688633063674 279.724132273061 610.561507646528
endloop
endfacet
facet normal -1.24488870137212e-14 1.2794644461127e-13 1.0
outer loop
vertex 376.28447000764 282.516121639733 610.561507646527
vertex 375.688633063674 279.724132273061 610.561507646528
vertex 376.112897132386 280.148396341773 610.561507646528
endloop
endfacet
facet normal -1.24488870137212e-14 1.2794644461127e-13 1.0
outer loop
vertex 376.28447000764 282.516121639733 610.561507646527
vertex 376.112897132386 280.148396341773 610.561507646528
vertex 376.748571622777 279.319969217027 610.561507646528
endloop
endfacet
facet normal -1.24488870137212e-14 1.2794644461127e-13 1.0
outer loop
vertex 376.28447000764 282.516121639733 610.561507646527
vertex 376.748571622777 279.319969217027 610.561507646528
vertex 377.527110694759 281.562609904146 610.561507646528
endloop
endfacet
facet normal -1.24488870137212e-14 1.2794644461127e-13 1.0
outer loop
vertex 377.527110694759 281.562609904146 610.561507646528
vertex 376.748571622777 279.319969217027 610.561507646528
vertex 377.148173312796 278.355245397437 610.561507646528
endloop
endfacet
facet normal -1.24488870137212e-14 1.2794644461127e-13 1.0
outer loop
vertex 377.527110694759 281.562609904146 610.561507646528
vertex 377.148173312796 278.355245397437 610.561507646528
vertex 377.527110694759 273.077328529907 610.561507646529
endloop
endfacet
facet normal -1.24488870137212e-14 1.2794644461127e-13 1.0
outer loop
vertex 377.527110694759 281.562609904146 610.561507646528
vertex 377.527110694759 273.077328529907 610.561507646529
vertex 378.480622430346 274.319969217026 610.561507646529
endloop
endfacet
facet normal -1.24488870137212e-14 1.2794644461127e-13 1.0
outer loop
vertex 377.527110694759 281.562609904146 610.561507646528
vertex 378.480622430346 274.319969217026 610.561507646529
vertex 378.480622430346 280.319969217026 610.561507646528
endloop
endfacet
facet normal -1.24488870137212e-14 1.2794644461127e-13 1.0
outer loop
vertex 378.480622430346 280.319969217026 610.561507646528
vertex 378.480622430346 274.319969217026 610.561507646529
vertex 379.080024965374 275.767054946411 610.561507646529
endloop
endfacet
facet normal -1.24488870137212e-14 1.2794644461127e-13 1.0
outer loop
vertex 378.480622430346 280.319969217026 610.561507646528
vertex 379.080024965374 275.767054946411 610.561507646529
vertex 379.080024965374 278.872883487641 610.561507646528
endloop
endfacet
facet normal -1.24488870137212e-14 1.2794644461127e-13 1.0
outer loop
vertex 379.080024965374 278.872883487641 610.561507646528
vertex 379.080024965374 275.767054946411 610.561507646529
vertex 379.28447000764 277.319969217026 610.561507646528
endloop
endfacet
facet normal -1.24488870137212e-14 1.2794644461127e-13 1.0
outer loop
vertex 376.68447000764 277.319969217027 610.561507646528
vertex 377.148173312796 278.355245397437 610.561507646528
vertex 376.568617817022 278.199953970375 610.561507646528
endloop
endfacet
facet normal -1.24488870137212e-14 1.2794644461127e-13 1.0
outer loop
vertex 377.148173312796 278.355245397437 610.561507646528
vertex 376.68447000764 277.319969217027 610.561507646528
vertex 377.148173312796 276.284693036617 610.561507646528
endloop
endfacet
facet normal -1.24488870137212e-14 1.2794644461127e-13 1.0
outer loop
vertex 372.249193827229 281.183672522183 610.561507646527
vertex 373.28447000764 283.319969217026 610.561507646528
vertex 371.731555737025 283.115524174761 610.561507646528
endloop
endfacet
facet normal -1.24488870137212e-14 1.2794644461127e-13 1.0
outer loop
vertex 373.28447000764 283.319969217026 610.561507646528
vertex 372.249193827229 281.183672522183 610.561507646527
vertex 373.28447000764 281.319969217027 610.561507646528
endloop
endfacet
facet normal -1.24488870137212e-14 1.2794644461127e-13 1.0
outer loop
vertex 373.28447000764 283.319969217026 610.561507646528
vertex 373.28447000764 281.319969217027 610.561507646528
vertex 374.31974618805 281.183672522183 610.561507646528
endloop
endfacet
facet normal -1.24488870137212e-14 1.2794644461127e-13 1.0
outer loop
vertex 373.28447000764 283.319969217026 610.561507646528
vertex 374.31974618805 281.183672522183 610.561507646528
vertex 374.837384278255 283.115524174761 610.561507646527
endloop
endfacet
facet normal -1.24488870137212e-14 1.2794644461127e-13 1.0
outer loop
vertex 370.000322198257 278.199953970374 610.561507646528
vertex 369.420766702483 278.355245397437 610.561507646528
vertex 369.88447000764 277.319969217026 610.561507646528
endloop
endfacet
facet normal -1.24488870137212e-14 1.2794644461127e-13 1.0
outer loop
vertex 367.488915049905 275.767054946411 610.561507646528
vertex 367.488915049905 278.872883487641 610.561507646528
vertex 367.28447000764 277.319969217026 610.561507646528
endloop
endfacet
facet normal -1.24488870137212e-14 1.2794644461127e-13 1.0
outer loop
vertex 367.488915049905 278.872883487641 610.561507646528
vertex 367.488915049905 275.767054946411 610.561507646528
vertex 368.088317584933 274.319969217026 610.561507646528
endloop
endfacet
facet normal -1.24488870137212e-14 1.2794644461127e-13 1.0
outer loop
vertex 367.488915049905 278.872883487641 610.561507646528
vertex 368.088317584933 274.319969217026 610.561507646528
vertex 368.088317584933 280.319969217026 610.561507646527
endloop
endfacet
facet normal -1.24488870137212e-14 1.2794644461127e-13 1.0
outer loop
vertex 368.088317584933 280.319969217026 610.561507646527
vertex 368.088317584933 274.319969217026 610.561507646528
vertex 369.04182932052 273.077328529907 610.561507646529
endloop
endfacet
facet normal -1.24488870137212e-14 1.2794644461127e-13 1.0
outer loop
vertex 368.088317584933 280.319969217026 610.561507646527
vertex 369.04182932052 273.077328529907 610.561507646529
vertex 369.04182932052 281.562609904146 610.561507646528
endloop
endfacet
facet normal -1.24488870137212e-14 1.2794644461127e-13 1.0
outer loop
vertex 369.04182932052 281.562609904146 610.561507646528
vertex 369.04182932052 273.077328529907 610.561507646529
vertex 369.420766702483 276.284693036617 610.561507646529
endloop
endfacet
facet normal -1.24488870137212e-14 1.2794644461127e-13 1.0
outer loop
vertex 369.420766702483 276.284693036617 610.561507646529
vertex 369.04182932052 273.077328529907 610.561507646529
vertex 370.28447000764 272.12381679432 610.561507646529
endloop
endfacet
facet normal -1.24488870137212e-14 1.2794644461127e-13 1.0
outer loop
vertex 369.420766702483 276.284693036617 610.561507646529
vertex 370.28447000764 272.12381679432 610.561507646529
vertex 369.820368392502 275.319969217027 610.561507646528
endloop
endfacet
facet normal -1.24488870137212e-14 1.2794644461127e-13 1.0
outer loop
vertex 369.820368392502 275.319969217027 610.561507646528
vertex 370.28447000764 272.12381679432 610.561507646529
vertex 370.456042882893 274.491542092281 610.561507646528
endloop
endfacet
facet normal -1.24488870137212e-14 1.2794644461127e-13 1.0
outer loop
vertex 370.456042882893 274.491542092281 610.561507646528
vertex 370.28447000764 272.12381679432 610.561507646529
vertex 371.731555737025 271.524414259292 610.561507646529
endloop
endfacet
facet normal -1.24488870137212e-14 1.2794644461127e-13 1.0
outer loop
vertex 370.456042882893 274.491542092281 610.561507646528
vertex 371.731555737025 271.524414259292 610.561507646529
vertex 370.880306951606 274.915806160992 610.561507646529
endloop
endfacet
facet normal -1.24488870137212e-14 1.2794644461127e-13 1.0
outer loop
vertex 370.880306951606 274.915806160992 610.561507646529
vertex 371.731555737025 271.524414259292 610.561507646529
vertex 371.58447000764 274.375482844159 610.561507646529
endloop
endfacet
facet normal -1.24488870137212e-14 1.2794644461127e-13 1.0
outer loop
vertex 371.58447000764 274.375482844159 610.561507646529
vertex 371.731555737025 271.524414259292 610.561507646529
vertex 372.249193827229 273.456265911871 610.561507646529
endloop
endfacet
facet normal -1.24488870137212e-14 1.2794644461127e-13 1.0
outer loop
vertex 371.58447000764 274.375482844159 610.561507646529
vertex 372.249193827229 273.456265911871 610.561507646529
vertex 372.404485254292 274.035821407643 610.561507646529
endloop
endfacet
facet normal 0.500000000000024 -0.866025403784424 1.21302724806598e-13
outer loop
vertex 376.28447000764 272.12381679432 610.561507646528
vertex 374.837384278255 271.524414259291 609.561507646528
vertex 376.28447000764 272.123816794319 609.561507646528
endloop
endfacet
facet normal 0.258819045102538 -0.965925826289064 1.30822623476626e-13
outer loop
vertex 374.837384278255 271.524414259291 609.561507646528
vertex 376.28447000764 272.12381679432 610.561507646528
vertex 374.837384278255 271.524414259292 610.561507646529
endloop
endfacet
facet normal 0.258819045102499 0.965925826289074 -1.23075184737737e-13
outer loop
vertex 374.837384278255 283.115524174761 610.561507646527
vertex 376.28447000764 282.516121639732 609.561507646527
vertex 374.837384278255 283.11552417476 609.561507646527
endloop
endfacet
facet normal 0.499999999999991 0.866025403784444 -1.06335822475627e-13
outer loop
vertex 376.28447000764 282.516121639732 609.561507646527
vertex 374.837384278255 283.115524174761 610.561507646527
vertex 376.28447000764 282.516121639733 610.561507646527
endloop
endfacet
facet normal -0.258819045102532 -0.965925826289065 1.23075184737735e-13
outer loop
vertex 371.731555737025 271.524414259292 609.561507646529
vertex 370.28447000764 272.12381679432 610.561507646529
vertex 370.28447000764 272.12381679432 609.561507646528
endloop
endfacet
facet normal -0.499999999999992 -0.866025403784443 1.06335822475627e-13
outer loop
vertex 370.28447000764 272.12381679432 610.561507646529
vertex 371.731555737025 271.524414259292 609.561507646529
vertex 371.731555737025 271.524414259292 610.561507646529
endloop
endfacet
facet normal 1.44805535804235e-14 1.0 -1.31427176551328e-13
outer loop
vertex 373.28447000764 283.319969217026 609.561507646527
vertex 374.837384278255 283.115524174761 610.561507646527
vertex 374.837384278255 283.11552417476 609.561507646527
endloop
endfacet
facet normal 0.258819045102499 0.965925826289074 -1.23075184737737e-13
outer loop
vertex 374.837384278255 283.115524174761 610.561507646527
vertex 373.28447000764 283.319969217026 609.561507646527
vertex 373.28447000764 283.319969217026 610.561507646528
endloop
endfacet
facet normal -0.707106781186538 -0.707106781186557 8.23498496400593e-14
outer loop
vertex 369.04182932052 273.077328529907 610.561507646529
vertex 368.088317584933 274.319969217026 609.561507646528
vertex 369.04182932052 273.077328529907 609.561507646528
endloop
endfacet
facet normal -0.866025403784438 -0.500000000000001 5.27518706410808e-14
outer loop
vertex 368.088317584933 274.319969217026 609.561507646528
vertex 369.04182932052 273.077328529907 610.561507646529
vertex 368.088317584933 274.319969217026 610.561507646528
endloop
endfacet
facet normal -1.0 -4.56248826657113e-15 -1.49669023309728e-14
outer loop
vertex 367.28447000764 277.319969217026 610.561507646528
vertex 367.488915049905 278.872883487641 609.561507646528
vertex 367.28447000764 277.319969217026 609.561507646528
endloop
endfacet
facet normal -0.965925826289064 0.258819045102539 -4.84727738365708e-14
outer loop
vertex 367.488915049905 278.872883487641 609.561507646528
vertex 367.28447000764 277.319969217026 610.561507646528
vertex 367.488915049905 278.872883487641 610.561507646528
endloop
endfacet
facet normal 0.965925826289061 -0.258819045102549 4.84727738365722e-14
outer loop
vertex 379.080024965374 275.767054946411 609.561507646528
vertex 378.480622430346 274.319969217026 610.561507646529
vertex 378.480622430346 274.319969217026 609.561507646528
endloop
endfacet
facet normal 0.86602540378445 -0.49999999999998 7.86753059102453e-14
outer loop
vertex 378.480622430346 274.319969217026 610.561507646529
vertex 379.080024965374 275.767054946411 609.561507646528
vertex 379.080024965374 275.767054946411 610.561507646529
endloop
endfacet
facet normal -0.96592582628907 0.258819045102513 -4.84727738365676e-14
outer loop
vertex 367.488915049905 278.872883487641 610.561507646528
vertex 368.088317584933 280.319969217026 609.561507646527
vertex 367.488915049905 278.872883487641 609.561507646528
endloop
endfacet
facet normal -0.866025403784445 0.499999999999989 -7.86753059102463e-14
outer loop
vertex 368.088317584933 280.319969217026 609.561507646527
vertex 367.488915049905 278.872883487641 610.561507646528
vertex 368.088317584933 280.319969217026 610.561507646527
endloop
endfacet
facet normal 0.86602540378446 0.499999999999963 -5.27518706410755e-14
outer loop
vertex 378.480622430346 280.319969217026 609.561507646528
vertex 379.080024965374 278.872883487641 610.561507646528
vertex 379.080024965374 278.872883487641 609.561507646527
endloop
endfacet
facet normal 0.96592582628906 0.258819045102552 -1.95589388345061e-14
outer loop
vertex 379.080024965374 278.872883487641 610.561507646528
vertex 378.480622430346 280.319969217026 609.561507646528
vertex 378.480622430346 280.319969217026 610.561507646528
endloop
endfacet
facet normal -0.991444861373813 0.130526192220035 7.43640845989636e-15
outer loop
vertex 376.68447000764 277.319969217027 610.561507646528
vertex 376.568617817022 276.439984463678 602.961507646528
vertex 376.568617817022 276.439984463678 610.561507646528
endloop
endfacet
facet normal -0.991444861373813 0.130526192220035 7.43640845989636e-15
outer loop
vertex 376.568617817022 276.439984463678 602.961507646528
vertex 376.68447000764 277.319969217027 610.561507646528
vertex 376.68447000764 277.319969217027 602.961507646527
endloop
endfacet
facet normal 0.258819045102514 -0.96592582628907 1.30822623476626e-13
outer loop
vertex 374.837384278255 271.524414259292 610.561507646529
vertex 373.28447000764 271.319969217026 609.561507646529
vertex 374.837384278255 271.524414259291 609.561507646528
endloop
endfacet
facet normal 1.44894646903194e-14 -1.0 1.31427176551329e-13
outer loop
vertex 373.28447000764 271.319969217026 609.561507646529
vertex 374.837384278255 271.524414259292 610.561507646529
vertex 373.28447000764 271.319969217026 610.561507646529
endloop
endfacet
facet normal -0.25881904510251 0.965925826289071 8.52689892466731e-14
outer loop
vertex 371.990374782127 282.149598348471 602.961507646527
vertex 373.28447000764 282.319969217025 609.561507646527
vertex 373.28447000764 282.319969217026 602.961507646527
endloop
endfacet
facet normal -1.24755538539056e-15 1.0 7.17181589252779e-14
outer loop
vertex 373.28447000764 282.319969217025 609.561507646527
vertex 371.990374782127 282.149598348471 602.961507646527
vertex 371.990374782127 282.149598348471 609.561507646527
endloop
endfacet
facet normal -1.0 -5.05259931083189e-15 6.17982626452708e-14
outer loop
vertex 368.28447000764 277.319969217026 609.561507646528
vertex 368.454840876194 276.025873991513 602.961507646528
vertex 368.454840876195 276.025873991513 609.561507646528
endloop
endfacet
facet normal -0.965925826289067 -0.258819045102525 4.11305124993108e-14
outer loop
vertex 368.454840876194 276.025873991513 602.961507646528
vertex 368.28447000764 277.319969217026 609.561507646528
vertex 368.28447000764 277.319969217026 602.961507646528
endloop
endfacet
facet normal -0.965925826289076 0.258819045102493 7.82545633184121e-14
outer loop
vertex 368.454840876195 278.614064442538 609.561507646528
vertex 368.28447000764 277.319969217026 602.961507646528
vertex 368.28447000764 277.319969217026 609.561507646528
endloop
endfacet
facet normal -1.0 5.16844373947512e-16 6.17982626452712e-14
outer loop
vertex 368.28447000764 277.319969217026 602.961507646528
vertex 368.454840876195 278.614064442538 609.561507646528
vertex 368.454840876194 278.614064442539 602.961507646528
endloop
endfacet
facet normal -0.866025403784446 -0.499999999999987 1.76597858979102e-14
outer loop
vertex 368.954342988718 274.819969217026 609.561507646527
vertex 369.748936101707 273.784435311093 602.961507646528
vertex 369.748936101707 273.784435311093 609.561507646527
endloop
endfacet
facet normal -0.707106781186559 -0.707106781186537 -7.01442592825846e-15
outer loop
vertex 369.748936101707 273.784435311093 602.961507646528
vertex 368.954342988718 274.819969217026 609.561507646527
vertex 368.954342988717 274.819969217026 602.961507646527
endloop
endfacet
facet normal -0.499999999999996 -0.866025403784441 -3.12106162193051e-14
outer loop
vertex 370.78447000764 272.989842198103 609.561507646527
vertex 369.748936101707 273.784435311093 602.961507646528
vertex 370.78447000764 272.989842198104 602.961507646527
endloop
endfacet
facet normal -0.707106781186559 -0.707106781186537 -7.01442592825846e-15
outer loop
vertex 369.748936101707 273.784435311093 602.961507646528
vertex 370.78447000764 272.989842198103 609.561507646527
vertex 369.748936101707 273.784435311093 609.561507646527
endloop
endfacet
facet normal -0.70710678118655 0.707106781186545 9.4410367092297e-14
outer loop
vertex 369.748936101707 280.855503122958 609.561507646527
vertex 368.954342988717 279.819969217026 602.961507646527
vertex 368.954342988718 279.819969217025 609.561507646527
endloop
endfacet
facet normal -0.866025403784432 0.500000000000012 8.93779448231871e-14
outer loop
vertex 368.954342988717 279.819969217026 602.961507646527
vertex 369.748936101707 280.855503122958 609.561507646527
vertex 369.748936101707 280.855503122959 602.961507646527
endloop
endfacet
facet normal -0.866025403784452 0.499999999999977 8.93779448231858e-14
outer loop
vertex 368.954342988718 279.819969217025 609.561507646527
vertex 368.454840876194 278.614064442539 602.961507646528
vertex 368.454840876195 278.614064442538 609.561507646528
endloop
endfacet
facet normal -0.965925826289066 0.258819045102528 7.8254563318414e-14
outer loop
vertex 368.454840876194 278.614064442539 602.961507646528
vertex 368.954342988718 279.819969217025 609.561507646527
vertex 368.954342988717 279.819969217026 602.961507646527
endloop
endfacet
facet normal -0.70710678118655 0.707106781186545 9.4410367092297e-14
outer loop
vertex 369.748936101707 280.855503122958 609.561507646527
vertex 370.78447000764 281.650096235948 602.961507646527
vertex 369.748936101707 280.855503122959 602.961507646527
endloop
endfacet
facet normal -0.499999999999994 0.866025403784442 9.30088788645757e-14
outer loop
vertex 370.78447000764 281.650096235948 602.961507646527
vertex 369.748936101707 280.855503122958 609.561507646527
vertex 370.78447000764 281.650096235948 609.561507646527
endloop
endfacet
facet normal 0.965925826289072 -0.258819045102506 -7.82545633184128e-14
outer loop
vertex 378.114099139085 276.025873991513 602.961507646527
vertex 378.28447000764 277.319969217025 609.561507646527
vertex 378.114099139085 276.025873991513 609.561507646527
endloop
endfacet
facet normal 1.0 -2.06737749579027e-14 -6.17982626452726e-14
outer loop
vertex 378.28447000764 277.319969217025 609.561507646527
vertex 378.114099139085 276.025873991513 602.961507646527
vertex 378.28447000764 277.319969217026 602.961507646527
endloop
endfacet
facet normal 0.866025403784448 0.499999999999983 -1.76597858979106e-14
outer loop
vertex 377.614597026562 279.819969217026 602.961507646528
vertex 376.820003913573 280.855503122958 609.561507646527
vertex 377.614597026562 279.819969217025 609.561507646527
endloop
endfacet
facet normal 0.70710678118655 0.707106781186545 7.01442592825956e-15
outer loop
vertex 376.820003913573 280.855503122958 609.561507646527
vertex 377.614597026562 279.819969217026 602.961507646528
vertex 376.820003913572 280.855503122959 602.961507646528
endloop
endfacet
facet normal 1.0 2.06737749578989e-14 -6.17982626452697e-14
outer loop
vertex 378.28447000764 277.319969217026 602.961507646527
vertex 378.114099139085 278.614064442538 609.561507646526
vertex 378.28447000764 277.319969217025 609.561507646527
endloop
endfacet
facet normal 0.965925826289071 0.258819045102512 -4.11305124993119e-14
outer loop
vertex 378.114099139085 278.614064442538 609.561507646526
vertex 378.28447000764 277.319969217026 602.961507646527
vertex 378.114099139085 278.614064442539 602.961507646527
endloop
endfacet
facet normal 0.258819045102528 0.965925826289066 5.32798545929852e-14
outer loop
vertex 374.578565233153 282.149598348471 609.561507646527
vertex 375.78447000764 281.650096235948 602.961507646528
vertex 374.578565233152 282.149598348471 602.961507646527
endloop
endfacet
facet normal 0.49999999999998 0.86602540378445 3.12106162193068e-14
outer loop
vertex 375.78447000764 281.650096235948 602.961507646528
vertex 374.578565233153 282.149598348471 609.561507646527
vertex 375.78447000764 281.650096235948 609.561507646527
endloop
endfacet
facet normal 0.707106781186552 -0.707106781186543 -9.4410367092297e-14
outer loop
vertex 376.820003913572 273.784435311093 602.961507646527
vertex 377.614597026562 274.819969217025 609.561507646527
vertex 376.820003913573 273.784435311093 609.561507646527
endloop
endfacet
facet normal 0.866025403784439 -0.499999999999999 -8.93779448231866e-14
outer loop
vertex 377.614597026562 274.819969217025 609.561507646527
vertex 376.820003913572 273.784435311093 602.961507646527
vertex 377.614597026562 274.819969217026 602.961507646527
endloop
endfacet
facet normal -0.70710678118886 -0.707106781184235 2.20390792490529e-13
outer loop
vertex 370.880306951605 279.72413227306 610.561507646528
vertex 370.456042882893 280.148396341772 602.961507646527
vertex 370.880306951607 279.724132273054 602.961507646528
endloop
endfacet
facet normal -0.70710678118886 -0.707106781184235 2.20390792490529e-13
outer loop
vertex 370.456042882893 280.148396341772 602.961507646527
vertex 370.880306951605 279.72413227306 610.561507646528
vertex 370.456042882893 280.148396341773 610.561507646528
endloop
endfacet
facet normal 0.608761429008819 -0.793353340291159 8.10644739624196e-13
outer loop
vertex 371.584470007639 280.264455589893 610.561507646528
vertex 370.880306951607 279.724132273054 602.961507646528
vertex 371.584470007642 280.264455589887 602.961507646527
endloop
endfacet
facet normal 0.608761429008819 -0.793353340291159 8.10644739624196e-13
outer loop
vertex 370.880306951607 279.724132273054 602.961507646528
vertex 371.584470007639 280.264455589893 610.561507646528
vertex 370.880306951605 279.72413227306 610.561507646528
endloop
endfacet
facet normal -0.965925826289254 -0.258819045101828 2.96464480829363e-14
outer loop
vertex 374.31974618805 273.45626591187 610.561507646529
vertex 374.164454760988 274.035821407644 602.961507646526
vertex 374.31974618805 273.45626591187 602.961507646528
endloop
endfacet
facet normal -0.965925826289254 -0.258819045101828 2.96464480829363e-14
outer loop
vertex 374.164454760988 274.035821407644 602.961507646526
vertex 374.31974618805 273.45626591187 610.561507646529
vertex 374.164454760989 274.035821407644 610.561507646529
endloop
endfacet
facet normal -0.382683432365245 0.923879532511222 8.84380833715698e-14
outer loop
vertex 374.164454760989 274.035821407644 610.561507646529
vertex 374.98447000764 274.37548284416 602.961507646526
vertex 374.164454760988 274.035821407644 602.961507646526
endloop
endfacet
facet normal -0.382683432365245 0.923879532511222 8.84380833715698e-14
outer loop
vertex 374.98447000764 274.37548284416 602.961507646526
vertex 374.164454760989 274.035821407644 610.561507646529
vertex 374.98447000764 274.37548284416 610.561507646529
endloop
endfacet
facet normal -0.499999999999999 -0.866025403784439 1.06335822475626e-13
outer loop
vertex 370.28447000764 272.12381679432 609.561507646528
vertex 369.04182932052 273.077328529907 610.561507646529
vertex 369.04182932052 273.077328529907 609.561507646528
endloop
endfacet
facet normal -0.707106781186538 -0.707106781186557 8.23498496400593e-14
outer loop
vertex 369.04182932052 273.077328529907 610.561507646529
vertex 370.28447000764 272.12381679432 609.561507646528
vertex 370.28447000764 272.12381679432 610.561507646529
endloop
endfacet
facet normal 0.965925826288351 -0.258819045105198 1.45199612179948e-13
outer loop
vertex 372.404485254294 274.035821407645 602.961507646527
vertex 372.249193827229 273.456265911871 610.561507646529
vertex 372.24919382723 273.45626591187 602.961507646528
endloop
endfacet
facet normal 0.965925826288351 -0.258819045105198 1.45199612179948e-13
outer loop
vertex 372.249193827229 273.456265911871 610.561507646529
vertex 372.404485254294 274.035821407645 602.961507646527
vertex 372.404485254292 274.035821407643 610.561507646529
endloop
endfacet
facet normal -1.53785332297153e-14 1.30033191963328e-14 -1.0
outer loop
vertex 370.000322198259 278.199953970373 602.961507646527
vertex 369.420766702483 276.284693036616 602.961507646528
vertex 369.420766702483 278.355245397436 602.961507646527
endloop
endfacet
facet normal -1.53785332297153e-14 1.30033191963328e-14 -1.0
outer loop
vertex 369.420766702483 276.284693036616 602.961507646528
vertex 370.000322198259 278.199953970373 602.961507646527
vertex 369.884470007642 277.319969217024 602.961507646527
endloop
endfacet
facet normal -1.53785332297153e-14 1.30033191963328e-14 -1.0
outer loop
vertex 368.954342988717 274.819969217026 602.961507646527
vertex 369.420766702483 276.284693036616 602.961507646528
vertex 369.748936101707 273.784435311093 602.961507646528
endloop
endfacet
facet normal -1.53785332297153e-14 1.30033191963328e-14 -1.0
outer loop
vertex 369.420766702483 276.284693036616 602.961507646528
vertex 368.954342988717 274.819969217026 602.961507646527
vertex 369.420766702483 278.355245397436 602.961507646527
endloop
endfacet
facet normal -1.53785332297153e-14 1.30033191963328e-14 -1.0
outer loop
vertex 369.748936101707 273.784435311093 602.961507646528
vertex 369.420766702483 276.284693036616 602.961507646528
vertex 369.820368392502 275.319969217026 602.961507646527
endloop
endfacet
facet normal -1.53785332297153e-14 1.30033191963328e-14 -1.0
outer loop
vertex 369.748936101707 273.784435311093 602.961507646528
vertex 369.820368392502 275.319969217026 602.961507646527
vertex 370.78447000764 272.989842198104 602.961507646527
endloop
endfacet
facet normal -1.53785332297153e-14 1.30033191963328e-14 -1.0
outer loop
vertex 370.78447000764 272.989842198104 602.961507646527
vertex 369.820368392502 275.319969217026 602.961507646527
vertex 370.456042882893 274.49154209228 602.961507646527
endloop
endfacet
facet normal -1.53785332297153e-14 1.30033191963328e-14 -1.0
outer loop
vertex 370.78447000764 272.989842198104 602.961507646527
vertex 370.456042882893 274.49154209228 602.961507646527
vertex 370.880306951608 274.915806160993 602.961507646526
endloop
endfacet
facet normal -1.53785332297153e-14 1.30033191963328e-14 -1.0
outer loop
vertex 370.78447000764 272.989842198104 602.961507646527
vertex 370.880306951608 274.915806160993 602.961507646526
vertex 371.990374782127 272.490340085581 602.961507646527
endloop
endfacet
facet normal -1.53785332297153e-14 1.30033191963328e-14 -1.0
outer loop
vertex 371.990374782127 272.490340085581 602.961507646527
vertex 370.880306951608 274.915806160993 602.961507646526
vertex 371.584470007643 274.375482844161 602.961507646527
endloop
endfacet
facet normal -1.53785332297153e-14 1.30033191963328e-14 -1.0
outer loop
vertex 371.990374782127 272.490340085581 602.961507646527
vertex 371.584470007643 274.375482844161 602.961507646527
vertex 372.24919382723 273.45626591187 602.961507646528
endloop
endfacet
facet normal -1.53785332297153e-14 1.30033191963328e-14 -1.0
outer loop
vertex 372.24919382723 273.45626591187 602.961507646528
vertex 371.584470007643 274.375482844161 602.961507646527
vertex 372.404485254294 274.035821407645 602.961507646527
endloop
endfacet
facet normal -1.53785332297153e-14 1.30033191963328e-14 -1.0
outer loop
vertex 373.28447000764 282.319969217026 602.961507646527
vertex 372.24919382723 281.183672522182 602.961507646527
vertex 371.990374782127 282.149598348471 602.961507646527
endloop
endfacet
facet normal -1.53785332297153e-14 1.30033191963328e-14 -1.0
outer loop
vertex 372.24919382723 281.183672522182 602.961507646527
vertex 373.28447000764 282.319969217026 602.961507646527
vertex 373.284470007641 281.319969217025 602.961507646527
endloop
endfacet
facet normal -1.53785332297153e-14 1.30033191963328e-14 -1.0
outer loop
vertex 373.284470007641 281.319969217025 602.961507646527
vertex 373.28447000764 282.319969217026 602.961507646527
vertex 374.578565233152 282.149598348471 602.961507646527
endloop
endfacet
facet normal -1.53785332297153e-14 1.30033191963328e-14 -1.0
outer loop
vertex 373.284470007641 281.319969217025 602.961507646527
vertex 374.578565233152 282.149598348471 602.961507646527
vertex 374.31974618805 281.183672522182 602.961507646527
endloop
endfacet
facet normal -1.53785332297153e-14 1.30033191963328e-14 -1.0
outer loop
vertex 377.148173312796 278.355245397436 602.961507646527
vertex 376.68447000764 277.319969217027 602.961507646527
vertex 376.568617817022 278.199953970375 602.961507646527
endloop
endfacet
facet normal -1.53785332297153e-14 1.30033191963328e-14 -1.0
outer loop
vertex 376.68447000764 277.319969217027 602.961507646527
vertex 377.148173312796 278.355245397436 602.961507646527
vertex 377.148173312796 276.284693036616 602.961507646528
endloop
endfacet
facet normal -1.53785332297153e-14 1.30033191963328e-14 -1.0
outer loop
vertex 374.31974618805 281.183672522182 602.961507646527
vertex 374.984470007639 280.264455589892 602.961507646527
vertex 374.164454760988 280.604117026408 602.961507646527
endloop
endfacet
facet normal -1.53785332297153e-14 1.30033191963328e-14 -1.0
outer loop
vertex 374.984470007639 280.264455589892 602.961507646527
vertex 374.31974618805 281.183672522182 602.961507646527
vertex 374.578565233152 282.149598348471 602.961507646527
endloop
endfacet
facet normal -1.53785332297153e-14 1.30033191963328e-14 -1.0
outer loop
vertex 374.984470007639 280.264455589892 602.961507646527
vertex 374.578565233152 282.149598348471 602.961507646527
vertex 375.78447000764 281.650096235948 602.961507646528
endloop
endfacet
facet normal -1.53785332297153e-14 1.30033191963328e-14 -1.0
outer loop
vertex 374.984470007639 280.264455589892 602.961507646527
vertex 375.78447000764 281.650096235948 602.961507646528
vertex 375.688633063674 279.72413227306 602.961507646528
endloop
endfacet
facet normal -1.53785332297153e-14 1.30033191963328e-14 -1.0
outer loop
vertex 375.688633063674 279.72413227306 602.961507646528
vertex 375.78447000764 281.650096235948 602.961507646528
vertex 376.112897132386 280.148396341772 602.961507646527
endloop
endfacet
facet normal -1.53785332297153e-14 1.30033191963328e-14 -1.0
outer loop
vertex 376.112897132386 280.148396341772 602.961507646527
vertex 375.78447000764 281.650096235948 602.961507646528
vertex 376.820003913572 280.855503122959 602.961507646528
endloop
endfacet
facet normal -1.53785332297153e-14 1.30033191963328e-14 -1.0
outer loop
vertex 376.112897132386 280.148396341772 602.961507646527
vertex 376.820003913572 280.855503122959 602.961507646528
vertex 376.748571622777 279.319969217026 602.961507646527
endloop
endfacet
facet normal -1.53785332297153e-14 1.30033191963328e-14 -1.0
outer loop
vertex 376.748571622777 279.319969217026 602.961507646527
vertex 376.820003913572 280.855503122959 602.961507646528
vertex 377.148173312796 278.355245397436 602.961507646527
endloop
endfacet
facet normal -1.53785332297153e-14 1.30033191963328e-14 -1.0
outer loop
vertex 377.148173312796 278.355245397436 602.961507646527
vertex 376.820003913572 280.855503122959 602.961507646528
vertex 377.614597026562 279.819969217026 602.961507646528
endloop
endfacet
facet normal -1.53785332297153e-14 1.30033191963328e-14 -1.0
outer loop
vertex 374.98447000764 274.37548284416 602.961507646526
vertex 374.31974618805 273.45626591187 602.961507646528
vertex 374.164454760988 274.035821407644 602.961507646526
endloop
endfacet
facet normal -1.53785332297153e-14 1.30033191963328e-14 -1.0
outer loop
vertex 374.31974618805 273.45626591187 602.961507646528
vertex 374.98447000764 274.37548284416 602.961507646526
vertex 374.578565233152 272.490340085581 602.961507646527
endloop
endfacet
facet normal -1.53785332297153e-14 1.30033191963328e-14 -1.0
outer loop
vertex 374.578565233152 272.490340085581 602.961507646527
vertex 374.98447000764 274.37548284416 602.961507646526
vertex 375.78447000764 272.989842198104 602.961507646527
endloop
endfacet
facet normal -1.53785332297153e-14 1.30033191963328e-14 -1.0
outer loop
vertex 375.78447000764 272.989842198104 602.961507646527
vertex 374.98447000764 274.37548284416 602.961507646526
vertex 375.688633063674 274.915806160993 602.961507646526
endloop
endfacet
facet normal -1.53785332297153e-14 1.30033191963328e-14 -1.0
outer loop
vertex 375.78447000764 272.989842198104 602.961507646527
vertex 375.688633063674 274.915806160993 602.961507646526
vertex 376.112897132386 274.49154209228 602.961507646528
endloop
endfacet
facet normal -1.53785332297153e-14 1.30033191963328e-14 -1.0
outer loop
vertex 375.78447000764 272.989842198104 602.961507646527
vertex 376.112897132386 274.49154209228 602.961507646528
vertex 376.820003913572 273.784435311093 602.961507646527
endloop
endfacet
facet normal -1.53785332297153e-14 1.30033191963328e-14 -1.0
outer loop
vertex 376.820003913572 273.784435311093 602.961507646527
vertex 376.112897132386 274.49154209228 602.961507646528
vertex 376.748571622777 275.319969217026 602.961507646528
endloop
endfacet
facet normal -1.53785332297153e-14 1.30033191963328e-14 -1.0
outer loop
vertex 376.820003913572 273.784435311093 602.961507646527
vertex 376.748571622777 275.319969217026 602.961507646528
vertex 377.148173312796 276.284693036616 602.961507646528
endloop
endfacet
facet normal -1.53785332297153e-14 1.30033191963328e-14 -1.0
outer loop
vertex 376.820003913572 273.784435311093 602.961507646527
vertex 377.148173312796 276.284693036616 602.961507646528
vertex 377.614597026562 274.819969217026 602.961507646527
endloop
endfacet
facet normal -1.53785332297153e-14 1.30033191963328e-14 -1.0
outer loop
vertex 377.614597026562 274.819969217026 602.961507646527
vertex 377.148173312796 276.284693036616 602.961507646528
vertex 377.148173312796 278.355245397436 602.961507646527
endloop
endfacet
facet normal -1.53785332297153e-14 1.30033191963328e-14 -1.0
outer loop
vertex 377.614597026562 274.819969217026 602.961507646527
vertex 377.148173312796 278.355245397436 602.961507646527
vertex 377.614597026562 279.819969217026 602.961507646528
endloop
endfacet
facet normal -1.53785332297153e-14 1.30033191963328e-14 -1.0
outer loop
vertex 377.614597026562 274.819969217026 602.961507646527
vertex 377.614597026562 279.819969217026 602.961507646528
vertex 378.114099139085 278.614064442539 602.961507646527
endloop
endfacet
facet normal -1.53785332297153e-14 1.30033191963328e-14 -1.0
outer loop
vertex 377.614597026562 274.819969217026 602.961507646527
vertex 378.114099139085 278.614064442539 602.961507646527
vertex 378.114099139085 276.025873991513 602.961507646527
endloop
endfacet
facet normal -1.53785332297153e-14 1.30033191963328e-14 -1.0
outer loop
vertex 378.114099139085 276.025873991513 602.961507646527
vertex 378.114099139085 278.614064442539 602.961507646527
vertex 378.28447000764 277.319969217026 602.961507646527
endloop
endfacet
facet normal -1.53785332297153e-14 1.30033191963328e-14 -1.0
outer loop
vertex 377.148173312796 276.284693036616 602.961507646528
vertex 376.568617817022 276.439984463678 602.961507646528
vertex 376.68447000764 277.319969217027 602.961507646527
endloop
endfacet
facet normal -1.53785332297153e-14 1.30033191963328e-14 -1.0
outer loop
vertex 372.24919382723 273.45626591187 602.961507646528
vertex 373.28447000764 272.319969217026 602.961507646527
vertex 371.990374782127 272.490340085581 602.961507646527
endloop
endfacet
facet normal -1.53785332297153e-14 1.30033191963328e-14 -1.0
outer loop
vertex 373.28447000764 272.319969217026 602.961507646527
vertex 372.24919382723 273.45626591187 602.961507646528
vertex 373.28447000764 273.319969217026 602.961507646528
endloop
endfacet
facet normal -1.53785332297153e-14 1.30033191963328e-14 -1.0
outer loop
vertex 373.28447000764 272.319969217026 602.961507646527
vertex 373.28447000764 273.319969217026 602.961507646528
vertex 374.31974618805 273.45626591187 602.961507646528
endloop
endfacet
facet normal -1.53785332297153e-14 1.30033191963328e-14 -1.0
outer loop
vertex 373.28447000764 272.319969217026 602.961507646527
vertex 374.31974618805 273.45626591187 602.961507646528
vertex 374.578565233152 272.490340085581 602.961507646527
endloop
endfacet
facet normal -1.53785332297153e-14 1.30033191963328e-14 -1.0
outer loop
vertex 370.000322198259 276.439984463676 602.961507646528
vertex 369.420766702483 276.284693036616 602.961507646528
vertex 369.884470007642 277.319969217024 602.961507646527
endloop
endfacet
facet normal -1.53785332297153e-14 1.30033191963328e-14 -1.0
outer loop
vertex 368.454840876194 278.614064442539 602.961507646528
vertex 368.454840876194 276.025873991513 602.961507646528
vertex 368.28447000764 277.319969217026 602.961507646528
endloop
endfacet
facet normal -1.53785332297153e-14 1.30033191963328e-14 -1.0
outer loop
vertex 368.454840876194 276.025873991513 602.961507646528
vertex 368.454840876194 278.614064442539 602.961507646528
vertex 368.954342988717 279.819969217026 602.961507646527
endloop
endfacet
facet normal -1.53785332297153e-14 1.30033191963328e-14 -1.0
outer loop
vertex 368.454840876194 276.025873991513 602.961507646528
vertex 368.954342988717 279.819969217026 602.961507646527
vertex 368.954342988717 274.819969217026 602.961507646527
endloop
endfacet
facet normal -1.53785332297153e-14 1.30033191963328e-14 -1.0
outer loop
vertex 368.954342988717 274.819969217026 602.961507646527
vertex 368.954342988717 279.819969217026 602.961507646527
vertex 369.748936101707 280.855503122959 602.961507646527
endloop
endfacet
facet normal -1.53785332297153e-14 1.30033191963328e-14 -1.0
outer loop
vertex 368.954342988717 274.819969217026 602.961507646527
vertex 369.748936101707 280.855503122959 602.961507646527
vertex 369.420766702483 278.355245397436 602.961507646527
endloop
endfacet
facet normal -1.53785332297153e-14 1.30033191963328e-14 -1.0
outer loop
vertex 369.420766702483 278.355245397436 602.961507646527
vertex 369.748936101707 280.855503122959 602.961507646527
vertex 369.820368392502 279.319969217026 602.961507646527
endloop
endfacet
facet normal -1.53785332297153e-14 1.30033191963328e-14 -1.0
outer loop
vertex 369.820368392502 279.319969217026 602.961507646527
vertex 369.748936101707 280.855503122959 602.961507646527
vertex 370.78447000764 281.650096235948 602.961507646527
endloop
endfacet
facet normal -1.53785332297153e-14 1.30033191963328e-14 -1.0
outer loop
vertex 369.820368392502 279.319969217026 602.961507646527
vertex 370.78447000764 281.650096235948 602.961507646527
vertex 370.456042882893 280.148396341772 602.961507646527
endloop
endfacet
facet normal -1.53785332297153e-14 1.30033191963328e-14 -1.0
outer loop
vertex 370.456042882893 280.148396341772 602.961507646527
vertex 370.78447000764 281.650096235948 602.961507646527
vertex 370.880306951607 279.724132273054 602.961507646528
endloop
endfacet
facet normal -1.53785332297153e-14 1.30033191963328e-14 -1.0
outer loop
vertex 370.880306951607 279.724132273054 602.961507646528
vertex 370.78447000764 281.650096235948 602.961507646527
vertex 371.990374782127 282.149598348471 602.961507646527
endloop
endfacet
facet normal -1.53785332297153e-14 1.30033191963328e-14 -1.0
outer loop
vertex 370.880306951607 279.724132273054 602.961507646528
vertex 371.990374782127 282.149598348471 602.961507646527
vertex 371.584470007642 280.264455589887 602.961507646527
endloop
endfacet
facet normal -1.53785332297153e-14 1.30033191963328e-14 -1.0
outer loop
vertex 371.584470007642 280.264455589887 602.961507646527
vertex 371.990374782127 282.149598348471 602.961507646527
vertex 372.24919382723 281.183672522182 602.961507646527
endloop
endfacet
facet normal -1.53785332297153e-14 1.30033191963328e-14 -1.0
outer loop
vertex 371.584470007642 280.264455589887 602.961507646527
vertex 372.24919382723 281.183672522182 602.961507646527
vertex 372.404485254293 280.604117026403 602.961507646527
endloop
endfacet
facet normal 0.707106781186623 -0.707106781186472 8.81580296345289e-14
outer loop
vertex 376.112897132386 280.148396341772 602.961507646527
vertex 375.688633063674 279.724132273061 610.561507646528
vertex 375.688633063674 279.72413227306 602.961507646528
endloop
endfacet
facet normal 0.707106781186623 -0.707106781186472 8.81580296345289e-14
outer loop
vertex 375.688633063674 279.724132273061 610.561507646528
vertex 376.112897132386 280.148396341772 602.961507646527
vertex 376.112897132386 280.148396341773 610.561507646528
endloop
endfacet
facet normal 0.608761429008586 0.793353340291339 3.6149311196612e-13
outer loop
vertex 370.880306951606 274.915806160992 610.561507646529
vertex 371.584470007643 274.375482844161 602.961507646527
vertex 370.880306951608 274.915806160993 602.961507646526
endloop
endfacet
facet normal 0.608761429008586 0.793353340291339 3.6149311196612e-13
outer loop
vertex 371.584470007643 274.375482844161 602.961507646527
vertex 370.880306951606 274.915806160992 610.561507646529
vertex 371.58447000764 274.375482844159 610.561507646529
endloop
endfacet
facet normal 1.44894646903194e-14 -1.0 1.31427176551329e-13
outer loop
vertex 373.28447000764 271.319969217026 609.561507646529
vertex 371.731555737025 271.524414259292 610.561507646529
vertex 371.731555737025 271.524414259292 609.561507646529
endloop
endfacet
facet normal -0.258819045102519 -0.965925826289069 1.23075184737736e-13
outer loop
vertex 371.731555737025 271.524414259292 610.561507646529
vertex 373.28447000764 271.319969217026 609.561507646529
vertex 373.28447000764 271.319969217026 610.561507646529
endloop
endfacet
facet normal -0.965925826289077 -0.258819045102488 4.11305124993141e-14
outer loop
vertex 368.454840876195 276.025873991513 609.561507646528
vertex 368.954342988717 274.819969217026 602.961507646527
vertex 368.954342988718 274.819969217026 609.561507646527
endloop
endfacet
facet normal -0.866025403784444 -0.49999999999999 1.76597858979098e-14
outer loop
vertex 368.954342988717 274.819969217026 602.961507646527
vertex 368.454840876195 276.025873991513 609.561507646528
vertex 368.454840876194 276.025873991513 602.961507646528
endloop
endfacet
facet normal -0.866025403784442 0.499999999999993 -5.77772194050712e-14
outer loop
vertex 376.748571622777 275.319969217027 610.561507646529
vertex 377.148173312796 276.284693036616 602.961507646528
vertex 376.748571622777 275.319969217026 602.961507646528
endloop
endfacet
facet normal -0.923879532511288 0.382683432365086 -4.73226158867736e-14
outer loop
vertex 377.148173312796 276.284693036616 602.961507646528
vertex 376.748571622777 275.319969217027 610.561507646529
vertex 377.148173312796 276.284693036617 610.561507646528
endloop
endfacet
facet normal -0.866025403784426 -0.500000000000023 3.72109212605335e-14
outer loop
vertex 376.748571622777 279.319969217027 610.561507646528
vertex 376.112897132386 280.148396341772 602.961507646527
vertex 376.748571622777 279.319969217026 602.961507646527
endloop
endfacet
facet normal -0.793353340291252 -0.608761429008699 4.84045584382337e-14
outer loop
vertex 376.112897132386 280.148396341772 602.961507646527
vertex 376.748571622777 279.319969217027 610.561507646528
vertex 376.112897132386 280.148396341773 610.561507646528
endloop
endfacet
facet normal 3.9119772441891e-15 -1.0 -7.1718158925278e-14
outer loop
vertex 373.28447000764 272.319969217026 609.561507646527
vertex 371.990374782127 272.490340085581 602.961507646527
vertex 373.28447000764 272.319969217026 602.961507646527
endloop
endfacet
facet normal -0.258819045102513 -0.96592582628907 -5.32798545929864e-14
outer loop
vertex 371.990374782127 272.490340085581 602.961507646527
vertex 373.28447000764 272.319969217026 609.561507646527
vertex 371.990374782127 272.49034008558 609.561507646527
endloop
endfacet
facet normal -0.866025403784437 0.500000000000003 -7.8675305910248e-14
outer loop
vertex 368.088317584933 280.319969217026 610.561507646527
vertex 369.04182932052 281.562609904145 609.561507646527
vertex 368.088317584933 280.319969217026 609.561507646527
endloop
endfacet
facet normal -0.707106781186573 0.707106781186522 -1.03516245903231e-13
outer loop
vertex 369.04182932052 281.562609904145 609.561507646527
vertex 368.088317584933 280.319969217026 610.561507646527
vertex 369.04182932052 281.562609904146 610.561507646528
endloop
endfacet
facet normal -0.96592582628907 -0.258819045102513 1.95589388345009e-14
outer loop
vertex 367.488915049905 275.767054946411 610.561507646528
vertex 367.28447000764 277.319969217026 609.561507646528
vertex 367.488915049905 275.767054946411 609.561507646528
endloop
endfacet
facet normal -1.0 4.57139937646694e-15 -1.4966902330974e-14
outer loop
vertex 367.28447000764 277.319969217026 609.561507646528
vertex 367.488915049905 275.767054946411 610.561507646528
vertex 367.28447000764 277.319969217026 610.561507646528
endloop
endfacet
facet normal 0.499999999999997 0.866025403784441 -1.06335822475627e-13
outer loop
vertex 376.28447000764 282.516121639733 610.561507646527
vertex 377.527110694759 281.562609904145 609.561507646527
vertex 376.28447000764 282.516121639732 609.561507646527
endloop
endfacet
facet normal 0.707106781186564 0.707106781186531 -8.23498496400554e-14
outer loop
vertex 377.527110694759 281.562609904145 609.561507646527
vertex 376.28447000764 282.516121639733 610.561507646527
vertex 377.527110694759 281.562609904146 610.561507646528
endloop
endfacet
facet normal -0.258819045101909 0.965925826289233 -4.37768104269159e-14
outer loop
vertex 376.568617817022 278.199953970375 602.961507646527
vertex 377.148173312796 278.355245397437 610.561507646528
vertex 377.148173312796 278.355245397436 602.961507646527
endloop
endfacet
facet normal -0.258819045101909 0.965925826289233 -4.37768104269159e-14
outer loop
vertex 377.148173312796 278.355245397437 610.561507646528
vertex 376.568617817022 278.199953970375 602.961507646527
vertex 376.568617817022 278.199953970375 610.561507646528
endloop
endfacet
facet normal -0.707106781185382 0.707106781187713 -7.55650040509052e-14
outer loop
vertex 370.456042882893 274.49154209228 602.961507646527
vertex 370.880306951606 274.915806160992 610.561507646529
vertex 370.880306951608 274.915806160993 602.961507646526
endloop
endfacet
facet normal -0.707106781185382 0.707106781187713 -7.55650040509052e-14
outer loop
vertex 370.880306951606 274.915806160992 610.561507646529
vertex 370.456042882893 274.49154209228 602.961507646527
vertex 370.456042882893 274.491542092281 610.561507646528
endloop
endfacet
facet normal 0.965925826289074 0.2588190451025 -1.95589388344992e-14
outer loop
vertex 379.080024965374 278.872883487641 609.561507646527
vertex 379.28447000764 277.319969217026 610.561507646528
vertex 379.28447000764 277.319969217026 609.561507646528
endloop
endfacet
facet normal 1.0 1.33488426236805e-14 1.49669023309717e-14
outer loop
vertex 379.28447000764 277.319969217026 610.561507646528
vertex 379.080024965374 278.872883487641 609.561507646527
vertex 379.080024965374 278.872883487641 610.561507646528
endloop
endfacet
facet normal -0.866025403784444 -0.499999999999991 5.27518706410794e-14
outer loop
vertex 368.088317584933 274.319969217026 610.561507646528
vertex 367.488915049905 275.767054946411 609.561507646528
vertex 368.088317584933 274.319969217026 609.561507646528
endloop
endfacet
facet normal -0.965925826289064 -0.258819045102539 1.95589388345044e-14
outer loop
vertex 367.488915049905 275.767054946411 609.561507646528
vertex 368.088317584933 274.319969217026 610.561507646528
vertex 367.488915049905 275.767054946411 610.561507646528
endloop
endfacet
facet normal -0.258819045102517 0.965925826289069 -1.30822623476626e-13
outer loop
vertex 371.731555737025 283.115524174761 610.561507646528
vertex 373.28447000764 283.319969217026 609.561507646527
vertex 371.731555737025 283.11552417476 609.561507646527
endloop
endfacet
facet normal 1.44805535804235e-14 1.0 -1.31427176551328e-13
outer loop
vertex 373.28447000764 283.319969217026 609.561507646527
vertex 371.731555737025 283.115524174761 610.561507646528
vertex 373.28447000764 283.319969217026 610.561507646528
endloop
endfacet
facet normal 0.707106781186564 0.707106781186531 -8.23498496400554e-14
outer loop
vertex 377.527110694759 281.562609904145 609.561507646527
vertex 378.480622430346 280.319969217026 610.561507646528
vertex 378.480622430346 280.319969217026 609.561507646528
endloop
endfacet
facet normal 0.866025403784422 0.500000000000028 -5.27518706410846e-14
outer loop
vertex 378.480622430346 280.319969217026 610.561507646528
vertex 377.527110694759 281.562609904145 609.561507646527
vertex 377.527110694759 281.562609904146 610.561507646528
endloop
endfacet
facet normal 0.49999999999998 0.86602540378445 3.12106162193068e-14
outer loop
vertex 375.78447000764 281.650096235948 602.961507646528
vertex 376.820003913573 280.855503122958 609.561507646527
vertex 376.820003913572 280.855503122959 602.961507646528
endloop
endfacet
facet normal 0.70710678118655 0.707106781186545 7.01442592825956e-15
outer loop
vertex 376.820003913573 280.855503122958 609.561507646527
vertex 375.78447000764 281.650096235948 602.961507646528
vertex 375.78447000764 281.650096235948 609.561507646527
endloop
endfacet
facet normal 0.991444861373832 -0.130526192219885 2.73890451290369e-13
outer loop
vertex 370.000322198259 278.199953970373 602.961507646527
vertex 369.88447000764 277.319969217026 610.561507646528
vertex 369.884470007642 277.319969217024 602.961507646527
endloop
endfacet
facet normal 0.991444861373832 -0.130526192219885 2.73890451290369e-13
outer loop
vertex 369.88447000764 277.319969217026 610.561507646528
vertex 370.000322198259 278.199953970373 602.961507646527
vertex 370.000322198257 278.199953970374 610.561507646528
endloop
endfacet
facet normal -0.25881904510319 -0.965925826288889 3.65062762531112e-14
outer loop
vertex 377.148173312796 276.284693036617 610.561507646528
vertex 376.568617817022 276.439984463678 602.961507646528
vertex 377.148173312796 276.284693036616 602.961507646528
endloop
endfacet
facet normal -0.25881904510319 -0.965925826288889 3.65062762531112e-14
outer loop
vertex 376.568617817022 276.439984463678 602.961507646528
vertex 377.148173312796 276.284693036617 610.561507646528
vertex 376.568617817022 276.439984463678 610.561507646528
endloop
endfacet
facet normal -0.130526192219648 -0.991444861373864 1.51402976528813e-13
outer loop
vertex 374.31974618805 281.183672522182 602.961507646527
vertex 373.28447000764 281.319969217027 610.561507646528
vertex 373.284470007641 281.319969217025 602.961507646527
endloop
endfacet
facet normal -0.130526192219648 -0.991444861373864 1.51402976528813e-13
outer loop
vertex 373.28447000764 281.319969217027 610.561507646528
vertex 374.31974618805 281.183672522182 602.961507646527
vertex 374.31974618805 281.183672522183 610.561507646528
endloop
endfacet
facet normal 0.991444861373793 0.130526192220184 2.2963661308661e-13
outer loop
vertex 369.884470007642 277.319969217024 602.961507646527
vertex 370.000322198257 276.439984463677 610.561507646529
vertex 370.000322198259 276.439984463676 602.961507646528
endloop
endfacet
facet normal 0.991444861373793 0.130526192220184 2.2963661308661e-13
outer loop
vertex 370.000322198257 276.439984463677 610.561507646529
vertex 369.884470007642 277.319969217024 602.961507646527
vertex 369.88447000764 277.319969217026 610.561507646528
endloop
endfacet
facet normal 0.258819045104124 0.965925826288639 -9.44538906878928e-14
outer loop
vertex 369.420766702483 278.355245397437 610.561507646528
vertex 370.000322198259 278.199953970373 602.961507646527
vertex 369.420766702483 278.355245397436 602.961507646527
endloop
endfacet
facet normal 0.258819045104124 0.965925826288639 -9.44538906878928e-14
outer loop
vertex 370.000322198259 278.199953970373 602.961507646527
vertex 369.420766702483 278.355245397437 610.561507646528
vertex 370.000322198257 278.199953970374 610.561507646528
endloop
endfacet
facet normal 0.130526192220269 0.991444861373782 -1.19887787337136e-13
outer loop
vertex 372.249193827229 273.456265911871 610.561507646529
vertex 373.28447000764 273.319969217026 602.961507646528
vertex 372.24919382723 273.45626591187 602.961507646528
endloop
endfacet
facet normal 0.130526192220269 0.991444861373782 -1.19887787337136e-13
outer loop
vertex 373.28447000764 273.319969217026 602.961507646528
vertex 372.249193827229 273.456265911871 610.561507646529
vertex 373.28447000764 273.319969217027 610.561507646529
endloop
endfacet
facet normal 0.130526192219477 -0.991444861373886 1.7232536865095e-13
outer loop
vertex 373.284470007641 281.319969217025 602.961507646527
vertex 372.249193827229 281.183672522183 610.561507646527
vertex 372.24919382723 281.183672522182 602.961507646527
endloop
endfacet
facet normal 0.130526192219477 -0.991444861373886 1.7232536865095e-13
outer loop
vertex 372.249193827229 281.183672522183 610.561507646527
vertex 373.284470007641 281.319969217025 602.961507646527
vertex 373.28447000764 281.319969217027 610.561507646528
endloop
endfacet
facet normal 0.258819045100012 -0.965925826289741 1.63597911856606e-13
outer loop
vertex 370.000322198257 276.439984463677 610.561507646529
vertex 369.420766702483 276.284693036616 602.961507646528
vertex 370.000322198259 276.439984463676 602.961507646528
endloop
endfacet
facet normal 0.258819045100012 -0.965925826289741 1.63597911856606e-13
outer loop
vertex 369.420766702483 276.284693036616 602.961507646528
vertex 370.000322198257 276.439984463677 610.561507646529
vertex 369.420766702483 276.284693036617 610.561507646529
endloop
endfacet
facet normal -0.130526192220215 0.991444861373789 -1.21438168834827e-13
outer loop
vertex 373.28447000764 273.319969217026 602.961507646528
vertex 374.31974618805 273.45626591187 610.561507646529
vertex 374.31974618805 273.45626591187 602.961507646528
endloop
endfacet
facet normal -0.130526192220215 0.991444861373789 -1.21438168834827e-13
outer loop
vertex 374.31974618805 273.45626591187 610.561507646529
vertex 373.28447000764 273.319969217026 602.961507646528
vertex 373.28447000764 273.319969217027 610.561507646529
endloop
endfacet
facet normal 0.866025403784424 0.500000000000026 -3.72114508185433e-14
outer loop
vertex 369.820368392502 275.319969217026 602.961507646527
vertex 370.456042882893 274.491542092281 610.561507646528
vertex 370.456042882893 274.49154209228 602.961507646527
endloop
endfacet
facet normal 0.793353340291252 0.608761429008699 -4.84045584382336e-14
outer loop
vertex 370.456042882893 274.491542092281 610.561507646528
vertex 369.820368392502 275.319969217026 602.961507646527
vertex 369.820368392502 275.319969217027 610.561507646528
endloop
endfacet
facet normal 0.866025403784431 -0.500000000000014 5.77772194050729e-14
outer loop
vertex 369.820368392502 279.319969217026 602.961507646527
vertex 369.420766702483 278.355245397437 610.561507646528
vertex 369.420766702483 278.355245397436 602.961507646527
endloop
endfacet
facet normal 0.923879532511273 -0.382683432365123 4.73226158867767e-14
outer loop
vertex 369.420766702483 278.355245397437 610.561507646528
vertex 369.820368392502 279.319969217026 602.961507646527
vertex 369.820368392502 279.319969217027 610.561507646528
endloop
endfacet
facet normal -0.608761429008586 -0.793353340291339 1.09835174723767e-13
outer loop
vertex 375.688633063674 279.72413227306 602.961507646528
vertex 374.984470007639 280.264455589893 610.561507646528
vertex 374.984470007639 280.264455589892 602.961507646527
endloop
endfacet
facet normal -0.608761429008586 -0.793353340291339 1.09835174723767e-13
outer loop
vertex 374.984470007639 280.264455589893 610.561507646528
vertex 375.688633063674 279.72413227306 602.961507646528
vertex 375.688633063674 279.724132273061 610.561507646528
endloop
endfacet
facet normal -0.499999999999995 0.866025403784441 9.30088788645757e-14
outer loop
vertex 370.78447000764 281.650096235948 609.561507646527
vertex 371.990374782127 282.149598348471 602.961507646527
vertex 370.78447000764 281.650096235948 602.961507646527
endloop
endfacet
facet normal -0.25881904510251 0.965925826289071 8.52689892466731e-14
outer loop
vertex 371.990374782127 282.149598348471 602.961507646527
vertex 370.78447000764 281.650096235948 609.561507646527
vertex 371.990374782127 282.149598348471 609.561507646527
endloop
endfacet
facet normal -0.923879532511273 -0.382683432365123 2.53805949032457e-14
outer loop
vertex 377.148173312796 278.355245397437 610.561507646528
vertex 376.748571622777 279.319969217026 602.961507646527
vertex 377.148173312796 278.355245397436 602.961507646527
endloop
endfacet
facet normal -0.866025403784447 -0.499999999999985 3.72109212605297e-14
outer loop
vertex 376.748571622777 279.319969217026 602.961507646527
vertex 377.148173312796 278.355245397437 610.561507646528
vertex 376.748571622777 279.319969217027 610.561507646528
endloop
endfacet
facet normal -0.608761429008819 0.793353340291159 9.40523762780134e-14
outer loop
vertex 374.98447000764 274.37548284416 602.961507646526
vertex 375.688633063674 274.915806160992 610.561507646529
vertex 375.688633063674 274.915806160993 602.961507646526
endloop
endfacet
facet normal -0.608761429008819 0.793353340291159 9.40523762780134e-14
outer loop
vertex 375.688633063674 274.915806160992 610.561507646529
vertex 374.98447000764 274.37548284416 602.961507646526
vertex 374.98447000764 274.37548284416 610.561507646529
endloop
endfacet
facet normal 0.793353340291252 -0.608761429008699 6.72432386804754e-14
outer loop
vertex 370.456042882893 280.148396341772 602.961507646527
vertex 369.820368392502 279.319969217027 610.561507646528
vertex 369.820368392502 279.319969217026 602.961507646527
endloop
endfacet
facet normal 0.86602540378444 -0.499999999999997 5.77772194050713e-14
outer loop
vertex 369.820368392502 279.319969217027 610.561507646528
vertex 370.456042882893 280.148396341772 602.961507646527
vertex 370.456042882893 280.148396341773 610.561507646528
endloop
endfacet
facet normal 0.707106781187149 0.707106781185946 -2.93854389989263e-14
outer loop
vertex 375.688633063674 274.915806160993 602.961507646526
vertex 376.112897132386 274.491542092281 610.561507646529
vertex 376.112897132386 274.49154209228 602.961507646528
endloop
endfacet
facet normal 0.707106781187149 0.707106781185946 -2.93854389989263e-14
outer loop
vertex 376.112897132386 274.491542092281 610.561507646529
vertex 375.688633063674 274.915806160993 602.961507646526
vertex 375.688633063674 274.915806160992 610.561507646529
endloop
endfacet
facet normal 0.96592582628916 0.25881904510218 2.00809784461446e-14
outer loop
vertex 372.24919382723 281.183672522182 602.961507646527
vertex 372.404485254291 280.604117026409 610.561507646528
vertex 372.404485254293 280.604117026403 602.961507646527
endloop
endfacet
facet normal 0.96592582628916 0.25881904510218 2.00809784461446e-14
outer loop
vertex 372.404485254291 280.604117026409 610.561507646528
vertex 372.24919382723 281.183672522182 602.961507646527
vertex 372.249193827229 281.183672522183 610.561507646527
endloop
endfacet
endsolid Development Mockup
