solid Development Mockup
facet normal 9.80222088521167e-17 1.0 7.17181589252778e-14
outer loop
vertex 368.176891465484 286.119969217022 601.045740845554
vertex 369.470986690997 285.949598348467 605.645740845554
vertex 369.470986690997 285.949598348467 601.045740845554
endloop
endfacet
facet normal 0.258819045102518 0.965925826289069 5.32798545929861e-14
outer loop
vertex 369.470986690997 285.949598348467 605.645740845554
vertex 368.176891465484 286.119969217022 601.045740845554
vertex 368.176891465485 286.119969217022 605.645740845554
endloop
endfacet
facet normal -0.130526192220006 0.991444861373816 2.04953951310706e-14
outer loop
vertex 368.176891465484 277.719969217023 606.645740845555
vertex 369.056876218833 277.83582140764 601.045740845554
vertex 368.176891465484 277.719969217023 601.045740845554
endloop
endfacet
facet normal -0.130526192220006 0.991444861373816 2.04953951310706e-14
outer loop
vertex 369.056876218833 277.83582140764 601.045740845554
vertex 368.176891465484 277.719969217023 606.645740845555
vertex 369.056876218833 277.83582140764 606.645740845555
endloop
endfacet
facet normal -0.707106781186547 0.707106781186548 -1.10218074498026e-13
outer loop
vertex 371.005318590231 278.291542092277 606.645740845555
vertex 371.640993080622 279.119969217022 601.045740845554
vertex 371.005318590231 278.291542092276 601.045740845554
endloop
endfacet
facet normal -0.866025403784448 0.499999999999985 -8.60158607169122e-14
outer loop
vertex 371.640993080622 279.119969217022 601.045740845554
vertex 371.005318590231 278.291542092277 606.645740845555
vertex 371.640993080622 279.119969217023 606.645740845555
endloop
endfacet
facet normal 0.866025403784442 -0.499999999999994 -8.93779448231864e-14
outer loop
vertex 372.507018484407 278.619969217022 601.045740845553
vertex 373.00652059693 279.825873991509 605.645740845553
vertex 372.507018484407 278.619969217022 605.645740845553
endloop
endfacet
facet normal 0.96592582628907 -0.258819045102513 -7.82545633184132e-14
outer loop
vertex 373.00652059693 279.825873991509 605.645740845553
vertex 372.507018484407 278.619969217022 601.045740845553
vertex 373.00652059693 279.825873991509 601.045740845553
endloop
endfacet
facet normal 0.49999999999999 -0.866025403784445 -9.30088788645757e-14
outer loop
vertex 370.676891465485 276.789842198099 605.645740845553
vertex 369.470986690997 276.290340085577 601.045740845553
vertex 370.676891465484 276.7898421981 601.045740845553
endloop
endfacet
facet normal 0.258819045102506 -0.965925826289072 -8.52689892466729e-14
outer loop
vertex 369.470986690997 276.290340085577 601.045740845553
vertex 370.676891465485 276.789842198099 605.645740845553
vertex 369.470986690997 276.290340085576 605.645740845553
endloop
endfacet
facet normal 0.923879532511273 0.382683432365123 -3.08075643066419e-14
outer loop
vertex 364.313188160328 280.084693036612 601.045740845554
vertex 364.712789850347 279.119969217023 606.645740845555
vertex 364.712789850347 279.119969217022 601.045740845554
endloop
endfacet
facet normal 0.866025403784442 0.499999999999994 -4.7781302684455e-14
outer loop
vertex 364.712789850347 279.119969217023 606.645740845555
vertex 364.313188160328 280.084693036612 601.045740845554
vertex 364.313188160328 280.084693036613 606.645740845555
endloop
endfacet
facet normal 0.258819045101904 0.965925826289234 -5.628467997408e-14
outer loop
vertex 364.313188160328 282.155245397433 606.645740845555
vertex 364.892743656101 281.999953970372 601.045740845554
vertex 364.313188160328 282.155245397432 601.045740845554
endloop
endfacet
facet normal 0.258819045101904 0.965925826289234 -5.628467997408e-14
outer loop
vertex 364.892743656101 281.999953970372 601.045740845554
vertex 364.313188160328 282.155245397433 606.645740845555
vertex 364.892743656101 281.999953970371 606.645740845555
endloop
endfacet
facet normal 1.0 -5.07933264051855e-16 1.49669023309735e-14
outer loop
vertex 374.176891465484 281.119969217022 605.645740845554
vertex 373.972446423219 279.567054946407 606.645740845555
vertex 373.972446423219 279.567054946407 605.645740845555
endloop
endfacet
facet normal 0.965925826289068 -0.258819045102521 4.84727738365686e-14
outer loop
vertex 373.972446423219 279.567054946407 606.645740845555
vertex 374.176891465484 281.119969217022 605.645740845554
vertex 374.176891465484 281.119969217022 606.645740845555
endloop
endfacet
facet normal -0.499999999999998 0.86602540378444 -1.213027248066e-13
outer loop
vertex 365.176891465485 286.316121639729 605.645740845554
vertex 366.623977194869 286.915524174757 606.645740845554
vertex 366.623977194869 286.915524174757 605.645740845554
endloop
endfacet
facet normal -0.258819045102525 0.965925826289067 -1.30822623476626e-13
outer loop
vertex 366.623977194869 286.915524174757 606.645740845554
vertex 365.176891465485 286.316121639729 605.645740845554
vertex 365.176891465485 286.316121639729 606.645740845554
endloop
endfacet
facet normal 0.866025403784439 -0.499999999999998 7.86753059102475e-14
outer loop
vertex 373.373043888191 278.119969217022 605.645740845555
vertex 372.419532152604 276.877328529903 606.645740845555
vertex 372.419532152604 276.877328529903 605.645740845555
endloop
endfacet
facet normal 0.707106781186553 -0.707106781186542 1.03516245903233e-13
outer loop
vertex 372.419532152604 276.877328529903 606.645740845555
vertex 373.373043888191 278.119969217022 605.645740845555
vertex 373.373043888191 278.119969217022 606.645740845555
endloop
endfacet
facet normal -0.500000000000003 0.866025403784437 -1.26909108646077e-13
outer loop
vertex 370.176891465484 277.655867601884 601.045740845554
vertex 371.005318590231 278.291542092277 606.645740845555
vertex 371.005318590231 278.291542092276 601.045740845554
endloop
endfacet
facet normal -0.707106781186547 0.707106781186548 -1.10218074498026e-13
outer loop
vertex 371.005318590231 278.291542092277 606.645740845555
vertex 370.176891465484 277.655867601884 601.045740845554
vertex 370.176891465484 277.655867601885 606.645740845555
endloop
endfacet
facet normal -0.707106781186547 -0.707106781186549 7.89996885912409e-14
outer loop
vertex 371.005318590231 283.948396341768 601.045740845554
vertex 370.176891465484 284.584070832161 606.645740845554
vertex 370.176891465484 284.58407083216 601.045740845553
endloop
endfacet
facet normal -0.499999999999986 -0.866025403784447 1.04834376273692e-13
outer loop
vertex 370.176891465484 284.584070832161 606.645740845554
vertex 371.005318590231 283.948396341768 601.045740845554
vertex 371.005318590231 283.948396341769 606.645740845555
endloop
endfacet
facet normal -0.258819045102509 -0.965925826289071 -5.32798545929868e-14
outer loop
vertex 366.882796239972 276.290340085576 605.645740845553
vertex 365.676891465484 276.7898421981 601.045740845554
vertex 366.882796239972 276.290340085577 601.045740845554
endloop
endfacet
facet normal -0.499999999999994 -0.866025403784442 -3.12106162193053e-14
outer loop
vertex 365.676891465484 276.7898421981 601.045740845554
vertex 366.882796239972 276.290340085576 605.645740845553
vertex 365.676891465485 276.7898421981 605.645740845554
endloop
endfacet
facet normal -1.63590259758545e-14 -4.76663000377374e-14 -1.0
outer loop
vertex 362.38133650775 282.672883487637 605.645740845554
vertex 362.38133650775 279.567054946407 605.645740845554
vertex 362.176891465485 281.119969217022 605.645740845554
endloop
endfacet
facet normal -1.63590259758545e-14 -4.76663000377374e-14 -1.0
outer loop
vertex 362.38133650775 279.567054946407 605.645740845554
vertex 362.38133650775 282.672883487637 605.645740845554
vertex 362.980739042778 284.119969217022 605.645740845554
endloop
endfacet
facet normal -1.63590259758545e-14 -4.76663000377374e-14 -1.0
outer loop
vertex 362.38133650775 279.567054946407 605.645740845554
vertex 362.980739042778 284.119969217022 605.645740845554
vertex 362.980739042778 278.119969217022 605.645740845555
endloop
endfacet
facet normal -1.63590259758545e-14 -4.76663000377374e-14 -1.0
outer loop
vertex 362.980739042778 278.119969217022 605.645740845555
vertex 362.980739042778 284.119969217022 605.645740845554
vertex 363.176891465485 281.119969217022 605.645740845554
endloop
endfacet
facet normal -1.63590259758545e-14 -4.76663000377374e-14 -1.0
outer loop
vertex 363.176891465485 281.119969217022 605.645740845554
vertex 362.980739042778 284.119969217022 605.645740845554
vertex 363.347262334039 282.414064442534 605.645740845554
endloop
endfacet
facet normal -1.63590259758545e-14 -4.76663000377374e-14 -1.0
outer loop
vertex 363.347262334039 282.414064442534 605.645740845554
vertex 362.980739042778 284.119969217022 605.645740845554
vertex 363.934250778365 285.362609904141 605.645740845554
endloop
endfacet
facet normal -1.63590259758545e-14 -4.76663000377374e-14 -1.0
outer loop
vertex 363.347262334039 282.414064442534 605.645740845554
vertex 363.934250778365 285.362609904141 605.645740845554
vertex 363.846764446563 283.619969217022 605.645740845554
endloop
endfacet
facet normal -1.63590259758545e-14 -4.76663000377374e-14 -1.0
outer loop
vertex 363.846764446563 283.619969217022 605.645740845554
vertex 363.934250778365 285.362609904141 605.645740845554
vertex 364.641357559552 284.655503122954 605.645740845554
endloop
endfacet
facet normal -1.63590259758545e-14 -4.76663000377374e-14 -1.0
outer loop
vertex 364.641357559552 284.655503122954 605.645740845554
vertex 363.934250778365 285.362609904141 605.645740845554
vertex 365.176891465485 286.316121639729 605.645740845554
endloop
endfacet
facet normal -1.63590259758545e-14 -4.76663000377374e-14 -1.0
outer loop
vertex 364.641357559552 284.655503122954 605.645740845554
vertex 365.176891465485 286.316121639729 605.645740845554
vertex 365.676891465485 285.450096235944 605.645740845554
endloop
endfacet
facet normal -1.63590259758545e-14 -4.76663000377374e-14 -1.0
outer loop
vertex 365.676891465485 285.450096235944 605.645740845554
vertex 365.176891465485 286.316121639729 605.645740845554
vertex 366.623977194869 286.915524174757 605.645740845554
endloop
endfacet
facet normal -1.63590259758545e-14 -4.76663000377374e-14 -1.0
outer loop
vertex 365.676891465485 285.450096235944 605.645740845554
vertex 366.623977194869 286.915524174757 605.645740845554
vertex 366.882796239972 285.949598348467 605.645740845554
endloop
endfacet
facet normal -1.63590259758545e-14 -4.76663000377374e-14 -1.0
outer loop
vertex 366.882796239972 285.949598348467 605.645740845554
vertex 366.623977194869 286.915524174757 605.645740845554
vertex 368.176891465485 287.119969217022 605.645740845554
endloop
endfacet
facet normal -1.63590259758545e-14 -4.76663000377374e-14 -1.0
outer loop
vertex 366.882796239972 285.949598348467 605.645740845554
vertex 368.176891465485 287.119969217022 605.645740845554
vertex 368.176891465485 286.119969217022 605.645740845554
endloop
endfacet
facet normal -1.63590259758545e-14 -4.76663000377374e-14 -1.0
outer loop
vertex 368.176891465485 286.119969217022 605.645740845554
vertex 368.176891465485 287.119969217022 605.645740845554
vertex 369.7298057361 286.915524174757 605.645740845553
endloop
endfacet
facet normal -1.63590259758545e-14 -4.76663000377374e-14 -1.0
outer loop
vertex 368.176891465485 286.119969217022 605.645740845554
vertex 369.7298057361 286.915524174757 605.645740845553
vertex 369.470986690997 285.949598348467 605.645740845554
endloop
endfacet
facet normal -1.63590259758545e-14 -4.76663000377374e-14 -1.0
outer loop
vertex 369.470986690997 285.949598348467 605.645740845554
vertex 369.7298057361 286.915524174757 605.645740845553
vertex 370.676891465485 285.450096235944 605.645740845554
endloop
endfacet
facet normal -1.63590259758545e-14 -4.76663000377374e-14 -1.0
outer loop
vertex 370.676891465485 285.450096235944 605.645740845554
vertex 369.7298057361 286.915524174757 605.645740845553
vertex 371.176891465484 286.316121639729 605.645740845554
endloop
endfacet
facet normal -1.63590259758545e-14 -4.76663000377374e-14 -1.0
outer loop
vertex 370.676891465485 285.450096235944 605.645740845554
vertex 371.176891465484 286.316121639729 605.645740845554
vertex 371.712425371418 284.655503122954 605.645740845554
endloop
endfacet
facet normal -1.63590259758545e-14 -4.76663000377374e-14 -1.0
outer loop
vertex 371.712425371418 284.655503122954 605.645740845554
vertex 371.176891465484 286.316121639729 605.645740845554
vertex 372.419532152604 285.362609904141 605.645740845554
endloop
endfacet
facet normal -1.63590259758545e-14 -4.76663000377374e-14 -1.0
outer loop
vertex 371.712425371418 284.655503122954 605.645740845554
vertex 372.419532152604 285.362609904141 605.645740845554
vertex 372.507018484407 283.619969217022 605.645740845554
endloop
endfacet
facet normal -1.63590259758545e-14 -4.76663000377374e-14 -1.0
outer loop
vertex 372.507018484407 283.619969217022 605.645740845554
vertex 372.419532152604 285.362609904141 605.645740845554
vertex 373.373043888191 284.119969217022 605.645740845554
endloop
endfacet
facet normal -1.63590259758545e-14 -4.76663000377374e-14 -1.0
outer loop
vertex 372.507018484407 283.619969217022 605.645740845554
vertex 373.373043888191 284.119969217022 605.645740845554
vertex 373.00652059693 282.414064442534 605.645740845553
endloop
endfacet
facet normal -1.63590259758545e-14 -4.76663000377374e-14 -1.0
outer loop
vertex 373.00652059693 282.414064442534 605.645740845553
vertex 373.373043888191 284.119969217022 605.645740845554
vertex 373.176891465485 281.119969217022 605.645740845553
endloop
endfacet
facet normal -1.63590259758545e-14 -4.76663000377374e-14 -1.0
outer loop
vertex 362.980739042778 278.119969217022 605.645740845555
vertex 363.347262334039 279.825873991509 605.645740845554
vertex 363.934250778365 276.877328529903 605.645740845555
endloop
endfacet
facet normal -1.63590259758545e-14 -4.76663000377374e-14 -1.0
outer loop
vertex 363.347262334039 279.825873991509 605.645740845554
vertex 362.980739042778 278.119969217022 605.645740845555
vertex 363.176891465485 281.119969217022 605.645740845554
endloop
endfacet
facet normal -1.63590259758545e-14 -4.76663000377374e-14 -1.0
outer loop
vertex 363.934250778365 276.877328529903 605.645740845555
vertex 363.347262334039 279.825873991509 605.645740845554
vertex 363.846764446563 278.619969217022 605.645740845554
endloop
endfacet
facet normal -1.63590259758545e-14 -4.76663000377374e-14 -1.0
outer loop
vertex 363.934250778365 276.877328529903 605.645740845555
vertex 363.846764446563 278.619969217022 605.645740845554
vertex 364.641357559552 277.584435311089 605.645740845554
endloop
endfacet
facet normal -1.63590259758545e-14 -4.76663000377374e-14 -1.0
outer loop
vertex 363.934250778365 276.877328529903 605.645740845555
vertex 364.641357559552 277.584435311089 605.645740845554
vertex 365.176891465485 275.923816794316 605.645740845555
endloop
endfacet
facet normal -1.63590259758545e-14 -4.76663000377374e-14 -1.0
outer loop
vertex 365.176891465485 275.923816794316 605.645740845555
vertex 364.641357559552 277.584435311089 605.645740845554
vertex 365.676891465485 276.7898421981 605.645740845554
endloop
endfacet
facet normal -1.63590259758545e-14 -4.76663000377374e-14 -1.0
outer loop
vertex 365.176891465485 275.923816794316 605.645740845555
vertex 365.676891465485 276.7898421981 605.645740845554
vertex 366.623977194869 275.324414259288 605.645740845555
endloop
endfacet
facet normal -1.63590259758545e-14 -4.76663000377374e-14 -1.0
outer loop
vertex 366.623977194869 275.324414259288 605.645740845555
vertex 365.676891465485 276.7898421981 605.645740845554
vertex 366.882796239972 276.290340085576 605.645740845553
endloop
endfacet
facet normal -1.63590259758545e-14 -4.76663000377374e-14 -1.0
outer loop
vertex 366.623977194869 275.324414259288 605.645740845555
vertex 366.882796239972 276.290340085576 605.645740845553
vertex 368.176891465485 275.119969217022 605.645740845555
endloop
endfacet
facet normal -1.63590259758545e-14 -4.76663000377374e-14 -1.0
outer loop
vertex 368.176891465485 275.119969217022 605.645740845555
vertex 366.882796239972 276.290340085576 605.645740845553
vertex 368.176891465485 276.119969217022 605.645740845553
endloop
endfacet
facet normal -1.63590259758545e-14 -4.76663000377374e-14 -1.0
outer loop
vertex 368.176891465485 275.119969217022 605.645740845555
vertex 368.176891465485 276.119969217022 605.645740845553
vertex 369.7298057361 275.324414259288 605.645740845555
endloop
endfacet
facet normal -1.63590259758545e-14 -4.76663000377374e-14 -1.0
outer loop
vertex 369.7298057361 275.324414259288 605.645740845555
vertex 368.176891465485 276.119969217022 605.645740845553
vertex 369.470986690997 276.290340085576 605.645740845553
endloop
endfacet
facet normal -1.63590259758545e-14 -4.76663000377374e-14 -1.0
outer loop
vertex 369.7298057361 275.324414259288 605.645740845555
vertex 369.470986690997 276.290340085576 605.645740845553
vertex 370.676891465485 276.789842198099 605.645740845553
endloop
endfacet
facet normal -1.63590259758545e-14 -4.76663000377374e-14 -1.0
outer loop
vertex 369.7298057361 275.324414259288 605.645740845555
vertex 370.676891465485 276.789842198099 605.645740845553
vertex 371.176891465484 275.923816794316 605.645740845555
endloop
endfacet
facet normal -1.63590259758545e-14 -4.76663000377374e-14 -1.0
outer loop
vertex 371.176891465484 275.923816794316 605.645740845555
vertex 370.676891465485 276.789842198099 605.645740845553
vertex 371.712425371418 277.584435311089 605.645740845553
endloop
endfacet
facet normal -1.63590259758545e-14 -4.76663000377374e-14 -1.0
outer loop
vertex 371.176891465484 275.923816794316 605.645740845555
vertex 371.712425371418 277.584435311089 605.645740845553
vertex 372.419532152604 276.877328529903 605.645740845555
endloop
endfacet
facet normal -1.63590259758545e-14 -4.76663000377374e-14 -1.0
outer loop
vertex 372.419532152604 276.877328529903 605.645740845555
vertex 371.712425371418 277.584435311089 605.645740845553
vertex 372.507018484407 278.619969217022 605.645740845553
endloop
endfacet
facet normal -1.63590259758545e-14 -4.76663000377374e-14 -1.0
outer loop
vertex 372.419532152604 276.877328529903 605.645740845555
vertex 372.507018484407 278.619969217022 605.645740845553
vertex 373.373043888191 278.119969217022 605.645740845555
endloop
endfacet
facet normal -1.63590259758545e-14 -4.76663000377374e-14 -1.0
outer loop
vertex 373.373043888191 278.119969217022 605.645740845555
vertex 372.507018484407 278.619969217022 605.645740845553
vertex 373.00652059693 279.825873991509 605.645740845553
endloop
endfacet
facet normal -1.63590259758545e-14 -4.76663000377374e-14 -1.0
outer loop
vertex 373.373043888191 278.119969217022 605.645740845555
vertex 373.00652059693 279.825873991509 605.645740845553
vertex 373.176891465485 281.119969217022 605.645740845553
endloop
endfacet
facet normal -1.63590259758545e-14 -4.76663000377374e-14 -1.0
outer loop
vertex 373.373043888191 278.119969217022 605.645740845555
vertex 373.176891465485 281.119969217022 605.645740845553
vertex 373.373043888191 284.119969217022 605.645740845554
endloop
endfacet
facet normal -1.63590259758545e-14 -4.76663000377374e-14 -1.0
outer loop
vertex 373.373043888191 278.119969217022 605.645740845555
vertex 373.373043888191 284.119969217022 605.645740845554
vertex 373.972446423219 282.672883487637 605.645740845554
endloop
endfacet
facet normal -1.63590259758545e-14 -4.76663000377374e-14 -1.0
outer loop
vertex 373.373043888191 278.119969217022 605.645740845555
vertex 373.972446423219 282.672883487637 605.645740845554
vertex 373.972446423219 279.567054946407 605.645740845555
endloop
endfacet
facet normal -1.63590259758545e-14 -4.76663000377374e-14 -1.0
outer loop
vertex 373.972446423219 279.567054946407 605.645740845555
vertex 373.972446423219 282.672883487637 605.645740845554
vertex 374.176891465484 281.119969217022 605.645740845554
endloop
endfacet
facet normal -0.707106781186553 0.707106781186542 -1.03516245903233e-13
outer loop
vertex 363.934250778365 285.362609904141 605.645740845554
vertex 365.176891465485 286.316121639729 606.645740845554
vertex 365.176891465485 286.316121639729 605.645740845554
endloop
endfacet
facet normal -0.499999999999993 0.866025403784443 -1.213027248066e-13
outer loop
vertex 365.176891465485 286.316121639729 606.645740845554
vertex 363.934250778365 285.362609904141 605.645740845554
vertex 363.934250778365 285.362609904142 606.645740845554
endloop
endfacet
facet normal 0.707106781186542 -0.707106781186553 1.03516245903235e-13
outer loop
vertex 372.419532152604 276.877328529903 605.645740845555
vertex 371.176891465484 275.923816794316 606.645740845555
vertex 371.176891465484 275.923816794316 605.645740845555
endloop
endfacet
facet normal 0.500000000000002 -0.866025403784437 1.21302724806599e-13
outer loop
vertex 371.176891465484 275.923816794316 606.645740845555
vertex 372.419532152604 276.877328529903 605.645740845555
vertex 372.419532152604 276.877328529903 606.645740845555
endloop
endfacet
facet normal 0.707106781186547 -0.707106781186548 -9.4410367092297e-14
outer loop
vertex 371.712425371418 277.584435311089 605.645740845553
vertex 370.676891465484 276.7898421981 601.045740845553
vertex 371.712425371417 277.584435311089 601.045740845553
endloop
endfacet
facet normal 0.499999999999988 -0.866025403784446 -9.30088788645756e-14
outer loop
vertex 370.676891465484 276.7898421981 601.045740845553
vertex 371.712425371418 277.584435311089 605.645740845553
vertex 370.676891465485 276.789842198099 605.645740845553
endloop
endfacet
facet normal -0.991444861373814 -0.130526192220028 1.07184261883716e-18
outer loop
vertex 371.461039274867 281.999953970371 606.645740845555
vertex 371.576891465484 281.119969217023 601.045740845554
vertex 371.576891465484 281.119969217023 606.645740845555
endloop
endfacet
facet normal -0.991444861373814 -0.130526192220028 1.07184261883716e-18
outer loop
vertex 371.576891465484 281.119969217023 601.045740845554
vertex 371.461039274867 281.999953970371 606.645740845555
vertex 371.461039274867 281.999953970371 601.045740845554
endloop
endfacet
facet normal 0.258819045102507 -0.965925826289072 -8.5268989246673e-14
outer loop
vertex 369.470986690997 276.290340085576 605.645740845553
vertex 368.176891465484 276.119969217022 601.045740845553
vertex 369.470986690997 276.290340085577 601.045740845553
endloop
endfacet
facet normal 2.34362190255512e-15 -1.0 -7.1718158925278e-14
outer loop
vertex 368.176891465484 276.119969217022 601.045740845553
vertex 369.470986690997 276.290340085576 605.645740845553
vertex 368.176891465485 276.119969217022 605.645740845553
endloop
endfacet
facet normal 0.500000000000013 -0.866025403784431 1.26909108646076e-13
outer loop
vertex 366.176891465484 284.584070832161 606.645740845554
vertex 365.348464340738 283.948396341768 601.045740845553
vertex 366.176891465484 284.58407083216 601.045740845553
endloop
endfacet
facet normal 0.707106781186542 -0.707106781186553 1.10218074498026e-13
outer loop
vertex 365.348464340738 283.948396341768 601.045740845553
vertex 366.176891465484 284.584070832161 606.645740845554
vertex 365.348464340738 283.948396341769 606.645740845554
endloop
endfacet
facet normal 0.965925826289071 0.258819045102511 -4.11305124993121e-14
outer loop
vertex 373.00652059693 282.414064442535 601.045740845553
vertex 372.507018484407 283.619969217022 605.645740845554
vertex 373.00652059693 282.414064442534 605.645740845553
endloop
endfacet
facet normal 0.866025403784441 0.499999999999997 -1.76597858979092e-14
outer loop
vertex 372.507018484407 283.619969217022 605.645740845554
vertex 373.00652059693 282.414064442535 601.045740845553
vertex 372.507018484407 283.619969217022 601.045740845554
endloop
endfacet
facet normal -1.4336450298004e-14 1.29905130702908e-13 1.0
outer loop
vertex 364.892743656101 280.239984463674 606.645740845555
vertex 364.313188160328 282.155245397433 606.645740845555
vertex 364.313188160328 280.084693036613 606.645740845555
endloop
endfacet
facet normal -1.4336450298004e-14 1.29905130702908e-13 1.0
outer loop
vertex 364.313188160328 282.155245397433 606.645740845555
vertex 364.892743656101 280.239984463674 606.645740845555
vertex 364.776891465484 281.119969217023 606.645740845555
endloop
endfacet
facet normal -1.4336450298004e-14 1.29905130702908e-13 1.0
outer loop
vertex 364.892743656101 281.999953970371 606.645740845555
vertex 364.313188160328 282.155245397433 606.645740845555
vertex 364.776891465484 281.119969217023 606.645740845555
endloop
endfacet
facet normal -1.4336450298004e-14 1.29905130702908e-13 1.0
outer loop
vertex 372.040594770641 280.084693036613 606.645740845555
vertex 371.576891465484 281.119969217023 606.645740845555
vertex 371.461039274867 280.239984463674 606.645740845555
endloop
endfacet
facet normal -1.4336450298004e-14 1.29905130702908e-13 1.0
outer loop
vertex 362.38133650775 279.567054946407 606.645740845555
vertex 362.38133650775 282.672883487637 606.645740845554
vertex 362.176891465485 281.119969217022 606.645740845555
endloop
endfacet
facet normal -1.4336450298004e-14 1.29905130702908e-13 1.0
outer loop
vertex 362.38133650775 282.672883487637 606.645740845554
vertex 362.38133650775 279.567054946407 606.645740845555
vertex 362.980739042778 278.119969217022 606.645740845555
endloop
endfacet
facet normal -1.4336450298004e-14 1.29905130702908e-13 1.0
outer loop
vertex 362.38133650775 282.672883487637 606.645740845554
vertex 362.980739042778 278.119969217022 606.645740845555
vertex 362.980739042778 284.119969217022 606.645740845554
endloop
endfacet
facet normal -1.4336450298004e-14 1.29905130702908e-13 1.0
outer loop
vertex 362.980739042778 284.119969217022 606.645740845554
vertex 362.980739042778 278.119969217022 606.645740845555
vertex 363.934250778365 276.877328529903 606.645740845555
endloop
endfacet
facet normal -1.4336450298004e-14 1.29905130702908e-13 1.0
outer loop
vertex 362.980739042778 284.119969217022 606.645740845554
vertex 363.934250778365 276.877328529903 606.645740845555
vertex 363.934250778365 285.362609904142 606.645740845554
endloop
endfacet
facet normal -1.4336450298004e-14 1.29905130702908e-13 1.0
outer loop
vertex 363.934250778365 285.362609904142 606.645740845554
vertex 363.934250778365 276.877328529903 606.645740845555
vertex 364.313188160328 280.084693036613 606.645740845555
endloop
endfacet
facet normal -1.4336450298004e-14 1.29905130702908e-13 1.0
outer loop
vertex 364.313188160328 280.084693036613 606.645740845555
vertex 363.934250778365 276.877328529903 606.645740845555
vertex 365.176891465485 275.923816794316 606.645740845555
endloop
endfacet
facet normal -1.4336450298004e-14 1.29905130702908e-13 1.0
outer loop
vertex 364.313188160328 280.084693036613 606.645740845555
vertex 365.176891465485 275.923816794316 606.645740845555
vertex 364.712789850347 279.119969217023 606.645740845555
endloop
endfacet
facet normal -1.4336450298004e-14 1.29905130702908e-13 1.0
outer loop
vertex 364.712789850347 279.119969217023 606.645740845555
vertex 365.176891465485 275.923816794316 606.645740845555
vertex 365.348464340738 278.291542092277 606.645740845555
endloop
endfacet
facet normal -1.4336450298004e-14 1.29905130702908e-13 1.0
outer loop
vertex 365.348464340738 278.291542092277 606.645740845555
vertex 365.176891465485 275.923816794316 606.645740845555
vertex 366.623977194869 275.324414259288 606.645740845555
endloop
endfacet
facet normal -1.4336450298004e-14 1.29905130702908e-13 1.0
outer loop
vertex 365.348464340738 278.291542092277 606.645740845555
vertex 366.623977194869 275.324414259288 606.645740845555
vertex 366.176891465484 277.655867601885 606.645740845555
endloop
endfacet
facet normal -1.4336450298004e-14 1.29905130702908e-13 1.0
outer loop
vertex 366.176891465484 277.655867601885 606.645740845555
vertex 366.623977194869 275.324414259288 606.645740845555
vertex 367.141615285074 277.256265911867 606.645740845555
endloop
endfacet
facet normal -1.4336450298004e-14 1.29905130702908e-13 1.0
outer loop
vertex 367.141615285074 277.256265911867 606.645740845555
vertex 366.623977194869 275.324414259288 606.645740845555
vertex 368.176891465485 275.119969217022 606.645740845556
endloop
endfacet
facet normal -1.4336450298004e-14 1.29905130702908e-13 1.0
outer loop
vertex 367.141615285074 277.256265911867 606.645740845555
vertex 368.176891465485 275.119969217022 606.645740845556
vertex 367.296906712136 277.83582140764 606.645740845555
endloop
endfacet
facet normal -1.4336450298004e-14 1.29905130702908e-13 1.0
outer loop
vertex 367.296906712136 277.83582140764 606.645740845555
vertex 368.176891465485 275.119969217022 606.645740845556
vertex 368.176891465484 277.719969217023 606.645740845555
endloop
endfacet
facet normal -1.4336450298004e-14 1.29905130702908e-13 1.0
outer loop
vertex 368.176891465484 277.719969217023 606.645740845555
vertex 368.176891465485 275.119969217022 606.645740845556
vertex 369.056876218833 277.83582140764 606.645740845555
endloop
endfacet
facet normal -1.4336450298004e-14 1.29905130702908e-13 1.0
outer loop
vertex 369.056876218833 277.83582140764 606.645740845555
vertex 368.176891465485 275.119969217022 606.645740845556
vertex 369.212167645894 277.256265911867 606.645740845555
endloop
endfacet
facet normal -1.4336450298004e-14 1.29905130702908e-13 1.0
outer loop
vertex 369.212167645894 277.256265911867 606.645740845555
vertex 368.176891465485 275.119969217022 606.645740845556
vertex 369.7298057361 275.324414259288 606.645740845555
endloop
endfacet
facet normal -1.4336450298004e-14 1.29905130702908e-13 1.0
outer loop
vertex 369.212167645894 277.256265911867 606.645740845555
vertex 369.7298057361 275.324414259288 606.645740845555
vertex 370.176891465484 277.655867601885 606.645740845555
endloop
endfacet
facet normal -1.4336450298004e-14 1.29905130702908e-13 1.0
outer loop
vertex 370.176891465484 277.655867601885 606.645740845555
vertex 369.7298057361 275.324414259288 606.645740845555
vertex 371.176891465484 275.923816794316 606.645740845555
endloop
endfacet
facet normal -1.4336450298004e-14 1.29905130702908e-13 1.0
outer loop
vertex 370.176891465484 277.655867601885 606.645740845555
vertex 371.176891465484 275.923816794316 606.645740845555
vertex 371.005318590231 278.291542092277 606.645740845555
endloop
endfacet
facet normal -1.4336450298004e-14 1.29905130702908e-13 1.0
outer loop
vertex 371.005318590231 278.291542092277 606.645740845555
vertex 371.176891465484 275.923816794316 606.645740845555
vertex 371.640993080622 279.119969217023 606.645740845555
endloop
endfacet
facet normal -1.4336450298004e-14 1.29905130702908e-13 1.0
outer loop
vertex 371.640993080622 279.119969217023 606.645740845555
vertex 371.176891465484 275.923816794316 606.645740845555
vertex 372.419532152604 276.877328529903 606.645740845555
endloop
endfacet
facet normal -1.4336450298004e-14 1.29905130702908e-13 1.0
outer loop
vertex 371.640993080622 279.119969217023 606.645740845555
vertex 372.419532152604 276.877328529903 606.645740845555
vertex 372.040594770641 280.084693036613 606.645740845555
endloop
endfacet
facet normal -1.4336450298004e-14 1.29905130702908e-13 1.0
outer loop
vertex 372.040594770641 280.084693036613 606.645740845555
vertex 372.419532152604 276.877328529903 606.645740845555
vertex 372.040594770641 282.155245397433 606.645740845555
endloop
endfacet
facet normal -1.4336450298004e-14 1.29905130702908e-13 1.0
outer loop
vertex 363.934250778365 285.362609904142 606.645740845554
vertex 364.313188160328 282.155245397433 606.645740845555
vertex 365.176891465485 286.316121639729 606.645740845554
endloop
endfacet
facet normal -1.4336450298004e-14 1.29905130702908e-13 1.0
outer loop
vertex 364.313188160328 282.155245397433 606.645740845555
vertex 363.934250778365 285.362609904142 606.645740845554
vertex 364.313188160328 280.084693036613 606.645740845555
endloop
endfacet
facet normal -1.4336450298004e-14 1.29905130702908e-13 1.0
outer loop
vertex 365.176891465485 286.316121639729 606.645740845554
vertex 364.313188160328 282.155245397433 606.645740845555
vertex 364.712789850347 283.119969217023 606.645740845554
endloop
endfacet
facet normal -1.4336450298004e-14 1.29905130702908e-13 1.0
outer loop
vertex 365.176891465485 286.316121639729 606.645740845554
vertex 364.712789850347 283.119969217023 606.645740845554
vertex 365.348464340738 283.948396341769 606.645740845554
endloop
endfacet
facet normal -1.4336450298004e-14 1.29905130702908e-13 1.0
outer loop
vertex 365.176891465485 286.316121639729 606.645740845554
vertex 365.348464340738 283.948396341769 606.645740845554
vertex 366.623977194869 286.915524174757 606.645740845554
endloop
endfacet
facet normal -1.4336450298004e-14 1.29905130702908e-13 1.0
outer loop
vertex 366.623977194869 286.915524174757 606.645740845554
vertex 365.348464340738 283.948396341769 606.645740845554
vertex 366.176891465484 284.584070832161 606.645740845554
endloop
endfacet
facet normal -1.4336450298004e-14 1.29905130702908e-13 1.0
outer loop
vertex 366.623977194869 286.915524174757 606.645740845554
vertex 366.176891465484 284.584070832161 606.645740845554
vertex 367.141615285074 284.983672522179 606.645740845554
endloop
endfacet
facet normal -1.4336450298004e-14 1.29905130702908e-13 1.0
outer loop
vertex 366.623977194869 286.915524174757 606.645740845554
vertex 367.141615285074 284.983672522179 606.645740845554
vertex 368.176891465485 287.119969217022 606.645740845554
endloop
endfacet
facet normal -1.4336450298004e-14 1.29905130702908e-13 1.0
outer loop
vertex 368.176891465485 287.119969217022 606.645740845554
vertex 367.141615285074 284.983672522179 606.645740845554
vertex 367.296906712136 284.404117026406 606.645740845554
endloop
endfacet
facet normal -1.4336450298004e-14 1.29905130702908e-13 1.0
outer loop
vertex 368.176891465485 287.119969217022 606.645740845554
vertex 367.296906712136 284.404117026406 606.645740845554
vertex 368.176891465484 284.519969217023 606.645740845554
endloop
endfacet
facet normal -1.4336450298004e-14 1.29905130702908e-13 1.0
outer loop
vertex 368.176891465485 287.119969217022 606.645740845554
vertex 368.176891465484 284.519969217023 606.645740845554
vertex 369.056876218833 284.404117026406 606.645740845554
endloop
endfacet
facet normal -1.4336450298004e-14 1.29905130702908e-13 1.0
outer loop
vertex 368.176891465485 287.119969217022 606.645740845554
vertex 369.056876218833 284.404117026406 606.645740845554
vertex 369.212167645894 284.983672522179 606.645740845554
endloop
endfacet
facet normal -1.4336450298004e-14 1.29905130702908e-13 1.0
outer loop
vertex 368.176891465485 287.119969217022 606.645740845554
vertex 369.212167645894 284.983672522179 606.645740845554
vertex 369.7298057361 286.915524174757 606.645740845554
endloop
endfacet
facet normal -1.4336450298004e-14 1.29905130702908e-13 1.0
outer loop
vertex 369.7298057361 286.915524174757 606.645740845554
vertex 369.212167645894 284.983672522179 606.645740845554
vertex 370.176891465484 284.584070832161 606.645740845554
endloop
endfacet
facet normal -1.4336450298004e-14 1.29905130702908e-13 1.0
outer loop
vertex 369.7298057361 286.915524174757 606.645740845554
vertex 370.176891465484 284.584070832161 606.645740845554
vertex 371.176891465484 286.316121639729 606.645740845554
endloop
endfacet
facet normal -1.4336450298004e-14 1.29905130702908e-13 1.0
outer loop
vertex 371.176891465484 286.316121639729 606.645740845554
vertex 370.176891465484 284.584070832161 606.645740845554
vertex 371.005318590231 283.948396341769 606.645740845555
endloop
endfacet
facet normal -1.4336450298004e-14 1.29905130702908e-13 1.0
outer loop
vertex 371.176891465484 286.316121639729 606.645740845554
vertex 371.005318590231 283.948396341769 606.645740845555
vertex 371.640993080622 283.119969217023 606.645740845555
endloop
endfacet
facet normal -1.4336450298004e-14 1.29905130702908e-13 1.0
outer loop
vertex 371.176891465484 286.316121639729 606.645740845554
vertex 371.640993080622 283.119969217023 606.645740845555
vertex 372.419532152604 285.362609904142 606.645740845554
endloop
endfacet
facet normal -1.4336450298004e-14 1.29905130702908e-13 1.0
outer loop
vertex 372.419532152604 285.362609904142 606.645740845554
vertex 371.640993080622 283.119969217023 606.645740845555
vertex 372.040594770641 282.155245397433 606.645740845555
endloop
endfacet
facet normal -1.4336450298004e-14 1.29905130702908e-13 1.0
outer loop
vertex 372.419532152604 285.362609904142 606.645740845554
vertex 372.040594770641 282.155245397433 606.645740845555
vertex 372.419532152604 276.877328529903 606.645740845555
endloop
endfacet
facet normal -1.4336450298004e-14 1.29905130702908e-13 1.0
outer loop
vertex 372.419532152604 285.362609904142 606.645740845554
vertex 372.419532152604 276.877328529903 606.645740845555
vertex 373.373043888191 278.119969217022 606.645740845555
endloop
endfacet
facet normal -1.4336450298004e-14 1.29905130702908e-13 1.0
outer loop
vertex 372.419532152604 285.362609904142 606.645740845554
vertex 373.373043888191 278.119969217022 606.645740845555
vertex 373.373043888191 284.119969217022 606.645740845554
endloop
endfacet
facet normal -1.4336450298004e-14 1.29905130702908e-13 1.0
outer loop
vertex 373.373043888191 284.119969217022 606.645740845554
vertex 373.373043888191 278.119969217022 606.645740845555
vertex 373.972446423219 279.567054946407 606.645740845555
endloop
endfacet
facet normal -1.4336450298004e-14 1.29905130702908e-13 1.0
outer loop
vertex 373.373043888191 284.119969217022 606.645740845554
vertex 373.972446423219 279.567054946407 606.645740845555
vertex 373.972446423219 282.672883487637 606.645740845554
endloop
endfacet
facet normal -1.4336450298004e-14 1.29905130702908e-13 1.0
outer loop
vertex 373.972446423219 282.672883487637 606.645740845554
vertex 373.972446423219 279.567054946407 606.645740845555
vertex 374.176891465484 281.119969217022 606.645740845555
endloop
endfacet
facet normal -1.4336450298004e-14 1.29905130702908e-13 1.0
outer loop
vertex 371.576891465484 281.119969217023 606.645740845555
vertex 372.040594770641 282.155245397433 606.645740845555
vertex 371.461039274867 281.999953970371 606.645740845555
endloop
endfacet
facet normal -1.4336450298004e-14 1.29905130702908e-13 1.0
outer loop
vertex 372.040594770641 282.155245397433 606.645740845555
vertex 371.576891465484 281.119969217023 606.645740845555
vertex 372.040594770641 280.084693036613 606.645740845555
endloop
endfacet
facet normal 0.500000000000002 -0.866025403784437 1.21302724806599e-13
outer loop
vertex 371.176891465484 275.923816794316 606.645740845555
vertex 369.7298057361 275.324414259288 605.645740845555
vertex 371.176891465484 275.923816794316 605.645740845555
endloop
endfacet
facet normal 0.258819045102529 -0.965925826289066 1.30822623476626e-13
outer loop
vertex 369.7298057361 275.324414259288 605.645740845555
vertex 371.176891465484 275.923816794316 606.645740845555
vertex 369.7298057361 275.324414259288 606.645740845555
endloop
endfacet
facet normal 0.965925826288974 -0.258819045102871 2.34225730369706e-14
outer loop
vertex 369.056876218833 284.404117026406 601.045740845553
vertex 369.212167645894 284.983672522179 606.645740845554
vertex 369.056876218833 284.404117026406 606.645740845554
endloop
endfacet
facet normal 0.965925826288974 -0.258819045102871 2.34225730369706e-14
outer loop
vertex 369.212167645894 284.983672522179 606.645740845554
vertex 369.056876218833 284.404117026406 601.045740845553
vertex 369.212167645895 284.983672522178 601.045740845553
endloop
endfacet
facet normal 0.258819045102514 0.96592582628907 -1.23075184737736e-13
outer loop
vertex 369.7298057361 286.915524174757 606.645740845554
vertex 371.176891465484 286.316121639729 605.645740845554
vertex 369.7298057361 286.915524174757 605.645740845553
endloop
endfacet
facet normal 0.49999999999999 0.866025403784444 -1.06335822475627e-13
outer loop
vertex 371.176891465484 286.316121639729 605.645740845554
vertex 369.7298057361 286.915524174757 606.645740845554
vertex 371.176891465484 286.316121639729 606.645740845554
endloop
endfacet
facet normal -0.258819045102529 -0.965925826289066 1.23075184737735e-13
outer loop
vertex 366.623977194869 275.324414259288 605.645740845555
vertex 365.176891465485 275.923816794316 606.645740845555
vertex 365.176891465485 275.923816794316 605.645740845555
endloop
endfacet
facet normal -0.499999999999993 -0.866025403784443 1.06335822475627e-13
outer loop
vertex 365.176891465485 275.923816794316 606.645740845555
vertex 366.623977194869 275.324414259288 605.645740845555
vertex 366.623977194869 275.324414259288 606.645740845555
endloop
endfacet
facet normal 2.42382189161588e-15 1.0 -1.31427176551328e-13
outer loop
vertex 368.176891465485 287.119969217022 605.645740845554
vertex 369.7298057361 286.915524174757 606.645740845554
vertex 369.7298057361 286.915524174757 605.645740845553
endloop
endfacet
facet normal 0.258819045102514 0.96592582628907 -1.23075184737736e-13
outer loop
vertex 369.7298057361 286.915524174757 606.645740845554
vertex 368.176891465485 287.119969217022 605.645740845554
vertex 368.176891465485 287.119969217022 606.645740845554
endloop
endfacet
facet normal -0.707106781186543 -0.707106781186552 8.23498496400585e-14
outer loop
vertex 363.934250778365 276.877328529903 606.645740845555
vertex 362.980739042778 278.119969217022 605.645740845555
vertex 363.934250778365 276.877328529903 605.645740845555
endloop
endfacet
facet normal -0.866025403784441 -0.499999999999996 5.27518706410801e-14
outer loop
vertex 362.980739042778 278.119969217022 605.645740845555
vertex 363.934250778365 276.877328529903 606.645740845555
vertex 362.980739042778 278.119969217022 606.645740845555
endloop
endfacet
facet normal -1.0 -2.15648859474655e-15 -1.49669023309732e-14
outer loop
vertex 362.176891465485 281.119969217022 606.645740845555
vertex 362.38133650775 282.672883487637 605.645740845554
vertex 362.176891465485 281.119969217022 605.645740845554
endloop
endfacet
facet normal -0.965925826289065 0.258819045102533 -4.84727738365701e-14
outer loop
vertex 362.38133650775 282.672883487637 605.645740845554
vertex 362.176891465485 281.119969217022 606.645740845555
vertex 362.38133650775 282.672883487637 606.645740845554
endloop
endfacet
facet normal 0.965925826289066 -0.258819045102531 4.84727738365698e-14
outer loop
vertex 373.972446423219 279.567054946407 605.645740845555
vertex 373.373043888191 278.119969217022 606.645740845555
vertex 373.373043888191 278.119969217022 605.645740845555
endloop
endfacet
facet normal 0.866025403784443 -0.499999999999993 7.86753059102468e-14
outer loop
vertex 373.373043888191 278.119969217022 606.645740845555
vertex 373.972446423219 279.567054946407 605.645740845555
vertex 373.972446423219 279.567054946407 606.645740845555
endloop
endfacet
facet normal -0.965925826289069 0.258819045102519 -4.84727738365683e-14
outer loop
vertex 362.38133650775 282.672883487637 606.645740845554
vertex 362.980739042778 284.119969217022 605.645740845554
vertex 362.38133650775 282.672883487637 605.645740845554
endloop
endfacet
facet normal -0.866025403784441 0.499999999999996 -7.86753059102472e-14
outer loop
vertex 362.980739042778 284.119969217022 605.645740845554
vertex 362.38133650775 282.672883487637 606.645740845554
vertex 362.980739042778 284.119969217022 606.645740845554
endloop
endfacet
facet normal 0.866025403784445 0.499999999999988 -5.27518706410791e-14
outer loop
vertex 373.373043888191 284.119969217022 605.645740845554
vertex 373.972446423219 282.672883487637 606.645740845554
vertex 373.972446423219 282.672883487637 605.645740845554
endloop
endfacet
facet normal 0.965925826289066 0.258819045102528 -1.9558938834503e-14
outer loop
vertex 373.972446423219 282.672883487637 606.645740845554
vertex 373.373043888191 284.119969217022 605.645740845554
vertex 373.373043888191 284.119969217022 606.645740845554
endloop
endfacet
facet normal -0.991444861373813 0.130526192220035 1.05162535441554e-15
outer loop
vertex 371.576891465484 281.119969217023 606.645740845555
vertex 371.461039274867 280.239984463674 601.045740845554
vertex 371.461039274867 280.239984463674 606.645740845555
endloop
endfacet
facet normal -0.991444861373813 0.130526192220035 1.05162535441554e-15
outer loop
vertex 371.461039274867 280.239984463674 601.045740845554
vertex 371.576891465484 281.119969217023 606.645740845555
vertex 371.576891465484 281.119969217023 601.045740845554
endloop
endfacet
facet normal -0.965925826289055 -0.258819045102571 7.8563682352468e-15
outer loop
vertex 367.141615285074 284.983672522179 606.645740845554
vertex 367.296906712136 284.404117026406 601.045740845553
vertex 367.296906712136 284.404117026406 606.645740845554
endloop
endfacet
facet normal -0.965925826289055 -0.258819045102571 7.8563682352468e-15
outer loop
vertex 367.296906712136 284.404117026406 601.045740845553
vertex 367.141615285074 284.983672522179 606.645740845554
vertex 367.141615285074 284.983672522178 601.045740845553
endloop
endfacet
facet normal 0.258819045102523 -0.965925826289068 1.30822623476626e-13
outer loop
vertex 369.7298057361 275.324414259288 606.645740845555
vertex 368.176891465485 275.119969217022 605.645740845555
vertex 369.7298057361 275.324414259288 605.645740845555
endloop
endfacet
facet normal 2.41491078172019e-15 -1.0 1.31427176551328e-13
outer loop
vertex 368.176891465485 275.119969217022 605.645740845555
vertex 369.7298057361 275.324414259288 606.645740845555
vertex 368.176891465485 275.119969217022 606.645740845556
endloop
endfacet
facet normal -0.258819045102511 0.965925826289071 8.52689892466731e-14
outer loop
vertex 366.882796239972 285.949598348467 601.045740845554
vertex 368.176891465485 286.119969217022 605.645740845554
vertex 368.176891465484 286.119969217022 601.045740845554
endloop
endfacet
facet normal -8.91110989564684e-17 1.0 7.17181589252778e-14
outer loop
vertex 368.176891465485 286.119969217022 605.645740845554
vertex 366.882796239972 285.949598348467 601.045740845554
vertex 366.882796239972 285.949598348467 605.645740845554
endloop
endfacet
facet normal -1.0 -2.99413292493748e-15 6.17982626452709e-14
outer loop
vertex 363.176891465485 281.119969217022 605.645740845554
vertex 363.347262334039 279.825873991509 601.045740845554
vertex 363.347262334039 279.825873991509 605.645740845554
endloop
endfacet
facet normal -0.965925826289071 -0.258819045102513 4.11305124993119e-14
outer loop
vertex 363.347262334039 279.825873991509 601.045740845554
vertex 363.176891465485 281.119969217022 605.645740845554
vertex 363.176891465484 281.119969217022 601.045740845554
endloop
endfacet
facet normal -0.382683432365123 0.923879532511273 -1.32060095127398e-13
outer loop
vertex 369.212167645894 277.256265911867 606.645740845555
vertex 370.176891465484 277.655867601884 601.045740845554
vertex 369.212167645895 277.256265911866 601.045740845554
endloop
endfacet
facet normal -0.500000000000003 0.866025403784437 -1.26909108646077e-13
outer loop
vertex 370.176891465484 277.655867601884 601.045740845554
vertex 369.212167645894 277.256265911867 606.645740845555
vertex 370.176891465484 277.655867601885 606.645740845555
endloop
endfacet
facet normal -0.965925826289073 0.258819045102504 7.82545633184127e-14
outer loop
vertex 363.347262334039 282.414064442534 605.645740845554
vertex 363.176891465484 281.119969217022 601.045740845554
vertex 363.176891465485 281.119969217022 605.645740845554
endloop
endfacet
facet normal -1.0 -1.54162201194686e-15 6.1798262645271e-14
outer loop
vertex 363.176891465484 281.119969217022 601.045740845554
vertex 363.347262334039 282.414064442534 605.645740845554
vertex 363.347262334039 282.414064442535 601.045740845554
endloop
endfacet
facet normal -0.866025403784444 -0.499999999999991 1.76597858979098e-14
outer loop
vertex 363.846764446563 278.619969217022 605.645740845554
vertex 364.641357559552 277.584435311089 601.045740845554
vertex 364.641357559552 277.584435311089 605.645740845554
endloop
endfacet
facet normal -0.707106781186551 -0.707106781186544 -7.01442592825945e-15
outer loop
vertex 364.641357559552 277.584435311089 601.045740845554
vertex 363.846764446563 278.619969217022 605.645740845554
vertex 363.846764446562 278.619969217022 601.045740845554
endloop
endfacet
facet normal -0.499999999999995 -0.866025403784442 -3.12106162193052e-14
outer loop
vertex 365.676891465485 276.7898421981 605.645740845554
vertex 364.641357559552 277.584435311089 601.045740845554
vertex 365.676891465484 276.7898421981 601.045740845554
endloop
endfacet
facet normal -0.707106781186551 -0.707106781186544 -7.01442592825945e-15
outer loop
vertex 364.641357559552 277.584435311089 601.045740845554
vertex 365.676891465485 276.7898421981 605.645740845554
vertex 364.641357559552 277.584435311089 605.645740845554
endloop
endfacet
facet normal -0.707106781186548 0.707106781186547 9.4410367092297e-14
outer loop
vertex 364.641357559552 284.655503122954 605.645740845554
vertex 363.846764446562 283.619969217022 601.045740845554
vertex 363.846764446563 283.619969217022 605.645740845554
endloop
endfacet
facet normal -0.866025403784439 0.5 8.93779448231866e-14
outer loop
vertex 363.846764446562 283.619969217022 601.045740845554
vertex 364.641357559552 284.655503122954 605.645740845554
vertex 364.641357559552 284.655503122955 601.045740845554
endloop
endfacet
facet normal -0.866025403784445 0.499999999999989 8.93779448231862e-14
outer loop
vertex 363.846764446563 283.619969217022 605.645740845554
vertex 363.347262334039 282.414064442535 601.045740845554
vertex 363.347262334039 282.414064442534 605.645740845554
endloop
endfacet
facet normal -0.965925826289069 0.258819045102517 7.82545633184134e-14
outer loop
vertex 363.347262334039 282.414064442535 601.045740845554
vertex 363.846764446563 283.619969217022 605.645740845554
vertex 363.846764446562 283.619969217022 601.045740845554
endloop
endfacet
facet normal -0.707106781186548 0.707106781186547 9.4410367092297e-14
outer loop
vertex 364.641357559552 284.655503122954 605.645740845554
vertex 365.676891465484 285.450096235944 601.045740845554
vertex 364.641357559552 284.655503122955 601.045740845554
endloop
endfacet
facet normal -0.499999999999996 0.866025403784441 9.30088788645757e-14
outer loop
vertex 365.676891465484 285.450096235944 601.045740845554
vertex 364.641357559552 284.655503122954 605.645740845554
vertex 365.676891465485 285.450096235944 605.645740845554
endloop
endfacet
facet normal 0.965925826289072 -0.258819045102508 -7.82545633184129e-14
outer loop
vertex 373.00652059693 279.825873991509 601.045740845553
vertex 373.176891465485 281.119969217022 605.645740845553
vertex 373.00652059693 279.825873991509 605.645740845553
endloop
endfacet
facet normal 1.0 -7.34275455401309e-15 -6.17982626452717e-14
outer loop
vertex 373.176891465485 281.119969217022 605.645740845553
vertex 373.00652059693 279.825873991509 601.045740845553
vertex 373.176891465484 281.119969217022 601.045740845553
endloop
endfacet
facet normal 0.866025403784443 0.499999999999992 -1.76597858979096e-14
outer loop
vertex 372.507018484407 283.619969217022 601.045740845554
vertex 371.712425371418 284.655503122954 605.645740845554
vertex 372.507018484407 283.619969217022 605.645740845554
endloop
endfacet
facet normal 0.707106781186548 0.707106781186547 7.01442592825989e-15
outer loop
vertex 371.712425371418 284.655503122954 605.645740845554
vertex 372.507018484407 283.619969217022 601.045740845554
vertex 371.712425371417 284.655503122955 601.045740845554
endloop
endfacet
facet normal 1.0 7.34275455401301e-15 -6.17982626452706e-14
outer loop
vertex 373.176891465484 281.119969217022 601.045740845553
vertex 373.00652059693 282.414064442534 605.645740845553
vertex 373.176891465485 281.119969217022 605.645740845553
endloop
endfacet
facet normal 0.965925826289071 0.258819045102511 -4.1130512499312e-14
outer loop
vertex 373.00652059693 282.414064442534 605.645740845553
vertex 373.176891465484 281.119969217022 601.045740845553
vertex 373.00652059693 282.414064442535 601.045740845553
endloop
endfacet
facet normal 0.258819045102518 0.965925826289069 5.32798545929861e-14
outer loop
vertex 369.470986690997 285.949598348467 605.645740845554
vertex 370.676891465484 285.450096235944 601.045740845554
vertex 369.470986690997 285.949598348467 601.045740845554
endloop
endfacet
facet normal 0.49999999999999 0.866025403784445 3.12106162193058e-14
outer loop
vertex 370.676891465484 285.450096235944 601.045740845554
vertex 369.470986690997 285.949598348467 605.645740845554
vertex 370.676891465485 285.450096235944 605.645740845554
endloop
endfacet
facet normal 0.130526192220028 -0.991444861373814 -1.70290636687848e-14
outer loop
vertex 368.176891465484 284.519969217023 606.645740845554
vertex 367.296906712136 284.404117026406 601.045740845553
vertex 368.176891465484 284.519969217023 601.045740845553
endloop
endfacet
facet normal 0.130526192220028 -0.991444861373814 -1.70290636687848e-14
outer loop
vertex 367.296906712136 284.404117026406 601.045740845553
vertex 368.176891465484 284.519969217023 606.645740845554
vertex 367.296906712136 284.404117026406 606.645740845554
endloop
endfacet
facet normal 0.707106781186548 -0.707106781186547 -9.4410367092297e-14
outer loop
vertex 371.712425371417 277.584435311089 601.045740845553
vertex 372.507018484407 278.619969217022 605.645740845553
vertex 371.712425371418 277.584435311089 605.645740845553
endloop
endfacet
facet normal 0.866025403784441 -0.499999999999995 -8.93779448231865e-14
outer loop
vertex 372.507018484407 278.619969217022 605.645740845553
vertex 371.712425371417 277.584435311089 601.045740845553
vertex 372.507018484407 278.619969217022 601.045740845553
endloop
endfacet
facet normal 0.707106781186539 0.707106781186556 -7.89996885912421e-14
outer loop
vertex 365.348464340738 278.291542092277 606.645740845555
vertex 366.176891465484 277.655867601884 601.045740845554
vertex 365.348464340738 278.291542092276 601.045740845554
endloop
endfacet
facet normal 0.499999999999993 0.866025403784443 -1.04834376273692e-13
outer loop
vertex 366.176891465484 277.655867601884 601.045740845554
vertex 365.348464340738 278.291542092277 606.645740845555
vertex 366.176891465484 277.655867601885 606.645740845555
endloop
endfacet
facet normal -0.499999999999999 -0.866025403784439 1.06335822475626e-13
outer loop
vertex 365.176891465485 275.923816794316 605.645740845555
vertex 363.934250778365 276.877328529903 606.645740845555
vertex 363.934250778365 276.877328529903 605.645740845555
endloop
endfacet
facet normal -0.707106781186543 -0.707106781186552 8.23498496400585e-14
outer loop
vertex 363.934250778365 276.877328529903 606.645740845555
vertex 365.176891465485 275.923816794316 605.645740845555
vertex 365.176891465485 275.923816794316 606.645740845555
endloop
endfacet
facet normal 0.991444861373814 0.130526192220025 -6.41073271378796e-15
outer loop
vertex 364.892743656101 280.239984463674 601.045740845554
vertex 364.776891465484 281.119969217023 606.645740845555
vertex 364.892743656101 280.239984463674 606.645740845555
endloop
endfacet
facet normal 0.991444861373814 0.130526192220025 -6.41073271378796e-15
outer loop
vertex 364.776891465484 281.119969217023 606.645740845555
vertex 364.892743656101 280.239984463674 601.045740845554
vertex 364.776891465484 281.119969217023 601.045740845554
endloop
endfacet
facet normal 2.41491078172019e-15 -1.0 1.31427176551328e-13
outer loop
vertex 368.176891465485 275.119969217022 605.645740845555
vertex 366.623977194869 275.324414259288 606.645740845555
vertex 366.623977194869 275.324414259288 605.645740845555
endloop
endfacet
facet normal -0.258819045102523 -0.965925826289068 1.23075184737736e-13
outer loop
vertex 366.623977194869 275.324414259288 606.645740845555
vertex 368.176891465485 275.119969217022 605.645740845555
vertex 368.176891465485 275.119969217022 606.645740845556
endloop
endfacet
facet normal -0.965925826289074 -0.2588190451025 4.1130512499313e-14
outer loop
vertex 363.347262334039 279.825873991509 605.645740845554
vertex 363.846764446562 278.619969217022 601.045740845554
vertex 363.846764446563 278.619969217022 605.645740845554
endloop
endfacet
facet normal -0.866025403784446 -0.499999999999987 1.76597858979102e-14
outer loop
vertex 363.846764446562 278.619969217022 601.045740845554
vertex 363.347262334039 279.825873991509 605.645740845554
vertex 363.347262334039 279.825873991509 601.045740845554
endloop
endfacet
facet normal -0.866025403784444 0.499999999999991 -8.6015860716913e-14
outer loop
vertex 371.640993080622 279.119969217023 606.645740845555
vertex 372.040594770641 280.084693036612 601.045740845554
vertex 371.640993080622 279.119969217022 601.045740845554
endloop
endfacet
facet normal -0.923879532511288 0.382683432365086 -7.15963511556604e-14
outer loop
vertex 372.040594770641 280.084693036612 601.045740845554
vertex 371.640993080622 279.119969217023 606.645740845555
vertex 372.040594770641 280.084693036613 606.645740845555
endloop
endfacet
facet normal -0.866025403784431 -0.500000000000013 4.77813026844578e-14
outer loop
vertex 371.640993080622 283.119969217023 606.645740845555
vertex 371.005318590231 283.948396341768 601.045740845554
vertex 371.640993080622 283.119969217022 601.045740845554
endloop
endfacet
facet normal -0.707106781186547 -0.707106781186549 7.89996885912409e-14
outer loop
vertex 371.005318590231 283.948396341768 601.045740845554
vertex 371.640993080622 283.119969217023 606.645740845555
vertex 371.005318590231 283.948396341769 606.645740845555
endloop
endfacet
facet normal 2.18322192443351e-15 -1.0 -7.1718158925278e-14
outer loop
vertex 368.176891465485 276.119969217022 605.645740845553
vertex 366.882796239972 276.290340085577 601.045740845554
vertex 368.176891465484 276.119969217022 601.045740845553
endloop
endfacet
facet normal -0.258819045102512 -0.965925826289071 -5.32798545929866e-14
outer loop
vertex 366.882796239972 276.290340085577 601.045740845554
vertex 368.176891465485 276.119969217022 605.645740845553
vertex 366.882796239972 276.290340085576 605.645740845553
endloop
endfacet
facet normal -0.866025403784441 0.499999999999996 -7.86753059102472e-14
outer loop
vertex 362.980739042778 284.119969217022 606.645740845554
vertex 363.934250778365 285.362609904141 605.645740845554
vertex 362.980739042778 284.119969217022 605.645740845554
endloop
endfacet
facet normal -0.707106781186553 0.707106781186542 -1.03516245903233e-13
outer loop
vertex 363.934250778365 285.362609904141 605.645740845554
vertex 362.980739042778 284.119969217022 606.645740845554
vertex 363.934250778365 285.362609904142 606.645740845554
endloop
endfacet
facet normal -0.965925826289067 -0.258819045102526 1.95589388345026e-14
outer loop
vertex 362.38133650775 279.567054946407 606.645740845555
vertex 362.176891465485 281.119969217022 605.645740845554
vertex 362.38133650775 279.567054946407 605.645740845554
endloop
endfacet
facet normal -1.0 2.15648859474655e-15 -1.49669023309737e-14
outer loop
vertex 362.176891465485 281.119969217022 605.645740845554
vertex 362.38133650775 279.567054946407 606.645740845555
vertex 362.176891465485 281.119969217022 606.645740845555
endloop
endfacet
facet normal 0.499999999999998 0.86602540378444 -1.06335822475626e-13
outer loop
vertex 371.176891465484 286.316121639729 606.645740845554
vertex 372.419532152604 285.362609904141 605.645740845554
vertex 371.176891465484 286.316121639729 605.645740845554
endloop
endfacet
facet normal 0.707106781186558 0.707106781186537 -8.23498496400563e-14
outer loop
vertex 372.419532152604 285.362609904141 605.645740845554
vertex 371.176891465484 286.316121639729 606.645740845554
vertex 372.419532152604 285.362609904142 606.645740845554
endloop
endfacet
facet normal -0.965925826289131 0.258819045102287 -2.93995582119593e-14
outer loop
vertex 367.141615285074 277.256265911867 606.645740845555
vertex 367.296906712136 277.83582140764 601.045740845554
vertex 367.141615285074 277.256265911866 601.045740845554
endloop
endfacet
facet normal -0.965925826289131 0.258819045102287 -2.93995582119593e-14
outer loop
vertex 367.296906712136 277.83582140764 601.045740845554
vertex 367.141615285074 277.256265911867 606.645740845555
vertex 367.296906712136 277.83582140764 606.645740845555
endloop
endfacet
facet normal -0.258819045101909 0.965925826289232 -6.9280448095968e-14
outer loop
vertex 371.461039274867 281.999953970371 601.045740845554
vertex 372.040594770641 282.155245397433 606.645740845555
vertex 372.040594770641 282.155245397432 601.045740845554
endloop
endfacet
facet normal -0.258819045101909 0.965925826289232 -6.9280448095968e-14
outer loop
vertex 372.040594770641 282.155245397433 606.645740845555
vertex 371.461039274867 281.999953970371 601.045740845554
vertex 371.461039274867 281.999953970371 606.645740845555
endloop
endfacet
facet normal -5.58628520506535e-14 5.7388810169499e-14 -1.0
outer loop
vertex 364.892743656101 281.999953970372 601.045740845554
vertex 364.313188160328 280.084693036612 601.045740845554
vertex 364.313188160328 282.155245397432 601.045740845554
endloop
endfacet
facet normal -5.58628520506535e-14 5.7388810169499e-14 -1.0
outer loop
vertex 364.313188160328 280.084693036612 601.045740845554
vertex 364.892743656101 281.999953970372 601.045740845554
vertex 364.776891465484 281.119969217023 601.045740845554
endloop
endfacet
facet normal -5.58628520506535e-14 5.7388810169499e-14 -1.0
outer loop
vertex 364.892743656101 280.239984463674 601.045740845554
vertex 364.313188160328 280.084693036612 601.045740845554
vertex 364.776891465484 281.119969217023 601.045740845554
endloop
endfacet
facet normal -5.58628520506535e-14 5.7388810169499e-14 -1.0
outer loop
vertex 372.040594770641 282.155245397432 601.045740845554
vertex 371.576891465484 281.119969217023 601.045740845554
vertex 371.461039274867 281.999953970371 601.045740845554
endloop
endfacet
facet normal -5.58628520506535e-14 5.7388810169499e-14 -1.0
outer loop
vertex 371.576891465484 281.119969217023 601.045740845554
vertex 372.040594770641 282.155245397432 601.045740845554
vertex 372.040594770641 280.084693036612 601.045740845554
endloop
endfacet
facet normal -5.58628520506535e-14 5.7388810169499e-14 -1.0
outer loop
vertex 363.347262334039 282.414064442535 601.045740845554
vertex 363.347262334039 279.825873991509 601.045740845554
vertex 363.176891465484 281.119969217022 601.045740845554
endloop
endfacet
facet normal -5.58628520506535e-14 5.7388810169499e-14 -1.0
outer loop
vertex 363.347262334039 279.825873991509 601.045740845554
vertex 363.347262334039 282.414064442535 601.045740845554
vertex 363.846764446562 283.619969217022 601.045740845554
endloop
endfacet
facet normal -5.58628520506535e-14 5.7388810169499e-14 -1.0
outer loop
vertex 363.347262334039 279.825873991509 601.045740845554
vertex 363.846764446562 283.619969217022 601.045740845554
vertex 363.846764446562 278.619969217022 601.045740845554
endloop
endfacet
facet normal -5.58628520506535e-14 5.7388810169499e-14 -1.0
outer loop
vertex 363.846764446562 278.619969217022 601.045740845554
vertex 363.846764446562 283.619969217022 601.045740845554
vertex 364.641357559552 284.655503122955 601.045740845554
endloop
endfacet
facet normal -5.58628520506535e-14 5.7388810169499e-14 -1.0
outer loop
vertex 363.846764446562 278.619969217022 601.045740845554
vertex 364.641357559552 284.655503122955 601.045740845554
vertex 364.313188160328 282.155245397432 601.045740845554
endloop
endfacet
facet normal -5.58628520506535e-14 5.7388810169499e-14 -1.0
outer loop
vertex 364.313188160328 282.155245397432 601.045740845554
vertex 364.641357559552 284.655503122955 601.045740845554
vertex 364.712789850347 283.119969217022 601.045740845553
endloop
endfacet
facet normal -5.58628520506535e-14 5.7388810169499e-14 -1.0
outer loop
vertex 364.712789850347 283.119969217022 601.045740845553
vertex 364.641357559552 284.655503122955 601.045740845554
vertex 365.676891465484 285.450096235944 601.045740845554
endloop
endfacet
facet normal -5.58628520506535e-14 5.7388810169499e-14 -1.0
outer loop
vertex 364.712789850347 283.119969217022 601.045740845553
vertex 365.676891465484 285.450096235944 601.045740845554
vertex 365.348464340738 283.948396341768 601.045740845553
endloop
endfacet
facet normal -5.58628520506535e-14 5.7388810169499e-14 -1.0
outer loop
vertex 365.348464340738 283.948396341768 601.045740845553
vertex 365.676891465484 285.450096235944 601.045740845554
vertex 366.176891465484 284.58407083216 601.045740845553
endloop
endfacet
facet normal -5.58628520506535e-14 5.7388810169499e-14 -1.0
outer loop
vertex 366.176891465484 284.58407083216 601.045740845553
vertex 365.676891465484 285.450096235944 601.045740845554
vertex 366.882796239972 285.949598348467 601.045740845554
endloop
endfacet
facet normal -5.58628520506535e-14 5.7388810169499e-14 -1.0
outer loop
vertex 366.176891465484 284.58407083216 601.045740845553
vertex 366.882796239972 285.949598348467 601.045740845554
vertex 367.141615285074 284.983672522178 601.045740845553
endloop
endfacet
facet normal -5.58628520506535e-14 5.7388810169499e-14 -1.0
outer loop
vertex 367.141615285074 284.983672522178 601.045740845553
vertex 366.882796239972 285.949598348467 601.045740845554
vertex 368.176891465484 286.119969217022 601.045740845554
endloop
endfacet
facet normal -5.58628520506535e-14 5.7388810169499e-14 -1.0
outer loop
vertex 367.141615285074 284.983672522178 601.045740845553
vertex 368.176891465484 286.119969217022 601.045740845554
vertex 367.296906712136 284.404117026406 601.045740845553
endloop
endfacet
facet normal -5.58628520506535e-14 5.7388810169499e-14 -1.0
outer loop
vertex 367.296906712136 284.404117026406 601.045740845553
vertex 368.176891465484 286.119969217022 601.045740845554
vertex 368.176891465484 284.519969217023 601.045740845553
endloop
endfacet
facet normal -5.58628520506535e-14 5.7388810169499e-14 -1.0
outer loop
vertex 368.176891465484 284.519969217023 601.045740845553
vertex 368.176891465484 286.119969217022 601.045740845554
vertex 369.056876218833 284.404117026406 601.045740845553
endloop
endfacet
facet normal -5.58628520506535e-14 5.7388810169499e-14 -1.0
outer loop
vertex 369.056876218833 284.404117026406 601.045740845553
vertex 368.176891465484 286.119969217022 601.045740845554
vertex 369.470986690997 285.949598348467 601.045740845554
endloop
endfacet
facet normal -5.58628520506535e-14 5.7388810169499e-14 -1.0
outer loop
vertex 369.056876218833 284.404117026406 601.045740845553
vertex 369.470986690997 285.949598348467 601.045740845554
vertex 369.212167645895 284.983672522178 601.045740845553
endloop
endfacet
facet normal -5.58628520506535e-14 5.7388810169499e-14 -1.0
outer loop
vertex 369.212167645895 284.983672522178 601.045740845553
vertex 369.470986690997 285.949598348467 601.045740845554
vertex 370.176891465484 284.58407083216 601.045740845553
endloop
endfacet
facet normal -5.58628520506535e-14 5.7388810169499e-14 -1.0
outer loop
vertex 370.176891465484 284.58407083216 601.045740845553
vertex 369.470986690997 285.949598348467 601.045740845554
vertex 370.676891465484 285.450096235944 601.045740845554
endloop
endfacet
facet normal -5.58628520506535e-14 5.7388810169499e-14 -1.0
outer loop
vertex 370.176891465484 284.58407083216 601.045740845553
vertex 370.676891465484 285.450096235944 601.045740845554
vertex 371.005318590231 283.948396341768 601.045740845554
endloop
endfacet
facet normal -5.58628520506535e-14 5.7388810169499e-14 -1.0
outer loop
vertex 371.005318590231 283.948396341768 601.045740845554
vertex 370.676891465484 285.450096235944 601.045740845554
vertex 371.712425371417 284.655503122955 601.045740845554
endloop
endfacet
facet normal -5.58628520506535e-14 5.7388810169499e-14 -1.0
outer loop
vertex 371.005318590231 283.948396341768 601.045740845554
vertex 371.712425371417 284.655503122955 601.045740845554
vertex 371.640993080622 283.119969217022 601.045740845554
endloop
endfacet
facet normal -5.58628520506535e-14 5.7388810169499e-14 -1.0
outer loop
vertex 371.640993080622 283.119969217022 601.045740845554
vertex 371.712425371417 284.655503122955 601.045740845554
vertex 372.040594770641 282.155245397432 601.045740845554
endloop
endfacet
facet normal -5.58628520506535e-14 5.7388810169499e-14 -1.0
outer loop
vertex 372.040594770641 282.155245397432 601.045740845554
vertex 371.712425371417 284.655503122955 601.045740845554
vertex 372.507018484407 283.619969217022 601.045740845554
endloop
endfacet
facet normal -5.58628520506535e-14 5.7388810169499e-14 -1.0
outer loop
vertex 363.846764446562 278.619969217022 601.045740845554
vertex 364.313188160328 280.084693036612 601.045740845554
vertex 364.641357559552 277.584435311089 601.045740845554
endloop
endfacet
facet normal -5.58628520506535e-14 5.7388810169499e-14 -1.0
outer loop
vertex 364.313188160328 280.084693036612 601.045740845554
vertex 363.846764446562 278.619969217022 601.045740845554
vertex 364.313188160328 282.155245397432 601.045740845554
endloop
endfacet
facet normal -5.58628520506535e-14 5.7388810169499e-14 -1.0
outer loop
vertex 364.641357559552 277.584435311089 601.045740845554
vertex 364.313188160328 280.084693036612 601.045740845554
vertex 364.712789850347 279.119969217022 601.045740845554
endloop
endfacet
facet normal -5.58628520506535e-14 5.7388810169499e-14 -1.0
outer loop
vertex 364.641357559552 277.584435311089 601.045740845554
vertex 364.712789850347 279.119969217022 601.045740845554
vertex 365.676891465484 276.7898421981 601.045740845554
endloop
endfacet
facet normal -5.58628520506535e-14 5.7388810169499e-14 -1.0
outer loop
vertex 365.676891465484 276.7898421981 601.045740845554
vertex 364.712789850347 279.119969217022 601.045740845554
vertex 365.348464340738 278.291542092276 601.045740845554
endloop
endfacet
facet normal -5.58628520506535e-14 5.7388810169499e-14 -1.0
outer loop
vertex 365.676891465484 276.7898421981 601.045740845554
vertex 365.348464340738 278.291542092276 601.045740845554
vertex 366.176891465484 277.655867601884 601.045740845554
endloop
endfacet
facet normal -5.58628520506535e-14 5.7388810169499e-14 -1.0
outer loop
vertex 365.676891465484 276.7898421981 601.045740845554
vertex 366.176891465484 277.655867601884 601.045740845554
vertex 366.882796239972 276.290340085577 601.045740845554
endloop
endfacet
facet normal -5.58628520506535e-14 5.7388810169499e-14 -1.0
outer loop
vertex 366.882796239972 276.290340085577 601.045740845554
vertex 366.176891465484 277.655867601884 601.045740845554
vertex 367.141615285074 277.256265911866 601.045740845554
endloop
endfacet
facet normal -5.58628520506535e-14 5.7388810169499e-14 -1.0
outer loop
vertex 366.882796239972 276.290340085577 601.045740845554
vertex 367.141615285074 277.256265911866 601.045740845554
vertex 368.176891465484 276.119969217022 601.045740845553
endloop
endfacet
facet normal -5.58628520506535e-14 5.7388810169499e-14 -1.0
outer loop
vertex 368.176891465484 276.119969217022 601.045740845553
vertex 367.141615285074 277.256265911866 601.045740845554
vertex 367.296906712136 277.83582140764 601.045740845554
endloop
endfacet
facet normal -5.58628520506535e-14 5.7388810169499e-14 -1.0
outer loop
vertex 368.176891465484 276.119969217022 601.045740845553
vertex 367.296906712136 277.83582140764 601.045740845554
vertex 368.176891465484 277.719969217023 601.045740845554
endloop
endfacet
facet normal -5.58628520506535e-14 5.7388810169499e-14 -1.0
outer loop
vertex 368.176891465484 276.119969217022 601.045740845553
vertex 368.176891465484 277.719969217023 601.045740845554
vertex 369.056876218833 277.83582140764 601.045740845554
endloop
endfacet
facet normal -5.58628520506535e-14 5.7388810169499e-14 -1.0
outer loop
vertex 368.176891465484 276.119969217022 601.045740845553
vertex 369.056876218833 277.83582140764 601.045740845554
vertex 369.212167645895 277.256265911866 601.045740845554
endloop
endfacet
facet normal -5.58628520506535e-14 5.7388810169499e-14 -1.0
outer loop
vertex 368.176891465484 276.119969217022 601.045740845553
vertex 369.212167645895 277.256265911866 601.045740845554
vertex 369.470986690997 276.290340085577 601.045740845553
endloop
endfacet
facet normal -5.58628520506535e-14 5.7388810169499e-14 -1.0
outer loop
vertex 369.470986690997 276.290340085577 601.045740845553
vertex 369.212167645895 277.256265911866 601.045740845554
vertex 370.176891465484 277.655867601884 601.045740845554
endloop
endfacet
facet normal -5.58628520506535e-14 5.7388810169499e-14 -1.0
outer loop
vertex 369.470986690997 276.290340085577 601.045740845553
vertex 370.176891465484 277.655867601884 601.045740845554
vertex 370.676891465484 276.7898421981 601.045740845553
endloop
endfacet
facet normal -5.58628520506535e-14 5.7388810169499e-14 -1.0
outer loop
vertex 370.676891465484 276.7898421981 601.045740845553
vertex 370.176891465484 277.655867601884 601.045740845554
vertex 371.005318590231 278.291542092276 601.045740845554
endloop
endfacet
facet normal -5.58628520506535e-14 5.7388810169499e-14 -1.0
outer loop
vertex 370.676891465484 276.7898421981 601.045740845553
vertex 371.005318590231 278.291542092276 601.045740845554
vertex 371.712425371417 277.584435311089 601.045740845553
endloop
endfacet
facet normal -5.58628520506535e-14 5.7388810169499e-14 -1.0
outer loop
vertex 371.712425371417 277.584435311089 601.045740845553
vertex 371.005318590231 278.291542092276 601.045740845554
vertex 371.640993080622 279.119969217022 601.045740845554
endloop
endfacet
facet normal -5.58628520506535e-14 5.7388810169499e-14 -1.0
outer loop
vertex 371.712425371417 277.584435311089 601.045740845553
vertex 371.640993080622 279.119969217022 601.045740845554
vertex 372.040594770641 280.084693036612 601.045740845554
endloop
endfacet
facet normal -5.58628520506535e-14 5.7388810169499e-14 -1.0
outer loop
vertex 371.712425371417 277.584435311089 601.045740845553
vertex 372.040594770641 280.084693036612 601.045740845554
vertex 372.507018484407 278.619969217022 601.045740845553
endloop
endfacet
facet normal -5.58628520506535e-14 5.7388810169499e-14 -1.0
outer loop
vertex 372.507018484407 278.619969217022 601.045740845553
vertex 372.040594770641 280.084693036612 601.045740845554
vertex 372.040594770641 282.155245397432 601.045740845554
endloop
endfacet
facet normal -5.58628520506535e-14 5.7388810169499e-14 -1.0
outer loop
vertex 372.507018484407 278.619969217022 601.045740845553
vertex 372.040594770641 282.155245397432 601.045740845554
vertex 372.507018484407 283.619969217022 601.045740845554
endloop
endfacet
facet normal -5.58628520506535e-14 5.7388810169499e-14 -1.0
outer loop
vertex 372.507018484407 278.619969217022 601.045740845553
vertex 372.507018484407 283.619969217022 601.045740845554
vertex 373.00652059693 282.414064442535 601.045740845553
endloop
endfacet
facet normal -5.58628520506535e-14 5.7388810169499e-14 -1.0
outer loop
vertex 372.507018484407 278.619969217022 601.045740845553
vertex 373.00652059693 282.414064442535 601.045740845553
vertex 373.00652059693 279.825873991509 601.045740845553
endloop
endfacet
facet normal -5.58628520506535e-14 5.7388810169499e-14 -1.0
outer loop
vertex 373.00652059693 279.825873991509 601.045740845553
vertex 373.00652059693 282.414064442535 601.045740845553
vertex 373.176891465484 281.119969217022 601.045740845553
endloop
endfacet
facet normal -5.58628520506535e-14 5.7388810169499e-14 -1.0
outer loop
vertex 372.040594770641 280.084693036612 601.045740845554
vertex 371.461039274867 280.239984463674 601.045740845554
vertex 371.576891465484 281.119969217023 601.045740845554
endloop
endfacet
facet normal -0.130526192220028 -0.991444861373814 -1.49258806895508e-14
outer loop
vertex 369.056876218833 284.404117026406 606.645740845554
vertex 368.176891465484 284.519969217023 601.045740845553
vertex 369.056876218833 284.404117026406 601.045740845553
endloop
endfacet
facet normal -0.130526192220028 -0.991444861373814 -1.49258806895508e-14
outer loop
vertex 368.176891465484 284.519969217023 601.045740845553
vertex 369.056876218833 284.404117026406 606.645740845554
vertex 368.176891465484 284.519969217023 606.645740845554
endloop
endfacet
facet normal 0.965925826289067 0.258819045102524 -1.95589388345023e-14
outer loop
vertex 373.972446423219 282.672883487637 605.645740845554
vertex 374.176891465484 281.119969217022 606.645740845555
vertex 374.176891465484 281.119969217022 605.645740845554
endloop
endfacet
facet normal 1.0 5.07933264051892e-16 1.49669023309734e-14
outer loop
vertex 374.176891465484 281.119969217022 606.645740845555
vertex 373.972446423219 282.672883487637 605.645740845554
vertex 373.972446423219 282.672883487637 606.645740845554
endloop
endfacet
facet normal -0.866025403784441 -0.499999999999995 5.275187064108e-14
outer loop
vertex 362.980739042778 278.119969217022 606.645740845555
vertex 362.38133650775 279.567054946407 605.645740845554
vertex 362.980739042778 278.119969217022 605.645740845555
endloop
endfacet
facet normal -0.965925826289067 -0.258819045102526 1.95589388345026e-14
outer loop
vertex 362.38133650775 279.567054946407 605.645740845554
vertex 362.980739042778 278.119969217022 606.645740845555
vertex 362.38133650775 279.567054946407 606.645740845555
endloop
endfacet
facet normal -0.258819045102525 0.965925826289067 -1.30822623476626e-13
outer loop
vertex 366.623977194869 286.915524174757 606.645740845554
vertex 368.176891465485 287.119969217022 605.645740845554
vertex 366.623977194869 286.915524174757 605.645740845554
endloop
endfacet
facet normal 2.42382189161588e-15 1.0 -1.31427176551328e-13
outer loop
vertex 368.176891465485 287.119969217022 605.645740845554
vertex 366.623977194869 286.915524174757 606.645740845554
vertex 368.176891465485 287.119969217022 606.645740845554
endloop
endfacet
facet normal 0.707106781186558 0.707106781186537 -8.23498496400563e-14
outer loop
vertex 372.419532152604 285.362609904141 605.645740845554
vertex 373.373043888191 284.119969217022 606.645740845554
vertex 373.373043888191 284.119969217022 605.645740845554
endloop
endfacet
facet normal 0.866025403784437 0.500000000000003 -5.2751870641081e-14
outer loop
vertex 373.373043888191 284.119969217022 606.645740845554
vertex 372.419532152604 285.362609904141 605.645740845554
vertex 372.419532152604 285.362609904142 606.645740845554
endloop
endfacet
facet normal 0.49999999999999 0.866025403784445 3.12106162193058e-14
outer loop
vertex 370.676891465484 285.450096235944 601.045740845554
vertex 371.712425371418 284.655503122954 605.645740845554
vertex 371.712425371417 284.655503122955 601.045740845554
endloop
endfacet
facet normal 0.707106781186548 0.707106781186547 7.01442592825989e-15
outer loop
vertex 371.712425371418 284.655503122954 605.645740845554
vertex 370.676891465484 285.450096235944 601.045740845554
vertex 370.676891465485 285.450096235944 605.645740845554
endloop
endfacet
facet normal -0.25881904510319 -0.965925826288889 5.52417855337618e-14
outer loop
vertex 372.040594770641 280.084693036613 606.645740845555
vertex 371.461039274867 280.239984463674 601.045740845554
vertex 372.040594770641 280.084693036612 601.045740845554
endloop
endfacet
facet normal -0.25881904510319 -0.965925826288889 5.52417855337618e-14
outer loop
vertex 371.461039274867 280.239984463674 601.045740845554
vertex 372.040594770641 280.084693036613 606.645740845555
vertex 371.461039274867 280.239984463674 606.645740845555
endloop
endfacet
facet normal 0.258819045103202 -0.965925826288886 6.43456184176651e-14
outer loop
vertex 364.892743656101 280.239984463674 606.645740845555
vertex 364.313188160328 280.084693036612 601.045740845554
vertex 364.892743656101 280.239984463674 601.045740845554
endloop
endfacet
facet normal 0.258819045103202 -0.965925826288886 6.43456184176651e-14
outer loop
vertex 364.313188160328 280.084693036612 601.045740845554
vertex 364.892743656101 280.239984463674 606.645740845555
vertex 364.313188160328 280.084693036613 606.645740845555
endloop
endfacet
facet normal 0.965925826289075 0.258819045102495 -7.8575855028725e-15
outer loop
vertex 369.056876218833 277.83582140764 601.045740845554
vertex 369.212167645894 277.256265911867 606.645740845555
vertex 369.212167645895 277.256265911866 601.045740845554
endloop
endfacet
facet normal 0.965925826289075 0.258819045102495 -7.8575855028725e-15
outer loop
vertex 369.212167645894 277.256265911867 606.645740845555
vertex 369.056876218833 277.83582140764 601.045740845554
vertex 369.056876218833 277.83582140764 606.645740845555
endloop
endfacet
facet normal 0.866025403784431 0.500000000000013 -4.77813026844578e-14
outer loop
vertex 364.712789850347 279.119969217022 601.045740845554
vertex 365.348464340738 278.291542092277 606.645740845555
vertex 365.348464340738 278.291542092276 601.045740845554
endloop
endfacet
facet normal 0.707106781186539 0.707106781186556 -7.89996885912421e-14
outer loop
vertex 365.348464340738 278.291542092277 606.645740845555
vertex 364.712789850347 279.119969217022 601.045740845554
vertex 364.712789850347 279.119969217023 606.645740845555
endloop
endfacet
facet normal 0.49999999999998 0.86602540378445 -1.04834376273693e-13
outer loop
vertex 366.176891465484 277.655867601885 606.645740845555
vertex 367.141615285074 277.256265911866 601.045740845554
vertex 366.176891465484 277.655867601884 601.045740845554
endloop
endfacet
facet normal 0.382683432365086 0.923879532511288 -1.15164826421789e-13
outer loop
vertex 367.141615285074 277.256265911866 601.045740845554
vertex 366.176891465484 277.655867601885 606.645740845555
vertex 367.141615285074 277.256265911867 606.645740845555
endloop
endfacet
facet normal 0.866025403784435 -0.500000000000005 8.60158607169147e-14
outer loop
vertex 364.712789850347 283.119969217022 601.045740845553
vertex 364.313188160328 282.155245397433 606.645740845555
vertex 364.313188160328 282.155245397432 601.045740845554
endloop
endfacet
facet normal 0.923879532511273 -0.382683432365123 7.1596351155665e-14
outer loop
vertex 364.313188160328 282.155245397433 606.645740845555
vertex 364.712789850347 283.119969217022 601.045740845553
vertex 364.712789850347 283.119969217023 606.645740845554
endloop
endfacet
facet normal 0.130526192219953 0.991444861373823 1.19813189979261e-14
outer loop
vertex 367.296906712136 277.83582140764 606.645740845555
vertex 368.176891465484 277.719969217023 601.045740845554
vertex 367.296906712136 277.83582140764 601.045740845554
endloop
endfacet
facet normal 0.130526192219953 0.991444861373823 1.19813189979261e-14
outer loop
vertex 368.176891465484 277.719969217023 601.045740845554
vertex 367.296906712136 277.83582140764 606.645740845555
vertex 368.176891465484 277.719969217023 606.645740845555
endloop
endfacet
facet normal 0.991444861373814 -0.130526192220028 -1.00914295027722e-14
outer loop
vertex 364.776891465484 281.119969217023 601.045740845554
vertex 364.892743656101 281.999953970371 606.645740845555
vertex 364.776891465484 281.119969217023 606.645740845555
endloop
endfacet
facet normal 0.991444861373814 -0.130526192220028 -1.00914295027722e-14
outer loop
vertex 364.892743656101 281.999953970371 606.645740845555
vertex 364.776891465484 281.119969217023 601.045740845554
vertex 364.892743656101 281.999953970372 601.045740845554
endloop
endfacet
facet normal -0.499999999999993 0.866025403784443 9.30088788645757e-14
outer loop
vertex 365.676891465485 285.450096235944 605.645740845554
vertex 366.882796239972 285.949598348467 601.045740845554
vertex 365.676891465484 285.450096235944 601.045740845554
endloop
endfacet
facet normal -0.258819045102511 0.965925826289071 8.52689892466731e-14
outer loop
vertex 366.882796239972 285.949598348467 601.045740845554
vertex 365.676891465485 285.450096235944 605.645740845554
vertex 366.882796239972 285.949598348467 605.645740845554
endloop
endfacet
facet normal 0.382683432365123 -0.923879532511273 1.32060095127398e-13
outer loop
vertex 367.141615285074 284.983672522179 606.645740845554
vertex 366.176891465484 284.58407083216 601.045740845553
vertex 367.141615285074 284.983672522178 601.045740845553
endloop
endfacet
facet normal 0.499999999999998 -0.86602540378444 1.26909108646077e-13
outer loop
vertex 366.176891465484 284.58407083216 601.045740845553
vertex 367.141615285074 284.983672522179 606.645740845554
vertex 366.176891465484 284.584070832161 606.645740845554
endloop
endfacet
facet normal -0.499999999999986 -0.866025403784447 1.04834376273692e-13
outer loop
vertex 370.176891465484 284.584070832161 606.645740845554
vertex 369.212167645895 284.983672522178 601.045740845553
vertex 370.176891465484 284.58407083216 601.045740845553
endloop
endfacet
facet normal -0.382683432365086 -0.923879532511288 1.15164826421789e-13
outer loop
vertex 369.212167645895 284.983672522178 601.045740845553
vertex 370.176891465484 284.584070832161 606.645740845554
vertex 369.212167645894 284.983672522179 606.645740845554
endloop
endfacet
facet normal -0.923879532511273 -0.382683432365123 3.08075643066419e-14
outer loop
vertex 372.040594770641 282.155245397433 606.645740845555
vertex 371.640993080622 283.119969217022 601.045740845554
vertex 372.040594770641 282.155245397432 601.045740845554
endloop
endfacet
facet normal -0.866025403784442 -0.499999999999994 4.7781302684455e-14
outer loop
vertex 371.640993080622 283.119969217022 601.045740845554
vertex 372.040594770641 282.155245397433 606.645740845555
vertex 371.640993080622 283.119969217023 606.645740845555
endloop
endfacet
facet normal 0.707106781186542 -0.707106781186553 1.10218074498026e-13
outer loop
vertex 365.348464340738 283.948396341768 601.045740845553
vertex 364.712789850347 283.119969217023 606.645740845554
vertex 364.712789850347 283.119969217022 601.045740845553
endloop
endfacet
facet normal 0.866025403784436 -0.500000000000005 8.60158607169147e-14
outer loop
vertex 364.712789850347 283.119969217023 606.645740845554
vertex 365.348464340738 283.948396341768 601.045740845553
vertex 365.348464340738 283.948396341769 606.645740845554
endloop
endfacet
endsolid Development Mockup
