solid Development Mockup
facet normal -2.48719405685931e-15 6.20394660242775e-15 1.0
outer loop
vertex 1103.16299862214 391.376156855316 561.692009272998
vertex 1103.16299862214 392.929071125931 561.692009273001
vertex 1103.06077610101 392.152613990623 561.692009273001
endloop
endfacet
facet normal -2.48719405685931e-15 6.20394660242775e-15 1.0
outer loop
vertex 1103.16299862214 392.929071125931 561.692009273001
vertex 1103.16299862214 391.376156855316 561.692009272998
vertex 1103.46269988966 390.652613990623 561.692009272998
endloop
endfacet
facet normal -2.48719405685931e-15 6.20394660242775e-15 1.0
outer loop
vertex 1103.16299862214 392.929071125931 561.692009273001
vertex 1103.46269988966 390.652613990623 561.692009272998
vertex 1103.46269988966 393.652613990623 561.692009272999
endloop
endfacet
facet normal -2.48719405685931e-15 6.20394660242775e-15 1.0
outer loop
vertex 1103.46269988966 393.652613990623 561.692009272999
vertex 1103.46269988966 390.652613990623 561.692009272998
vertex 1103.93945575745 390.031293647063 561.692009272999
endloop
endfacet
facet normal -2.48719405685931e-15 6.20394660242775e-15 1.0
outer loop
vertex 1103.46269988966 393.652613990623 561.692009272999
vertex 1103.93945575745 390.031293647063 561.692009272999
vertex 1103.86077610101 392.152613990623 561.692009272999
endloop
endfacet
facet normal -2.48719405685931e-15 6.20394660242775e-15 1.0
outer loop
vertex 1103.86077610101 392.152613990623 561.692009272999
vertex 1103.93945575745 390.031293647063 561.692009272999
vertex 1103.93573928317 391.583212091398 561.692009272998
endloop
endfacet
facet normal -2.48719405685931e-15 6.20394660242775e-15 1.0
outer loop
vertex 1103.93573928317 391.583212091398 561.692009272998
vertex 1103.93945575745 390.031293647063 561.692009272999
vertex 1104.15552021268 391.052613990623 561.692009272998
endloop
endfacet
facet normal -2.48719405685931e-15 6.20394660242775e-15 1.0
outer loop
vertex 1104.15552021268 391.052613990623 561.692009272998
vertex 1103.93945575745 390.031293647063 561.692009272999
vertex 1104.56077610101 389.55453777927 561.692009272999
endloop
endfacet
facet normal -2.48719405685931e-15 6.20394660242775e-15 1.0
outer loop
vertex 1104.15552021268 391.052613990623 561.692009272998
vertex 1104.56077610101 389.55453777927 561.692009272999
vertex 1104.5051411824 390.596979072013 561.692009272998
endloop
endfacet
facet normal -2.48719405685931e-15 6.20394660242775e-15 1.0
outer loop
vertex 1104.5051411824 390.596979072013 561.692009272998
vertex 1104.56077610101 389.55453777927 561.692009272999
vertex 1104.96077610101 390.247358102297 561.692009272998
endloop
endfacet
facet normal -2.48719405685931e-15 6.20394660242775e-15 1.0
outer loop
vertex 1104.96077610101 390.247358102297 561.692009272998
vertex 1104.56077610101 389.55453777927 561.692009272999
vertex 1105.2843189657 389.254836511756 561.692009272999
endloop
endfacet
facet normal -2.48719405685931e-15 6.20394660242775e-15 1.0
outer loop
vertex 1104.96077610101 390.247358102297 561.692009272998
vertex 1105.2843189657 389.254836511756 561.692009272999
vertex 1105.49137420178 390.027577172787 561.692009272998
endloop
endfacet
facet normal -2.48719405685931e-15 6.20394660242775e-15 1.0
outer loop
vertex 1105.49137420178 390.027577172787 561.692009272998
vertex 1105.2843189657 389.254836511756 561.692009272999
vertex 1106.06077610101 389.152613990623 561.692009272999
endloop
endfacet
facet normal -2.48719405685931e-15 6.20394660242775e-15 1.0
outer loop
vertex 1105.49137420178 390.027577172787 561.692009272998
vertex 1106.06077610101 389.152613990623 561.692009272999
vertex 1106.06077610101 389.952613990623 561.692009272998
endloop
endfacet
facet normal -2.48719405685931e-15 6.20394660242775e-15 1.0
outer loop
vertex 1106.06077610101 389.952613990623 561.692009272998
vertex 1106.06077610101 389.152613990623 561.692009272999
vertex 1106.83723323632 389.254836511756 561.692009272999
endloop
endfacet
facet normal -2.48719405685931e-15 6.20394660242775e-15 1.0
outer loop
vertex 1106.06077610101 389.952613990623 561.692009272998
vertex 1106.83723323632 389.254836511756 561.692009272999
vertex 1106.63017800023 390.027577172787 561.692009272998
endloop
endfacet
facet normal -2.48719405685931e-15 6.20394660242775e-15 1.0
outer loop
vertex 1106.63017800023 390.027577172787 561.692009272998
vertex 1106.83723323632 389.254836511756 561.692009272999
vertex 1107.16077610101 390.247358102297 561.692009272998
endloop
endfacet
facet normal -2.48719405685931e-15 6.20394660242775e-15 1.0
outer loop
vertex 1107.16077610101 390.247358102297 561.692009272998
vertex 1106.83723323632 389.254836511756 561.692009272999
vertex 1107.56077610101 389.55453777927 561.692009272999
endloop
endfacet
facet normal -2.48719405685931e-15 6.20394660242775e-15 1.0
outer loop
vertex 1107.16077610101 390.247358102297 561.692009272998
vertex 1107.56077610101 389.55453777927 561.692009272999
vertex 1107.61641101962 390.596979072013 561.692009272998
endloop
endfacet
facet normal -2.48719405685931e-15 6.20394660242775e-15 1.0
outer loop
vertex 1107.61641101962 390.596979072013 561.692009272998
vertex 1107.56077610101 389.55453777927 561.692009272999
vertex 1108.18209644457 390.031293647063 561.692009272999
endloop
endfacet
facet normal -2.48719405685931e-15 6.20394660242775e-15 1.0
outer loop
vertex 1107.61641101962 390.596979072013 561.692009272998
vertex 1108.18209644457 390.031293647063 561.692009272999
vertex 1107.96603198933 391.052613990623 561.692009272998
endloop
endfacet
facet normal -2.48719405685931e-15 6.20394660242775e-15 1.0
outer loop
vertex 1107.96603198933 391.052613990623 561.692009272998
vertex 1108.18209644457 390.031293647063 561.692009272999
vertex 1108.18581291885 391.583212091398 561.692009272998
endloop
endfacet
facet normal -2.48719405685931e-15 6.20394660242775e-15 1.0
outer loop
vertex 1108.18581291885 391.583212091398 561.692009272998
vertex 1108.18209644457 390.031293647063 561.692009272999
vertex 1108.65885231236 390.652613990623 561.692009272999
endloop
endfacet
facet normal -2.48719405685931e-15 6.20394660242775e-15 1.0
outer loop
vertex 1108.18581291885 391.583212091398 561.692009272998
vertex 1108.65885231236 390.652613990623 561.692009272999
vertex 1108.26077610101 392.152613990623 561.692009272998
endloop
endfacet
facet normal -2.48719405685931e-15 6.20394660242775e-15 1.0
outer loop
vertex 1103.86077610101 392.152613990623 561.692009272999
vertex 1103.93945575745 394.273934334183 561.692009272999
vertex 1103.46269988966 393.652613990623 561.692009272999
endloop
endfacet
facet normal -2.48719405685931e-15 6.20394660242775e-15 1.0
outer loop
vertex 1103.93945575745 394.273934334183 561.692009272999
vertex 1103.86077610101 392.152613990623 561.692009272999
vertex 1103.93573928317 392.722015889849 561.692009272999
endloop
endfacet
facet normal -2.48719405685931e-15 6.20394660242775e-15 1.0
outer loop
vertex 1103.93945575745 394.273934334183 561.692009272999
vertex 1103.93573928317 392.722015889849 561.692009272999
vertex 1104.15552021268 393.252613990623 561.692009272999
endloop
endfacet
facet normal -2.48719405685931e-15 6.20394660242775e-15 1.0
outer loop
vertex 1103.93945575745 394.273934334183 561.692009272999
vertex 1104.15552021268 393.252613990623 561.692009272999
vertex 1104.56077610101 394.750690201977 561.692009272999
endloop
endfacet
facet normal -2.48719405685931e-15 6.20394660242775e-15 1.0
outer loop
vertex 1104.56077610101 394.750690201977 561.692009272999
vertex 1104.15552021268 393.252613990623 561.692009272999
vertex 1104.5051411824 393.708248909234 561.692009272999
endloop
endfacet
facet normal -2.48719405685931e-15 6.20394660242775e-15 1.0
outer loop
vertex 1104.56077610101 394.750690201977 561.692009272999
vertex 1104.5051411824 393.708248909234 561.692009272999
vertex 1104.96077610101 394.057869878949 561.692009272999
endloop
endfacet
facet normal -2.48719405685931e-15 6.20394660242775e-15 1.0
outer loop
vertex 1104.56077610101 394.750690201977 561.692009272999
vertex 1104.96077610101 394.057869878949 561.692009272999
vertex 1105.2843189657 395.05039146949 561.692009272999
endloop
endfacet
facet normal -2.48719405685931e-15 6.20394660242775e-15 1.0
outer loop
vertex 1105.2843189657 395.05039146949 561.692009272999
vertex 1104.96077610101 394.057869878949 561.692009272999
vertex 1105.49137420178 394.277650808459 561.692009272999
endloop
endfacet
facet normal -2.48719405685931e-15 6.20394660242775e-15 1.0
outer loop
vertex 1105.2843189657 395.05039146949 561.692009272999
vertex 1105.49137420178 394.277650808459 561.692009272999
vertex 1106.06077610101 395.152613990623 561.692009272999
endloop
endfacet
facet normal -2.48719405685931e-15 6.20394660242775e-15 1.0
outer loop
vertex 1106.06077610101 395.152613990623 561.692009272999
vertex 1105.49137420178 394.277650808459 561.692009272999
vertex 1106.06077610101 394.352613990623 561.692009272999
endloop
endfacet
facet normal -2.48719405685931e-15 6.20394660242775e-15 1.0
outer loop
vertex 1106.06077610101 395.152613990623 561.692009272999
vertex 1106.06077610101 394.352613990623 561.692009272999
vertex 1106.63017800023 394.277650808459 561.692009272999
endloop
endfacet
facet normal -2.48719405685931e-15 6.20394660242775e-15 1.0
outer loop
vertex 1106.06077610101 395.152613990623 561.692009272999
vertex 1106.63017800023 394.277650808459 561.692009272999
vertex 1106.83723323632 395.05039146949 561.692009272999
endloop
endfacet
facet normal -2.48719405685931e-15 6.20394660242775e-15 1.0
outer loop
vertex 1106.83723323632 395.05039146949 561.692009272999
vertex 1106.63017800023 394.277650808459 561.692009272999
vertex 1107.16077610101 394.057869878949 561.692009272999
endloop
endfacet
facet normal -2.48719405685931e-15 6.20394660242775e-15 1.0
outer loop
vertex 1106.83723323632 395.05039146949 561.692009272999
vertex 1107.16077610101 394.057869878949 561.692009272999
vertex 1107.56077610101 394.750690201977 561.692009273001
endloop
endfacet
facet normal -2.48719405685931e-15 6.20394660242775e-15 1.0
outer loop
vertex 1107.56077610101 394.750690201977 561.692009273001
vertex 1107.16077610101 394.057869878949 561.692009272999
vertex 1107.61641101962 393.708248909234 561.692009272999
endloop
endfacet
facet normal -2.48719405685931e-15 6.20394660242775e-15 1.0
outer loop
vertex 1107.56077610101 394.750690201977 561.692009273001
vertex 1107.61641101962 393.708248909234 561.692009272999
vertex 1108.18209644457 394.273934334183 561.692009273001
endloop
endfacet
facet normal -2.48719405685931e-15 6.20394660242775e-15 1.0
outer loop
vertex 1108.18209644457 394.273934334183 561.692009273001
vertex 1107.61641101962 393.708248909234 561.692009272999
vertex 1107.96603198933 393.252613990623 561.692009272998
endloop
endfacet
facet normal -2.48719405685931e-15 6.20394660242775e-15 1.0
outer loop
vertex 1108.18209644457 394.273934334183 561.692009273001
vertex 1107.96603198933 393.252613990623 561.692009272998
vertex 1108.18581291885 392.722015889849 561.692009272998
endloop
endfacet
facet normal -2.48719405685931e-15 6.20394660242775e-15 1.0
outer loop
vertex 1108.18209644457 394.273934334183 561.692009273001
vertex 1108.18581291885 392.722015889849 561.692009272998
vertex 1108.65885231236 393.652613990623 561.692009272998
endloop
endfacet
facet normal -2.48719405685931e-15 6.20394660242775e-15 1.0
outer loop
vertex 1108.65885231236 393.652613990623 561.692009272998
vertex 1108.18581291885 392.722015889849 561.692009272998
vertex 1108.26077610101 392.152613990623 561.692009272998
endloop
endfacet
facet normal -2.48719405685931e-15 6.20394660242775e-15 1.0
outer loop
vertex 1108.65885231236 393.652613990623 561.692009272998
vertex 1108.26077610101 392.152613990623 561.692009272998
vertex 1108.65885231236 390.652613990623 561.692009272999
endloop
endfacet
facet normal -2.48719405685931e-15 6.20394660242775e-15 1.0
outer loop
vertex 1108.65885231236 393.652613990623 561.692009272998
vertex 1108.65885231236 390.652613990623 561.692009272999
vertex 1108.95855357988 391.376156855316 561.692009272999
endloop
endfacet
facet normal -2.48719405685931e-15 6.20394660242775e-15 1.0
outer loop
vertex 1108.65885231236 393.652613990623 561.692009272998
vertex 1108.95855357988 391.376156855316 561.692009272999
vertex 1108.95855357988 392.929071125931 561.692009272998
endloop
endfacet
facet normal -2.48719405685931e-15 6.20394660242775e-15 1.0
outer loop
vertex 1108.95855357988 392.929071125931 561.692009272998
vertex 1108.95855357988 391.376156855316 561.692009272999
vertex 1109.06077610101 392.152613990623 561.692009272999
endloop
endfacet
facet normal 0.707106781186589 0.707106781186506 1.46520340906407e-13
outer loop
vertex 1104.5051411824 390.596979072016 549.692009272993
vertex 1104.96077610101 390.247358102297 561.692009272998
vertex 1104.96077610101 390.247358102301 549.692009272992
endloop
endfacet
facet normal 0.500000000000024 0.866025403784425 2.11336865975027e-13
outer loop
vertex 1104.96077610101 390.247358102297 561.692009272998
vertex 1104.5051411824 390.596979072016 549.692009272993
vertex 1104.5051411824 390.596979072013 561.692009272998
endloop
endfacet
facet normal 0.500000000000009 0.866025403784433 2.11336865975031e-13
outer loop
vertex 1104.96077610101 390.247358102301 549.692009272992
vertex 1105.49137420178 390.027577172787 561.692009272998
vertex 1105.49137420178 390.027577172791 549.692009272992
endloop
endfacet
facet normal 0.258819045102543 0.965925826289062 2.68352017990946e-13
outer loop
vertex 1105.49137420178 390.027577172787 561.692009272998
vertex 1104.96077610101 390.247358102301 549.692009272992
vertex 1104.96077610101 390.247358102297 561.692009272998
endloop
endfacet
facet normal 0.258819045102543 0.965925826289062 2.68352017990946e-13
outer loop
vertex 1105.49137420178 390.027577172787 561.692009272998
vertex 1106.06077610101 389.952613990627 549.692009272992
vertex 1105.49137420178 390.027577172791 549.692009272992
endloop
endfacet
facet normal 1.71093309996415e-15 1.0 3.00831716772298e-13
outer loop
vertex 1106.06077610101 389.952613990627 549.692009272992
vertex 1105.49137420178 390.027577172787 561.692009272998
vertex 1106.06077610101 389.952613990623 561.692009272998
endloop
endfacet
facet normal 4.54466604677978e-15 1.0 3.00831716772298e-13
outer loop
vertex 1106.06077610101 389.952613990623 561.692009272998
vertex 1106.63017800023 390.027577172791 549.692009272992
vertex 1106.06077610101 389.952613990627 549.692009272992
endloop
endfacet
facet normal -0.258819045102544 0.965925826289062 3.06749259196908e-13
outer loop
vertex 1106.63017800023 390.027577172791 549.692009272992
vertex 1106.06077610101 389.952613990623 561.692009272998
vertex 1106.63017800023 390.027577172787 561.692009272998
endloop
endfacet
facet normal -0.258819045102535 0.965925826289065 3.06749259196908e-13
outer loop
vertex 1106.63017800023 390.027577172787 561.692009272998
vertex 1107.16077610101 390.247358102301 549.692009272992
vertex 1106.63017800023 390.027577172791 549.692009272992
endloop
endfacet
facet normal -0.500000000000029 0.866025403784422 2.9845330534142e-13
outer loop
vertex 1107.16077610101 390.247358102301 549.692009272992
vertex 1106.63017800023 390.027577172787 561.692009272998
vertex 1107.16077610101 390.247358102297 561.692009272998
endloop
endfacet
facet normal -0.500000000000016 0.866025403784429 2.98453305341421e-13
outer loop
vertex 1107.16077610101 390.247358102297 561.692009272998
vertex 1107.61641101962 390.596979072016 549.692009272992
vertex 1107.16077610101 390.247358102301 549.692009272992
endloop
endfacet
facet normal -0.70710678118655 0.707106781186545 2.69721590964022e-13
outer loop
vertex 1107.61641101962 390.596979072016 549.692009272992
vertex 1107.16077610101 390.247358102297 561.692009272998
vertex 1107.61641101962 390.596979072013 561.692009272998
endloop
endfacet
facet normal -0.866025403784424 0.500000000000026 2.22608795898436e-13
outer loop
vertex 1107.96603198933 391.052613990623 561.692009272998
vertex 1107.61641101962 390.596979072016 549.692009272992
vertex 1107.61641101962 390.596979072013 561.692009272998
endloop
endfacet
facet normal -0.70710678118655 0.707106781186545 2.69721590964022e-13
outer loop
vertex 1107.61641101962 390.596979072016 549.692009272992
vertex 1107.96603198933 391.052613990623 561.692009272998
vertex 1107.96603198933 391.052613990627 549.692009272992
endloop
endfacet
facet normal -0.965925826289063 0.258819045102542 1.60325579270794e-13
outer loop
vertex 1108.18581291885 391.583212091398 561.692009272998
vertex 1107.96603198933 391.052613990627 549.692009272992
vertex 1107.96603198933 391.052613990623 561.692009272998
endloop
endfacet
facet normal -0.866025403784431 0.500000000000013 2.22608795898433e-13
outer loop
vertex 1107.96603198933 391.052613990627 549.692009272992
vertex 1108.18581291885 391.583212091398 561.692009272998
vertex 1108.18581291884 391.583212091401 549.692009272992
endloop
endfacet
facet normal -1.0 5.11675930208248e-14 8.71164393664035e-14
outer loop
vertex 1108.26077610101 392.152613990623 561.692009272998
vertex 1108.18581291884 391.583212091401 549.692009272992
vertex 1108.18581291885 391.583212091398 561.692009272998
endloop
endfacet
facet normal -0.965925826289066 0.258819045102529 1.6032557927079e-13
outer loop
vertex 1108.18581291884 391.583212091401 549.692009272992
vertex 1108.26077610101 392.152613990623 561.692009272998
vertex 1108.26077610101 392.152613990627 549.692009272993
endloop
endfacet
facet normal -0.965925826289077 -0.25881904510249 7.9704580859027e-15
outer loop
vertex 1108.18581291885 392.722015889849 561.692009272998
vertex 1108.26077610101 392.152613990627 549.692009272993
vertex 1108.26077610101 392.152613990623 561.692009272998
endloop
endfacet
facet normal -1.0 -5.15062151968181e-14 8.71164393663733e-14
outer loop
vertex 1108.26077610101 392.152613990627 549.692009272993
vertex 1108.18581291885 392.722015889849 561.692009272998
vertex 1108.18581291884 392.722015889852 549.692009272992
endloop
endfacet
facet normal -0.866025403784399 -0.500000000000069 -7.17186967413751e-14
outer loop
vertex 1107.96603198933 393.252613990623 561.692009272998
vertex 1108.18581291884 392.722015889852 549.692009272992
vertex 1108.18581291885 392.722015889849 561.692009272998
endloop
endfacet
facet normal -0.96592582628905 -0.258819045102588 7.97045808587142e-15
outer loop
vertex 1108.18581291884 392.722015889852 549.692009272992
vertex 1107.96603198933 393.252613990623 561.692009272998
vertex 1107.96603198933 393.252613990627 549.692009272992
endloop
endfacet
facet normal -0.707106781186505 -0.70710678118659 -1.46520340906439e-13
outer loop
vertex 1107.61641101962 393.708248909234 561.692009272999
vertex 1107.96603198933 393.252613990627 549.692009272992
vertex 1107.96603198933 393.252613990623 561.692009272998
endloop
endfacet
facet normal -0.866025403784459 -0.499999999999965 -7.17186967413395e-14
outer loop
vertex 1107.96603198933 393.252613990627 549.692009272992
vertex 1107.61641101962 393.708248909234 561.692009272999
vertex 1107.61641101962 393.708248909237 549.692009272993
endloop
endfacet
facet normal -0.707106781186505 -0.70710678118659 -1.46520340906439e-13
outer loop
vertex 1107.61641101962 393.708248909234 561.692009272999
vertex 1107.16077610101 394.057869878953 549.692009272993
vertex 1107.61641101962 393.708248909237 549.692009272993
endloop
endfacet
facet normal -0.500000000000019 -0.866025403784428 -2.11336865975029e-13
outer loop
vertex 1107.16077610101 394.057869878953 549.692009272993
vertex 1107.61641101962 393.708248909234 561.692009272999
vertex 1107.16077610101 394.057869878949 561.692009272999
endloop
endfacet
facet normal -0.500000000000015 -0.86602540378443 -2.1133686597503e-13
outer loop
vertex 1107.16077610101 394.057869878949 561.692009272999
vertex 1106.63017800023 394.277650808463 549.692009272993
vertex 1107.16077610101 394.057869878953 549.692009272993
endloop
endfacet
facet normal -0.258819045102543 -0.965925826289062 -2.6835223566601e-13
outer loop
vertex 1106.63017800023 394.277650808463 549.692009272993
vertex 1107.16077610101 394.057869878949 561.692009272999
vertex 1106.63017800023 394.277650808459 561.692009272999
endloop
endfacet
facet normal -0.258819045102534 -0.965925826289065 -2.68352235666012e-13
outer loop
vertex 1106.63017800023 394.277650808459 561.692009272999
vertex 1106.06077610101 394.352613990627 549.692009272994
vertex 1106.63017800023 394.277650808463 549.692009272993
endloop
endfacet
facet normal -1.11299762596621e-14 -1.0 -3.00831934447362e-13
outer loop
vertex 1106.06077610101 394.352613990627 549.692009272994
vertex 1106.63017800023 394.277650808459 561.692009272999
vertex 1106.06077610101 394.352613990623 561.692009272999
endloop
endfacet
facet normal 4.87437711291895e-15 -1.0 -3.00831934447363e-13
outer loop
vertex 1106.06077610101 394.352613990623 561.692009272999
vertex 1105.49137420178 394.277650808463 549.692009272994
vertex 1106.06077610101 394.352613990627 549.692009272994
endloop
endfacet
facet normal 0.258819045102535 -0.965925826289065 -3.06749259196908e-13
outer loop
vertex 1105.49137420178 394.277650808463 549.692009272994
vertex 1106.06077610101 394.352613990623 561.692009272999
vertex 1105.49137420178 394.277650808459 561.692009272999
endloop
endfacet
facet normal 0.258819045102544 -0.965925826289062 -3.06749259196908e-13
outer loop
vertex 1105.49137420178 394.277650808459 561.692009272999
vertex 1104.96077610101 394.057869878953 549.692009272994
vertex 1105.49137420178 394.277650808463 549.692009272994
endloop
endfacet
facet normal 0.500000000000022 -0.866025403784426 -2.9845330534142e-13
outer loop
vertex 1104.96077610101 394.057869878953 549.692009272994
vertex 1105.49137420178 394.277650808459 561.692009272999
vertex 1104.96077610101 394.057869878949 561.692009272999
endloop
endfacet
facet normal 0.500000000000022 -0.866025403784426 -2.9845330534142e-13
outer loop
vertex 1104.96077610101 394.057869878953 549.692009272994
vertex 1104.5051411824 393.708248909234 561.692009272999
vertex 1104.5051411824 393.708248909237 549.692009272993
endloop
endfacet
facet normal 0.70710678118655 -0.707106781186545 -2.69721590964022e-13
outer loop
vertex 1104.5051411824 393.708248909234 561.692009272999
vertex 1104.96077610101 394.057869878953 549.692009272994
vertex 1104.96077610101 394.057869878949 561.692009272999
endloop
endfacet
facet normal 0.866025403784424 -0.500000000000026 -2.22608795898436e-13
outer loop
vertex 1104.15552021268 393.252613990627 549.692009272993
vertex 1104.5051411824 393.708248909234 561.692009272999
vertex 1104.15552021268 393.252613990623 561.692009272999
endloop
endfacet
facet normal 0.70710678118655 -0.707106781186545 -2.69721590964022e-13
outer loop
vertex 1104.5051411824 393.708248909234 561.692009272999
vertex 1104.15552021268 393.252613990627 549.692009272993
vertex 1104.5051411824 393.708248909237 549.692009272993
endloop
endfacet
facet normal 0.965925826289064 -0.258819045102536 -1.60325579270792e-13
outer loop
vertex 1103.93573928317 392.722015889852 549.692009272993
vertex 1104.15552021268 393.252613990623 561.692009272999
vertex 1103.93573928317 392.722015889849 561.692009272999
endloop
endfacet
facet normal 0.866025403784431 -0.500000000000013 -2.22608795898433e-13
outer loop
vertex 1104.15552021268 393.252613990623 561.692009272999
vertex 1103.93573928317 392.722015889852 549.692009272993
vertex 1104.15552021268 393.252613990627 549.692009272993
endloop
endfacet
facet normal 1.0 6.07737694882843e-14 -8.71164393663705e-14
outer loop
vertex 1103.86077610101 392.152613990627 549.692009272993
vertex 1103.93573928317 392.722015889849 561.692009272999
vertex 1103.86077610101 392.152613990623 561.692009272999
endloop
endfacet
facet normal 0.965925826289065 -0.258819045102535 -1.60325579270791e-13
outer loop
vertex 1103.93573928317 392.722015889849 561.692009272999
vertex 1103.86077610101 392.152613990627 549.692009272993
vertex 1103.93573928317 392.722015889852 549.692009272993
endloop
endfacet
facet normal 0.965925826289048 0.258819045102598 -7.97045808586835e-15
outer loop
vertex 1103.93573928317 391.583212091401 549.692009272992
vertex 1103.86077610101 392.152613990623 561.692009272999
vertex 1103.93573928317 391.583212091398 561.692009272998
endloop
endfacet
facet normal 1.0 -6.04351473123041e-14 -8.71164393664062e-14
outer loop
vertex 1103.86077610101 392.152613990623 561.692009272999
vertex 1103.93573928317 391.583212091401 549.692009272992
vertex 1103.86077610101 392.152613990627 549.692009272993
endloop
endfacet
facet normal 0.866025403784458 0.499999999999966 7.17186967413398e-14
outer loop
vertex 1104.15552021268 391.052613990627 549.692009272992
vertex 1103.93573928317 391.583212091398 561.692009272998
vertex 1104.15552021268 391.052613990623 561.692009272998
endloop
endfacet
facet normal 0.965925826289079 0.25881904510248 -7.97045808590577e-15
outer loop
vertex 1103.93573928317 391.583212091398 561.692009272998
vertex 1104.15552021268 391.052613990627 549.692009272992
vertex 1103.93573928317 391.583212091401 549.692009272992
endloop
endfacet
facet normal 0.707106781186589 0.707106781186506 1.46520340906407e-13
outer loop
vertex 1104.5051411824 390.596979072016 549.692009272993
vertex 1104.15552021268 391.052613990623 561.692009272998
vertex 1104.5051411824 390.596979072013 561.692009272998
endloop
endfacet
facet normal 0.8660254037844 0.500000000000068 7.17186967413749e-14
outer loop
vertex 1104.15552021268 391.052613990623 561.692009272998
vertex 1104.5051411824 390.596979072016 549.692009272993
vertex 1104.15552021268 391.052613990627 549.692009272992
endloop
endfacet
facet normal -0.188350349220787 -0.245462954086862 0.950932218467415
outer loop
vertex 1103.56077610101 387.822486971705 561.046847982678
vertex 1103.93945575745 390.031293647063 561.692009272999
vertex 1102.52524219508 388.617080084694 561.046847982677
endloop
endfacet
facet normal -0.188350349220787 -0.245462954086862 0.950932218467415
outer loop
vertex 1103.93945575745 390.031293647063 561.692009272999
vertex 1103.56077610101 387.822486971705 561.046847982678
vertex 1104.56077610101 389.55453777927 561.692009272999
endloop
endfacet
facet normal 0.245462954086834 -0.188350349220908 0.950932218467398
outer loop
vertex 1109.59631000694 388.617080084694 561.046847982677
vertex 1108.65885231236 390.652613990623 561.692009272999
vertex 1108.18209644457 390.031293647063 561.692009272999
endloop
endfacet
facet normal 0.245462954086834 -0.188350349220908 0.950932218467398
outer loop
vertex 1108.65885231236 390.652613990623 561.692009272999
vertex 1109.59631000694 388.617080084694 561.046847982677
vertex 1110.39090311993 389.652613990626 561.046847982678
endloop
endfacet
facet normal -0.285847664279602 -0.118401979317898 0.950932218467489
outer loop
vertex 1101.73064908209 389.652613990626 561.046847982677
vertex 1103.16299862214 391.376156855316 561.692009272998
vertex 1101.23114696956 390.858518765113 561.046847982677
endloop
endfacet
facet normal -0.285847664279602 -0.118401979317898 0.950932218467489
outer loop
vertex 1103.16299862214 391.376156855316 561.692009272998
vertex 1101.73064908209 389.652613990626 561.046847982677
vertex 1103.46269988966 390.652613990623 561.692009272998
endloop
endfacet
facet normal -0.118401979317321 -0.285847664279808 0.950932218467499
outer loop
vertex 1104.7666808755 387.322984859182 561.046847982679
vertex 1104.56077610101 389.55453777927 561.692009272999
vertex 1103.56077610101 387.822486971705 561.046847982678
endloop
endfacet
facet normal -0.118401979317321 -0.285847664279808 0.950932218467499
outer loop
vertex 1104.56077610101 389.55453777927 561.692009272999
vertex 1104.7666808755 387.322984859182 561.046847982679
vertex 1105.2843189657 389.254836511756 561.692009272999
endloop
endfacet
facet normal 0.118401979316751 0.285847664280657 0.950932218467314
outer loop
vertex 1107.56077610101 394.750690201977 561.692009273001
vertex 1107.35487132652 396.982243122072 561.046847982676
vertex 1106.83723323632 395.05039146949 561.692009272999
endloop
endfacet
facet normal 0.118401979316751 0.285847664280657 0.950932218467314
outer loop
vertex 1107.35487132652 396.982243122072 561.046847982676
vertex 1107.56077610101 394.750690201977 561.692009273001
vertex 1108.56077610101 396.482741009549 561.046847982676
endloop
endfacet
facet normal -0.0403847101919535 -0.306752328537866 0.950932218467389
outer loop
vertex 1106.06077610101 387.152613990627 561.046847982677
vertex 1105.2843189657 389.254836511756 561.692009272999
vertex 1104.7666808755 387.322984859182 561.046847982679
endloop
endfacet
facet normal -0.0403847101919535 -0.306752328537866 0.950932218467389
outer loop
vertex 1105.2843189657 389.254836511756 561.692009272999
vertex 1106.06077610101 387.152613990627 561.046847982677
vertex 1106.06077610101 389.152613990623 561.692009272999
endloop
endfacet
facet normal 0.285847664279737 -0.118401979317334 0.950932218467519
outer loop
vertex 1110.39090311993 389.652613990626 561.046847982678
vertex 1108.95855357988 391.376156855316 561.692009272999
vertex 1108.65885231236 390.652613990623 561.692009272999
endloop
endfacet
facet normal 0.285847664279737 -0.118401979317334 0.950932218467519
outer loop
vertex 1108.95855357988 391.376156855316 561.692009272999
vertex 1110.39090311993 389.652613990626 561.046847982678
vertex 1110.89040523245 390.858518765113 561.046847982678
endloop
endfacet
facet normal -0.245462954087637 -0.188350349220029 0.950932218467365
outer loop
vertex 1102.52524219508 388.617080084694 561.046847982677
vertex 1103.46269988966 390.652613990623 561.692009272998
vertex 1101.73064908209 389.652613990626 561.046847982677
endloop
endfacet
facet normal -0.245462954087637 -0.188350349220029 0.950932218467365
outer loop
vertex 1103.46269988966 390.652613990623 561.692009272998
vertex 1102.52524219508 388.617080084694 561.046847982677
vertex 1103.93945575745 390.031293647063 561.692009272999
endloop
endfacet
facet normal -0.306752328537693 -0.0403847101932392 0.95093221846739
outer loop
vertex 1101.23114696956 390.858518765113 561.046847982677
vertex 1103.06077610101 392.152613990623 561.692009273001
vertex 1101.06077610101 392.152613990626 561.046847982677
endloop
endfacet
facet normal -0.306752328537693 -0.0403847101932392 0.95093221846739
outer loop
vertex 1103.06077610101 392.152613990623 561.692009273001
vertex 1101.23114696956 390.858518765113 561.046847982677
vertex 1103.16299862214 391.376156855316 561.692009272998
endloop
endfacet
facet normal -0.285847664280023 0.118401979318458 0.950932218467292
outer loop
vertex 1103.16299862214 392.929071125931 561.692009273001
vertex 1101.73064908209 394.652613990626 561.046847982676
vertex 1101.23114696956 393.446709216139 561.046847982677
endloop
endfacet
facet normal -0.285847664280023 0.118401979318458 0.950932218467292
outer loop
vertex 1101.73064908209 394.652613990626 561.046847982676
vertex 1103.16299862214 392.929071125931 561.692009273001
vertex 1103.46269988966 393.652613990623 561.692009272999
endloop
endfacet
facet normal -0.0403847101927599 0.306752328537879 0.95093221846735
outer loop
vertex 1105.2843189657 395.05039146949 561.692009272999
vertex 1106.06077610101 397.152613990627 561.046847982675
vertex 1104.7666808755 396.982243122073 561.046847982675
endloop
endfacet
facet normal -0.0403847101927599 0.306752328537879 0.95093221846735
outer loop
vertex 1106.06077610101 397.152613990627 561.046847982675
vertex 1105.2843189657 395.05039146949 561.692009272999
vertex 1106.06077610101 395.152613990623 561.692009272999
endloop
endfacet
facet normal 0.188350349220588 -0.245462954087578 0.950932218467269
outer loop
vertex 1108.56077610101 387.822486971705 561.046847982677
vertex 1108.18209644457 390.031293647063 561.692009272999
vertex 1107.56077610101 389.55453777927 561.692009272999
endloop
endfacet
facet normal 0.188350349220588 -0.245462954087578 0.950932218467269
outer loop
vertex 1108.18209644457 390.031293647063 561.692009272999
vertex 1108.56077610101 387.822486971705 561.046847982677
vertex 1109.59631000694 388.617080084694 561.046847982677
endloop
endfacet
facet normal 0.306752328537698 0.0403847101931608 0.950932218467391
outer loop
vertex 1109.06077610101 392.152613990623 561.692009272999
vertex 1110.89040523245 393.446709216138 561.046847982676
vertex 1108.95855357988 392.929071125931 561.692009272998
endloop
endfacet
facet normal 0.306752328537698 0.0403847101931608 0.950932218467391
outer loop
vertex 1110.89040523245 393.446709216138 561.046847982676
vertex 1109.06077610101 392.152613990623 561.692009272999
vertex 1111.06077610101 392.152613990626 561.046847982677
endloop
endfacet
facet normal -0.188350349220321 0.245462954087474 0.950932218467349
outer loop
vertex 1103.93945575745 394.273934334183 561.692009272999
vertex 1103.56077610101 396.482741009549 561.046847982675
vertex 1102.52524219508 395.688147896559 561.046847982675
endloop
endfacet
facet normal -0.188350349220321 0.245462954087474 0.950932218467349
outer loop
vertex 1103.56077610101 396.482741009549 561.046847982675
vertex 1103.93945575745 394.273934334183 561.692009272999
vertex 1104.56077610101 394.750690201977 561.692009272999
endloop
endfacet
facet normal -0.306752328538307 0.0403847101928873 0.950932218467207
outer loop
vertex 1103.06077610101 392.152613990623 561.692009273001
vertex 1101.23114696956 393.446709216139 561.046847982677
vertex 1101.06077610101 392.152613990626 561.046847982677
endloop
endfacet
facet normal -0.306752328538307 0.0403847101928873 0.950932218467207
outer loop
vertex 1101.23114696956 393.446709216139 561.046847982677
vertex 1103.06077610101 392.152613990623 561.692009273001
vertex 1103.16299862214 392.929071125931 561.692009273001
endloop
endfacet
facet normal 0.0403847101923923 0.306752328537857 0.950932218467373
outer loop
vertex 1106.06077610101 395.152613990623 561.692009272999
vertex 1107.35487132652 396.982243122072 561.046847982676
vertex 1106.06077610101 397.152613990627 561.046847982675
endloop
endfacet
facet normal 0.0403847101923923 0.306752328537857 0.950932218467373
outer loop
vertex 1107.35487132652 396.982243122072 561.046847982676
vertex 1106.06077610101 395.152613990623 561.692009272999
vertex 1106.83723323632 395.05039146949 561.692009272999
endloop
endfacet
facet normal -0.118401979317505 0.285847664280219 0.950932218467352
outer loop
vertex 1104.56077610101 394.750690201977 561.692009272999
vertex 1104.7666808755 396.982243122073 561.046847982675
vertex 1103.56077610101 396.482741009549 561.046847982675
endloop
endfacet
facet normal -0.118401979317505 0.285847664280219 0.950932218467352
outer loop
vertex 1104.7666808755 396.982243122073 561.046847982675
vertex 1104.56077610101 394.750690201977 561.692009272999
vertex 1105.2843189657 395.05039146949 561.692009272999
endloop
endfacet
facet normal 0.245462954087628 0.188350349219791 0.950932218467414
outer loop
vertex 1108.65885231236 393.652613990623 561.692009272998
vertex 1109.59631000694 395.688147896559 561.046847982677
vertex 1108.18209644457 394.273934334183 561.692009273001
endloop
endfacet
facet normal 0.245462954087628 0.188350349219791 0.950932218467414
outer loop
vertex 1109.59631000694 395.688147896559 561.046847982677
vertex 1108.65885231236 393.652613990623 561.692009272998
vertex 1110.39090311993 394.652613990626 561.046847982677
endloop
endfacet
facet normal 0.306752328537693 -0.0403847101920412 0.950932218467441
outer loop
vertex 1110.89040523245 390.858518765113 561.046847982678
vertex 1109.06077610101 392.152613990623 561.692009272999
vertex 1108.95855357988 391.376156855316 561.692009272999
endloop
endfacet
facet normal 0.306752328537693 -0.0403847101920412 0.950932218467441
outer loop
vertex 1109.06077610101 392.152613990623 561.692009272999
vertex 1110.89040523245 390.858518765113 561.046847982678
vertex 1111.06077610101 392.152613990626 561.046847982677
endloop
endfacet
facet normal -0.245462954087233 0.188350349220578 0.95093221846736
outer loop
vertex 1103.46269988966 393.652613990623 561.692009272999
vertex 1102.52524219508 395.688147896559 561.046847982675
vertex 1101.73064908209 394.652613990626 561.046847982676
endloop
endfacet
facet normal -0.245462954087233 0.188350349220578 0.95093221846736
outer loop
vertex 1102.52524219508 395.688147896559 561.046847982675
vertex 1103.46269988966 393.652613990623 561.692009272999
vertex 1103.93945575745 394.273934334183 561.692009272999
endloop
endfacet
facet normal 0.0403847101927044 -0.30675232853813 0.950932218467271
outer loop
vertex 1107.35487132652 387.322984859182 561.046847982677
vertex 1106.06077610101 389.152613990623 561.692009272999
vertex 1106.06077610101 387.152613990627 561.046847982677
endloop
endfacet
facet normal 0.0403847101927044 -0.30675232853813 0.950932218467271
outer loop
vertex 1106.06077610101 389.152613990623 561.692009272999
vertex 1107.35487132652 387.322984859182 561.046847982677
vertex 1106.83723323632 389.254836511756 561.692009272999
endloop
endfacet
facet normal 0.285847664279983 0.118401979316817 0.950932218467509
outer loop
vertex 1108.95855357988 392.929071125931 561.692009272998
vertex 1110.39090311993 394.652613990626 561.046847982677
vertex 1108.65885231236 393.652613990623 561.692009272998
endloop
endfacet
facet normal 0.285847664279983 0.118401979316817 0.950932218467509
outer loop
vertex 1110.39090311993 394.652613990626 561.046847982677
vertex 1108.95855357988 392.929071125931 561.692009272998
vertex 1110.89040523245 393.446709216138 561.046847982676
endloop
endfacet
facet normal 0.118401979317673 -0.285847664280451 0.950932218467262
outer loop
vertex 1107.35487132652 387.322984859182 561.046847982677
vertex 1107.56077610101 389.55453777927 561.692009272999
vertex 1106.83723323632 389.254836511756 561.692009272999
endloop
endfacet
facet normal 0.118401979317673 -0.285847664280451 0.950932218467262
outer loop
vertex 1107.56077610101 389.55453777927 561.692009272999
vertex 1107.35487132652 387.322984859182 561.046847982677
vertex 1108.56077610101 387.822486971705 561.046847982677
endloop
endfacet
facet normal 0.188350349220504 0.245462954087789 0.950932218467232
outer loop
vertex 1108.18209644457 394.273934334183 561.692009273001
vertex 1108.56077610101 396.482741009549 561.046847982676
vertex 1107.56077610101 394.750690201977 561.692009273001
endloop
endfacet
facet normal 0.188350349220504 0.245462954087789 0.950932218467232
outer loop
vertex 1108.56077610101 396.482741009549 561.046847982676
vertex 1108.18209644457 394.273934334183 561.692009273001
vertex 1109.59631000694 395.688147896559 561.046847982677
endloop
endfacet
facet normal 4.75803674177277e-14 3.18348443678093e-13 -1.0
outer loop
vertex 1101.72762198775 392.916665972361 549.692009272993
vertex 1101.72762198775 391.388562008892 549.692009272992
vertex 1101.66077610101 392.152613990627 549.692009272993
endloop
endfacet
facet normal 4.75803674177277e-14 3.18348443678093e-13 -1.0
outer loop
vertex 1101.72762198775 391.388562008892 549.692009272992
vertex 1101.72762198775 392.916665972361 549.692009272993
vertex 1101.92612856955 393.65750262126 549.692009272993
endloop
endfacet
facet normal 4.75803674177277e-14 3.18348443678093e-13 -1.0
outer loop
vertex 1101.72762198775 391.388562008892 549.692009272992
vertex 1101.92612856955 393.65750262126 549.692009272993
vertex 1101.92612856955 390.647725359994 549.692009272992
endloop
endfacet
facet normal 4.75803674177277e-14 3.18348443678093e-13 -1.0
outer loop
vertex 1101.92612856955 390.647725359994 549.692009272992
vertex 1101.92612856955 393.65750262126 549.692009272993
vertex 1102.25026432436 394.352613990627 549.692009272993
endloop
endfacet
facet normal 4.75803674177277e-14 3.18348443678093e-13 -1.0
outer loop
vertex 1101.92612856955 390.647725359994 549.692009272992
vertex 1102.25026432436 394.352613990627 549.692009272993
vertex 1102.25026432436 389.952613990627 549.692009272992
endloop
endfacet
facet normal 4.75803674177277e-14 3.18348443678093e-13 -1.0
outer loop
vertex 1102.25026432436 389.952613990627 549.692009272992
vertex 1102.25026432436 394.352613990627 549.692009272993
vertex 1102.69018055129 394.980879473248 549.692009272994
endloop
endfacet
facet normal 4.75803674177277e-14 3.18348443678093e-13 -1.0
outer loop
vertex 1102.25026432436 389.952613990627 549.692009272992
vertex 1102.69018055129 394.980879473248 549.692009272994
vertex 1102.69018055129 389.324348508006 549.692009272992
endloop
endfacet
facet normal 4.75803674177277e-14 3.18348443678093e-13 -1.0
outer loop
vertex 1102.69018055129 389.324348508006 549.692009272992
vertex 1102.69018055129 394.980879473248 549.692009272994
vertex 1103.23251061839 395.52320954035 549.692009272994
endloop
endfacet
facet normal 4.75803674177277e-14 3.18348443678093e-13 -1.0
outer loop
vertex 1102.69018055129 389.324348508006 549.692009272992
vertex 1103.23251061839 395.52320954035 549.692009272994
vertex 1103.23251061839 388.782018440903 549.692009272992
endloop
endfacet
facet normal 4.75803674177277e-14 3.18348443678093e-13 -1.0
outer loop
vertex 1103.23251061839 388.782018440903 549.692009272992
vertex 1103.23251061839 395.52320954035 549.692009272994
vertex 1103.86077610101 395.963125767278 549.692009272994
endloop
endfacet
facet normal 4.75803674177277e-14 3.18348443678093e-13 -1.0
outer loop
vertex 1103.23251061839 388.782018440903 549.692009272992
vertex 1103.86077610101 395.963125767278 549.692009272994
vertex 1103.86077610101 388.342102213975 549.692009272992
endloop
endfacet
facet normal 4.75803674177277e-14 3.18348443678093e-13 -1.0
outer loop
vertex 1103.86077610101 388.342102213975 549.692009272992
vertex 1103.86077610101 395.963125767278 549.692009272994
vertex 1103.86077610101 392.152613990627 549.692009272993
endloop
endfacet
facet normal 4.75803674177277e-14 3.18348443678093e-13 -1.0
outer loop
vertex 1103.86077610101 392.152613990627 549.692009272993
vertex 1103.86077610101 395.963125767278 549.692009272994
vertex 1103.93573928317 392.722015889852 549.692009272993
endloop
endfacet
facet normal 4.75803674177277e-14 3.18348443678093e-13 -1.0
outer loop
vertex 1103.93573928317 392.722015889852 549.692009272993
vertex 1103.86077610101 395.963125767278 549.692009272994
vertex 1104.55588747038 396.287261522085 549.692009272994
endloop
endfacet
facet normal 4.75803674177277e-14 3.18348443678093e-13 -1.0
outer loop
vertex 1103.93573928317 392.722015889852 549.692009272993
vertex 1104.55588747038 396.287261522085 549.692009272994
vertex 1104.15552021268 393.252613990627 549.692009272993
endloop
endfacet
facet normal 4.75803674177277e-14 3.18348443678093e-13 -1.0
outer loop
vertex 1104.15552021268 393.252613990627 549.692009272993
vertex 1104.55588747038 396.287261522085 549.692009272994
vertex 1104.5051411824 393.708248909237 549.692009272993
endloop
endfacet
facet normal 4.75803674177277e-14 3.18348443678093e-13 -1.0
outer loop
vertex 1104.5051411824 393.708248909237 549.692009272993
vertex 1104.55588747038 396.287261522085 549.692009272994
vertex 1104.96077610101 394.057869878953 549.692009272994
endloop
endfacet
facet normal 4.75803674177277e-14 3.18348443678093e-13 -1.0
outer loop
vertex 1104.96077610101 394.057869878953 549.692009272994
vertex 1104.55588747038 396.287261522085 549.692009272994
vertex 1105.29672411927 396.485768103881 549.692009272994
endloop
endfacet
facet normal 4.75803674177277e-14 3.18348443678093e-13 -1.0
outer loop
vertex 1104.96077610101 394.057869878953 549.692009272994
vertex 1105.29672411927 396.485768103881 549.692009272994
vertex 1105.49137420178 394.277650808463 549.692009272994
endloop
endfacet
facet normal 4.75803674177277e-14 3.18348443678093e-13 -1.0
outer loop
vertex 1105.49137420178 394.277650808463 549.692009272994
vertex 1105.29672411927 396.485768103881 549.692009272994
vertex 1106.06077610101 396.552613990627 549.692009272994
endloop
endfacet
facet normal 4.75803674177277e-14 3.18348443678093e-13 -1.0
outer loop
vertex 1105.49137420178 394.277650808463 549.692009272994
vertex 1106.06077610101 396.552613990627 549.692009272994
vertex 1106.06077610101 394.352613990627 549.692009272994
endloop
endfacet
facet normal 4.75803674177277e-14 3.18348443678093e-13 -1.0
outer loop
vertex 1106.06077610101 394.352613990627 549.692009272994
vertex 1106.06077610101 396.552613990627 549.692009272994
vertex 1106.82482808274 396.485768103881 549.692009272994
endloop
endfacet
facet normal 4.75803674177277e-14 3.18348443678093e-13 -1.0
outer loop
vertex 1106.06077610101 394.352613990627 549.692009272994
vertex 1106.82482808274 396.485768103881 549.692009272994
vertex 1106.63017800023 394.277650808463 549.692009272993
endloop
endfacet
facet normal 4.75803674177277e-14 3.18348443678093e-13 -1.0
outer loop
vertex 1106.63017800023 394.277650808463 549.692009272993
vertex 1106.82482808274 396.485768103881 549.692009272994
vertex 1107.16077610101 394.057869878953 549.692009272993
endloop
endfacet
facet normal 4.75803674177277e-14 3.18348443678093e-13 -1.0
outer loop
vertex 1107.16077610101 394.057869878953 549.692009272993
vertex 1106.82482808274 396.485768103881 549.692009272994
vertex 1107.56566473164 396.287261522085 549.692009272994
endloop
endfacet
facet normal 4.75803674177277e-14 3.18348443678093e-13 -1.0
outer loop
vertex 1107.16077610101 394.057869878953 549.692009272993
vertex 1107.56566473164 396.287261522085 549.692009272994
vertex 1107.61641101962 393.708248909237 549.692009272993
endloop
endfacet
facet normal 4.75803674177277e-14 3.18348443678093e-13 -1.0
outer loop
vertex 1107.61641101962 393.708248909237 549.692009272993
vertex 1107.56566473164 396.287261522085 549.692009272994
vertex 1108.26077610101 395.963125767278 549.692009272994
endloop
endfacet
facet normal 4.75803674177277e-14 3.18348443678093e-13 -1.0
outer loop
vertex 1107.61641101962 393.708248909237 549.692009272993
vertex 1108.26077610101 395.963125767278 549.692009272994
vertex 1107.96603198933 393.252613990627 549.692009272992
endloop
endfacet
facet normal 4.75803674177277e-14 3.18348443678093e-13 -1.0
outer loop
vertex 1107.96603198933 393.252613990627 549.692009272992
vertex 1108.26077610101 395.963125767278 549.692009272994
vertex 1108.18581291884 392.722015889852 549.692009272992
endloop
endfacet
facet normal 4.75803674177277e-14 3.18348443678093e-13 -1.0
outer loop
vertex 1108.18581291884 392.722015889852 549.692009272992
vertex 1108.26077610101 395.963125767278 549.692009272994
vertex 1108.26077610101 392.152613990627 549.692009272993
endloop
endfacet
facet normal 4.75803674177277e-14 3.18348443678093e-13 -1.0
outer loop
vertex 1108.26077610101 392.152613990627 549.692009272993
vertex 1108.26077610101 395.963125767278 549.692009272994
vertex 1108.88904158363 395.52320954035 549.692009272994
endloop
endfacet
facet normal 4.75803674177277e-14 3.18348443678093e-13 -1.0
outer loop
vertex 1103.86077610101 388.342102213975 549.692009272992
vertex 1103.93573928317 391.583212091401 549.692009272992
vertex 1104.55588747038 388.017966459169 549.692009272992
endloop
endfacet
facet normal 4.75803674177277e-14 3.18348443678093e-13 -1.0
outer loop
vertex 1103.93573928317 391.583212091401 549.692009272992
vertex 1103.86077610101 388.342102213975 549.692009272992
vertex 1103.86077610101 392.152613990627 549.692009272993
endloop
endfacet
facet normal 4.75803674177277e-14 3.18348443678093e-13 -1.0
outer loop
vertex 1104.55588747038 388.017966459169 549.692009272992
vertex 1103.93573928317 391.583212091401 549.692009272992
vertex 1104.15552021268 391.052613990627 549.692009272992
endloop
endfacet
facet normal 4.75803674177277e-14 3.18348443678093e-13 -1.0
outer loop
vertex 1104.55588747038 388.017966459169 549.692009272992
vertex 1104.15552021268 391.052613990627 549.692009272992
vertex 1104.5051411824 390.596979072016 549.692009272993
endloop
endfacet
facet normal 4.75803674177277e-14 3.18348443678093e-13 -1.0
outer loop
vertex 1104.55588747038 388.017966459169 549.692009272992
vertex 1104.5051411824 390.596979072016 549.692009272993
vertex 1104.96077610101 390.247358102301 549.692009272992
endloop
endfacet
facet normal 4.75803674177277e-14 3.18348443678093e-13 -1.0
outer loop
vertex 1104.55588747038 388.017966459169 549.692009272992
vertex 1104.96077610101 390.247358102301 549.692009272992
vertex 1105.29672411927 387.819459877373 549.692009272992
endloop
endfacet
facet normal 4.75803674177277e-14 3.18348443678093e-13 -1.0
outer loop
vertex 1105.29672411927 387.819459877373 549.692009272992
vertex 1104.96077610101 390.247358102301 549.692009272992
vertex 1105.49137420178 390.027577172791 549.692009272992
endloop
endfacet
facet normal 4.75803674177277e-14 3.18348443678093e-13 -1.0
outer loop
vertex 1105.29672411927 387.819459877373 549.692009272992
vertex 1105.49137420178 390.027577172791 549.692009272992
vertex 1106.06077610101 387.752613990627 549.692009272992
endloop
endfacet
facet normal 4.75803674177277e-14 3.18348443678093e-13 -1.0
outer loop
vertex 1106.06077610101 387.752613990627 549.692009272992
vertex 1105.49137420178 390.027577172791 549.692009272992
vertex 1106.06077610101 389.952613990627 549.692009272992
endloop
endfacet
facet normal 4.75803674177277e-14 3.18348443678093e-13 -1.0
outer loop
vertex 1106.06077610101 387.752613990627 549.692009272992
vertex 1106.06077610101 389.952613990627 549.692009272992
vertex 1106.82482808274 387.819459877373 549.692009272992
endloop
endfacet
facet normal 4.75803674177277e-14 3.18348443678093e-13 -1.0
outer loop
vertex 1106.82482808274 387.819459877373 549.692009272992
vertex 1106.06077610101 389.952613990627 549.692009272992
vertex 1106.63017800023 390.027577172791 549.692009272992
endloop
endfacet
facet normal 4.75803674177277e-14 3.18348443678093e-13 -1.0
outer loop
vertex 1106.82482808274 387.819459877373 549.692009272992
vertex 1106.63017800023 390.027577172791 549.692009272992
vertex 1107.16077610101 390.247358102301 549.692009272992
endloop
endfacet
facet normal 4.75803674177277e-14 3.18348443678093e-13 -1.0
outer loop
vertex 1106.82482808274 387.819459877373 549.692009272992
vertex 1107.16077610101 390.247358102301 549.692009272992
vertex 1107.56566473164 388.017966459169 549.692009272992
endloop
endfacet
facet normal 4.75803674177277e-14 3.18348443678093e-13 -1.0
outer loop
vertex 1107.56566473164 388.017966459169 549.692009272992
vertex 1107.16077610101 390.247358102301 549.692009272992
vertex 1107.61641101962 390.596979072016 549.692009272992
endloop
endfacet
facet normal 4.75803674177277e-14 3.18348443678093e-13 -1.0
outer loop
vertex 1107.56566473164 388.017966459169 549.692009272992
vertex 1107.61641101962 390.596979072016 549.692009272992
vertex 1108.26077610101 388.342102213975 549.692009272992
endloop
endfacet
facet normal 4.75803674177277e-14 3.18348443678093e-13 -1.0
outer loop
vertex 1108.26077610101 388.342102213975 549.692009272992
vertex 1107.61641101962 390.596979072016 549.692009272992
vertex 1107.96603198933 391.052613990627 549.692009272992
endloop
endfacet
facet normal 4.75803674177277e-14 3.18348443678093e-13 -1.0
outer loop
vertex 1108.26077610101 388.342102213975 549.692009272992
vertex 1107.96603198933 391.052613990627 549.692009272992
vertex 1108.18581291884 391.583212091401 549.692009272992
endloop
endfacet
facet normal 4.75803674177277e-14 3.18348443678093e-13 -1.0
outer loop
vertex 1108.26077610101 388.342102213975 549.692009272992
vertex 1108.18581291884 391.583212091401 549.692009272992
vertex 1108.26077610101 392.152613990627 549.692009272993
endloop
endfacet
facet normal 4.75803674177277e-14 3.18348443678093e-13 -1.0
outer loop
vertex 1108.26077610101 388.342102213975 549.692009272992
vertex 1108.26077610101 392.152613990627 549.692009272993
vertex 1108.88904158363 388.782018440903 549.692009272992
endloop
endfacet
facet normal 4.75803674177277e-14 3.18348443678093e-13 -1.0
outer loop
vertex 1108.88904158363 388.782018440903 549.692009272992
vertex 1108.26077610101 392.152613990627 549.692009272993
vertex 1108.88904158363 395.52320954035 549.692009272994
endloop
endfacet
facet normal 4.75803674177277e-14 3.18348443678093e-13 -1.0
outer loop
vertex 1108.88904158363 388.782018440903 549.692009272992
vertex 1108.88904158363 395.52320954035 549.692009272994
vertex 1109.43137165073 394.980879473248 549.692009272994
endloop
endfacet
facet normal 4.75803674177277e-14 3.18348443678093e-13 -1.0
outer loop
vertex 1108.88904158363 388.782018440903 549.692009272992
vertex 1109.43137165073 394.980879473248 549.692009272994
vertex 1109.43137165073 389.324348508006 549.692009272992
endloop
endfacet
facet normal 4.75803674177277e-14 3.18348443678093e-13 -1.0
outer loop
vertex 1109.43137165073 389.324348508006 549.692009272992
vertex 1109.43137165073 394.980879473248 549.692009272994
vertex 1109.87128787766 394.352613990627 549.692009272994
endloop
endfacet
facet normal 4.75803674177277e-14 3.18348443678093e-13 -1.0
outer loop
vertex 1109.43137165073 389.324348508006 549.692009272992
vertex 1109.87128787766 394.352613990627 549.692009272994
vertex 1109.87128787766 389.952613990627 549.692009272993
endloop
endfacet
facet normal 4.75803674177277e-14 3.18348443678093e-13 -1.0
outer loop
vertex 1109.87128787766 389.952613990627 549.692009272993
vertex 1109.87128787766 394.352613990627 549.692009272994
vertex 1110.19542363247 393.65750262126 549.692009272994
endloop
endfacet
facet normal 4.75803674177277e-14 3.18348443678093e-13 -1.0
outer loop
vertex 1109.87128787766 389.952613990627 549.692009272993
vertex 1110.19542363247 393.65750262126 549.692009272994
vertex 1110.19542363247 390.647725359994 549.692009272993
endloop
endfacet
facet normal 4.75803674177277e-14 3.18348443678093e-13 -1.0
outer loop
vertex 1110.19542363247 390.647725359994 549.692009272993
vertex 1110.19542363247 393.65750262126 549.692009272994
vertex 1110.39393021426 392.916665972361 549.692009272993
endloop
endfacet
facet normal 4.75803674177277e-14 3.18348443678093e-13 -1.0
outer loop
vertex 1110.19542363247 390.647725359994 549.692009272993
vertex 1110.39393021426 392.916665972361 549.692009272993
vertex 1110.39393021426 391.388562008892 549.692009272993
endloop
endfacet
facet normal 4.75803674177277e-14 3.18348443678093e-13 -1.0
outer loop
vertex 1110.39393021426 391.388562008892 549.692009272993
vertex 1110.39393021426 392.916665972361 549.692009272993
vertex 1110.46077610101 392.152613990627 549.692009272993
endloop
endfacet
facet normal 1.04816132809938e-14 2.70939711847253e-13 -1.0
outer loop
vertex 1101.23114696956 393.446709216139 549.692009272993
vertex 1101.23114696956 390.858518765114 549.692009272993
vertex 1101.06077610101 392.152613990627 549.692009272993
endloop
endfacet
facet normal 1.04816132809938e-14 2.70939711847253e-13 -1.0
outer loop
vertex 1101.23114696956 390.858518765114 549.692009272993
vertex 1101.23114696956 393.446709216139 549.692009272993
vertex 1101.73064908209 394.652613990627 549.692009272993
endloop
endfacet
facet normal 1.04816132809938e-14 2.70939711847253e-13 -1.0
outer loop
vertex 1101.23114696956 390.858518765114 549.692009272993
vertex 1101.73064908209 394.652613990627 549.692009272993
vertex 1101.66077610101 392.152613990627 549.692009272993
endloop
endfacet
facet normal 1.04816132809938e-14 2.70939711847253e-13 -1.0
outer loop
vertex 1101.66077610101 392.152613990627 549.692009272993
vertex 1101.73064908209 394.652613990627 549.692009272993
vertex 1101.72762198775 392.916665972361 549.692009272993
endloop
endfacet
facet normal 1.04816132809938e-14 2.70939711847253e-13 -1.0
outer loop
vertex 1101.72762198775 392.916665972361 549.692009272993
vertex 1101.73064908209 394.652613990627 549.692009272993
vertex 1101.92612856955 393.65750262126 549.692009272993
endloop
endfacet
facet normal 1.04816132809938e-14 2.70939711847253e-13 -1.0
outer loop
vertex 1101.92612856955 393.65750262126 549.692009272993
vertex 1101.73064908209 394.652613990627 549.692009272993
vertex 1102.52524219508 395.68814789656 549.692009272994
endloop
endfacet
facet normal 1.04816132809938e-14 2.70939711847253e-13 -1.0
outer loop
vertex 1101.92612856955 393.65750262126 549.692009272993
vertex 1102.52524219508 395.68814789656 549.692009272994
vertex 1102.25026432436 394.352613990627 549.692009272993
endloop
endfacet
facet normal 1.04816132809938e-14 2.70939711847253e-13 -1.0
outer loop
vertex 1102.25026432436 394.352613990627 549.692009272993
vertex 1102.52524219508 395.68814789656 549.692009272994
vertex 1102.69018055129 394.980879473248 549.692009272994
endloop
endfacet
facet normal 1.04816132809938e-14 2.70939711847253e-13 -1.0
outer loop
vertex 1102.69018055129 394.980879473248 549.692009272994
vertex 1102.52524219508 395.68814789656 549.692009272994
vertex 1103.56077610101 396.482741009549 549.692009272994
endloop
endfacet
facet normal 1.04816132809938e-14 2.70939711847253e-13 -1.0
outer loop
vertex 1102.69018055129 394.980879473248 549.692009272994
vertex 1103.56077610101 396.482741009549 549.692009272994
vertex 1103.23251061839 395.52320954035 549.692009272994
endloop
endfacet
facet normal 1.04816132809938e-14 2.70939711847253e-13 -1.0
outer loop
vertex 1103.23251061839 395.52320954035 549.692009272994
vertex 1103.56077610101 396.482741009549 549.692009272994
vertex 1103.86077610101 395.963125767278 549.692009272994
endloop
endfacet
facet normal 1.04816132809938e-14 2.70939711847253e-13 -1.0
outer loop
vertex 1103.86077610101 395.963125767278 549.692009272994
vertex 1103.56077610101 396.482741009549 549.692009272994
vertex 1104.7666808755 396.982243122072 549.692009272994
endloop
endfacet
facet normal 1.04816132809938e-14 2.70939711847253e-13 -1.0
outer loop
vertex 1103.86077610101 395.963125767278 549.692009272994
vertex 1104.7666808755 396.982243122072 549.692009272994
vertex 1104.55588747038 396.287261522085 549.692009272994
endloop
endfacet
facet normal 1.04816132809938e-14 2.70939711847253e-13 -1.0
outer loop
vertex 1104.55588747038 396.287261522085 549.692009272994
vertex 1104.7666808755 396.982243122072 549.692009272994
vertex 1105.29672411927 396.485768103881 549.692009272994
endloop
endfacet
facet normal 1.04816132809938e-14 2.70939711847253e-13 -1.0
outer loop
vertex 1105.29672411927 396.485768103881 549.692009272994
vertex 1104.7666808755 396.982243122072 549.692009272994
vertex 1106.06077610101 397.152613990627 549.692009272994
endloop
endfacet
facet normal 1.04816132809938e-14 2.70939711847253e-13 -1.0
outer loop
vertex 1105.29672411927 396.485768103881 549.692009272994
vertex 1106.06077610101 397.152613990627 549.692009272994
vertex 1106.06077610101 396.552613990627 549.692009272994
endloop
endfacet
facet normal 1.04816132809938e-14 2.70939711847253e-13 -1.0
outer loop
vertex 1106.06077610101 396.552613990627 549.692009272994
vertex 1106.06077610101 397.152613990627 549.692009272994
vertex 1107.35487132652 396.982243122072 549.692009272994
endloop
endfacet
facet normal 1.04816132809938e-14 2.70939711847253e-13 -1.0
outer loop
vertex 1106.06077610101 396.552613990627 549.692009272994
vertex 1107.35487132652 396.982243122072 549.692009272994
vertex 1106.82482808274 396.485768103881 549.692009272994
endloop
endfacet
facet normal 1.04816132809938e-14 2.70939711847253e-13 -1.0
outer loop
vertex 1106.82482808274 396.485768103881 549.692009272994
vertex 1107.35487132652 396.982243122072 549.692009272994
vertex 1107.56566473164 396.287261522085 549.692009272994
endloop
endfacet
facet normal 1.04816132809938e-14 2.70939711847253e-13 -1.0
outer loop
vertex 1107.56566473164 396.287261522085 549.692009272994
vertex 1107.35487132652 396.982243122072 549.692009272994
vertex 1108.56077610101 396.482741009549 549.692009272993
endloop
endfacet
facet normal 1.04816132809938e-14 2.70939711847253e-13 -1.0
outer loop
vertex 1107.56566473164 396.287261522085 549.692009272994
vertex 1108.56077610101 396.482741009549 549.692009272993
vertex 1108.26077610101 395.963125767278 549.692009272994
endloop
endfacet
facet normal 1.04816132809938e-14 2.70939711847253e-13 -1.0
outer loop
vertex 1108.26077610101 395.963125767278 549.692009272994
vertex 1108.56077610101 396.482741009549 549.692009272993
vertex 1108.88904158363 395.52320954035 549.692009272994
endloop
endfacet
facet normal 1.04816132809938e-14 2.70939711847253e-13 -1.0
outer loop
vertex 1108.88904158363 395.52320954035 549.692009272994
vertex 1108.56077610101 396.482741009549 549.692009272993
vertex 1109.59631000694 395.68814789656 549.692009272993
endloop
endfacet
facet normal 1.04816132809938e-14 2.70939711847253e-13 -1.0
outer loop
vertex 1108.88904158363 395.52320954035 549.692009272994
vertex 1109.59631000694 395.68814789656 549.692009272993
vertex 1109.43137165073 394.980879473248 549.692009272994
endloop
endfacet
facet normal 1.04816132809938e-14 2.70939711847253e-13 -1.0
outer loop
vertex 1109.43137165073 394.980879473248 549.692009272994
vertex 1109.59631000694 395.68814789656 549.692009272993
vertex 1109.87128787766 394.352613990627 549.692009272994
endloop
endfacet
facet normal 1.04816132809938e-14 2.70939711847253e-13 -1.0
outer loop
vertex 1109.87128787766 394.352613990627 549.692009272994
vertex 1109.59631000694 395.68814789656 549.692009272993
vertex 1110.39090311993 394.652613990627 549.692009272993
endloop
endfacet
facet normal 1.04816132809938e-14 2.70939711847253e-13 -1.0
outer loop
vertex 1109.87128787766 394.352613990627 549.692009272994
vertex 1110.39090311993 394.652613990627 549.692009272993
vertex 1110.19542363247 393.65750262126 549.692009272994
endloop
endfacet
facet normal 1.04816132809938e-14 2.70939711847253e-13 -1.0
outer loop
vertex 1110.19542363247 393.65750262126 549.692009272994
vertex 1110.39090311993 394.652613990627 549.692009272993
vertex 1110.39393021426 392.916665972361 549.692009272993
endloop
endfacet
facet normal 1.04816132809938e-14 2.70939711847253e-13 -1.0
outer loop
vertex 1110.39393021426 392.916665972361 549.692009272993
vertex 1110.39090311993 394.652613990627 549.692009272993
vertex 1110.89040523245 393.446709216139 549.692009272993
endloop
endfacet
facet normal 1.04816132809938e-14 2.70939711847253e-13 -1.0
outer loop
vertex 1110.39393021426 392.916665972361 549.692009272993
vertex 1110.89040523245 393.446709216139 549.692009272993
vertex 1110.46077610101 392.152613990627 549.692009272993
endloop
endfacet
facet normal 1.04816132809938e-14 2.70939711847253e-13 -1.0
outer loop
vertex 1101.66077610101 392.152613990627 549.692009272993
vertex 1101.73064908209 389.652613990627 549.692009272992
vertex 1101.23114696956 390.858518765114 549.692009272993
endloop
endfacet
facet normal 1.04816132809938e-14 2.70939711847253e-13 -1.0
outer loop
vertex 1101.73064908209 389.652613990627 549.692009272992
vertex 1101.66077610101 392.152613990627 549.692009272993
vertex 1101.72762198775 391.388562008892 549.692009272992
endloop
endfacet
facet normal 1.04816132809938e-14 2.70939711847253e-13 -1.0
outer loop
vertex 1101.73064908209 389.652613990627 549.692009272992
vertex 1101.72762198775 391.388562008892 549.692009272992
vertex 1101.92612856955 390.647725359994 549.692009272992
endloop
endfacet
facet normal 1.04816132809938e-14 2.70939711847253e-13 -1.0
outer loop
vertex 1101.73064908209 389.652613990627 549.692009272992
vertex 1101.92612856955 390.647725359994 549.692009272992
vertex 1102.52524219508 388.617080084694 549.692009272992
endloop
endfacet
facet normal 1.04816132809938e-14 2.70939711847253e-13 -1.0
outer loop
vertex 1102.52524219508 388.617080084694 549.692009272992
vertex 1101.92612856955 390.647725359994 549.692009272992
vertex 1102.25026432436 389.952613990627 549.692009272992
endloop
endfacet
facet normal 1.04816132809938e-14 2.70939711847253e-13 -1.0
outer loop
vertex 1102.52524219508 388.617080084694 549.692009272992
vertex 1102.25026432436 389.952613990627 549.692009272992
vertex 1102.69018055129 389.324348508006 549.692009272992
endloop
endfacet
facet normal 1.04816132809938e-14 2.70939711847253e-13 -1.0
outer loop
vertex 1102.52524219508 388.617080084694 549.692009272992
vertex 1102.69018055129 389.324348508006 549.692009272992
vertex 1103.56077610101 387.822486971705 549.692009272992
endloop
endfacet
facet normal 1.04816132809938e-14 2.70939711847253e-13 -1.0
outer loop
vertex 1103.56077610101 387.822486971705 549.692009272992
vertex 1102.69018055129 389.324348508006 549.692009272992
vertex 1103.23251061839 388.782018440903 549.692009272992
endloop
endfacet
facet normal 1.04816132809938e-14 2.70939711847253e-13 -1.0
outer loop
vertex 1103.56077610101 387.822486971705 549.692009272992
vertex 1103.23251061839 388.782018440903 549.692009272992
vertex 1103.86077610101 388.342102213975 549.692009272992
endloop
endfacet
facet normal 1.04816132809938e-14 2.70939711847253e-13 -1.0
outer loop
vertex 1103.56077610101 387.822486971705 549.692009272992
vertex 1103.86077610101 388.342102213975 549.692009272992
vertex 1104.7666808755 387.322984859181 549.692009272992
endloop
endfacet
facet normal 1.04816132809938e-14 2.70939711847253e-13 -1.0
outer loop
vertex 1104.7666808755 387.322984859181 549.692009272992
vertex 1103.86077610101 388.342102213975 549.692009272992
vertex 1104.55588747038 388.017966459169 549.692009272992
endloop
endfacet
facet normal 1.04816132809938e-14 2.70939711847253e-13 -1.0
outer loop
vertex 1104.7666808755 387.322984859181 549.692009272992
vertex 1104.55588747038 388.017966459169 549.692009272992
vertex 1105.29672411927 387.819459877373 549.692009272992
endloop
endfacet
facet normal 1.04816132809938e-14 2.70939711847253e-13 -1.0
outer loop
vertex 1104.7666808755 387.322984859181 549.692009272992
vertex 1105.29672411927 387.819459877373 549.692009272992
vertex 1106.06077610101 387.152613990627 549.692009272992
endloop
endfacet
facet normal 1.04816132809938e-14 2.70939711847253e-13 -1.0
outer loop
vertex 1106.06077610101 387.152613990627 549.692009272992
vertex 1105.29672411927 387.819459877373 549.692009272992
vertex 1106.06077610101 387.752613990627 549.692009272992
endloop
endfacet
facet normal 1.04816132809938e-14 2.70939711847253e-13 -1.0
outer loop
vertex 1106.06077610101 387.152613990627 549.692009272992
vertex 1106.06077610101 387.752613990627 549.692009272992
vertex 1106.82482808274 387.819459877373 549.692009272992
endloop
endfacet
facet normal 1.04816132809938e-14 2.70939711847253e-13 -1.0
outer loop
vertex 1106.06077610101 387.152613990627 549.692009272992
vertex 1106.82482808274 387.819459877373 549.692009272992
vertex 1107.35487132652 387.322984859181 549.692009272992
endloop
endfacet
facet normal 1.04816132809938e-14 2.70939711847253e-13 -1.0
outer loop
vertex 1107.35487132652 387.322984859181 549.692009272992
vertex 1106.82482808274 387.819459877373 549.692009272992
vertex 1107.56566473164 388.017966459169 549.692009272992
endloop
endfacet
facet normal 1.04816132809938e-14 2.70939711847253e-13 -1.0
outer loop
vertex 1107.35487132652 387.322984859181 549.692009272992
vertex 1107.56566473164 388.017966459169 549.692009272992
vertex 1108.56077610101 387.822486971705 549.692009272992
endloop
endfacet
facet normal 1.04816132809938e-14 2.70939711847253e-13 -1.0
outer loop
vertex 1108.56077610101 387.822486971705 549.692009272992
vertex 1107.56566473164 388.017966459169 549.692009272992
vertex 1108.26077610101 388.342102213975 549.692009272992
endloop
endfacet
facet normal 1.04816132809938e-14 2.70939711847253e-13 -1.0
outer loop
vertex 1108.56077610101 387.822486971705 549.692009272992
vertex 1108.26077610101 388.342102213975 549.692009272992
vertex 1108.88904158363 388.782018440903 549.692009272992
endloop
endfacet
facet normal 1.04816132809938e-14 2.70939711847253e-13 -1.0
outer loop
vertex 1108.56077610101 387.822486971705 549.692009272992
vertex 1108.88904158363 388.782018440903 549.692009272992
vertex 1109.59631000694 388.617080084694 549.692009272992
endloop
endfacet
facet normal 1.04816132809938e-14 2.70939711847253e-13 -1.0
outer loop
vertex 1109.59631000694 388.617080084694 549.692009272992
vertex 1108.88904158363 388.782018440903 549.692009272992
vertex 1109.43137165073 389.324348508006 549.692009272992
endloop
endfacet
facet normal 1.04816132809938e-14 2.70939711847253e-13 -1.0
outer loop
vertex 1109.59631000694 388.617080084694 549.692009272992
vertex 1109.43137165073 389.324348508006 549.692009272992
vertex 1109.87128787766 389.952613990627 549.692009272993
endloop
endfacet
facet normal 1.04816132809938e-14 2.70939711847253e-13 -1.0
outer loop
vertex 1109.59631000694 388.617080084694 549.692009272992
vertex 1109.87128787766 389.952613990627 549.692009272993
vertex 1110.39090311993 389.652613990627 549.692009272992
endloop
endfacet
facet normal 1.04816132809938e-14 2.70939711847253e-13 -1.0
outer loop
vertex 1110.39090311993 389.652613990627 549.692009272992
vertex 1109.87128787766 389.952613990627 549.692009272993
vertex 1110.19542363247 390.647725359994 549.692009272993
endloop
endfacet
facet normal 1.04816132809938e-14 2.70939711847253e-13 -1.0
outer loop
vertex 1110.39090311993 389.652613990627 549.692009272992
vertex 1110.19542363247 390.647725359994 549.692009272993
vertex 1110.39393021426 391.388562008892 549.692009272993
endloop
endfacet
facet normal 1.04816132809938e-14 2.70939711847253e-13 -1.0
outer loop
vertex 1110.39090311993 389.652613990627 549.692009272992
vertex 1110.39393021426 391.388562008892 549.692009272993
vertex 1110.89040523245 390.858518765114 549.692009272992
endloop
endfacet
facet normal 1.04816132809938e-14 2.70939711847253e-13 -1.0
outer loop
vertex 1110.89040523245 390.858518765114 549.692009272992
vertex 1110.39393021426 391.388562008892 549.692009272993
vertex 1110.46077610101 392.152613990627 549.692009272993
endloop
endfacet
facet normal 1.04816132809938e-14 2.70939711847253e-13 -1.0
outer loop
vertex 1110.89040523245 390.858518765114 549.692009272992
vertex 1110.46077610101 392.152613990627 549.692009272993
vertex 1110.89040523245 393.446709216139 549.692009272993
endloop
endfacet
facet normal 1.04816132809938e-14 2.70939711847253e-13 -1.0
outer loop
vertex 1110.89040523245 390.858518765114 549.692009272992
vertex 1110.89040523245 393.446709216139 549.692009272993
vertex 1111.06077610101 392.152613990627 549.692009272992
endloop
endfacet
facet normal -9.03586543418254e-15 -1.0 1.88065097060757e-14
outer loop
vertex 1106.06077610101 387.152613990627 561.046847982677
vertex 1104.7666808755 387.322984859181 549.692009272992
vertex 1106.06077610101 387.152613990627 549.692009272992
endloop
endfacet
facet normal -0.258819045102436 -0.965925826289091 1.97350888051436e-14
outer loop
vertex 1104.7666808755 387.322984859181 549.692009272992
vertex 1106.06077610101 387.152613990627 561.046847982677
vertex 1104.7666808755 387.322984859182 561.046847982679
endloop
endfacet
facet normal 0.258819045102522 -0.965925826289068 1.57792047556885e-14
outer loop
vertex 1107.35487132652 387.322984859182 561.046847982677
vertex 1106.06077610101 387.152613990627 549.692009272992
vertex 1107.35487132652 387.322984859181 549.692009272992
endloop
endfacet
facet normal 4.02247500689502e-14 -1.0 1.88065097060754e-14
outer loop
vertex 1106.06077610101 387.152613990627 549.692009272992
vertex 1107.35487132652 387.322984859182 561.046847982677
vertex 1106.06077610101 387.152613990627 561.046847982677
endloop
endfacet
facet normal 0.499999999999957 -0.866025403784464 1.23828171568527e-14
outer loop
vertex 1108.56077610101 387.822486971705 549.692009272992
vertex 1107.35487132652 387.322984859182 561.046847982677
vertex 1107.35487132652 387.322984859181 549.692009272992
endloop
endfacet
facet normal 0.258819045102522 -0.965925826289068 1.57792047556885e-14
outer loop
vertex 1107.35487132652 387.322984859182 561.046847982677
vertex 1108.56077610101 387.822486971705 549.692009272992
vertex 1108.56077610101 387.822486971705 561.046847982677
endloop
endfacet
facet normal 0.707106781186485 -0.707106781186611 9.31085132605809e-15
outer loop
vertex 1109.59631000694 388.617080084694 549.692009272992
vertex 1108.56077610101 387.822486971705 561.046847982677
vertex 1108.56077610101 387.822486971705 549.692009272992
endloop
endfacet
facet normal 0.499999999999948 -0.866025403784469 1.23828171568528e-14
outer loop
vertex 1108.56077610101 387.822486971705 561.046847982677
vertex 1109.59631000694 388.617080084694 549.692009272992
vertex 1109.59631000694 388.617080084694 561.046847982677
endloop
endfacet
facet normal 0.707106781186485 -0.707106781186611 9.31085132605809e-15
outer loop
vertex 1109.59631000694 388.617080084694 549.692009272992
vertex 1110.39090311993 389.652613990626 561.046847982678
vertex 1109.59631000694 388.617080084694 561.046847982677
endloop
endfacet
facet normal 0.866025403784401 -0.500000000000066 4.27901541832133e-15
outer loop
vertex 1110.39090311993 389.652613990626 561.046847982678
vertex 1109.59631000694 388.617080084694 549.692009272992
vertex 1110.39090311993 389.652613990627 549.692009272992
endloop
endfacet
facet normal 0.866025403784381 -0.5000000000001 4.27901541832233e-15
outer loop
vertex 1110.39090311993 389.652613990627 549.692009272992
vertex 1110.89040523245 390.858518765113 561.046847982678
vertex 1110.39090311993 389.652613990626 561.046847982678
endloop
endfacet
facet normal 0.965925826289018 -0.25881904510271 -1.41677181680827e-15
outer loop
vertex 1110.89040523245 390.858518765113 561.046847982678
vertex 1110.39090311993 389.652613990627 549.692009272992
vertex 1110.89040523245 390.858518765114 549.692009272992
endloop
endfacet
facet normal 0.965925826289031 -0.25881904510266 -1.41677181680921e-15
outer loop
vertex 1110.89040523245 390.858518765114 549.692009272992
vertex 1111.06077610101 392.152613990626 561.046847982677
vertex 1110.89040523245 390.858518765113 561.046847982678
endloop
endfacet
facet normal 1.0 -2.12761659868418e-13 -5.63849422562272e-15
outer loop
vertex 1111.06077610101 392.152613990626 561.046847982677
vertex 1110.89040523245 390.858518765114 549.692009272992
vertex 1111.06077610101 392.152613990627 549.692009272992
endloop
endfacet
facet normal 1.0 -1.51212623819233e-13 -5.63849422562359e-15
outer loop
vertex 1111.06077610101 392.152613990627 549.692009272992
vertex 1110.89040523245 393.446709216138 561.046847982676
vertex 1111.06077610101 392.152613990626 561.046847982677
endloop
endfacet
facet normal 0.965925826289104 0.258819045102386 -9.83169340954241e-15
outer loop
vertex 1110.89040523245 393.446709216138 561.046847982676
vertex 1111.06077610101 392.152613990627 549.692009272992
vertex 1110.89040523245 393.446709216139 549.692009272993
endloop
endfacet
facet normal 0.96592582628911 0.258819045102367 -9.83169340954206e-15
outer loop
vertex 1110.89040523245 393.446709216139 549.692009272993
vertex 1110.39090311993 394.652613990626 561.046847982677
vertex 1110.89040523245 393.446709216138 561.046847982676
endloop
endfacet
facet normal 0.866025403784511 0.499999999999876 -1.48387276219316e-14
outer loop
vertex 1110.39090311993 394.652613990626 561.046847982677
vertex 1110.89040523245 393.446709216139 549.692009272993
vertex 1110.39090311993 394.652613990627 549.692009272993
endloop
endfacet
facet normal 0.866025403784522 0.499999999999856 -1.48387276219311e-14
outer loop
vertex 1110.39090311993 394.652613990627 549.692009272993
vertex 1109.59631000694 395.688147896559 561.046847982677
vertex 1110.39090311993 394.652613990626 561.046847982677
endloop
endfacet
facet normal 0.707106781186668 0.707106781186427 -1.86909055789536e-14
outer loop
vertex 1109.59631000694 395.688147896559 561.046847982677
vertex 1110.39090311993 394.652613990627 549.692009272993
vertex 1109.59631000694 395.68814789656 549.692009272993
endloop
endfacet
facet normal 0.500000000000094 0.866025403784384 -2.067146641983e-14
outer loop
vertex 1108.56077610101 396.482741009549 549.692009272993
vertex 1109.59631000694 395.688147896559 561.046847982677
vertex 1109.59631000694 395.68814789656 549.692009272993
endloop
endfacet
facet normal 0.707106781186668 0.707106781186427 -1.86909055789536e-14
outer loop
vertex 1109.59631000694 395.688147896559 561.046847982677
vertex 1108.56077610101 396.482741009549 549.692009272993
vertex 1108.56077610101 396.482741009549 561.046847982676
endloop
endfacet
facet normal 0.258819045102585 0.965925826289051 -2.03983451498864e-14
outer loop
vertex 1107.35487132652 396.982243122072 549.692009272994
vertex 1108.56077610101 396.482741009549 561.046847982676
vertex 1108.56077610101 396.482741009549 549.692009272993
endloop
endfacet
facet normal 0.500000000000118 0.866025403784371 -2.06714664198298e-14
outer loop
vertex 1108.56077610101 396.482741009549 561.046847982676
vertex 1107.35487132652 396.982243122072 549.692009272994
vertex 1107.35487132652 396.982243122072 561.046847982676
endloop
endfacet
facet normal 2.62075742030964e-14 1.0 -1.83357801137012e-14
outer loop
vertex 1106.06077610101 397.152613990627 549.692009272994
vertex 1107.35487132652 396.982243122072 561.046847982676
vertex 1107.35487132652 396.982243122072 549.692009272994
endloop
endfacet
facet normal 0.258819045102623 0.965925826289041 -2.03983451498868e-14
outer loop
vertex 1107.35487132652 396.982243122072 561.046847982676
vertex 1106.06077610101 397.152613990627 549.692009272994
vertex 1106.06077610101 397.152613990627 561.046847982675
endloop
endfacet
facet normal -0.258819045102551 0.96592582628906 -1.60193187337082e-14
outer loop
vertex 1104.7666808755 396.982243122073 561.046847982675
vertex 1106.06077610101 397.152613990627 549.692009272994
vertex 1104.7666808755 396.982243122072 549.692009272994
endloop
endfacet
facet normal 2.62075742030964e-14 1.0 -1.83357801137012e-14
outer loop
vertex 1106.06077610101 397.152613990627 549.692009272994
vertex 1104.7666808755 396.982243122073 561.046847982675
vertex 1106.06077610101 397.152613990627 561.046847982675
endloop
endfacet
facet normal -0.50000000000004 0.866025403784416 -1.32582315439849e-14
outer loop
vertex 1103.56077610101 396.482741009549 561.046847982675
vertex 1104.7666808755 396.982243122072 549.692009272994
vertex 1103.56077610101 396.482741009549 549.692009272994
endloop
endfacet
facet normal -0.258819045102545 0.965925826289062 -1.60193187337083e-14
outer loop
vertex 1104.7666808755 396.982243122072 549.692009272994
vertex 1103.56077610101 396.482741009549 561.046847982675
vertex 1104.7666808755 396.982243122073 561.046847982675
endloop
endfacet
facet normal -0.707106781186629 0.707106781186466 -8.51781323808527e-15
outer loop
vertex 1102.52524219508 395.688147896559 561.046847982675
vertex 1103.56077610101 396.482741009549 549.692009272994
vertex 1102.52524219508 395.68814789656 549.692009272994
endloop
endfacet
facet normal -0.500000000000027 0.866025403784423 -1.3258231543985e-14
outer loop
vertex 1103.56077610101 396.482741009549 549.692009272994
vertex 1102.52524219508 395.688147896559 561.046847982675
vertex 1103.56077610101 396.482741009549 561.046847982675
endloop
endfacet
facet normal -0.707106781186629 0.707106781186466 -8.51781323808527e-15
outer loop
vertex 1102.52524219508 395.688147896559 561.046847982675
vertex 1101.73064908209 394.652613990627 549.692009272993
vertex 1101.73064908209 394.652613990626 561.046847982676
endloop
endfacet
facet normal -0.866025403784504 0.499999999999887 -1.90913666024724e-15
outer loop
vertex 1101.73064908209 394.652613990627 549.692009272993
vertex 1102.52524219508 395.688147896559 561.046847982675
vertex 1102.52524219508 395.68814789656 549.692009272994
endloop
endfacet
facet normal -0.866025403784528 0.499999999999845 -1.90913666024602e-15
outer loop
vertex 1101.73064908209 394.652613990626 561.046847982676
vertex 1101.23114696956 393.446709216139 549.692009272993
vertex 1101.23114696956 393.446709216139 561.046847982677
endloop
endfacet
facet normal -0.965925826289102 0.258819045102396 2.8286370695587e-15
outer loop
vertex 1101.23114696956 393.446709216139 549.692009272993
vertex 1101.73064908209 394.652613990626 561.046847982676
vertex 1101.73064908209 394.652613990627 549.692009272993
endloop
endfacet
facet normal -0.965925826289111 0.258819045102361 2.8286370695591e-15
outer loop
vertex 1101.23114696956 393.446709216139 561.046847982677
vertex 1101.06077610101 392.152613990627 549.692009272993
vertex 1101.06077610101 392.152613990626 561.046847982677
endloop
endfacet
facet normal -1.0 -1.52353245885875e-13 5.76942426495524e-15
outer loop
vertex 1101.06077610101 392.152613990627 549.692009272993
vertex 1101.23114696956 393.446709216139 561.046847982677
vertex 1101.23114696956 393.446709216139 549.692009272993
endloop
endfacet
facet normal -1.0 -1.79790553254557e-13 5.76942426495555e-15
outer loop
vertex 1101.06077610101 392.152613990626 561.046847982677
vertex 1101.23114696956 390.858518765114 549.692009272993
vertex 1101.23114696956 390.858518765113 561.046847982677
endloop
endfacet
facet normal -0.965925826289026 -0.25881904510268 8.93454862693599e-15
outer loop
vertex 1101.23114696956 390.858518765114 549.692009272993
vertex 1101.06077610101 392.152613990626 561.046847982677
vertex 1101.06077610101 392.152613990627 549.692009272993
endloop
endfacet
facet normal -0.96592582628903 -0.258819045102664 8.93454862693577e-15
outer loop
vertex 1101.23114696956 390.858518765113 561.046847982677
vertex 1101.73064908209 389.652613990627 549.692009272992
vertex 1101.73064908209 389.652613990626 561.046847982677
endloop
endfacet
facet normal -0.866025403784354 -0.500000000000147 1.38320582441112e-14
outer loop
vertex 1101.73064908209 389.652613990627 549.692009272992
vertex 1101.23114696956 390.858518765113 561.046847982677
vertex 1101.23114696956 390.858518765114 549.692009272993
endloop
endfacet
facet normal -0.866025403784366 -0.500000000000126 1.38320582441106e-14
outer loop
vertex 1101.73064908209 389.652613990626 561.046847982677
vertex 1102.52524219508 388.617080084694 549.692009272992
vertex 1102.52524219508 388.617080084694 561.046847982677
endloop
endfacet
facet normal -0.707106781186456 -0.707106781186639 1.80801836052508e-14
outer loop
vertex 1102.52524219508 388.617080084694 549.692009272992
vertex 1101.73064908209 389.652613990626 561.046847982677
vertex 1101.73064908209 389.652613990627 549.692009272992
endloop
endfacet
facet normal -0.499999999999863 -0.866025403784518 1.93756780566519e-14
outer loop
vertex 1103.56077610101 387.822486971705 561.046847982678
vertex 1102.52524219508 388.617080084694 549.692009272992
vertex 1103.56077610101 387.822486971705 549.692009272992
endloop
endfacet
facet normal -0.707106781186456 -0.707106781186639 1.80801836052508e-14
outer loop
vertex 1102.52524219508 388.617080084694 549.692009272992
vertex 1103.56077610101 387.822486971705 561.046847982678
vertex 1102.52524219508 388.617080084694 561.046847982677
endloop
endfacet
facet normal -0.258819045102482 -0.965925826289079 1.97350888051436e-14
outer loop
vertex 1104.7666808755 387.322984859182 561.046847982679
vertex 1103.56077610101 387.822486971705 549.692009272992
vertex 1104.7666808755 387.322984859181 549.692009272992
endloop
endfacet
facet normal -0.499999999999902 -0.866025403784496 1.93756780566518e-14
outer loop
vertex 1103.56077610101 387.822486971705 549.692009272992
vertex 1104.7666808755 387.322984859182 561.046847982679
vertex 1103.56077610101 387.822486971705 561.046847982678
endloop
endfacet
endsolid Development Mockup
