solid Development Mockup rev2
facet normal -1.0 -2.6600889803658265e-16 -7.46700094556911e-14
  outer loop
    vertex -327.23930223061745 47.8161851922149 76.59999999999964
    vertex -327.23930223061745 42.81618519221495 74.59999999999964
    vertex -327.23930223061745 42.81618519221495 76.59999999999964
  endloop
endfacet
facet normal -1.0 -2.6600889803658265e-16 -7.46700094556911e-14
  outer loop
    vertex -327.23930223061745 42.81618519221495 74.59999999999964
    vertex -327.23930223061745 47.8161851922149 76.59999999999964
    vertex -327.239302230617 47.8161851922149 74.99999999999919
  endloop
endfacet
facet normal -1.0 -2.6600889803658265e-16 -7.46700094556911e-14
  outer loop
    vertex -327.23930223061745 42.81618519221495 74.59999999999964
    vertex -327.239302230617 47.8161851922149 74.99999999999919
    vertex -327.23930223061745 189.49395451489457 74.59999999999964
  endloop
endfacet
facet normal -1.0 -2.6600889803658265e-16 -7.46700094556911e-14
  outer loop
    vertex -327.23930223061745 189.49395451489457 74.59999999999964
    vertex -327.239302230617 47.8161851922149 74.99999999999919
    vertex -327.23930223061717 189.49395451489457 75.00000000000108
  endloop
endfacet
facet normal 4.151282492362738e-15 2.1020491066145146e-14 1.0
  outer loop
    vertex -309.73930223061785 42.816185192215045 76.59999999999964
    vertex -327.23930223061745 47.8161851922149 76.59999999999964
    vertex -327.23930223061745 42.81618519221495 76.59999999999964
  endloop
endfacet
facet normal 4.151282492362738e-15 2.1020491066145146e-14 1.0
  outer loop
    vertex -327.23930223061745 47.8161851922149 76.59999999999964
    vertex -309.73930223061785 42.816185192215045 76.59999999999964
    vertex -309.73930223061785 47.816185192214995 76.59999999999945
  endloop
endfacet
facet normal 0.608761429008618 -0.7933533402913141 -2.1036194950382516e-13
  outer loop
    vertex -319.3393022306174 173.46800028096334 75.00000000000018
    vertex -319.69138375863486 173.197838622547 74.59999999999641
    vertex -319.3393022306177 173.46800028096337 74.59999999999623
  endloop
endfacet
facet normal 0.608761429008618 -0.7933533402913141 -2.1036194950382516e-13
  outer loop
    vertex -319.69138375863486 173.197838622547 74.59999999999641
    vertex -319.3393022306174 173.46800028096334 75.00000000000018
    vertex -319.6913837586346 173.19783862254698 75.00000000000036
  endloop
endfacet
facet normal 0.3826834323650252 0.9238795325113135 -6.3216526250084235e-15
  outer loop
    vertex -319.33930223061725 170.5235139080958 75.0
    vertex -318.92929460729175 170.35368318983797 74.59999999999604
    vertex -319.33930223061753 170.52351390809582 74.59999999999604
  endloop
endfacet
facet normal 0.3826834323650252 0.9238795325113135 -6.3216526250084235e-15
  outer loop
    vertex -318.92929460729175 170.35368318983797 74.59999999999604
    vertex -319.33930223061725 170.5235139080958 75.0
    vertex -318.9292946072915 170.35368318983794 75.0
  endloop
endfacet
facet normal -0.1305261922199215 0.9914448613738277 1.1780272032848726e-13
  outer loop
    vertex -318.48930223061757 170.29575709452945 74.59999999999596
    vertex -318.049309853943 170.35368318983794 74.99999999999982
    vertex -318.0493098539432 170.35368318983797 74.59999999999587
  endloop
endfacet
facet normal -0.1305261922199215 0.9914448613738277 1.1780272032848726e-13
  outer loop
    vertex -318.049309853943 170.35368318983794 74.99999999999982
    vertex -318.48930223061757 170.29575709452945 74.59999999999596
    vertex -318.4893022306173 170.29575709452942 74.99999999999991
  endloop
endfacet
facet normal -0.608761429008746 0.793353340291216 2.1036194950384596e-13
  outer loop
    vertex -317.6393022306173 170.5235139080958 74.99999999999973
    vertex -317.2872207026004 170.79367556651226 74.59999999999577
    vertex -317.63930223061755 170.52351390809582 74.59999999999577
  endloop
endfacet
facet normal -0.608761429008746 0.793353340291216 2.1036194950384596e-13
  outer loop
    vertex -317.2872207026004 170.79367556651226 74.59999999999577
    vertex -317.6393022306173 170.5235139080958 74.99999999999973
    vertex -317.28722070260017 170.79367556651226 74.99999999999973
  endloop
endfacet
facet normal 0.3826834323650972 -0.9238795325112839 -1.69870532964791e-13
  outer loop
    vertex -318.92929460729175 173.6378309992212 75.00000000000018
    vertex -319.3393022306177 173.46800028096337 74.59999999999623
    vertex -318.92929460729204 173.63783099922122 74.59999999999623
  endloop
endfacet
facet normal 0.3826834323650972 -0.9238795325112839 -1.69870532964791e-13
  outer loop
    vertex -319.3393022306177 173.46800028096337 74.59999999999623
    vertex -318.92929460729175 173.6378309992212 75.00000000000018
    vertex -319.3393022306174 173.46800028096334 75.00000000000018
  endloop
endfacet
facet normal -0.9238795325112839 -0.3826834323650972 1.7881069984371098e-13
  outer loop
    vertex -317.01705904418367 172.84575709452938 74.99999999999982
    vertex -316.8472283259261 172.4357494712037 74.5999999999955
    vertex -316.8472283259258 172.4357494712037 74.99999999999946
  endloop
endfacet
facet normal -0.9238795325112839 -0.3826834323650972 1.7881069984371098e-13
  outer loop
    vertex -316.8472283259261 172.4357494712037 74.5999999999955
    vertex -317.01705904418367 172.84575709452938 74.99999999999982
    vertex -317.01705904418395 172.8457570945294 74.59999999999587
  endloop
endfacet
facet normal 0.9238795325112839 0.3826834323650972 -1.7881069984371098e-13
  outer loop
    vertex -319.96154541705107 171.14575709452942 74.59999999999614
    vertex -320.13137613530864 171.55576471785508 75.00000000000054
    vertex -319.9615454170508 171.14575709452942 75.00000000000009
  endloop
endfacet
facet normal 0.9238795325112839 0.3826834323650972 -1.7881069984371098e-13
  outer loop
    vertex -320.13137613530864 171.55576471785508 75.00000000000054
    vertex -319.96154541705107 171.14575709452942 74.59999999999614
    vertex -320.1313761353089 171.5557647178551 74.5999999999966
  endloop
endfacet
facet normal -0.3826834323650252 -0.9238795325113135 6.3216526250084235e-15
  outer loop
    vertex -317.6393022306175 173.46800028096334 75.00000000000009
    vertex -318.0493098539435 173.63783099922122 74.59999999999614
    vertex -317.6393022306177 173.46800028096337 74.59999999999614
  endloop
endfacet
facet normal -0.3826834323650252 -0.9238795325113135 6.3216526250084235e-15
  outer loop
    vertex -318.0493098539435 173.63783099922122 74.59999999999614
    vertex -317.6393022306175 173.46800028096334 75.00000000000009
    vertex -318.0493098539432 173.6378309992212 75.00000000000009
  endloop
endfacet
facet normal 0.9914448613738014 -0.13052619222012138 -2.3978987501552787e-13
  outer loop
    vertex -320.1893022306175 171.9957570945294 74.5999999999966
    vertex -320.13137613530864 172.4357494712037 75.00000000000054
    vertex -320.1893022306173 171.99575709452938 75.00000000000054
  endloop
endfacet
facet normal 0.9914448613738014 -0.13052619222012138 -2.3978987501552787e-13
  outer loop
    vertex -320.13137613530864 172.4357494712037 75.00000000000054
    vertex -320.1893022306175 171.9957570945294 74.5999999999966
    vertex -320.1313761353089 172.4357494712037 74.5999999999966
  endloop
endfacet
facet normal 0.9914448613738014 0.13052619222012138 -2.1668360212885922e-13
  outer loop
    vertex -320.1313761353089 171.5557647178551 74.5999999999966
    vertex -320.1893022306173 171.99575709452938 75.00000000000054
    vertex -320.13137613530864 171.55576471785508 75.00000000000054
  endloop
endfacet
facet normal 0.9914448613738014 0.13052619222012138 -2.1668360212885922e-13
  outer loop
    vertex -320.1893022306173 171.99575709452938 75.00000000000054
    vertex -320.1313761353089 171.5557647178551 74.5999999999966
    vertex -320.1893022306175 171.9957570945294 74.5999999999966
  endloop
endfacet
facet normal -0.793353340291216 0.608761429008746 2.365175468237636e-13
  outer loop
    vertex -317.01705904418367 171.14575709452942 74.99999999999963
    vertex -317.2872207026004 170.79367556651226 74.59999999999577
    vertex -317.28722070260017 170.79367556651226 74.99999999999973
  endloop
endfacet
facet normal -0.793353340291216 0.608761429008746 2.365175468237636e-13
  outer loop
    vertex -317.2872207026004 170.79367556651226 74.59999999999577
    vertex -317.01705904418367 171.14575709452942 74.99999999999963
    vertex -317.01705904418395 171.14575709452942 74.59999999999569
  endloop
endfacet
facet normal -0.9914448613738014 -0.13052619222012138 2.1668360212885922e-13
  outer loop
    vertex -316.8472283259258 172.4357494712037 74.99999999999946
    vertex -316.78930223061747 171.9957570945294 74.5999999999956
    vertex -316.78930223061724 171.99575709452938 74.99999999999955
  endloop
endfacet
facet normal -0.9914448613738014 -0.13052619222012138 2.1668360212885922e-13
  outer loop
    vertex -316.78930223061747 171.9957570945294 74.5999999999956
    vertex -316.8472283259258 172.4357494712037 74.99999999999946
    vertex -316.8472283259261 172.4357494712037 74.5999999999955
  endloop
endfacet
facet normal -0.13052619222014766 -0.9914448613737977 -5.770684698003028e-14
  outer loop
    vertex -318.0493098539432 173.6378309992212 75.00000000000009
    vertex -318.48930223061774 173.69575709452982 74.59999999999623
    vertex -318.0493098539435 173.63783099922122 74.59999999999614
  endloop
endfacet
facet normal -0.13052619222014766 -0.9914448613737977 -5.770684698003028e-14
  outer loop
    vertex -318.48930223061774 173.69575709452982 74.59999999999623
    vertex -318.0493098539432 173.6378309992212 75.00000000000009
    vertex -318.48930223061745 173.69575709452982 75.00000000000018
  endloop
endfacet
facet normal 0.1305261922199478 0.9914448613738241 5.770684698007862e-14
  outer loop
    vertex -318.92929460729175 170.35368318983797 74.59999999999604
    vertex -318.4893022306173 170.29575709452942 74.99999999999991
    vertex -318.48930223061757 170.29575709452945 74.59999999999596
  endloop
endfacet
facet normal 0.1305261922199478 0.9914448613738241 5.770684698007862e-14
  outer loop
    vertex -318.4893022306173 170.29575709452942 74.99999999999991
    vertex -318.92929460729175 170.35368318983797 74.59999999999604
    vertex -318.9292946072915 170.35368318983794 75.0
  endloop
endfacet
facet normal 0.9238795325112839 -0.3826834323650972 -2.4655486419137693e-13
  outer loop
    vertex -320.1313761353089 172.4357494712037 74.5999999999966
    vertex -319.9615454170508 172.84575709452938 75.00000000000045
    vertex -320.13137613530864 172.4357494712037 75.00000000000054
  endloop
endfacet
facet normal 0.9238795325112839 -0.3826834323650972 -2.4655486419137693e-13
  outer loop
    vertex -319.9615454170508 172.84575709452938 75.00000000000045
    vertex -320.1313761353089 172.4357494712037 74.5999999999966
    vertex -319.96154541705107 172.8457570945294 74.5999999999965
  endloop
endfacet
facet normal -0.3826834323650972 0.9238795325112839 1.69870532964791e-13
  outer loop
    vertex -318.0493098539432 170.35368318983797 74.59999999999587
    vertex -317.6393022306173 170.5235139080958 74.99999999999973
    vertex -317.63930223061755 170.52351390809582 74.59999999999577
  endloop
endfacet
facet normal -0.3826834323650972 0.9238795325112839 1.69870532964791e-13
  outer loop
    vertex -317.6393022306173 170.5235139080958 74.99999999999973
    vertex -318.0493098539432 170.35368318983797 74.59999999999587
    vertex -318.049309853943 170.35368318983794 74.99999999999982
  endloop
endfacet
facet normal -0.7933533402913963 -0.6087614290085109 1.2875214386291693e-13
  outer loop
    vertex -317.28722070260034 173.19783862254698 75.0
    vertex -317.01705904418395 172.8457570945294 74.59999999999587
    vertex -317.01705904418367 172.84575709452938 74.99999999999982
  endloop
endfacet
facet normal -0.7933533402913963 -0.6087614290085109 1.2875214386291693e-13
  outer loop
    vertex -317.01705904418395 172.8457570945294 74.59999999999587
    vertex -317.28722070260034 173.19783862254698 75.0
    vertex -317.28722070260056 173.197838622547 74.59999999999604
  endloop
endfacet
facet normal -0.9914448613738014 0.13052619222012138 2.3978987501552787e-13
  outer loop
    vertex -316.78930223061724 171.99575709452938 74.99999999999955
    vertex -316.8472283259261 171.5557647178551 74.5999999999956
    vertex -316.8472283259258 171.55576471785508 74.99999999999955
  endloop
endfacet
facet normal -0.9914448613738014 0.13052619222012138 2.3978987501552787e-13
  outer loop
    vertex -316.8472283259261 171.5557647178551 74.5999999999956
    vertex -316.78930223061724 171.99575709452938 74.99999999999955
    vertex -316.78930223061747 171.9957570945294 74.5999999999956
  endloop
endfacet
facet normal -0.9238795325112839 0.3826834323650972 2.4655486419137693e-13
  outer loop
    vertex -316.8472283259258 171.55576471785508 74.99999999999955
    vertex -317.01705904418395 171.14575709452942 74.59999999999569
    vertex -317.01705904418367 171.14575709452942 74.99999999999963
  endloop
endfacet
facet normal -0.9238795325112839 0.3826834323650972 2.4655486419137693e-13
  outer loop
    vertex -317.01705904418395 171.14575709452942 74.59999999999569
    vertex -316.8472283259258 171.55576471785508 74.99999999999955
    vertex -316.8472283259261 171.5557647178551 74.5999999999956
  endloop
endfacet
facet normal 0.608761429008746 0.793353340291216 -6.991934205074177e-14
  outer loop
    vertex -319.6913837586347 170.79367556651226 74.59999999999614
    vertex -319.33930223061725 170.5235139080958 75.0
    vertex -319.33930223061753 170.52351390809582 74.59999999999604
  endloop
endfacet
facet normal 0.608761429008746 0.793353340291216 -6.991934205074177e-14
  outer loop
    vertex -319.33930223061725 170.5235139080958 75.0
    vertex -319.6913837586347 170.79367556651226 74.59999999999614
    vertex -319.6913837586344 170.79367556651226 75.00000000000009
  endloop
endfacet
facet normal 0.7933533402913141 0.608761429008618 -1.287521438628885e-13
  outer loop
    vertex -319.6913837586347 170.79367556651226 74.59999999999614
    vertex -319.9615454170508 171.14575709452942 75.00000000000009
    vertex -319.6913837586344 170.79367556651226 75.00000000000009
  endloop
endfacet
facet normal 0.7933533402913141 0.608761429008618 -1.287521438628885e-13
  outer loop
    vertex -319.9615454170508 171.14575709452942 75.00000000000009
    vertex -319.6913837586347 170.79367556651226 74.59999999999614
    vertex -319.96154541705107 171.14575709452942 74.59999999999614
  endloop
endfacet
facet normal -0.608761429008618 -0.7933533402913141 6.99193420507036e-14
  outer loop
    vertex -317.28722070260034 173.19783862254698 75.0
    vertex -317.6393022306177 173.46800028096337 74.59999999999614
    vertex -317.28722070260056 173.197838622547 74.59999999999604
  endloop
endfacet
facet normal -0.608761429008618 -0.7933533402913141 6.99193420507036e-14
  outer loop
    vertex -317.6393022306177 173.46800028096337 74.59999999999614
    vertex -317.28722070260034 173.19783862254698 75.0
    vertex -317.6393022306175 173.46800028096334 75.00000000000009
  endloop
endfacet
facet normal 0.7933533402918872 -0.6087614290078709 -2.3651754682384065e-13
  outer loop
    vertex -319.96154541705107 172.8457570945294 74.5999999999965
    vertex -319.6913837586346 173.19783862254698 75.00000000000036
    vertex -319.9615454170508 172.84575709452938 75.00000000000045
  endloop
endfacet
facet normal 0.7933533402918872 -0.6087614290078709 -2.3651754682384065e-13
  outer loop
    vertex -319.6913837586346 173.19783862254698 75.00000000000036
    vertex -319.96154541705107 172.8457570945294 74.5999999999965
    vertex -319.69138375863486 173.197838622547 74.59999999999641
  endloop
endfacet
facet normal 0.13052619222012138 -0.9914448613738014 -1.1780272032853093e-13
  outer loop
    vertex -318.48930223061745 173.69575709452982 75.00000000000018
    vertex -318.92929460729204 173.63783099922122 74.59999999999623
    vertex -318.48930223061774 173.69575709452982 74.59999999999623
  endloop
endfacet
facet normal 0.13052619222012138 -0.9914448613738014 -1.1780272032853093e-13
  outer loop
    vertex -318.92929460729204 173.63783099922122 74.59999999999623
    vertex -318.48930223061745 173.69575709452982 75.00000000000018
    vertex -318.92929460729175 173.6378309992212 75.00000000000018
  endloop
endfacet
facet normal -4.989976685822529e-15 1.0 5.675191635310965e-15
  outer loop
    vertex -327.23930223061745 47.8161851922149 76.59999999999964
    vertex -309.73930223061757 47.816185192214995 74.99999999999928
    vertex -327.239302230617 47.8161851922149 74.99999999999919
  endloop
endfacet
facet normal -4.989976685822529e-15 1.0 5.675191635310965e-15
  outer loop
    vertex -309.73930223061757 47.816185192214995 74.99999999999928
    vertex -327.23930223061745 47.8161851922149 76.59999999999964
    vertex -309.73930223061785 47.816185192214995 76.59999999999945
  endloop
endfacet
facet normal -0.6087614290087038 -0.7933533402912482 -4.22323315910215e-14
  outer loop
    vertex -317.2165100244814 54.931467218949166 75.0
    vertex -317.5893022306172 55.21752073962539 74.59999999999253
    vertex -317.2165100244814 54.931467218949194 74.59999999999253
  endloop
endfacet
facet normal -0.6087614290087038 -0.7933533402912482 -4.22323315910215e-14
  outer loop
    vertex -317.5893022306172 55.21752073962539 74.59999999999253
    vertex -317.2165100244814 54.931467218949166 75.0
    vertex -317.5893022306172 55.21752073962536 75.0
  endloop
endfacet
facet normal 0.9238795325113124 -0.38268343236502805 -1.8147459448552474e-14
  outer loop
    vertex -320.2279687179376 54.12454929399791 74.59999999999235
    vertex -320.0481479574293 54.55867501281329 74.99999999999991
    vertex -320.2279687179376 54.12454929399787 74.99999999999982
  endloop
endfacet
facet normal 0.9238795325113124 -0.38268343236502805 -1.8147459448552474e-14
  outer loop
    vertex -320.0481479574293 54.55867501281329 74.99999999999991
    vertex -320.2279687179376 54.12454929399791 74.59999999999235
    vertex -320.0481479574293 54.558675012813325 74.59999999999243
  endloop
endfacet
facet normal 0.6087614290087038 0.7933533402912482 4.22323315910215e-14
  outer loop
    vertex -319.76209443675305 52.38588280667746 75.00000000000009
    vertex -319.38930223061726 52.0998292860013 74.59999999999262
    vertex -319.76209443675305 52.38588280667749 74.59999999999262
  endloop
endfacet
facet normal 0.6087614290087038 0.7933533402912482 4.22323315910215e-14
  outer loop
    vertex -319.38930223061726 52.0998292860013 74.59999999999262
    vertex -319.76209443675305 52.38588280667746 75.00000000000009
    vertex -319.38930223061726 52.09982928600127 75.00000000000009
  endloop
endfacet
facet normal -0.13052619222013245 0.9914448613737997 5.1149334981615295e-14
  outer loop
    vertex -318.4893022306173 51.85867501281327 74.99999999999963
    vertex -318.02342794943274 51.920008525493024 74.59999999999216
    vertex -318.4893022306173 51.8586750128133 74.59999999999216
  endloop
endfacet
facet normal -0.13052619222013245 0.9914448613737997 5.1149334981615295e-14
  outer loop
    vertex -318.02342794943274 51.920008525493024 74.59999999999216
    vertex -318.4893022306173 51.85867501281327 74.99999999999963
    vertex -318.02342794943274 51.92000852549299 74.99999999999963
  endloop
endfacet
facet normal -0.7933533402913193 0.608761429008611 3.010375164633923e-14
  outer loop
    vertex -316.93045650380526 52.758675012813335 74.99999999999963
    vertex -317.2165100244814 52.38588280667749 74.59999999999216
    vertex -317.2165100244814 52.38588280667746 74.99999999999963
  endloop
endfacet
facet normal -0.7933533402913193 0.608761429008611 3.010375164633923e-14
  outer loop
    vertex -317.2165100244814 52.38588280667749 74.59999999999216
    vertex -316.93045650380526 52.758675012813335 74.99999999999963
    vertex -316.93045650380526 52.75867501281337 74.59999999999216
  endloop
endfacet
facet normal -0.6087614290087038 0.7933533402912482 4.0008522918238504e-14
  outer loop
    vertex -317.5893022306172 52.09982928600127 74.99999999999963
    vertex -317.2165100244814 52.38588280667749 74.59999999999216
    vertex -317.5893022306172 52.0998292860013 74.59999999999216
  endloop
endfacet
facet normal -0.6087614290087038 0.7933533402912482 4.0008522918238504e-14
  outer loop
    vertex -317.2165100244814 52.38588280667749 74.59999999999216
    vertex -317.5893022306172 52.09982928600127 74.99999999999963
    vertex -317.2165100244814 52.38588280667746 74.99999999999963
  endloop
endfacet
facet normal 0.13052619222013245 0.9914448613737997 5.162614784204426e-14
  outer loop
    vertex -318.9551765118018 51.92000852549299 74.99999999999963
    vertex -318.4893022306173 51.8586750128133 74.59999999999216
    vertex -318.9551765118018 51.920008525493024 74.59999999999216
  endloop
endfacet
facet normal 0.13052619222013245 0.9914448613737997 5.162614784204426e-14
  outer loop
    vertex -318.4893022306173 51.8586750128133 74.59999999999216
    vertex -318.9551765118018 51.92000852549299 74.99999999999963
    vertex -318.4893022306173 51.85867501281327 74.99999999999963
  endloop
endfacet
facet normal 0.7933533402912266 -0.6087614290087319 -3.010375164634566e-14
  outer loop
    vertex -320.0481479574293 54.558675012813325 74.59999999999243
    vertex -319.76209443675305 54.931467218949166 74.99999999999991
    vertex -320.0481479574293 54.55867501281329 74.99999999999991
  endloop
endfacet
facet normal 0.7933533402912266 -0.6087614290087319 -3.010375164634566e-14
  outer loop
    vertex -319.76209443675305 54.931467218949166 74.99999999999991
    vertex -320.0481479574293 54.558675012813325 74.59999999999243
    vertex -319.76209443675305 54.931467218949194 74.59999999999243
  endloop
endfacet
facet normal -0.13052619222013245 -0.9914448613737997 -5.162614784204426e-14
  outer loop
    vertex -318.02342794943274 55.397341500133635 74.99999999999991
    vertex -318.4893022306173 55.45867501281339 74.59999999999243
    vertex -318.02342794943274 55.39734150013367 74.59999999999243
  endloop
endfacet
facet normal -0.13052619222013245 -0.9914448613737997 -5.162614784204426e-14
  outer loop
    vertex -318.4893022306173 55.45867501281339 74.59999999999243
    vertex -318.02342794943274 55.397341500133635 74.99999999999991
    vertex -318.4893022306173 55.45867501281335 74.99999999999991
  endloop
endfacet
facet normal 0.13052619222013245 -0.9914448613737997 -5.1149334981615295e-14
  outer loop
    vertex -318.4893022306173 55.45867501281335 74.99999999999991
    vertex -318.9551765118018 55.39734150013367 74.59999999999243
    vertex -318.4893022306173 55.45867501281339 74.59999999999243
  endloop
endfacet
facet normal 0.13052619222013245 -0.9914448613737997 -5.1149334981615295e-14
  outer loop
    vertex -318.9551765118018 55.39734150013367 74.59999999999243
    vertex -318.4893022306173 55.45867501281335 74.99999999999991
    vertex -318.9551765118018 55.397341500133635 74.99999999999991
  endloop
endfacet
facet normal 0.9914448613737997 -0.13052619222013245 -4.95444787944623e-15
  outer loop
    vertex -320.2893022306173 53.65867501281335 74.59999999999235
    vertex -320.2279687179376 54.12454929399787 74.99999999999982
    vertex -320.2893022306173 53.65867501281331 74.99999999999982
  endloop
endfacet
facet normal 0.9914448613737997 -0.13052619222013245 -4.95444787944623e-15
  outer loop
    vertex -320.2279687179376 54.12454929399787 74.99999999999982
    vertex -320.2893022306173 53.65867501281335 74.59999999999235
    vertex -320.2279687179376 54.12454929399791 74.59999999999235
  endloop
endfacet
facet normal 1.0 1.4180444975563656e-14 -2.0367718330359355e-12
  outer loop
    vertex -309.73930223061785 42.816185192215045 74.59999999999964
    vertex -309.73930223061757 47.816185192214995 74.99999999999928
    vertex -309.73930223061785 42.816185192215045 76.59999999999964
  endloop
endfacet
facet normal 1.0 1.4180444975563656e-14 -2.0367718330359355e-12
  outer loop
    vertex -309.73930223061757 47.816185192214995 74.99999999999928
    vertex -309.73930223061785 42.816185192215045 74.59999999999964
    vertex -309.73930223061785 189.49395451489457 74.59999999999964
  endloop
endfacet
facet normal 1.0 1.4180444975563656e-14 -2.0367718330359355e-12
  outer loop
    vertex -309.73930223061757 47.816185192214995 74.99999999999928
    vertex -309.73930223061785 189.49395451489457 74.59999999999964
    vertex -309.7393022306233 59.50116483341172 75.00000000000018
  endloop
endfacet
facet normal 1.0 1.4180444975563656e-14 -2.0367718330359355e-12
  outer loop
    vertex -309.7393022306233 59.50116483341172 75.00000000000018
    vertex -309.73930223061785 189.49395451489457 74.59999999999964
    vertex -309.73930223065304 119.50116483343527 75.00000000000504
  endloop
endfacet
facet normal 1.0 1.4180444975563656e-14 -2.0367718330359355e-12
  outer loop
    vertex -309.73930223065304 119.50116483343527 75.00000000000504
    vertex -309.73930223061785 189.49395451489457 74.59999999999964
    vertex -309.7393022306176 189.49395451489457 75.00000000000054
  endloop
endfacet
facet normal 1.0 1.4180444975563656e-14 -2.0367718330359355e-12
  outer loop
    vertex -309.73930223061785 47.816185192214995 76.59999999999945
    vertex -309.73930223061785 42.816185192215045 76.59999999999964
    vertex -309.73930223061757 47.816185192214995 74.99999999999928
  endloop
endfacet
facet normal 0.7933533402911555 0.6087614290088247 3.300187553306552e-14
  outer loop
    vertex -319.76209443675305 52.38588280667749 74.59999999999262
    vertex -320.0481479574293 52.75867501281324 75.00000000000018
    vertex -319.76209443675305 52.38588280667746 75.00000000000009
  endloop
endfacet
facet normal 0.7933533402911555 0.6087614290088247 3.300187553306552e-14
  outer loop
    vertex -320.0481479574293 52.75867501281324 75.00000000000018
    vertex -319.76209443675305 52.38588280667749 74.59999999999262
    vertex -320.0481479574293 52.75867501281328 74.59999999999272
  endloop
endfacet
facet normal -0.9238795325112726 -0.38268343236512403 -2.1522396195701355e-14
  outer loop
    vertex -316.93045650380526 54.558675012813374 75.00000000000018
    vertex -316.75063574329687 54.12454929399791 74.59999999999272
    vertex -316.75063574329687 54.12454929399787 75.00000000000018
  endloop
endfacet
facet normal -0.9238795325112726 -0.38268343236512403 -2.1522396195701355e-14
  outer loop
    vertex -316.75063574329687 54.12454929399791 74.59999999999272
    vertex -316.93045650380526 54.558675012813374 75.00000000000018
    vertex -316.93045650380526 54.55867501281341 74.59999999999272
  endloop
endfacet
facet normal -0.3826834323649601 -0.9238795325113405 -4.858472404328376e-14
  outer loop
    vertex -317.5893022306172 55.21752073962539 74.59999999999253
    vertex -318.02342794943274 55.397341500133635 74.99999999999991
    vertex -318.02342794943274 55.39734150013367 74.59999999999243
  endloop
endfacet
facet normal -0.3826834323649601 -0.9238795325113405 -4.858472404328376e-14
  outer loop
    vertex -318.02342794943274 55.397341500133635 74.99999999999991
    vertex -317.5893022306172 55.21752073962539 74.59999999999253
    vertex -317.5893022306172 55.21752073962536 75.0
  endloop
endfacet
facet normal 0.38268343236502805 -0.9238795325113124 -4.7186779470464323e-14
  outer loop
    vertex -318.9551765118018 55.397341500133635 74.99999999999991
    vertex -319.38930223061726 55.21752073962539 74.59999999999243
    vertex -318.9551765118018 55.39734150013367 74.59999999999243
  endloop
endfacet
facet normal 0.38268343236502805 -0.9238795325113124 -4.7186779470464323e-14
  outer loop
    vertex -319.38930223061726 55.21752073962539 74.59999999999243
    vertex -318.9551765118018 55.397341500133635 74.99999999999991
    vertex -319.38930223061726 55.21752073962536 74.99999999999991
  endloop
endfacet
facet normal -0.9914448613738246 0.1305261922199437 4.954447879436402e-15
  outer loop
    vertex -316.6893022306172 53.65867501281331 75.00000000000018
    vertex -316.75063574329687 53.192800731628786 74.59999999999272
    vertex -316.75063574329687 53.19280073162875 75.00000000000018
  endloop
endfacet
facet normal -0.9914448613738246 0.1305261922199437 4.954447879436402e-15
  outer loop
    vertex -316.75063574329687 53.192800731628786 74.59999999999272
    vertex -316.6893022306172 53.65867501281331 75.00000000000018
    vertex -316.6893022306172 53.65867501281335 74.59999999999272
  endloop
endfacet
facet normal -0.9238795325112444 0.3826834323651919 1.8147459448561094e-14
  outer loop
    vertex -316.75063574329687 53.19280073162875 75.00000000000018
    vertex -316.93045650380526 52.75867501281337 74.59999999999216
    vertex -316.93045650380526 52.758675012813335 74.99999999999963
  endloop
endfacet
facet normal -0.9238795325112444 0.3826834323651919 1.8147459448561094e-14
  outer loop
    vertex -316.93045650380526 52.75867501281337 74.59999999999216
    vertex -316.75063574329687 53.19280073162875 75.00000000000018
    vertex -316.75063574329687 53.192800731628786 74.59999999999272
  endloop
endfacet
facet normal -0.3826834323649601 0.9238795325113405 4.71867794704659e-14
  outer loop
    vertex -318.02342794943274 51.92000852549299 74.99999999999963
    vertex -317.5893022306172 52.0998292860013 74.59999999999216
    vertex -318.02342794943274 51.920008525493024 74.59999999999216
  endloop
endfacet
facet normal -0.3826834323649601 0.9238795325113405 4.71867794704659e-14
  outer loop
    vertex -317.5893022306172 52.0998292860013 74.59999999999216
    vertex -318.02342794943274 51.92000852549299 74.99999999999963
    vertex -317.5893022306172 52.09982928600127 74.99999999999963
  endloop
endfacet
facet normal 0.6087614290087038 -0.7933533402912482 -4.0008522918238504e-14
  outer loop
    vertex -319.38930223061726 55.21752073962536 74.99999999999991
    vertex -319.76209443675305 54.931467218949194 74.59999999999243
    vertex -319.38930223061726 55.21752073962539 74.59999999999243
  endloop
endfacet
facet normal 0.6087614290087038 -0.7933533402912482 -4.0008522918238504e-14
  outer loop
    vertex -319.76209443675305 54.931467218949194 74.59999999999243
    vertex -319.38930223061726 55.21752073962536 74.99999999999991
    vertex -319.76209443675305 54.931467218949166 74.99999999999991
  endloop
endfacet
facet normal 5.156510139516278e-15 -1.0 0.0
  outer loop
    vertex -309.73930223061785 42.816185192215045 76.59999999999964
    vertex -327.23930223061745 42.81618519221495 74.59999999999964
    vertex -309.73930223061785 42.816185192215045 74.59999999999964
  endloop
endfacet
facet normal 5.156510139516278e-15 -1.0 0.0
  outer loop
    vertex -327.23930223061745 42.81618519221495 74.59999999999964
    vertex -309.73930223061785 42.816185192215045 76.59999999999964
    vertex -327.23930223061745 42.81618519221495 76.59999999999964
  endloop
endfacet
facet normal -0.9914448613738246 -0.1305261922199437 -8.576201125037843e-15
  outer loop
    vertex -316.75063574329687 54.12454929399787 75.00000000000018
    vertex -316.6893022306172 53.65867501281335 74.59999999999272
    vertex -316.6893022306172 53.65867501281331 75.00000000000018
  endloop
endfacet
facet normal -0.9914448613738246 -0.1305261922199437 -8.576201125037843e-15
  outer loop
    vertex -316.6893022306172 53.65867501281335 74.59999999999272
    vertex -316.75063574329687 54.12454929399787 75.00000000000018
    vertex -316.75063574329687 54.12454929399791 74.59999999999272
  endloop
endfacet
facet normal -0.7933533402912482 -0.6087614290087038 -3.3001875533059423e-14
  outer loop
    vertex -317.2165100244814 54.931467218949166 75.0
    vertex -316.93045650380526 54.55867501281341 74.59999999999272
    vertex -316.93045650380526 54.558675012813374 75.00000000000018
  endloop
endfacet
facet normal -0.7933533402912482 -0.6087614290087038 -3.3001875533059423e-14
  outer loop
    vertex -316.93045650380526 54.55867501281341 74.59999999999272
    vertex -317.2165100244814 54.931467218949166 75.0
    vertex -317.2165100244814 54.931467218949194 74.59999999999253
  endloop
endfacet
facet normal 0.38268343236502805 0.9238795325113124 4.8584724043282426e-14
  outer loop
    vertex -319.38930223061726 52.0998292860013 74.59999999999262
    vertex -318.9551765118018 51.92000852549299 74.99999999999963
    vertex -318.9551765118018 51.920008525493024 74.59999999999216
  endloop
endfacet
facet normal 0.38268343236502805 0.9238795325113124 4.8584724043282426e-14
  outer loop
    vertex -318.9551765118018 51.92000852549299 74.99999999999963
    vertex -319.38930223061726 52.0998292860013 74.59999999999262
    vertex -319.38930223061726 52.09982928600127 75.00000000000009
  endloop
endfacet
facet normal 0.9238795325113405 0.3826834323649601 2.1522396195692984e-14
  outer loop
    vertex -320.0481479574293 52.75867501281328 74.59999999999272
    vertex -320.2279687179376 53.19280073162875 75.00000000000018
    vertex -320.0481479574293 52.75867501281324 75.00000000000018
  endloop
endfacet
facet normal 0.9238795325113405 0.3826834323649601 2.1522396195692984e-14
  outer loop
    vertex -320.2279687179376 53.19280073162875 75.00000000000018
    vertex -320.0481479574293 52.75867501281328 74.59999999999272
    vertex -320.2279687179376 53.192800731628786 74.59999999999272
  endloop
endfacet
facet normal 0.9914448613737997 0.13052619222013245 8.57620112504758e-15
  outer loop
    vertex -320.2279687179376 53.192800731628786 74.59999999999272
    vertex -320.2893022306173 53.65867501281331 74.99999999999982
    vertex -320.2279687179376 53.19280073162875 75.00000000000018
  endloop
endfacet
facet normal 0.9914448613737997 0.13052619222013245 8.57620112504758e-15
  outer loop
    vertex -320.2893022306173 53.65867501281331 74.99999999999982
    vertex -320.2279687179376 53.192800731628786 74.59999999999272
    vertex -320.2893022306173 53.65867501281335 74.59999999999235
  endloop
endfacet
facet normal 0.1305261922199478 0.9914448613738241 8.049721895108321e-15
  outer loop
    vertex -318.9292946072915 135.35728834910856 75.0000000000009
    vertex -318.4893022306172 135.2993622538 74.59999999999617
    vertex -318.92929460729147 135.35728834910853 74.59999999999609
  endloop
endfacet
facet normal 0.1305261922199478 0.9914448613738241 8.049721895108321e-15
  outer loop
    vertex -318.4893022306172 135.2993622538 74.59999999999617
    vertex -318.9292946072915 135.35728834910856 75.0000000000009
    vertex -318.4893022306173 135.29936225380004 75.000000000001
  endloop
endfacet
facet normal 0.7933533402913141 0.608761429008618 1.1255981341416704e-13
  outer loop
    vertex -319.96154541705073 136.1493622538 74.59999999999636
    vertex -319.6913837586344 135.79728072578285 75.00000000000117
    vertex -319.69138375863434 135.79728072578285 74.59999999999636
  endloop
endfacet
facet normal 0.7933533402913141 0.608761429008618 1.1255981341416704e-13
  outer loop
    vertex -319.6913837586344 135.79728072578285 75.00000000000117
    vertex -319.96154541705073 136.1493622538 74.59999999999636
    vertex -319.9615454170508 136.1493622538 75.00000000000117
  endloop
endfacet
facet normal 0.9914448613738014 0.13052619222012138 1.4806755163026037e-13
  outer loop
    vertex -320.1893022306172 136.99936225379997 74.59999999999627
    vertex -320.13137613530864 136.5593698771257 75.00000000000108
    vertex -320.1313761353086 136.55936987712568 74.59999999999627
  endloop
endfacet
facet normal 0.9914448613738014 0.13052619222012138 1.4806755163026037e-13
  outer loop
    vertex -320.13137613530864 136.5593698771257 75.00000000000108
    vertex -320.1893022306172 136.99936225379997 74.59999999999627
    vertex -320.1893022306173 136.9993622538 75.00000000000108
  endloop
endfacet
facet normal 0.3826834323650972 -0.9238795325112839 6.859568275210245e-14
  outer loop
    vertex -318.9292946072916 138.64143615849144 75.00000000000081
    vertex -319.3393022306172 138.47160544023356 74.599999999996
    vertex -318.9292946072915 138.64143615849142 74.599999999996
  endloop
endfacet
facet normal 0.3826834323650972 -0.9238795325112839 6.859568275210245e-14
  outer loop
    vertex -319.3393022306172 138.47160544023356 74.599999999996
    vertex -318.9292946072916 138.64143615849144 75.00000000000081
    vertex -319.33930223061725 138.4716054402336 75.00000000000081
  endloop
endfacet
facet normal 0.3826834323650252 0.9238795325113135 4.689176409351483e-14
  outer loop
    vertex -319.33930223061725 135.5271190673664 75.00000000000081
    vertex -318.92929460729147 135.35728834910853 74.59999999999609
    vertex -319.3393022306172 135.52711906736639 74.599999999996
  endloop
endfacet
facet normal 0.3826834323650252 0.9238795325113135 4.689176409351483e-14
  outer loop
    vertex -318.92929460729147 135.35728834910853 74.59999999999609
    vertex -319.33930223061725 135.5271190673664 75.00000000000081
    vertex -318.9292946072915 135.35728834910856 75.0000000000009
  endloop
endfacet
facet normal 0.608761429008746 0.793353340291216 8.253821006126005e-14
  outer loop
    vertex -319.69138375863434 135.79728072578285 74.59999999999636
    vertex -319.33930223061725 135.5271190673664 75.00000000000081
    vertex -319.3393022306172 135.52711906736639 74.599999999996
  endloop
endfacet
facet normal 0.608761429008746 0.793353340291216 8.253821006126005e-14
  outer loop
    vertex -319.33930223061725 135.5271190673664 75.00000000000081
    vertex -319.69138375863434 135.79728072578285 74.59999999999636
    vertex -319.6913837586344 135.79728072578285 75.00000000000117
  endloop
endfacet
facet normal -0.9914448613738014 -0.13052619222012138 -1.4806755163026037e-13
  outer loop
    vertex -316.78930223061724 136.9993622538 75.00000000000162
    vertex -316.8472283259258 137.4393546304743 74.59999999999681
    vertex -316.7893022306172 136.99936225379997 74.59999999999681
  endloop
endfacet
facet normal -0.9914448613738014 -0.13052619222012138 -1.4806755163026037e-13
  outer loop
    vertex -316.8472283259258 137.4393546304743 74.59999999999681
    vertex -316.78930223061724 136.9993622538 75.00000000000162
    vertex -316.8472283259258 137.4393546304743 75.00000000000162
  endloop
endfacet
facet normal -0.1305261922199215 -0.9914448613738277 -8.049721895104312e-15
  outer loop
    vertex -318.04930985394293 138.64143615849142 74.59999999999627
    vertex -318.4893022306173 138.6993622538 75.0000000000009
    vertex -318.4893022306172 138.69936225379996 74.59999999999609
  endloop
endfacet
facet normal -0.1305261922199215 -0.9914448613738277 -8.049721895104312e-15
  outer loop
    vertex -318.4893022306173 138.6993622538 75.0000000000009
    vertex -318.04930985394293 138.64143615849142 74.59999999999627
    vertex -318.049309853943 138.64143615849144 75.00000000000108
  endloop
endfacet
facet normal -0.793353340291216 -0.608761429008746 -1.1255981341415073e-13
  outer loop
    vertex -317.01705904418367 137.8493622538 75.00000000000153
    vertex -317.2872207026001 138.20144378181712 74.59999999999671
    vertex -317.01705904418367 137.84936225379997 74.59999999999671
  endloop
endfacet
facet normal -0.793353340291216 -0.608761429008746 -1.1255981341415073e-13
  outer loop
    vertex -317.2872207026001 138.20144378181712 74.59999999999671
    vertex -317.01705904418367 137.8493622538 75.00000000000153
    vertex -317.28722070260017 138.20144378181715 75.00000000000153
  endloop
endfacet
facet normal 0.9914448613738014 -0.13052619222012138 1.511338928133568e-13
  outer loop
    vertex -320.1313761353086 137.4393546304743 74.5999999999959
    vertex -320.1893022306173 136.9993622538 75.00000000000108
    vertex -320.1893022306172 136.99936225379997 74.59999999999627
  endloop
endfacet
facet normal 0.9914448613738014 -0.13052619222012138 1.511338928133568e-13
  outer loop
    vertex -320.1893022306173 136.9993622538 75.00000000000108
    vertex -320.1313761353086 137.4393546304743 74.5999999999959
    vertex -320.13137613530864 137.4393546304743 75.00000000000072
  endloop
endfacet
facet normal -0.793353340291216 0.608761429008746 -1.2686092960163723e-13
  outer loop
    vertex -317.28722070260017 135.79728072578285 75.00000000000117
    vertex -317.01705904418367 136.1493622538 74.59999999999636
    vertex -317.2872207026001 135.79728072578285 74.59999999999636
  endloop
endfacet
facet normal -0.793353340291216 0.608761429008746 -1.2686092960163723e-13
  outer loop
    vertex -317.01705904418367 136.1493622538 74.59999999999636
    vertex -317.28722070260017 135.79728072578285 75.00000000000117
    vertex -317.01705904418367 136.1493622538 75.00000000000117
  endloop
endfacet
facet normal 0.9238795325112839 0.3826834323650972 1.3491065149676343e-13
  outer loop
    vertex -320.1313761353086 136.55936987712568 74.59999999999627
    vertex -319.9615454170508 136.1493622538 75.00000000000117
    vertex -319.96154541705073 136.1493622538 74.59999999999636
  endloop
endfacet
facet normal 0.9238795325112839 0.3826834323650972 1.3491065149676343e-13
  outer loop
    vertex -319.9615454170508 136.1493622538 75.00000000000117
    vertex -320.1313761353086 136.55936987712568 74.59999999999627
    vertex -320.13137613530864 136.5593698771257 75.00000000000108
  endloop
endfacet
facet normal -0.608761429008746 0.793353340291216 -1.0117578753674131e-13
  outer loop
    vertex -317.6393022306173 135.5271190673664 75.00000000000108
    vertex -317.2872207026001 135.79728072578285 74.59999999999636
    vertex -317.63930223061726 135.52711906736639 74.59999999999627
  endloop
endfacet
facet normal -0.608761429008746 0.793353340291216 -1.0117578753674131e-13
  outer loop
    vertex -317.2872207026001 135.79728072578285 74.59999999999636
    vertex -317.6393022306173 135.5271190673664 75.00000000000108
    vertex -317.28722070260017 135.79728072578285 75.00000000000117
  endloop
endfacet
facet normal -0.9238795325112839 0.3826834323650972 -1.4390070896178845e-13
  outer loop
    vertex -317.01705904418367 136.1493622538 75.00000000000117
    vertex -316.8472283259258 136.55936987712568 74.59999999999627
    vertex -317.01705904418367 136.1493622538 74.59999999999636
  endloop
endfacet
facet normal -0.9238795325112839 0.3826834323650972 -1.4390070896178845e-13
  outer loop
    vertex -316.8472283259258 136.55936987712568 74.59999999999627
    vertex -317.01705904418367 136.1493622538 75.00000000000117
    vertex -316.8472283259258 136.5593698771257 75.00000000000108
  endloop
endfacet
facet normal -0.9914448613738014 0.13052619222012138 -1.511338928133568e-13
  outer loop
    vertex -316.8472283259258 136.5593698771257 75.00000000000108
    vertex -316.7893022306172 136.99936225379997 74.59999999999681
    vertex -316.8472283259258 136.55936987712568 74.59999999999627
  endloop
endfacet
facet normal -0.9914448613738014 0.13052619222012138 -1.511338928133568e-13
  outer loop
    vertex -316.7893022306172 136.99936225379997 74.59999999999681
    vertex -316.8472283259258 136.5593698771257 75.00000000000108
    vertex -316.78930223061724 136.9993622538 75.00000000000162
  endloop
endfacet
facet normal -0.1305261922199215 0.9914448613738277 -3.1340895547615457e-14
  outer loop
    vertex -318.4893022306173 135.29936225380004 75.000000000001
    vertex -318.04930985394293 135.35728834910853 74.59999999999627
    vertex -318.4893022306172 135.2993622538 74.59999999999617
  endloop
endfacet
facet normal -0.1305261922199215 0.9914448613738277 -3.1340895547615457e-14
  outer loop
    vertex -318.04930985394293 135.35728834910853 74.59999999999627
    vertex -318.4893022306173 135.29936225380004 75.000000000001
    vertex -318.049309853943 135.35728834910856 75.00000000000108
  endloop
endfacet
facet normal 0.1305261922199215 -0.9914448613738277 3.1340895547615457e-14
  outer loop
    vertex -318.4893022306172 138.69936225379996 74.59999999999609
    vertex -318.9292946072916 138.64143615849144 75.00000000000081
    vertex -318.9292946072915 138.64143615849142 74.599999999996
  endloop
endfacet
facet normal 0.1305261922199215 -0.9914448613738277 3.1340895547615457e-14
  outer loop
    vertex -318.9292946072916 138.64143615849144 75.00000000000081
    vertex -318.4893022306172 138.69936225379996 74.59999999999609
    vertex -318.4893022306173 138.6993622538 75.0000000000009
  endloop
endfacet
facet normal 0.9238795325112839 -0.3826834323650972 1.4390070896178845e-13
  outer loop
    vertex -319.96154541705073 137.84936225379997 74.5999999999959
    vertex -320.13137613530864 137.4393546304743 75.00000000000072
    vertex -320.1313761353086 137.4393546304743 74.5999999999959
  endloop
endfacet
facet normal 0.9238795325112839 -0.3826834323650972 1.4390070896178845e-13
  outer loop
    vertex -320.13137613530864 137.4393546304743 75.00000000000072
    vertex -319.96154541705073 137.84936225379997 74.5999999999959
    vertex -319.9615454170508 137.8493622538 75.00000000000072
  endloop
endfacet
facet normal 0.7933533402913141 -0.608761429008618 1.268609296016505e-13
  outer loop
    vertex -319.69138375863434 138.20144378181712 74.5999999999959
    vertex -319.9615454170508 137.8493622538 75.00000000000072
    vertex -319.96154541705073 137.84936225379997 74.5999999999959
  endloop
endfacet
facet normal 0.7933533402913141 -0.608761429008618 1.268609296016505e-13
  outer loop
    vertex -319.9615454170508 137.8493622538 75.00000000000072
    vertex -319.69138375863434 138.20144378181712 74.5999999999959
    vertex -319.6913837586344 138.20144378181715 75.00000000000072
  endloop
endfacet
facet normal 0.0 1.0 0.0
  outer loop
    vertex -327.23930223061717 189.49395451489457 75.00000000000108
    vertex -309.73930223061785 189.49395451489457 74.59999999999964
    vertex -327.23930223061745 189.49395451489457 74.59999999999964
  endloop
endfacet
facet normal 0.0 1.0 0.0
  outer loop
    vertex -309.73930223061785 189.49395451489457 74.59999999999964
    vertex -327.23930223061717 189.49395451489457 75.00000000000108
    vertex -309.7393022306176 189.49395451489457 75.00000000000054
  endloop
endfacet
facet normal -0.608761429008746 -0.793353340291216 -8.253821006126005e-14
  outer loop
    vertex -317.2872207026001 138.20144378181712 74.59999999999671
    vertex -317.6393022306173 138.4716054402336 75.00000000000108
    vertex -317.63930223061726 138.47160544023356 74.59999999999627
  endloop
endfacet
facet normal -0.608761429008746 -0.793353340291216 -8.253821006126005e-14
  outer loop
    vertex -317.6393022306173 138.4716054402336 75.00000000000108
    vertex -317.2872207026001 138.20144378181712 74.59999999999671
    vertex -317.28722070260017 138.20144378181715 75.00000000000153
  endloop
endfacet
facet normal 0.0 0.0 -1.0
  outer loop
    vertex -327.23930223061745 189.49395451489457 74.59999999999964
    vertex -320.1893022306175 171.9957570945294 74.5999999999966
    vertex -327.23930223061745 42.81618519221495 74.59999999999964
  endloop
endfacet
facet normal 0.0 0.0 -1.0
  outer loop
    vertex -320.1893022306175 171.9957570945294 74.5999999999966
    vertex -327.23930223061745 189.49395451489457 74.59999999999964
    vertex -320.1313761353089 172.4357494712037 74.5999999999966
  endloop
endfacet
facet normal 0.0 0.0 -1.0
  outer loop
    vertex -320.1313761353089 172.4357494712037 74.5999999999966
    vertex -327.23930223061745 189.49395451489457 74.59999999999964
    vertex -319.96154541705107 172.8457570945294 74.5999999999965
  endloop
endfacet
facet normal 0.0 0.0 -1.0
  outer loop
    vertex -319.96154541705107 172.8457570945294 74.5999999999965
    vertex -327.23930223061745 189.49395451489457 74.59999999999964
    vertex -309.73930223061785 189.49395451489457 74.59999999999964
  endloop
endfacet
facet normal 0.0 0.0 -1.0
  outer loop
    vertex -327.23930223061745 42.81618519221495 74.59999999999964
    vertex -320.1893022306175 171.9957570945294 74.5999999999966
    vertex -320.2893022306173 53.65867501281335 74.59999999999235
  endloop
endfacet
facet normal 0.0 0.0 -1.0
  outer loop
    vertex -320.2893022306173 53.65867501281335 74.59999999999235
    vertex -320.1893022306175 171.9957570945294 74.5999999999966
    vertex -320.2279687179376 54.12454929399791 74.59999999999235
  endloop
endfacet
facet normal 0.0 0.0 -1.0
  outer loop
    vertex -319.96154541705107 172.8457570945294 74.5999999999965
    vertex -309.73930223061785 189.49395451489457 74.59999999999964
    vertex -319.69138375863486 173.197838622547 74.59999999999641
  endloop
endfacet
facet normal 0.0 0.0 -1.0
  outer loop
    vertex -319.69138375863486 173.197838622547 74.59999999999641
    vertex -309.73930223061785 189.49395451489457 74.59999999999964
    vertex -319.3393022306177 173.46800028096337 74.59999999999623
  endloop
endfacet
facet normal 0.0 0.0 -1.0
  outer loop
    vertex -319.3393022306177 173.46800028096337 74.59999999999623
    vertex -309.73930223061785 189.49395451489457 74.59999999999964
    vertex -318.92929460729204 173.63783099922122 74.59999999999623
  endloop
endfacet
facet normal 0.0 0.0 -1.0
  outer loop
    vertex -318.92929460729204 173.63783099922122 74.59999999999623
    vertex -309.73930223061785 189.49395451489457 74.59999999999964
    vertex -318.48930223061774 173.69575709452982 74.59999999999623
  endloop
endfacet
facet normal 0.0 0.0 -1.0
  outer loop
    vertex -318.48930223061774 173.69575709452982 74.59999999999623
    vertex -309.73930223061785 189.49395451489457 74.59999999999964
    vertex -318.0493098539435 173.63783099922122 74.59999999999614
  endloop
endfacet
facet normal 0.0 0.0 -1.0
  outer loop
    vertex -318.0493098539435 173.63783099922122 74.59999999999614
    vertex -309.73930223061785 189.49395451489457 74.59999999999964
    vertex -317.6393022306177 173.46800028096337 74.59999999999614
  endloop
endfacet
facet normal 0.0 0.0 -1.0
  outer loop
    vertex -317.6393022306177 173.46800028096337 74.59999999999614
    vertex -309.73930223061785 189.49395451489457 74.59999999999964
    vertex -317.28722070260056 173.197838622547 74.59999999999604
  endloop
endfacet
facet normal 0.0 0.0 -1.0
  outer loop
    vertex -317.28722070260056 173.197838622547 74.59999999999604
    vertex -309.73930223061785 189.49395451489457 74.59999999999964
    vertex -317.01705904418395 172.8457570945294 74.59999999999587
  endloop
endfacet
facet normal 0.0 0.0 -1.0
  outer loop
    vertex -317.01705904418395 172.8457570945294 74.59999999999587
    vertex -309.73930223061785 189.49395451489457 74.59999999999964
    vertex -316.8472283259261 172.4357494712037 74.5999999999955
  endloop
endfacet
facet normal 0.0 0.0 -1.0
  outer loop
    vertex -316.8472283259261 172.4357494712037 74.5999999999955
    vertex -309.73930223061785 189.49395451489457 74.59999999999964
    vertex -316.78930223061747 171.9957570945294 74.5999999999956
  endloop
endfacet
facet normal 0.0 0.0 -1.0
  outer loop
    vertex -316.78930223061747 171.9957570945294 74.5999999999956
    vertex -309.73930223061785 189.49395451489457 74.59999999999964
    vertex -316.7893022306172 136.99936225379997 74.59999999999681
  endloop
endfacet
facet normal 0.0 0.0 -1.0
  outer loop
    vertex -316.7893022306172 136.99936225379997 74.59999999999681
    vertex -309.73930223061785 189.49395451489457 74.59999999999964
    vertex -316.75063574329687 54.12454929399791 74.59999999999272
  endloop
endfacet
facet normal 0.0 0.0 -1.0
  outer loop
    vertex -316.75063574329687 54.12454929399791 74.59999999999272
    vertex -309.73930223061785 189.49395451489457 74.59999999999964
    vertex -316.6893022306172 53.65867501281335 74.59999999999272
  endloop
endfacet
facet normal 0.0 0.0 -1.0
  outer loop
    vertex -327.23930223061745 42.81618519221495 74.59999999999964
    vertex -319.76209443675305 52.38588280667749 74.59999999999262
    vertex -309.73930223061785 42.816185192215045 74.59999999999964
  endloop
endfacet
facet normal 0.0 0.0 -1.0
  outer loop
    vertex -319.76209443675305 52.38588280667749 74.59999999999262
    vertex -327.23930223061745 42.81618519221495 74.59999999999964
    vertex -320.0481479574293 52.75867501281328 74.59999999999272
  endloop
endfacet
facet normal 0.0 0.0 -1.0
  outer loop
    vertex -320.0481479574293 52.75867501281328 74.59999999999272
    vertex -327.23930223061745 42.81618519221495 74.59999999999964
    vertex -320.2279687179376 53.192800731628786 74.59999999999272
  endloop
endfacet
facet normal 0.0 0.0 -1.0
  outer loop
    vertex -320.2279687179376 53.192800731628786 74.59999999999272
    vertex -327.23930223061745 42.81618519221495 74.59999999999964
    vertex -320.2893022306173 53.65867501281335 74.59999999999235
  endloop
endfacet
facet normal 0.0 0.0 -1.0
  outer loop
    vertex -309.73930223061785 42.816185192215045 74.59999999999964
    vertex -319.76209443675305 52.38588280667749 74.59999999999262
    vertex -319.38930223061726 52.0998292860013 74.59999999999262
  endloop
endfacet
facet normal 0.0 0.0 -1.0
  outer loop
    vertex -309.73930223061785 42.816185192215045 74.59999999999964
    vertex -319.38930223061726 52.0998292860013 74.59999999999262
    vertex -318.9551765118018 51.920008525493024 74.59999999999216
  endloop
endfacet
facet normal 0.0 0.0 -1.0
  outer loop
    vertex -309.73930223061785 42.816185192215045 74.59999999999964
    vertex -318.9551765118018 51.920008525493024 74.59999999999216
    vertex -318.4893022306173 51.8586750128133 74.59999999999216
  endloop
endfacet
facet normal 0.0 0.0 -1.0
  outer loop
    vertex -309.73930223061785 42.816185192215045 74.59999999999964
    vertex -318.4893022306173 51.8586750128133 74.59999999999216
    vertex -318.02342794943274 51.920008525493024 74.59999999999216
  endloop
endfacet
facet normal 0.0 0.0 -1.0
  outer loop
    vertex -309.73930223061785 42.816185192215045 74.59999999999964
    vertex -318.02342794943274 51.920008525493024 74.59999999999216
    vertex -317.5893022306172 52.0998292860013 74.59999999999216
  endloop
endfacet
facet normal 0.0 0.0 -1.0
  outer loop
    vertex -309.73930223061785 42.816185192215045 74.59999999999964
    vertex -317.5893022306172 52.0998292860013 74.59999999999216
    vertex -317.2165100244814 52.38588280667749 74.59999999999216
  endloop
endfacet
facet normal 0.0 0.0 -1.0
  outer loop
    vertex -309.73930223061785 42.816185192215045 74.59999999999964
    vertex -317.2165100244814 52.38588280667749 74.59999999999216
    vertex -316.93045650380526 52.75867501281337 74.59999999999216
  endloop
endfacet
facet normal 0.0 0.0 -1.0
  outer loop
    vertex -309.73930223061785 42.816185192215045 74.59999999999964
    vertex -316.93045650380526 52.75867501281337 74.59999999999216
    vertex -316.75063574329687 53.192800731628786 74.59999999999272
  endloop
endfacet
facet normal 0.0 0.0 -1.0
  outer loop
    vertex -309.73930223061785 42.816185192215045 74.59999999999964
    vertex -316.75063574329687 53.192800731628786 74.59999999999272
    vertex -316.6893022306172 53.65867501281335 74.59999999999272
  endloop
endfacet
facet normal 0.0 0.0 -1.0
  outer loop
    vertex -309.73930223061785 42.816185192215045 74.59999999999964
    vertex -316.6893022306172 53.65867501281335 74.59999999999272
    vertex -309.73930223061785 189.49395451489457 74.59999999999964
  endloop
endfacet
facet normal 0.0 0.0 -1.0
  outer loop
    vertex -320.2279687179376 54.12454929399791 74.59999999999235
    vertex -320.1893022306172 136.99936225379997 74.59999999999627
    vertex -320.0481479574293 54.558675012813325 74.59999999999243
  endloop
endfacet
facet normal 0.0 0.0 -1.0
  outer loop
    vertex -320.1893022306172 136.99936225379997 74.59999999999627
    vertex -320.2279687179376 54.12454929399791 74.59999999999235
    vertex -320.1893022306175 171.9957570945294 74.5999999999966
  endloop
endfacet
facet normal 0.0 0.0 -1.0
  outer loop
    vertex -320.0481479574293 54.558675012813325 74.59999999999243
    vertex -320.1893022306172 136.99936225379997 74.59999999999627
    vertex -320.1313761353086 136.55936987712568 74.59999999999627
  endloop
endfacet
facet normal 0.0 0.0 -1.0
  outer loop
    vertex -320.0481479574293 54.558675012813325 74.59999999999243
    vertex -320.1313761353086 136.55936987712568 74.59999999999627
    vertex -319.96154541705073 136.1493622538 74.59999999999636
  endloop
endfacet
facet normal 0.0 0.0 -1.0
  outer loop
    vertex -320.0481479574293 54.558675012813325 74.59999999999243
    vertex -319.96154541705073 136.1493622538 74.59999999999636
    vertex -319.76209443675305 54.931467218949194 74.59999999999243
  endloop
endfacet
facet normal 0.0 0.0 -1.0
  outer loop
    vertex -319.76209443675305 54.931467218949194 74.59999999999243
    vertex -319.96154541705073 136.1493622538 74.59999999999636
    vertex -319.69138375863434 135.79728072578285 74.59999999999636
  endloop
endfacet
facet normal 0.0 0.0 -1.0
  outer loop
    vertex -319.76209443675305 54.931467218949194 74.59999999999243
    vertex -319.69138375863434 135.79728072578285 74.59999999999636
    vertex -319.38930223061726 55.21752073962539 74.59999999999243
  endloop
endfacet
facet normal 0.0 0.0 -1.0
  outer loop
    vertex -319.38930223061726 55.21752073962539 74.59999999999243
    vertex -319.69138375863434 135.79728072578285 74.59999999999636
    vertex -319.3393022306172 135.52711906736639 74.599999999996
  endloop
endfacet
facet normal 0.0 0.0 -1.0
  outer loop
    vertex -319.38930223061726 55.21752073962539 74.59999999999243
    vertex -319.3393022306172 135.52711906736639 74.599999999996
    vertex -318.9551765118018 55.39734150013367 74.59999999999243
  endloop
endfacet
facet normal 0.0 0.0 -1.0
  outer loop
    vertex -318.9551765118018 55.39734150013367 74.59999999999243
    vertex -319.3393022306172 135.52711906736639 74.599999999996
    vertex -318.92929460729147 135.35728834910853 74.59999999999609
  endloop
endfacet
facet normal 0.0 0.0 -1.0
  outer loop
    vertex -318.9551765118018 55.39734150013367 74.59999999999243
    vertex -318.92929460729147 135.35728834910853 74.59999999999609
    vertex -318.4893022306173 55.45867501281339 74.59999999999243
  endloop
endfacet
facet normal 0.0 0.0 -1.0
  outer loop
    vertex -318.4893022306173 55.45867501281339 74.59999999999243
    vertex -318.92929460729147 135.35728834910853 74.59999999999609
    vertex -318.4893022306172 135.2993622538 74.59999999999617
  endloop
endfacet
facet normal 0.0 0.0 -1.0
  outer loop
    vertex -318.4893022306173 55.45867501281339 74.59999999999243
    vertex -318.4893022306172 135.2993622538 74.59999999999617
    vertex -318.02342794943274 55.39734150013367 74.59999999999243
  endloop
endfacet
facet normal 0.0 0.0 -1.0
  outer loop
    vertex -318.02342794943274 55.39734150013367 74.59999999999243
    vertex -318.4893022306172 135.2993622538 74.59999999999617
    vertex -318.04930985394293 135.35728834910853 74.59999999999627
  endloop
endfacet
facet normal 0.0 0.0 -1.0
  outer loop
    vertex -318.02342794943274 55.39734150013367 74.59999999999243
    vertex -318.04930985394293 135.35728834910853 74.59999999999627
    vertex -317.63930223061726 135.52711906736639 74.59999999999627
  endloop
endfacet
facet normal 0.0 0.0 -1.0
  outer loop
    vertex -318.02342794943274 55.39734150013367 74.59999999999243
    vertex -317.63930223061726 135.52711906736639 74.59999999999627
    vertex -317.5893022306172 55.21752073962539 74.59999999999253
  endloop
endfacet
facet normal 0.0 0.0 -1.0
  outer loop
    vertex -317.5893022306172 55.21752073962539 74.59999999999253
    vertex -317.63930223061726 135.52711906736639 74.59999999999627
    vertex -317.2872207026001 135.79728072578285 74.59999999999636
  endloop
endfacet
facet normal 0.0 0.0 -1.0
  outer loop
    vertex -317.5893022306172 55.21752073962539 74.59999999999253
    vertex -317.2872207026001 135.79728072578285 74.59999999999636
    vertex -317.2165100244814 54.931467218949194 74.59999999999253
  endloop
endfacet
facet normal 0.0 0.0 -1.0
  outer loop
    vertex -317.2165100244814 54.931467218949194 74.59999999999253
    vertex -317.2872207026001 135.79728072578285 74.59999999999636
    vertex -317.01705904418367 136.1493622538 74.59999999999636
  endloop
endfacet
facet normal 0.0 0.0 -1.0
  outer loop
    vertex -317.2165100244814 54.931467218949194 74.59999999999253
    vertex -317.01705904418367 136.1493622538 74.59999999999636
    vertex -316.93045650380526 54.55867501281341 74.59999999999272
  endloop
endfacet
facet normal 0.0 0.0 -1.0
  outer loop
    vertex -316.93045650380526 54.55867501281341 74.59999999999272
    vertex -317.01705904418367 136.1493622538 74.59999999999636
    vertex -316.8472283259258 136.55936987712568 74.59999999999627
  endloop
endfacet
facet normal 0.0 0.0 -1.0
  outer loop
    vertex -316.93045650380526 54.55867501281341 74.59999999999272
    vertex -316.8472283259258 136.55936987712568 74.59999999999627
    vertex -316.75063574329687 54.12454929399791 74.59999999999272
  endloop
endfacet
facet normal 0.0 0.0 -1.0
  outer loop
    vertex -316.75063574329687 54.12454929399791 74.59999999999272
    vertex -316.8472283259258 136.55936987712568 74.59999999999627
    vertex -316.7893022306172 136.99936225379997 74.59999999999681
  endloop
endfacet
facet normal 0.0 0.0 -1.0
  outer loop
    vertex -320.1313761353089 171.5557647178551 74.5999999999966
    vertex -320.1893022306172 136.99936225379997 74.59999999999627
    vertex -320.1893022306175 171.9957570945294 74.5999999999966
  endloop
endfacet
facet normal 0.0 0.0 -1.0
  outer loop
    vertex -320.1893022306172 136.99936225379997 74.59999999999627
    vertex -320.1313761353089 171.5557647178551 74.5999999999966
    vertex -320.1313761353086 137.4393546304743 74.5999999999959
  endloop
endfacet
facet normal 0.0 0.0 -1.0
  outer loop
    vertex -320.1313761353086 137.4393546304743 74.5999999999959
    vertex -320.1313761353089 171.5557647178551 74.5999999999966
    vertex -319.96154541705107 171.14575709452942 74.59999999999614
  endloop
endfacet
facet normal 0.0 0.0 -1.0
  outer loop
    vertex -320.1313761353086 137.4393546304743 74.5999999999959
    vertex -319.96154541705107 171.14575709452942 74.59999999999614
    vertex -319.96154541705073 137.84936225379997 74.5999999999959
  endloop
endfacet
facet normal 0.0 0.0 -1.0
  outer loop
    vertex -319.96154541705073 137.84936225379997 74.5999999999959
    vertex -319.96154541705107 171.14575709452942 74.59999999999614
    vertex -319.6913837586347 170.79367556651226 74.59999999999614
  endloop
endfacet
facet normal 0.0 0.0 -1.0
  outer loop
    vertex -319.96154541705073 137.84936225379997 74.5999999999959
    vertex -319.6913837586347 170.79367556651226 74.59999999999614
    vertex -319.69138375863434 138.20144378181712 74.5999999999959
  endloop
endfacet
facet normal 0.0 0.0 -1.0
  outer loop
    vertex -319.69138375863434 138.20144378181712 74.5999999999959
    vertex -319.6913837586347 170.79367556651226 74.59999999999614
    vertex -319.33930223061753 170.52351390809582 74.59999999999604
  endloop
endfacet
facet normal 0.0 0.0 -1.0
  outer loop
    vertex -319.69138375863434 138.20144378181712 74.5999999999959
    vertex -319.33930223061753 170.52351390809582 74.59999999999604
    vertex -319.3393022306172 138.47160544023356 74.599999999996
  endloop
endfacet
facet normal 0.0 0.0 -1.0
  outer loop
    vertex -319.3393022306172 138.47160544023356 74.599999999996
    vertex -319.33930223061753 170.52351390809582 74.59999999999604
    vertex -318.92929460729175 170.35368318983797 74.59999999999604
  endloop
endfacet
facet normal 0.0 0.0 -1.0
  outer loop
    vertex -319.3393022306172 138.47160544023356 74.599999999996
    vertex -318.92929460729175 170.35368318983797 74.59999999999604
    vertex -318.9292946072915 138.64143615849142 74.599999999996
  endloop
endfacet
facet normal 0.0 0.0 -1.0
  outer loop
    vertex -318.9292946072915 138.64143615849142 74.599999999996
    vertex -318.92929460729175 170.35368318983797 74.59999999999604
    vertex -318.48930223061757 170.29575709452945 74.59999999999596
  endloop
endfacet
facet normal 0.0 0.0 -1.0
  outer loop
    vertex -318.9292946072915 138.64143615849142 74.599999999996
    vertex -318.48930223061757 170.29575709452945 74.59999999999596
    vertex -318.4893022306172 138.69936225379996 74.59999999999609
  endloop
endfacet
facet normal 0.0 0.0 -1.0
  outer loop
    vertex -318.4893022306172 138.69936225379996 74.59999999999609
    vertex -318.48930223061757 170.29575709452945 74.59999999999596
    vertex -318.0493098539432 170.35368318983797 74.59999999999587
  endloop
endfacet
facet normal 0.0 0.0 -1.0
  outer loop
    vertex -318.4893022306172 138.69936225379996 74.59999999999609
    vertex -318.0493098539432 170.35368318983797 74.59999999999587
    vertex -318.04930985394293 138.64143615849142 74.59999999999627
  endloop
endfacet
facet normal 0.0 0.0 -1.0
  outer loop
    vertex -318.04930985394293 138.64143615849142 74.59999999999627
    vertex -318.0493098539432 170.35368318983797 74.59999999999587
    vertex -317.63930223061755 170.52351390809582 74.59999999999577
  endloop
endfacet
facet normal 0.0 0.0 -1.0
  outer loop
    vertex -318.04930985394293 138.64143615849142 74.59999999999627
    vertex -317.63930223061755 170.52351390809582 74.59999999999577
    vertex -317.63930223061726 138.47160544023356 74.59999999999627
  endloop
endfacet
facet normal 0.0 0.0 -1.0
  outer loop
    vertex -317.63930223061726 138.47160544023356 74.59999999999627
    vertex -317.63930223061755 170.52351390809582 74.59999999999577
    vertex -317.2872207026004 170.79367556651226 74.59999999999577
  endloop
endfacet
facet normal 0.0 0.0 -1.0
  outer loop
    vertex -317.63930223061726 138.47160544023356 74.59999999999627
    vertex -317.2872207026004 170.79367556651226 74.59999999999577
    vertex -317.2872207026001 138.20144378181712 74.59999999999671
  endloop
endfacet
facet normal 0.0 0.0 -1.0
  outer loop
    vertex -317.2872207026001 138.20144378181712 74.59999999999671
    vertex -317.2872207026004 170.79367556651226 74.59999999999577
    vertex -317.01705904418395 171.14575709452942 74.59999999999569
  endloop
endfacet
facet normal 0.0 0.0 -1.0
  outer loop
    vertex -317.2872207026001 138.20144378181712 74.59999999999671
    vertex -317.01705904418395 171.14575709452942 74.59999999999569
    vertex -317.01705904418367 137.84936225379997 74.59999999999671
  endloop
endfacet
facet normal 0.0 0.0 -1.0
  outer loop
    vertex -317.01705904418367 137.84936225379997 74.59999999999671
    vertex -317.01705904418395 171.14575709452942 74.59999999999569
    vertex -316.8472283259261 171.5557647178551 74.5999999999956
  endloop
endfacet
facet normal 0.0 0.0 -1.0
  outer loop
    vertex -317.01705904418367 137.84936225379997 74.59999999999671
    vertex -316.8472283259261 171.5557647178551 74.5999999999956
    vertex -316.8472283259258 137.4393546304743 74.59999999999681
  endloop
endfacet
facet normal 0.0 0.0 -1.0
  outer loop
    vertex -316.8472283259258 137.4393546304743 74.59999999999681
    vertex -316.8472283259261 171.5557647178551 74.5999999999956
    vertex -316.78930223061747 171.9957570945294 74.5999999999956
  endloop
endfacet
facet normal 0.0 0.0 -1.0
  outer loop
    vertex -316.8472283259258 137.4393546304743 74.59999999999681
    vertex -316.78930223061747 171.9957570945294 74.5999999999956
    vertex -316.7893022306172 136.99936225379997 74.59999999999681
  endloop
endfacet
facet normal 0.608761429008746 -0.793353340291216 1.0117578753674131e-13
  outer loop
    vertex -319.3393022306172 138.47160544023356 74.599999999996
    vertex -319.6913837586344 138.20144378181715 75.00000000000072
    vertex -319.69138375863434 138.20144378181712 74.5999999999959
  endloop
endfacet
facet normal 0.608761429008746 -0.793353340291216 1.0117578753674131e-13
  outer loop
    vertex -319.6913837586344 138.20144378181715 75.00000000000072
    vertex -319.3393022306172 138.47160544023356 74.599999999996
    vertex -319.33930223061725 138.4716054402336 75.00000000000081
  endloop
endfacet
facet normal -0.9238795325112839 -0.3826834323650972 -1.3491065149676343e-13
  outer loop
    vertex -316.8472283259258 137.4393546304743 75.00000000000162
    vertex -317.01705904418367 137.84936225379997 74.59999999999671
    vertex -316.8472283259258 137.4393546304743 74.59999999999681
  endloop
endfacet
facet normal -0.9238795325112839 -0.3826834323650972 -1.3491065149676343e-13
  outer loop
    vertex -317.01705904418367 137.84936225379997 74.59999999999671
    vertex -316.8472283259258 137.4393546304743 75.00000000000162
    vertex -317.01705904418367 137.8493622538 75.00000000000153
  endloop
endfacet
facet normal -7.512383487474898e-14 -1.28065531642885e-14 1.0
  outer loop
    vertex -320.0481479574293 54.55867501281329 74.99999999999991
    vertex -320.1893022306173 136.9993622538 75.00000000000108
    vertex -320.2279687179376 54.12454929399787 74.99999999999982
  endloop
endfacet
facet normal -7.512383487474898e-14 -1.28065531642885e-14 1.0
  outer loop
    vertex -320.1893022306173 136.9993622538 75.00000000000108
    vertex -320.0481479574293 54.55867501281329 74.99999999999991
    vertex -320.13137613530864 136.5593698771257 75.00000000000108
  endloop
endfacet
facet normal -7.512383487474898e-14 -1.28065531642885e-14 1.0
  outer loop
    vertex -320.13137613530864 136.5593698771257 75.00000000000108
    vertex -320.0481479574293 54.55867501281329 74.99999999999991
    vertex -319.9615454170508 136.1493622538 75.00000000000117
  endloop
endfacet
facet normal -7.512383487474898e-14 -1.28065531642885e-14 1.0
  outer loop
    vertex -319.9615454170508 136.1493622538 75.00000000000117
    vertex -320.0481479574293 54.55867501281329 74.99999999999991
    vertex -319.76209443675305 54.931467218949166 74.99999999999991
  endloop
endfacet
facet normal -7.512383487474898e-14 -1.28065531642885e-14 1.0
  outer loop
    vertex -319.9615454170508 136.1493622538 75.00000000000117
    vertex -319.76209443675305 54.931467218949166 74.99999999999991
    vertex -319.6913837586344 135.79728072578285 75.00000000000117
  endloop
endfacet
facet normal -7.512383487474898e-14 -1.28065531642885e-14 1.0
  outer loop
    vertex -319.6913837586344 135.79728072578285 75.00000000000117
    vertex -319.76209443675305 54.931467218949166 74.99999999999991
    vertex -319.38930223061726 55.21752073962536 74.99999999999991
  endloop
endfacet
facet normal -7.512383487474898e-14 -1.28065531642885e-14 1.0
  outer loop
    vertex -319.6913837586344 135.79728072578285 75.00000000000117
    vertex -319.38930223061726 55.21752073962536 74.99999999999991
    vertex -319.33930223061725 135.5271190673664 75.00000000000081
  endloop
endfacet
facet normal -7.512383487474898e-14 -1.28065531642885e-14 1.0
  outer loop
    vertex -319.33930223061725 135.5271190673664 75.00000000000081
    vertex -319.38930223061726 55.21752073962536 74.99999999999991
    vertex -318.9551765118018 55.397341500133635 74.99999999999991
  endloop
endfacet
facet normal -7.512383487474898e-14 -1.28065531642885e-14 1.0
  outer loop
    vertex -319.33930223061725 135.5271190673664 75.00000000000081
    vertex -318.9551765118018 55.397341500133635 74.99999999999991
    vertex -318.9292946072915 135.35728834910856 75.0000000000009
  endloop
endfacet
facet normal -7.512383487474898e-14 -1.28065531642885e-14 1.0
  outer loop
    vertex -318.9292946072915 135.35728834910856 75.0000000000009
    vertex -318.9551765118018 55.397341500133635 74.99999999999991
    vertex -318.4893022306173 55.45867501281335 74.99999999999991
  endloop
endfacet
facet normal -7.512383487474898e-14 -1.28065531642885e-14 1.0
  outer loop
    vertex -318.9292946072915 135.35728834910856 75.0000000000009
    vertex -318.4893022306173 55.45867501281335 74.99999999999991
    vertex -318.4893022306173 135.29936225380004 75.000000000001
  endloop
endfacet
facet normal -7.512383487474898e-14 -1.28065531642885e-14 1.0
  outer loop
    vertex -318.4893022306173 135.29936225380004 75.000000000001
    vertex -318.4893022306173 55.45867501281335 74.99999999999991
    vertex -318.02342794943274 55.397341500133635 74.99999999999991
  endloop
endfacet
facet normal -7.512383487474898e-14 -1.28065531642885e-14 1.0
  outer loop
    vertex -318.4893022306173 135.29936225380004 75.000000000001
    vertex -318.02342794943274 55.397341500133635 74.99999999999991
    vertex -318.049309853943 135.35728834910856 75.00000000000108
  endloop
endfacet
facet normal -7.512383487474898e-14 -1.28065531642885e-14 1.0
  outer loop
    vertex -318.049309853943 135.35728834910856 75.00000000000108
    vertex -318.02342794943274 55.397341500133635 74.99999999999991
    vertex -317.6393022306173 135.5271190673664 75.00000000000108
  endloop
endfacet
facet normal -7.512383487474898e-14 -1.28065531642885e-14 1.0
  outer loop
    vertex -317.6393022306173 135.5271190673664 75.00000000000108
    vertex -318.02342794943274 55.397341500133635 74.99999999999991
    vertex -317.5893022306172 55.21752073962536 75.0
  endloop
endfacet
facet normal -7.512383487474898e-14 -1.28065531642885e-14 1.0
  outer loop
    vertex -317.6393022306173 135.5271190673664 75.00000000000108
    vertex -317.5893022306172 55.21752073962536 75.0
    vertex -317.28722070260017 135.79728072578285 75.00000000000117
  endloop
endfacet
facet normal -7.512383487474898e-14 -1.28065531642885e-14 1.0
  outer loop
    vertex -317.28722070260017 135.79728072578285 75.00000000000117
    vertex -317.5893022306172 55.21752073962536 75.0
    vertex -317.2165100244814 54.931467218949166 75.0
  endloop
endfacet
facet normal -7.512383487474898e-14 -1.28065531642885e-14 1.0
  outer loop
    vertex -317.28722070260017 135.79728072578285 75.00000000000117
    vertex -317.2165100244814 54.931467218949166 75.0
    vertex -317.01705904418367 136.1493622538 75.00000000000117
  endloop
endfacet
facet normal -7.512383487474898e-14 -1.28065531642885e-14 1.0
  outer loop
    vertex -317.01705904418367 136.1493622538 75.00000000000117
    vertex -317.2165100244814 54.931467218949166 75.0
    vertex -316.93045650380526 54.558675012813374 75.00000000000018
  endloop
endfacet
facet normal -7.512383487474898e-14 -1.28065531642885e-14 1.0
  outer loop
    vertex -317.01705904418367 136.1493622538 75.00000000000117
    vertex -316.93045650380526 54.558675012813374 75.00000000000018
    vertex -316.8472283259258 136.5593698771257 75.00000000000108
  endloop
endfacet
facet normal -7.512383487474898e-14 -1.28065531642885e-14 1.0
  outer loop
    vertex -316.8472283259258 136.5593698771257 75.00000000000108
    vertex -316.93045650380526 54.558675012813374 75.00000000000018
    vertex -316.75063574329687 54.12454929399787 75.00000000000018
  endloop
endfacet
facet normal -7.512383487474898e-14 -1.28065531642885e-14 1.0
  outer loop
    vertex -316.8472283259258 136.5593698771257 75.00000000000108
    vertex -316.75063574329687 54.12454929399787 75.00000000000018
    vertex -316.78930223061724 136.9993622538 75.00000000000162
  endloop
endfacet
facet normal -7.512383487474898e-14 -1.28065531642885e-14 1.0
  outer loop
    vertex -316.78930223061724 136.9993622538 75.00000000000162
    vertex -316.75063574329687 54.12454929399787 75.00000000000018
    vertex -316.78930223061724 171.99575709452938 74.99999999999955
  endloop
endfacet
facet normal -7.512383487474898e-14 -1.28065531642885e-14 1.0
  outer loop
    vertex -327.239302230617 47.8161851922149 74.99999999999919
    vertex -320.2279687179376 53.19280073162875 75.00000000000018
    vertex -320.2893022306173 53.65867501281331 74.99999999999982
  endloop
endfacet
facet normal -7.512383487474898e-14 -1.28065531642885e-14 1.0
  outer loop
    vertex -320.2279687179376 53.19280073162875 75.00000000000018
    vertex -327.239302230617 47.8161851922149 74.99999999999919
    vertex -320.0481479574293 52.75867501281324 75.00000000000018
  endloop
endfacet
facet normal -7.512383487474898e-14 -1.28065531642885e-14 1.0
  outer loop
    vertex -320.0481479574293 52.75867501281324 75.00000000000018
    vertex -327.239302230617 47.8161851922149 74.99999999999919
    vertex -319.76209443675305 52.38588280667746 75.00000000000009
  endloop
endfacet
facet normal -7.512383487474898e-14 -1.28065531642885e-14 1.0
  outer loop
    vertex -319.76209443675305 52.38588280667746 75.00000000000009
    vertex -327.239302230617 47.8161851922149 74.99999999999919
    vertex -319.38930223061726 52.09982928600127 75.00000000000009
  endloop
endfacet
facet normal -7.512383487474898e-14 -1.28065531642885e-14 1.0
  outer loop
    vertex -319.38930223061726 52.09982928600127 75.00000000000009
    vertex -327.239302230617 47.8161851922149 74.99999999999919
    vertex -309.73930223061757 47.816185192214995 74.99999999999928
  endloop
endfacet
facet normal -7.512383487474898e-14 -1.28065531642885e-14 1.0
  outer loop
    vertex -319.38930223061726 52.09982928600127 75.00000000000009
    vertex -309.73930223061757 47.816185192214995 74.99999999999928
    vertex -318.9551765118018 51.92000852549299 74.99999999999963
  endloop
endfacet
facet normal -7.512383487474898e-14 -1.28065531642885e-14 1.0
  outer loop
    vertex -318.9551765118018 51.92000852549299 74.99999999999963
    vertex -309.73930223061757 47.816185192214995 74.99999999999928
    vertex -318.4893022306173 51.85867501281327 74.99999999999963
  endloop
endfacet
facet normal -7.512383487474898e-14 -1.28065531642885e-14 1.0
  outer loop
    vertex -318.4893022306173 51.85867501281327 74.99999999999963
    vertex -309.73930223061757 47.816185192214995 74.99999999999928
    vertex -318.02342794943274 51.92000852549299 74.99999999999963
  endloop
endfacet
facet normal -7.512383487474898e-14 -1.28065531642885e-14 1.0
  outer loop
    vertex -318.02342794943274 51.92000852549299 74.99999999999963
    vertex -309.73930223061757 47.816185192214995 74.99999999999928
    vertex -317.5893022306172 52.09982928600127 74.99999999999963
  endloop
endfacet
facet normal -7.512383487474898e-14 -1.28065531642885e-14 1.0
  outer loop
    vertex -317.5893022306172 52.09982928600127 74.99999999999963
    vertex -309.73930223061757 47.816185192214995 74.99999999999928
    vertex -317.2165100244814 52.38588280667746 74.99999999999963
  endloop
endfacet
facet normal -7.512383487474898e-14 -1.28065531642885e-14 1.0
  outer loop
    vertex -317.2165100244814 52.38588280667746 74.99999999999963
    vertex -309.73930223061757 47.816185192214995 74.99999999999928
    vertex -316.93045650380526 52.758675012813335 74.99999999999963
  endloop
endfacet
facet normal -7.512383487474898e-14 -1.28065531642885e-14 1.0
  outer loop
    vertex -316.93045650380526 52.758675012813335 74.99999999999963
    vertex -309.73930223061757 47.816185192214995 74.99999999999928
    vertex -316.75063574329687 53.19280073162875 75.00000000000018
  endloop
endfacet
facet normal -7.512383487474898e-14 -1.28065531642885e-14 1.0
  outer loop
    vertex -316.75063574329687 53.19280073162875 75.00000000000018
    vertex -309.73930223061757 47.816185192214995 74.99999999999928
    vertex -316.6893022306172 53.65867501281331 75.00000000000018
  endloop
endfacet
facet normal -7.512383487474898e-14 -1.28065531642885e-14 1.0
  outer loop
    vertex -316.6893022306172 53.65867501281331 75.00000000000018
    vertex -309.73930223061757 47.816185192214995 74.99999999999928
    vertex -309.73930223065304 119.50116483343527 75.00000000000504
  endloop
endfacet
facet normal -7.512383487474898e-14 -1.28065531642885e-14 1.0
  outer loop
    vertex -309.73930223065304 119.50116483343527 75.00000000000504
    vertex -309.73930223061757 47.816185192214995 74.99999999999928
    vertex -309.7393022306233 59.50116483341172 75.00000000000018
  endloop
endfacet
facet normal -7.512383487474898e-14 -1.28065531642885e-14 1.0
  outer loop
    vertex -327.23930223061717 189.49395451489457 75.00000000000108
    vertex -319.9615454170508 172.84575709452938 75.00000000000045
    vertex -309.7393022306176 189.49395451489457 75.00000000000054
  endloop
endfacet
facet normal -7.512383487474898e-14 -1.28065531642885e-14 1.0
  outer loop
    vertex -319.9615454170508 172.84575709452938 75.00000000000045
    vertex -327.23930223061717 189.49395451489457 75.00000000000108
    vertex -320.13137613530864 172.4357494712037 75.00000000000054
  endloop
endfacet
facet normal -7.512383487474898e-14 -1.28065531642885e-14 1.0
  outer loop
    vertex -320.13137613530864 172.4357494712037 75.00000000000054
    vertex -327.23930223061717 189.49395451489457 75.00000000000108
    vertex -320.1893022306173 171.99575709452938 75.00000000000054
  endloop
endfacet
facet normal -7.512383487474898e-14 -1.28065531642885e-14 1.0
  outer loop
    vertex -320.1893022306173 171.99575709452938 75.00000000000054
    vertex -327.23930223061717 189.49395451489457 75.00000000000108
    vertex -327.239302230617 47.8161851922149 74.99999999999919
  endloop
endfacet
facet normal -7.512383487474898e-14 -1.28065531642885e-14 1.0
  outer loop
    vertex -320.1893022306173 171.99575709452938 75.00000000000054
    vertex -327.239302230617 47.8161851922149 74.99999999999919
    vertex -320.2893022306173 53.65867501281331 74.99999999999982
  endloop
endfacet
facet normal -7.512383487474898e-14 -1.28065531642885e-14 1.0
  outer loop
    vertex -320.1893022306173 171.99575709452938 75.00000000000054
    vertex -320.2893022306173 53.65867501281331 74.99999999999982
    vertex -320.2279687179376 54.12454929399787 74.99999999999982
  endloop
endfacet
facet normal -7.512383487474898e-14 -1.28065531642885e-14 1.0
  outer loop
    vertex -320.1893022306173 171.99575709452938 75.00000000000054
    vertex -320.2279687179376 54.12454929399787 74.99999999999982
    vertex -320.1893022306173 136.9993622538 75.00000000000108
  endloop
endfacet
facet normal -7.512383487474898e-14 -1.28065531642885e-14 1.0
  outer loop
    vertex -309.7393022306176 189.49395451489457 75.00000000000054
    vertex -319.9615454170508 172.84575709452938 75.00000000000045
    vertex -319.6913837586346 173.19783862254698 75.00000000000036
  endloop
endfacet
facet normal -7.512383487474898e-14 -1.28065531642885e-14 1.0
  outer loop
    vertex -309.7393022306176 189.49395451489457 75.00000000000054
    vertex -319.6913837586346 173.19783862254698 75.00000000000036
    vertex -319.3393022306174 173.46800028096334 75.00000000000018
  endloop
endfacet
facet normal -7.512383487474898e-14 -1.28065531642885e-14 1.0
  outer loop
    vertex -309.7393022306176 189.49395451489457 75.00000000000054
    vertex -319.3393022306174 173.46800028096334 75.00000000000018
    vertex -318.92929460729175 173.6378309992212 75.00000000000018
  endloop
endfacet
facet normal -7.512383487474898e-14 -1.28065531642885e-14 1.0
  outer loop
    vertex -309.7393022306176 189.49395451489457 75.00000000000054
    vertex -318.92929460729175 173.6378309992212 75.00000000000018
    vertex -318.48930223061745 173.69575709452982 75.00000000000018
  endloop
endfacet
facet normal -7.512383487474898e-14 -1.28065531642885e-14 1.0
  outer loop
    vertex -309.7393022306176 189.49395451489457 75.00000000000054
    vertex -318.48930223061745 173.69575709452982 75.00000000000018
    vertex -318.0493098539432 173.6378309992212 75.00000000000009
  endloop
endfacet
facet normal -7.512383487474898e-14 -1.28065531642885e-14 1.0
  outer loop
    vertex -309.7393022306176 189.49395451489457 75.00000000000054
    vertex -318.0493098539432 173.6378309992212 75.00000000000009
    vertex -317.6393022306175 173.46800028096334 75.00000000000009
  endloop
endfacet
facet normal -7.512383487474898e-14 -1.28065531642885e-14 1.0
  outer loop
    vertex -309.7393022306176 189.49395451489457 75.00000000000054
    vertex -317.6393022306175 173.46800028096334 75.00000000000009
    vertex -317.28722070260034 173.19783862254698 75.0
  endloop
endfacet
facet normal -7.512383487474898e-14 -1.28065531642885e-14 1.0
  outer loop
    vertex -309.7393022306176 189.49395451489457 75.00000000000054
    vertex -317.28722070260034 173.19783862254698 75.0
    vertex -317.01705904418367 172.84575709452938 74.99999999999982
  endloop
endfacet
facet normal -7.512383487474898e-14 -1.28065531642885e-14 1.0
  outer loop
    vertex -309.7393022306176 189.49395451489457 75.00000000000054
    vertex -317.01705904418367 172.84575709452938 74.99999999999982
    vertex -316.8472283259258 172.4357494712037 74.99999999999946
  endloop
endfacet
facet normal -7.512383487474898e-14 -1.28065531642885e-14 1.0
  outer loop
    vertex -309.7393022306176 189.49395451489457 75.00000000000054
    vertex -316.8472283259258 172.4357494712037 74.99999999999946
    vertex -316.78930223061724 171.99575709452938 74.99999999999955
  endloop
endfacet
facet normal -7.512383487474898e-14 -1.28065531642885e-14 1.0
  outer loop
    vertex -309.7393022306176 189.49395451489457 75.00000000000054
    vertex -316.78930223061724 171.99575709452938 74.99999999999955
    vertex -316.75063574329687 54.12454929399787 75.00000000000018
  endloop
endfacet
facet normal -7.512383487474898e-14 -1.28065531642885e-14 1.0
  outer loop
    vertex -309.7393022306176 189.49395451489457 75.00000000000054
    vertex -316.75063574329687 54.12454929399787 75.00000000000018
    vertex -316.6893022306172 53.65867501281331 75.00000000000018
  endloop
endfacet
facet normal -7.512383487474898e-14 -1.28065531642885e-14 1.0
  outer loop
    vertex -309.7393022306176 189.49395451489457 75.00000000000054
    vertex -316.6893022306172 53.65867501281331 75.00000000000018
    vertex -309.73930223065304 119.50116483343527 75.00000000000504
  endloop
endfacet
facet normal -7.512383487474898e-14 -1.28065531642885e-14 1.0
  outer loop
    vertex -320.13137613530864 137.4393546304743 75.00000000000072
    vertex -320.1893022306173 171.99575709452938 75.00000000000054
    vertex -320.1893022306173 136.9993622538 75.00000000000108
  endloop
endfacet
facet normal -7.512383487474898e-14 -1.28065531642885e-14 1.0
  outer loop
    vertex -320.1893022306173 171.99575709452938 75.00000000000054
    vertex -320.13137613530864 137.4393546304743 75.00000000000072
    vertex -320.13137613530864 171.55576471785508 75.00000000000054
  endloop
endfacet
facet normal -7.512383487474898e-14 -1.28065531642885e-14 1.0
  outer loop
    vertex -320.13137613530864 171.55576471785508 75.00000000000054
    vertex -320.13137613530864 137.4393546304743 75.00000000000072
    vertex -319.9615454170508 137.8493622538 75.00000000000072
  endloop
endfacet
facet normal -7.512383487474898e-14 -1.28065531642885e-14 1.0
  outer loop
    vertex -320.13137613530864 171.55576471785508 75.00000000000054
    vertex -319.9615454170508 137.8493622538 75.00000000000072
    vertex -319.9615454170508 171.14575709452942 75.00000000000009
  endloop
endfacet
facet normal -7.512383487474898e-14 -1.28065531642885e-14 1.0
  outer loop
    vertex -319.9615454170508 171.14575709452942 75.00000000000009
    vertex -319.9615454170508 137.8493622538 75.00000000000072
    vertex -319.6913837586344 138.20144378181715 75.00000000000072
  endloop
endfacet
facet normal -7.512383487474898e-14 -1.28065531642885e-14 1.0
  outer loop
    vertex -319.9615454170508 171.14575709452942 75.00000000000009
    vertex -319.6913837586344 138.20144378181715 75.00000000000072
    vertex -319.6913837586344 170.79367556651226 75.00000000000009
  endloop
endfacet
facet normal -7.512383487474898e-14 -1.28065531642885e-14 1.0
  outer loop
    vertex -319.6913837586344 170.79367556651226 75.00000000000009
    vertex -319.6913837586344 138.20144378181715 75.00000000000072
    vertex -319.33930223061725 138.4716054402336 75.00000000000081
  endloop
endfacet
facet normal -7.512383487474898e-14 -1.28065531642885e-14 1.0
  outer loop
    vertex -319.6913837586344 170.79367556651226 75.00000000000009
    vertex -319.33930223061725 138.4716054402336 75.00000000000081
    vertex -319.33930223061725 170.5235139080958 75.0
  endloop
endfacet
facet normal -7.512383487474898e-14 -1.28065531642885e-14 1.0
  outer loop
    vertex -319.33930223061725 170.5235139080958 75.0
    vertex -319.33930223061725 138.4716054402336 75.00000000000081
    vertex -318.9292946072916 138.64143615849144 75.00000000000081
  endloop
endfacet
facet normal -7.512383487474898e-14 -1.28065531642885e-14 1.0
  outer loop
    vertex -319.33930223061725 170.5235139080958 75.0
    vertex -318.9292946072916 138.64143615849144 75.00000000000081
    vertex -318.9292946072915 170.35368318983794 75.0
  endloop
endfacet
facet normal -7.512383487474898e-14 -1.28065531642885e-14 1.0
  outer loop
    vertex -318.9292946072915 170.35368318983794 75.0
    vertex -318.9292946072916 138.64143615849144 75.00000000000081
    vertex -318.4893022306173 138.6993622538 75.0000000000009
  endloop
endfacet
facet normal -7.512383487474898e-14 -1.28065531642885e-14 1.0
  outer loop
    vertex -318.9292946072915 170.35368318983794 75.0
    vertex -318.4893022306173 138.6993622538 75.0000000000009
    vertex -318.4893022306173 170.29575709452942 74.99999999999991
  endloop
endfacet
facet normal -7.512383487474898e-14 -1.28065531642885e-14 1.0
  outer loop
    vertex -318.4893022306173 170.29575709452942 74.99999999999991
    vertex -318.4893022306173 138.6993622538 75.0000000000009
    vertex -318.049309853943 138.64143615849144 75.00000000000108
  endloop
endfacet
facet normal -7.512383487474898e-14 -1.28065531642885e-14 1.0
  outer loop
    vertex -318.4893022306173 170.29575709452942 74.99999999999991
    vertex -318.049309853943 138.64143615849144 75.00000000000108
    vertex -318.049309853943 170.35368318983794 74.99999999999982
  endloop
endfacet
facet normal -7.512383487474898e-14 -1.28065531642885e-14 1.0
  outer loop
    vertex -318.049309853943 170.35368318983794 74.99999999999982
    vertex -318.049309853943 138.64143615849144 75.00000000000108
    vertex -317.6393022306173 138.4716054402336 75.00000000000108
  endloop
endfacet
facet normal -7.512383487474898e-14 -1.28065531642885e-14 1.0
  outer loop
    vertex -318.049309853943 170.35368318983794 74.99999999999982
    vertex -317.6393022306173 138.4716054402336 75.00000000000108
    vertex -317.6393022306173 170.5235139080958 74.99999999999973
  endloop
endfacet
facet normal -7.512383487474898e-14 -1.28065531642885e-14 1.0
  outer loop
    vertex -317.6393022306173 170.5235139080958 74.99999999999973
    vertex -317.6393022306173 138.4716054402336 75.00000000000108
    vertex -317.28722070260017 138.20144378181715 75.00000000000153
  endloop
endfacet
facet normal -7.512383487474898e-14 -1.28065531642885e-14 1.0
  outer loop
    vertex -317.6393022306173 170.5235139080958 74.99999999999973
    vertex -317.28722070260017 138.20144378181715 75.00000000000153
    vertex -317.28722070260017 170.79367556651226 74.99999999999973
  endloop
endfacet
facet normal -7.512383487474898e-14 -1.28065531642885e-14 1.0
  outer loop
    vertex -317.28722070260017 170.79367556651226 74.99999999999973
    vertex -317.28722070260017 138.20144378181715 75.00000000000153
    vertex -317.01705904418367 137.8493622538 75.00000000000153
  endloop
endfacet
facet normal -7.512383487474898e-14 -1.28065531642885e-14 1.0
  outer loop
    vertex -317.28722070260017 170.79367556651226 74.99999999999973
    vertex -317.01705904418367 137.8493622538 75.00000000000153
    vertex -317.01705904418367 171.14575709452942 74.99999999999963
  endloop
endfacet
facet normal -7.512383487474898e-14 -1.28065531642885e-14 1.0
  outer loop
    vertex -317.01705904418367 171.14575709452942 74.99999999999963
    vertex -317.01705904418367 137.8493622538 75.00000000000153
    vertex -316.8472283259258 137.4393546304743 75.00000000000162
  endloop
endfacet
facet normal -7.512383487474898e-14 -1.28065531642885e-14 1.0
  outer loop
    vertex -317.01705904418367 171.14575709452942 74.99999999999963
    vertex -316.8472283259258 137.4393546304743 75.00000000000162
    vertex -316.8472283259258 171.55576471785508 74.99999999999955
  endloop
endfacet
facet normal -7.512383487474898e-14 -1.28065531642885e-14 1.0
  outer loop
    vertex -316.8472283259258 171.55576471785508 74.99999999999955
    vertex -316.8472283259258 137.4393546304743 75.00000000000162
    vertex -316.78930223061724 136.9993622538 75.00000000000162
  endloop
endfacet
facet normal -7.512383487474898e-14 -1.28065531642885e-14 1.0
  outer loop
    vertex -316.8472283259258 171.55576471785508 74.99999999999955
    vertex -316.78930223061724 136.9993622538 75.00000000000162
    vertex -316.78930223061724 171.99575709452938 74.99999999999955
  endloop
endfacet
facet normal -0.3826834323650972 0.9238795325112839 -6.859568275210245e-14
  outer loop
    vertex -318.049309853943 135.35728834910856 75.00000000000108
    vertex -317.63930223061726 135.52711906736639 74.59999999999627
    vertex -318.04930985394293 135.35728834910853 74.59999999999627
  endloop
endfacet
facet normal -0.3826834323650972 0.9238795325112839 -6.859568275210245e-14
  outer loop
    vertex -317.63930223061726 135.52711906736639 74.59999999999627
    vertex -318.049309853943 135.35728834910856 75.00000000000108
    vertex -317.6393022306173 135.5271190673664 75.00000000000108
  endloop
endfacet
facet normal -0.3826834323650972 -0.9238795325112839 -4.689176409352603e-14
  outer loop
    vertex -317.6393022306173 138.4716054402336 75.00000000000108
    vertex -318.04930985394293 138.64143615849142 74.59999999999627
    vertex -317.63930223061726 138.47160544023356 74.59999999999627
  endloop
endfacet
facet normal -0.3826834323650972 -0.9238795325112839 -4.689176409352603e-14
  outer loop
    vertex -318.04930985394293 138.64143615849142 74.59999999999627
    vertex -317.6393022306173 138.4716054402336 75.00000000000108
    vertex -318.049309853943 138.64143615849144 75.00000000000108
  endloop
endfacet
endsolid Development Mockup rev2
