solid Development Mockup Revision 3.2_2
facet normal 0.9914448613738094 -1.1572405279947472e-14 -0.13052619222005954
  outer loop
    vertex 145.78506240012229 504.8138584165059 127.86058111343236
    vertex 147.9658095176221 504.8138584165056 144.42499999999362
    vertex 147.96580951762152 466.5120547587894 144.4249999999926
  endloop
endfacet
facet normal 0.9914448613738114 0.1305261922200452 6.411825344859487e-14
  outer loop
    vertex 23.03395786504565 468.99441666858655 152.0207541128157
    vertex 22.96580951762389 469.5120547587889 211.15000000001993
    vertex 23.033957865045743 468.9944166685839 211.15000000002007
  endloop
endfacet
facet normal 0.9914448613738114 0.1305261922200452 6.411825344859487e-14
  outer loop
    vertex 22.96580951762389 469.5120547587889 211.15000000001993
    vertex 23.03395786504565 468.99441666858655 152.0207541128157
    vertex 22.96580951762378 469.51205475879163 152.02075411281567
  endloop
endfacet
facet normal 0.6960900839215588 -0.717954451943908 -1.6548828471356153e-14
  outer loop
    vertex 147.96580951762152 466.5120547587894 144.4249999999926
    vertex 145.1916715865853 463.82239958637876 206.3499999999926
    vertex 145.19167158658485 463.82239958637996 144.42499999998745
  endloop
endfacet
facet normal 0.6960900839215588 -0.717954451943908 -1.6548828471356153e-14
  outer loop
    vertex 145.1916715865853 463.82239958637876 206.3499999999926
    vertex 147.96580951762152 466.5120547587894 144.4249999999926
    vertex 147.96580951762212 466.5120547587882 206.34999999999278
  endloop
endfacet
facet normal 0.6087614290087254 -2.2745617906006186e-14 0.7933533402912316
  outer loop
    vertex 53.96580951762229 504.8138584165072 92.46347577292799
    vertex 41.53940264642931 507.8138584165068 101.99859312880122
    vertex 41.53940264642931 504.81385841650683 101.99859312880113
  endloop
endfacet
facet normal 0.6087614290087254 -2.2745617906006186e-14 0.7933533402912316
  outer loop
    vertex 41.53940264642931 507.8138584165068 101.99859312880122
    vertex 53.96580951762229 504.8138584165072 92.46347577292799
    vertex 53.96580951762229 507.8138584165072 92.46347577292808
  endloop
endfacet
facet normal -0.6087614290087154 -2.2745617906006236e-14 0.7933533402912392
  outer loop
    vertex 126.392216388815 504.81385841650683 101.99859312880061
    vertex 113.96580951762208 507.8138584165055 92.46347577292731
    vertex 113.96580951762208 504.8138584165056 92.46347577292723
  endloop
endfacet
facet normal -0.6087614290087154 -2.2745617906006236e-14 0.7933533402912392
  outer loop
    vertex 113.96580951762208 507.8138584165055 92.46347577292731
    vertex 126.392216388815 504.81385841650683 101.99859312880061
    vertex 126.392216388815 507.8138584165068 101.9985931288007
  endloop
endfacet
facet normal -0.37571766076358154 0.7868190519136005 0.48964478853156945
  outer loop
    vertex 113.4658095176242 467.51205475878953 152.02075411281567
    vertex 126.392216388815 504.81385841650683 101.99859312880061
    vertex 113.96580951762208 504.8138584165056 92.46347577292723
  endloop
endfacet
facet normal -1.0 -2.2444015971033008e-14 -1.2891275348909475e-13
  outer loop
    vertex 144.96580951762277 469.5120547587889 211.15000000001885
    vertex 144.96580951762215 502.8138584165073 152.02075411281714
    vertex 144.9658095176244 469.51205475878885 152.02075411281564
  endloop
endfacet
facet normal -1.0 -2.2444015971033008e-14 -1.2891275348909475e-13
  outer loop
    vertex 144.96580951762215 502.8138584165073 152.02075411281714
    vertex 144.96580951762277 469.5120547587889 211.15000000001885
    vertex 144.965809517623 502.81385841650587 211.14999999999384
  endloop
endfacet
facet normal -0.2961437237854625 0.7149541943763608 0.6333556621726285
  outer loop
    vertex 143.48344760782945 467.58020310621066 152.0207541128157
    vertex 143.9658095176244 467.78000395121995 152.02075411281567
    vertex 126.392216388815 504.81385841650683 101.99859312880061
  endloop
endfacet
facet normal 0.793353340291239 -1.7453326477536016e-14 0.6087614290087158
  outer loop
    vertex 41.53940264642931 504.81385841650683 101.99859312880113
    vertex 32.00428529055589 507.8138584165065 114.42499999999374
    vertex 32.00428529055589 504.81385841650655 114.42499999999364
  endloop
endfacet
facet normal 0.793353340291239 -1.7453326477536016e-14 0.6087614290087158
  outer loop
    vertex 32.00428529055589 507.8138584165065 114.42499999999374
    vertex 41.53940264642931 504.81385841650683 101.99859312880113
    vertex 41.53940264642931 507.8138584165068 101.99859312880122
  endloop
endfacet
facet normal -0.9914448613738086 -0.1305261922200664 2.3293010243677226e-13
  outer loop
    vertex 144.8976611702011 503.3314965067109 211.1499999999938
    vertex 144.96580951762215 502.8138584165073 152.02075411281714
    vertex 144.965809517623 502.81385841650587 211.14999999999384
  endloop
endfacet
facet normal -0.9914448613738086 -0.1305261922200664 2.3293010243677226e-13
  outer loop
    vertex 144.96580951762215 502.8138584165073 152.02075411281714
    vertex 144.8976611702011 503.3314965067109 211.1499999999938
    vertex 144.89766117020028 503.33149650671237 152.02075411281695
  endloop
endfacet
facet normal 0.9914448613738112 -3.742215157086662e-15 0.13052619222004602
  outer loop
    vertex 26.010259940278214 504.81385841650683 128.89585729384322
    vertex 23.965809517622805 507.81385841650564 144.42499999999418
    vertex 23.965809517622805 504.81385841650564 144.4249999999941
  endloop
endfacet
facet normal 0.9914448613738112 -3.742215157086662e-15 0.13052619222004602
  outer loop
    vertex 23.965809517622805 507.81385841650564 144.42499999999418
    vertex 26.010259940278214 504.81385841650683 128.89585729384322
    vertex 26.010259940278214 507.8138584165061 128.8958572938433
  endloop
endfacet
facet normal -0.13052619222004602 -2.8424946170143615e-14 0.9914448613738112
  outer loop
    vertex 99.4949522237737 504.81385841650564 86.46945042264954
    vertex 83.96580951762225 507.81385841650734 84.4249999999934
    vertex 83.96580951762225 504.8138584165074 84.42499999999332
  endloop
endfacet
facet normal -0.13052619222004602 -2.8424946170143615e-14 0.9914448613738112
  outer loop
    vertex 83.96580951762225 507.81385841650734 84.4249999999934
    vertex 99.4949522237737 504.81385841650564 86.46945042264954
    vertex 99.4949522237737 507.81385841650564 86.46945042264963
  endloop
endfacet
facet normal 0.51843556271878 -0.5347197566759749 -0.667307537143743
  outer loop
    vertex 147.96580951762152 466.5120547587894 144.4249999999926
    vertex 145.19167158658485 463.82239958637996 144.42499999998745
    vertex 129.22064351356093 504.81385841650774 99.17016600405512
  endloop
endfacet
facet normal 6.992226394788901e-14 2.8192552614232515e-13 1.0
  outer loop
    vertex 22.73994744866152 464.8223995863756 211.15000000002001
    vertex 23.033957865045743 468.9944166685839 211.15000000002007
    vertex 22.96580951762389 469.5120547587889 211.15000000001993
  endloop
endfacet
facet normal 6.992226394788901e-14 2.8192552614232515e-13 1.0
  outer loop
    vertex 23.033957865045743 468.9944166685839 211.15000000002007
    vertex 22.73994744866152 464.8223995863756 211.15000000002001
    vertex 23.233758710055017 468.5120547587889 211.1500000000206
  endloop
endfacet
facet normal 6.992226394788901e-14 2.8192552614232515e-13 1.0
  outer loop
    vertex 23.233758710055017 468.5120547587889 211.1500000000206
    vertex 22.73994744866152 464.8223995863756 211.15000000002001
    vertex 23.551595955250786 468.0978411964158 211.1500000000207
  endloop
endfacet
facet normal 6.992226394788901e-14 2.8192552614232515e-13 1.0
  outer loop
    vertex 23.551595955250786 468.0978411964158 211.1500000000207
    vertex 22.73994744866152 464.8223995863756 211.15000000002001
    vertex 23.96580951762389 467.78000395122007 211.15000000002075
  endloop
endfacet
facet normal 6.992226394788901e-14 2.8192552614232515e-13 1.0
  outer loop
    vertex 23.96580951762389 467.78000395122007 211.15000000002075
    vertex 22.73994744866152 464.8223995863756 211.15000000002001
    vertex 24.448171427418842 467.5802031062108 211.15000000002038
  endloop
endfacet
facet normal 6.992226394788901e-14 2.8192552614232515e-13 1.0
  outer loop
    vertex 24.448171427418842 467.5802031062108 211.15000000002038
    vertex 22.73994744866152 464.8223995863756 211.15000000002001
    vertex 24.965809517623885 467.5120547587889 211.1500000000197
  endloop
endfacet
facet normal 6.992226394788901e-14 2.8192552614232515e-13 1.0
  outer loop
    vertex 24.965809517623885 467.5120547587889 211.1500000000197
    vertex 22.73994744866152 464.8223995863756 211.15000000002001
    vertex 145.19167158658507 464.8223995863756 211.150000000017
  endloop
endfacet
facet normal 6.992226394788901e-14 2.8192552614232515e-13 1.0
  outer loop
    vertex 24.965809517623885 467.5120547587889 211.1500000000197
    vertex 145.19167158658507 464.8223995863756 211.150000000017
    vertex 142.9658095176228 467.5120547587889 211.15000000001854
  endloop
endfacet
facet normal 6.992226394788901e-14 2.8192552614232515e-13 1.0
  outer loop
    vertex 142.9658095176228 467.5120547587889 211.15000000001854
    vertex 145.19167158658507 464.8223995863756 211.150000000017
    vertex 143.48344760782783 467.5802031062108 211.15000000001845
  endloop
endfacet
facet normal 6.992226394788901e-14 2.8192552614232515e-13 1.0
  outer loop
    vertex 143.48344760782783 467.5802031062108 211.15000000001845
    vertex 145.19167158658507 464.8223995863756 211.150000000017
    vertex 143.9658095176228 467.78000395122007 211.1500000000184
  endloop
endfacet
facet normal 6.992226394788901e-14 2.8192552614232515e-13 1.0
  outer loop
    vertex 143.9658095176228 467.78000395122007 211.1500000000184
    vertex 145.19167158658507 464.8223995863756 211.150000000017
    vertex 144.38002307999588 468.0978411964158 211.15000000001834
  endloop
endfacet
facet normal 6.992226394788901e-14 2.8192552614232515e-13 1.0
  outer loop
    vertex 144.38002307999588 468.0978411964158 211.15000000001834
    vertex 145.19167158658507 464.8223995863756 211.150000000017
    vertex 144.69786032519167 468.51205475878896 211.1500000000183
  endloop
endfacet
facet normal 6.992226394788901e-14 2.8192552614232515e-13 1.0
  outer loop
    vertex 144.69786032519167 468.51205475878896 211.1500000000183
    vertex 145.19167158658507 464.8223995863756 211.150000000017
    vertex 144.89766117020093 468.9944166685839 211.15000000001825
  endloop
endfacet
facet normal 6.992226394788901e-14 2.8192552614232515e-13 1.0
  outer loop
    vertex 144.89766117020093 468.9944166685839 211.15000000001825
    vertex 145.19167158658507 464.8223995863756 211.150000000017
    vertex 144.96580951762277 469.5120547587889 211.15000000001885
  endloop
endfacet
facet normal 6.992226394788901e-14 2.8192552614232515e-13 1.0
  outer loop
    vertex 144.96580951762277 469.5120547587889 211.15000000001885
    vertex 145.19167158658507 464.8223995863756 211.150000000017
    vertex 144.965809517623 502.81385841650587 211.14999999999384
  endloop
endfacet
facet normal 6.992226394788901e-14 2.8192552614232515e-13 1.0
  outer loop
    vertex 20.965809517624436 507.8138584165058 211.15000000002016
    vertex 24.96580951762391 504.81385841650587 211.1500000000203
    vertex 146.96580951762178 507.813858416506 211.1499999999929
  endloop
endfacet
facet normal 6.992226394788901e-14 2.8192552614232515e-13 1.0
  outer loop
    vertex 24.96580951762391 504.81385841650587 211.1500000000203
    vertex 20.965809517624436 507.8138584165058 211.15000000002016
    vertex 24.448171427418863 504.745710069084 211.1500000000198
  endloop
endfacet
facet normal 6.992226394788901e-14 2.8192552614232515e-13 1.0
  outer loop
    vertex 24.448171427418863 504.745710069084 211.1500000000198
    vertex 20.965809517624436 507.8138584165058 211.15000000002016
    vertex 23.96580951762391 504.5459092240747 211.15000000001987
  endloop
endfacet
facet normal 6.992226394788901e-14 2.8192552614232515e-13 1.0
  outer loop
    vertex 23.96580951762391 504.5459092240747 211.15000000001987
    vertex 20.965809517624436 507.8138584165058 211.15000000002016
    vertex 23.55159595525081 504.228071978879 211.15000000002001
  endloop
endfacet
facet normal 6.992226394788901e-14 2.8192552614232515e-13 1.0
  outer loop
    vertex 23.55159595525081 504.228071978879 211.15000000002001
    vertex 20.965809517624436 507.8138584165058 211.15000000002016
    vertex 23.233758710055017 503.8138584165058 211.15000000002016
  endloop
endfacet
facet normal 6.992226394788901e-14 2.8192552614232515e-13 1.0
  outer loop
    vertex 23.233758710055017 503.8138584165058 211.15000000002016
    vertex 20.965809517624436 507.8138584165058 211.15000000002016
    vertex 23.033957865045764 503.3314965067109 211.1500000000203
  endloop
endfacet
facet normal 6.992226394788901e-14 2.8192552614232515e-13 1.0
  outer loop
    vertex 23.033957865045764 503.3314965067109 211.1500000000203
    vertex 20.965809517624436 507.8138584165058 211.15000000002016
    vertex 22.965809517623914 502.81385841650587 211.15000000002001
  endloop
endfacet
facet normal 6.992226394788901e-14 2.8192552614232515e-13 1.0
  outer loop
    vertex 22.965809517623914 502.81385841650587 211.15000000002001
    vertex 20.965809517624436 507.8138584165058 211.15000000002016
    vertex 20.965809517624887 466.51205475878896 211.1500000000203
  endloop
endfacet
facet normal 6.992226394788901e-14 2.8192552614232515e-13 1.0
  outer loop
    vertex 22.965809517623914 502.81385841650587 211.15000000002001
    vertex 20.965809517624887 466.51205475878896 211.1500000000203
    vertex 21.689947448659865 465.8223995863757 211.15000000001953
  endloop
endfacet
facet normal 6.992226394788901e-14 2.8192552614232515e-13 1.0
  outer loop
    vertex 22.965809517623914 502.81385841650587 211.15000000002001
    vertex 21.689947448659865 465.8223995863757 211.15000000001953
    vertex 22.73994744866152 464.8223995863756 211.15000000002001
  endloop
endfacet
facet normal 6.992226394788901e-14 2.8192552614232515e-13 1.0
  outer loop
    vertex 22.965809517623914 502.81385841650587 211.15000000002001
    vertex 22.73994744866152 464.8223995863756 211.15000000002001
    vertex 22.96580951762389 469.5120547587889 211.15000000001993
  endloop
endfacet
facet normal 6.992226394788901e-14 2.8192552614232515e-13 1.0
  outer loop
    vertex 146.96580951762178 507.813858416506 211.1499999999929
    vertex 24.96580951762391 504.81385841650587 211.1500000000203
    vertex 142.9658095176228 504.81385841650604 211.14999999999395
  endloop
endfacet
facet normal 6.992226394788901e-14 2.8192552614232515e-13 1.0
  outer loop
    vertex 146.96580951762178 507.813858416506 211.1499999999929
    vertex 142.9658095176228 504.81385841650604 211.14999999999395
    vertex 143.4834476078279 504.74571006908417 211.14999999999375
  endloop
endfacet
facet normal 6.992226394788901e-14 2.8192552614232515e-13 1.0
  outer loop
    vertex 146.96580951762178 507.813858416506 211.1499999999929
    vertex 143.4834476078279 504.74571006908417 211.14999999999375
    vertex 143.9658095176229 504.5459092240749 211.14999999999336
  endloop
endfacet
facet normal 6.992226394788901e-14 2.8192552614232515e-13 1.0
  outer loop
    vertex 146.96580951762178 507.813858416506 211.1499999999929
    vertex 143.9658095176229 504.5459092240749 211.14999999999336
    vertex 144.38002307999602 504.22807197887903 211.14999999999336
  endloop
endfacet
facet normal 6.992226394788901e-14 2.8192552614232515e-13 1.0
  outer loop
    vertex 146.96580951762178 507.813858416506 211.1499999999929
    vertex 144.38002307999602 504.22807197887903 211.14999999999336
    vertex 144.69786032519184 503.813858416506 211.14999999999336
  endloop
endfacet
facet normal 6.992226394788901e-14 2.8192552614232515e-13 1.0
  outer loop
    vertex 146.96580951762178 507.813858416506 211.1499999999929
    vertex 144.69786032519184 503.813858416506 211.14999999999336
    vertex 144.8976611702011 503.3314965067109 211.1499999999938
  endloop
endfacet
facet normal 6.992226394788901e-14 2.8192552614232515e-13 1.0
  outer loop
    vertex 146.96580951762178 507.813858416506 211.1499999999929
    vertex 144.8976611702011 503.3314965067109 211.1499999999938
    vertex 144.965809517623 502.81385841650587 211.14999999999384
  endloop
endfacet
facet normal 6.992226394788901e-14 2.8192552614232515e-13 1.0
  outer loop
    vertex 146.96580951762178 507.813858416506 211.1499999999929
    vertex 144.965809517623 502.81385841650587 211.14999999999384
    vertex 145.19167158658507 464.8223995863756 211.150000000017
  endloop
endfacet
facet normal 6.992226394788901e-14 2.8192552614232515e-13 1.0
  outer loop
    vertex 146.96580951762178 507.813858416506 211.1499999999929
    vertex 145.19167158658507 464.8223995863756 211.150000000017
    vertex 146.96580951762118 466.51205475878896 211.15000000002095
  endloop
endfacet
facet normal 0.6401357689371078 0.49119345147761295 0.5907242931798283
  outer loop
    vertex 41.53940264642931 504.81385841650683 101.99859312880113
    vertex 23.233758710054907 468.5120547587916 152.02075411281587
    vertex 23.551595955250697 468.0978411964185 152.02075411281612
  endloop
endfacet
facet normal 0.9238795325112928 0.38268343236507524 7.61130205235604e-14
  outer loop
    vertex 23.233758710054907 468.5120547587916 152.02075411281587
    vertex 23.033957865045743 468.9944166685839 211.15000000002007
    vertex 23.233758710055017 468.5120547587889 211.1500000000206
  endloop
endfacet
facet normal 0.9238795325112928 0.38268343236507524 7.61130205235604e-14
  outer loop
    vertex 23.033957865045743 468.9944166685839 211.15000000002007
    vertex 23.233758710054907 468.5120547587916 152.02075411281587
    vertex 23.03395786504565 468.99441666858655 152.0207541128157
  endloop
endfacet
facet normal -1.0 -2.437489222023496e-14 1.1514863136961985e-13
  outer loop
    vertex 20.965809517624436 507.8138584165058 211.15000000002016
    vertex 20.965809517625246 466.51205475878896 208.349999999994
    vertex 20.965809517624887 466.51205475878896 211.1500000000203
  endloop
endfacet
facet normal -1.0 -2.437489222023496e-14 1.1514863136961985e-13
  outer loop
    vertex 20.965809517625246 466.51205475878896 208.349999999994
    vertex 20.965809517624436 507.8138584165058 211.15000000002016
    vertex 20.9658095176234 507.813858416506 208.3499999999937
  endloop
endfacet
facet normal 0.47507855089409934 0.6191344216183068 0.625278288802456
  outer loop
    vertex 41.53940264642931 504.81385841650683 101.99859312880113
    vertex 23.551595955250697 468.0978411964185 152.02075411281612
    vertex 23.965809517623775 467.78000395122274 152.02075411281604
  endloop
endfacet
facet normal 1.0 5.462865834376829e-15 -1.722193816110522e-13
  outer loop
    vertex 22.96580951762378 469.51205475879163 152.02075411281567
    vertex 22.965809517623914 502.81385841650587 211.15000000002001
    vertex 22.96580951762389 469.5120547587889 211.15000000001993
  endloop
endfacet
facet normal 1.0 5.462865834376829e-15 -1.722193816110522e-13
  outer loop
    vertex 22.965809517623914 502.81385841650587 211.15000000002001
    vertex 22.96580951762378 469.51205475879163 152.02075411281567
    vertex 22.96580951762283 502.81385841650877 152.02075411281749
  endloop
endfacet
facet normal -2.0764808461609592e-14 -0.741155896908369 -0.6713329550066429
  outer loop
    vertex 22.73994744866105 463.82239958638047 144.42499999999035
    vertex 38.71097552168363 504.8138584165079 99.17016600405566
    vertex 53.35287848314193 463.8223995863803 144.42499999998967
  endloop
endfacet
facet normal -0.9231899323357324 -0.3823977906196978 0.03863002152626458
  outer loop
    vertex 143.9658095176226 504.81385841650564 144.42499999999336
    vertex 144.89766117020028 503.33149650671237 152.02075411281695
    vertex 144.69786032519102 503.8138584165074 152.0207541128168
  endloop
endfacet
facet normal -1.3604246701253272e-14 -0.8296871063365102 -0.558228721563974
  outer loop
    vertex 114.5787405521039 463.82239958638013 144.4249999999881
    vertex 83.96580951762222 504.81385841650916 83.49999999999443
    vertex 102.68914584130684 504.8138584165091 83.49999999999427
  endloop
endfacet
facet normal -1.3604246701253272e-14 -0.8296871063365102 -0.558228721563974
  outer loop
    vertex 83.96580951762222 504.81385841650916 83.49999999999443
    vertex 114.5787405521039 463.82239958638013 144.4249999999881
    vertex 83.96580951762287 463.8223995863802 144.42499999998887
  endloop
endfacet
facet normal -0.9238795325113048 -0.3826834323650465 2.6230371045271604e-13
  outer loop
    vertex 144.69786032519184 503.813858416506 211.14999999999336
    vertex 144.89766117020028 503.33149650671237 152.02075411281695
    vertex 144.8976611702011 503.3314965067109 211.1499999999938
  endloop
endfacet
facet normal -0.9238795325113048 -0.3826834323650465 2.6230371045271604e-13
  outer loop
    vertex 144.89766117020028 503.33149650671237 152.02075411281695
    vertex 144.69786032519184 503.813858416506 211.14999999999336
    vertex 144.69786032519102 503.8138584165074 152.0207541128168
  endloop
endfacet
facet normal -0.9238795325112891 1.0971619692607534e-14 -0.38268343236508456
  outer loop
    vertex 135.92733374468892 507.81385841650473 174.4249999999935
    vertex 141.92135909496662 504.81385841650524 159.9541427061446
    vertex 135.92733374468892 504.8138584165048 174.4249999999934
  endloop
endfacet
facet normal -0.9238795325112891 1.0971619692607534e-14 -0.38268343236508456
  outer loop
    vertex 141.92135909496662 504.81385841650524 159.9541427061446
    vertex 135.92733374468892 507.81385841650473 174.4249999999935
    vertex 141.92135909496662 507.8138584165052 159.9541427061447
  endloop
endfacet
facet normal 0.6896551724129198 -0.7241379310353145 -2.1448213469252326e-13
  outer loop
    vertex 146.96580951762212 466.51205475878896 208.3499999999925
    vertex 145.19167158658507 464.8223995863756 211.150000000017
    vertex 145.19167158658533 464.8223995863795 208.3499999999875
  endloop
endfacet
facet normal 0.6896551724129198 -0.7241379310353145 -2.1448213469252326e-13
  outer loop
    vertex 145.19167158658507 464.8223995863756 211.150000000017
    vertex 146.96580951762212 466.51205475878896 208.3499999999925
    vertex 146.96580951762118 466.51205475878896 211.15000000002095
  endloop
endfacet
facet normal 0.9231899323356925 -0.3823977906197862 0.038630021526341984
  outer loop
    vertex 23.965809517622805 504.81385841650564 144.4249999999941
    vertex 23.233758710053937 503.8138584165087 152.02075411281746
    vertex 23.03395786504468 503.3314965067138 152.02075411281746
  endloop
endfacet
facet normal -0.3826834323651291 -0.9238795325112704 2.526430693256481e-13
  outer loop
    vertex 143.9658095176229 504.5459092240749 211.14999999999336
    vertex 143.48344760782706 504.74571006908565 152.0207541128169
    vertex 143.96580951762206 504.54590922407635 152.0207541128168
  endloop
endfacet
facet normal -0.3826834323651291 -0.9238795325112704 2.526430693256481e-13
  outer loop
    vertex 143.48344760782706 504.74571006908565 152.0207541128169
    vertex 143.9658095176229 504.5459092240749 211.14999999999336
    vertex 143.4834476078279 504.74571006908417 211.14999999999375
  endloop
endfacet
facet normal -0.1872073969262057 0.8721735958548642 0.4519586366358213
  outer loop
    vertex 83.96580951762402 467.51205475879044 152.02075411281558
    vertex 113.96580951762208 504.8138584165056 92.46347577292723
    vertex 99.4949522237737 504.81385841650564 86.46945042264954
  endloop
endfacet
facet normal 0.7933479552769558 -0.6087572969418776 -0.003684464396916594
  outer loop
    vertex 23.965809517622805 504.81385841650564 144.4249999999941
    vertex 23.551595955249727 504.2280719788818 152.020754112817
    vertex 23.233758710053937 503.8138584165087 152.02075411281746
  endloop
endfacet
facet normal -0.9238795325112541 0.3826834323651686 -8.66545706696673e-13
  outer loop
    vertex 144.69786032519167 468.51205475878896 211.1500000000183
    vertex 144.89766117020253 468.99441666858377 152.02075411281538
    vertex 144.69786032519326 468.5120547587889 152.02075411281527
  endloop
endfacet
facet normal -0.9238795325112541 0.3826834323651686 -8.66545706696673e-13
  outer loop
    vertex 144.89766117020253 468.99441666858377 152.02075411281538
    vertex 144.69786032519167 468.51205475878896 211.1500000000183
    vertex 144.89766117020093 468.9944166685839 211.15000000001825
  endloop
endfacet
facet normal -0.8944271909998354 -2.1928818122164047e-14 0.4472135955001194
  outer loop
    vertex 20.9658095176234 507.813858416506 208.3499999999937
    vertex 19.965809517623377 466.51205475878896 206.34999999999349
    vertex 20.965809517625246 466.51205475878896 208.349999999994
  endloop
endfacet
facet normal -0.8944271909998354 -2.1928818122164047e-14 0.4472135955001194
  outer loop
    vertex 19.965809517623377 466.51205475878896 206.34999999999349
    vertex 20.9658095176234 507.813858416506 208.3499999999937
    vertex 19.965809517623377 507.8138584165061 206.3499999999937
  endloop
endfacet
facet normal -0.6087614290086991 0.7933533402912518 -9.592973180218987e-13
  outer loop
    vertex 143.9658095176244 467.78000395121995 152.02075411281567
    vertex 144.38002307999588 468.0978411964158 211.15000000001834
    vertex 144.3800230799975 468.09784119641574 152.0207541128156
  endloop
endfacet
facet normal -0.6087614290086991 0.7933533402912518 -9.592973180218987e-13
  outer loop
    vertex 144.38002307999588 468.0978411964158 211.15000000001834
    vertex 143.9658095176244 467.78000395121995 152.02075411281567
    vertex 143.9658095176228 467.78000395122007 211.1500000000184
  endloop
endfacet
facet normal 0.9914448613740288 2.0696588498364074e-14 0.13052619221839432
  outer loop
    vertex 23.965809517622805 504.81385841650564 144.4249999999941
    vertex 22.96580951762283 502.81385841650877 152.02075411281749
    vertex 22.96580951762378 469.51205475879163 152.02075411281567
  endloop
endfacet
facet normal 1.4318621693785368e-14 -1.0 -6.746574656288107e-14
  outer loop
    vertex 147.9658095176209 504.8138584165096 83.49999999999409
    vertex 115.96580951762208 504.8138584165083 88.99937415779033
    vertex 102.68914584130684 504.8138584165091 83.49999999999427
  endloop
endfacet
facet normal 1.4318621693785368e-14 -1.0 -6.746574656288107e-14
  outer loop
    vertex 115.96580951762208 504.8138584165083 88.99937415779033
    vertex 147.9658095176209 504.8138584165096 83.49999999999409
    vertex 129.22064351356093 504.81385841650774 99.17016600405512
  endloop
endfacet
facet normal 1.4318621693785368e-14 -1.0 -6.746574656288107e-14
  outer loop
    vertex 129.22064351356093 504.81385841650774 99.17016600405512
    vertex 147.9658095176209 504.8138584165096 83.49999999999409
    vertex 139.39143535982595 504.8138584165071 112.42499999999406
  endloop
endfacet
facet normal 1.4318621693785368e-14 -1.0 -6.746574656288107e-14
  outer loop
    vertex 139.39143535982595 504.8138584165071 112.42499999999406
    vertex 147.9658095176209 504.8138584165096 83.49999999999409
    vertex 145.78506240012229 504.8138584165059 127.86058111343236
  endloop
endfacet
facet normal 1.4318621693785368e-14 -1.0 -6.746574656288107e-14
  outer loop
    vertex 145.78506240012229 504.8138584165059 127.86058111343236
    vertex 147.9658095176209 504.8138584165096 83.49999999999409
    vertex 147.9658095176221 504.8138584165056 144.42499999999362
  endloop
endfacet
facet normal -0.38268343236515967 0.9238795325112579 -9.080942128049065e-13
  outer loop
    vertex 143.48344760782945 467.58020310621066 152.0207541128157
    vertex 143.9658095176228 467.78000395122007 211.1500000000184
    vertex 143.9658095176244 467.78000395121995 152.02075411281567
  endloop
endfacet
facet normal -0.38268343236515967 0.9238795325112579 -9.080942128049065e-13
  outer loop
    vertex 143.9658095176228 467.78000395122007 211.1500000000184
    vertex 143.48344760782945 467.58020310621066 152.0207541128157
    vertex 143.48344760782783 467.5802031062108 211.15000000001845
  endloop
endfacet
facet normal 0.13052619222004477 2.8424946170143615e-14 -0.9914448613738113
  outer loop
    vertex 83.96580951762297 507.8138584165039 204.4249999999942
    vertex 68.43666681147174 504.81385841650405 202.38054957733792
    vertex 68.43666681147174 507.813858416504 202.380549577338
  endloop
endfacet
facet normal 0.13052619222004477 2.8424946170143615e-14 -0.9914448613738113
  outer loop
    vertex 68.43666681147174 504.81385841650405 202.38054957733792
    vertex 83.96580951762297 507.8138584165039 204.4249999999942
    vertex 83.96580951762297 504.81385841650393 204.42499999999413
  endloop
endfacet
facet normal 0.6087614290087158 2.2745617906006233e-14 -0.793353340291239
  outer loop
    vertex 53.96580951762295 507.8138584165041 196.38652422706036
    vertex 41.53940264642981 504.8138584165045 186.85140687118684
    vertex 41.53940264642981 507.81385841650444 186.85140687118692
  endloop
endfacet
facet normal 0.6087614290087158 2.2745617906006233e-14 -0.793353340291239
  outer loop
    vertex 41.53940264642981 504.8138584165045 186.85140687118684
    vertex 53.96580951762295 507.8138584165041 196.38652422706036
    vertex 53.96580951762295 504.8138584165041 196.38652422706025
  endloop
endfacet
facet normal -0.13052619222005574 2.84249461701436e-14 -0.9914448613738099
  outer loop
    vertex 99.49495222377404 507.813858416504 202.38054957733783
    vertex 83.96580951762297 504.81385841650393 204.42499999999413
    vertex 83.96580951762297 507.8138584165039 204.4249999999942
  endloop
endfacet
facet normal -0.13052619222005574 2.84249461701436e-14 -0.9914448613738099
  outer loop
    vertex 83.96580951762297 504.81385841650393 204.42499999999413
    vertex 99.49495222377404 507.813858416504 202.38054957733783
    vertex 99.49495222377404 504.81385841650405 202.38054957733775
  endloop
endfacet
facet normal 0.9238795325112844 1.0971619692607605e-14 -0.38268343236509583
  outer loop
    vertex 26.010259940278438 504.81385841650524 159.95414270614538
    vertex 32.0042852905563 507.81385841650473 174.42499999999416
    vertex 32.0042852905563 504.8138584165048 174.42499999999407
  endloop
endfacet
facet normal 0.9238795325112844 1.0971619692607605e-14 -0.38268343236509583
  outer loop
    vertex 32.0042852905563 507.81385841650473 174.42499999999416
    vertex 26.010259940278438 504.81385841650524 159.95414270614538
    vertex 26.010259940278438 507.8138584165052 159.95414270614546
  endloop
endfacet
facet normal -4.053140977986005e-15 -1.0 -1.5300908165297222e-14
  outer loop
    vertex 145.1916715865853 463.82239958637876 206.3499999999926
    vertex 114.5787405521039 463.82239958638013 144.4249999999881
    vertex 145.19167158658485 463.82239958637996 144.42499999998745
  endloop
endfacet
facet normal -4.053140977986005e-15 -1.0 -1.5300908165297222e-14
  outer loop
    vertex 114.5787405521039 463.82239958638013 144.4249999999881
    vertex 145.1916715865853 463.82239958637876 206.3499999999926
    vertex 83.96580951762287 463.8223995863802 144.42499999998887
  endloop
endfacet
facet normal -4.053140977986005e-15 -1.0 -1.5300908165297222e-14
  outer loop
    vertex 83.96580951762287 463.8223995863802 144.42499999998887
    vertex 145.1916715865853 463.82239958637876 206.3499999999926
    vertex 53.35287848314193 463.8223995863803 144.42499999998967
  endloop
endfacet
facet normal -4.053140977986005e-15 -1.0 -1.5300908165297222e-14
  outer loop
    vertex 53.35287848314193 463.8223995863803 144.42499999998967
    vertex 145.1916715865853 463.82239958637876 206.3499999999926
    vertex 22.73994744866105 463.82239958638047 144.42499999999035
  endloop
endfacet
facet normal -4.053140977986005e-15 -1.0 -1.5300908165297222e-14
  outer loop
    vertex 22.73994744866105 463.82239958638047 144.42499999999035
    vertex 145.1916715865853 463.82239958637876 206.3499999999926
    vertex 22.739947448661272 463.8223995863795 206.3499999999931
  endloop
endfacet
facet normal -0.6085231649561668 -0.7930428285323675 -0.027975521891679043
  outer loop
    vertex 143.96580951762206 504.54590922407635 152.0207541128168
    vertex 143.9658095176226 504.81385841650564 144.42499999999336
    vertex 144.3800230799952 504.2280719788805 152.02075411281666
  endloop
endfacet
facet normal 1.857419644994853e-14 0.8474958487890607 0.5308020217419198
  outer loop
    vertex 113.4658095176242 467.51205475878953 152.02075411281567
    vertex 113.96580951762208 504.8138584165056 92.46347577292723
    vertex 83.96580951762402 467.51205475879044 152.02075411281558
  endloop
endfacet
facet normal 0.1305069247342996 -0.9912985102900415 -0.01718156259309879
  outer loop
    vertex 24.965809517622827 504.8138584165087 152.0207541128173
    vertex 24.44817142741778 504.7457100690869 152.0207541128168
    vertex 23.965809517622805 504.81385841650564 144.4249999999941
  endloop
endfacet
facet normal 0.38248035680290055 -0.9233892647346799 -0.03257364629072436
  outer loop
    vertex 23.965809517622827 504.5459092240776 152.0207541128169
    vertex 23.965809517622805 504.81385841650564 144.4249999999941
    vertex 24.44817142741778 504.7457100690869 152.0207541128168
  endloop
endfacet
facet normal 7.086117077900527e-15 -0.8944271909995487 0.44721359550069245
  outer loop
    vertex 145.19167158658533 464.8223995863795 208.3499999999875
    vertex 22.739947448661272 463.8223995863795 206.3499999999931
    vertex 145.1916715865853 463.82239958637876 206.3499999999926
  endloop
endfacet
facet normal 7.086117077900527e-15 -0.8944271909995487 0.44721359550069245
  outer loop
    vertex 22.739947448661272 463.8223995863795 206.3499999999931
    vertex 145.19167158658533 464.8223995863795 208.3499999999875
    vertex 22.739947448661454 464.8223995863795 208.3499999999905
  endloop
endfacet
facet normal -0.608761429008787 -0.7933533402911844 2.746554490725629e-13
  outer loop
    vertex 144.38002307999602 504.22807197887903 211.14999999999336
    vertex 143.96580951762206 504.54590922407635 152.0207541128168
    vertex 144.3800230799952 504.2280719788805 152.02075411281666
  endloop
endfacet
facet normal -0.608761429008787 -0.7933533402911844 2.746554490725629e-13
  outer loop
    vertex 143.96580951762206 504.54590922407635 152.0207541128168
    vertex 144.38002307999602 504.22807197887903 211.14999999999336
    vertex 143.9658095176229 504.5459092240749 211.14999999999336
  endloop
endfacet
facet normal -0.6960900839214039 -0.7179544519440582 -7.656431411722168e-15
  outer loop
    vertex 22.739947448661272 463.8223995863795 206.3499999999931
    vertex 19.96580951762315 466.5120547587899 144.42499999999052
    vertex 22.73994744866105 463.82239958638047 144.42499999999035
  endloop
endfacet
facet normal -0.6960900839214039 -0.7179544519440582 -7.656431411722168e-15
  outer loop
    vertex 19.96580951762315 466.5120547587899 144.42499999999052
    vertex 22.739947448661272 463.8223995863795 206.3499999999931
    vertex 19.965809517623377 466.51205475878896 206.34999999999349
  endloop
endfacet
facet normal 1.4838897385465565e-14 0.8016494302512839 0.5977944387310676
  outer loop
    vertex 142.9658095176244 467.51205475878885 152.0207541128158
    vertex 126.392216388815 504.81385841650683 101.99859312880061
    vertex 113.4658095176242 467.51205475878953 152.02075411281567
  endloop
endfacet
facet normal -0.7933479552768709 -0.6087572969419875 -0.0036844643970514995
  outer loop
    vertex 143.9658095176226 504.81385841650564 144.42499999999336
    vertex 144.69786032519102 503.8138584165074 152.0207541128168
    vertex 144.3800230799952 504.2280719788805 152.02075411281666
  endloop
endfacet
facet normal 0.8944271909998472 1.5733215610225481e-15 0.4472135955000952
  outer loop
    vertex 147.96580951762166 507.8138584165046 206.34999999999368
    vertex 146.96580951762212 466.51205475878896 208.3499999999925
    vertex 147.96580951762212 466.5120547587882 206.34999999999278
  endloop
endfacet
facet normal 0.8944271909998472 1.5733215610225481e-15 0.4472135955000952
  outer loop
    vertex 146.96580951762212 466.51205475878896 208.3499999999925
    vertex 147.96580951762166 507.8138584165046 206.34999999999368
    vertex 146.96580951762166 507.813858416506 208.34999999999292
  endloop
endfacet
facet normal -0.5184355627179055 -0.5347197566765808 -0.6673075371439372
  outer loop
    vertex 38.71097552168363 504.8138584165079 99.17016600405566
    vertex 22.73994744866105 463.82239958638047 144.42499999999035
    vertex 19.96580951762315 466.5120547587899 144.42499999999052
  endloop
endfacet
facet normal -0.4750785508943034 0.6191344216179788 0.6252782888026256
  outer loop
    vertex 144.3800230799975 468.09784119641574 152.0207541128156
    vertex 126.392216388815 504.81385841650683 101.99859312880061
    vertex 143.9658095176244 467.78000395121995 152.02075411281567
  endloop
endfacet
facet normal -0.6401357689372641 0.49119345147773286 0.5907242931795591
  outer loop
    vertex 126.392216388815 504.81385841650683 101.99859312880061
    vertex 144.3800230799975 468.09784119641574 152.0207541128156
    vertex 144.69786032519326 468.5120547587889 152.02075411281527
  endloop
endfacet
facet normal -0.9914448613738116 1.512042257416663e-14 -0.13052619222004355
  outer loop
    vertex 19.965809517623217 504.8138584165082 144.4249999999944
    vertex 22.146556635122625 504.81385841650655 127.86058111343327
    vertex 19.96580951762315 466.5120547587899 144.42499999999052
  endloop
endfacet
facet normal -3.3917590019868856e-26 -1.0 -1.3738876702983557e-12
  outer loop
    vertex 145.19167158658507 464.8223995863756 211.150000000017
    vertex 22.739947448661454 464.8223995863795 208.3499999999905
    vertex 145.19167158658533 464.8223995863795 208.3499999999875
  endloop
endfacet
facet normal -3.3917590019868856e-26 -1.0 -1.3738876702983557e-12
  outer loop
    vertex 22.739947448661454 464.8223995863795 208.3499999999905
    vertex 145.19167158658507 464.8223995863756 211.150000000017
    vertex 22.73994744866152 464.8223995863756 211.15000000002001
  endloop
endfacet
facet normal -0.13052619221998704 0.991444861373819 -8.190388100090389e-13
  outer loop
    vertex 142.9658095176244 467.51205475878885 152.0207541128158
    vertex 143.48344760782783 467.5802031062108 211.15000000001845
    vertex 143.48344760782945 467.58020310621066 152.0207541128157
  endloop
endfacet
facet normal -0.13052619221998704 0.991444861373819 -8.190388100090389e-13
  outer loop
    vertex 143.48344760782783 467.5802031062108 211.15000000001845
    vertex 142.9658095176244 467.51205475878885 152.0207541128158
    vertex 142.9658095176228 467.5120547587889 211.15000000001854
  endloop
endfacet
facet normal -0.9868927768784265 -0.12992689892700002 0.09571649743070136
  outer loop
    vertex 143.9658095176226 504.81385841650564 144.42499999999336
    vertex 144.96580951762215 502.8138584165073 152.02075411281714
    vertex 144.89766117020028 503.33149650671237 152.02075411281695
  endloop
endfacet
facet normal -0.41086284506647397 -0.7378945429249392 -0.5354468844483808
  outer loop
    vertex 53.35287848314193 463.8223995863803 144.42499999998967
    vertex 38.71097552168363 504.8138584165079 99.17016600405566
    vertex 51.96580951762258 504.81385841650837 88.99937415779061
  endloop
endfacet
facet normal -6.1627598896378766e-15 3.007964248050857e-14 -1.0
  outer loop
    vertex 147.9658095176209 507.81385841650956 83.49999999999419
    vertex 19.965809517622766 504.8138584165096 83.49999999999488
    vertex 19.965809517622766 507.81385841650956 83.49999999999497
  endloop
endfacet
facet normal -6.1627598896378766e-15 3.007964248050857e-14 -1.0
  outer loop
    vertex 19.965809517622766 504.8138584165096 83.49999999999488
    vertex 147.9658095176209 507.81385841650956 83.49999999999419
    vertex 65.24247319393757 504.81385841650916 83.4999999999947
  endloop
endfacet
facet normal -6.1627598896378766e-15 3.007964248050857e-14 -1.0
  outer loop
    vertex 65.24247319393757 504.81385841650916 83.4999999999947
    vertex 147.9658095176209 507.81385841650956 83.49999999999419
    vertex 83.96580951762222 504.81385841650916 83.49999999999443
  endloop
endfacet
facet normal -6.1627598896378766e-15 3.007964248050857e-14 -1.0
  outer loop
    vertex 83.96580951762222 504.81385841650916 83.49999999999443
    vertex 147.9658095176209 507.81385841650956 83.49999999999419
    vertex 102.68914584130684 504.8138584165091 83.49999999999427
  endloop
endfacet
facet normal -6.1627598896378766e-15 3.007964248050857e-14 -1.0
  outer loop
    vertex 102.68914584130684 504.8138584165091 83.49999999999427
    vertex 147.9658095176209 507.81385841650956 83.49999999999419
    vertex 147.9658095176209 504.8138584165096 83.49999999999409
  endloop
endfacet
facet normal 0.9238795325112893 -1.097161969260751e-14 0.3826834323650838
  outer loop
    vertex 32.00428529055589 507.8138584165065 114.42499999999374
    vertex 26.010259940278214 504.81385841650683 128.89585729384322
    vertex 32.00428529055589 504.81385841650655 114.42499999999364
  endloop
endfacet
facet normal 0.9238795325112893 -1.097161969260751e-14 0.3826834323650838
  outer loop
    vertex 26.010259940278214 504.81385841650683 128.89585729384322
    vertex 32.00428529055589 507.8138584165065 114.42499999999374
    vertex 26.010259940278214 507.8138584165061 128.8958572938433
  endloop
endfacet
facet normal 0.10279183291979499 0.7807814876497035 0.6162906032291138
  outer loop
    vertex 24.44817142741873 467.58020310621345 152.02075411281595
    vertex 24.965809517623775 467.51205475879163 152.02075411281515
    vertex 41.53940264642931 504.81385841650683 101.99859312880113
  endloop
endfacet
facet normal -0.7933533402912837 0.6087614290086574 -9.45125896329486e-13
  outer loop
    vertex 144.38002307999588 468.0978411964158 211.15000000001834
    vertex 144.69786032519326 468.5120547587889 152.02075411281527
    vertex 144.3800230799975 468.09784119641574 152.0207541128156
  endloop
endfacet
facet normal -0.7933533402912837 0.6087614290086574 -9.45125896329486e-13
  outer loop
    vertex 144.69786032519326 468.5120547587889 152.02075411281527
    vertex 144.38002307999588 468.0978411964158 211.15000000001834
    vertex 144.69786032519167 468.51205475878896 211.1500000000183
  endloop
endfacet
facet normal 0.06347997599225022 0.873770216095927 0.4821782887187071
  outer loop
    vertex 83.96580951762402 467.51205475879044 152.02075411281558
    vertex 83.96580951762225 504.8138584165074 84.42499999999332
    vertex 68.436666811471 504.8138584165073 86.46945042265013
  endloop
endfacet
facet normal 0.9914448613738134 3.786264356200825e-13 0.13052619222002984
  outer loop
    vertex 26.010259940278214 504.81385841650683 128.89585729384322
    vertex 23.965809517622805 504.81385841650564 144.4249999999941
    vertex 22.96580951762378 469.51205475879163 152.02075411281567
  endloop
endfacet
facet normal 0.9914448613738107 -1.4111224680651253e-12 -0.1305261922200503
  outer loop
    vertex 23.965809517622805 507.81385841650564 144.42499999999418
    vertex 24.965809517622827 504.8138584165087 152.0207541128173
    vertex 23.965809517622805 504.81385841650564 144.4249999999941
  endloop
endfacet
facet normal 0.9914448613738107 -1.4111224680651253e-12 -0.1305261922200503
  outer loop
    vertex 24.965809517622827 504.8138584165087 152.0207541128173
    vertex 23.965809517622805 507.81385841650564 144.42499999999418
    vertex 26.010259940278438 507.8138584165052 159.95414270614546
  endloop
endfacet
facet normal 0.9914448613738107 -1.4111224680651253e-12 -0.1305261922200503
  outer loop
    vertex 26.010259940278438 507.8138584165052 159.95414270614546
    vertex 26.010259940278438 504.81385841650524 159.95414270614538
    vertex 24.965809517622827 504.8138584165087 152.0207541128173
  endloop
endfacet
facet normal 0.38268343236509583 -2.6487833063092876e-14 0.9238795325112844
  outer loop
    vertex 68.436666811471 504.8138584165073 86.46945042265013
    vertex 53.96580951762229 507.8138584165072 92.46347577292808
    vertex 53.96580951762229 504.8138584165072 92.46347577292799
  endloop
endfacet
facet normal 0.38268343236509583 -2.6487833063092876e-14 0.9238795325112844
  outer loop
    vertex 53.96580951762229 507.8138584165072 92.46347577292808
    vertex 68.436666811471 504.8138584165073 86.46945042265013
    vertex 68.436666811471 507.81385841650723 86.46945042265021
  endloop
endfacet
facet normal -0.9914448613738097 -3.74221515708672e-15 0.13052619222005735
  outer loop
    vertex 143.9658095176228 507.81385841650564 144.42499999999345
    vertex 141.92135909496642 504.8138584165061 128.89585729384174
    vertex 143.9658095176226 504.81385841650564 144.42499999999336
  endloop
endfacet
facet normal -0.9914448613738097 -3.74221515708672e-15 0.13052619222005735
  outer loop
    vertex 141.92135909496642 504.8138584165061 128.89585729384174
    vertex 143.9658095176228 507.81385841650564 144.42499999999345
    vertex 141.92135909496642 507.8138584165061 128.89585729384183
  endloop
endfacet
facet normal 3.524690476302078e-15 1.0 2.2620180415438697e-14
  outer loop
    vertex 19.965809517622766 507.81385841650956 83.49999999999497
    vertex 68.436666811471 507.81385841650723 86.46945042265021
    vertex 83.96580951762225 507.81385841650734 84.4249999999934
  endloop
endfacet
facet normal 3.524690476302078e-15 1.0 2.2620180415438697e-14
  outer loop
    vertex 68.436666811471 507.81385841650723 86.46945042265021
    vertex 19.965809517622766 507.81385841650956 83.49999999999497
    vertex 53.96580951762229 507.8138584165072 92.46347577292808
  endloop
endfacet
facet normal 3.524690476302078e-15 1.0 2.2620180415438697e-14
  outer loop
    vertex 53.96580951762229 507.8138584165072 92.46347577292808
    vertex 19.965809517622766 507.81385841650956 83.49999999999497
    vertex 41.53940264642931 507.8138584165068 101.99859312880122
  endloop
endfacet
facet normal 3.524690476302078e-15 1.0 2.2620180415438697e-14
  outer loop
    vertex 41.53940264642931 507.8138584165068 101.99859312880122
    vertex 19.965809517622766 507.81385841650956 83.49999999999497
    vertex 32.00428529055589 507.8138584165065 114.42499999999374
  endloop
endfacet
facet normal 3.524690476302078e-15 1.0 2.2620180415438697e-14
  outer loop
    vertex 32.00428529055589 507.8138584165065 114.42499999999374
    vertex 19.965809517622766 507.81385841650956 83.49999999999497
    vertex 26.010259940278214 507.8138584165061 128.8958572938433
  endloop
endfacet
facet normal 3.524690476302078e-15 1.0 2.2620180415438697e-14
  outer loop
    vertex 26.010259940278214 507.8138584165061 128.8958572938433
    vertex 19.965809517622766 507.81385841650956 83.49999999999497
    vertex 23.965809517622805 507.81385841650564 144.42499999999418
  endloop
endfacet
facet normal 3.524690476302078e-15 1.0 2.2620180415438697e-14
  outer loop
    vertex 23.965809517622805 507.81385841650564 144.42499999999418
    vertex 19.965809517622766 507.81385841650956 83.49999999999497
    vertex 19.965809517623377 507.8138584165061 206.3499999999937
  endloop
endfacet
facet normal 3.524690476302078e-15 1.0 2.2620180415438697e-14
  outer loop
    vertex 23.965809517622805 507.81385841650564 144.42499999999418
    vertex 19.965809517623377 507.8138584165061 206.3499999999937
    vertex 26.010259940278438 507.8138584165052 159.95414270614546
  endloop
endfacet
facet normal 3.524690476302078e-15 1.0 2.2620180415438697e-14
  outer loop
    vertex 26.010259940278438 507.8138584165052 159.95414270614546
    vertex 19.965809517623377 507.8138584165061 206.3499999999937
    vertex 32.0042852905563 507.81385841650473 174.42499999999416
  endloop
endfacet
facet normal 3.524690476302078e-15 1.0 2.2620180415438697e-14
  outer loop
    vertex 32.0042852905563 507.81385841650473 174.42499999999416
    vertex 19.965809517623377 507.8138584165061 206.3499999999937
    vertex 41.53940264642981 507.81385841650444 186.85140687118692
  endloop
endfacet
facet normal 3.524690476302078e-15 1.0 2.2620180415438697e-14
  outer loop
    vertex 41.53940264642981 507.81385841650444 186.85140687118692
    vertex 19.965809517623377 507.8138584165061 206.3499999999937
    vertex 53.96580951762295 507.8138584165041 196.38652422706036
  endloop
endfacet
facet normal 3.524690476302078e-15 1.0 2.2620180415438697e-14
  outer loop
    vertex 53.96580951762295 507.8138584165041 196.38652422706036
    vertex 19.965809517623377 507.8138584165061 206.3499999999937
    vertex 68.43666681147174 507.813858416504 202.380549577338
  endloop
endfacet
facet normal 3.524690476302078e-15 1.0 2.2620180415438697e-14
  outer loop
    vertex 68.43666681147174 507.813858416504 202.380549577338
    vertex 19.965809517623377 507.8138584165061 206.3499999999937
    vertex 83.96580951762297 507.8138584165039 204.4249999999942
  endloop
endfacet
facet normal 3.524690476302078e-15 1.0 2.2620180415438697e-14
  outer loop
    vertex 83.96580951762297 507.8138584165039 204.4249999999942
    vertex 19.965809517623377 507.8138584165061 206.3499999999937
    vertex 147.96580951762166 507.8138584165046 206.34999999999368
  endloop
endfacet
facet normal 3.524690476302078e-15 1.0 2.2620180415438697e-14
  outer loop
    vertex 147.96580951762166 507.8138584165046 206.34999999999368
    vertex 19.965809517623377 507.8138584165061 206.3499999999937
    vertex 146.96580951762166 507.813858416506 208.34999999999292
  endloop
endfacet
facet normal 3.524690476302078e-15 1.0 2.2620180415438697e-14
  outer loop
    vertex 146.96580951762166 507.813858416506 208.34999999999292
    vertex 19.965809517623377 507.8138584165061 206.3499999999937
    vertex 20.9658095176234 507.813858416506 208.3499999999937
  endloop
endfacet
facet normal 3.524690476302078e-15 1.0 2.2620180415438697e-14
  outer loop
    vertex 146.96580951762166 507.813858416506 208.34999999999292
    vertex 20.9658095176234 507.813858416506 208.3499999999937
    vertex 146.96580951762178 507.813858416506 211.1499999999929
  endloop
endfacet
facet normal 3.524690476302078e-15 1.0 2.2620180415438697e-14
  outer loop
    vertex 146.96580951762178 507.813858416506 211.1499999999929
    vertex 20.9658095176234 507.813858416506 208.3499999999937
    vertex 20.965809517624436 507.8138584165058 211.15000000002016
  endloop
endfacet
facet normal 3.524690476302078e-15 1.0 2.2620180415438697e-14
  outer loop
    vertex 147.9658095176209 507.81385841650956 83.49999999999419
    vertex 143.9658095176228 507.81385841650564 144.42499999999345
    vertex 147.96580951762166 507.8138584165046 206.34999999999368
  endloop
endfacet
facet normal 3.524690476302078e-15 1.0 2.2620180415438697e-14
  outer loop
    vertex 143.9658095176228 507.81385841650564 144.42499999999345
    vertex 147.9658095176209 507.81385841650956 83.49999999999419
    vertex 141.92135909496642 507.8138584165061 128.89585729384183
  endloop
endfacet
facet normal 3.524690476302078e-15 1.0 2.2620180415438697e-14
  outer loop
    vertex 141.92135909496642 507.8138584165061 128.89585729384183
    vertex 147.9658095176209 507.81385841650956 83.49999999999419
    vertex 135.92733374468853 507.8138584165065 114.42499999999387
  endloop
endfacet
facet normal 3.524690476302078e-15 1.0 2.2620180415438697e-14
  outer loop
    vertex 135.92733374468853 507.8138584165065 114.42499999999387
    vertex 147.9658095176209 507.81385841650956 83.49999999999419
    vertex 126.392216388815 507.8138584165068 101.9985931288007
  endloop
endfacet
facet normal 3.524690476302078e-15 1.0 2.2620180415438697e-14
  outer loop
    vertex 126.392216388815 507.8138584165068 101.9985931288007
    vertex 147.9658095176209 507.81385841650956 83.49999999999419
    vertex 113.96580951762208 507.8138584165055 92.46347577292731
  endloop
endfacet
facet normal 3.524690476302078e-15 1.0 2.2620180415438697e-14
  outer loop
    vertex 113.96580951762208 507.8138584165055 92.46347577292731
    vertex 147.9658095176209 507.81385841650956 83.49999999999419
    vertex 99.4949522237737 507.81385841650564 86.46945042264963
  endloop
endfacet
facet normal 3.524690476302078e-15 1.0 2.2620180415438697e-14
  outer loop
    vertex 99.4949522237737 507.81385841650564 86.46945042264963
    vertex 147.9658095176209 507.81385841650956 83.49999999999419
    vertex 83.96580951762225 507.81385841650734 84.4249999999934
  endloop
endfacet
facet normal 3.524690476302078e-15 1.0 2.2620180415438697e-14
  outer loop
    vertex 83.96580951762225 507.81385841650734 84.4249999999934
    vertex 147.9658095176209 507.81385841650956 83.49999999999419
    vertex 19.965809517622766 507.81385841650956 83.49999999999497
  endloop
endfacet
facet normal 3.524690476302078e-15 1.0 2.2620180415438697e-14
  outer loop
    vertex 147.96580951762166 507.8138584165046 206.34999999999368
    vertex 143.9658095176228 507.81385841650564 144.42499999999345
    vertex 141.92135909496662 507.8138584165052 159.9541427061447
  endloop
endfacet
facet normal 3.524690476302078e-15 1.0 2.2620180415438697e-14
  outer loop
    vertex 147.96580951762166 507.8138584165046 206.34999999999368
    vertex 141.92135909496662 507.8138584165052 159.9541427061447
    vertex 135.92733374468892 507.81385841650473 174.4249999999935
  endloop
endfacet
facet normal 3.524690476302078e-15 1.0 2.2620180415438697e-14
  outer loop
    vertex 147.96580951762166 507.8138584165046 206.34999999999368
    vertex 135.92733374468892 507.81385841650473 174.4249999999935
    vertex 126.39221638881554 507.81385841650444 186.85140687118638
  endloop
endfacet
facet normal 3.524690476302078e-15 1.0 2.2620180415438697e-14
  outer loop
    vertex 147.96580951762166 507.8138584165046 206.34999999999368
    vertex 126.39221638881554 507.81385841650444 186.85140687118638
    vertex 113.96580951762273 507.8138584165041 196.38652422705994
  endloop
endfacet
facet normal 3.524690476302078e-15 1.0 2.2620180415438697e-14
  outer loop
    vertex 147.96580951762166 507.8138584165046 206.34999999999368
    vertex 113.96580951762273 507.8138584165041 196.38652422705994
    vertex 99.49495222377404 507.813858416504 202.38054957733783
  endloop
endfacet
facet normal 3.524690476302078e-15 1.0 2.2620180415438697e-14
  outer loop
    vertex 147.96580951762166 507.8138584165046 206.34999999999368
    vertex 99.49495222377404 507.813858416504 202.38054957733783
    vertex 83.96580951762297 507.8138584165039 204.4249999999942
  endloop
endfacet
facet normal -0.4750785508943034 0.6191344216179788 0.6252782888026256
  outer loop
    vertex 144.3800230799975 468.09784119641574 152.0207541128156
    vertex 126.392216388815 504.81385841650683 101.99859312880061
    vertex 143.9658095176244 467.78000395121995 152.02075411281567
  endloop
endfacet
facet normal 0.4108628450664721 -0.7378945429249301 -0.5354468844483948
  outer loop
    vertex 114.5787405521039 463.82239958638013 144.4249999999881
    vertex 115.96580951762208 504.8138584165083 88.99937415779033
    vertex 129.22064351356093 504.81385841650774 99.17016600405512
  endloop
endfacet
facet normal -0.7247737658465074 0.406709957750593 0.5561384707131696
  outer loop
    vertex 126.392216388815 504.81385841650683 101.99859312880061
    vertex 144.9658095176244 469.51205475878885 152.02075411281564
    vertex 135.92733374468853 504.81385841650655 114.42499999999379
  endloop
endfacet
facet normal -0.689655172412926 -0.7241379310353088 -3.5985588511441964e-13
  outer loop
    vertex 22.73994744866152 464.8223995863756 211.15000000002001
    vertex 20.965809517625246 466.51205475878896 208.349999999994
    vertex 22.739947448661454 464.8223995863795 208.3499999999905
  endloop
endfacet
facet normal -0.689655172412926 -0.7241379310353088 -3.5985588511441964e-13
  outer loop
    vertex 20.965809517625246 466.51205475878896 208.349999999994
    vertex 22.73994744866152 464.8223995863756 211.15000000002001
    vertex 21.689947448659865 465.8223995863757 211.15000000001953
  endloop
endfacet
facet normal -0.689655172412926 -0.7241379310353088 -3.5985588511441964e-13
  outer loop
    vertex 20.965809517624887 466.51205475878896 211.1500000000203
    vertex 20.965809517625246 466.51205475878896 208.349999999994
    vertex 21.689947448659865 465.8223995863757 211.15000000001953
  endloop
endfacet
facet normal 1.0 -5.009384887783476e-15 6.333005539115807e-14
  outer loop
    vertex 146.96580951762166 507.813858416506 208.34999999999292
    vertex 146.96580951762118 466.51205475878896 211.15000000002095
    vertex 146.96580951762212 466.51205475878896 208.3499999999925
  endloop
endfacet
facet normal 1.0 -5.009384887783476e-15 6.333005539115807e-14
  outer loop
    vertex 146.96580951762118 466.51205475878896 211.15000000002095
    vertex 146.96580951762166 507.813858416506 208.34999999999292
    vertex 146.96580951762178 507.813858416506 211.1499999999929
  endloop
endfacet
facet normal 0.7247737658464664 0.4067099577506883 0.5561384707131535
  outer loop
    vertex 41.53940264642931 504.81385841650683 101.99859312880113
    vertex 32.00428529055589 504.81385841650655 114.42499999999364
    vertex 22.96580951762378 469.51205475879163 152.02075411281567
  endloop
endfacet
facet normal 0.7933533402912313 1.7453326477536032e-14 -0.6087614290087258
  outer loop
    vertex 32.0042852905563 504.8138584165048 174.42499999999407
    vertex 41.53940264642981 507.81385841650444 186.85140687118692
    vertex 41.53940264642981 504.8138584165045 186.85140687118684
  endloop
endfacet
facet normal 0.7933533402912313 1.7453326477536032e-14 -0.6087614290087258
  outer loop
    vertex 41.53940264642981 507.81385841650444 186.85140687118692
    vertex 32.0042852905563 504.8138584165048 174.42499999999407
    vertex 32.0042852905563 507.81385841650473 174.42499999999416
  endloop
endfacet
facet normal -0.9106602831221579 0.168558874577003 0.3772078399837489
  outer loop
    vertex 135.92733374468853 504.81385841650655 114.42499999999379
    vertex 144.9658095176244 469.51205475878885 152.02075411281564
    vertex 141.92135909496642 504.8138584165061 128.89585729384174
  endloop
endfacet
facet normal 0.6085231649560722 -0.7930428285324445 -0.027975521891555274
  outer loop
    vertex 23.551595955249727 504.2280719788818 152.020754112817
    vertex 23.965809517622805 504.81385841650564 144.4249999999941
    vertex 23.965809517622827 504.5459092240776 152.0207541128169
  endloop
endfacet
facet normal -0.9914448613738094 -1.3363776570925758e-12 -0.1305261922200597
  outer loop
    vertex 141.92135909496662 507.8138584165052 159.9541427061447
    vertex 142.96580951762198 504.81385841650746 152.02075411281723
    vertex 141.92135909496662 504.81385841650524 159.9541427061446
  endloop
endfacet
facet normal -0.9914448613738094 -1.3363776570925758e-12 -0.1305261922200597
  outer loop
    vertex 142.96580951762198 504.81385841650746 152.02075411281723
    vertex 143.9658095176228 507.81385841650564 144.42499999999345
    vertex 143.9658095176226 504.81385841650564 144.42499999999336
  endloop
endfacet
facet normal -0.9914448613738094 -1.3363776570925758e-12 -0.1305261922200597
  outer loop
    vertex 143.9658095176228 507.81385841650564 144.42499999999345
    vertex 142.96580951762198 504.81385841650746 152.02075411281723
    vertex 141.92135909496662 507.8138584165052 159.9541427061447
  endloop
endfacet
facet normal -0.7933533402912393 1.7453326477536e-14 -0.6087614290087152
  outer loop
    vertex 126.39221638881554 507.81385841650444 186.85140687118638
    vertex 135.92733374468892 504.8138584165048 174.4249999999934
    vertex 126.39221638881554 504.8138584165045 186.8514068711863
  endloop
endfacet
facet normal -0.7933533402912393 1.7453326477536e-14 -0.6087614290087152
  outer loop
    vertex 135.92733374468892 504.8138584165048 174.4249999999934
    vertex 126.39221638881554 507.81385841650444 186.85140687118638
    vertex 135.92733374468892 507.81385841650473 174.4249999999935
  endloop
endfacet
facet normal -0.6087614290087253 2.274561790600619e-14 -0.7933533402912317
  outer loop
    vertex 126.39221638881554 507.81385841650444 186.85140687118638
    vertex 113.96580951762273 504.8138584165041 196.38652422705985
    vertex 113.96580951762273 507.8138584165041 196.38652422705994
  endloop
endfacet
facet normal -0.6087614290087253 2.274561790600619e-14 -0.7933533402912317
  outer loop
    vertex 113.96580951762273 504.8138584165041 196.38652422705985
    vertex 126.39221638881554 507.81385841650444 186.85140687118638
    vertex 126.39221638881554 504.8138584165045 186.8514068711863
  endloop
endfacet
facet normal -0.7933533402912317 -1.7453326477536064e-14 0.6087614290087251
  outer loop
    vertex 135.92733374468853 507.8138584165065 114.42499999999387
    vertex 126.392216388815 504.81385841650683 101.99859312880061
    vertex 135.92733374468853 504.81385841650655 114.42499999999379
  endloop
endfacet
facet normal -0.7933533402912317 -1.7453326477536064e-14 0.6087614290087251
  outer loop
    vertex 126.392216388815 504.81385841650683 101.99859312880061
    vertex 135.92733374468853 507.8138584165065 114.42499999999387
    vertex 126.392216388815 507.8138584165068 101.9985931288007
  endloop
endfacet
facet normal 0.9868927768784235 -0.12992689892696888 0.0957164974307755
  outer loop
    vertex 23.965809517622805 504.81385841650564 144.4249999999941
    vertex 23.03395786504468 503.3314965067138 152.02075411281746
    vertex 22.96580951762283 502.81385841650877 152.02075411281749
  endloop
endfacet
facet normal -0.3826834323650969 2.6487833063092857e-14 -0.9238795325112839
  outer loop
    vertex 113.96580951762273 507.8138584165041 196.38652422705994
    vertex 99.49495222377404 504.81385841650405 202.38054957733775
    vertex 99.49495222377404 507.813858416504 202.38054957733783
  endloop
endfacet
facet normal -0.3826834323650969 2.6487833063092857e-14 -0.9238795325112839
  outer loop
    vertex 99.49495222377404 504.81385841650405 202.38054957733775
    vertex 113.96580951762273 507.8138584165041 196.38652422705994
    vertex 113.96580951762273 504.8138584165041 196.38652422705985
  endloop
endfacet
facet normal 0.13052619222005746 -2.842494617014361e-14 0.9914448613738098
  outer loop
    vertex 83.96580951762225 504.8138584165074 84.42499999999332
    vertex 68.436666811471 507.81385841650723 86.46945042265021
    vertex 68.436666811471 504.8138584165073 86.46945042265013
  endloop
endfacet
facet normal 0.13052619222005746 -2.842494617014361e-14 0.9914448613738098
  outer loop
    vertex 68.436666811471 507.81385841650723 86.46945042265021
    vertex 83.96580951762225 504.8138584165074 84.42499999999332
    vertex 83.96580951762225 507.81385841650734 84.4249999999934
  endloop
endfacet
facet normal -0.7866791471503284 0.32585317198559216 0.5243621170009901
  outer loop
    vertex 126.392216388815 504.81385841650683 101.99859312880061
    vertex 144.69786032519326 468.5120547587889 152.02075411281527
    vertex 144.89766117020253 468.99441666858377 152.02075411281538
  endloop
endfacet
facet normal -0.9238795325112841 -1.0971619692607594e-14 0.3826834323650964
  outer loop
    vertex 141.92135909496642 507.8138584165061 128.89585729384183
    vertex 135.92733374468853 504.81385841650655 114.42499999999379
    vertex 141.92135909496642 504.8138584165061 128.89585729384174
  endloop
endfacet
facet normal -0.9238795325112841 -1.0971619692607594e-14 0.3826834323650964
  outer loop
    vertex 135.92733374468853 504.81385841650655 114.42499999999379
    vertex 141.92135909496642 507.8138584165061 128.89585729384183
    vertex 135.92733374468853 507.8138584165065 114.42499999999387
  endloop
endfacet
facet normal -0.1027918329190374 0.7807814876498227 0.616290603229089
  outer loop
    vertex 142.9658095176244 467.51205475878885 152.0207541128158
    vertex 143.48344760782945 467.58020310621066 152.0207541128157
    vertex 126.392216388815 504.81385841650683 101.99859312880061
  endloop
endfacet
facet normal 0.9180474037862085 -0.11218489973297699 -0.3802676855496717
  outer loop
    vertex 139.39143535982595 504.8138584165071 112.42499999999406
    vertex 145.78506240012229 504.8138584165059 127.86058111343236
    vertex 147.96580951762152 466.5120547587894 144.4249999999926
  endloop
endfacet
facet normal -0.991444861373814 0.1305261922200239 -7.358014239492243e-13
  outer loop
    vertex 144.89766117020093 468.9944166685839 211.15000000001825
    vertex 144.9658095176244 469.51205475878885 152.02075411281564
    vertex 144.89766117020253 468.99441666858377 152.02075411281538
  endloop
endfacet
facet normal -0.991444861373814 0.1305261922200239 -7.358014239492243e-13
  outer loop
    vertex 144.9658095176244 469.51205475878885 152.02075411281564
    vertex 144.89766117020093 468.9944166685839 211.15000000001825
    vertex 144.96580951762277 469.5120547587889 211.15000000001885
  endloop
endfacet
facet normal 0.9106602831221673 0.16855887457705562 0.377207839983703
  outer loop
    vertex 26.010259940278214 504.81385841650683 128.89585729384322
    vertex 22.96580951762378 469.51205475879163 152.02075411281567
    vertex 32.00428529055589 504.81385841650655 114.42499999999364
  endloop
endfacet
facet normal -1.0 -4.7062723807800206e-17 4.946773918608217e-15
  outer loop
    vertex 19.965809517623377 507.8138584165061 206.3499999999937
    vertex 19.96580951762315 466.5120547587899 144.42499999999052
    vertex 19.965809517623377 466.51205475878896 206.34999999999349
  endloop
endfacet
facet normal -1.0 -4.7062723807800206e-17 4.946773918608217e-15
  outer loop
    vertex 19.96580951762315 466.5120547587899 144.42499999999052
    vertex 19.965809517623377 507.8138584165061 206.3499999999937
    vertex 19.965809517623217 504.8138584165082 144.4249999999944
  endloop
endfacet
facet normal -1.0 -4.7062723807800206e-17 4.946773918608217e-15
  outer loop
    vertex 19.965809517623217 504.8138584165082 144.4249999999944
    vertex 19.965809517623377 507.8138584165061 206.3499999999937
    vertex 19.965809517622766 504.8138584165096 83.49999999999488
  endloop
endfacet
facet normal -1.0 -4.7062723807800206e-17 4.946773918608217e-15
  outer loop
    vertex 19.965809517622766 504.8138584165096 83.49999999999488
    vertex 19.965809517623377 507.8138584165061 206.3499999999937
    vertex 19.965809517622766 507.81385841650956 83.49999999999497
  endloop
endfacet
facet normal 0.9914448613738114 -0.1305261922200452 -2.892077463896362e-13
  outer loop
    vertex 22.96580951762283 502.81385841650877 152.02075411281749
    vertex 23.033957865045764 503.3314965067109 211.1500000000203
    vertex 22.965809517623914 502.81385841650587 211.15000000002001
  endloop
endfacet
facet normal 0.9914448613738114 -0.1305261922200452 -2.892077463896362e-13
  outer loop
    vertex 23.033957865045764 503.3314965067109 211.1500000000203
    vertex 22.96580951762283 502.81385841650877 152.02075411281749
    vertex 23.03395786504468 503.3314965067138 152.02075411281746
  endloop
endfacet
facet normal 0.9238795325112674 -0.38268343236513636 -2.9505601295438734e-13
  outer loop
    vertex 23.03395786504468 503.3314965067138 152.02075411281746
    vertex 23.233758710055017 503.8138584165058 211.15000000002016
    vertex 23.033957865045764 503.3314965067109 211.1500000000203
  endloop
endfacet
facet normal 0.9238795325112674 -0.38268343236513636 -2.9505601295438734e-13
  outer loop
    vertex 23.233758710055017 503.8138584165058 211.15000000002016
    vertex 23.03395786504468 503.3314965067138 152.02075411281746
    vertex 23.233758710053937 503.8138584165087 152.02075411281746
  endloop
endfacet
facet normal 0.7933533402912707 -0.6087614290086744 -2.8114954912696323e-13
  outer loop
    vertex 23.233758710053937 503.8138584165087 152.02075411281746
    vertex 23.55159595525081 504.228071978879 211.15000000002001
    vertex 23.233758710055017 503.8138584165058 211.15000000002016
  endloop
endfacet
facet normal 0.7933533402912707 -0.6087614290086744 -2.8114954912696323e-13
  outer loop
    vertex 23.55159595525081 504.228071978879 211.15000000002001
    vertex 23.233758710053937 503.8138584165087 152.02075411281746
    vertex 23.551595955249727 504.2280719788818 152.020754112817
  endloop
endfacet
facet normal -0.793353340291178 -0.6087614290087953 2.7795051385477203e-13
  outer loop
    vertex 144.38002307999602 504.22807197887903 211.14999999999336
    vertex 144.69786032519102 503.8138584165074 152.0207541128168
    vertex 144.69786032519184 503.813858416506 211.14999999999336
  endloop
endfacet
facet normal -0.793353340291178 -0.6087614290087953 2.7795051385477203e-13
  outer loop
    vertex 144.69786032519102 503.8138584165074 152.0207541128168
    vertex 144.38002307999602 504.22807197887903 211.14999999999336
    vertex 144.3800230799952 504.2280719788805 152.02075411281666
  endloop
endfacet
facet normal 9.176840078798733e-15 1.0 -3.5451007208818835e-13
  outer loop
    vertex 24.965809517623885 467.5120547587889 211.1500000000197
    vertex 54.46580951762385 467.51205475879107 152.0207541128153
    vertex 24.965809517623775 467.51205475879163 152.02075411281515
  endloop
endfacet
facet normal 9.176840078798733e-15 1.0 -3.5451007208818835e-13
  outer loop
    vertex 54.46580951762385 467.51205475879107 152.0207541128153
    vertex 24.965809517623885 467.5120547587889 211.1500000000197
    vertex 83.96580951762402 467.51205475879044 152.02075411281558
  endloop
endfacet
facet normal 9.176840078798733e-15 1.0 -3.5451007208818835e-13
  outer loop
    vertex 83.96580951762402 467.51205475879044 152.02075411281558
    vertex 24.965809517623885 467.5120547587889 211.1500000000197
    vertex 113.4658095176242 467.51205475878953 152.02075411281567
  endloop
endfacet
facet normal 9.176840078798733e-15 1.0 -3.5451007208818835e-13
  outer loop
    vertex 113.4658095176242 467.51205475878953 152.02075411281567
    vertex 24.965809517623885 467.5120547587889 211.1500000000197
    vertex 142.9658095176244 467.51205475878885 152.0207541128158
  endloop
endfacet
facet normal 9.176840078798733e-15 1.0 -3.5451007208818835e-13
  outer loop
    vertex 142.9658095176244 467.51205475878885 152.0207541128158
    vertex 24.965809517623885 467.5120547587889 211.1500000000197
    vertex 142.9658095176228 467.5120547587889 211.15000000001854
  endloop
endfacet
facet normal -0.9914448613738092 3.0885238086018927e-13 0.130526192220062
  outer loop
    vertex 141.92135909496642 504.8138584165061 128.89585729384174
    vertex 144.9658095176244 469.51205475878885 152.02075411281564
    vertex 143.9658095176226 504.81385841650564 144.42499999999336
  endloop
endfacet
facet normal -0.900634028539009 0.11857071926869128 0.4180900993442695
  outer loop
    vertex 126.392216388815 504.81385841650683 101.99859312880061
    vertex 144.89766117020253 468.99441666858377 152.02075411281538
    vertex 144.9658095176244 469.51205475878885 152.02075411281564
  endloop
endfacet
facet normal -0.13050692473428013 -0.9912985102900419 -0.01718156259322179
  outer loop
    vertex 142.96580951762198 504.81385841650746 152.02075411281723
    vertex 143.9658095176226 504.81385841650564 144.42499999999336
    vertex 143.48344760782706 504.74571006908565 152.0207541128169
  endloop
endfacet
facet normal 1.0 4.356959504873346e-15 -6.505536899475218e-15
  outer loop
    vertex 147.96580951762152 466.5120547587894 144.4249999999926
    vertex 147.96580951762166 507.8138584165046 206.34999999999368
    vertex 147.96580951762212 466.5120547587882 206.34999999999278
  endloop
endfacet
facet normal 1.0 4.356959504873346e-15 -6.505536899475218e-15
  outer loop
    vertex 147.96580951762166 507.8138584165046 206.34999999999368
    vertex 147.96580951762152 466.5120547587894 144.4249999999926
    vertex 147.9658095176221 504.8138584165056 144.42499999999362
  endloop
endfacet
facet normal 1.0 4.356959504873346e-15 -6.505536899475218e-15
  outer loop
    vertex 147.96580951762166 507.8138584165046 206.34999999999368
    vertex 147.9658095176221 504.8138584165056 144.42499999999362
    vertex 147.9658095176209 504.8138584165096 83.49999999999409
  endloop
endfacet
facet normal 1.0 4.356959504873346e-15 -6.505536899475218e-15
  outer loop
    vertex 147.96580951762166 507.8138584165046 206.34999999999368
    vertex 147.9658095176209 504.8138584165096 83.49999999999409
    vertex 147.9658095176209 507.81385841650956 83.49999999999419
  endloop
endfacet
facet normal -7.129682233103796e-15 -1.0 -3.245167798600586e-14
  outer loop
    vertex 51.96580951762258 504.81385841650837 88.99937415779061
    vertex 19.965809517622766 504.8138584165096 83.49999999999488
    vertex 65.24247319393757 504.81385841650916 83.4999999999947
  endloop
endfacet
facet normal -7.129682233103796e-15 -1.0 -3.245167798600586e-14
  outer loop
    vertex 19.965809517622766 504.8138584165096 83.49999999999488
    vertex 51.96580951762258 504.81385841650837 88.99937415779061
    vertex 38.71097552168363 504.8138584165079 99.17016600405566
  endloop
endfacet
facet normal -7.129682233103796e-15 -1.0 -3.245167798600586e-14
  outer loop
    vertex 19.965809517622766 504.8138584165096 83.49999999999488
    vertex 38.71097552168363 504.8138584165079 99.17016600405566
    vertex 28.54018367541877 504.8138584165073 112.42499999999451
  endloop
endfacet
facet normal -7.129682233103796e-15 -1.0 -3.245167798600586e-14
  outer loop
    vertex 19.965809517622766 504.8138584165096 83.49999999999488
    vertex 28.54018367541877 504.8138584165073 112.42499999999451
    vertex 22.146556635122625 504.81385841650655 127.86058111343327
  endloop
endfacet
facet normal -7.129682233103796e-15 -1.0 -3.245167798600586e-14
  outer loop
    vertex 19.965809517622766 504.8138584165096 83.49999999999488
    vertex 22.146556635122625 504.81385841650655 127.86058111343327
    vertex 19.965809517623217 504.8138584165082 144.4249999999944
  endloop
endfacet
facet normal 0.6545468373775383 -0.6785937309904145 0.3332851420924303
  outer loop
    vertex 147.96580951762212 466.5120547587882 206.34999999999278
    vertex 145.19167158658533 464.8223995863795 208.3499999999875
    vertex 145.1916715865853 463.82239958637876 206.3499999999926
  endloop
endfacet
facet normal 0.6545468373775383 -0.6785937309904145 0.3332851420924303
  outer loop
    vertex 145.19167158658533 464.8223995863795 208.3499999999875
    vertex 147.96580951762212 466.5120547587882 206.34999999999278
    vertex 146.96580951762212 466.51205475878896 208.3499999999925
  endloop
endfacet
facet normal 0.2961437237866772 0.714954194375835 0.6333556621726542
  outer loop
    vertex 23.965809517623775 467.78000395122274 152.02075411281604
    vertex 24.44817142741873 467.58020310621345 152.02075411281595
    vertex 41.53940264642931 504.81385841650683 101.99859312880113
  endloop
endfacet
facet normal 0.3757176607634951 0.7868190519136369 0.489644788531577
  outer loop
    vertex 54.46580951762385 467.51205475879107 152.0207541128153
    vertex 53.96580951762229 504.8138584165072 92.46347577292799
    vertex 41.53940264642931 504.81385841650683 101.99859312880113
  endloop
endfacet
facet normal 0.7866791471498182 0.3258531719855627 0.5243621170017737
  outer loop
    vertex 41.53940264642931 504.81385841650683 101.99859312880113
    vertex 23.03395786504565 468.99441666858655 152.0207541128157
    vertex 23.233758710054907 468.5120547587916 152.02075411281587
  endloop
endfacet
facet normal -0.6545468373775448 -0.6785937309903899 0.3332851420924677
  outer loop
    vertex 22.739947448661454 464.8223995863795 208.3499999999905
    vertex 19.965809517623377 466.51205475878896 206.34999999999349
    vertex 22.739947448661272 463.8223995863795 206.3499999999931
  endloop
endfacet
facet normal -0.6545468373775448 -0.6785937309903899 0.3332851420924677
  outer loop
    vertex 19.965809517623377 466.51205475878896 206.34999999999349
    vertex 22.739947448661454 464.8223995863795 208.3499999999905
    vertex 20.965809517625246 466.51205475878896 208.349999999994
  endloop
endfacet
facet normal -0.9180474037862194 -0.11218489973293357 -0.3802676855496585
  outer loop
    vertex 28.54018367541877 504.8138584165073 112.42499999999451
    vertex 19.96580951762315 466.5120547587899 144.42499999999052
    vertex 22.146556635122625 504.81385841650655 127.86058111343327
  endloop
endfacet
facet normal 0.7933533402912067 0.6087614290087578 7.881355280171194e-14
  outer loop
    vertex 23.551595955250697 468.0978411964185 152.02075411281612
    vertex 23.233758710055017 468.5120547587889 211.1500000000206
    vertex 23.551595955250786 468.0978411964158 211.1500000000207
  endloop
endfacet
facet normal 0.7933533402912067 0.6087614290087578 7.881355280171194e-14
  outer loop
    vertex 23.233758710055017 468.5120547587889 211.1500000000206
    vertex 23.551595955250697 468.0978411964185 152.02075411281612
    vertex 23.233758710054907 468.5120547587916 152.02075411281587
  endloop
endfacet
facet normal 0.6087614290087043 0.7933533402912477 7.614307170198028e-14
  outer loop
    vertex 23.551595955250697 468.0978411964185 152.02075411281612
    vertex 23.96580951762389 467.78000395122007 211.15000000002075
    vertex 23.965809517623775 467.78000395122274 152.02075411281604
  endloop
endfacet
facet normal 0.6087614290087043 0.7933533402912477 7.614307170198028e-14
  outer loop
    vertex 23.96580951762389 467.78000395122007 211.15000000002075
    vertex 23.551595955250697 468.0978411964185 152.02075411281612
    vertex 23.551595955250786 468.0978411964158 211.1500000000207
  endloop
endfacet
facet normal 0.9006340285386073 0.11857071927014803 0.4180900993447213
  outer loop
    vertex 41.53940264642931 504.81385841650683 101.99859312880113
    vertex 22.96580951762378 469.51205475879163 152.02075411281567
    vertex 23.03395786504565 468.99441666858655 152.0207541128157
  endloop
endfacet
facet normal -0.38248035680287873 -0.9233892647346844 -0.03257364629085338
  outer loop
    vertex 143.48344760782706 504.74571006908565 152.0207541128169
    vertex 143.9658095176226 504.81385841650564 144.42499999999336
    vertex 143.96580951762206 504.54590922407635 152.0207541128168
  endloop
endfacet
facet normal 0.23764917022344864 -0.7838048523070988 -0.5737358498402844
  outer loop
    vertex 114.5787405521039 463.82239958638013 144.4249999999881
    vertex 102.68914584130684 504.8138584165091 83.49999999999427
    vertex 115.96580951762208 504.8138584165083 88.99937415779033
  endloop
endfacet
facet normal -0.0634799759921698 0.8737702160959299 0.48217828871871204
  outer loop
    vertex 83.96580951762402 467.51205475879044 152.02075411281558
    vertex 99.4949522237737 504.81385841650564 86.46945042264954
    vertex 83.96580951762225 504.8138584165074 84.42499999999332
  endloop
endfacet
facet normal -0.23764917022345003 -0.783804852307107 -0.5737358498402726
  outer loop
    vertex 53.35287848314193 463.8223995863803 144.42499999998967
    vertex 51.96580951762258 504.81385841650837 88.99937415779061
    vertex 65.24247319393757 504.81385841650916 83.4999999999947
  endloop
endfacet
facet normal 1.2338102985164134e-14 0.8016494302512932 0.597794438731055
  outer loop
    vertex 54.46580951762385 467.51205475879107 152.0207541128153
    vertex 41.53940264642931 504.81385841650683 101.99859312880113
    vertex 24.965809517623775 467.51205475879163 152.02075411281515
  endloop
endfacet
facet normal 0.6087614290087043 -0.7933533402912477 -2.4808320814812013e-13
  outer loop
    vertex 23.96580951762391 504.5459092240747 211.15000000001987
    vertex 23.551595955249727 504.2280719788818 152.020754112817
    vertex 23.965809517622827 504.5459092240776 152.0207541128169
  endloop
endfacet
facet normal 0.6087614290087043 -0.7933533402912477 -2.4808320814812013e-13
  outer loop
    vertex 23.551595955249727 504.2280719788818 152.020754112817
    vertex 23.96580951762391 504.5459092240747 211.15000000001987
    vertex 23.55159595525081 504.228071978879 211.15000000002001
  endloop
endfacet
facet normal 0.38268343236515784 -0.9238795325112588 -1.9811040651089648e-13
  outer loop
    vertex 24.448171427418863 504.745710069084 211.1500000000198
    vertex 23.965809517622827 504.5459092240776 152.0207541128169
    vertex 24.44817142741778 504.7457100690869 152.0207541128168
  endloop
endfacet
facet normal 0.38268343236515784 -0.9238795325112588 -1.9811040651089648e-13
  outer loop
    vertex 23.965809517622827 504.5459092240776 152.0207541128169
    vertex 24.448171427418863 504.745710069084 211.1500000000198
    vertex 23.96580951762391 504.5459092240747 211.15000000001987
  endloop
endfacet
facet normal 1.6290483771676612e-14 0.8474958487890573 0.5308020217419256
  outer loop
    vertex 83.96580951762402 467.51205475879044 152.02075411281558
    vertex 53.96580951762229 504.8138584165072 92.46347577292799
    vertex 54.46580951762385 467.51205475879107 152.0207541128153
  endloop
endfacet
facet normal 0.18720739692621066 0.8721735958548597 0.45195863663582764
  outer loop
    vertex 83.96580951762402 467.51205475879044 152.02075411281558
    vertex 68.436666811471 504.8138584165073 86.46945042265013
    vertex 53.96580951762229 504.8138584165072 92.46347577292799
  endloop
endfacet
facet normal -0.3826834323650838 -2.6487833063092914e-14 0.9238795325112893
  outer loop
    vertex 113.96580951762208 504.8138584165056 92.46347577292723
    vertex 99.4949522237737 507.81385841650564 86.46945042264963
    vertex 99.4949522237737 504.81385841650564 86.46945042264954
  endloop
endfacet
facet normal -0.3826834323650838 -2.6487833063092914e-14 0.9238795325112893
  outer loop
    vertex 99.4949522237737 507.81385841650564 86.46945042264963
    vertex 113.96580951762208 504.8138584165056 92.46347577292723
    vertex 113.96580951762208 507.8138584165055 92.46347577292731
  endloop
endfacet
facet normal 0.7531668507828354 -0.31423255571755454 -0.5779252510568129
  outer loop
    vertex 129.22064351356093 504.81385841650774 99.17016600405512
    vertex 139.39143535982595 504.8138584165071 112.42499999999406
    vertex 147.96580951762152 466.5120547587894 144.4249999999926
  endloop
endfacet
facet normal -0.7531668507828518 -0.3142325557175114 -0.5779252510568151
  outer loop
    vertex 38.71097552168363 504.8138584165079 99.17016600405566
    vertex 19.96580951762315 466.5120547587899 144.42499999999052
    vertex 28.54018367541877 504.8138584165073 112.42499999999451
  endloop
endfacet
facet normal 0.13052619221897818 -0.9914448613739517 -4.661779718731065e-14
  outer loop
    vertex 24.965809517622827 504.8138584165087 152.0207541128173
    vertex 24.448171427418863 504.745710069084 211.1500000000198
    vertex 24.44817142741778 504.7457100690869 152.0207541128168
  endloop
endfacet
facet normal 0.13052619221897818 -0.9914448613739517 -4.661779718731065e-14
  outer loop
    vertex 24.448171427418863 504.745710069084 211.1500000000198
    vertex 24.965809517622827 504.8138584165087 152.0207541128173
    vertex 24.96580951762391 504.81385841650587 211.1500000000203
  endloop
endfacet
facet normal 0.3826834323650825 2.648783306309292e-14 -0.9238795325112897
  outer loop
    vertex 68.43666681147174 507.813858416504 202.380549577338
    vertex 53.96580951762295 504.8138584165041 196.38652422706025
    vertex 53.96580951762295 507.8138584165041 196.38652422706036
  endloop
endfacet
facet normal 0.3826834323650825 2.648783306309292e-14 -0.9238795325112897
  outer loop
    vertex 53.96580951762295 504.8138584165041 196.38652422706025
    vertex 68.43666681147174 507.813858416504 202.380549577338
    vertex 68.43666681147174 504.81385841650405 202.38054957733792
  endloop
endfacet
facet normal -1.8178408696733987e-14 -0.7411558969083556 -0.6713329550066578
  outer loop
    vertex 114.5787405521039 463.82239958638013 144.4249999999881
    vertex 129.22064351356093 504.81385841650774 99.17016600405512
    vertex 145.19167158658485 463.82239958637996 144.42499999998745
  endloop
endfacet
facet normal 0.38268343236515584 0.9238795325112594 6.828356609813788e-14
  outer loop
    vertex 23.965809517623775 467.78000395122274 152.02075411281604
    vertex 24.448171427418842 467.5802031062108 211.15000000002038
    vertex 24.44817142741873 467.58020310621345 152.02075411281595
  endloop
endfacet
facet normal 0.38268343236515584 0.9238795325112594 6.828356609813788e-14
  outer loop
    vertex 24.448171427418842 467.5802031062108 211.15000000002038
    vertex 23.965809517623775 467.78000395122274 152.02075411281604
    vertex 23.96580951762389 467.78000395122007 211.15000000002075
  endloop
endfacet
facet normal -0.9914448613740382 -7.206255910153076e-14 0.13052619221832187
  outer loop
    vertex 143.9658095176226 504.81385841650564 144.42499999999336
    vertex 144.9658095176244 469.51205475878885 152.02075411281564
    vertex 144.96580951762215 502.8138584165073 152.02075411281714
  endloop
endfacet
facet normal 0.13052619221998846 0.9914448613738188 3.984212130469207e-14
  outer loop
    vertex 24.44817142741873 467.58020310621345 152.02075411281595
    vertex 24.965809517623885 467.5120547587889 211.1500000000197
    vertex 24.965809517623775 467.51205475879163 152.02075411281515
  endloop
endfacet
facet normal 0.13052619221998846 0.9914448613738188 3.984212130469207e-14
  outer loop
    vertex 24.965809517623885 467.5120547587889 211.1500000000197
    vertex 24.44817142741873 467.58020310621345 152.02075411281595
    vertex 24.448171427418842 467.5802031062108 211.15000000002038
  endloop
endfacet
facet normal -1.834515220825005e-15 -1.0 -3.8136289002702645e-14
  outer loop
    vertex 142.9658095176228 504.81385841650604 211.14999999999395
    vertex 141.92135909496662 504.81385841650524 159.9541427061446
    vertex 142.96580951762198 504.81385841650746 152.02075411281723
  endloop
endfacet
facet normal -1.834515220825005e-15 -1.0 -3.8136289002702645e-14
  outer loop
    vertex 141.92135909496662 504.81385841650524 159.9541427061446
    vertex 142.9658095176228 504.81385841650604 211.14999999999395
    vertex 135.92733374468892 504.8138584165048 174.4249999999934
  endloop
endfacet
facet normal -1.834515220825005e-15 -1.0 -3.8136289002702645e-14
  outer loop
    vertex 135.92733374468892 504.8138584165048 174.4249999999934
    vertex 142.9658095176228 504.81385841650604 211.14999999999395
    vertex 126.39221638881554 504.8138584165045 186.8514068711863
  endloop
endfacet
facet normal -1.834515220825005e-15 -1.0 -3.8136289002702645e-14
  outer loop
    vertex 126.39221638881554 504.8138584165045 186.8514068711863
    vertex 142.9658095176228 504.81385841650604 211.14999999999395
    vertex 113.96580951762273 504.8138584165041 196.38652422705985
  endloop
endfacet
facet normal -1.834515220825005e-15 -1.0 -3.8136289002702645e-14
  outer loop
    vertex 113.96580951762273 504.8138584165041 196.38652422705985
    vertex 142.9658095176228 504.81385841650604 211.14999999999395
    vertex 99.49495222377404 504.81385841650405 202.38054957733775
  endloop
endfacet
facet normal -1.834515220825005e-15 -1.0 -3.8136289002702645e-14
  outer loop
    vertex 99.49495222377404 504.81385841650405 202.38054957733775
    vertex 142.9658095176228 504.81385841650604 211.14999999999395
    vertex 83.96580951762297 504.81385841650393 204.42499999999413
  endloop
endfacet
facet normal -1.834515220825005e-15 -1.0 -3.8136289002702645e-14
  outer loop
    vertex 26.010259940278438 504.81385841650524 159.95414270614538
    vertex 24.96580951762391 504.81385841650587 211.1500000000203
    vertex 24.965809517622827 504.8138584165087 152.0207541128173
  endloop
endfacet
facet normal -1.834515220825005e-15 -1.0 -3.8136289002702645e-14
  outer loop
    vertex 24.96580951762391 504.81385841650587 211.1500000000203
    vertex 26.010259940278438 504.81385841650524 159.95414270614538
    vertex 32.0042852905563 504.8138584165048 174.42499999999407
  endloop
endfacet
facet normal -1.834515220825005e-15 -1.0 -3.8136289002702645e-14
  outer loop
    vertex 24.96580951762391 504.81385841650587 211.1500000000203
    vertex 32.0042852905563 504.8138584165048 174.42499999999407
    vertex 41.53940264642981 504.8138584165045 186.85140687118684
  endloop
endfacet
facet normal -1.834515220825005e-15 -1.0 -3.8136289002702645e-14
  outer loop
    vertex 24.96580951762391 504.81385841650587 211.1500000000203
    vertex 41.53940264642981 504.8138584165045 186.85140687118684
    vertex 53.96580951762295 504.8138584165041 196.38652422706025
  endloop
endfacet
facet normal -1.834515220825005e-15 -1.0 -3.8136289002702645e-14
  outer loop
    vertex 24.96580951762391 504.81385841650587 211.1500000000203
    vertex 53.96580951762295 504.8138584165041 196.38652422706025
    vertex 68.43666681147174 504.81385841650405 202.38054957733792
  endloop
endfacet
facet normal -1.834515220825005e-15 -1.0 -3.8136289002702645e-14
  outer loop
    vertex 24.96580951762391 504.81385841650587 211.1500000000203
    vertex 68.43666681147174 504.81385841650405 202.38054957733792
    vertex 83.96580951762297 504.81385841650393 204.42499999999413
  endloop
endfacet
facet normal -1.834515220825005e-15 -1.0 -3.8136289002702645e-14
  outer loop
    vertex 24.96580951762391 504.81385841650587 211.1500000000203
    vertex 83.96580951762297 504.81385841650393 204.42499999999413
    vertex 142.9658095176228 504.81385841650604 211.14999999999395
  endloop
endfacet
facet normal -0.13052619221908 -0.9914448613739384 -2.6210499443688898e-14
  outer loop
    vertex 143.4834476078279 504.74571006908417 211.14999999999375
    vertex 142.96580951762198 504.81385841650746 152.02075411281723
    vertex 143.48344760782706 504.74571006908565 152.0207541128169
  endloop
endfacet
facet normal -0.13052619221908 -0.9914448613739384 -2.6210499443688898e-14
  outer loop
    vertex 142.96580951762198 504.81385841650746 152.02075411281723
    vertex 143.4834476078279 504.74571006908417 211.14999999999375
    vertex 142.9658095176228 504.81385841650604 211.14999999999395
  endloop
endfacet
facet normal -1.2577511101158572e-14 -0.8296871063365118 -0.5582287215639716
  outer loop
    vertex 83.96580951762287 463.8223995863802 144.42499999998887
    vertex 65.24247319393757 504.81385841650916 83.4999999999947
    vertex 83.96580951762222 504.81385841650916 83.49999999999443
  endloop
endfacet
facet normal -1.2577511101158572e-14 -0.8296871063365118 -0.5582287215639716
  outer loop
    vertex 65.24247319393757 504.81385841650916 83.4999999999947
    vertex 83.96580951762287 463.8223995863802 144.42499999998887
    vertex 53.35287848314193 463.8223995863803 144.42499999998967
  endloop
endfacet
endsolid Development Mockup Revision 3.2_2
