solid pushfit - Development Mockup rev2
 facet normal 0.000000 0.000000 -1.000000
  outer loop
   vertex -5.191330 3.001343 -2.243713
   vertex -4.995178 0.001343 -2.243713
   vertex -5.191330 -2.998657 -2.243713
  endloop
 endfacet
 facet normal 0.000000 0.000000 -1.000000
  outer loop
   vertex -4.995178 0.001343 -2.243713
   vertex -5.191330 3.001343 -2.243713
   vertex -4.824806 1.295441 -2.243713
  endloop
 endfacet
 facet normal 0.000000 0.000000 -1.000000
  outer loop
   vertex -4.824806 1.295441 -2.243713
   vertex -5.191330 3.001343 -2.243713
   vertex -4.325310 2.501343 -2.243713
  endloop
 endfacet
 facet normal 0.000000 0.000000 -1.000000
  outer loop
   vertex -4.325310 2.501343 -2.243713
   vertex -5.191330 3.001343 -2.243713
   vertex -3.530716 3.536896 -2.243713
  endloop
 endfacet
 facet normal 0.000000 0.000000 -1.000000
  outer loop
   vertex -3.530716 3.536896 -2.243713
   vertex -5.191330 3.001343 -2.243713
   vertex -2.495178 4.331482 -2.243713
  endloop
 endfacet
 facet normal 0.000000 0.000000 -1.000000
  outer loop
   vertex -2.495178 4.331482 -2.243713
   vertex -5.191330 3.001343 -2.243713
   vertex 0.004822 6.001343 -2.243713
  endloop
 endfacet
 facet normal 0.000000 0.000000 -1.000000
  outer loop
   vertex -2.495178 4.331482 -2.243713
   vertex 0.004822 6.001343 -2.243713
   vertex -1.289276 4.830994 -2.243713
  endloop
 endfacet
 facet normal 0.000000 0.000000 -1.000000
  outer loop
   vertex -1.289276 4.830994 -2.243713
   vertex 0.004822 6.001343 -2.243713
   vertex 0.004822 5.001343 -2.243713
  endloop
 endfacet
 facet normal 0.000000 0.000000 -1.000000
  outer loop
   vertex 0.004822 5.001343 -2.243713
   vertex 0.004822 6.001343 -2.243713
   vertex 1.298912 4.830994 -2.243713
  endloop
 endfacet
 facet normal 0.000000 0.000000 -1.000000
  outer loop
   vertex 1.298912 4.830994 -2.243713
   vertex 0.004822 6.001343 -2.243713
   vertex 2.504822 4.331482 -2.243713
  endloop
 endfacet
 facet normal 0.000000 0.000000 -1.000000
  outer loop
   vertex 2.504822 4.331482 -2.243713
   vertex 0.004822 6.001343 -2.243713
   vertex 5.200974 3.001343 -2.243713
  endloop
 endfacet
 facet normal 0.000000 0.000000 -1.000000
  outer loop
   vertex 2.504822 4.331482 -2.243713
   vertex 5.200974 3.001343 -2.243713
   vertex 3.540352 3.536896 -2.243713
  endloop
 endfacet
 facet normal 0.000000 0.000000 -1.000000
  outer loop
   vertex 3.540352 3.536896 -2.243713
   vertex 5.200974 3.001343 -2.243713
   vertex 4.334946 2.501343 -2.243713
  endloop
 endfacet
 facet normal 0.000000 0.000000 -1.000000
  outer loop
   vertex 4.334946 2.501343 -2.243713
   vertex 5.200974 3.001343 -2.243713
   vertex 4.834450 1.295441 -2.243713
  endloop
 endfacet
 facet normal 0.000000 0.000000 -1.000000
  outer loop
   vertex 4.834450 1.295441 -2.243713
   vertex 5.200974 3.001343 -2.243713
   vertex 5.004822 0.001343 -2.243713
  endloop
 endfacet
 facet normal 0.000000 0.000000 -1.000000
  outer loop
   vertex -5.191330 -2.998657 -2.243713
   vertex -2.495178 -4.328766 -2.243713
   vertex 0.004822 -5.998657 -2.243713
  endloop
 endfacet
 facet normal 0.000000 0.000000 -1.000000
  outer loop
   vertex -2.495178 -4.328766 -2.243713
   vertex -5.191330 -2.998657 -2.243713
   vertex -3.530716 -3.534180 -2.243713
  endloop
 endfacet
 facet normal 0.000000 0.000000 -1.000000
  outer loop
   vertex -3.530716 -3.534180 -2.243713
   vertex -5.191330 -2.998657 -2.243713
   vertex -4.325310 -2.498657 -2.243713
  endloop
 endfacet
 facet normal 0.000000 0.000000 -1.000000
  outer loop
   vertex -4.325310 -2.498657 -2.243713
   vertex -5.191330 -2.998657 -2.243713
   vertex -4.824806 -1.292725 -2.243713
  endloop
 endfacet
 facet normal 0.000000 0.000000 -1.000000
  outer loop
   vertex -4.824806 -1.292725 -2.243713
   vertex -5.191330 -2.998657 -2.243713
   vertex -4.995178 0.001343 -2.243713
  endloop
 endfacet
 facet normal 0.000000 0.000000 -1.000000
  outer loop
   vertex 0.004822 -5.998657 -2.243713
   vertex -2.495178 -4.328766 -2.243713
   vertex -1.289276 -4.828278 -2.243713
  endloop
 endfacet
 facet normal 0.000000 0.000000 -1.000000
  outer loop
   vertex 0.004822 -5.998657 -2.243713
   vertex -1.289276 -4.828278 -2.243713
   vertex 0.004822 -4.998657 -2.243713
  endloop
 endfacet
 facet normal 0.000000 0.000000 -1.000000
  outer loop
   vertex 0.004822 -5.998657 -2.243713
   vertex 0.004822 -4.998657 -2.243713
   vertex 1.298912 -4.828278 -2.243713
  endloop
 endfacet
 facet normal 0.000000 0.000000 -1.000000
  outer loop
   vertex 0.004822 -5.998657 -2.243713
   vertex 1.298912 -4.828278 -2.243713
   vertex 2.504822 -4.328766 -2.243713
  endloop
 endfacet
 facet normal 0.000000 0.000000 -1.000000
  outer loop
   vertex 0.004822 -5.998657 -2.243713
   vertex 2.504822 -4.328766 -2.243713
   vertex 5.200974 -2.998657 -2.243713
  endloop
 endfacet
 facet normal 0.000000 0.000000 -1.000000
  outer loop
   vertex 5.200974 -2.998657 -2.243713
   vertex 2.504822 -4.328766 -2.243713
   vertex 3.540352 -3.534180 -2.243713
  endloop
 endfacet
 facet normal 0.000000 0.000000 -1.000000
  outer loop
   vertex 5.200974 -2.998657 -2.243713
   vertex 3.540352 -3.534180 -2.243713
   vertex 4.334946 -2.498657 -2.243713
  endloop
 endfacet
 facet normal 0.000000 0.000000 -1.000000
  outer loop
   vertex 5.200974 -2.998657 -2.243713
   vertex 4.334946 -2.498657 -2.243713
   vertex 4.834450 -1.292725 -2.243713
  endloop
 endfacet
 facet normal 0.000000 0.000000 -1.000000
  outer loop
   vertex 5.200974 -2.998657 -2.243713
   vertex 4.834450 -1.292725 -2.243713
   vertex 5.004822 0.001343 -2.243713
  endloop
 endfacet
 facet normal 0.000000 0.000000 -1.000000
  outer loop
   vertex 5.200974 -2.998657 -2.243713
   vertex 5.004822 0.001343 -2.243713
   vertex 5.200974 3.001343 -2.243713
  endloop
 endfacet
 facet normal 0.923879 0.382685 0.000000
  outer loop
   vertex 4.334946 2.501343 -8.243713
   vertex 4.834450 1.295441 -2.243713
   vertex 4.834450 1.295441 -8.243713
  endloop
 endfacet
 facet normal 0.923879 0.382685 0.000000
  outer loop
   vertex 4.834450 1.295441 -2.243713
   vertex 4.334946 2.501343 -8.243713
   vertex 4.334946 2.501343 -2.243713
  endloop
 endfacet
 facet normal 0.793359 0.608755 0.000000
  outer loop
   vertex 3.540352 3.536896 -8.243713
   vertex 4.334946 2.501343 -2.243713
   vertex 4.334946 2.501343 -8.243713
  endloop
 endfacet
 facet normal 0.793359 0.608755 0.000000
  outer loop
   vertex 4.334946 2.501343 -2.243713
   vertex 3.540352 3.536896 -8.243713
   vertex 3.540352 3.536896 -2.243713
  endloop
 endfacet
 facet normal -0.130533 -0.991444 0.000000
  outer loop
   vertex 0.004822 -4.998657 -2.243713
   vertex -1.289276 -4.828278 -8.243713
   vertex 0.004822 -4.998657 -8.243713
  endloop
 endfacet
 facet normal -0.130533 -0.991444 0.000000
  outer loop
   vertex -1.289276 -4.828278 -8.243713
   vertex 0.004822 -4.998657 -2.243713
   vertex -1.289276 -4.828278 -2.243713
  endloop
 endfacet
 facet normal 0.382688 -0.923877 0.000000
  outer loop
   vertex 2.504822 -4.328766 -2.243713
   vertex 1.298912 -4.828278 -8.243713
   vertex 2.504822 -4.328766 -8.243713
  endloop
 endfacet
 facet normal 0.382688 -0.923877 0.000000
  outer loop
   vertex 1.298912 -4.828278 -8.243713
   vertex 2.504822 -4.328766 -2.243713
   vertex 1.298912 -4.828278 -2.243713
  endloop
 endfacet
 facet normal -0.130510 0.991447 0.000000
  outer loop
   vertex -1.289276 4.830994 -2.243713
   vertex 0.004822 5.001343 -8.243713
   vertex -1.289276 4.830994 -8.243713
  endloop
 endfacet
 facet normal -0.130510 0.991447 0.000000
  outer loop
   vertex 0.004822 5.001343 -8.243713
   vertex -1.289276 4.830994 -2.243713
   vertex 0.004822 5.001343 -2.243713
  endloop
 endfacet
 facet normal 0.608760 0.793355 0.000000
  outer loop
   vertex 2.504822 4.331482 -2.243713
   vertex 3.540352 3.536896 -8.243713
   vertex 2.504822 4.331482 -8.243713
  endloop
 endfacet
 facet normal 0.608760 0.793355 0.000000
  outer loop
   vertex 3.540352 3.536896 -8.243713
   vertex 2.504822 4.331482 -2.243713
   vertex 3.540352 3.536896 -2.243713
  endloop
 endfacet
 facet normal 0.382688 0.923877 0.000000
  outer loop
   vertex 1.298912 4.830994 -2.243713
   vertex 2.504822 4.331482 -8.243713
   vertex 1.298912 4.830994 -8.243713
  endloop
 endfacet
 facet normal 0.382688 0.923877 0.000000
  outer loop
   vertex 2.504822 4.331482 -8.243713
   vertex 1.298912 4.830994 -2.243713
   vertex 2.504822 4.331482 -2.243713
  endloop
 endfacet
 facet normal 0.130510 0.991447 0.000000
  outer loop
   vertex 0.004822 5.001343 -8.243713
   vertex 1.298912 4.830994 -2.243713
   vertex 1.298912 4.830994 -8.243713
  endloop
 endfacet
 facet normal 0.130510 0.991447 0.000000
  outer loop
   vertex 1.298912 4.830994 -2.243713
   vertex 0.004822 5.001343 -8.243713
   vertex 0.004822 5.001343 -2.243713
  endloop
 endfacet
 facet normal -0.382690 0.923877 0.000000
  outer loop
   vertex -2.495178 4.331482 -2.243713
   vertex -1.289276 4.830994 -8.243713
   vertex -2.495178 4.331482 -8.243713
  endloop
 endfacet
 facet normal -0.382690 0.923877 0.000000
  outer loop
   vertex -1.289276 4.830994 -8.243713
   vertex -2.495178 4.331482 -2.243713
   vertex -1.289276 4.830994 -2.243713
  endloop
 endfacet
 facet normal 0.130533 -0.991444 0.000000
  outer loop
   vertex 1.298912 -4.828278 -2.243713
   vertex 0.004822 -4.998657 -8.243713
   vertex 1.298912 -4.828278 -8.243713
  endloop
 endfacet
 facet normal 0.130533 -0.991444 0.000000
  outer loop
   vertex 0.004822 -4.998657 -8.243713
   vertex 1.298912 -4.828278 -2.243713
   vertex 0.004822 -4.998657 -2.243713
  endloop
 endfacet
 facet normal 0.923882 -0.382677 0.000000
  outer loop
   vertex 4.834450 -1.292725 -8.243713
   vertex 4.334946 -2.498657 -2.243713
   vertex 4.334946 -2.498657 -8.243713
  endloop
 endfacet
 facet normal 0.923882 -0.382677 0.000000
  outer loop
   vertex 4.334946 -2.498657 -2.243713
   vertex 4.834450 -1.292725 -8.243713
   vertex 4.834450 -1.292725 -2.243713
  endloop
 endfacet
 facet normal 0.991444 -0.130530 0.000000
  outer loop
   vertex 5.004822 0.001343 -8.243713
   vertex 4.834450 -1.292725 -2.243713
   vertex 4.834450 -1.292725 -8.243713
  endloop
 endfacet
 facet normal 0.991444 -0.130530 0.000000
  outer loop
   vertex 4.834450 -1.292725 -2.243713
   vertex 5.004822 0.001343 -8.243713
   vertex 5.004822 0.001343 -2.243713
  endloop
 endfacet
 facet normal 0.991445 0.130527 0.000000
  outer loop
   vertex 4.834450 1.295441 -8.243713
   vertex 5.004822 0.001343 -2.243713
   vertex 5.004822 0.001343 -8.243713
  endloop
 endfacet
 facet normal 0.991445 0.130527 0.000000
  outer loop
   vertex 5.004822 0.001343 -2.243713
   vertex 4.834450 1.295441 -8.243713
   vertex 4.834450 1.295441 -2.243713
  endloop
 endfacet
 facet normal -0.608757 0.793357 0.000000
  outer loop
   vertex -3.530716 3.536896 -8.243713
   vertex -2.495178 4.331482 -2.243713
   vertex -2.495178 4.331482 -8.243713
  endloop
 endfacet
 facet normal -0.608757 0.793357 0.000000
  outer loop
   vertex -2.495178 4.331482 -2.243713
   vertex -3.530716 3.536896 -8.243713
   vertex -3.530716 3.536896 -2.243713
  endloop
 endfacet
 facet normal 0.608760 -0.793355 0.000000
  outer loop
   vertex 3.540352 -3.534180 -2.243713
   vertex 2.504822 -4.328766 -8.243713
   vertex 3.540352 -3.534180 -8.243713
  endloop
 endfacet
 facet normal 0.608760 -0.793355 0.000000
  outer loop
   vertex 2.504822 -4.328766 -8.243713
   vertex 3.540352 -3.534180 -2.243713
   vertex 2.504822 -4.328766 -2.243713
  endloop
 endfacet
 facet normal 0.793350 -0.608766 0.000000
  outer loop
   vertex 4.334946 -2.498657 -8.243713
   vertex 3.540352 -3.534180 -2.243713
   vertex 3.540352 -3.534180 -8.243713
  endloop
 endfacet
 facet normal 0.793350 -0.608766 0.000000
  outer loop
   vertex 3.540352 -3.534180 -2.243713
   vertex 4.334946 -2.498657 -8.243713
   vertex 4.334946 -2.498657 -2.243713
  endloop
 endfacet
 facet normal -0.793359 0.608755 0.000000
  outer loop
   vertex -4.325310 2.501343 -2.243713
   vertex -3.530716 3.536896 -8.243713
   vertex -4.325310 2.501343 -8.243713
  endloop
 endfacet
 facet normal -0.793359 0.608755 0.000000
  outer loop
   vertex -3.530716 3.536896 -8.243713
   vertex -4.325310 2.501343 -2.243713
   vertex -3.530716 3.536896 -2.243713
  endloop
 endfacet
 facet normal -0.923881 0.382680 0.000000
  outer loop
   vertex -4.824806 1.295441 -2.243713
   vertex -4.325310 2.501343 -8.243713
   vertex -4.824806 1.295441 -8.243713
  endloop
 endfacet
 facet normal -0.923881 0.382680 0.000000
  outer loop
   vertex -4.325310 2.501343 -8.243713
   vertex -4.824806 1.295441 -2.243713
   vertex -4.325310 2.501343 -2.243713
  endloop
 endfacet
 facet normal -0.991445 0.130527 0.000000
  outer loop
   vertex -4.995178 0.001343 -2.243713
   vertex -4.824806 1.295441 -8.243713
   vertex -4.995178 0.001343 -8.243713
  endloop
 endfacet
 facet normal -0.991445 0.130527 0.000000
  outer loop
   vertex -4.824806 1.295441 -8.243713
   vertex -4.995178 0.001343 -2.243713
   vertex -4.824806 1.295441 -2.243713
  endloop
 endfacet
 facet normal -0.991444 -0.130530 0.000000
  outer loop
   vertex -4.824806 -1.292725 -2.243713
   vertex -4.995178 0.001343 -8.243713
   vertex -4.824806 -1.292725 -8.243713
  endloop
 endfacet
 facet normal -0.991444 -0.130530 0.000000
  outer loop
   vertex -4.995178 0.001343 -8.243713
   vertex -4.824806 -1.292725 -2.243713
   vertex -4.995178 0.001343 -2.243713
  endloop
 endfacet
 facet normal -0.923884 -0.382672 0.000000
  outer loop
   vertex -4.325310 -2.498657 -2.243713
   vertex -4.824806 -1.292725 -8.243713
   vertex -4.325310 -2.498657 -8.243713
  endloop
 endfacet
 facet normal -0.923884 -0.382672 0.000000
  outer loop
   vertex -4.824806 -1.292725 -8.243713
   vertex -4.325310 -2.498657 -2.243713
   vertex -4.824806 -1.292725 -2.243713
  endloop
 endfacet
 facet normal -0.793350 -0.608766 0.000000
  outer loop
   vertex -3.530716 -3.534180 -2.243713
   vertex -4.325310 -2.498657 -8.243713
   vertex -3.530716 -3.534180 -8.243713
  endloop
 endfacet
 facet normal -0.793350 -0.608766 0.000000
  outer loop
   vertex -4.325310 -2.498657 -8.243713
   vertex -3.530716 -3.534180 -2.243713
   vertex -4.325310 -2.498657 -2.243713
  endloop
 endfacet
 facet normal -0.608757 -0.793357 0.000000
  outer loop
   vertex -2.495178 -4.328766 -2.243713
   vertex -3.530716 -3.534180 -8.243713
   vertex -2.495178 -4.328766 -8.243713
  endloop
 endfacet
 facet normal -0.608757 -0.793357 0.000000
  outer loop
   vertex -3.530716 -3.534180 -8.243713
   vertex -2.495178 -4.328766 -2.243713
   vertex -3.530716 -3.534180 -2.243713
  endloop
 endfacet
 facet normal -0.382690 -0.923877 0.000000
  outer loop
   vertex -1.289276 -4.828278 -2.243713
   vertex -2.495178 -4.328766 -8.243713
   vertex -1.289276 -4.828278 -8.243713
  endloop
 endfacet
 facet normal -0.382690 -0.923877 0.000000
  outer loop
   vertex -2.495178 -4.328766 -8.243713
   vertex -1.289276 -4.828278 -2.243713
   vertex -2.495178 -4.328766 -2.243713
  endloop
 endfacet
 facet normal 0.000000 0.000000 1.000000
  outer loop
   vertex -5.191330 -2.998657 3.756287
   vertex -3.858887 -1.033905 3.756287
   vertex -3.995178 0.001343 3.756287
  endloop
 endfacet
 facet normal 0.000000 0.000000 1.000000
  outer loop
   vertex -3.858887 -1.033905 3.756287
   vertex -5.191330 -2.998657 3.756287
   vertex -3.459282 -1.998657 3.756287
  endloop
 endfacet
 facet normal 0.000000 0.000000 1.000000
  outer loop
   vertex -3.459282 -1.998657 3.756287
   vertex -5.191330 -2.998657 3.756287
   vertex -2.823608 -2.827057 3.756287
  endloop
 endfacet
 facet normal 0.000000 0.000000 1.000000
  outer loop
   vertex -2.823608 -2.827057 3.756287
   vertex -5.191330 -2.998657 3.756287
   vertex 0.004822 -5.998657 3.756287
  endloop
 endfacet
 facet normal 0.000000 0.000000 1.000000
  outer loop
   vertex -2.823608 -2.827057 3.756287
   vertex 0.004822 -5.998657 3.756287
   vertex -1.995178 -3.462738 3.756287
  endloop
 endfacet
 facet normal 0.000000 0.000000 1.000000
  outer loop
   vertex -1.995178 -3.462738 3.756287
   vertex 0.004822 -5.998657 3.756287
   vertex -1.030457 -3.862335 3.756287
  endloop
 endfacet
 facet normal 0.000000 0.000000 1.000000
  outer loop
   vertex -1.030457 -3.862335 3.756287
   vertex 0.004822 -5.998657 3.756287
   vertex 0.004822 -3.998657 3.756287
  endloop
 endfacet
 facet normal 0.000000 0.000000 1.000000
  outer loop
   vertex 0.004822 -3.998657 3.756287
   vertex 0.004822 -5.998657 3.756287
   vertex 1.040100 -3.862335 3.756287
  endloop
 endfacet
 facet normal 0.000000 0.000000 1.000000
  outer loop
   vertex 1.040100 -3.862335 3.756287
   vertex 0.004822 -5.998657 3.756287
   vertex 5.200974 -2.998657 3.756287
  endloop
 endfacet
 facet normal 0.000000 0.000000 1.000000
  outer loop
   vertex 1.040100 -3.862335 3.756287
   vertex 5.200974 -2.998657 3.756287
   vertex 2.004822 -3.462738 3.756287
  endloop
 endfacet
 facet normal 0.000000 0.000000 1.000000
  outer loop
   vertex 2.004822 -3.462738 3.756287
   vertex 5.200974 -2.998657 3.756287
   vertex 2.833244 -2.827057 3.756287
  endloop
 endfacet
 facet normal 0.000000 0.000000 1.000000
  outer loop
   vertex 2.833244 -2.827057 3.756287
   vertex 5.200974 -2.998657 3.756287
   vertex 3.468925 -1.998657 3.756287
  endloop
 endfacet
 facet normal 0.000000 0.000000 1.000000
  outer loop
   vertex 3.468925 -1.998657 3.756287
   vertex 5.200974 -2.998657 3.756287
   vertex 3.868523 -1.033905 3.756287
  endloop
 endfacet
 facet normal 0.000000 0.000000 1.000000
  outer loop
   vertex 3.868523 -1.033905 3.756287
   vertex 5.200974 -2.998657 3.756287
   vertex 4.004822 0.001343 3.756287
  endloop
 endfacet
 facet normal 0.000000 0.000000 1.000000
  outer loop
   vertex 4.004822 0.001343 3.756287
   vertex 5.200974 -2.998657 3.756287
   vertex 5.200974 3.001343 3.756287
  endloop
 endfacet
 facet normal 0.000000 0.000000 1.000000
  outer loop
   vertex -5.191330 3.001343 3.756287
   vertex -2.823608 2.829773 3.756287
   vertex 0.004822 6.001343 3.756287
  endloop
 endfacet
 facet normal 0.000000 0.000000 1.000000
  outer loop
   vertex -2.823608 2.829773 3.756287
   vertex -5.191330 3.001343 3.756287
   vertex -3.459282 2.001343 3.756287
  endloop
 endfacet
 facet normal 0.000000 0.000000 1.000000
  outer loop
   vertex -3.459282 2.001343 3.756287
   vertex -5.191330 3.001343 3.756287
   vertex -3.858887 1.036621 3.756287
  endloop
 endfacet
 facet normal 0.000000 0.000000 1.000000
  outer loop
   vertex -3.858887 1.036621 3.756287
   vertex -5.191330 3.001343 3.756287
   vertex -5.191330 -2.998657 3.756287
  endloop
 endfacet
 facet normal 0.000000 0.000000 1.000000
  outer loop
   vertex -3.858887 1.036621 3.756287
   vertex -5.191330 -2.998657 3.756287
   vertex -3.995178 0.001343 3.756287
  endloop
 endfacet
 facet normal 0.000000 0.000000 1.000000
  outer loop
   vertex 0.004822 6.001343 3.756287
   vertex -2.823608 2.829773 3.756287
   vertex -1.995178 3.465454 3.756287
  endloop
 endfacet
 facet normal 0.000000 0.000000 1.000000
  outer loop
   vertex 0.004822 6.001343 3.756287
   vertex -1.995178 3.465454 3.756287
   vertex -1.030457 3.865051 3.756287
  endloop
 endfacet
 facet normal 0.000000 0.000000 1.000000
  outer loop
   vertex 0.004822 6.001343 3.756287
   vertex -1.030457 3.865051 3.756287
   vertex 0.004822 4.001343 3.756287
  endloop
 endfacet
 facet normal 0.000000 0.000000 1.000000
  outer loop
   vertex 0.004822 6.001343 3.756287
   vertex 0.004822 4.001343 3.756287
   vertex 1.040100 3.865051 3.756287
  endloop
 endfacet
 facet normal 0.000000 0.000000 1.000000
  outer loop
   vertex 0.004822 6.001343 3.756287
   vertex 1.040100 3.865051 3.756287
   vertex 5.200974 3.001343 3.756287
  endloop
 endfacet
 facet normal 0.000000 0.000000 1.000000
  outer loop
   vertex 5.200974 3.001343 3.756287
   vertex 1.040100 3.865051 3.756287
   vertex 2.004822 3.465454 3.756287
  endloop
 endfacet
 facet normal 0.000000 0.000000 1.000000
  outer loop
   vertex 5.200974 3.001343 3.756287
   vertex 2.004822 3.465454 3.756287
   vertex 2.833244 2.829773 3.756287
  endloop
 endfacet
 facet normal 0.000000 0.000000 1.000000
  outer loop
   vertex 5.200974 3.001343 3.756287
   vertex 2.833244 2.829773 3.756287
   vertex 3.468925 2.001343 3.756287
  endloop
 endfacet
 facet normal 0.000000 0.000000 1.000000
  outer loop
   vertex 5.200974 3.001343 3.756287
   vertex 3.468925 2.001343 3.756287
   vertex 3.868523 1.036621 3.756287
  endloop
 endfacet
 facet normal 0.000000 0.000000 1.000000
  outer loop
   vertex 5.200974 3.001343 3.756287
   vertex 3.868523 1.036621 3.756287
   vertex 4.004822 0.001343 3.756287
  endloop
 endfacet
 facet normal 0.500000 -0.866025 0.000000
  outer loop
   vertex 5.200974 -2.998657 3.756287
   vertex 0.004822 -5.998657 -2.243713
   vertex 5.200974 -2.998657 -2.243713
  endloop
 endfacet
 facet normal 0.500000 -0.866025 0.000000
  outer loop
   vertex 0.004822 -5.998657 -2.243713
   vertex 5.200974 -2.998657 3.756287
   vertex 0.004822 -5.998657 3.756287
  endloop
 endfacet
 facet normal 0.000000 0.000000 -1.000000
  outer loop
   vertex -4.824806 1.295441 -8.243713
   vertex -4.824806 -1.292725 -8.243713
   vertex -4.995178 0.001343 -8.243713
  endloop
 endfacet
 facet normal 0.000000 0.000000 -1.000000
  outer loop
   vertex -4.824806 -1.292725 -8.243713
   vertex -4.824806 1.295441 -8.243713
   vertex -4.325310 2.501343 -8.243713
  endloop
 endfacet
 facet normal 0.000000 0.000000 -1.000000
  outer loop
   vertex -4.824806 -1.292725 -8.243713
   vertex -4.325310 2.501343 -8.243713
   vertex -4.325310 -2.498657 -8.243713
  endloop
 endfacet
 facet normal 0.000000 0.000000 -1.000000
  outer loop
   vertex -4.325310 -2.498657 -8.243713
   vertex -4.325310 2.501343 -8.243713
   vertex -3.530716 3.536896 -8.243713
  endloop
 endfacet
 facet normal 0.000000 0.000000 -1.000000
  outer loop
   vertex -4.325310 -2.498657 -8.243713
   vertex -3.530716 3.536896 -8.243713
   vertex -3.530716 -3.534180 -8.243713
  endloop
 endfacet
 facet normal 0.000000 0.000000 -1.000000
  outer loop
   vertex -3.530716 -3.534180 -8.243713
   vertex -3.530716 3.536896 -8.243713
   vertex -2.495178 4.331482 -8.243713
  endloop
 endfacet
 facet normal 0.000000 0.000000 -1.000000
  outer loop
   vertex -3.530716 -3.534180 -8.243713
   vertex -2.495178 4.331482 -8.243713
   vertex -2.495178 -4.328766 -8.243713
  endloop
 endfacet
 facet normal 0.000000 0.000000 -1.000000
  outer loop
   vertex -2.495178 -4.328766 -8.243713
   vertex -2.495178 4.331482 -8.243713
   vertex -1.995178 0.001343 -8.243713
  endloop
 endfacet
 facet normal 0.000000 0.000000 -1.000000
  outer loop
   vertex -1.995178 0.001343 -8.243713
   vertex -2.495178 4.331482 -8.243713
   vertex -1.927032 0.518982 -8.243713
  endloop
 endfacet
 facet normal 0.000000 0.000000 -1.000000
  outer loop
   vertex -1.927032 0.518982 -8.243713
   vertex -2.495178 4.331482 -8.243713
   vertex -1.289276 4.830994 -8.243713
  endloop
 endfacet
 facet normal 0.000000 0.000000 -1.000000
  outer loop
   vertex -1.927032 0.518982 -8.243713
   vertex -1.289276 4.830994 -8.243713
   vertex -1.727234 1.001343 -8.243713
  endloop
 endfacet
 facet normal 0.000000 0.000000 -1.000000
  outer loop
   vertex -1.727234 1.001343 -8.243713
   vertex -1.289276 4.830994 -8.243713
   vertex -1.409393 1.415558 -8.243713
  endloop
 endfacet
 facet normal 0.000000 0.000000 -1.000000
  outer loop
   vertex -1.409393 1.415558 -8.243713
   vertex -1.289276 4.830994 -8.243713
   vertex -0.995178 1.733398 -8.243713
  endloop
 endfacet
 facet normal 0.000000 0.000000 -1.000000
  outer loop
   vertex -0.995178 1.733398 -8.243713
   vertex -1.289276 4.830994 -8.243713
   vertex 0.004822 5.001343 -8.243713
  endloop
 endfacet
 facet normal 0.000000 0.000000 -1.000000
  outer loop
   vertex -0.995178 1.733398 -8.243713
   vertex 0.004822 5.001343 -8.243713
   vertex -0.512817 1.933197 -8.243713
  endloop
 endfacet
 facet normal 0.000000 0.000000 -1.000000
  outer loop
   vertex -0.512817 1.933197 -8.243713
   vertex 0.004822 5.001343 -8.243713
   vertex 0.004822 2.001343 -8.243713
  endloop
 endfacet
 facet normal 0.000000 0.000000 -1.000000
  outer loop
   vertex 0.004822 2.001343 -8.243713
   vertex 0.004822 5.001343 -8.243713
   vertex 1.298912 4.830994 -8.243713
  endloop
 endfacet
 facet normal 0.000000 0.000000 -1.000000
  outer loop
   vertex 0.004822 2.001343 -8.243713
   vertex 1.298912 4.830994 -8.243713
   vertex 0.522461 1.933197 -8.243713
  endloop
 endfacet
 facet normal 0.000000 0.000000 -1.000000
  outer loop
   vertex 0.522461 1.933197 -8.243713
   vertex 1.298912 4.830994 -8.243713
   vertex 1.004822 1.733398 -8.243713
  endloop
 endfacet
 facet normal 0.000000 0.000000 -1.000000
  outer loop
   vertex 1.004822 1.733398 -8.243713
   vertex 1.298912 4.830994 -8.243713
   vertex 1.419037 1.415558 -8.243713
  endloop
 endfacet
 facet normal 0.000000 0.000000 -1.000000
  outer loop
   vertex 1.419037 1.415558 -8.243713
   vertex 1.298912 4.830994 -8.243713
   vertex 2.504822 4.331482 -8.243713
  endloop
 endfacet
 facet normal 0.000000 0.000000 -1.000000
  outer loop
   vertex 1.419037 1.415558 -8.243713
   vertex 2.504822 4.331482 -8.243713
   vertex 1.736870 1.001343 -8.243713
  endloop
 endfacet
 facet normal 0.000000 0.000000 -1.000000
  outer loop
   vertex 1.736870 1.001343 -8.243713
   vertex 2.504822 4.331482 -8.243713
   vertex 1.936668 0.518982 -8.243713
  endloop
 endfacet
 facet normal 0.000000 0.000000 -1.000000
  outer loop
   vertex 1.936668 0.518982 -8.243713
   vertex 2.504822 4.331482 -8.243713
   vertex 2.004822 0.001343 -8.243713
  endloop
 endfacet
 facet normal 0.000000 0.000000 -1.000000
  outer loop
   vertex -2.495178 -4.328766 -8.243713
   vertex -1.927032 -0.516266 -8.243713
   vertex -1.289276 -4.828278 -8.243713
  endloop
 endfacet
 facet normal 0.000000 0.000000 -1.000000
  outer loop
   vertex -1.927032 -0.516266 -8.243713
   vertex -2.495178 -4.328766 -8.243713
   vertex -1.995178 0.001343 -8.243713
  endloop
 endfacet
 facet normal 0.000000 0.000000 -1.000000
  outer loop
   vertex -1.289276 -4.828278 -8.243713
   vertex -1.927032 -0.516266 -8.243713
   vertex -1.727234 -0.998657 -8.243713
  endloop
 endfacet
 facet normal 0.000000 0.000000 -1.000000
  outer loop
   vertex -1.289276 -4.828278 -8.243713
   vertex -1.727234 -0.998657 -8.243713
   vertex -1.409393 -1.412842 -8.243713
  endloop
 endfacet
 facet normal 0.000000 0.000000 -1.000000
  outer loop
   vertex -1.289276 -4.828278 -8.243713
   vertex -1.409393 -1.412842 -8.243713
   vertex -0.995178 -1.730682 -8.243713
  endloop
 endfacet
 facet normal 0.000000 0.000000 -1.000000
  outer loop
   vertex -1.289276 -4.828278 -8.243713
   vertex -0.995178 -1.730682 -8.243713
   vertex 0.004822 -4.998657 -8.243713
  endloop
 endfacet
 facet normal 0.000000 0.000000 -1.000000
  outer loop
   vertex 0.004822 -4.998657 -8.243713
   vertex -0.995178 -1.730682 -8.243713
   vertex -0.512817 -1.930481 -8.243713
  endloop
 endfacet
 facet normal 0.000000 0.000000 -1.000000
  outer loop
   vertex 0.004822 -4.998657 -8.243713
   vertex -0.512817 -1.930481 -8.243713
   vertex 0.004822 -1.998657 -8.243713
  endloop
 endfacet
 facet normal 0.000000 0.000000 -1.000000
  outer loop
   vertex 0.004822 -4.998657 -8.243713
   vertex 0.004822 -1.998657 -8.243713
   vertex 0.522461 -1.930481 -8.243713
  endloop
 endfacet
 facet normal 0.000000 0.000000 -1.000000
  outer loop
   vertex 0.004822 -4.998657 -8.243713
   vertex 0.522461 -1.930481 -8.243713
   vertex 1.298912 -4.828278 -8.243713
  endloop
 endfacet
 facet normal 0.000000 0.000000 -1.000000
  outer loop
   vertex 1.298912 -4.828278 -8.243713
   vertex 0.522461 -1.930481 -8.243713
   vertex 1.004822 -1.730682 -8.243713
  endloop
 endfacet
 facet normal 0.000000 0.000000 -1.000000
  outer loop
   vertex 1.298912 -4.828278 -8.243713
   vertex 1.004822 -1.730682 -8.243713
   vertex 1.419037 -1.412842 -8.243713
  endloop
 endfacet
 facet normal 0.000000 0.000000 -1.000000
  outer loop
   vertex 1.298912 -4.828278 -8.243713
   vertex 1.419037 -1.412842 -8.243713
   vertex 2.504822 -4.328766 -8.243713
  endloop
 endfacet
 facet normal 0.000000 0.000000 -1.000000
  outer loop
   vertex 2.504822 -4.328766 -8.243713
   vertex 1.419037 -1.412842 -8.243713
   vertex 1.736870 -0.998657 -8.243713
  endloop
 endfacet
 facet normal 0.000000 0.000000 -1.000000
  outer loop
   vertex 2.504822 -4.328766 -8.243713
   vertex 1.736870 -0.998657 -8.243713
   vertex 1.936668 -0.516266 -8.243713
  endloop
 endfacet
 facet normal 0.000000 0.000000 -1.000000
  outer loop
   vertex 2.504822 -4.328766 -8.243713
   vertex 1.936668 -0.516266 -8.243713
   vertex 2.004822 0.001343 -8.243713
  endloop
 endfacet
 facet normal 0.000000 0.000000 -1.000000
  outer loop
   vertex 2.504822 -4.328766 -8.243713
   vertex 2.004822 0.001343 -8.243713
   vertex 2.504822 4.331482 -8.243713
  endloop
 endfacet
 facet normal 0.000000 0.000000 -1.000000
  outer loop
   vertex 2.504822 -4.328766 -8.243713
   vertex 2.504822 4.331482 -8.243713
   vertex 3.540352 3.536896 -8.243713
  endloop
 endfacet
 facet normal 0.000000 0.000000 -1.000000
  outer loop
   vertex 2.504822 -4.328766 -8.243713
   vertex 3.540352 3.536896 -8.243713
   vertex 3.540352 -3.534180 -8.243713
  endloop
 endfacet
 facet normal 0.000000 0.000000 -1.000000
  outer loop
   vertex 3.540352 -3.534180 -8.243713
   vertex 3.540352 3.536896 -8.243713
   vertex 4.334946 2.501343 -8.243713
  endloop
 endfacet
 facet normal 0.000000 0.000000 -1.000000
  outer loop
   vertex 3.540352 -3.534180 -8.243713
   vertex 4.334946 2.501343 -8.243713
   vertex 4.334946 -2.498657 -8.243713
  endloop
 endfacet
 facet normal 0.000000 0.000000 -1.000000
  outer loop
   vertex 4.334946 -2.498657 -8.243713
   vertex 4.334946 2.501343 -8.243713
   vertex 4.834450 1.295441 -8.243713
  endloop
 endfacet
 facet normal 0.000000 0.000000 -1.000000
  outer loop
   vertex 4.334946 -2.498657 -8.243713
   vertex 4.834450 1.295441 -8.243713
   vertex 4.834450 -1.292725 -8.243713
  endloop
 endfacet
 facet normal 0.000000 0.000000 -1.000000
  outer loop
   vertex 4.834450 -1.292725 -8.243713
   vertex 4.834450 1.295441 -8.243713
   vertex 5.004822 0.001343 -8.243713
  endloop
 endfacet
 facet normal -0.500000 0.866025 0.000000
  outer loop
   vertex -5.191330 3.001343 -2.243713
   vertex 0.004822 6.001343 3.756287
   vertex 0.004822 6.001343 -2.243713
  endloop
 endfacet
 facet normal -0.500000 0.866025 0.000000
  outer loop
   vertex 0.004822 6.001343 3.756287
   vertex -5.191330 3.001343 -2.243713
   vertex -5.191330 3.001343 3.756287
  endloop
 endfacet
 facet normal 1.000000 0.000000 0.000000
  outer loop
   vertex 5.200974 3.001343 -2.243713
   vertex 5.200974 -2.998657 3.756287
   vertex 5.200974 -2.998657 -2.243713
  endloop
 endfacet
 facet normal 1.000000 0.000000 0.000000
  outer loop
   vertex 5.200974 -2.998657 3.756287
   vertex 5.200974 3.001343 -2.243713
   vertex 5.200974 3.001343 3.756287
  endloop
 endfacet
 facet normal 0.500000 0.866025 0.000000
  outer loop
   vertex 0.004822 6.001343 3.756287
   vertex 5.200974 3.001343 -2.243713
   vertex 0.004822 6.001343 -2.243713
  endloop
 endfacet
 facet normal 0.500000 0.866025 0.000000
  outer loop
   vertex 5.200974 3.001343 -2.243713
   vertex 0.004822 6.001343 3.756287
   vertex 5.200974 3.001343 3.756287
  endloop
 endfacet
 facet normal -1.000000 0.000000 0.000000
  outer loop
   vertex -5.191330 -2.998657 3.756287
   vertex -5.191330 3.001343 -2.243713
   vertex -5.191330 -2.998657 -2.243713
  endloop
 endfacet
 facet normal -1.000000 0.000000 0.000000
  outer loop
   vertex -5.191330 3.001343 -2.243713
   vertex -5.191330 -2.998657 3.756287
   vertex -5.191330 3.001343 3.756287
  endloop
 endfacet
 facet normal -0.500000 -0.866025 0.000000
  outer loop
   vertex 0.004822 -5.998657 3.756287
   vertex -5.191330 -2.998657 -2.243713
   vertex 0.004822 -5.998657 -2.243713
  endloop
 endfacet
 facet normal -0.500000 -0.866025 0.000000
  outer loop
   vertex -5.191330 -2.998657 -2.243713
   vertex 0.004822 -5.998657 3.756287
   vertex -5.191330 -2.998657 3.756287
  endloop
 endfacet
 facet normal 0.000000 0.000000 1.000000
  outer loop
   vertex -2.116501 -2.119965 8.256287
   vertex -1.927032 -0.516266 8.256287
   vertex -1.995178 0.001343 8.256287
  endloop
 endfacet
 facet normal 0.000000 0.000000 1.000000
  outer loop
   vertex -1.927032 -0.516266 8.256287
   vertex -2.116501 -2.119965 8.256287
   vertex -1.495178 -2.596710 8.256287
  endloop
 endfacet
 facet normal 0.000000 0.000000 1.000000
  outer loop
   vertex -1.927032 -0.516266 8.256287
   vertex -1.495178 -2.596710 8.256287
   vertex -1.727234 -0.998657 8.256287
  endloop
 endfacet
 facet normal 0.000000 0.000000 1.000000
  outer loop
   vertex -1.727234 -0.998657 8.256287
   vertex -1.495178 -2.596710 8.256287
   vertex -1.409393 -1.412842 8.256287
  endloop
 endfacet
 facet normal 0.000000 0.000000 1.000000
  outer loop
   vertex -1.409393 -1.412842 8.256287
   vertex -1.495178 -2.596710 8.256287
   vertex -0.771637 -2.896423 8.256287
  endloop
 endfacet
 facet normal 0.000000 0.000000 1.000000
  outer loop
   vertex -1.409393 -1.412842 8.256287
   vertex -0.771637 -2.896423 8.256287
   vertex -0.995178 -1.730682 8.256287
  endloop
 endfacet
 facet normal 0.000000 0.000000 1.000000
  outer loop
   vertex -0.995178 -1.730682 8.256287
   vertex -0.771637 -2.896423 8.256287
   vertex -0.512817 -1.930481 8.256287
  endloop
 endfacet
 facet normal 0.000000 0.000000 1.000000
  outer loop
   vertex -0.512817 -1.930481 8.256287
   vertex -0.771637 -2.896423 8.256287
   vertex 0.004822 -2.998657 8.256287
  endloop
 endfacet
 facet normal 0.000000 0.000000 1.000000
  outer loop
   vertex -0.512817 -1.930481 8.256287
   vertex 0.004822 -2.998657 8.256287
   vertex 0.004822 -1.998657 8.256287
  endloop
 endfacet
 facet normal 0.000000 0.000000 1.000000
  outer loop
   vertex 0.004822 -1.998657 8.256287
   vertex 0.004822 -2.998657 8.256287
   vertex 0.781281 -2.896423 8.256287
  endloop
 endfacet
 facet normal 0.000000 0.000000 1.000000
  outer loop
   vertex 0.004822 -1.998657 8.256287
   vertex 0.781281 -2.896423 8.256287
   vertex 0.522461 -1.930481 8.256287
  endloop
 endfacet
 facet normal 0.000000 0.000000 1.000000
  outer loop
   vertex 0.522461 -1.930481 8.256287
   vertex 0.781281 -2.896423 8.256287
   vertex 1.004822 -1.730682 8.256287
  endloop
 endfacet
 facet normal 0.000000 0.000000 1.000000
  outer loop
   vertex 1.004822 -1.730682 8.256287
   vertex 0.781281 -2.896423 8.256287
   vertex 1.504822 -2.596710 8.256287
  endloop
 endfacet
 facet normal 0.000000 0.000000 1.000000
  outer loop
   vertex 1.004822 -1.730682 8.256287
   vertex 1.504822 -2.596710 8.256287
   vertex 1.419037 -1.412842 8.256287
  endloop
 endfacet
 facet normal 0.000000 0.000000 1.000000
  outer loop
   vertex 1.419037 -1.412842 8.256287
   vertex 1.504822 -2.596710 8.256287
   vertex 1.736870 -0.998657 8.256287
  endloop
 endfacet
 facet normal 0.000000 0.000000 1.000000
  outer loop
   vertex 1.736870 -0.998657 8.256287
   vertex 1.504822 -2.596710 8.256287
   vertex 2.126137 -2.119965 8.256287
  endloop
 endfacet
 facet normal 0.000000 0.000000 1.000000
  outer loop
   vertex 1.736870 -0.998657 8.256287
   vertex 2.126137 -2.119965 8.256287
   vertex 1.936668 -0.516266 8.256287
  endloop
 endfacet
 facet normal 0.000000 0.000000 1.000000
  outer loop
   vertex 1.936668 -0.516266 8.256287
   vertex 2.126137 -2.119965 8.256287
   vertex 2.004822 0.001343 8.256287
  endloop
 endfacet
 facet normal 0.000000 0.000000 1.000000
  outer loop
   vertex 2.004822 0.001343 8.256287
   vertex 2.126137 -2.119965 8.256287
   vertex 2.126137 2.122681 8.256287
  endloop
 endfacet
 facet normal 0.000000 0.000000 1.000000
  outer loop
   vertex 2.126137 2.122681 8.256287
   vertex 2.126137 -2.119965 8.256287
   vertex 2.602898 1.501343 8.256287
  endloop
 endfacet
 facet normal 0.000000 0.000000 1.000000
  outer loop
   vertex 2.602898 1.501343 8.256287
   vertex 2.126137 -2.119965 8.256287
   vertex 2.602898 -1.498657 8.256287
  endloop
 endfacet
 facet normal 0.000000 0.000000 1.000000
  outer loop
   vertex 2.602898 1.501343 8.256287
   vertex 2.602898 -1.498657 8.256287
   vertex 2.902596 -0.775085 8.256287
  endloop
 endfacet
 facet normal 0.000000 0.000000 1.000000
  outer loop
   vertex 2.602898 1.501343 8.256287
   vertex 2.902596 -0.775085 8.256287
   vertex 2.902596 0.777802 8.256287
  endloop
 endfacet
 facet normal 0.000000 0.000000 1.000000
  outer loop
   vertex 2.902596 0.777802 8.256287
   vertex 2.902596 -0.775085 8.256287
   vertex 3.004822 0.001343 8.256287
  endloop
 endfacet
 facet normal 0.000000 0.000000 1.000000
  outer loop
   vertex -2.892960 -0.775085 8.256287
   vertex -2.892960 0.777802 8.256287
   vertex -2.995178 0.001343 8.256287
  endloop
 endfacet
 facet normal 0.000000 0.000000 1.000000
  outer loop
   vertex -2.892960 0.777802 8.256287
   vertex -2.892960 -0.775085 8.256287
   vertex -2.593254 -1.498657 8.256287
  endloop
 endfacet
 facet normal 0.000000 0.000000 1.000000
  outer loop
   vertex -2.892960 0.777802 8.256287
   vertex -2.593254 -1.498657 8.256287
   vertex -2.593254 1.501343 8.256287
  endloop
 endfacet
 facet normal 0.000000 0.000000 1.000000
  outer loop
   vertex -2.593254 1.501343 8.256287
   vertex -2.593254 -1.498657 8.256287
   vertex -2.116501 -2.119965 8.256287
  endloop
 endfacet
 facet normal 0.000000 0.000000 1.000000
  outer loop
   vertex -2.593254 1.501343 8.256287
   vertex -2.116501 -2.119965 8.256287
   vertex -2.116501 2.122681 8.256287
  endloop
 endfacet
 facet normal 0.000000 0.000000 1.000000
  outer loop
   vertex -2.116501 2.122681 8.256287
   vertex -2.116501 -2.119965 8.256287
   vertex -1.995178 0.001343 8.256287
  endloop
 endfacet
 facet normal 0.000000 0.000000 1.000000
  outer loop
   vertex -2.116501 2.122681 8.256287
   vertex -1.995178 0.001343 8.256287
   vertex -1.927032 0.518982 8.256287
  endloop
 endfacet
 facet normal 0.000000 0.000000 1.000000
  outer loop
   vertex -2.116501 2.122681 8.256287
   vertex -1.927032 0.518982 8.256287
   vertex -1.495178 2.599426 8.256287
  endloop
 endfacet
 facet normal 0.000000 0.000000 1.000000
  outer loop
   vertex -1.495178 2.599426 8.256287
   vertex -1.927032 0.518982 8.256287
   vertex -1.727234 1.001343 8.256287
  endloop
 endfacet
 facet normal 0.000000 0.000000 1.000000
  outer loop
   vertex -1.495178 2.599426 8.256287
   vertex -1.727234 1.001343 8.256287
   vertex -1.409393 1.415558 8.256287
  endloop
 endfacet
 facet normal 0.000000 0.000000 1.000000
  outer loop
   vertex -1.495178 2.599426 8.256287
   vertex -1.409393 1.415558 8.256287
   vertex -0.771637 2.899139 8.256287
  endloop
 endfacet
 facet normal 0.000000 0.000000 1.000000
  outer loop
   vertex -0.771637 2.899139 8.256287
   vertex -1.409393 1.415558 8.256287
   vertex -0.995178 1.733398 8.256287
  endloop
 endfacet
 facet normal 0.000000 0.000000 1.000000
  outer loop
   vertex -0.771637 2.899139 8.256287
   vertex -0.995178 1.733398 8.256287
   vertex -0.512817 1.933197 8.256287
  endloop
 endfacet
 facet normal 0.000000 0.000000 1.000000
  outer loop
   vertex -0.771637 2.899139 8.256287
   vertex -0.512817 1.933197 8.256287
   vertex 0.004822 3.001343 8.256287
  endloop
 endfacet
 facet normal 0.000000 0.000000 1.000000
  outer loop
   vertex 0.004822 3.001343 8.256287
   vertex -0.512817 1.933197 8.256287
   vertex 0.004822 2.001343 8.256287
  endloop
 endfacet
 facet normal 0.000000 0.000000 1.000000
  outer loop
   vertex 0.004822 3.001343 8.256287
   vertex 0.004822 2.001343 8.256287
   vertex 0.781281 2.899139 8.256287
  endloop
 endfacet
 facet normal 0.000000 0.000000 1.000000
  outer loop
   vertex 0.781281 2.899139 8.256287
   vertex 0.004822 2.001343 8.256287
   vertex 0.522461 1.933197 8.256287
  endloop
 endfacet
 facet normal 0.000000 0.000000 1.000000
  outer loop
   vertex 0.781281 2.899139 8.256287
   vertex 0.522461 1.933197 8.256287
   vertex 1.004822 1.733398 8.256287
  endloop
 endfacet
 facet normal 0.000000 0.000000 1.000000
  outer loop
   vertex 0.781281 2.899139 8.256287
   vertex 1.004822 1.733398 8.256287
   vertex 1.504822 2.599426 8.256287
  endloop
 endfacet
 facet normal 0.000000 0.000000 1.000000
  outer loop
   vertex 1.504822 2.599426 8.256287
   vertex 1.004822 1.733398 8.256287
   vertex 1.419037 1.415558 8.256287
  endloop
 endfacet
 facet normal 0.000000 0.000000 1.000000
  outer loop
   vertex 1.504822 2.599426 8.256287
   vertex 1.419037 1.415558 8.256287
   vertex 1.736870 1.001343 8.256287
  endloop
 endfacet
 facet normal 0.000000 0.000000 1.000000
  outer loop
   vertex 1.504822 2.599426 8.256287
   vertex 1.736870 1.001343 8.256287
   vertex 2.126137 2.122681 8.256287
  endloop
 endfacet
 facet normal 0.000000 0.000000 1.000000
  outer loop
   vertex 2.126137 2.122681 8.256287
   vertex 1.736870 1.001343 8.256287
   vertex 1.936668 0.518982 8.256287
  endloop
 endfacet
 facet normal 0.000000 0.000000 1.000000
  outer loop
   vertex 2.126137 2.122681 8.256287
   vertex 1.936668 0.518982 8.256287
   vertex 2.004822 0.001343 8.256287
  endloop
 endfacet
 facet normal 0.382680 0.923881 0.000000
  outer loop
   vertex 1.040100 3.865051 3.756287
   vertex 2.004822 3.465454 6.256287
   vertex 2.004822 3.465454 3.756287
  endloop
 endfacet
 facet normal 0.382680 0.923881 0.000000
  outer loop
   vertex 2.004822 3.465454 6.256287
   vertex 1.040100 3.865051 3.756287
   vertex 1.040100 3.865051 6.256287
  endloop
 endfacet
 facet normal 0.793351 0.608764 0.000000
  outer loop
   vertex 2.833244 2.829773 3.756287
   vertex 3.468925 2.001343 6.256287
   vertex 3.468925 2.001343 3.756287
  endloop
 endfacet
 facet normal 0.793351 0.608764 0.000000
  outer loop
   vertex 3.468925 2.001343 6.256287
   vertex 2.833244 2.829773 3.756287
   vertex 2.833244 2.829773 6.256287
  endloop
 endfacet
 facet normal -0.130550 -0.991442 0.000000
  outer loop
   vertex 0.004822 -3.998657 6.256287
   vertex -1.030457 -3.862335 3.756287
   vertex 0.004822 -3.998657 3.756287
  endloop
 endfacet
 facet normal -0.130550 -0.991442 0.000000
  outer loop
   vertex -1.030457 -3.862335 3.756287
   vertex 0.004822 -3.998657 6.256287
   vertex -1.030457 -3.862335 6.256287
  endloop
 endfacet
 facet normal 0.608768 -0.793349 0.000000
  outer loop
   vertex 2.833244 -2.827057 6.256287
   vertex 2.004822 -3.462738 3.756287
   vertex 2.833244 -2.827057 3.756287
  endloop
 endfacet
 facet normal 0.608768 -0.793349 0.000000
  outer loop
   vertex 2.004822 -3.462738 3.756287
   vertex 2.833244 -2.827057 6.256287
   vertex 2.004822 -3.462738 6.256287
  endloop
 endfacet
 facet normal 0.382680 -0.923881 0.000000
  outer loop
   vertex 2.004822 -3.462738 6.256287
   vertex 1.040100 -3.862335 3.756287
   vertex 2.004822 -3.462738 3.756287
  endloop
 endfacet
 facet normal 0.382680 -0.923881 0.000000
  outer loop
   vertex 1.040100 -3.862335 3.756287
   vertex 2.004822 -3.462738 6.256287
   vertex 1.040100 -3.862335 6.256287
  endloop
 endfacet
 facet normal 0.130550 -0.991442 0.000000
  outer loop
   vertex 1.040100 -3.862335 6.256287
   vertex 0.004822 -3.998657 3.756287
   vertex 1.040100 -3.862335 3.756287
  endloop
 endfacet
 facet normal 0.130550 -0.991442 0.000000
  outer loop
   vertex 0.004822 -3.998657 3.756287
   vertex 1.040100 -3.862335 6.256287
   vertex 0.004822 -3.998657 6.256287
  endloop
 endfacet
 facet normal -0.608764 0.793351 0.000000
  outer loop
   vertex -2.823608 2.829773 3.756287
   vertex -1.995178 3.465454 6.256287
   vertex -1.995178 3.465454 3.756287
  endloop
 endfacet
 facet normal -0.608764 0.793351 0.000000
  outer loop
   vertex -1.995178 3.465454 6.256287
   vertex -2.823608 2.829773 3.756287
   vertex -2.823608 2.829773 6.256287
  endloop
 endfacet
 facet normal 0.991444 -0.130532 0.000000
  outer loop
   vertex 4.004822 0.001343 3.756287
   vertex 3.868523 -1.033905 6.256287
   vertex 3.868523 -1.033905 3.756287
  endloop
 endfacet
 facet normal 0.991444 -0.130532 0.000000
  outer loop
   vertex 3.868523 -1.033905 6.256287
   vertex 4.004822 0.001343 3.756287
   vertex 4.004822 0.001343 6.256287
  endloop
 endfacet
 facet normal -0.991445 -0.130525 0.000000
  outer loop
   vertex -3.858887 -1.033905 6.256287
   vertex -3.995178 0.001343 3.756287
   vertex -3.858887 -1.033905 3.756287
  endloop
 endfacet
 facet normal -0.991445 -0.130525 0.000000
  outer loop
   vertex -3.995178 0.001343 3.756287
   vertex -3.858887 -1.033905 6.256287
   vertex -3.995178 0.001343 6.256287
  endloop
 endfacet
 facet normal 0.923881 0.382680 0.000000
  outer loop
   vertex 3.468925 2.001343 3.756287
   vertex 3.868523 1.036621 6.256287
   vertex 3.868523 1.036621 3.756287
  endloop
 endfacet
 facet normal 0.923881 0.382680 0.000000
  outer loop
   vertex 3.868523 1.036621 6.256287
   vertex 3.468925 2.001343 3.756287
   vertex 3.468925 2.001343 6.256287
  endloop
 endfacet
 facet normal 0.991445 0.130528 0.000000
  outer loop
   vertex 3.868523 1.036621 3.756287
   vertex 4.004822 0.001343 6.256287
   vertex 4.004822 0.001343 3.756287
  endloop
 endfacet
 facet normal 0.991445 0.130528 0.000000
  outer loop
   vertex 4.004822 0.001343 6.256287
   vertex 3.868523 1.036621 3.756287
   vertex 3.868523 1.036621 6.256287
  endloop
 endfacet
 facet normal -0.923882 -0.382676 0.000000
  outer loop
   vertex -3.459282 -1.998657 6.256287
   vertex -3.858887 -1.033905 3.756287
   vertex -3.459282 -1.998657 3.756287
  endloop
 endfacet
 facet normal -0.923882 -0.382676 0.000000
  outer loop
   vertex -3.858887 -1.033905 3.756287
   vertex -3.459282 -1.998657 6.256287
   vertex -3.858887 -1.033905 6.256287
  endloop
 endfacet
 facet normal -0.608764 -0.793351 0.000000
  outer loop
   vertex -1.995178 -3.462738 6.256287
   vertex -2.823608 -2.827057 3.756287
   vertex -1.995178 -3.462738 3.756287
  endloop
 endfacet
 facet normal -0.608764 -0.793351 0.000000
  outer loop
   vertex -2.823608 -2.827057 3.756287
   vertex -1.995178 -3.462738 6.256287
   vertex -2.823608 -2.827057 6.256287
  endloop
 endfacet
 facet normal -0.923878 0.382687 0.000000
  outer loop
   vertex -3.858887 1.036621 6.256287
   vertex -3.459282 2.001343 3.756287
   vertex -3.858887 1.036621 3.756287
  endloop
 endfacet
 facet normal -0.923878 0.382687 0.000000
  outer loop
   vertex -3.459282 2.001343 3.756287
   vertex -3.858887 1.036621 6.256287
   vertex -3.459282 2.001343 6.256287
  endloop
 endfacet
 facet normal -0.793355 0.608759 0.000000
  outer loop
   vertex -3.459282 2.001343 6.256287
   vertex -2.823608 2.829773 3.756287
   vertex -3.459282 2.001343 3.756287
  endloop
 endfacet
 facet normal -0.793355 0.608759 0.000000
  outer loop
   vertex -2.823608 2.829773 3.756287
   vertex -3.459282 2.001343 6.256287
   vertex -2.823608 2.829773 6.256287
  endloop
 endfacet
 facet normal 0.608768 0.793349 0.000000
  outer loop
   vertex 2.004822 3.465454 6.256287
   vertex 2.833244 2.829773 3.756287
   vertex 2.004822 3.465454 3.756287
  endloop
 endfacet
 facet normal 0.608768 0.793349 0.000000
  outer loop
   vertex 2.833244 2.829773 3.756287
   vertex 2.004822 3.465454 6.256287
   vertex 2.833244 2.829773 6.256287
  endloop
 endfacet
 facet normal 0.923885 -0.382670 0.000000
  outer loop
   vertex 3.868523 -1.033905 3.756287
   vertex 3.468925 -1.998657 6.256287
   vertex 3.468925 -1.998657 3.756287
  endloop
 endfacet
 facet normal 0.923885 -0.382670 0.000000
  outer loop
   vertex 3.468925 -1.998657 6.256287
   vertex 3.868523 -1.033905 3.756287
   vertex 3.868523 -1.033905 6.256287
  endloop
 endfacet
 facet normal -0.130521 0.991446 0.000000
  outer loop
   vertex -1.030457 3.865051 6.256287
   vertex 0.004822 4.001343 3.756287
   vertex -1.030457 3.865051 3.756287
  endloop
 endfacet
 facet normal -0.130521 0.991446 0.000000
  outer loop
   vertex 0.004822 4.001343 3.756287
   vertex -1.030457 3.865051 6.256287
   vertex 0.004822 4.001343 6.256287
  endloop
 endfacet
 facet normal 0.130521 0.991446 0.000000
  outer loop
   vertex 0.004822 4.001343 6.256287
   vertex 1.040100 3.865051 3.756287
   vertex 0.004822 4.001343 3.756287
  endloop
 endfacet
 facet normal 0.130521 0.991446 0.000000
  outer loop
   vertex 1.040100 3.865051 3.756287
   vertex 0.004822 4.001343 6.256287
   vertex 1.040100 3.865051 6.256287
  endloop
 endfacet
 facet normal 0.793341 -0.608778 0.000000
  outer loop
   vertex 3.468925 -1.998657 3.756287
   vertex 2.833244 -2.827057 6.256287
   vertex 2.833244 -2.827057 3.756287
  endloop
 endfacet
 facet normal 0.793341 -0.608778 0.000000
  outer loop
   vertex 2.833244 -2.827057 6.256287
   vertex 3.468925 -1.998657 3.756287
   vertex 3.468925 -1.998657 6.256287
  endloop
 endfacet
 facet normal -0.991446 0.130521 0.000000
  outer loop
   vertex -3.995178 0.001343 6.256287
   vertex -3.858887 1.036621 3.756287
   vertex -3.995178 0.001343 3.756287
  endloop
 endfacet
 facet normal -0.991446 0.130521 0.000000
  outer loop
   vertex -3.858887 1.036621 3.756287
   vertex -3.995178 0.001343 6.256287
   vertex -3.858887 1.036621 6.256287
  endloop
 endfacet
 facet normal -0.382680 -0.923881 0.000000
  outer loop
   vertex -1.030457 -3.862335 6.256287
   vertex -1.995178 -3.462738 3.756287
   vertex -1.030457 -3.862335 3.756287
  endloop
 endfacet
 facet normal -0.382680 -0.923881 0.000000
  outer loop
   vertex -1.995178 -3.462738 3.756287
   vertex -1.030457 -3.862335 6.256287
   vertex -1.995178 -3.462738 6.256287
  endloop
 endfacet
 facet normal -0.382680 0.923881 0.000000
  outer loop
   vertex -1.995178 3.465454 6.256287
   vertex -1.030457 3.865051 3.756287
   vertex -1.995178 3.465454 3.756287
  endloop
 endfacet
 facet normal -0.382680 0.923881 0.000000
  outer loop
   vertex -1.030457 3.865051 3.756287
   vertex -1.995178 3.465454 6.256287
   vertex -1.030457 3.865051 6.256287
  endloop
 endfacet
 facet normal -0.793344 -0.608774 0.000000
  outer loop
   vertex -2.823608 -2.827057 6.256287
   vertex -3.459282 -1.998657 3.756287
   vertex -2.823608 -2.827057 3.756287
  endloop
 endfacet
 facet normal -0.793344 -0.608774 0.000000
  outer loop
   vertex -3.459282 -1.998657 3.756287
   vertex -2.823608 -2.827057 6.256287
   vertex -3.459282 -1.998657 6.256287
  endloop
 endfacet
 facet normal -0.923889 0.382660 0.000000
  outer loop
   vertex 1.736870 -0.998657 8.256287
   vertex 1.936668 -0.516266 -8.243713
   vertex 1.736870 -0.998657 -8.243713
  endloop
 endfacet
 facet normal -0.923889 0.382660 0.000000
  outer loop
   vertex 1.936668 -0.516266 -8.243713
   vertex 1.736870 -0.998657 8.256287
   vertex 1.936668 -0.516266 8.256287
  endloop
 endfacet
 facet normal 0.382681 0.923881 0.000000
  outer loop
   vertex -0.995178 -1.730682 8.256287
   vertex -0.512817 -1.930481 -8.243713
   vertex -0.995178 -1.730682 -8.243713
  endloop
 endfacet
 facet normal 0.382681 0.923881 0.000000
  outer loop
   vertex -0.512817 -1.930481 -8.243713
   vertex -0.995178 -1.730682 8.256287
   vertex -0.512817 -1.930481 8.256287
  endloop
 endfacet
 facet normal 0.793330 0.608792 0.000000
  outer loop
   vertex -1.727234 -0.998657 -8.243713
   vertex -1.409393 -1.412842 8.256287
   vertex -1.409393 -1.412842 -8.243713
  endloop
 endfacet
 facet normal 0.793330 0.608792 0.000000
  outer loop
   vertex -1.409393 -1.412842 8.256287
   vertex -1.727234 -0.998657 -8.243713
   vertex -1.727234 -0.998657 8.256287
  endloop
 endfacet
 facet normal -0.382681 0.923881 0.000000
  outer loop
   vertex 0.522461 -1.930481 8.256287
   vertex 1.004822 -1.730682 -8.243713
   vertex 0.522461 -1.930481 -8.243713
  endloop
 endfacet
 facet normal -0.382681 0.923881 0.000000
  outer loop
   vertex 1.004822 -1.730682 -8.243713
   vertex 0.522461 -1.930481 8.256287
   vertex 1.004822 -1.730682 8.256287
  endloop
 endfacet
 facet normal 0.991446 -0.130521 0.000000
  outer loop
   vertex -1.927032 0.518982 -8.243713
   vertex -1.995178 0.001343 8.256287
   vertex -1.995178 0.001343 -8.243713
  endloop
 endfacet
 facet normal 0.991446 -0.130521 0.000000
  outer loop
   vertex -1.995178 0.001343 8.256287
   vertex -1.927032 0.518982 -8.243713
   vertex -1.927032 0.518982 8.256287
  endloop
 endfacet
 facet normal -0.608764 0.793351 0.000000
  outer loop
   vertex 1.004822 -1.730682 8.256287
   vertex 1.419037 -1.412842 -8.243713
   vertex 1.004822 -1.730682 -8.243713
  endloop
 endfacet
 facet normal -0.608764 0.793351 0.000000
  outer loop
   vertex 1.419037 -1.412842 -8.243713
   vertex 1.004822 -1.730682 8.256287
   vertex 1.419037 -1.412842 8.256287
  endloop
 endfacet
 facet normal 0.608764 -0.793351 0.000000
  outer loop
   vertex -0.995178 1.733398 8.256287
   vertex -1.409393 1.415558 -8.243713
   vertex -0.995178 1.733398 -8.243713
  endloop
 endfacet
 facet normal 0.608764 -0.793351 0.000000
  outer loop
   vertex -1.409393 1.415558 -8.243713
   vertex -0.995178 1.733398 8.256287
   vertex -1.409393 1.415558 8.256287
  endloop
 endfacet
 facet normal -0.608764 -0.793351 0.000000
  outer loop
   vertex 1.419037 1.415558 8.256287
   vertex 1.004822 1.733398 -8.243713
   vertex 1.419037 1.415558 -8.243713
  endloop
 endfacet
 facet normal -0.608764 -0.793351 0.000000
  outer loop
   vertex 1.004822 1.733398 -8.243713
   vertex 1.419037 1.415558 8.256287
   vertex 1.004822 1.733398 8.256287
  endloop
 endfacet
 facet normal -0.382681 -0.923881 0.000000
  outer loop
   vertex 1.004822 1.733398 8.256287
   vertex 0.522461 1.933197 -8.243713
   vertex 1.004822 1.733398 -8.243713
  endloop
 endfacet
 facet normal -0.382681 -0.923881 0.000000
  outer loop
   vertex 0.522461 1.933197 -8.243713
   vertex 1.004822 1.733398 8.256287
   vertex 0.522461 1.933197 8.256287
  endloop
 endfacet
 facet normal -0.130521 -0.991446 0.000000
  outer loop
   vertex 0.522461 1.933197 8.256287
   vertex 0.004822 2.001343 -8.243713
   vertex 0.522461 1.933197 -8.243713
  endloop
 endfacet
 facet normal -0.130521 -0.991446 0.000000
  outer loop
   vertex 0.004822 2.001343 -8.243713
   vertex 0.522461 1.933197 8.256287
   vertex 0.004822 2.001343 8.256287
  endloop
 endfacet
 facet normal 0.130578 0.991438 0.000000
  outer loop
   vertex -0.512817 -1.930481 8.256287
   vertex 0.004822 -1.998657 -8.243713
   vertex -0.512817 -1.930481 -8.243713
  endloop
 endfacet
 facet normal 0.130578 0.991438 0.000000
  outer loop
   vertex 0.004822 -1.998657 -8.243713
   vertex -0.512817 -1.930481 8.256287
   vertex 0.004822 -1.998657 8.256287
  endloop
 endfacet
 facet normal -0.991443 0.130543 0.000000
  outer loop
   vertex 1.936668 -0.516266 8.256287
   vertex 2.004822 0.001343 -8.243713
   vertex 1.936668 -0.516266 -8.243713
  endloop
 endfacet
 facet normal -0.991443 0.130543 0.000000
  outer loop
   vertex 2.004822 0.001343 -8.243713
   vertex 1.936668 -0.516266 8.256287
   vertex 2.004822 0.001343 8.256287
  endloop
 endfacet
 facet normal -0.923881 -0.382681 0.000000
  outer loop
   vertex 1.936668 0.518982 8.256287
   vertex 1.736870 1.001343 -8.243713
   vertex 1.936668 0.518982 -8.243713
  endloop
 endfacet
 facet normal -0.923881 -0.382681 0.000000
  outer loop
   vertex 1.736870 1.001343 -8.243713
   vertex 1.936668 0.518982 8.256287
   vertex 1.736870 1.001343 8.256287
  endloop
 endfacet
 facet normal 0.382681 -0.923881 0.000000
  outer loop
   vertex -0.512817 1.933197 8.256287
   vertex -0.995178 1.733398 -8.243713
   vertex -0.512817 1.933197 -8.243713
  endloop
 endfacet
 facet normal 0.382681 -0.923881 0.000000
  outer loop
   vertex -0.995178 1.733398 -8.243713
   vertex -0.512817 1.933197 8.256287
   vertex -0.995178 1.733398 8.256287
  endloop
 endfacet
 facet normal 0.793351 -0.608764 0.000000
  outer loop
   vertex -1.409393 1.415558 -8.243713
   vertex -1.727234 1.001343 8.256287
   vertex -1.727234 1.001343 -8.243713
  endloop
 endfacet
 facet normal 0.793351 -0.608764 0.000000
  outer loop
   vertex -1.727234 1.001343 8.256287
   vertex -1.409393 1.415558 -8.243713
   vertex -1.409393 1.415558 8.256287
  endloop
 endfacet
 facet normal 0.923881 -0.382681 0.000000
  outer loop
   vertex -1.727234 1.001343 -8.243713
   vertex -1.927032 0.518982 8.256287
   vertex -1.927032 0.518982 -8.243713
  endloop
 endfacet
 facet normal 0.923881 -0.382681 0.000000
  outer loop
   vertex -1.927032 0.518982 8.256287
   vertex -1.727234 1.001343 -8.243713
   vertex -1.727234 1.001343 8.256287
  endloop
 endfacet
 facet normal -0.991444 -0.130535 0.000000
  outer loop
   vertex 2.004822 0.001343 8.256287
   vertex 1.936668 0.518982 -8.243713
   vertex 2.004822 0.001343 -8.243713
  endloop
 endfacet
 facet normal -0.991444 -0.130535 0.000000
  outer loop
   vertex 1.936668 0.518982 -8.243713
   vertex 2.004822 0.001343 8.256287
   vertex 1.936668 0.518982 8.256287
  endloop
 endfacet
 facet normal -0.130578 0.991438 0.000000
  outer loop
   vertex 0.004822 -1.998657 8.256287
   vertex 0.522461 -1.930481 -8.243713
   vertex 0.004822 -1.998657 -8.243713
  endloop
 endfacet
 facet normal -0.130578 0.991438 0.000000
  outer loop
   vertex 0.522461 -1.930481 -8.243713
   vertex 0.004822 -1.998657 8.256287
   vertex 0.522461 -1.930481 8.256287
  endloop
 endfacet
 facet normal 0.923889 0.382660 0.000000
  outer loop
   vertex -1.927032 -0.516266 -8.243713
   vertex -1.727234 -0.998657 8.256287
   vertex -1.727234 -0.998657 -8.243713
  endloop
 endfacet
 facet normal 0.923889 0.382660 0.000000
  outer loop
   vertex -1.727234 -0.998657 8.256287
   vertex -1.927032 -0.516266 -8.243713
   vertex -1.927032 -0.516266 8.256287
  endloop
 endfacet
 facet normal 0.991445 0.130529 0.000000
  outer loop
   vertex -1.995178 0.001343 -8.243713
   vertex -1.927032 -0.516266 8.256287
   vertex -1.927032 -0.516266 -8.243713
  endloop
 endfacet
 facet normal 0.991445 0.130529 0.000000
  outer loop
   vertex -1.927032 -0.516266 8.256287
   vertex -1.995178 0.001343 -8.243713
   vertex -1.995178 0.001343 8.256287
  endloop
 endfacet
 facet normal -0.793337 0.608783 0.000000
  outer loop
   vertex 1.419037 -1.412842 8.256287
   vertex 1.736870 -0.998657 -8.243713
   vertex 1.419037 -1.412842 -8.243713
  endloop
 endfacet
 facet normal -0.793337 0.608783 0.000000
  outer loop
   vertex 1.736870 -0.998657 -8.243713
   vertex 1.419037 -1.412842 8.256287
   vertex 1.736870 -0.998657 8.256287
  endloop
 endfacet
 facet normal 0.608764 0.793351 0.000000
  outer loop
   vertex -1.409393 -1.412842 8.256287
   vertex -0.995178 -1.730682 -8.243713
   vertex -1.409393 -1.412842 -8.243713
  endloop
 endfacet
 facet normal 0.608764 0.793351 0.000000
  outer loop
   vertex -0.995178 -1.730682 -8.243713
   vertex -1.409393 -1.412842 8.256287
   vertex -0.995178 -1.730682 8.256287
  endloop
 endfacet
 facet normal 0.130521 -0.991446 0.000000
  outer loop
   vertex 0.004822 2.001343 8.256287
   vertex -0.512817 1.933197 -8.243713
   vertex 0.004822 2.001343 -8.243713
  endloop
 endfacet
 facet normal 0.130521 -0.991446 0.000000
  outer loop
   vertex -0.512817 1.933197 -8.243713
   vertex 0.004822 2.001343 8.256287
   vertex -0.512817 1.933197 8.256287
  endloop
 endfacet
 facet normal -0.793358 -0.608755 0.000000
  outer loop
   vertex 1.736870 1.001343 8.256287
   vertex 1.419037 1.415558 -8.243713
   vertex 1.736870 1.001343 -8.243713
  endloop
 endfacet
 facet normal -0.793358 -0.608755 0.000000
  outer loop
   vertex 1.419037 1.415558 -8.243713
   vertex 1.736870 1.001343 8.256287
   vertex 1.419037 1.415558 8.256287
  endloop
 endfacet
 facet normal -0.888290 0.116941 0.444145
  outer loop
   vertex -2.995178 0.001343 8.256287
   vertex -3.858887 1.036621 6.256287
   vertex -3.995178 0.001343 6.256287
  endloop
 endfacet
 facet normal -0.888290 0.116941 0.444145
  outer loop
   vertex -3.858887 1.036621 6.256287
   vertex -2.995178 0.001343 8.256287
   vertex -2.892960 0.777802 8.256287
  endloop
 endfacet
 facet normal -0.827752 0.342872 0.444145
  outer loop
   vertex -2.593254 1.501343 8.256287
   vertex -3.858887 1.036621 6.256287
   vertex -2.892960 0.777802 8.256287
  endloop
 endfacet
 facet normal -0.827753 0.342870 0.444146
  outer loop
   vertex -3.858887 1.036621 6.256287
   vertex -2.593254 1.501343 8.256287
   vertex -3.459282 2.001343 6.256287
  endloop
 endfacet
 facet normal -0.710817 0.545411 0.444146
  outer loop
   vertex -2.116501 2.122681 8.256287
   vertex -3.459282 2.001343 6.256287
   vertex -2.593254 1.501343 8.256287
  endloop
 endfacet
 facet normal -0.710811 0.545422 0.444142
  outer loop
   vertex -3.459282 2.001343 6.256287
   vertex -2.116501 2.122681 8.256287
   vertex -2.823608 2.829773 6.256287
  endloop
 endfacet
 facet normal -0.545425 0.710807 0.444146
  outer loop
   vertex -2.823608 2.829773 6.256287
   vertex -1.495178 2.599426 8.256287
   vertex -1.995178 3.465454 6.256287
  endloop
 endfacet
 facet normal -0.545416 0.710817 0.444140
  outer loop
   vertex -1.495178 2.599426 8.256287
   vertex -2.823608 2.829773 6.256287
   vertex -2.116501 2.122681 8.256287
  endloop
 endfacet
 facet normal -0.342864 0.827755 0.444146
  outer loop
   vertex -1.495178 2.599426 8.256287
   vertex -1.030457 3.865051 6.256287
   vertex -1.995178 3.465454 6.256287
  endloop
 endfacet
 facet normal -0.342880 0.827752 0.444140
  outer loop
   vertex -1.030457 3.865051 6.256287
   vertex -1.495178 2.599426 8.256287
   vertex -0.771637 2.899139 8.256287
  endloop
 endfacet
 facet normal -0.116941 0.888293 0.444140
  outer loop
   vertex -0.771637 2.899139 8.256287
   vertex 0.004822 4.001343 6.256287
   vertex -1.030457 3.865051 6.256287
  endloop
 endfacet
 facet normal -0.116924 0.888292 0.444146
  outer loop
   vertex 0.004822 4.001343 6.256287
   vertex -0.771637 2.899139 8.256287
   vertex 0.004822 3.001343 8.256287
  endloop
 endfacet
 facet normal 0.116941 0.888290 0.444145
  outer loop
   vertex 0.004822 3.001343 8.256287
   vertex 1.040100 3.865051 6.256287
   vertex 0.004822 4.001343 6.256287
  endloop
 endfacet
 facet normal 0.116924 0.888296 0.444139
  outer loop
   vertex 1.040100 3.865051 6.256287
   vertex 0.004822 3.001343 8.256287
   vertex 0.781281 2.899139 8.256287
  endloop
 endfacet
 facet normal 0.342864 0.827755 0.444146
  outer loop
   vertex 1.040100 3.865051 6.256287
   vertex 1.504822 2.599426 8.256287
   vertex 2.004822 3.465454 6.256287
  endloop
 endfacet
 facet normal 0.342880 0.827752 0.444140
  outer loop
   vertex 1.504822 2.599426 8.256287
   vertex 1.040100 3.865051 6.256287
   vertex 0.781281 2.899139 8.256287
  endloop
 endfacet
 facet normal 0.545428 0.710805 0.444145
  outer loop
   vertex 1.504822 2.599426 8.256287
   vertex 2.833244 2.829773 6.256287
   vertex 2.004822 3.465454 6.256287
  endloop
 endfacet
 facet normal 0.545420 0.710814 0.444141
  outer loop
   vertex 2.833244 2.829773 6.256287
   vertex 1.504822 2.599426 8.256287
   vertex 2.126137 2.122681 8.256287
  endloop
 endfacet
 facet normal -0.888290 -0.116944 0.444145
  outer loop
   vertex -2.892960 -0.775085 8.256287
   vertex -3.995178 0.001343 6.256287
   vertex -3.858887 -1.033905 6.256287
  endloop
 endfacet
 facet normal -0.888290 -0.116945 0.444145
  outer loop
   vertex -3.995178 0.001343 6.256287
   vertex -2.892960 -0.775085 8.256287
   vertex -2.995178 0.001343 8.256287
  endloop
 endfacet
 facet normal -0.827757 -0.342861 0.444145
  outer loop
   vertex -2.593254 -1.498657 8.256287
   vertex -3.858887 -1.033905 6.256287
   vertex -3.459282 -1.998657 6.256287
  endloop
 endfacet
 facet normal -0.827757 -0.342859 0.444146
  outer loop
   vertex -3.858887 -1.033905 6.256287
   vertex -2.593254 -1.498657 8.256287
   vertex -2.892960 -0.775085 8.256287
  endloop
 endfacet
 facet normal -0.710801 -0.545434 0.444143
  outer loop
   vertex -2.116501 -2.119965 8.256287
   vertex -3.459282 -1.998657 6.256287
   vertex -2.823608 -2.827057 6.256287
  endloop
 endfacet
 facet normal -0.710805 -0.545428 0.444145
  outer loop
   vertex -3.459282 -1.998657 6.256287
   vertex -2.116501 -2.119965 8.256287
   vertex -2.593254 -1.498657 8.256287
  endloop
 endfacet
 facet normal 0.710813 0.545416 0.444146
  outer loop
   vertex 3.468925 2.001343 6.256287
   vertex 2.126137 2.122681 8.256287
   vertex 2.602898 1.501343 8.256287
  endloop
 endfacet
 facet normal 0.710808 0.545426 0.444142
  outer loop
   vertex 2.126137 2.122681 8.256287
   vertex 3.468925 2.001343 6.256287
   vertex 2.833244 2.829773 6.256287
  endloop
 endfacet
 facet normal 0.827755 0.342864 0.444146
  outer loop
   vertex 3.868523 1.036621 6.256287
   vertex 2.602898 1.501343 8.256287
   vertex 2.902596 0.777802 8.256287
  endloop
 endfacet
 facet normal 0.827755 0.342864 0.444146
  outer loop
   vertex 2.602898 1.501343 8.256287
   vertex 3.868523 1.036621 6.256287
   vertex 3.468925 2.001343 6.256287
  endloop
 endfacet
 facet normal 0.888290 0.116947 0.444145
  outer loop
   vertex 3.868523 1.036621 6.256287
   vertex 3.004822 0.001343 8.256287
   vertex 4.004822 0.001343 6.256287
  endloop
 endfacet
 facet normal 0.888289 0.116950 0.444146
  outer loop
   vertex 3.004822 0.001343 8.256287
   vertex 3.868523 1.036621 6.256287
   vertex 2.902596 0.777802 8.256287
  endloop
 endfacet
 facet normal 0.888289 -0.116951 0.444146
  outer loop
   vertex 4.004822 0.001343 6.256287
   vertex 2.902596 -0.775085 8.256287
   vertex 3.868523 -1.033905 6.256287
  endloop
 endfacet
 facet normal 0.888289 -0.116954 0.444145
  outer loop
   vertex 2.902596 -0.775085 8.256287
   vertex 4.004822 0.001343 6.256287
   vertex 3.004822 0.001343 8.256287
  endloop
 endfacet
 facet normal 0.827759 -0.342855 0.444145
  outer loop
   vertex 3.868523 -1.033905 6.256287
   vertex 2.602898 -1.498657 8.256287
   vertex 3.468925 -1.998657 6.256287
  endloop
 endfacet
 facet normal 0.827760 -0.342852 0.444146
  outer loop
   vertex 2.602898 -1.498657 8.256287
   vertex 3.868523 -1.033905 6.256287
   vertex 2.902596 -0.775085 8.256287
  endloop
 endfacet
 facet normal 0.710798 -0.545438 0.444143
  outer loop
   vertex 3.468925 -1.998657 6.256287
   vertex 2.126137 -2.119965 8.256287
   vertex 2.833244 -2.827057 6.256287
  endloop
 endfacet
 facet normal 0.710801 -0.545434 0.444145
  outer loop
   vertex 2.126137 -2.119965 8.256287
   vertex 3.468925 -1.998657 6.256287
   vertex 2.602898 -1.498657 8.256287
  endloop
 endfacet
 facet normal 0.545429 -0.710806 0.444141
  outer loop
   vertex 2.126137 -2.119965 8.256287
   vertex 2.004822 -3.462738 6.256287
   vertex 2.833244 -2.827057 6.256287
  endloop
 endfacet
 facet normal 0.545418 -0.710812 0.444146
  outer loop
   vertex 2.004822 -3.462738 6.256287
   vertex 2.126137 -2.119965 8.256287
   vertex 1.504822 -2.596710 8.256287
  endloop
 endfacet
 facet normal 0.342864 -0.827755 0.444146
  outer loop
   vertex 1.504822 -2.596710 8.256287
   vertex 1.040100 -3.862335 6.256287
   vertex 2.004822 -3.462738 6.256287
  endloop
 endfacet
 facet normal 0.342880 -0.827752 0.444140
  outer loop
   vertex 1.040100 -3.862335 6.256287
   vertex 1.504822 -2.596710 8.256287
   vertex 0.781281 -2.896423 8.256287
  endloop
 endfacet
 facet normal 0.116967 -0.888289 0.444141
  outer loop
   vertex 0.781281 -2.896423 8.256287
   vertex 0.004822 -3.998657 6.256287
   vertex 1.040100 -3.862335 6.256287
  endloop
 endfacet
 facet normal 0.116958 -0.888289 0.444144
  outer loop
   vertex 0.004822 -3.998657 6.256287
   vertex 0.781281 -2.896423 8.256287
   vertex 0.004822 -2.998657 8.256287
  endloop
 endfacet
 facet normal -0.116967 -0.888288 0.444144
  outer loop
   vertex 0.004822 -2.998657 8.256287
   vertex -1.030457 -3.862335 6.256287
   vertex 0.004822 -3.998657 6.256287
  endloop
 endfacet
 facet normal -0.116958 -0.888290 0.444141
  outer loop
   vertex -1.030457 -3.862335 6.256287
   vertex 0.004822 -2.998657 8.256287
   vertex -0.771637 -2.896423 8.256287
  endloop
 endfacet
 facet normal -0.545425 -0.710807 0.444146
  outer loop
   vertex -1.495178 -2.596710 8.256287
   vertex -2.823608 -2.827057 6.256287
   vertex -1.995178 -3.462738 6.256287
  endloop
 endfacet
 facet normal -0.545416 -0.710817 0.444140
  outer loop
   vertex -2.823608 -2.827057 6.256287
   vertex -1.495178 -2.596710 8.256287
   vertex -2.116501 -2.119965 8.256287
  endloop
 endfacet
 facet normal -0.342865 -0.827758 0.444141
  outer loop
   vertex -0.771637 -2.896423 8.256287
   vertex -1.995178 -3.462738 6.256287
   vertex -1.030457 -3.862335 6.256287
  endloop
 endfacet
 facet normal -0.342879 -0.827749 0.444146
  outer loop
   vertex -1.995178 -3.462738 6.256287
   vertex -0.771637 -2.896423 8.256287
   vertex -1.495178 -2.596710 8.256287
  endloop
 endfacet
endsolid pushfit - Development Mockup rev2
