solid OpenSCAD_Model
  facet normal -0.980785 -0.195092 0
    outer loop
      vertex -5.88 -5 0
      vertex -6.00332 -4.38005 6.5
      vertex -6.00332 -4.38005 0
    endloop
  endfacet
  facet normal -0.980785 -0.195092 0
    outer loop
      vertex -6.00332 -4.38005 6.5
      vertex -5.88 -5 0
      vertex -5.88 -5 6.5
    endloop
  endfacet
  facet normal 0.980785 -0.195092 0
    outer loop
      vertex -9.12 -5 6.5
      vertex -8.99668 -4.38005 0
      vertex -8.99668 -4.38005 6.5
    endloop
  endfacet
  facet normal 0.980785 -0.195092 0
    outer loop
      vertex -8.99668 -4.38005 0
      vertex -9.12 -5 6.5
      vertex -9.12 -5 0
    endloop
  endfacet
  facet normal -0.195092 -0.980785 0
    outer loop
      vertex -7.5 -3.38 0
      vertex -6.88005 -3.50332 6.5
      vertex -7.5 -3.38 6.5
    endloop
  endfacet
  facet normal -0.195092 -0.980785 -0
    outer loop
      vertex -6.88005 -3.50332 6.5
      vertex -7.5 -3.38 0
      vertex -6.88005 -3.50332 0
    endloop
  endfacet
  facet normal -0.83147 -0.55557 0
    outer loop
      vertex -6.00332 -4.38005 0
      vertex -6.35449 -3.85449 6.5
      vertex -6.35449 -3.85449 0
    endloop
  endfacet
  facet normal -0.83147 -0.55557 0
    outer loop
      vertex -6.35449 -3.85449 6.5
      vertex -6.00332 -4.38005 0
      vertex -6.00332 -4.38005 6.5
    endloop
  endfacet
  facet normal 0.195092 0.980785 -0
    outer loop
      vertex -7.5 -6.62 0
      vertex -8.11995 -6.49668 6.5
      vertex -7.5 -6.62 6.5
    endloop
  endfacet
  facet normal 0.195092 0.980785 0
    outer loop
      vertex -8.11995 -6.49668 6.5
      vertex -7.5 -6.62 0
      vertex -8.11995 -6.49668 0
    endloop
  endfacet
  facet normal -0.55557 -0.83147 0
    outer loop
      vertex -6.88005 -3.50332 0
      vertex -6.35449 -3.85449 6.5
      vertex -6.88005 -3.50332 6.5
    endloop
  endfacet
  facet normal -0.55557 -0.83147 -0
    outer loop
      vertex -6.35449 -3.85449 6.5
      vertex -6.88005 -3.50332 0
      vertex -6.35449 -3.85449 0
    endloop
  endfacet
  facet normal 0.55557 -0.83147 0
    outer loop
      vertex -8.64551 -3.85449 0
      vertex -8.11995 -3.50332 6.5
      vertex -8.64551 -3.85449 6.5
    endloop
  endfacet
  facet normal 0.55557 -0.83147 0
    outer loop
      vertex -8.11995 -3.50332 6.5
      vertex -8.64551 -3.85449 0
      vertex -8.11995 -3.50332 0
    endloop
  endfacet
  facet normal 0.83147 -0.55557 0
    outer loop
      vertex -8.99668 -4.38005 6.5
      vertex -8.64551 -3.85449 0
      vertex -8.64551 -3.85449 6.5
    endloop
  endfacet
  facet normal 0.83147 -0.55557 0
    outer loop
      vertex -8.64551 -3.85449 0
      vertex -8.99668 -4.38005 6.5
      vertex -8.99668 -4.38005 0
    endloop
  endfacet
  facet normal 0 0 1
    outer loop
      vertex -5.88 -5 6.5
      vertex -4.68 -5 6.5
      vertex -4.89466 -3.92083 6.5
    endloop
  endfacet
  facet normal 0 0 1
    outer loop
      vertex -6.00332 -4.38005 6.5
      vertex -4.89466 -3.92083 6.5
      vertex -5.50596 -3.00596 6.5
    endloop
  endfacet
  facet normal 0 0 1
    outer loop
      vertex -4.68 -5 6.5
      vertex -5.88 -5 6.5
      vertex -4.89466 -6.07917 6.5
    endloop
  endfacet
  facet normal -0 0 1
    outer loop
      vertex -6.00332 -5.61995 6.5
      vertex -4.89466 -6.07917 6.5
      vertex -5.88 -5 6.5
    endloop
  endfacet
  facet normal 0 0 1
    outer loop
      vertex -4.89466 -3.92083 6.5
      vertex -6.00332 -4.38005 6.5
      vertex -5.88 -5 6.5
    endloop
  endfacet
  facet normal 0 0 1
    outer loop
      vertex -5.50596 -3.00596 6.5
      vertex -6.35449 -3.85449 6.5
      vertex -6.00332 -4.38005 6.5
    endloop
  endfacet
  facet normal 0 0 1
    outer loop
      vertex -6.42083 -2.39466 6.5
      vertex -6.35449 -3.85449 6.5
      vertex -5.50596 -3.00596 6.5
    endloop
  endfacet
  facet normal 0 0 1
    outer loop
      vertex -6.42083 -2.39466 6.5
      vertex -6.88005 -3.50332 6.5
      vertex -6.35449 -3.85449 6.5
    endloop
  endfacet
  facet normal 0 0 1
    outer loop
      vertex -7.5 -2.18 6.5
      vertex -6.88005 -3.50332 6.5
      vertex -6.42083 -2.39466 6.5
    endloop
  endfacet
  facet normal 0 0 1
    outer loop
      vertex -7.5 -2.18 6.5
      vertex -7.5 -3.38 6.5
      vertex -6.88005 -3.50332 6.5
    endloop
  endfacet
  facet normal 0 0 1
    outer loop
      vertex -7.5 -2.18 6.5
      vertex -8.11995 -3.50332 6.5
      vertex -7.5 -3.38 6.5
    endloop
  endfacet
  facet normal -0 0 1
    outer loop
      vertex -8.57917 -2.39466 6.5
      vertex -8.11995 -3.50332 6.5
      vertex -7.5 -2.18 6.5
    endloop
  endfacet
  facet normal 0 0 1
    outer loop
      vertex -8.57917 -2.39466 6.5
      vertex -8.64551 -3.85449 6.5
      vertex -8.11995 -3.50332 6.5
    endloop
  endfacet
  facet normal -0 0 1
    outer loop
      vertex -9.49404 -3.00596 6.5
      vertex -8.64551 -3.85449 6.5
      vertex -8.57917 -2.39466 6.5
    endloop
  endfacet
  facet normal 0 0 1
    outer loop
      vertex -8.64551 -3.85449 6.5
      vertex -10 -3.76318 6.5
      vertex -8.99668 -4.38005 6.5
    endloop
  endfacet
  facet normal -0 0 1
    outer loop
      vertex -10 -3.76318 6.5
      vertex -8.64551 -3.85449 6.5
      vertex -9.49404 -3.00596 6.5
    endloop
  endfacet
  facet normal 0 0 1
    outer loop
      vertex -4.89466 -6.07917 6.5
      vertex -6.00332 -5.61995 6.5
      vertex -5.50596 -6.99404 6.5
    endloop
  endfacet
  facet normal -0 0 1
    outer loop
      vertex -6.35449 -6.14551 6.5
      vertex -5.50596 -6.99404 6.5
      vertex -6.00332 -5.61995 6.5
    endloop
  endfacet
  facet normal 0 0 1
    outer loop
      vertex -6.35449 -6.14551 6.5
      vertex -6.42083 -7.60534 6.5
      vertex -5.50596 -6.99404 6.5
    endloop
  endfacet
  facet normal -0 0 1
    outer loop
      vertex -6.88005 -6.49668 6.5
      vertex -6.42083 -7.60534 6.5
      vertex -6.35449 -6.14551 6.5
    endloop
  endfacet
  facet normal -0 0 1
    outer loop
      vertex -7.5 -6.62 6.5
      vertex -6.42083 -7.60534 6.5
      vertex -6.88005 -6.49668 6.5
    endloop
  endfacet
  facet normal 0 0 1
    outer loop
      vertex -7.5 -6.62 6.5
      vertex -7.5 -7.82 6.5
      vertex -6.42083 -7.60534 6.5
    endloop
  endfacet
  facet normal 0 0 1
    outer loop
      vertex -8.11995 -6.49668 6.5
      vertex -7.5 -7.82 6.5
      vertex -7.5 -6.62 6.5
    endloop
  endfacet
  facet normal 0 0 1
    outer loop
      vertex -8.11995 -6.49668 6.5
      vertex -8.57917 -7.60534 6.5
      vertex -7.5 -7.82 6.5
    endloop
  endfacet
  facet normal 0 0 1
    outer loop
      vertex -8.64551 -6.14551 6.5
      vertex -8.57917 -7.60534 6.5
      vertex -8.11995 -6.49668 6.5
    endloop
  endfacet
  facet normal 0 0 1
    outer loop
      vertex -10 -6.23682 6.5
      vertex -8.64551 -6.14551 6.5
      vertex -8.99668 -5.61995 6.5
    endloop
  endfacet
  facet normal 0 0 1
    outer loop
      vertex -8.64551 -6.14551 6.5
      vertex -9.49404 -6.99404 6.5
      vertex -8.57917 -7.60534 6.5
    endloop
  endfacet
  facet normal 0 0 1
    outer loop
      vertex -10 -6.23682 6.5
      vertex -8.99668 -5.61995 6.5
      vertex -9.12 -5 6.5
    endloop
  endfacet
  facet normal 0 0 1
    outer loop
      vertex -8.99668 -4.38005 6.5
      vertex -10 -3.76318 6.5
      vertex -9.12 -5 6.5
    endloop
  endfacet
  facet normal 0 0 1
    outer loop
      vertex -10 -6.23682 6.5
      vertex -9.12 -5 6.5
      vertex -10 -3.76318 6.5
    endloop
  endfacet
  facet normal 0 0 1
    outer loop
      vertex -8.64551 -6.14551 6.5
      vertex -10 -6.23682 6.5
      vertex -9.49404 -6.99404 6.5
    endloop
  endfacet
  facet normal 0.195092 -0.980785 0
    outer loop
      vertex -8.11995 -3.50332 0
      vertex -7.5 -3.38 6.5
      vertex -8.11995 -3.50332 6.5
    endloop
  endfacet
  facet normal 0.195092 -0.980785 0
    outer loop
      vertex -7.5 -3.38 6.5
      vertex -8.11995 -3.50332 0
      vertex -7.5 -3.38 0
    endloop
  endfacet
  facet normal 0.55557 0.83147 -0
    outer loop
      vertex -8.11995 -6.49668 0
      vertex -8.64551 -6.14551 6.5
      vertex -8.11995 -6.49668 6.5
    endloop
  endfacet
  facet normal 0.55557 0.83147 0
    outer loop
      vertex -8.64551 -6.14551 6.5
      vertex -8.11995 -6.49668 0
      vertex -8.64551 -6.14551 0
    endloop
  endfacet
  facet normal 0.980785 0.195092 0
    outer loop
      vertex -8.99668 -5.61995 6.5
      vertex -9.12 -5 0
      vertex -9.12 -5 6.5
    endloop
  endfacet
  facet normal 0.980785 0.195092 0
    outer loop
      vertex -9.12 -5 0
      vertex -8.99668 -5.61995 6.5
      vertex -8.99668 -5.61995 0
    endloop
  endfacet
  facet normal -0.55557 0.83147 0
    outer loop
      vertex -6.35449 -6.14551 0
      vertex -6.88005 -6.49668 6.5
      vertex -6.35449 -6.14551 6.5
    endloop
  endfacet
  facet normal -0.55557 0.83147 0
    outer loop
      vertex -6.88005 -6.49668 6.5
      vertex -6.35449 -6.14551 0
      vertex -6.88005 -6.49668 0
    endloop
  endfacet
  facet normal -0.195092 0.980785 0
    outer loop
      vertex -6.88005 -6.49668 0
      vertex -7.5 -6.62 6.5
      vertex -6.88005 -6.49668 6.5
    endloop
  endfacet
  facet normal -0.195092 0.980785 0
    outer loop
      vertex -7.5 -6.62 6.5
      vertex -6.88005 -6.49668 0
      vertex -7.5 -6.62 0
    endloop
  endfacet
  facet normal -0.83147 0.55557 0
    outer loop
      vertex -6.35449 -6.14551 0
      vertex -6.00332 -5.61995 6.5
      vertex -6.00332 -5.61995 0
    endloop
  endfacet
  facet normal -0.83147 0.55557 0
    outer loop
      vertex -6.00332 -5.61995 6.5
      vertex -6.35449 -6.14551 0
      vertex -6.35449 -6.14551 6.5
    endloop
  endfacet
  facet normal 0.83147 0.55557 0
    outer loop
      vertex -8.64551 -6.14551 6.5
      vertex -8.99668 -5.61995 0
      vertex -8.99668 -5.61995 6.5
    endloop
  endfacet
  facet normal 0.83147 0.55557 0
    outer loop
      vertex -8.99668 -5.61995 0
      vertex -8.64551 -6.14551 6.5
      vertex -8.64551 -6.14551 0
    endloop
  endfacet
  facet normal -0.980785 0.195092 0
    outer loop
      vertex -6.00332 -5.61995 0
      vertex -5.88 -5 6.5
      vertex -5.88 -5 0
    endloop
  endfacet
  facet normal -0.980785 0.195092 0
    outer loop
      vertex -5.88 -5 6.5
      vertex -6.00332 -5.61995 0
      vertex -6.00332 -5.61995 6.5
    endloop
  endfacet
  facet normal -0.980785 -0.19509 0
    outer loop
      vertex -4.68 -5 6.5
      vertex -4.89466 -3.92083 9.5
      vertex -4.89466 -3.92083 6.5
    endloop
  endfacet
  facet normal -0.980785 -0.19509 0
    outer loop
      vertex -4.89466 -3.92083 9.5
      vertex -4.68 -5 6.5
      vertex -4.68 -5 9.5
    endloop
  endfacet
  facet normal -0.19509 -0.980785 0
    outer loop
      vertex -7.5 -2.18 6.5
      vertex -6.42083 -2.39466 9.5
      vertex -7.5 -2.18 9.5
    endloop
  endfacet
  facet normal -0.19509 -0.980785 -0
    outer loop
      vertex -6.42083 -2.39466 9.5
      vertex -7.5 -2.18 6.5
      vertex -6.42083 -2.39466 6.5
    endloop
  endfacet
  facet normal -0.83147 -0.55557 0
    outer loop
      vertex -4.89466 -3.92083 6.5
      vertex -5.50596 -3.00596 9.5
      vertex -5.50596 -3.00596 6.5
    endloop
  endfacet
  facet normal -0.83147 -0.55557 0
    outer loop
      vertex -5.50596 -3.00596 9.5
      vertex -4.89466 -3.92083 6.5
      vertex -4.89466 -3.92083 9.5
    endloop
  endfacet
  facet normal -0.55557 -0.83147 0
    outer loop
      vertex -6.42083 -2.39466 6.5
      vertex -5.50596 -3.00596 9.5
      vertex -6.42083 -2.39466 9.5
    endloop
  endfacet
  facet normal -0.55557 -0.83147 -0
    outer loop
      vertex -5.50596 -3.00596 9.5
      vertex -6.42083 -2.39466 6.5
      vertex -5.50596 -3.00596 6.5
    endloop
  endfacet
  facet normal 0.55557 -0.83147 0
    outer loop
      vertex -9.49404 -3.00596 6.5
      vertex -8.57917 -2.39466 9.5
      vertex -9.49404 -3.00596 9.5
    endloop
  endfacet
  facet normal 0.55557 -0.83147 0
    outer loop
      vertex -8.57917 -2.39466 9.5
      vertex -9.49404 -3.00596 6.5
      vertex -8.57917 -2.39466 6.5
    endloop
  endfacet
  facet normal 0.83147 -0.55557 0
    outer loop
      vertex -10 -3.76318 9.5
      vertex -9.49404 -3.00596 6.5
      vertex -9.49404 -3.00596 9.5
    endloop
  endfacet
  facet normal 0.83147 -0.55557 0
    outer loop
      vertex -9.49404 -3.00596 6.5
      vertex -10 -3.76318 9.5
      vertex -10 -3.76318 6.5
    endloop
  endfacet
  facet normal 0.19509 -0.980785 0
    outer loop
      vertex -8.57917 -2.39466 6.5
      vertex -7.5 -2.18 9.5
      vertex -8.57917 -2.39466 9.5
    endloop
  endfacet
  facet normal 0.19509 -0.980785 0
    outer loop
      vertex -7.5 -2.18 9.5
      vertex -8.57917 -2.39466 6.5
      vertex -7.5 -2.18 6.5
    endloop
  endfacet
  facet normal -0.980785 0.19509 0
    outer loop
      vertex -4.89466 -6.07917 6.5
      vertex -4.68 -5 9.5
      vertex -4.68 -5 6.5
    endloop
  endfacet
  facet normal -0.980785 0.19509 0
    outer loop
      vertex -4.68 -5 9.5
      vertex -4.89466 -6.07917 6.5
      vertex -4.89466 -6.07917 9.5
    endloop
  endfacet
  facet normal 0.55557 0.83147 -0
    outer loop
      vertex -8.57917 -7.60534 6.5
      vertex -9.49404 -6.99404 9.5
      vertex -8.57917 -7.60534 9.5
    endloop
  endfacet
  facet normal 0.55557 0.83147 0
    outer loop
      vertex -9.49404 -6.99404 9.5
      vertex -8.57917 -7.60534 6.5
      vertex -9.49404 -6.99404 6.5
    endloop
  endfacet
  facet normal -0.83147 0.55557 0
    outer loop
      vertex -5.50596 -6.99404 6.5
      vertex -4.89466 -6.07917 9.5
      vertex -4.89466 -6.07917 6.5
    endloop
  endfacet
  facet normal -0.83147 0.55557 0
    outer loop
      vertex -4.89466 -6.07917 9.5
      vertex -5.50596 -6.99404 6.5
      vertex -5.50596 -6.99404 9.5
    endloop
  endfacet
  facet normal -0.19509 0.980785 0
    outer loop
      vertex -6.42083 -7.60534 6.5
      vertex -7.5 -7.82 9.5
      vertex -6.42083 -7.60534 9.5
    endloop
  endfacet
  facet normal -0.19509 0.980785 0
    outer loop
      vertex -7.5 -7.82 9.5
      vertex -6.42083 -7.60534 6.5
      vertex -7.5 -7.82 6.5
    endloop
  endfacet
  facet normal 0.19509 0.980785 -0
    outer loop
      vertex -7.5 -7.82 6.5
      vertex -8.57917 -7.60534 9.5
      vertex -7.5 -7.82 9.5
    endloop
  endfacet
  facet normal 0.19509 0.980785 0
    outer loop
      vertex -8.57917 -7.60534 9.5
      vertex -7.5 -7.82 6.5
      vertex -8.57917 -7.60534 6.5
    endloop
  endfacet
  facet normal 0.83147 0.55557 0
    outer loop
      vertex -9.49404 -6.99404 9.5
      vertex -10 -6.23682 6.5
      vertex -10 -6.23682 9.5
    endloop
  endfacet
  facet normal 0.83147 0.55557 0
    outer loop
      vertex -10 -6.23682 6.5
      vertex -9.49404 -6.99404 9.5
      vertex -9.49404 -6.99404 6.5
    endloop
  endfacet
  facet normal -0.55557 0.83147 0
    outer loop
      vertex -5.50596 -6.99404 6.5
      vertex -6.42083 -7.60534 9.5
      vertex -5.50596 -6.99404 9.5
    endloop
  endfacet
  facet normal -0.55557 0.83147 0
    outer loop
      vertex -6.42083 -7.60534 9.5
      vertex -5.50596 -6.99404 6.5
      vertex -6.42083 -7.60534 6.5
    endloop
  endfacet
  facet normal -0.980785 -0.195092 0
    outer loop
      vertex 9.12 -5 0
      vertex 8.99668 -4.38005 6.5
      vertex 8.99668 -4.38005 0
    endloop
  endfacet
  facet normal -0.980785 -0.195092 0
    outer loop
      vertex 8.99668 -4.38005 6.5
      vertex 9.12 -5 0
      vertex 9.12 -5 6.5
    endloop
  endfacet
  facet normal 0.980785 -0.195092 0
    outer loop
      vertex 5.88 -5 6.5
      vertex 6.00332 -4.38005 0
      vertex 6.00332 -4.38005 6.5
    endloop
  endfacet
  facet normal 0.980785 -0.195092 0
    outer loop
      vertex 6.00332 -4.38005 0
      vertex 5.88 -5 6.5
      vertex 5.88 -5 0
    endloop
  endfacet
  facet normal -0.195092 -0.980785 0
    outer loop
      vertex 7.5 -3.38 0
      vertex 8.11995 -3.50332 6.5
      vertex 7.5 -3.38 6.5
    endloop
  endfacet
  facet normal -0.195092 -0.980785 -0
    outer loop
      vertex 8.11995 -3.50332 6.5
      vertex 7.5 -3.38 0
      vertex 8.11995 -3.50332 0
    endloop
  endfacet
  facet normal -0.83147 -0.55557 0
    outer loop
      vertex 8.99668 -4.38005 0
      vertex 8.64551 -3.85449 6.5
      vertex 8.64551 -3.85449 0
    endloop
  endfacet
  facet normal -0.83147 -0.55557 0
    outer loop
      vertex 8.64551 -3.85449 6.5
      vertex 8.99668 -4.38005 0
      vertex 8.99668 -4.38005 6.5
    endloop
  endfacet
  facet normal 0.195092 0.980785 -0
    outer loop
      vertex 7.5 -6.62 0
      vertex 6.88005 -6.49668 6.5
      vertex 7.5 -6.62 6.5
    endloop
  endfacet
  facet normal 0.195092 0.980785 0
    outer loop
      vertex 6.88005 -6.49668 6.5
      vertex 7.5 -6.62 0
      vertex 6.88005 -6.49668 0
    endloop
  endfacet
  facet normal -0.55557 -0.83147 0
    outer loop
      vertex 8.11995 -3.50332 0
      vertex 8.64551 -3.85449 6.5
      vertex 8.11995 -3.50332 6.5
    endloop
  endfacet
  facet normal -0.55557 -0.83147 -0
    outer loop
      vertex 8.64551 -3.85449 6.5
      vertex 8.11995 -3.50332 0
      vertex 8.64551 -3.85449 0
    endloop
  endfacet
  facet normal 0.55557 -0.83147 0
    outer loop
      vertex 6.35449 -3.85449 0
      vertex 6.88005 -3.50332 6.5
      vertex 6.35449 -3.85449 6.5
    endloop
  endfacet
  facet normal 0.55557 -0.83147 0
    outer loop
      vertex 6.88005 -3.50332 6.5
      vertex 6.35449 -3.85449 0
      vertex 6.88005 -3.50332 0
    endloop
  endfacet
  facet normal 0.83147 -0.55557 0
    outer loop
      vertex 6.00332 -4.38005 6.5
      vertex 6.35449 -3.85449 0
      vertex 6.35449 -3.85449 6.5
    endloop
  endfacet
  facet normal 0.83147 -0.55557 0
    outer loop
      vertex 6.35449 -3.85449 0
      vertex 6.00332 -4.38005 6.5
      vertex 6.00332 -4.38005 0
    endloop
  endfacet
  facet normal 0 0 1
    outer loop
      vertex 8.64551 -3.85449 6.5
      vertex 10 -3.76318 6.5
      vertex 9.49404 -3.00596 6.5
    endloop
  endfacet
  facet normal 0 0 1
    outer loop
      vertex 10 -3.76318 6.5
      vertex 9.12 -5 6.5
      vertex 10 -6.23682 6.5
    endloop
  endfacet
  facet normal -0 0 1
    outer loop
      vertex 8.99668 -5.61995 6.5
      vertex 10 -6.23682 6.5
      vertex 9.12 -5 6.5
    endloop
  endfacet
  facet normal 0 0 1
    outer loop
      vertex 10 -3.76318 6.5
      vertex 8.99668 -4.38005 6.5
      vertex 9.12 -5 6.5
    endloop
  endfacet
  facet normal 0 0 1
    outer loop
      vertex 10 -3.76318 6.5
      vertex 8.64551 -3.85449 6.5
      vertex 8.99668 -4.38005 6.5
    endloop
  endfacet
  facet normal 0 0 1
    outer loop
      vertex 8.57917 -2.39466 6.5
      vertex 8.64551 -3.85449 6.5
      vertex 9.49404 -3.00596 6.5
    endloop
  endfacet
  facet normal 0 0 1
    outer loop
      vertex 8.57917 -2.39466 6.5
      vertex 8.11995 -3.50332 6.5
      vertex 8.64551 -3.85449 6.5
    endloop
  endfacet
  facet normal 0 0 1
    outer loop
      vertex 7.5 -2.18 6.5
      vertex 8.11995 -3.50332 6.5
      vertex 8.57917 -2.39466 6.5
    endloop
  endfacet
  facet normal 0 0 1
    outer loop
      vertex 7.5 -2.18 6.5
      vertex 7.5 -3.38 6.5
      vertex 8.11995 -3.50332 6.5
    endloop
  endfacet
  facet normal 0 0 1
    outer loop
      vertex 7.5 -2.18 6.5
      vertex 6.88005 -3.50332 6.5
      vertex 7.5 -3.38 6.5
    endloop
  endfacet
  facet normal -0 0 1
    outer loop
      vertex 6.42083 -2.39466 6.5
      vertex 6.88005 -3.50332 6.5
      vertex 7.5 -2.18 6.5
    endloop
  endfacet
  facet normal 0 0 1
    outer loop
      vertex 6.42083 -2.39466 6.5
      vertex 6.35449 -3.85449 6.5
      vertex 6.88005 -3.50332 6.5
    endloop
  endfacet
  facet normal -0 0 1
    outer loop
      vertex 5.50596 -3.00596 6.5
      vertex 6.35449 -3.85449 6.5
      vertex 6.42083 -2.39466 6.5
    endloop
  endfacet
  facet normal -0 0 1
    outer loop
      vertex 4.89466 -3.92083 6.5
      vertex 6.00332 -4.38005 6.5
      vertex 5.50596 -3.00596 6.5
    endloop
  endfacet
  facet normal 0 0 1
    outer loop
      vertex 6.35449 -3.85449 6.5
      vertex 5.50596 -3.00596 6.5
      vertex 6.00332 -4.38005 6.5
    endloop
  endfacet
  facet normal -0 0 1
    outer loop
      vertex 8.64551 -6.14551 6.5
      vertex 10 -6.23682 6.5
      vertex 8.99668 -5.61995 6.5
    endloop
  endfacet
  facet normal 0 0 1
    outer loop
      vertex 10 -6.23682 6.5
      vertex 8.64551 -6.14551 6.5
      vertex 9.49404 -6.99404 6.5
    endloop
  endfacet
  facet normal 0 0 1
    outer loop
      vertex 8.64551 -6.14551 6.5
      vertex 8.57917 -7.60534 6.5
      vertex 9.49404 -6.99404 6.5
    endloop
  endfacet
  facet normal -0 0 1
    outer loop
      vertex 8.11995 -6.49668 6.5
      vertex 8.57917 -7.60534 6.5
      vertex 8.64551 -6.14551 6.5
    endloop
  endfacet
  facet normal -0 0 1
    outer loop
      vertex 7.5 -6.62 6.5
      vertex 8.57917 -7.60534 6.5
      vertex 8.11995 -6.49668 6.5
    endloop
  endfacet
  facet normal 0 0 1
    outer loop
      vertex 7.5 -6.62 6.5
      vertex 7.5 -7.82 6.5
      vertex 8.57917 -7.60534 6.5
    endloop
  endfacet
  facet normal 0 0 1
    outer loop
      vertex 6.88005 -6.49668 6.5
      vertex 7.5 -7.82 6.5
      vertex 7.5 -6.62 6.5
    endloop
  endfacet
  facet normal 0 0 1
    outer loop
      vertex 6.88005 -6.49668 6.5
      vertex 6.42083 -7.60534 6.5
      vertex 7.5 -7.82 6.5
    endloop
  endfacet
  facet normal 0 0 1
    outer loop
      vertex 6.35449 -6.14551 6.5
      vertex 6.42083 -7.60534 6.5
      vertex 6.88005 -6.49668 6.5
    endloop
  endfacet
  facet normal 0 0 1
    outer loop
      vertex 5.50596 -6.99404 6.5
      vertex 6.35449 -6.14551 6.5
      vertex 6.00332 -5.61995 6.5
    endloop
  endfacet
  facet normal 0 0 1
    outer loop
      vertex 6.35449 -6.14551 6.5
      vertex 5.50596 -6.99404 6.5
      vertex 6.42083 -7.60534 6.5
    endloop
  endfacet
  facet normal 0 0 1
    outer loop
      vertex 4.89466 -6.07917 6.5
      vertex 6.00332 -5.61995 6.5
      vertex 5.88 -5 6.5
    endloop
  endfacet
  facet normal 0 0 1
    outer loop
      vertex 6.00332 -4.38005 6.5
      vertex 4.89466 -3.92083 6.5
      vertex 5.88 -5 6.5
    endloop
  endfacet
  facet normal 0 0 1
    outer loop
      vertex 4.68 -5 6.5
      vertex 5.88 -5 6.5
      vertex 4.89466 -3.92083 6.5
    endloop
  endfacet
  facet normal 0 0 1
    outer loop
      vertex 6.00332 -5.61995 6.5
      vertex 4.89466 -6.07917 6.5
      vertex 5.50596 -6.99404 6.5
    endloop
  endfacet
  facet normal 0 0 1
    outer loop
      vertex 5.88 -5 6.5
      vertex 4.68 -5 6.5
      vertex 4.89466 -6.07917 6.5
    endloop
  endfacet
  facet normal 0.195092 -0.980785 0
    outer loop
      vertex 6.88005 -3.50332 0
      vertex 7.5 -3.38 6.5
      vertex 6.88005 -3.50332 6.5
    endloop
  endfacet
  facet normal 0.195092 -0.980785 0
    outer loop
      vertex 7.5 -3.38 6.5
      vertex 6.88005 -3.50332 0
      vertex 7.5 -3.38 0
    endloop
  endfacet
  facet normal 0.55557 0.83147 -0
    outer loop
      vertex 6.88005 -6.49668 0
      vertex 6.35449 -6.14551 6.5
      vertex 6.88005 -6.49668 6.5
    endloop
  endfacet
  facet normal 0.55557 0.83147 0
    outer loop
      vertex 6.35449 -6.14551 6.5
      vertex 6.88005 -6.49668 0
      vertex 6.35449 -6.14551 0
    endloop
  endfacet
  facet normal 0.980785 0.195092 0
    outer loop
      vertex 6.00332 -5.61995 6.5
      vertex 5.88 -5 0
      vertex 5.88 -5 6.5
    endloop
  endfacet
  facet normal 0.980785 0.195092 0
    outer loop
      vertex 5.88 -5 0
      vertex 6.00332 -5.61995 6.5
      vertex 6.00332 -5.61995 0
    endloop
  endfacet
  facet normal -0.55557 0.83147 0
    outer loop
      vertex 8.64551 -6.14551 0
      vertex 8.11995 -6.49668 6.5
      vertex 8.64551 -6.14551 6.5
    endloop
  endfacet
  facet normal -0.55557 0.83147 0
    outer loop
      vertex 8.11995 -6.49668 6.5
      vertex 8.64551 -6.14551 0
      vertex 8.11995 -6.49668 0
    endloop
  endfacet
  facet normal -0.195092 0.980785 0
    outer loop
      vertex 8.11995 -6.49668 0
      vertex 7.5 -6.62 6.5
      vertex 8.11995 -6.49668 6.5
    endloop
  endfacet
  facet normal -0.195092 0.980785 0
    outer loop
      vertex 7.5 -6.62 6.5
      vertex 8.11995 -6.49668 0
      vertex 7.5 -6.62 0
    endloop
  endfacet
  facet normal -0.83147 0.55557 0
    outer loop
      vertex 8.64551 -6.14551 0
      vertex 8.99668 -5.61995 6.5
      vertex 8.99668 -5.61995 0
    endloop
  endfacet
  facet normal -0.83147 0.55557 0
    outer loop
      vertex 8.99668 -5.61995 6.5
      vertex 8.64551 -6.14551 0
      vertex 8.64551 -6.14551 6.5
    endloop
  endfacet
  facet normal 0.83147 0.55557 0
    outer loop
      vertex 6.35449 -6.14551 6.5
      vertex 6.00332 -5.61995 0
      vertex 6.00332 -5.61995 6.5
    endloop
  endfacet
  facet normal 0.83147 0.55557 0
    outer loop
      vertex 6.00332 -5.61995 0
      vertex 6.35449 -6.14551 6.5
      vertex 6.35449 -6.14551 0
    endloop
  endfacet
  facet normal -0.980785 0.195092 0
    outer loop
      vertex 8.99668 -5.61995 0
      vertex 9.12 -5 6.5
      vertex 9.12 -5 0
    endloop
  endfacet
  facet normal -0.980785 0.195092 0
    outer loop
      vertex 9.12 -5 6.5
      vertex 8.99668 -5.61995 0
      vertex 8.99668 -5.61995 6.5
    endloop
  endfacet
  facet normal 0.980785 -0.19509 0
    outer loop
      vertex 4.68 -5 9.5
      vertex 4.89466 -3.92083 6.5
      vertex 4.89466 -3.92083 9.5
    endloop
  endfacet
  facet normal 0.980785 -0.19509 0
    outer loop
      vertex 4.89466 -3.92083 6.5
      vertex 4.68 -5 9.5
      vertex 4.68 -5 6.5
    endloop
  endfacet
  facet normal -0.19509 -0.980785 0
    outer loop
      vertex 7.5 -2.18 6.5
      vertex 8.57917 -2.39466 9.5
      vertex 7.5 -2.18 9.5
    endloop
  endfacet
  facet normal -0.19509 -0.980785 -0
    outer loop
      vertex 8.57917 -2.39466 9.5
      vertex 7.5 -2.18 6.5
      vertex 8.57917 -2.39466 6.5
    endloop
  endfacet
  facet normal -0.83147 -0.55557 0
    outer loop
      vertex 10 -3.76318 6.5
      vertex 9.49404 -3.00596 9.5
      vertex 9.49404 -3.00596 6.5
    endloop
  endfacet
  facet normal -0.83147 -0.55557 0
    outer loop
      vertex 9.49404 -3.00596 9.5
      vertex 10 -3.76318 6.5
      vertex 10 -3.76318 9.5
    endloop
  endfacet
  facet normal -0.55557 -0.83147 0
    outer loop
      vertex 8.57917 -2.39466 6.5
      vertex 9.49404 -3.00596 9.5
      vertex 8.57917 -2.39466 9.5
    endloop
  endfacet
  facet normal -0.55557 -0.83147 -0
    outer loop
      vertex 9.49404 -3.00596 9.5
      vertex 8.57917 -2.39466 6.5
      vertex 9.49404 -3.00596 6.5
    endloop
  endfacet
  facet normal 0.55557 -0.83147 0
    outer loop
      vertex 5.50596 -3.00596 6.5
      vertex 6.42083 -2.39466 9.5
      vertex 5.50596 -3.00596 9.5
    endloop
  endfacet
  facet normal 0.55557 -0.83147 0
    outer loop
      vertex 6.42083 -2.39466 9.5
      vertex 5.50596 -3.00596 6.5
      vertex 6.42083 -2.39466 6.5
    endloop
  endfacet
  facet normal 0.83147 -0.55557 0
    outer loop
      vertex 4.89466 -3.92083 9.5
      vertex 5.50596 -3.00596 6.5
      vertex 5.50596 -3.00596 9.5
    endloop
  endfacet
  facet normal 0.83147 -0.55557 0
    outer loop
      vertex 5.50596 -3.00596 6.5
      vertex 4.89466 -3.92083 9.5
      vertex 4.89466 -3.92083 6.5
    endloop
  endfacet
  facet normal 0.19509 -0.980785 0
    outer loop
      vertex 6.42083 -2.39466 6.5
      vertex 7.5 -2.18 9.5
      vertex 6.42083 -2.39466 9.5
    endloop
  endfacet
  facet normal 0.19509 -0.980785 0
    outer loop
      vertex 7.5 -2.18 9.5
      vertex 6.42083 -2.39466 6.5
      vertex 7.5 -2.18 6.5
    endloop
  endfacet
  facet normal 0.55557 0.83147 -0
    outer loop
      vertex 6.42083 -7.60534 6.5
      vertex 5.50596 -6.99404 9.5
      vertex 6.42083 -7.60534 9.5
    endloop
  endfacet
  facet normal 0.55557 0.83147 0
    outer loop
      vertex 5.50596 -6.99404 9.5
      vertex 6.42083 -7.60534 6.5
      vertex 5.50596 -6.99404 6.5
    endloop
  endfacet
  facet normal 0.980785 0.19509 0
    outer loop
      vertex 4.89466 -6.07917 9.5
      vertex 4.68 -5 6.5
      vertex 4.68 -5 9.5
    endloop
  endfacet
  facet normal 0.980785 0.19509 0
    outer loop
      vertex 4.68 -5 6.5
      vertex 4.89466 -6.07917 9.5
      vertex 4.89466 -6.07917 6.5
    endloop
  endfacet
  facet normal -0.83147 0.55557 0
    outer loop
      vertex 9.49404 -6.99404 6.5
      vertex 10 -6.23682 9.5
      vertex 10 -6.23682 6.5
    endloop
  endfacet
  facet normal -0.83147 0.55557 0
    outer loop
      vertex 10 -6.23682 9.5
      vertex 9.49404 -6.99404 6.5
      vertex 9.49404 -6.99404 9.5
    endloop
  endfacet
  facet normal -0.19509 0.980785 0
    outer loop
      vertex 8.57917 -7.60534 6.5
      vertex 7.5 -7.82 9.5
      vertex 8.57917 -7.60534 9.5
    endloop
  endfacet
  facet normal -0.19509 0.980785 0
    outer loop
      vertex 7.5 -7.82 9.5
      vertex 8.57917 -7.60534 6.5
      vertex 7.5 -7.82 6.5
    endloop
  endfacet
  facet normal 0.19509 0.980785 -0
    outer loop
      vertex 7.5 -7.82 6.5
      vertex 6.42083 -7.60534 9.5
      vertex 7.5 -7.82 9.5
    endloop
  endfacet
  facet normal 0.19509 0.980785 0
    outer loop
      vertex 6.42083 -7.60534 9.5
      vertex 7.5 -7.82 6.5
      vertex 6.42083 -7.60534 6.5
    endloop
  endfacet
  facet normal 0.83147 0.55557 0
    outer loop
      vertex 5.50596 -6.99404 9.5
      vertex 4.89466 -6.07917 6.5
      vertex 4.89466 -6.07917 9.5
    endloop
  endfacet
  facet normal 0.83147 0.55557 0
    outer loop
      vertex 4.89466 -6.07917 6.5
      vertex 5.50596 -6.99404 9.5
      vertex 5.50596 -6.99404 6.5
    endloop
  endfacet
  facet normal -0.55557 0.83147 0
    outer loop
      vertex 9.49404 -6.99404 6.5
      vertex 8.57917 -7.60534 9.5
      vertex 9.49404 -6.99404 9.5
    endloop
  endfacet
  facet normal -0.55557 0.83147 0
    outer loop
      vertex 8.57917 -7.60534 9.5
      vertex 9.49404 -6.99404 6.5
      vertex 8.57917 -7.60534 6.5
    endloop
  endfacet
  facet normal -0.980785 -0.195092 0
    outer loop
      vertex -5.88 5 0
      vertex -6.00332 5.61995 6.5
      vertex -6.00332 5.61995 0
    endloop
  endfacet
  facet normal -0.980785 -0.195092 0
    outer loop
      vertex -6.00332 5.61995 6.5
      vertex -5.88 5 0
      vertex -5.88 5 6.5
    endloop
  endfacet
  facet normal 0.980785 -0.195092 0
    outer loop
      vertex -9.12 5 6.5
      vertex -8.99668 5.61995 0
      vertex -8.99668 5.61995 6.5
    endloop
  endfacet
  facet normal 0.980785 -0.195092 0
    outer loop
      vertex -8.99668 5.61995 0
      vertex -9.12 5 6.5
      vertex -9.12 5 0
    endloop
  endfacet
  facet normal -0.195092 -0.980785 0
    outer loop
      vertex -7.5 6.62 0
      vertex -6.88005 6.49668 6.5
      vertex -7.5 6.62 6.5
    endloop
  endfacet
  facet normal -0.195092 -0.980785 -0
    outer loop
      vertex -6.88005 6.49668 6.5
      vertex -7.5 6.62 0
      vertex -6.88005 6.49668 0
    endloop
  endfacet
  facet normal -0.83147 -0.55557 0
    outer loop
      vertex -6.00332 5.61995 0
      vertex -6.35449 6.14551 6.5
      vertex -6.35449 6.14551 0
    endloop
  endfacet
  facet normal -0.83147 -0.55557 0
    outer loop
      vertex -6.35449 6.14551 6.5
      vertex -6.00332 5.61995 0
      vertex -6.00332 5.61995 6.5
    endloop
  endfacet
  facet normal 0.195092 0.980785 -0
    outer loop
      vertex -7.5 3.38 0
      vertex -8.11995 3.50332 6.5
      vertex -7.5 3.38 6.5
    endloop
  endfacet
  facet normal 0.195092 0.980785 0
    outer loop
      vertex -8.11995 3.50332 6.5
      vertex -7.5 3.38 0
      vertex -8.11995 3.50332 0
    endloop
  endfacet
  facet normal -0.55557 -0.83147 0
    outer loop
      vertex -6.88005 6.49668 0
      vertex -6.35449 6.14551 6.5
      vertex -6.88005 6.49668 6.5
    endloop
  endfacet
  facet normal -0.55557 -0.83147 -0
    outer loop
      vertex -6.35449 6.14551 6.5
      vertex -6.88005 6.49668 0
      vertex -6.35449 6.14551 0
    endloop
  endfacet
  facet normal 0.55557 -0.83147 0
    outer loop
      vertex -8.64551 6.14551 0
      vertex -8.11995 6.49668 6.5
      vertex -8.64551 6.14551 6.5
    endloop
  endfacet
  facet normal 0.55557 -0.83147 0
    outer loop
      vertex -8.11995 6.49668 6.5
      vertex -8.64551 6.14551 0
      vertex -8.11995 6.49668 0
    endloop
  endfacet
  facet normal 0.83147 -0.55557 0
    outer loop
      vertex -8.99668 5.61995 6.5
      vertex -8.64551 6.14551 0
      vertex -8.64551 6.14551 6.5
    endloop
  endfacet
  facet normal 0.83147 -0.55557 0
    outer loop
      vertex -8.64551 6.14551 0
      vertex -8.99668 5.61995 6.5
      vertex -8.99668 5.61995 0
    endloop
  endfacet
  facet normal 0 0 1
    outer loop
      vertex -5.88 5 6.5
      vertex -4.68 5 6.5
      vertex -4.89466 6.07917 6.5
    endloop
  endfacet
  facet normal 0 0 1
    outer loop
      vertex -6.00332 5.61995 6.5
      vertex -4.89466 6.07917 6.5
      vertex -5.50596 6.99404 6.5
    endloop
  endfacet
  facet normal 0 0 1
    outer loop
      vertex -4.68 5 6.5
      vertex -5.88 5 6.5
      vertex -4.89466 3.92083 6.5
    endloop
  endfacet
  facet normal -0 0 1
    outer loop
      vertex -6.00332 4.38005 6.5
      vertex -4.89466 3.92083 6.5
      vertex -5.88 5 6.5
    endloop
  endfacet
  facet normal 0 0 1
    outer loop
      vertex -4.89466 6.07917 6.5
      vertex -6.00332 5.61995 6.5
      vertex -5.88 5 6.5
    endloop
  endfacet
  facet normal 0 0 1
    outer loop
      vertex -5.50596 6.99404 6.5
      vertex -6.35449 6.14551 6.5
      vertex -6.00332 5.61995 6.5
    endloop
  endfacet
  facet normal 0 0 1
    outer loop
      vertex -6.42083 7.60534 6.5
      vertex -6.35449 6.14551 6.5
      vertex -5.50596 6.99404 6.5
    endloop
  endfacet
  facet normal 0 0 1
    outer loop
      vertex -6.42083 7.60534 6.5
      vertex -6.88005 6.49668 6.5
      vertex -6.35449 6.14551 6.5
    endloop
  endfacet
  facet normal 0 0 1
    outer loop
      vertex -7.5 7.82 6.5
      vertex -6.88005 6.49668 6.5
      vertex -6.42083 7.60534 6.5
    endloop
  endfacet
  facet normal 0 0 1
    outer loop
      vertex -7.5 7.82 6.5
      vertex -7.5 6.62 6.5
      vertex -6.88005 6.49668 6.5
    endloop
  endfacet
  facet normal 0 0 1
    outer loop
      vertex -7.5 7.82 6.5
      vertex -8.11995 6.49668 6.5
      vertex -7.5 6.62 6.5
    endloop
  endfacet
  facet normal -0 0 1
    outer loop
      vertex -8.57917 7.60534 6.5
      vertex -8.11995 6.49668 6.5
      vertex -7.5 7.82 6.5
    endloop
  endfacet
  facet normal 0 0 1
    outer loop
      vertex -8.57917 7.60534 6.5
      vertex -8.64551 6.14551 6.5
      vertex -8.11995 6.49668 6.5
    endloop
  endfacet
  facet normal -0 0 1
    outer loop
      vertex -9.49404 6.99404 6.5
      vertex -8.64551 6.14551 6.5
      vertex -8.57917 7.60534 6.5
    endloop
  endfacet
  facet normal 0 0 1
    outer loop
      vertex -8.64551 6.14551 6.5
      vertex -10 6.23682 6.5
      vertex -8.99668 5.61995 6.5
    endloop
  endfacet
  facet normal -0 0 1
    outer loop
      vertex -10 6.23682 6.5
      vertex -8.64551 6.14551 6.5
      vertex -9.49404 6.99404 6.5
    endloop
  endfacet
  facet normal 0 0 1
    outer loop
      vertex -4.89466 3.92083 6.5
      vertex -6.00332 4.38005 6.5
      vertex -5.50596 3.00596 6.5
    endloop
  endfacet
  facet normal -0 0 1
    outer loop
      vertex -6.35449 3.85449 6.5
      vertex -5.50596 3.00596 6.5
      vertex -6.00332 4.38005 6.5
    endloop
  endfacet
  facet normal 0 0 1
    outer loop
      vertex -6.35449 3.85449 6.5
      vertex -6.42083 2.39466 6.5
      vertex -5.50596 3.00596 6.5
    endloop
  endfacet
  facet normal -0 0 1
    outer loop
      vertex -6.88005 3.50332 6.5
      vertex -6.42083 2.39466 6.5
      vertex -6.35449 3.85449 6.5
    endloop
  endfacet
  facet normal -0 0 1
    outer loop
      vertex -7.5 3.38 6.5
      vertex -6.42083 2.39466 6.5
      vertex -6.88005 3.50332 6.5
    endloop
  endfacet
  facet normal 0 0 1
    outer loop
      vertex -7.5 3.38 6.5
      vertex -7.5 2.18 6.5
      vertex -6.42083 2.39466 6.5
    endloop
  endfacet
  facet normal 0 0 1
    outer loop
      vertex -8.11995 3.50332 6.5
      vertex -7.5 2.18 6.5
      vertex -7.5 3.38 6.5
    endloop
  endfacet
  facet normal 0 0 1
    outer loop
      vertex -8.11995 3.50332 6.5
      vertex -8.57917 2.39466 6.5
      vertex -7.5 2.18 6.5
    endloop
  endfacet
  facet normal 0 0 1
    outer loop
      vertex -8.64551 3.85449 6.5
      vertex -8.57917 2.39466 6.5
      vertex -8.11995 3.50332 6.5
    endloop
  endfacet
  facet normal 0 0 1
    outer loop
      vertex -10 3.76318 6.5
      vertex -8.64551 3.85449 6.5
      vertex -8.99668 4.38005 6.5
    endloop
  endfacet
  facet normal 0 0 1
    outer loop
      vertex -8.64551 3.85449 6.5
      vertex -9.49404 3.00596 6.5
      vertex -8.57917 2.39466 6.5
    endloop
  endfacet
  facet normal 0 0 1
    outer loop
      vertex -10 3.76318 6.5
      vertex -8.99668 4.38005 6.5
      vertex -9.12 5 6.5
    endloop
  endfacet
  facet normal 0 0 1
    outer loop
      vertex -8.99668 5.61995 6.5
      vertex -10 6.23682 6.5
      vertex -9.12 5 6.5
    endloop
  endfacet
  facet normal 0 0 1
    outer loop
      vertex -10 3.76318 6.5
      vertex -9.12 5 6.5
      vertex -10 6.23682 6.5
    endloop
  endfacet
  facet normal 0 0 1
    outer loop
      vertex -8.64551 3.85449 6.5
      vertex -10 3.76318 6.5
      vertex -9.49404 3.00596 6.5
    endloop
  endfacet
  facet normal 0.195092 -0.980785 0
    outer loop
      vertex -8.11995 6.49668 0
      vertex -7.5 6.62 6.5
      vertex -8.11995 6.49668 6.5
    endloop
  endfacet
  facet normal 0.195092 -0.980785 0
    outer loop
      vertex -7.5 6.62 6.5
      vertex -8.11995 6.49668 0
      vertex -7.5 6.62 0
    endloop
  endfacet
  facet normal 0.55557 0.83147 -0
    outer loop
      vertex -8.11995 3.50332 0
      vertex -8.64551 3.85449 6.5
      vertex -8.11995 3.50332 6.5
    endloop
  endfacet
  facet normal 0.55557 0.83147 0
    outer loop
      vertex -8.64551 3.85449 6.5
      vertex -8.11995 3.50332 0
      vertex -8.64551 3.85449 0
    endloop
  endfacet
  facet normal 0.980785 0.195092 0
    outer loop
      vertex -8.99668 4.38005 6.5
      vertex -9.12 5 0
      vertex -9.12 5 6.5
    endloop
  endfacet
  facet normal 0.980785 0.195092 0
    outer loop
      vertex -9.12 5 0
      vertex -8.99668 4.38005 6.5
      vertex -8.99668 4.38005 0
    endloop
  endfacet
  facet normal -0.55557 0.83147 0
    outer loop
      vertex -6.35449 3.85449 0
      vertex -6.88005 3.50332 6.5
      vertex -6.35449 3.85449 6.5
    endloop
  endfacet
  facet normal -0.55557 0.83147 0
    outer loop
      vertex -6.88005 3.50332 6.5
      vertex -6.35449 3.85449 0
      vertex -6.88005 3.50332 0
    endloop
  endfacet
  facet normal -0.195092 0.980785 0
    outer loop
      vertex -6.88005 3.50332 0
      vertex -7.5 3.38 6.5
      vertex -6.88005 3.50332 6.5
    endloop
  endfacet
  facet normal -0.195092 0.980785 0
    outer loop
      vertex -7.5 3.38 6.5
      vertex -6.88005 3.50332 0
      vertex -7.5 3.38 0
    endloop
  endfacet
  facet normal -0.83147 0.55557 0
    outer loop
      vertex -6.35449 3.85449 0
      vertex -6.00332 4.38005 6.5
      vertex -6.00332 4.38005 0
    endloop
  endfacet
  facet normal -0.83147 0.55557 0
    outer loop
      vertex -6.00332 4.38005 6.5
      vertex -6.35449 3.85449 0
      vertex -6.35449 3.85449 6.5
    endloop
  endfacet
  facet normal 0.83147 0.55557 0
    outer loop
      vertex -8.64551 3.85449 6.5
      vertex -8.99668 4.38005 0
      vertex -8.99668 4.38005 6.5
    endloop
  endfacet
  facet normal 0.83147 0.55557 0
    outer loop
      vertex -8.99668 4.38005 0
      vertex -8.64551 3.85449 6.5
      vertex -8.64551 3.85449 0
    endloop
  endfacet
  facet normal -0.980785 0.195092 0
    outer loop
      vertex -6.00332 4.38005 0
      vertex -5.88 5 6.5
      vertex -5.88 5 0
    endloop
  endfacet
  facet normal -0.980785 0.195092 0
    outer loop
      vertex -5.88 5 6.5
      vertex -6.00332 4.38005 0
      vertex -6.00332 4.38005 6.5
    endloop
  endfacet
  facet normal -0.980785 -0.19509 0
    outer loop
      vertex -4.68 5 6.5
      vertex -4.89466 6.07917 9.5
      vertex -4.89466 6.07917 6.5
    endloop
  endfacet
  facet normal -0.980785 -0.19509 0
    outer loop
      vertex -4.89466 6.07917 9.5
      vertex -4.68 5 6.5
      vertex -4.68 5 9.5
    endloop
  endfacet
  facet normal -0.19509 -0.980785 0
    outer loop
      vertex -7.5 7.82 6.5
      vertex -6.42083 7.60534 9.5
      vertex -7.5 7.82 9.5
    endloop
  endfacet
  facet normal -0.19509 -0.980785 -0
    outer loop
      vertex -6.42083 7.60534 9.5
      vertex -7.5 7.82 6.5
      vertex -6.42083 7.60534 6.5
    endloop
  endfacet
  facet normal -0.83147 -0.55557 0
    outer loop
      vertex -4.89466 6.07917 6.5
      vertex -5.50596 6.99404 9.5
      vertex -5.50596 6.99404 6.5
    endloop
  endfacet
  facet normal -0.83147 -0.55557 0
    outer loop
      vertex -5.50596 6.99404 9.5
      vertex -4.89466 6.07917 6.5
      vertex -4.89466 6.07917 9.5
    endloop
  endfacet
  facet normal -0.55557 -0.83147 0
    outer loop
      vertex -6.42083 7.60534 6.5
      vertex -5.50596 6.99404 9.5
      vertex -6.42083 7.60534 9.5
    endloop
  endfacet
  facet normal -0.55557 -0.83147 -0
    outer loop
      vertex -5.50596 6.99404 9.5
      vertex -6.42083 7.60534 6.5
      vertex -5.50596 6.99404 6.5
    endloop
  endfacet
  facet normal 0.55557 -0.83147 0
    outer loop
      vertex -9.49404 6.99404 6.5
      vertex -8.57917 7.60534 9.5
      vertex -9.49404 6.99404 9.5
    endloop
  endfacet
  facet normal 0.55557 -0.83147 0
    outer loop
      vertex -8.57917 7.60534 9.5
      vertex -9.49404 6.99404 6.5
      vertex -8.57917 7.60534 6.5
    endloop
  endfacet
  facet normal 0.83147 -0.55557 0
    outer loop
      vertex -10 6.23682 9.5
      vertex -9.49404 6.99404 6.5
      vertex -9.49404 6.99404 9.5
    endloop
  endfacet
  facet normal 0.83147 -0.55557 0
    outer loop
      vertex -9.49404 6.99404 6.5
      vertex -10 6.23682 9.5
      vertex -10 6.23682 6.5
    endloop
  endfacet
  facet normal 0.19509 -0.980785 0
    outer loop
      vertex -8.57917 7.60534 6.5
      vertex -7.5 7.82 9.5
      vertex -8.57917 7.60534 9.5
    endloop
  endfacet
  facet normal 0.19509 -0.980785 0
    outer loop
      vertex -7.5 7.82 9.5
      vertex -8.57917 7.60534 6.5
      vertex -7.5 7.82 6.5
    endloop
  endfacet
  facet normal -0.980785 0.19509 0
    outer loop
      vertex -4.89466 3.92083 6.5
      vertex -4.68 5 9.5
      vertex -4.68 5 6.5
    endloop
  endfacet
  facet normal -0.980785 0.19509 0
    outer loop
      vertex -4.68 5 9.5
      vertex -4.89466 3.92083 6.5
      vertex -4.89466 3.92083 9.5
    endloop
  endfacet
  facet normal 0.55557 0.83147 -0
    outer loop
      vertex -8.57917 2.39466 6.5
      vertex -9.49404 3.00596 9.5
      vertex -8.57917 2.39466 9.5
    endloop
  endfacet
  facet normal 0.55557 0.83147 0
    outer loop
      vertex -9.49404 3.00596 9.5
      vertex -8.57917 2.39466 6.5
      vertex -9.49404 3.00596 6.5
    endloop
  endfacet
  facet normal -0.83147 0.55557 0
    outer loop
      vertex -5.50596 3.00596 6.5
      vertex -4.89466 3.92083 9.5
      vertex -4.89466 3.92083 6.5
    endloop
  endfacet
  facet normal -0.83147 0.55557 0
    outer loop
      vertex -4.89466 3.92083 9.5
      vertex -5.50596 3.00596 6.5
      vertex -5.50596 3.00596 9.5
    endloop
  endfacet
  facet normal -0.19509 0.980785 0
    outer loop
      vertex -6.42083 2.39466 6.5
      vertex -7.5 2.18 9.5
      vertex -6.42083 2.39466 9.5
    endloop
  endfacet
  facet normal -0.19509 0.980785 0
    outer loop
      vertex -7.5 2.18 9.5
      vertex -6.42083 2.39466 6.5
      vertex -7.5 2.18 6.5
    endloop
  endfacet
  facet normal 0.19509 0.980785 -0
    outer loop
      vertex -7.5 2.18 6.5
      vertex -8.57917 2.39466 9.5
      vertex -7.5 2.18 9.5
    endloop
  endfacet
  facet normal 0.19509 0.980785 0
    outer loop
      vertex -8.57917 2.39466 9.5
      vertex -7.5 2.18 6.5
      vertex -8.57917 2.39466 6.5
    endloop
  endfacet
  facet normal 0.83147 0.55557 0
    outer loop
      vertex -9.49404 3.00596 9.5
      vertex -10 3.76318 6.5
      vertex -10 3.76318 9.5
    endloop
  endfacet
  facet normal 0.83147 0.55557 0
    outer loop
      vertex -10 3.76318 6.5
      vertex -9.49404 3.00596 9.5
      vertex -9.49404 3.00596 6.5
    endloop
  endfacet
  facet normal -0.55557 0.83147 0
    outer loop
      vertex -5.50596 3.00596 6.5
      vertex -6.42083 2.39466 9.5
      vertex -5.50596 3.00596 9.5
    endloop
  endfacet
  facet normal -0.55557 0.83147 0
    outer loop
      vertex -6.42083 2.39466 9.5
      vertex -5.50596 3.00596 6.5
      vertex -6.42083 2.39466 6.5
    endloop
  endfacet
  facet normal -0.980785 -0.195092 0
    outer loop
      vertex 9.12 5 0
      vertex 8.99668 5.61995 6.5
      vertex 8.99668 5.61995 0
    endloop
  endfacet
  facet normal -0.980785 -0.195092 0
    outer loop
      vertex 8.99668 5.61995 6.5
      vertex 9.12 5 0
      vertex 9.12 5 6.5
    endloop
  endfacet
  facet normal 0.980785 -0.195092 0
    outer loop
      vertex 5.88 5 6.5
      vertex 6.00332 5.61995 0
      vertex 6.00332 5.61995 6.5
    endloop
  endfacet
  facet normal 0.980785 -0.195092 0
    outer loop
      vertex 6.00332 5.61995 0
      vertex 5.88 5 6.5
      vertex 5.88 5 0
    endloop
  endfacet
  facet normal -0.195092 -0.980785 0
    outer loop
      vertex 7.5 6.62 0
      vertex 8.11995 6.49668 6.5
      vertex 7.5 6.62 6.5
    endloop
  endfacet
  facet normal -0.195092 -0.980785 -0
    outer loop
      vertex 8.11995 6.49668 6.5
      vertex 7.5 6.62 0
      vertex 8.11995 6.49668 0
    endloop
  endfacet
  facet normal -0.83147 -0.55557 0
    outer loop
      vertex 8.99668 5.61995 0
      vertex 8.64551 6.14551 6.5
      vertex 8.64551 6.14551 0
    endloop
  endfacet
  facet normal -0.83147 -0.55557 0
    outer loop
      vertex 8.64551 6.14551 6.5
      vertex 8.99668 5.61995 0
      vertex 8.99668 5.61995 6.5
    endloop
  endfacet
  facet normal 0.195092 0.980785 -0
    outer loop
      vertex 7.5 3.38 0
      vertex 6.88005 3.50332 6.5
      vertex 7.5 3.38 6.5
    endloop
  endfacet
  facet normal 0.195092 0.980785 0
    outer loop
      vertex 6.88005 3.50332 6.5
      vertex 7.5 3.38 0
      vertex 6.88005 3.50332 0
    endloop
  endfacet
  facet normal -0.55557 -0.83147 0
    outer loop
      vertex 8.11995 6.49668 0
      vertex 8.64551 6.14551 6.5
      vertex 8.11995 6.49668 6.5
    endloop
  endfacet
  facet normal -0.55557 -0.83147 -0
    outer loop
      vertex 8.64551 6.14551 6.5
      vertex 8.11995 6.49668 0
      vertex 8.64551 6.14551 0
    endloop
  endfacet
  facet normal 0.55557 -0.83147 0
    outer loop
      vertex 6.35449 6.14551 0
      vertex 6.88005 6.49668 6.5
      vertex 6.35449 6.14551 6.5
    endloop
  endfacet
  facet normal 0.55557 -0.83147 0
    outer loop
      vertex 6.88005 6.49668 6.5
      vertex 6.35449 6.14551 0
      vertex 6.88005 6.49668 0
    endloop
  endfacet
  facet normal 0.83147 -0.55557 0
    outer loop
      vertex 6.00332 5.61995 6.5
      vertex 6.35449 6.14551 0
      vertex 6.35449 6.14551 6.5
    endloop
  endfacet
  facet normal 0.83147 -0.55557 0
    outer loop
      vertex 6.35449 6.14551 0
      vertex 6.00332 5.61995 6.5
      vertex 6.00332 5.61995 0
    endloop
  endfacet
  facet normal 0 0 1
    outer loop
      vertex 8.64551 6.14551 6.5
      vertex 10 6.23682 6.5
      vertex 9.49404 6.99404 6.5
    endloop
  endfacet
  facet normal 0 0 1
    outer loop
      vertex 10 6.23682 6.5
      vertex 9.12 5 6.5
      vertex 10 3.76318 6.5
    endloop
  endfacet
  facet normal -0 0 1
    outer loop
      vertex 8.99668 4.38005 6.5
      vertex 10 3.76318 6.5
      vertex 9.12 5 6.5
    endloop
  endfacet
  facet normal 0 0 1
    outer loop
      vertex 10 6.23682 6.5
      vertex 8.99668 5.61995 6.5
      vertex 9.12 5 6.5
    endloop
  endfacet
  facet normal 0 0 1
    outer loop
      vertex 10 6.23682 6.5
      vertex 8.64551 6.14551 6.5
      vertex 8.99668 5.61995 6.5
    endloop
  endfacet
  facet normal 0 0 1
    outer loop
      vertex 8.57917 7.60534 6.5
      vertex 8.64551 6.14551 6.5
      vertex 9.49404 6.99404 6.5
    endloop
  endfacet
  facet normal 0 0 1
    outer loop
      vertex 8.57917 7.60534 6.5
      vertex 8.11995 6.49668 6.5
      vertex 8.64551 6.14551 6.5
    endloop
  endfacet
  facet normal 0 0 1
    outer loop
      vertex 7.5 7.82 6.5
      vertex 8.11995 6.49668 6.5
      vertex 8.57917 7.60534 6.5
    endloop
  endfacet
  facet normal 0 0 1
    outer loop
      vertex 7.5 7.82 6.5
      vertex 7.5 6.62 6.5
      vertex 8.11995 6.49668 6.5
    endloop
  endfacet
  facet normal 0 0 1
    outer loop
      vertex 7.5 7.82 6.5
      vertex 6.88005 6.49668 6.5
      vertex 7.5 6.62 6.5
    endloop
  endfacet
  facet normal -0 0 1
    outer loop
      vertex 6.42083 7.60534 6.5
      vertex 6.88005 6.49668 6.5
      vertex 7.5 7.82 6.5
    endloop
  endfacet
  facet normal 0 0 1
    outer loop
      vertex 6.42083 7.60534 6.5
      vertex 6.35449 6.14551 6.5
      vertex 6.88005 6.49668 6.5
    endloop
  endfacet
  facet normal -0 0 1
    outer loop
      vertex 5.50596 6.99404 6.5
      vertex 6.35449 6.14551 6.5
      vertex 6.42083 7.60534 6.5
    endloop
  endfacet
  facet normal -0 0 1
    outer loop
      vertex 4.89466 6.07917 6.5
      vertex 6.00332 5.61995 6.5
      vertex 5.50596 6.99404 6.5
    endloop
  endfacet
  facet normal 0 0 1
    outer loop
      vertex 6.35449 6.14551 6.5
      vertex 5.50596 6.99404 6.5
      vertex 6.00332 5.61995 6.5
    endloop
  endfacet
  facet normal -0 0 1
    outer loop
      vertex 8.64551 3.85449 6.5
      vertex 10 3.76318 6.5
      vertex 8.99668 4.38005 6.5
    endloop
  endfacet
  facet normal 0 0 1
    outer loop
      vertex 10 3.76318 6.5
      vertex 8.64551 3.85449 6.5
      vertex 9.49404 3.00596 6.5
    endloop
  endfacet
  facet normal 0 0 1
    outer loop
      vertex 8.64551 3.85449 6.5
      vertex 8.57917 2.39466 6.5
      vertex 9.49404 3.00596 6.5
    endloop
  endfacet
  facet normal -0 0 1
    outer loop
      vertex 8.11995 3.50332 6.5
      vertex 8.57917 2.39466 6.5
      vertex 8.64551 3.85449 6.5
    endloop
  endfacet
  facet normal -0 0 1
    outer loop
      vertex 7.5 3.38 6.5
      vertex 8.57917 2.39466 6.5
      vertex 8.11995 3.50332 6.5
    endloop
  endfacet
  facet normal 0 0 1
    outer loop
      vertex 7.5 3.38 6.5
      vertex 7.5 2.18 6.5
      vertex 8.57917 2.39466 6.5
    endloop
  endfacet
  facet normal 0 0 1
    outer loop
      vertex 6.88005 3.50332 6.5
      vertex 7.5 2.18 6.5
      vertex 7.5 3.38 6.5
    endloop
  endfacet
  facet normal 0 0 1
    outer loop
      vertex 6.88005 3.50332 6.5
      vertex 6.42083 2.39466 6.5
      vertex 7.5 2.18 6.5
    endloop
  endfacet
  facet normal 0 0 1
    outer loop
      vertex 6.35449 3.85449 6.5
      vertex 6.42083 2.39466 6.5
      vertex 6.88005 3.50332 6.5
    endloop
  endfacet
  facet normal 0 0 1
    outer loop
      vertex 5.50596 3.00596 6.5
      vertex 6.35449 3.85449 6.5
      vertex 6.00332 4.38005 6.5
    endloop
  endfacet
  facet normal 0 0 1
    outer loop
      vertex 6.35449 3.85449 6.5
      vertex 5.50596 3.00596 6.5
      vertex 6.42083 2.39466 6.5
    endloop
  endfacet
  facet normal 0 0 1
    outer loop
      vertex 4.89466 3.92083 6.5
      vertex 6.00332 4.38005 6.5
      vertex 5.88 5 6.5
    endloop
  endfacet
  facet normal 0 0 1
    outer loop
      vertex 6.00332 5.61995 6.5
      vertex 4.89466 6.07917 6.5
      vertex 5.88 5 6.5
    endloop
  endfacet
  facet normal 0 0 1
    outer loop
      vertex 4.68 5 6.5
      vertex 5.88 5 6.5
      vertex 4.89466 6.07917 6.5
    endloop
  endfacet
  facet normal 0 0 1
    outer loop
      vertex 6.00332 4.38005 6.5
      vertex 4.89466 3.92083 6.5
      vertex 5.50596 3.00596 6.5
    endloop
  endfacet
  facet normal 0 0 1
    outer loop
      vertex 5.88 5 6.5
      vertex 4.68 5 6.5
      vertex 4.89466 3.92083 6.5
    endloop
  endfacet
  facet normal 0.195092 -0.980785 0
    outer loop
      vertex 6.88005 6.49668 0
      vertex 7.5 6.62 6.5
      vertex 6.88005 6.49668 6.5
    endloop
  endfacet
  facet normal 0.195092 -0.980785 0
    outer loop
      vertex 7.5 6.62 6.5
      vertex 6.88005 6.49668 0
      vertex 7.5 6.62 0
    endloop
  endfacet
  facet normal 0.55557 0.83147 -0
    outer loop
      vertex 6.88005 3.50332 0
      vertex 6.35449 3.85449 6.5
      vertex 6.88005 3.50332 6.5
    endloop
  endfacet
  facet normal 0.55557 0.83147 0
    outer loop
      vertex 6.35449 3.85449 6.5
      vertex 6.88005 3.50332 0
      vertex 6.35449 3.85449 0
    endloop
  endfacet
  facet normal 0.980785 0.195092 0
    outer loop
      vertex 6.00332 4.38005 6.5
      vertex 5.88 5 0
      vertex 5.88 5 6.5
    endloop
  endfacet
  facet normal 0.980785 0.195092 0
    outer loop
      vertex 5.88 5 0
      vertex 6.00332 4.38005 6.5
      vertex 6.00332 4.38005 0
    endloop
  endfacet
  facet normal -0.55557 0.83147 0
    outer loop
      vertex 8.64551 3.85449 0
      vertex 8.11995 3.50332 6.5
      vertex 8.64551 3.85449 6.5
    endloop
  endfacet
  facet normal -0.55557 0.83147 0
    outer loop
      vertex 8.11995 3.50332 6.5
      vertex 8.64551 3.85449 0
      vertex 8.11995 3.50332 0
    endloop
  endfacet
  facet normal -0.195092 0.980785 0
    outer loop
      vertex 8.11995 3.50332 0
      vertex 7.5 3.38 6.5
      vertex 8.11995 3.50332 6.5
    endloop
  endfacet
  facet normal -0.195092 0.980785 0
    outer loop
      vertex 7.5 3.38 6.5
      vertex 8.11995 3.50332 0
      vertex 7.5 3.38 0
    endloop
  endfacet
  facet normal -0.83147 0.55557 0
    outer loop
      vertex 8.64551 3.85449 0
      vertex 8.99668 4.38005 6.5
      vertex 8.99668 4.38005 0
    endloop
  endfacet
  facet normal -0.83147 0.55557 0
    outer loop
      vertex 8.99668 4.38005 6.5
      vertex 8.64551 3.85449 0
      vertex 8.64551 3.85449 6.5
    endloop
  endfacet
  facet normal 0.83147 0.55557 0
    outer loop
      vertex 6.35449 3.85449 6.5
      vertex 6.00332 4.38005 0
      vertex 6.00332 4.38005 6.5
    endloop
  endfacet
  facet normal 0.83147 0.55557 0
    outer loop
      vertex 6.00332 4.38005 0
      vertex 6.35449 3.85449 6.5
      vertex 6.35449 3.85449 0
    endloop
  endfacet
  facet normal -0.980785 0.195092 0
    outer loop
      vertex 8.99668 4.38005 0
      vertex 9.12 5 6.5
      vertex 9.12 5 0
    endloop
  endfacet
  facet normal -0.980785 0.195092 0
    outer loop
      vertex 9.12 5 6.5
      vertex 8.99668 4.38005 0
      vertex 8.99668 4.38005 6.5
    endloop
  endfacet
  facet normal 0.980785 -0.19509 0
    outer loop
      vertex 4.68 5 9.5
      vertex 4.89466 6.07917 6.5
      vertex 4.89466 6.07917 9.5
    endloop
  endfacet
  facet normal 0.980785 -0.19509 0
    outer loop
      vertex 4.89466 6.07917 6.5
      vertex 4.68 5 9.5
      vertex 4.68 5 6.5
    endloop
  endfacet
  facet normal -0.19509 -0.980785 0
    outer loop
      vertex 7.5 7.82 6.5
      vertex 8.57917 7.60534 9.5
      vertex 7.5 7.82 9.5
    endloop
  endfacet
  facet normal -0.19509 -0.980785 -0
    outer loop
      vertex 8.57917 7.60534 9.5
      vertex 7.5 7.82 6.5
      vertex 8.57917 7.60534 6.5
    endloop
  endfacet
  facet normal -0.83147 -0.55557 0
    outer loop
      vertex 10 6.23682 6.5
      vertex 9.49404 6.99404 9.5
      vertex 9.49404 6.99404 6.5
    endloop
  endfacet
  facet normal -0.83147 -0.55557 0
    outer loop
      vertex 9.49404 6.99404 9.5
      vertex 10 6.23682 6.5
      vertex 10 6.23682 9.5
    endloop
  endfacet
  facet normal -0.55557 -0.83147 0
    outer loop
      vertex 8.57917 7.60534 6.5
      vertex 9.49404 6.99404 9.5
      vertex 8.57917 7.60534 9.5
    endloop
  endfacet
  facet normal -0.55557 -0.83147 -0
    outer loop
      vertex 9.49404 6.99404 9.5
      vertex 8.57917 7.60534 6.5
      vertex 9.49404 6.99404 6.5
    endloop
  endfacet
  facet normal 0.55557 -0.83147 0
    outer loop
      vertex 5.50596 6.99404 6.5
      vertex 6.42083 7.60534 9.5
      vertex 5.50596 6.99404 9.5
    endloop
  endfacet
  facet normal 0.55557 -0.83147 0
    outer loop
      vertex 6.42083 7.60534 9.5
      vertex 5.50596 6.99404 6.5
      vertex 6.42083 7.60534 6.5
    endloop
  endfacet
  facet normal 0.83147 -0.55557 0
    outer loop
      vertex 4.89466 6.07917 9.5
      vertex 5.50596 6.99404 6.5
      vertex 5.50596 6.99404 9.5
    endloop
  endfacet
  facet normal 0.83147 -0.55557 0
    outer loop
      vertex 5.50596 6.99404 6.5
      vertex 4.89466 6.07917 9.5
      vertex 4.89466 6.07917 6.5
    endloop
  endfacet
  facet normal 0.19509 -0.980785 0
    outer loop
      vertex 6.42083 7.60534 6.5
      vertex 7.5 7.82 9.5
      vertex 6.42083 7.60534 9.5
    endloop
  endfacet
  facet normal 0.19509 -0.980785 0
    outer loop
      vertex 7.5 7.82 9.5
      vertex 6.42083 7.60534 6.5
      vertex 7.5 7.82 6.5
    endloop
  endfacet
  facet normal 0.55557 0.83147 -0
    outer loop
      vertex 6.42083 2.39466 6.5
      vertex 5.50596 3.00596 9.5
      vertex 6.42083 2.39466 9.5
    endloop
  endfacet
  facet normal 0.55557 0.83147 0
    outer loop
      vertex 5.50596 3.00596 9.5
      vertex 6.42083 2.39466 6.5
      vertex 5.50596 3.00596 6.5
    endloop
  endfacet
  facet normal 0.980785 0.19509 0
    outer loop
      vertex 4.89466 3.92083 9.5
      vertex 4.68 5 6.5
      vertex 4.68 5 9.5
    endloop
  endfacet
  facet normal 0.980785 0.19509 0
    outer loop
      vertex 4.68 5 6.5
      vertex 4.89466 3.92083 9.5
      vertex 4.89466 3.92083 6.5
    endloop
  endfacet
  facet normal -0.83147 0.55557 0
    outer loop
      vertex 9.49404 3.00596 6.5
      vertex 10 3.76318 9.5
      vertex 10 3.76318 6.5
    endloop
  endfacet
  facet normal -0.83147 0.55557 0
    outer loop
      vertex 10 3.76318 9.5
      vertex 9.49404 3.00596 6.5
      vertex 9.49404 3.00596 9.5
    endloop
  endfacet
  facet normal -0.19509 0.980785 0
    outer loop
      vertex 8.57917 2.39466 6.5
      vertex 7.5 2.18 9.5
      vertex 8.57917 2.39466 9.5
    endloop
  endfacet
  facet normal -0.19509 0.980785 0
    outer loop
      vertex 7.5 2.18 9.5
      vertex 8.57917 2.39466 6.5
      vertex 7.5 2.18 6.5
    endloop
  endfacet
  facet normal 0.19509 0.980785 -0
    outer loop
      vertex 7.5 2.18 6.5
      vertex 6.42083 2.39466 9.5
      vertex 7.5 2.18 9.5
    endloop
  endfacet
  facet normal 0.19509 0.980785 0
    outer loop
      vertex 6.42083 2.39466 9.5
      vertex 7.5 2.18 6.5
      vertex 6.42083 2.39466 6.5
    endloop
  endfacet
  facet normal 0.83147 0.55557 0
    outer loop
      vertex 5.50596 3.00596 9.5
      vertex 4.89466 3.92083 6.5
      vertex 4.89466 3.92083 9.5
    endloop
  endfacet
  facet normal 0.83147 0.55557 0
    outer loop
      vertex 4.89466 3.92083 6.5
      vertex 5.50596 3.00596 9.5
      vertex 5.50596 3.00596 6.5
    endloop
  endfacet
  facet normal -0.55557 0.83147 0
    outer loop
      vertex 9.49404 3.00596 6.5
      vertex 8.57917 2.39466 9.5
      vertex 9.49404 3.00596 9.5
    endloop
  endfacet
  facet normal -0.55557 0.83147 0
    outer loop
      vertex 8.57917 2.39466 9.5
      vertex 9.49404 3.00596 6.5
      vertex 8.57917 2.39466 6.5
    endloop
  endfacet
  facet normal -1 0 0
    outer loop
      vertex -10 12.5 0
      vertex -10 6.23682 6.5
      vertex -10 12.5 9.5
    endloop
  endfacet
  facet normal -1 0 0
    outer loop
      vertex -10 12.5 0
      vertex -10 3.76318 6.5
      vertex -10 6.23682 6.5
    endloop
  endfacet
  facet normal -1 0 0
    outer loop
      vertex -10 3.76318 6.5
      vertex -10 -3.76318 6.5
      vertex -10 3.76318 9.5
    endloop
  endfacet
  facet normal -1 0 0
    outer loop
      vertex -10 12.5 0
      vertex -10 -3.76318 6.5
      vertex -10 3.76318 6.5
    endloop
  endfacet
  facet normal -1 0 0
    outer loop
      vertex -10 -12.5 0
      vertex -10 -3.76318 6.5
      vertex -10 12.5 0
    endloop
  endfacet
  facet normal -1 -0 0
    outer loop
      vertex -10 -3.76318 6.5
      vertex -10 -12.5 0
      vertex -10 -6.23682 6.5
    endloop
  endfacet
  facet normal -1 0 0
    outer loop
      vertex -10 -12.5 9.5
      vertex -10 -6.23682 6.5
      vertex -10 -12.5 0
    endloop
  endfacet
  facet normal -1 0 0
    outer loop
      vertex -10 -6.23682 6.5
      vertex -10 -12.5 9.5
      vertex -10 -6.23682 9.5
    endloop
  endfacet
  facet normal -1 -0 0
    outer loop
      vertex -10 12.5 9.5
      vertex -10 6.23682 6.5
      vertex -10 6.23682 9.5
    endloop
  endfacet
  facet normal -1 -0 0
    outer loop
      vertex -10 3.76318 9.5
      vertex -10 -3.76318 6.5
      vertex -10 -3.76318 9.5
    endloop
  endfacet
  facet normal 0 0 1
    outer loop
      vertex -4.89466 -3.92083 9.5
      vertex 4.89466 -3.92083 9.5
      vertex -4.89466 3.92083 9.5
    endloop
  endfacet
  facet normal 0 0 1
    outer loop
      vertex 4.89466 -3.92083 9.5
      vertex -4.89466 -3.92083 9.5
      vertex -4.68 -5 9.5
    endloop
  endfacet
  facet normal -0 0 1
    outer loop
      vertex -5.50596 3.00596 9.5
      vertex -4.89466 -3.92083 9.5
      vertex -4.89466 3.92083 9.5
    endloop
  endfacet
  facet normal 0 0 1
    outer loop
      vertex -5.50596 3.00596 9.5
      vertex -5.50596 -3.00596 9.5
      vertex -4.89466 -3.92083 9.5
    endloop
  endfacet
  facet normal -0 0 1
    outer loop
      vertex -6.42083 2.39466 9.5
      vertex -5.50596 -3.00596 9.5
      vertex -5.50596 3.00596 9.5
    endloop
  endfacet
  facet normal 0 0 1
    outer loop
      vertex -6.42083 2.39466 9.5
      vertex -6.42083 -2.39466 9.5
      vertex -5.50596 -3.00596 9.5
    endloop
  endfacet
  facet normal -0 0 1
    outer loop
      vertex -7.5 2.18 9.5
      vertex -6.42083 -2.39466 9.5
      vertex -6.42083 2.39466 9.5
    endloop
  endfacet
  facet normal 0 0 1
    outer loop
      vertex -7.5 2.18 9.5
      vertex -7.5 -2.18 9.5
      vertex -6.42083 -2.39466 9.5
    endloop
  endfacet
  facet normal 0 0 1
    outer loop
      vertex -8.57917 2.39466 9.5
      vertex -7.5 -2.18 9.5
      vertex -7.5 2.18 9.5
    endloop
  endfacet
  facet normal 0 0 1
    outer loop
      vertex -8.57917 2.39466 9.5
      vertex -8.57917 -2.39466 9.5
      vertex -7.5 -2.18 9.5
    endloop
  endfacet
  facet normal 0 0 1
    outer loop
      vertex -9.49404 3.00596 9.5
      vertex -8.57917 -2.39466 9.5
      vertex -8.57917 2.39466 9.5
    endloop
  endfacet
  facet normal 0 0 1
    outer loop
      vertex -9.49404 3.00596 9.5
      vertex -9.49404 -3.00596 9.5
      vertex -8.57917 -2.39466 9.5
    endloop
  endfacet
  facet normal 0 0 1
    outer loop
      vertex -10 3.76318 9.5
      vertex -9.49404 -3.00596 9.5
      vertex -9.49404 3.00596 9.5
    endloop
  endfacet
  facet normal 0 0 1
    outer loop
      vertex -9.49404 -3.00596 9.5
      vertex -10 3.76318 9.5
      vertex -10 -3.76318 9.5
    endloop
  endfacet
  facet normal 0 0 1
    outer loop
      vertex 10 12.5 9.5
      vertex 9.49404 6.99404 9.5
      vertex 10 6.23682 9.5
    endloop
  endfacet
  facet normal 0 0 1
    outer loop
      vertex 10 12.5 9.5
      vertex 8.57917 7.60534 9.5
      vertex 9.49404 6.99404 9.5
    endloop
  endfacet
  facet normal 0 0 1
    outer loop
      vertex 10 12.5 9.5
      vertex 7.5 7.82 9.5
      vertex 8.57917 7.60534 9.5
    endloop
  endfacet
  facet normal 0 0 1
    outer loop
      vertex 10 12.5 9.5
      vertex 6.42083 7.60534 9.5
      vertex 7.5 7.82 9.5
    endloop
  endfacet
  facet normal 0 0 1
    outer loop
      vertex 10 12.5 9.5
      vertex 5.50596 6.99404 9.5
      vertex 6.42083 7.60534 9.5
    endloop
  endfacet
  facet normal 0 0 1
    outer loop
      vertex 4.89466 3.92083 9.5
      vertex -4.89466 3.92083 9.5
      vertex 4.89466 -3.92083 9.5
    endloop
  endfacet
  facet normal 0 0 1
    outer loop
      vertex 4.89466 6.07917 9.5
      vertex -4.68 5 9.5
      vertex 4.68 5 9.5
    endloop
  endfacet
  facet normal 0 0 1
    outer loop
      vertex -4.89466 6.07917 9.5
      vertex 4.89466 6.07917 9.5
      vertex 5.50596 6.99404 9.5
    endloop
  endfacet
  facet normal 0 0 1
    outer loop
      vertex -5.50596 6.99404 9.5
      vertex 5.50596 6.99404 9.5
      vertex 10 12.5 9.5
    endloop
  endfacet
  facet normal 0 0 1
    outer loop
      vertex 4.89466 6.07917 9.5
      vertex -4.89466 6.07917 9.5
      vertex -4.68 5 9.5
    endloop
  endfacet
  facet normal 0 0 1
    outer loop
      vertex 5.50596 6.99404 9.5
      vertex -5.50596 6.99404 9.5
      vertex -4.89466 6.07917 9.5
    endloop
  endfacet
  facet normal 0 0 1
    outer loop
      vertex 10 12.5 9.5
      vertex -6.42083 7.60534 9.5
      vertex -5.50596 6.99404 9.5
    endloop
  endfacet
  facet normal -0 0 1
    outer loop
      vertex -10 12.5 9.5
      vertex -6.42083 7.60534 9.5
      vertex 10 12.5 9.5
    endloop
  endfacet
  facet normal 0 0 1
    outer loop
      vertex -6.42083 7.60534 9.5
      vertex -10 12.5 9.5
      vertex -7.5 7.82 9.5
    endloop
  endfacet
  facet normal 0 0 1
    outer loop
      vertex -7.5 7.82 9.5
      vertex -10 12.5 9.5
      vertex -8.57917 7.60534 9.5
    endloop
  endfacet
  facet normal 0 0 1
    outer loop
      vertex -10 12.5 9.5
      vertex -9.49404 6.99404 9.5
      vertex -8.57917 7.60534 9.5
    endloop
  endfacet
  facet normal 0 0 1
    outer loop
      vertex -9.49404 6.99404 9.5
      vertex -10 12.5 9.5
      vertex -10 6.23682 9.5
    endloop
  endfacet
  facet normal -0 0 1
    outer loop
      vertex 9.49404 3.00596 9.5
      vertex 10 -3.76318 9.5
      vertex 10 3.76318 9.5
    endloop
  endfacet
  facet normal 0 0 1
    outer loop
      vertex 9.49404 3.00596 9.5
      vertex 9.49404 -3.00596 9.5
      vertex 10 -3.76318 9.5
    endloop
  endfacet
  facet normal -0 0 1
    outer loop
      vertex 8.57917 2.39466 9.5
      vertex 9.49404 -3.00596 9.5
      vertex 9.49404 3.00596 9.5
    endloop
  endfacet
  facet normal 0 0 1
    outer loop
      vertex 8.57917 2.39466 9.5
      vertex 8.57917 -2.39466 9.5
      vertex 9.49404 -3.00596 9.5
    endloop
  endfacet
  facet normal -0 0 1
    outer loop
      vertex 7.5 2.18 9.5
      vertex 8.57917 -2.39466 9.5
      vertex 8.57917 2.39466 9.5
    endloop
  endfacet
  facet normal 0 0 1
    outer loop
      vertex 7.5 2.18 9.5
      vertex 7.5 -2.18 9.5
      vertex 8.57917 -2.39466 9.5
    endloop
  endfacet
  facet normal 0 0 1
    outer loop
      vertex 6.42083 2.39466 9.5
      vertex 7.5 -2.18 9.5
      vertex 7.5 2.18 9.5
    endloop
  endfacet
  facet normal 0 0 1
    outer loop
      vertex 6.42083 2.39466 9.5
      vertex 6.42083 -2.39466 9.5
      vertex 7.5 -2.18 9.5
    endloop
  endfacet
  facet normal 0 0 1
    outer loop
      vertex 5.50596 3.00596 9.5
      vertex 6.42083 -2.39466 9.5
      vertex 6.42083 2.39466 9.5
    endloop
  endfacet
  facet normal 0 0 1
    outer loop
      vertex 5.50596 3.00596 9.5
      vertex 5.50596 -3.00596 9.5
      vertex 6.42083 -2.39466 9.5
    endloop
  endfacet
  facet normal 0 0 1
    outer loop
      vertex 4.89466 3.92083 9.5
      vertex 5.50596 -3.00596 9.5
      vertex 5.50596 3.00596 9.5
    endloop
  endfacet
  facet normal 0 0 1
    outer loop
      vertex 4.89466 3.92083 9.5
      vertex 4.89466 -3.92083 9.5
      vertex 5.50596 -3.00596 9.5
    endloop
  endfacet
  facet normal -0 0 1
    outer loop
      vertex -4.68 5 9.5
      vertex 4.89466 3.92083 9.5
      vertex 4.68 5 9.5
    endloop
  endfacet
  facet normal 0 0 1
    outer loop
      vertex -4.89466 3.92083 9.5
      vertex 4.89466 3.92083 9.5
      vertex -4.68 5 9.5
    endloop
  endfacet
  facet normal -0 0 1
    outer loop
      vertex 9.49404 -6.99404 9.5
      vertex 10 -12.5 9.5
      vertex 10 -6.23682 9.5
    endloop
  endfacet
  facet normal -0 0 1
    outer loop
      vertex 8.57917 -7.60534 9.5
      vertex 10 -12.5 9.5
      vertex 9.49404 -6.99404 9.5
    endloop
  endfacet
  facet normal -0 0 1
    outer loop
      vertex 7.5 -7.82 9.5
      vertex 10 -12.5 9.5
      vertex 8.57917 -7.60534 9.5
    endloop
  endfacet
  facet normal 0 0 1
    outer loop
      vertex 6.42083 -7.60534 9.5
      vertex 10 -12.5 9.5
      vertex 7.5 -7.82 9.5
    endloop
  endfacet
  facet normal 0 0 1
    outer loop
      vertex 5.50596 -6.99404 9.5
      vertex 10 -12.5 9.5
      vertex 6.42083 -7.60534 9.5
    endloop
  endfacet
  facet normal 0 0 1
    outer loop
      vertex 4.89466 -3.92083 9.5
      vertex -4.68 -5 9.5
      vertex 4.68 -5 9.5
    endloop
  endfacet
  facet normal 0 0 1
    outer loop
      vertex 4.68 -5 9.5
      vertex -4.68 -5 9.5
      vertex 4.89466 -6.07917 9.5
    endloop
  endfacet
  facet normal 0 0 1
    outer loop
      vertex -4.89466 -6.07917 9.5
      vertex 4.89466 -6.07917 9.5
      vertex -4.68 -5 9.5
    endloop
  endfacet
  facet normal 0 0 1
    outer loop
      vertex 4.89466 -6.07917 9.5
      vertex -4.89466 -6.07917 9.5
      vertex 5.50596 -6.99404 9.5
    endloop
  endfacet
  facet normal 0 0 1
    outer loop
      vertex -5.50596 -6.99404 9.5
      vertex 5.50596 -6.99404 9.5
      vertex -4.89466 -6.07917 9.5
    endloop
  endfacet
  facet normal 0 0 1
    outer loop
      vertex 5.50596 -6.99404 9.5
      vertex -5.50596 -6.99404 9.5
      vertex 10 -12.5 9.5
    endloop
  endfacet
  facet normal -0 0 1
    outer loop
      vertex -6.42083 -7.60534 9.5
      vertex 10 -12.5 9.5
      vertex -5.50596 -6.99404 9.5
    endloop
  endfacet
  facet normal 0 0 1
    outer loop
      vertex -10 -12.5 9.5
      vertex -6.42083 -7.60534 9.5
      vertex -7.5 -7.82 9.5
    endloop
  endfacet
  facet normal 0 0 1
    outer loop
      vertex -10 -12.5 9.5
      vertex -7.5 -7.82 9.5
      vertex -8.57917 -7.60534 9.5
    endloop
  endfacet
  facet normal 0 0 1
    outer loop
      vertex -6.42083 -7.60534 9.5
      vertex -10 -12.5 9.5
      vertex 10 -12.5 9.5
    endloop
  endfacet
  facet normal 0 0 1
    outer loop
      vertex -9.49404 -6.99404 9.5
      vertex -10 -12.5 9.5
      vertex -8.57917 -7.60534 9.5
    endloop
  endfacet
  facet normal 0 0 1
    outer loop
      vertex -10 -12.5 9.5
      vertex -9.49404 -6.99404 9.5
      vertex -10 -6.23682 9.5
    endloop
  endfacet
  facet normal 1 0 0
    outer loop
      vertex 10 -6.23682 9.5
      vertex 10 -12.5 9.5
      vertex 10 -6.23682 6.5
    endloop
  endfacet
  facet normal 1 0 0
    outer loop
      vertex 10 3.76318 9.5
      vertex 10 -3.76318 9.5
      vertex 10 3.76318 6.5
    endloop
  endfacet
  facet normal 1 0 0
    outer loop
      vertex 10 6.23682 6.5
      vertex 10 12.5 9.5
      vertex 10 6.23682 9.5
    endloop
  endfacet
  facet normal 1 0 0
    outer loop
      vertex 10 12.5 9.5
      vertex 10 6.23682 6.5
      vertex 10 12.5 0
    endloop
  endfacet
  facet normal 1 -0 0
    outer loop
      vertex 10 3.76318 6.5
      vertex 10 12.5 0
      vertex 10 6.23682 6.5
    endloop
  endfacet
  facet normal 1 0 0
    outer loop
      vertex 10 -3.76318 6.5
      vertex 10 3.76318 6.5
      vertex 10 -3.76318 9.5
    endloop
  endfacet
  facet normal 1 0 0
    outer loop
      vertex 10 3.76318 6.5
      vertex 10 -3.76318 6.5
      vertex 10 12.5 0
    endloop
  endfacet
  facet normal 1 0 0
    outer loop
      vertex 10 -12.5 0
      vertex 10 -3.76318 6.5
      vertex 10 -6.23682 6.5
    endloop
  endfacet
  facet normal 1 0 0
    outer loop
      vertex 10 -3.76318 6.5
      vertex 10 -12.5 0
      vertex 10 12.5 0
    endloop
  endfacet
  facet normal 1 0 0
    outer loop
      vertex 10 -12.5 0
      vertex 10 -6.23682 6.5
      vertex 10 -12.5 9.5
    endloop
  endfacet
  facet normal 0 0 -1
    outer loop
      vertex -6.00332 4.38005 0
      vertex 6.00332 4.38005 0
      vertex -6.00332 -4.38005 0
    endloop
  endfacet
  facet normal 0 0 -1
    outer loop
      vertex 6.00332 4.38005 0
      vertex -6.00332 4.38005 0
      vertex -5.88 5 0
    endloop
  endfacet
  facet normal 0 0 -1
    outer loop
      vertex -6.35449 -3.85449 0
      vertex -6.00332 4.38005 0
      vertex -6.00332 -4.38005 0
    endloop
  endfacet
  facet normal 0 0 -1
    outer loop
      vertex -6.35449 -3.85449 0
      vertex -6.35449 3.85449 0
      vertex -6.00332 4.38005 0
    endloop
  endfacet
  facet normal 0 0 -1
    outer loop
      vertex -6.88005 -3.50332 0
      vertex -6.35449 3.85449 0
      vertex -6.35449 -3.85449 0
    endloop
  endfacet
  facet normal 0 0 -1
    outer loop
      vertex -6.88005 -3.50332 0
      vertex -6.88005 3.50332 0
      vertex -6.35449 3.85449 0
    endloop
  endfacet
  facet normal 0 0 -1
    outer loop
      vertex -7.5 -3.38 0
      vertex -6.88005 3.50332 0
      vertex -6.88005 -3.50332 0
    endloop
  endfacet
  facet normal 0 0 -1
    outer loop
      vertex -7.5 -3.38 0
      vertex -7.5 3.38 0
      vertex -6.88005 3.50332 0
    endloop
  endfacet
  facet normal 0 0 -1
    outer loop
      vertex -8.11995 -3.50332 0
      vertex -7.5 3.38 0
      vertex -7.5 -3.38 0
    endloop
  endfacet
  facet normal 0 0 -1
    outer loop
      vertex -8.11995 -3.50332 0
      vertex -8.11995 3.50332 0
      vertex -7.5 3.38 0
    endloop
  endfacet
  facet normal 0 0 -1
    outer loop
      vertex -8.64551 -3.85449 0
      vertex -8.11995 3.50332 0
      vertex -8.11995 -3.50332 0
    endloop
  endfacet
  facet normal 0 0 -1
    outer loop
      vertex -8.64551 -3.85449 0
      vertex -8.64551 3.85449 0
      vertex -8.11995 3.50332 0
    endloop
  endfacet
  facet normal 0 0 -1
    outer loop
      vertex -8.99668 -4.38005 0
      vertex -8.64551 3.85449 0
      vertex -8.64551 -3.85449 0
    endloop
  endfacet
  facet normal 0 0 -1
    outer loop
      vertex -8.99668 -4.38005 0
      vertex -8.99668 4.38005 0
      vertex -8.64551 3.85449 0
    endloop
  endfacet
  facet normal 0 0 -1
    outer loop
      vertex -9.12 -5 0
      vertex -8.99668 4.38005 0
      vertex -8.99668 -4.38005 0
    endloop
  endfacet
  facet normal -0 0 -1
    outer loop
      vertex -8.99668 4.38005 0
      vertex -9.12 -5 0
      vertex -9.12 5 0
    endloop
  endfacet
  facet normal 0 0 -1
    outer loop
      vertex 8.99668 -4.38005 0
      vertex 9.12 5 0
      vertex 9.12 -5 0
    endloop
  endfacet
  facet normal 0 0 -1
    outer loop
      vertex 8.99668 -4.38005 0
      vertex 8.99668 4.38005 0
      vertex 9.12 5 0
    endloop
  endfacet
  facet normal 0 0 -1
    outer loop
      vertex 8.64551 -3.85449 0
      vertex 8.99668 4.38005 0
      vertex 8.99668 -4.38005 0
    endloop
  endfacet
  facet normal 0 0 -1
    outer loop
      vertex 8.64551 -3.85449 0
      vertex 8.64551 3.85449 0
      vertex 8.99668 4.38005 0
    endloop
  endfacet
  facet normal 0 0 -1
    outer loop
      vertex 8.11995 -3.50332 0
      vertex 8.64551 3.85449 0
      vertex 8.64551 -3.85449 0
    endloop
  endfacet
  facet normal 0 0 -1
    outer loop
      vertex 8.11995 -3.50332 0
      vertex 8.11995 3.50332 0
      vertex 8.64551 3.85449 0
    endloop
  endfacet
  facet normal 0 0 -1
    outer loop
      vertex 7.5 -3.38 0
      vertex 8.11995 3.50332 0
      vertex 8.11995 -3.50332 0
    endloop
  endfacet
  facet normal 0 0 -1
    outer loop
      vertex 7.5 -3.38 0
      vertex 7.5 3.38 0
      vertex 8.11995 3.50332 0
    endloop
  endfacet
  facet normal 0 0 -1
    outer loop
      vertex 6.88005 -3.50332 0
      vertex 7.5 3.38 0
      vertex 7.5 -3.38 0
    endloop
  endfacet
  facet normal 0 0 -1
    outer loop
      vertex 6.88005 -3.50332 0
      vertex 6.88005 3.50332 0
      vertex 7.5 3.38 0
    endloop
  endfacet
  facet normal 0 0 -1
    outer loop
      vertex 6.35449 -3.85449 0
      vertex 6.88005 3.50332 0
      vertex 6.88005 -3.50332 0
    endloop
  endfacet
  facet normal 0 0 -1
    outer loop
      vertex 6.35449 -3.85449 0
      vertex 6.35449 3.85449 0
      vertex 6.88005 3.50332 0
    endloop
  endfacet
  facet normal 0 0 -1
    outer loop
      vertex 6.00332 -4.38005 0
      vertex 6.35449 3.85449 0
      vertex 6.35449 -3.85449 0
    endloop
  endfacet
  facet normal 0 0 -1
    outer loop
      vertex 6.00332 -4.38005 0
      vertex 6.00332 4.38005 0
      vertex 6.35449 3.85449 0
    endloop
  endfacet
  facet normal 0 0 -1
    outer loop
      vertex -5.88 -5 0
      vertex 6.00332 -4.38005 0
      vertex 5.88 -5 0
    endloop
  endfacet
  facet normal 0 0 -1
    outer loop
      vertex -6.00332 -4.38005 0
      vertex 6.00332 -4.38005 0
      vertex -5.88 -5 0
    endloop
  endfacet
  facet normal 0 0 -1
    outer loop
      vertex 10 -12.5 0
      vertex 9.12 -5 0
      vertex 10 12.5 0
    endloop
  endfacet
  facet normal 0 0 -1
    outer loop
      vertex 10 -12.5 0
      vertex 8.99668 -5.61995 0
      vertex 9.12 -5 0
    endloop
  endfacet
  facet normal 0 0 -1
    outer loop
      vertex 10 -12.5 0
      vertex 8.64551 -6.14551 0
      vertex 8.99668 -5.61995 0
    endloop
  endfacet
  facet normal 0 0 -1
    outer loop
      vertex 10 -12.5 0
      vertex 8.11995 -6.49668 0
      vertex 8.64551 -6.14551 0
    endloop
  endfacet
  facet normal 0 0 -1
    outer loop
      vertex 10 -12.5 0
      vertex 7.5 -6.62 0
      vertex 8.11995 -6.49668 0
    endloop
  endfacet
  facet normal 0 0 -1
    outer loop
      vertex 10 -12.5 0
      vertex 6.88005 -6.49668 0
      vertex 7.5 -6.62 0
    endloop
  endfacet
  facet normal 0 0 -1
    outer loop
      vertex 10 -12.5 0
      vertex 6.35449 -6.14551 0
      vertex 6.88005 -6.49668 0
    endloop
  endfacet
  facet normal 0 0 -1
    outer loop
      vertex -6.35449 -6.14551 0
      vertex 6.35449 -6.14551 0
      vertex 10 -12.5 0
    endloop
  endfacet
  facet normal 0 0 -1
    outer loop
      vertex 6.00332 -4.38005 0
      vertex -6.00332 -4.38005 0
      vertex 6.00332 4.38005 0
    endloop
  endfacet
  facet normal 0 0 -1
    outer loop
      vertex 6.00332 -5.61995 0
      vertex -5.88 -5 0
      vertex 5.88 -5 0
    endloop
  endfacet
  facet normal 0 0 -1
    outer loop
      vertex 6.35449 -6.14551 0
      vertex -6.35449 -6.14551 0
      vertex 6.00332 -5.61995 0
    endloop
  endfacet
  facet normal 0 0 -1
    outer loop
      vertex 6.00332 -5.61995 0
      vertex -6.00332 -5.61995 0
      vertex -5.88 -5 0
    endloop
  endfacet
  facet normal -0 0 -1
    outer loop
      vertex 6.00332 -5.61995 0
      vertex -6.35449 -6.14551 0
      vertex -6.00332 -5.61995 0
    endloop
  endfacet
  facet normal 0 0 -1
    outer loop
      vertex -10 -12.5 0
      vertex -6.35449 -6.14551 0
      vertex 10 -12.5 0
    endloop
  endfacet
  facet normal 0 0 -1
    outer loop
      vertex -6.35449 -6.14551 0
      vertex -10 -12.5 0
      vertex -6.88005 -6.49668 0
    endloop
  endfacet
  facet normal 0 0 -1
    outer loop
      vertex -6.88005 -6.49668 0
      vertex -10 -12.5 0
      vertex -7.5 -6.62 0
    endloop
  endfacet
  facet normal -0 0 -1
    outer loop
      vertex -9.12 -5 0
      vertex -10 -12.5 0
      vertex -9.12 5 0
    endloop
  endfacet
  facet normal -0 0 -1
    outer loop
      vertex -8.99668 -5.61995 0
      vertex -10 -12.5 0
      vertex -9.12 -5 0
    endloop
  endfacet
  facet normal -0 0 -1
    outer loop
      vertex -8.64551 -6.14551 0
      vertex -10 -12.5 0
      vertex -8.99668 -5.61995 0
    endloop
  endfacet
  facet normal -0 0 -1
    outer loop
      vertex -8.11995 -6.49668 0
      vertex -10 -12.5 0
      vertex -8.64551 -6.14551 0
    endloop
  endfacet
  facet normal -0 0 -1
    outer loop
      vertex -7.5 -6.62 0
      vertex -10 -12.5 0
      vertex -8.11995 -6.49668 0
    endloop
  endfacet
  facet normal 0 0 -1
    outer loop
      vertex 9.12 5 0
      vertex 10 12.5 0
      vertex 9.12 -5 0
    endloop
  endfacet
  facet normal 0 0 -1
    outer loop
      vertex 8.99668 5.61995 0
      vertex 10 12.5 0
      vertex 9.12 5 0
    endloop
  endfacet
  facet normal 0 0 -1
    outer loop
      vertex 8.64551 6.14551 0
      vertex 10 12.5 0
      vertex 8.99668 5.61995 0
    endloop
  endfacet
  facet normal 0 0 -1
    outer loop
      vertex 8.11995 6.49668 0
      vertex 10 12.5 0
      vertex 8.64551 6.14551 0
    endloop
  endfacet
  facet normal 0 0 -1
    outer loop
      vertex 7.5 6.62 0
      vertex 10 12.5 0
      vertex 8.11995 6.49668 0
    endloop
  endfacet
  facet normal 0 0 -1
    outer loop
      vertex 6.88005 6.49668 0
      vertex 10 12.5 0
      vertex 7.5 6.62 0
    endloop
  endfacet
  facet normal 0 0 -1
    outer loop
      vertex 6.35449 6.14551 0
      vertex 10 12.5 0
      vertex 6.88005 6.49668 0
    endloop
  endfacet
  facet normal 0 0 -1
    outer loop
      vertex -6.35449 6.14551 0
      vertex 6.35449 6.14551 0
      vertex 6.00332 5.61995 0
    endloop
  endfacet
  facet normal 0 0 -1
    outer loop
      vertex 6.00332 4.38005 0
      vertex -5.88 5 0
      vertex 5.88 5 0
    endloop
  endfacet
  facet normal 0 0 -1
    outer loop
      vertex 5.88 5 0
      vertex -5.88 5 0
      vertex 6.00332 5.61995 0
    endloop
  endfacet
  facet normal 0 0 -1
    outer loop
      vertex -6.00332 5.61995 0
      vertex 6.00332 5.61995 0
      vertex -5.88 5 0
    endloop
  endfacet
  facet normal 0 0 -1
    outer loop
      vertex -6.35449 6.14551 0
      vertex 6.00332 5.61995 0
      vertex -6.00332 5.61995 0
    endloop
  endfacet
  facet normal 0 0 -1
    outer loop
      vertex 6.35449 6.14551 0
      vertex -6.35449 6.14551 0
      vertex 10 12.5 0
    endloop
  endfacet
  facet normal 0 0 -1
    outer loop
      vertex -10 12.5 0
      vertex -6.35449 6.14551 0
      vertex -6.88005 6.49668 0
    endloop
  endfacet
  facet normal 0 0 -1
    outer loop
      vertex -10 12.5 0
      vertex -6.88005 6.49668 0
      vertex -7.5 6.62 0
    endloop
  endfacet
  facet normal 0 0 -1
    outer loop
      vertex -10 12.5 0
      vertex -7.5 6.62 0
      vertex -8.11995 6.49668 0
    endloop
  endfacet
  facet normal 0 0 -1
    outer loop
      vertex -6.35449 6.14551 0
      vertex -10 12.5 0
      vertex 10 12.5 0
    endloop
  endfacet
  facet normal 0 0 -1
    outer loop
      vertex -8.64551 6.14551 0
      vertex -10 12.5 0
      vertex -8.11995 6.49668 0
    endloop
  endfacet
  facet normal 0 0 -1
    outer loop
      vertex -8.99668 5.61995 0
      vertex -10 12.5 0
      vertex -8.64551 6.14551 0
    endloop
  endfacet
  facet normal 0 0 -1
    outer loop
      vertex -9.12 5 0
      vertex -10 12.5 0
      vertex -8.99668 5.61995 0
    endloop
  endfacet
  facet normal 0 0 -1
    outer loop
      vertex -10 12.5 0
      vertex -9.12 5 0
      vertex -10 -12.5 0
    endloop
  endfacet
  facet normal 0 -1 0
    outer loop
      vertex -10 -12.5 0
      vertex 10 -12.5 9.5
      vertex -10 -12.5 9.5
    endloop
  endfacet
  facet normal 0 -1 -0
    outer loop
      vertex 10 -12.5 9.5
      vertex -10 -12.5 0
      vertex 10 -12.5 0
    endloop
  endfacet
  facet normal 0 1 -0
    outer loop
      vertex 10 12.5 0
      vertex -10 12.5 9.5
      vertex 10 12.5 9.5
    endloop
  endfacet
  facet normal 0 1 0
    outer loop
      vertex -10 12.5 9.5
      vertex 10 12.5 0
      vertex -10 12.5 0
    endloop
  endfacet
endsolid OpenSCAD_Model
