solid OpenSCAD_Model
  facet normal -0.980785 -0.19509 0
    outer loop
      vertex -5.78 -5 0
      vertex -5.91093 -4.34179 6.5
      vertex -5.91093 -4.34179 0
    endloop
  endfacet
  facet normal -0.980785 -0.19509 0
    outer loop
      vertex -5.91093 -4.34179 6.5
      vertex -5.78 -5 0
      vertex -5.78 -5 6.5
    endloop
  endfacet
  facet normal 0.980785 -0.19509 0
    outer loop
      vertex -9.22 -5 6.5
      vertex -9.08907 -4.34179 0
      vertex -9.08907 -4.34179 6.5
    endloop
  endfacet
  facet normal 0.980785 -0.19509 0
    outer loop
      vertex -9.08907 -4.34179 0
      vertex -9.22 -5 6.5
      vertex -9.22 -5 0
    endloop
  endfacet
  facet normal -0.19509 -0.980785 0
    outer loop
      vertex -7.5 -3.28 0
      vertex -6.84179 -3.41093 6.5
      vertex -7.5 -3.28 6.5
    endloop
  endfacet
  facet normal -0.19509 -0.980785 -0
    outer loop
      vertex -6.84179 -3.41093 6.5
      vertex -7.5 -3.28 0
      vertex -6.84179 -3.41093 0
    endloop
  endfacet
  facet normal -0.555571 -0.831469 0
    outer loop
      vertex -6.84179 -3.41093 0
      vertex -6.28378 -3.78378 6.5
      vertex -6.84179 -3.41093 6.5
    endloop
  endfacet
  facet normal -0.555571 -0.831469 -0
    outer loop
      vertex -6.28378 -3.78378 6.5
      vertex -6.84179 -3.41093 0
      vertex -6.28378 -3.78378 0
    endloop
  endfacet
  facet normal -0.831469 -0.555571 0
    outer loop
      vertex -5.91093 -4.34179 0
      vertex -6.28378 -3.78378 6.5
      vertex -6.28378 -3.78378 0
    endloop
  endfacet
  facet normal -0.831469 -0.555571 0
    outer loop
      vertex -6.28378 -3.78378 6.5
      vertex -5.91093 -4.34179 0
      vertex -5.91093 -4.34179 6.5
    endloop
  endfacet
  facet normal 0.555571 -0.831469 0
    outer loop
      vertex -8.71622 -3.78378 0
      vertex -8.15821 -3.41093 6.5
      vertex -8.71622 -3.78378 6.5
    endloop
  endfacet
  facet normal 0.555571 -0.831469 0
    outer loop
      vertex -8.15821 -3.41093 6.5
      vertex -8.71622 -3.78378 0
      vertex -8.15821 -3.41093 0
    endloop
  endfacet
  facet normal 0.831469 -0.555571 0
    outer loop
      vertex -9.08907 -4.34179 6.5
      vertex -8.71622 -3.78378 0
      vertex -8.71622 -3.78378 6.5
    endloop
  endfacet
  facet normal 0.831469 -0.555571 0
    outer loop
      vertex -8.71622 -3.78378 0
      vertex -9.08907 -4.34179 6.5
      vertex -9.08907 -4.34179 0
    endloop
  endfacet
  facet normal 0 0 1
    outer loop
      vertex -5.78 -5 6.5
      vertex -4.58 -5 6.5
      vertex -4.80227 -3.88256 6.5
    endloop
  endfacet
  facet normal 0 0 1
    outer loop
      vertex -5.91093 -4.34179 6.5
      vertex -4.80227 -3.88256 6.5
      vertex -5.43525 -2.93525 6.5
    endloop
  endfacet
  facet normal 0 0 1
    outer loop
      vertex -4.58 -5 6.5
      vertex -5.78 -5 6.5
      vertex -4.80227 -6.11744 6.5
    endloop
  endfacet
  facet normal -0 0 1
    outer loop
      vertex -5.91093 -5.65821 6.5
      vertex -4.80227 -6.11744 6.5
      vertex -5.78 -5 6.5
    endloop
  endfacet
  facet normal 0 0 1
    outer loop
      vertex -4.80227 -3.88256 6.5
      vertex -5.91093 -4.34179 6.5
      vertex -5.78 -5 6.5
    endloop
  endfacet
  facet normal 0 0 1
    outer loop
      vertex -5.43525 -2.93525 6.5
      vertex -6.28378 -3.78378 6.5
      vertex -5.91093 -4.34179 6.5
    endloop
  endfacet
  facet normal 0 0 1
    outer loop
      vertex -6.38256 -2.30227 6.5
      vertex -6.28378 -3.78378 6.5
      vertex -5.43525 -2.93525 6.5
    endloop
  endfacet
  facet normal 0 0 1
    outer loop
      vertex -6.38256 -2.30227 6.5
      vertex -6.84179 -3.41093 6.5
      vertex -6.28378 -3.78378 6.5
    endloop
  endfacet
  facet normal 0 0 1
    outer loop
      vertex -7.5 -2.08 6.5
      vertex -6.84179 -3.41093 6.5
      vertex -6.38256 -2.30227 6.5
    endloop
  endfacet
  facet normal 0 0 1
    outer loop
      vertex -7.5 -2.08 6.5
      vertex -7.5 -3.28 6.5
      vertex -6.84179 -3.41093 6.5
    endloop
  endfacet
  facet normal 0 0 1
    outer loop
      vertex -7.5 -2.08 6.5
      vertex -8.15821 -3.41093 6.5
      vertex -7.5 -3.28 6.5
    endloop
  endfacet
  facet normal -0 0 1
    outer loop
      vertex -8.61744 -2.30227 6.5
      vertex -8.15821 -3.41093 6.5
      vertex -7.5 -2.08 6.5
    endloop
  endfacet
  facet normal 0 0 1
    outer loop
      vertex -8.61744 -2.30227 6.5
      vertex -8.71622 -3.78378 6.5
      vertex -8.15821 -3.41093 6.5
    endloop
  endfacet
  facet normal -0 0 1
    outer loop
      vertex -9.56475 -2.93525 6.5
      vertex -8.71622 -3.78378 6.5
      vertex -8.61744 -2.30227 6.5
    endloop
  endfacet
  facet normal 0 0 1
    outer loop
      vertex -8.71622 -3.78378 6.5
      vertex -10 -3.58664 6.5
      vertex -9.08907 -4.34179 6.5
    endloop
  endfacet
  facet normal -0 0 1
    outer loop
      vertex -10 -3.58664 6.5
      vertex -8.71622 -3.78378 6.5
      vertex -9.56475 -2.93525 6.5
    endloop
  endfacet
  facet normal 0 0 1
    outer loop
      vertex -4.80227 -6.11744 6.5
      vertex -5.91093 -5.65821 6.5
      vertex -5.43525 -7.06475 6.5
    endloop
  endfacet
  facet normal -0 0 1
    outer loop
      vertex -6.28378 -6.21622 6.5
      vertex -5.43525 -7.06475 6.5
      vertex -5.91093 -5.65821 6.5
    endloop
  endfacet
  facet normal 0 0 1
    outer loop
      vertex -6.28378 -6.21622 6.5
      vertex -6.38256 -7.69773 6.5
      vertex -5.43525 -7.06475 6.5
    endloop
  endfacet
  facet normal -0 0 1
    outer loop
      vertex -6.84179 -6.58907 6.5
      vertex -6.38256 -7.69773 6.5
      vertex -6.28378 -6.21622 6.5
    endloop
  endfacet
  facet normal -0 0 1
    outer loop
      vertex -7.5 -6.72 6.5
      vertex -6.38256 -7.69773 6.5
      vertex -6.84179 -6.58907 6.5
    endloop
  endfacet
  facet normal 0 0 1
    outer loop
      vertex -7.5 -6.72 6.5
      vertex -7.5 -7.92 6.5
      vertex -6.38256 -7.69773 6.5
    endloop
  endfacet
  facet normal 0 0 1
    outer loop
      vertex -8.15821 -6.58907 6.5
      vertex -7.5 -7.92 6.5
      vertex -7.5 -6.72 6.5
    endloop
  endfacet
  facet normal 0 0 1
    outer loop
      vertex -8.15821 -6.58907 6.5
      vertex -8.61744 -7.69773 6.5
      vertex -7.5 -7.92 6.5
    endloop
  endfacet
  facet normal 0 0 1
    outer loop
      vertex -8.71622 -6.21622 6.5
      vertex -8.61744 -7.69773 6.5
      vertex -8.15821 -6.58907 6.5
    endloop
  endfacet
  facet normal 0 0 1
    outer loop
      vertex -10 -6.41336 6.5
      vertex -8.71622 -6.21622 6.5
      vertex -9.08907 -5.65821 6.5
    endloop
  endfacet
  facet normal 0 0 1
    outer loop
      vertex -8.71622 -6.21622 6.5
      vertex -9.56475 -7.06475 6.5
      vertex -8.61744 -7.69773 6.5
    endloop
  endfacet
  facet normal 0 0 1
    outer loop
      vertex -10 -6.41336 6.5
      vertex -9.08907 -5.65821 6.5
      vertex -9.22 -5 6.5
    endloop
  endfacet
  facet normal 0 0 1
    outer loop
      vertex -9.08907 -4.34179 6.5
      vertex -10 -3.58664 6.5
      vertex -9.22 -5 6.5
    endloop
  endfacet
  facet normal 0 0 1
    outer loop
      vertex -10 -6.41336 6.5
      vertex -9.22 -5 6.5
      vertex -10 -3.58664 6.5
    endloop
  endfacet
  facet normal 0 0 1
    outer loop
      vertex -8.71622 -6.21622 6.5
      vertex -10 -6.41336 6.5
      vertex -9.56475 -7.06475 6.5
    endloop
  endfacet
  facet normal 0.19509 -0.980785 0
    outer loop
      vertex -8.15821 -3.41093 0
      vertex -7.5 -3.28 6.5
      vertex -8.15821 -3.41093 6.5
    endloop
  endfacet
  facet normal 0.19509 -0.980785 0
    outer loop
      vertex -7.5 -3.28 6.5
      vertex -8.15821 -3.41093 0
      vertex -7.5 -3.28 0
    endloop
  endfacet
  facet normal -0.980785 0.19509 0
    outer loop
      vertex -5.91093 -5.65821 0
      vertex -5.78 -5 6.5
      vertex -5.78 -5 0
    endloop
  endfacet
  facet normal -0.980785 0.19509 0
    outer loop
      vertex -5.78 -5 6.5
      vertex -5.91093 -5.65821 0
      vertex -5.91093 -5.65821 6.5
    endloop
  endfacet
  facet normal 0.555571 0.831469 -0
    outer loop
      vertex -8.15821 -6.58907 0
      vertex -8.71622 -6.21622 6.5
      vertex -8.15821 -6.58907 6.5
    endloop
  endfacet
  facet normal 0.555571 0.831469 0
    outer loop
      vertex -8.71622 -6.21622 6.5
      vertex -8.15821 -6.58907 0
      vertex -8.71622 -6.21622 0
    endloop
  endfacet
  facet normal 0.980785 0.19509 0
    outer loop
      vertex -9.08907 -5.65821 6.5
      vertex -9.22 -5 0
      vertex -9.22 -5 6.5
    endloop
  endfacet
  facet normal 0.980785 0.19509 0
    outer loop
      vertex -9.22 -5 0
      vertex -9.08907 -5.65821 6.5
      vertex -9.08907 -5.65821 0
    endloop
  endfacet
  facet normal -0.19509 0.980785 0
    outer loop
      vertex -6.84179 -6.58907 0
      vertex -7.5 -6.72 6.5
      vertex -6.84179 -6.58907 6.5
    endloop
  endfacet
  facet normal -0.19509 0.980785 0
    outer loop
      vertex -7.5 -6.72 6.5
      vertex -6.84179 -6.58907 0
      vertex -7.5 -6.72 0
    endloop
  endfacet
  facet normal 0.19509 0.980785 -0
    outer loop
      vertex -7.5 -6.72 0
      vertex -8.15821 -6.58907 6.5
      vertex -7.5 -6.72 6.5
    endloop
  endfacet
  facet normal 0.19509 0.980785 0
    outer loop
      vertex -8.15821 -6.58907 6.5
      vertex -7.5 -6.72 0
      vertex -8.15821 -6.58907 0
    endloop
  endfacet
  facet normal 0.831469 0.555571 0
    outer loop
      vertex -8.71622 -6.21622 6.5
      vertex -9.08907 -5.65821 0
      vertex -9.08907 -5.65821 6.5
    endloop
  endfacet
  facet normal 0.831469 0.555571 0
    outer loop
      vertex -9.08907 -5.65821 0
      vertex -8.71622 -6.21622 6.5
      vertex -8.71622 -6.21622 0
    endloop
  endfacet
  facet normal -0.555571 0.831469 0
    outer loop
      vertex -6.28378 -6.21622 0
      vertex -6.84179 -6.58907 6.5
      vertex -6.28378 -6.21622 6.5
    endloop
  endfacet
  facet normal -0.555571 0.831469 0
    outer loop
      vertex -6.84179 -6.58907 6.5
      vertex -6.28378 -6.21622 0
      vertex -6.84179 -6.58907 0
    endloop
  endfacet
  facet normal -0.831469 0.555571 0
    outer loop
      vertex -6.28378 -6.21622 0
      vertex -5.91093 -5.65821 6.5
      vertex -5.91093 -5.65821 0
    endloop
  endfacet
  facet normal -0.831469 0.555571 0
    outer loop
      vertex -5.91093 -5.65821 6.5
      vertex -6.28378 -6.21622 0
      vertex -6.28378 -6.21622 6.5
    endloop
  endfacet
  facet normal -0.980785 -0.19509 0
    outer loop
      vertex -4.58 -5 6.5
      vertex -4.80227 -3.88256 9.5
      vertex -4.80227 -3.88256 6.5
    endloop
  endfacet
  facet normal -0.980785 -0.19509 0
    outer loop
      vertex -4.80227 -3.88256 9.5
      vertex -4.58 -5 6.5
      vertex -4.58 -5 9.5
    endloop
  endfacet
  facet normal 0.19509 -0.980785 0
    outer loop
      vertex -8.61744 -2.30227 6.5
      vertex -7.5 -2.08 9.5
      vertex -8.61744 -2.30227 9.5
    endloop
  endfacet
  facet normal 0.19509 -0.980785 0
    outer loop
      vertex -7.5 -2.08 9.5
      vertex -8.61744 -2.30227 6.5
      vertex -7.5 -2.08 6.5
    endloop
  endfacet
  facet normal -0.19509 0.980785 0
    outer loop
      vertex -6.38256 -7.69773 6.5
      vertex -7.5 -7.92 9.5
      vertex -6.38256 -7.69773 9.5
    endloop
  endfacet
  facet normal -0.19509 0.980785 0
    outer loop
      vertex -7.5 -7.92 9.5
      vertex -6.38256 -7.69773 6.5
      vertex -7.5 -7.92 6.5
    endloop
  endfacet
  facet normal -0.55557 0.83147 0
    outer loop
      vertex -5.43525 -7.06475 6.5
      vertex -6.38256 -7.69773 9.5
      vertex -5.43525 -7.06475 9.5
    endloop
  endfacet
  facet normal -0.55557 0.83147 0
    outer loop
      vertex -6.38256 -7.69773 9.5
      vertex -5.43525 -7.06475 6.5
      vertex -6.38256 -7.69773 6.5
    endloop
  endfacet
  facet normal -0.55557 -0.83147 0
    outer loop
      vertex -6.38256 -2.30227 6.5
      vertex -5.43525 -2.93525 9.5
      vertex -6.38256 -2.30227 9.5
    endloop
  endfacet
  facet normal -0.55557 -0.83147 -0
    outer loop
      vertex -5.43525 -2.93525 9.5
      vertex -6.38256 -2.30227 6.5
      vertex -5.43525 -2.93525 6.5
    endloop
  endfacet
  facet normal -0.83147 -0.55557 0
    outer loop
      vertex -4.80227 -3.88256 6.5
      vertex -5.43525 -2.93525 9.5
      vertex -5.43525 -2.93525 6.5
    endloop
  endfacet
  facet normal -0.83147 -0.55557 0
    outer loop
      vertex -5.43525 -2.93525 9.5
      vertex -4.80227 -3.88256 6.5
      vertex -4.80227 -3.88256 9.5
    endloop
  endfacet
  facet normal -0.19509 -0.980785 0
    outer loop
      vertex -7.5 -2.08 6.5
      vertex -6.38256 -2.30227 9.5
      vertex -7.5 -2.08 9.5
    endloop
  endfacet
  facet normal -0.19509 -0.980785 -0
    outer loop
      vertex -6.38256 -2.30227 9.5
      vertex -7.5 -2.08 6.5
      vertex -6.38256 -2.30227 6.5
    endloop
  endfacet
  facet normal 0.83147 -0.55557 0
    outer loop
      vertex -10 -3.58664 9.5
      vertex -9.56475 -2.93525 6.5
      vertex -9.56475 -2.93525 9.5
    endloop
  endfacet
  facet normal 0.83147 -0.55557 0
    outer loop
      vertex -9.56475 -2.93525 6.5
      vertex -10 -3.58664 9.5
      vertex -10 -3.58664 6.5
    endloop
  endfacet
  facet normal 0.55557 -0.83147 0
    outer loop
      vertex -9.56475 -2.93525 6.5
      vertex -8.61744 -2.30227 9.5
      vertex -9.56475 -2.93525 9.5
    endloop
  endfacet
  facet normal 0.55557 -0.83147 0
    outer loop
      vertex -8.61744 -2.30227 9.5
      vertex -9.56475 -2.93525 6.5
      vertex -8.61744 -2.30227 6.5
    endloop
  endfacet
  facet normal -0.980785 0.19509 0
    outer loop
      vertex -4.80227 -6.11744 6.5
      vertex -4.58 -5 9.5
      vertex -4.58 -5 6.5
    endloop
  endfacet
  facet normal -0.980785 0.19509 0
    outer loop
      vertex -4.58 -5 9.5
      vertex -4.80227 -6.11744 6.5
      vertex -4.80227 -6.11744 9.5
    endloop
  endfacet
  facet normal -0.83147 0.55557 0
    outer loop
      vertex -5.43525 -7.06475 6.5
      vertex -4.80227 -6.11744 9.5
      vertex -4.80227 -6.11744 6.5
    endloop
  endfacet
  facet normal -0.83147 0.55557 0
    outer loop
      vertex -4.80227 -6.11744 9.5
      vertex -5.43525 -7.06475 6.5
      vertex -5.43525 -7.06475 9.5
    endloop
  endfacet
  facet normal 0.55557 0.83147 -0
    outer loop
      vertex -8.61744 -7.69773 6.5
      vertex -9.56475 -7.06475 9.5
      vertex -8.61744 -7.69773 9.5
    endloop
  endfacet
  facet normal 0.55557 0.83147 0
    outer loop
      vertex -9.56475 -7.06475 9.5
      vertex -8.61744 -7.69773 6.5
      vertex -9.56475 -7.06475 6.5
    endloop
  endfacet
  facet normal 0.83147 0.55557 0
    outer loop
      vertex -9.56475 -7.06475 9.5
      vertex -10 -6.41336 6.5
      vertex -10 -6.41336 9.5
    endloop
  endfacet
  facet normal 0.83147 0.55557 0
    outer loop
      vertex -10 -6.41336 6.5
      vertex -9.56475 -7.06475 9.5
      vertex -9.56475 -7.06475 6.5
    endloop
  endfacet
  facet normal 0.19509 0.980785 -0
    outer loop
      vertex -7.5 -7.92 6.5
      vertex -8.61744 -7.69773 9.5
      vertex -7.5 -7.92 9.5
    endloop
  endfacet
  facet normal 0.19509 0.980785 0
    outer loop
      vertex -8.61744 -7.69773 9.5
      vertex -7.5 -7.92 6.5
      vertex -8.61744 -7.69773 6.5
    endloop
  endfacet
  facet normal -0.980785 -0.19509 0
    outer loop
      vertex 9.22 -5 0
      vertex 9.08907 -4.34179 6.5
      vertex 9.08907 -4.34179 0
    endloop
  endfacet
  facet normal -0.980785 -0.19509 0
    outer loop
      vertex 9.08907 -4.34179 6.5
      vertex 9.22 -5 0
      vertex 9.22 -5 6.5
    endloop
  endfacet
  facet normal 0.980785 -0.19509 0
    outer loop
      vertex 5.78 -5 6.5
      vertex 5.91093 -4.34179 0
      vertex 5.91093 -4.34179 6.5
    endloop
  endfacet
  facet normal 0.980785 -0.19509 0
    outer loop
      vertex 5.91093 -4.34179 0
      vertex 5.78 -5 6.5
      vertex 5.78 -5 0
    endloop
  endfacet
  facet normal -0.19509 -0.980785 0
    outer loop
      vertex 7.5 -3.28 0
      vertex 8.15821 -3.41093 6.5
      vertex 7.5 -3.28 6.5
    endloop
  endfacet
  facet normal -0.19509 -0.980785 -0
    outer loop
      vertex 8.15821 -3.41093 6.5
      vertex 7.5 -3.28 0
      vertex 8.15821 -3.41093 0
    endloop
  endfacet
  facet normal -0.555571 -0.831469 0
    outer loop
      vertex 8.15821 -3.41093 0
      vertex 8.71622 -3.78378 6.5
      vertex 8.15821 -3.41093 6.5
    endloop
  endfacet
  facet normal -0.555571 -0.831469 -0
    outer loop
      vertex 8.71622 -3.78378 6.5
      vertex 8.15821 -3.41093 0
      vertex 8.71622 -3.78378 0
    endloop
  endfacet
  facet normal -0.831469 -0.555571 0
    outer loop
      vertex 9.08907 -4.34179 0
      vertex 8.71622 -3.78378 6.5
      vertex 8.71622 -3.78378 0
    endloop
  endfacet
  facet normal -0.831469 -0.555571 0
    outer loop
      vertex 8.71622 -3.78378 6.5
      vertex 9.08907 -4.34179 0
      vertex 9.08907 -4.34179 6.5
    endloop
  endfacet
  facet normal 0.555571 -0.831469 0
    outer loop
      vertex 6.28378 -3.78378 0
      vertex 6.84179 -3.41093 6.5
      vertex 6.28378 -3.78378 6.5
    endloop
  endfacet
  facet normal 0.555571 -0.831469 0
    outer loop
      vertex 6.84179 -3.41093 6.5
      vertex 6.28378 -3.78378 0
      vertex 6.84179 -3.41093 0
    endloop
  endfacet
  facet normal 0.831469 -0.555571 0
    outer loop
      vertex 5.91093 -4.34179 6.5
      vertex 6.28378 -3.78378 0
      vertex 6.28378 -3.78378 6.5
    endloop
  endfacet
  facet normal 0.831469 -0.555571 0
    outer loop
      vertex 6.28378 -3.78378 0
      vertex 5.91093 -4.34179 6.5
      vertex 5.91093 -4.34179 0
    endloop
  endfacet
  facet normal 0 0 1
    outer loop
      vertex 8.71622 -3.78378 6.5
      vertex 10 -3.58664 6.5
      vertex 9.56475 -2.93525 6.5
    endloop
  endfacet
  facet normal 0 0 1
    outer loop
      vertex 10 -3.58664 6.5
      vertex 9.22 -5 6.5
      vertex 10 -6.41336 6.5
    endloop
  endfacet
  facet normal -0 0 1
    outer loop
      vertex 9.08907 -5.65821 6.5
      vertex 10 -6.41336 6.5
      vertex 9.22 -5 6.5
    endloop
  endfacet
  facet normal 0 0 1
    outer loop
      vertex 10 -3.58664 6.5
      vertex 9.08907 -4.34179 6.5
      vertex 9.22 -5 6.5
    endloop
  endfacet
  facet normal 0 0 1
    outer loop
      vertex 10 -3.58664 6.5
      vertex 8.71622 -3.78378 6.5
      vertex 9.08907 -4.34179 6.5
    endloop
  endfacet
  facet normal 0 0 1
    outer loop
      vertex 8.61744 -2.30227 6.5
      vertex 8.71622 -3.78378 6.5
      vertex 9.56475 -2.93525 6.5
    endloop
  endfacet
  facet normal 0 0 1
    outer loop
      vertex 8.61744 -2.30227 6.5
      vertex 8.15821 -3.41093 6.5
      vertex 8.71622 -3.78378 6.5
    endloop
  endfacet
  facet normal 0 0 1
    outer loop
      vertex 7.5 -2.08 6.5
      vertex 8.15821 -3.41093 6.5
      vertex 8.61744 -2.30227 6.5
    endloop
  endfacet
  facet normal 0 0 1
    outer loop
      vertex 7.5 -2.08 6.5
      vertex 7.5 -3.28 6.5
      vertex 8.15821 -3.41093 6.5
    endloop
  endfacet
  facet normal 0 0 1
    outer loop
      vertex 7.5 -2.08 6.5
      vertex 6.84179 -3.41093 6.5
      vertex 7.5 -3.28 6.5
    endloop
  endfacet
  facet normal -0 0 1
    outer loop
      vertex 6.38256 -2.30227 6.5
      vertex 6.84179 -3.41093 6.5
      vertex 7.5 -2.08 6.5
    endloop
  endfacet
  facet normal 0 0 1
    outer loop
      vertex 6.38256 -2.30227 6.5
      vertex 6.28378 -3.78378 6.5
      vertex 6.84179 -3.41093 6.5
    endloop
  endfacet
  facet normal -0 0 1
    outer loop
      vertex 5.43525 -2.93525 6.5
      vertex 6.28378 -3.78378 6.5
      vertex 6.38256 -2.30227 6.5
    endloop
  endfacet
  facet normal -0 0 1
    outer loop
      vertex 4.80227 -3.88256 6.5
      vertex 5.91093 -4.34179 6.5
      vertex 5.43525 -2.93525 6.5
    endloop
  endfacet
  facet normal 0 0 1
    outer loop
      vertex 6.28378 -3.78378 6.5
      vertex 5.43525 -2.93525 6.5
      vertex 5.91093 -4.34179 6.5
    endloop
  endfacet
  facet normal -0 0 1
    outer loop
      vertex 8.71622 -6.21622 6.5
      vertex 10 -6.41336 6.5
      vertex 9.08907 -5.65821 6.5
    endloop
  endfacet
  facet normal 0 0 1
    outer loop
      vertex 10 -6.41336 6.5
      vertex 8.71622 -6.21622 6.5
      vertex 9.56475 -7.06475 6.5
    endloop
  endfacet
  facet normal 0 0 1
    outer loop
      vertex 8.71622 -6.21622 6.5
      vertex 8.61744 -7.69773 6.5
      vertex 9.56475 -7.06475 6.5
    endloop
  endfacet
  facet normal -0 0 1
    outer loop
      vertex 8.15821 -6.58907 6.5
      vertex 8.61744 -7.69773 6.5
      vertex 8.71622 -6.21622 6.5
    endloop
  endfacet
  facet normal -0 0 1
    outer loop
      vertex 7.5 -6.72 6.5
      vertex 8.61744 -7.69773 6.5
      vertex 8.15821 -6.58907 6.5
    endloop
  endfacet
  facet normal 0 0 1
    outer loop
      vertex 7.5 -6.72 6.5
      vertex 7.5 -7.92 6.5
      vertex 8.61744 -7.69773 6.5
    endloop
  endfacet
  facet normal 0 0 1
    outer loop
      vertex 6.84179 -6.58907 6.5
      vertex 7.5 -7.92 6.5
      vertex 7.5 -6.72 6.5
    endloop
  endfacet
  facet normal 0 0 1
    outer loop
      vertex 6.84179 -6.58907 6.5
      vertex 6.38256 -7.69773 6.5
      vertex 7.5 -7.92 6.5
    endloop
  endfacet
  facet normal 0 0 1
    outer loop
      vertex 6.28378 -6.21622 6.5
      vertex 6.38256 -7.69773 6.5
      vertex 6.84179 -6.58907 6.5
    endloop
  endfacet
  facet normal 0 0 1
    outer loop
      vertex 5.43525 -7.06475 6.5
      vertex 6.28378 -6.21622 6.5
      vertex 5.91093 -5.65821 6.5
    endloop
  endfacet
  facet normal 0 0 1
    outer loop
      vertex 6.28378 -6.21622 6.5
      vertex 5.43525 -7.06475 6.5
      vertex 6.38256 -7.69773 6.5
    endloop
  endfacet
  facet normal 0 0 1
    outer loop
      vertex 4.80227 -6.11744 6.5
      vertex 5.91093 -5.65821 6.5
      vertex 5.78 -5 6.5
    endloop
  endfacet
  facet normal 0 0 1
    outer loop
      vertex 5.91093 -4.34179 6.5
      vertex 4.80227 -3.88256 6.5
      vertex 5.78 -5 6.5
    endloop
  endfacet
  facet normal 0 0 1
    outer loop
      vertex 4.58 -5 6.5
      vertex 5.78 -5 6.5
      vertex 4.80227 -3.88256 6.5
    endloop
  endfacet
  facet normal 0 0 1
    outer loop
      vertex 5.91093 -5.65821 6.5
      vertex 4.80227 -6.11744 6.5
      vertex 5.43525 -7.06475 6.5
    endloop
  endfacet
  facet normal 0 0 1
    outer loop
      vertex 5.78 -5 6.5
      vertex 4.58 -5 6.5
      vertex 4.80227 -6.11744 6.5
    endloop
  endfacet
  facet normal 0.19509 -0.980785 0
    outer loop
      vertex 6.84179 -3.41093 0
      vertex 7.5 -3.28 6.5
      vertex 6.84179 -3.41093 6.5
    endloop
  endfacet
  facet normal 0.19509 -0.980785 0
    outer loop
      vertex 7.5 -3.28 6.5
      vertex 6.84179 -3.41093 0
      vertex 7.5 -3.28 0
    endloop
  endfacet
  facet normal -0.980785 0.19509 0
    outer loop
      vertex 9.08907 -5.65821 0
      vertex 9.22 -5 6.5
      vertex 9.22 -5 0
    endloop
  endfacet
  facet normal -0.980785 0.19509 0
    outer loop
      vertex 9.22 -5 6.5
      vertex 9.08907 -5.65821 0
      vertex 9.08907 -5.65821 6.5
    endloop
  endfacet
  facet normal 0.555571 0.831469 -0
    outer loop
      vertex 6.84179 -6.58907 0
      vertex 6.28378 -6.21622 6.5
      vertex 6.84179 -6.58907 6.5
    endloop
  endfacet
  facet normal 0.555571 0.831469 0
    outer loop
      vertex 6.28378 -6.21622 6.5
      vertex 6.84179 -6.58907 0
      vertex 6.28378 -6.21622 0
    endloop
  endfacet
  facet normal 0.980785 0.19509 0
    outer loop
      vertex 5.91093 -5.65821 6.5
      vertex 5.78 -5 0
      vertex 5.78 -5 6.5
    endloop
  endfacet
  facet normal 0.980785 0.19509 0
    outer loop
      vertex 5.78 -5 0
      vertex 5.91093 -5.65821 6.5
      vertex 5.91093 -5.65821 0
    endloop
  endfacet
  facet normal -0.19509 0.980785 0
    outer loop
      vertex 8.15821 -6.58907 0
      vertex 7.5 -6.72 6.5
      vertex 8.15821 -6.58907 6.5
    endloop
  endfacet
  facet normal -0.19509 0.980785 0
    outer loop
      vertex 7.5 -6.72 6.5
      vertex 8.15821 -6.58907 0
      vertex 7.5 -6.72 0
    endloop
  endfacet
  facet normal 0.19509 0.980785 -0
    outer loop
      vertex 7.5 -6.72 0
      vertex 6.84179 -6.58907 6.5
      vertex 7.5 -6.72 6.5
    endloop
  endfacet
  facet normal 0.19509 0.980785 0
    outer loop
      vertex 6.84179 -6.58907 6.5
      vertex 7.5 -6.72 0
      vertex 6.84179 -6.58907 0
    endloop
  endfacet
  facet normal 0.831469 0.555571 0
    outer loop
      vertex 6.28378 -6.21622 6.5
      vertex 5.91093 -5.65821 0
      vertex 5.91093 -5.65821 6.5
    endloop
  endfacet
  facet normal 0.831469 0.555571 0
    outer loop
      vertex 5.91093 -5.65821 0
      vertex 6.28378 -6.21622 6.5
      vertex 6.28378 -6.21622 0
    endloop
  endfacet
  facet normal -0.555571 0.831469 0
    outer loop
      vertex 8.71622 -6.21622 0
      vertex 8.15821 -6.58907 6.5
      vertex 8.71622 -6.21622 6.5
    endloop
  endfacet
  facet normal -0.555571 0.831469 0
    outer loop
      vertex 8.15821 -6.58907 6.5
      vertex 8.71622 -6.21622 0
      vertex 8.15821 -6.58907 0
    endloop
  endfacet
  facet normal -0.831469 0.555571 0
    outer loop
      vertex 8.71622 -6.21622 0
      vertex 9.08907 -5.65821 6.5
      vertex 9.08907 -5.65821 0
    endloop
  endfacet
  facet normal -0.831469 0.555571 0
    outer loop
      vertex 9.08907 -5.65821 6.5
      vertex 8.71622 -6.21622 0
      vertex 8.71622 -6.21622 6.5
    endloop
  endfacet
  facet normal 0.980785 -0.19509 0
    outer loop
      vertex 4.58 -5 9.5
      vertex 4.80227 -3.88256 6.5
      vertex 4.80227 -3.88256 9.5
    endloop
  endfacet
  facet normal 0.980785 -0.19509 0
    outer loop
      vertex 4.80227 -3.88256 6.5
      vertex 4.58 -5 9.5
      vertex 4.58 -5 6.5
    endloop
  endfacet
  facet normal 0.19509 -0.980785 0
    outer loop
      vertex 6.38256 -2.30227 6.5
      vertex 7.5 -2.08 9.5
      vertex 6.38256 -2.30227 9.5
    endloop
  endfacet
  facet normal 0.19509 -0.980785 0
    outer loop
      vertex 7.5 -2.08 9.5
      vertex 6.38256 -2.30227 6.5
      vertex 7.5 -2.08 6.5
    endloop
  endfacet
  facet normal -0.19509 0.980785 0
    outer loop
      vertex 8.61744 -7.69773 6.5
      vertex 7.5 -7.92 9.5
      vertex 8.61744 -7.69773 9.5
    endloop
  endfacet
  facet normal -0.19509 0.980785 0
    outer loop
      vertex 7.5 -7.92 9.5
      vertex 8.61744 -7.69773 6.5
      vertex 7.5 -7.92 6.5
    endloop
  endfacet
  facet normal -0.55557 0.83147 0
    outer loop
      vertex 9.56475 -7.06475 6.5
      vertex 8.61744 -7.69773 9.5
      vertex 9.56475 -7.06475 9.5
    endloop
  endfacet
  facet normal -0.55557 0.83147 0
    outer loop
      vertex 8.61744 -7.69773 9.5
      vertex 9.56475 -7.06475 6.5
      vertex 8.61744 -7.69773 6.5
    endloop
  endfacet
  facet normal -0.55557 -0.83147 0
    outer loop
      vertex 8.61744 -2.30227 6.5
      vertex 9.56475 -2.93525 9.5
      vertex 8.61744 -2.30227 9.5
    endloop
  endfacet
  facet normal -0.55557 -0.83147 -0
    outer loop
      vertex 9.56475 -2.93525 9.5
      vertex 8.61744 -2.30227 6.5
      vertex 9.56475 -2.93525 6.5
    endloop
  endfacet
  facet normal -0.83147 -0.55557 0
    outer loop
      vertex 10 -3.58664 6.5
      vertex 9.56475 -2.93525 9.5
      vertex 9.56475 -2.93525 6.5
    endloop
  endfacet
  facet normal -0.83147 -0.55557 0
    outer loop
      vertex 9.56475 -2.93525 9.5
      vertex 10 -3.58664 6.5
      vertex 10 -3.58664 9.5
    endloop
  endfacet
  facet normal -0.19509 -0.980785 0
    outer loop
      vertex 7.5 -2.08 6.5
      vertex 8.61744 -2.30227 9.5
      vertex 7.5 -2.08 9.5
    endloop
  endfacet
  facet normal -0.19509 -0.980785 -0
    outer loop
      vertex 8.61744 -2.30227 9.5
      vertex 7.5 -2.08 6.5
      vertex 8.61744 -2.30227 6.5
    endloop
  endfacet
  facet normal 0.83147 -0.55557 0
    outer loop
      vertex 4.80227 -3.88256 9.5
      vertex 5.43525 -2.93525 6.5
      vertex 5.43525 -2.93525 9.5
    endloop
  endfacet
  facet normal 0.83147 -0.55557 0
    outer loop
      vertex 5.43525 -2.93525 6.5
      vertex 4.80227 -3.88256 9.5
      vertex 4.80227 -3.88256 6.5
    endloop
  endfacet
  facet normal 0.55557 -0.83147 0
    outer loop
      vertex 5.43525 -2.93525 6.5
      vertex 6.38256 -2.30227 9.5
      vertex 5.43525 -2.93525 9.5
    endloop
  endfacet
  facet normal 0.55557 -0.83147 0
    outer loop
      vertex 6.38256 -2.30227 9.5
      vertex 5.43525 -2.93525 6.5
      vertex 6.38256 -2.30227 6.5
    endloop
  endfacet
  facet normal -0.83147 0.55557 0
    outer loop
      vertex 9.56475 -7.06475 6.5
      vertex 10 -6.41336 9.5
      vertex 10 -6.41336 6.5
    endloop
  endfacet
  facet normal -0.83147 0.55557 0
    outer loop
      vertex 10 -6.41336 9.5
      vertex 9.56475 -7.06475 6.5
      vertex 9.56475 -7.06475 9.5
    endloop
  endfacet
  facet normal 0.55557 0.83147 -0
    outer loop
      vertex 6.38256 -7.69773 6.5
      vertex 5.43525 -7.06475 9.5
      vertex 6.38256 -7.69773 9.5
    endloop
  endfacet
  facet normal 0.55557 0.83147 0
    outer loop
      vertex 5.43525 -7.06475 9.5
      vertex 6.38256 -7.69773 6.5
      vertex 5.43525 -7.06475 6.5
    endloop
  endfacet
  facet normal 0.83147 0.55557 0
    outer loop
      vertex 5.43525 -7.06475 9.5
      vertex 4.80227 -6.11744 6.5
      vertex 4.80227 -6.11744 9.5
    endloop
  endfacet
  facet normal 0.83147 0.55557 0
    outer loop
      vertex 4.80227 -6.11744 6.5
      vertex 5.43525 -7.06475 9.5
      vertex 5.43525 -7.06475 6.5
    endloop
  endfacet
  facet normal 0.980785 0.19509 0
    outer loop
      vertex 4.80227 -6.11744 9.5
      vertex 4.58 -5 6.5
      vertex 4.58 -5 9.5
    endloop
  endfacet
  facet normal 0.980785 0.19509 0
    outer loop
      vertex 4.58 -5 6.5
      vertex 4.80227 -6.11744 9.5
      vertex 4.80227 -6.11744 6.5
    endloop
  endfacet
  facet normal 0.19509 0.980785 -0
    outer loop
      vertex 7.5 -7.92 6.5
      vertex 6.38256 -7.69773 9.5
      vertex 7.5 -7.92 9.5
    endloop
  endfacet
  facet normal 0.19509 0.980785 0
    outer loop
      vertex 6.38256 -7.69773 9.5
      vertex 7.5 -7.92 6.5
      vertex 6.38256 -7.69773 6.5
    endloop
  endfacet
  facet normal -0.980785 -0.19509 0
    outer loop
      vertex -5.78 5 0
      vertex -5.91093 5.65821 6.5
      vertex -5.91093 5.65821 0
    endloop
  endfacet
  facet normal -0.980785 -0.19509 0
    outer loop
      vertex -5.91093 5.65821 6.5
      vertex -5.78 5 0
      vertex -5.78 5 6.5
    endloop
  endfacet
  facet normal 0.980785 -0.19509 0
    outer loop
      vertex -9.22 5 6.5
      vertex -9.08907 5.65821 0
      vertex -9.08907 5.65821 6.5
    endloop
  endfacet
  facet normal 0.980785 -0.19509 0
    outer loop
      vertex -9.08907 5.65821 0
      vertex -9.22 5 6.5
      vertex -9.22 5 0
    endloop
  endfacet
  facet normal -0.19509 -0.980785 0
    outer loop
      vertex -7.5 6.72 0
      vertex -6.84179 6.58907 6.5
      vertex -7.5 6.72 6.5
    endloop
  endfacet
  facet normal -0.19509 -0.980785 -0
    outer loop
      vertex -6.84179 6.58907 6.5
      vertex -7.5 6.72 0
      vertex -6.84179 6.58907 0
    endloop
  endfacet
  facet normal -0.555571 -0.831469 0
    outer loop
      vertex -6.84179 6.58907 0
      vertex -6.28378 6.21622 6.5
      vertex -6.84179 6.58907 6.5
    endloop
  endfacet
  facet normal -0.555571 -0.831469 -0
    outer loop
      vertex -6.28378 6.21622 6.5
      vertex -6.84179 6.58907 0
      vertex -6.28378 6.21622 0
    endloop
  endfacet
  facet normal -0.831469 -0.555571 0
    outer loop
      vertex -5.91093 5.65821 0
      vertex -6.28378 6.21622 6.5
      vertex -6.28378 6.21622 0
    endloop
  endfacet
  facet normal -0.831469 -0.555571 0
    outer loop
      vertex -6.28378 6.21622 6.5
      vertex -5.91093 5.65821 0
      vertex -5.91093 5.65821 6.5
    endloop
  endfacet
  facet normal 0.555571 -0.831469 0
    outer loop
      vertex -8.71622 6.21622 0
      vertex -8.15821 6.58907 6.5
      vertex -8.71622 6.21622 6.5
    endloop
  endfacet
  facet normal 0.555571 -0.831469 0
    outer loop
      vertex -8.15821 6.58907 6.5
      vertex -8.71622 6.21622 0
      vertex -8.15821 6.58907 0
    endloop
  endfacet
  facet normal 0.831469 -0.555571 0
    outer loop
      vertex -9.08907 5.65821 6.5
      vertex -8.71622 6.21622 0
      vertex -8.71622 6.21622 6.5
    endloop
  endfacet
  facet normal 0.831469 -0.555571 0
    outer loop
      vertex -8.71622 6.21622 0
      vertex -9.08907 5.65821 6.5
      vertex -9.08907 5.65821 0
    endloop
  endfacet
  facet normal 0 0 1
    outer loop
      vertex -5.78 5 6.5
      vertex -4.58 5 6.5
      vertex -4.80227 6.11744 6.5
    endloop
  endfacet
  facet normal 0 0 1
    outer loop
      vertex -5.91093 5.65821 6.5
      vertex -4.80227 6.11744 6.5
      vertex -5.43525 7.06475 6.5
    endloop
  endfacet
  facet normal 0 0 1
    outer loop
      vertex -4.58 5 6.5
      vertex -5.78 5 6.5
      vertex -4.80227 3.88256 6.5
    endloop
  endfacet
  facet normal -0 0 1
    outer loop
      vertex -5.91093 4.34179 6.5
      vertex -4.80227 3.88256 6.5
      vertex -5.78 5 6.5
    endloop
  endfacet
  facet normal 0 0 1
    outer loop
      vertex -4.80227 6.11744 6.5
      vertex -5.91093 5.65821 6.5
      vertex -5.78 5 6.5
    endloop
  endfacet
  facet normal 0 0 1
    outer loop
      vertex -5.43525 7.06475 6.5
      vertex -6.28378 6.21622 6.5
      vertex -5.91093 5.65821 6.5
    endloop
  endfacet
  facet normal 0 0 1
    outer loop
      vertex -6.38256 7.69773 6.5
      vertex -6.28378 6.21622 6.5
      vertex -5.43525 7.06475 6.5
    endloop
  endfacet
  facet normal 0 0 1
    outer loop
      vertex -6.38256 7.69773 6.5
      vertex -6.84179 6.58907 6.5
      vertex -6.28378 6.21622 6.5
    endloop
  endfacet
  facet normal 0 0 1
    outer loop
      vertex -7.5 7.92 6.5
      vertex -6.84179 6.58907 6.5
      vertex -6.38256 7.69773 6.5
    endloop
  endfacet
  facet normal 0 0 1
    outer loop
      vertex -7.5 7.92 6.5
      vertex -7.5 6.72 6.5
      vertex -6.84179 6.58907 6.5
    endloop
  endfacet
  facet normal 0 0 1
    outer loop
      vertex -7.5 7.92 6.5
      vertex -8.15821 6.58907 6.5
      vertex -7.5 6.72 6.5
    endloop
  endfacet
  facet normal -0 0 1
    outer loop
      vertex -8.61744 7.69773 6.5
      vertex -8.15821 6.58907 6.5
      vertex -7.5 7.92 6.5
    endloop
  endfacet
  facet normal 0 0 1
    outer loop
      vertex -8.61744 7.69773 6.5
      vertex -8.71622 6.21622 6.5
      vertex -8.15821 6.58907 6.5
    endloop
  endfacet
  facet normal -0 0 1
    outer loop
      vertex -9.56475 7.06475 6.5
      vertex -8.71622 6.21622 6.5
      vertex -8.61744 7.69773 6.5
    endloop
  endfacet
  facet normal 0 0 1
    outer loop
      vertex -8.71622 6.21622 6.5
      vertex -10 6.41336 6.5
      vertex -9.08907 5.65821 6.5
    endloop
  endfacet
  facet normal -0 0 1
    outer loop
      vertex -10 6.41336 6.5
      vertex -8.71622 6.21622 6.5
      vertex -9.56475 7.06475 6.5
    endloop
  endfacet
  facet normal 0 0 1
    outer loop
      vertex -4.80227 3.88256 6.5
      vertex -5.91093 4.34179 6.5
      vertex -5.43525 2.93525 6.5
    endloop
  endfacet
  facet normal -0 0 1
    outer loop
      vertex -6.28378 3.78378 6.5
      vertex -5.43525 2.93525 6.5
      vertex -5.91093 4.34179 6.5
    endloop
  endfacet
  facet normal 0 0 1
    outer loop
      vertex -6.28378 3.78378 6.5
      vertex -6.38256 2.30227 6.5
      vertex -5.43525 2.93525 6.5
    endloop
  endfacet
  facet normal -0 0 1
    outer loop
      vertex -6.84179 3.41093 6.5
      vertex -6.38256 2.30227 6.5
      vertex -6.28378 3.78378 6.5
    endloop
  endfacet
  facet normal -0 0 1
    outer loop
      vertex -7.5 3.28 6.5
      vertex -6.38256 2.30227 6.5
      vertex -6.84179 3.41093 6.5
    endloop
  endfacet
  facet normal 0 0 1
    outer loop
      vertex -7.5 3.28 6.5
      vertex -7.5 2.08 6.5
      vertex -6.38256 2.30227 6.5
    endloop
  endfacet
  facet normal 0 0 1
    outer loop
      vertex -8.15821 3.41093 6.5
      vertex -7.5 2.08 6.5
      vertex -7.5 3.28 6.5
    endloop
  endfacet
  facet normal 0 0 1
    outer loop
      vertex -8.15821 3.41093 6.5
      vertex -8.61744 2.30227 6.5
      vertex -7.5 2.08 6.5
    endloop
  endfacet
  facet normal 0 0 1
    outer loop
      vertex -8.71622 3.78378 6.5
      vertex -8.61744 2.30227 6.5
      vertex -8.15821 3.41093 6.5
    endloop
  endfacet
  facet normal 0 0 1
    outer loop
      vertex -10 3.58664 6.5
      vertex -8.71622 3.78378 6.5
      vertex -9.08907 4.34179 6.5
    endloop
  endfacet
  facet normal 0 0 1
    outer loop
      vertex -8.71622 3.78378 6.5
      vertex -9.56475 2.93525 6.5
      vertex -8.61744 2.30227 6.5
    endloop
  endfacet
  facet normal 0 0 1
    outer loop
      vertex -10 3.58664 6.5
      vertex -9.08907 4.34179 6.5
      vertex -9.22 5 6.5
    endloop
  endfacet
  facet normal 0 0 1
    outer loop
      vertex -9.08907 5.65821 6.5
      vertex -10 6.41336 6.5
      vertex -9.22 5 6.5
    endloop
  endfacet
  facet normal 0 0 1
    outer loop
      vertex -10 3.58664 6.5
      vertex -9.22 5 6.5
      vertex -10 6.41336 6.5
    endloop
  endfacet
  facet normal 0 0 1
    outer loop
      vertex -8.71622 3.78378 6.5
      vertex -10 3.58664 6.5
      vertex -9.56475 2.93525 6.5
    endloop
  endfacet
  facet normal 0.19509 -0.980785 0
    outer loop
      vertex -8.15821 6.58907 0
      vertex -7.5 6.72 6.5
      vertex -8.15821 6.58907 6.5
    endloop
  endfacet
  facet normal 0.19509 -0.980785 0
    outer loop
      vertex -7.5 6.72 6.5
      vertex -8.15821 6.58907 0
      vertex -7.5 6.72 0
    endloop
  endfacet
  facet normal -0.980785 0.19509 0
    outer loop
      vertex -5.91093 4.34179 0
      vertex -5.78 5 6.5
      vertex -5.78 5 0
    endloop
  endfacet
  facet normal -0.980785 0.19509 0
    outer loop
      vertex -5.78 5 6.5
      vertex -5.91093 4.34179 0
      vertex -5.91093 4.34179 6.5
    endloop
  endfacet
  facet normal 0.555571 0.831469 -0
    outer loop
      vertex -8.15821 3.41093 0
      vertex -8.71622 3.78378 6.5
      vertex -8.15821 3.41093 6.5
    endloop
  endfacet
  facet normal 0.555571 0.831469 0
    outer loop
      vertex -8.71622 3.78378 6.5
      vertex -8.15821 3.41093 0
      vertex -8.71622 3.78378 0
    endloop
  endfacet
  facet normal 0.980785 0.19509 0
    outer loop
      vertex -9.08907 4.34179 6.5
      vertex -9.22 5 0
      vertex -9.22 5 6.5
    endloop
  endfacet
  facet normal 0.980785 0.19509 0
    outer loop
      vertex -9.22 5 0
      vertex -9.08907 4.34179 6.5
      vertex -9.08907 4.34179 0
    endloop
  endfacet
  facet normal -0.19509 0.980785 0
    outer loop
      vertex -6.84179 3.41093 0
      vertex -7.5 3.28 6.5
      vertex -6.84179 3.41093 6.5
    endloop
  endfacet
  facet normal -0.19509 0.980785 0
    outer loop
      vertex -7.5 3.28 6.5
      vertex -6.84179 3.41093 0
      vertex -7.5 3.28 0
    endloop
  endfacet
  facet normal 0.19509 0.980785 -0
    outer loop
      vertex -7.5 3.28 0
      vertex -8.15821 3.41093 6.5
      vertex -7.5 3.28 6.5
    endloop
  endfacet
  facet normal 0.19509 0.980785 0
    outer loop
      vertex -8.15821 3.41093 6.5
      vertex -7.5 3.28 0
      vertex -8.15821 3.41093 0
    endloop
  endfacet
  facet normal 0.831469 0.555571 0
    outer loop
      vertex -8.71622 3.78378 6.5
      vertex -9.08907 4.34179 0
      vertex -9.08907 4.34179 6.5
    endloop
  endfacet
  facet normal 0.831469 0.555571 0
    outer loop
      vertex -9.08907 4.34179 0
      vertex -8.71622 3.78378 6.5
      vertex -8.71622 3.78378 0
    endloop
  endfacet
  facet normal -0.555571 0.831469 0
    outer loop
      vertex -6.28378 3.78378 0
      vertex -6.84179 3.41093 6.5
      vertex -6.28378 3.78378 6.5
    endloop
  endfacet
  facet normal -0.555571 0.831469 0
    outer loop
      vertex -6.84179 3.41093 6.5
      vertex -6.28378 3.78378 0
      vertex -6.84179 3.41093 0
    endloop
  endfacet
  facet normal -0.831469 0.555571 0
    outer loop
      vertex -6.28378 3.78378 0
      vertex -5.91093 4.34179 6.5
      vertex -5.91093 4.34179 0
    endloop
  endfacet
  facet normal -0.831469 0.555571 0
    outer loop
      vertex -5.91093 4.34179 6.5
      vertex -6.28378 3.78378 0
      vertex -6.28378 3.78378 6.5
    endloop
  endfacet
  facet normal -0.980785 -0.19509 0
    outer loop
      vertex -4.58 5 6.5
      vertex -4.80227 6.11744 9.5
      vertex -4.80227 6.11744 6.5
    endloop
  endfacet
  facet normal -0.980785 -0.19509 0
    outer loop
      vertex -4.80227 6.11744 9.5
      vertex -4.58 5 6.5
      vertex -4.58 5 9.5
    endloop
  endfacet
  facet normal 0.19509 -0.980785 0
    outer loop
      vertex -8.61744 7.69773 6.5
      vertex -7.5 7.92 9.5
      vertex -8.61744 7.69773 9.5
    endloop
  endfacet
  facet normal 0.19509 -0.980785 0
    outer loop
      vertex -7.5 7.92 9.5
      vertex -8.61744 7.69773 6.5
      vertex -7.5 7.92 6.5
    endloop
  endfacet
  facet normal -0.19509 0.980785 0
    outer loop
      vertex -6.38256 2.30227 6.5
      vertex -7.5 2.08 9.5
      vertex -6.38256 2.30227 9.5
    endloop
  endfacet
  facet normal -0.19509 0.980785 0
    outer loop
      vertex -7.5 2.08 9.5
      vertex -6.38256 2.30227 6.5
      vertex -7.5 2.08 6.5
    endloop
  endfacet
  facet normal -0.55557 0.83147 0
    outer loop
      vertex -5.43525 2.93525 6.5
      vertex -6.38256 2.30227 9.5
      vertex -5.43525 2.93525 9.5
    endloop
  endfacet
  facet normal -0.55557 0.83147 0
    outer loop
      vertex -6.38256 2.30227 9.5
      vertex -5.43525 2.93525 6.5
      vertex -6.38256 2.30227 6.5
    endloop
  endfacet
  facet normal -0.55557 -0.83147 0
    outer loop
      vertex -6.38256 7.69773 6.5
      vertex -5.43525 7.06475 9.5
      vertex -6.38256 7.69773 9.5
    endloop
  endfacet
  facet normal -0.55557 -0.83147 -0
    outer loop
      vertex -5.43525 7.06475 9.5
      vertex -6.38256 7.69773 6.5
      vertex -5.43525 7.06475 6.5
    endloop
  endfacet
  facet normal -0.83147 -0.55557 0
    outer loop
      vertex -4.80227 6.11744 6.5
      vertex -5.43525 7.06475 9.5
      vertex -5.43525 7.06475 6.5
    endloop
  endfacet
  facet normal -0.83147 -0.55557 0
    outer loop
      vertex -5.43525 7.06475 9.5
      vertex -4.80227 6.11744 6.5
      vertex -4.80227 6.11744 9.5
    endloop
  endfacet
  facet normal -0.19509 -0.980785 0
    outer loop
      vertex -7.5 7.92 6.5
      vertex -6.38256 7.69773 9.5
      vertex -7.5 7.92 9.5
    endloop
  endfacet
  facet normal -0.19509 -0.980785 -0
    outer loop
      vertex -6.38256 7.69773 9.5
      vertex -7.5 7.92 6.5
      vertex -6.38256 7.69773 6.5
    endloop
  endfacet
  facet normal 0.83147 -0.55557 0
    outer loop
      vertex -10 6.41336 9.5
      vertex -9.56475 7.06475 6.5
      vertex -9.56475 7.06475 9.5
    endloop
  endfacet
  facet normal 0.83147 -0.55557 0
    outer loop
      vertex -9.56475 7.06475 6.5
      vertex -10 6.41336 9.5
      vertex -10 6.41336 6.5
    endloop
  endfacet
  facet normal 0.55557 -0.83147 0
    outer loop
      vertex -9.56475 7.06475 6.5
      vertex -8.61744 7.69773 9.5
      vertex -9.56475 7.06475 9.5
    endloop
  endfacet
  facet normal 0.55557 -0.83147 0
    outer loop
      vertex -8.61744 7.69773 9.5
      vertex -9.56475 7.06475 6.5
      vertex -8.61744 7.69773 6.5
    endloop
  endfacet
  facet normal -0.980785 0.19509 0
    outer loop
      vertex -4.80227 3.88256 6.5
      vertex -4.58 5 9.5
      vertex -4.58 5 6.5
    endloop
  endfacet
  facet normal -0.980785 0.19509 0
    outer loop
      vertex -4.58 5 9.5
      vertex -4.80227 3.88256 6.5
      vertex -4.80227 3.88256 9.5
    endloop
  endfacet
  facet normal -0.83147 0.55557 0
    outer loop
      vertex -5.43525 2.93525 6.5
      vertex -4.80227 3.88256 9.5
      vertex -4.80227 3.88256 6.5
    endloop
  endfacet
  facet normal -0.83147 0.55557 0
    outer loop
      vertex -4.80227 3.88256 9.5
      vertex -5.43525 2.93525 6.5
      vertex -5.43525 2.93525 9.5
    endloop
  endfacet
  facet normal 0.55557 0.83147 -0
    outer loop
      vertex -8.61744 2.30227 6.5
      vertex -9.56475 2.93525 9.5
      vertex -8.61744 2.30227 9.5
    endloop
  endfacet
  facet normal 0.55557 0.83147 0
    outer loop
      vertex -9.56475 2.93525 9.5
      vertex -8.61744 2.30227 6.5
      vertex -9.56475 2.93525 6.5
    endloop
  endfacet
  facet normal 0.83147 0.55557 0
    outer loop
      vertex -9.56475 2.93525 9.5
      vertex -10 3.58664 6.5
      vertex -10 3.58664 9.5
    endloop
  endfacet
  facet normal 0.83147 0.55557 0
    outer loop
      vertex -10 3.58664 6.5
      vertex -9.56475 2.93525 9.5
      vertex -9.56475 2.93525 6.5
    endloop
  endfacet
  facet normal 0.19509 0.980785 -0
    outer loop
      vertex -7.5 2.08 6.5
      vertex -8.61744 2.30227 9.5
      vertex -7.5 2.08 9.5
    endloop
  endfacet
  facet normal 0.19509 0.980785 0
    outer loop
      vertex -8.61744 2.30227 9.5
      vertex -7.5 2.08 6.5
      vertex -8.61744 2.30227 6.5
    endloop
  endfacet
  facet normal -0.980785 -0.19509 0
    outer loop
      vertex 9.22 5 0
      vertex 9.08907 5.65821 6.5
      vertex 9.08907 5.65821 0
    endloop
  endfacet
  facet normal -0.980785 -0.19509 0
    outer loop
      vertex 9.08907 5.65821 6.5
      vertex 9.22 5 0
      vertex 9.22 5 6.5
    endloop
  endfacet
  facet normal 0.980785 -0.19509 0
    outer loop
      vertex 5.78 5 6.5
      vertex 5.91093 5.65821 0
      vertex 5.91093 5.65821 6.5
    endloop
  endfacet
  facet normal 0.980785 -0.19509 0
    outer loop
      vertex 5.91093 5.65821 0
      vertex 5.78 5 6.5
      vertex 5.78 5 0
    endloop
  endfacet
  facet normal -0.19509 -0.980785 0
    outer loop
      vertex 7.5 6.72 0
      vertex 8.15821 6.58907 6.5
      vertex 7.5 6.72 6.5
    endloop
  endfacet
  facet normal -0.19509 -0.980785 -0
    outer loop
      vertex 8.15821 6.58907 6.5
      vertex 7.5 6.72 0
      vertex 8.15821 6.58907 0
    endloop
  endfacet
  facet normal -0.555571 -0.831469 0
    outer loop
      vertex 8.15821 6.58907 0
      vertex 8.71622 6.21622 6.5
      vertex 8.15821 6.58907 6.5
    endloop
  endfacet
  facet normal -0.555571 -0.831469 -0
    outer loop
      vertex 8.71622 6.21622 6.5
      vertex 8.15821 6.58907 0
      vertex 8.71622 6.21622 0
    endloop
  endfacet
  facet normal -0.831469 -0.555571 0
    outer loop
      vertex 9.08907 5.65821 0
      vertex 8.71622 6.21622 6.5
      vertex 8.71622 6.21622 0
    endloop
  endfacet
  facet normal -0.831469 -0.555571 0
    outer loop
      vertex 8.71622 6.21622 6.5
      vertex 9.08907 5.65821 0
      vertex 9.08907 5.65821 6.5
    endloop
  endfacet
  facet normal 0.555571 -0.831469 0
    outer loop
      vertex 6.28378 6.21622 0
      vertex 6.84179 6.58907 6.5
      vertex 6.28378 6.21622 6.5
    endloop
  endfacet
  facet normal 0.555571 -0.831469 0
    outer loop
      vertex 6.84179 6.58907 6.5
      vertex 6.28378 6.21622 0
      vertex 6.84179 6.58907 0
    endloop
  endfacet
  facet normal 0.831469 -0.555571 0
    outer loop
      vertex 5.91093 5.65821 6.5
      vertex 6.28378 6.21622 0
      vertex 6.28378 6.21622 6.5
    endloop
  endfacet
  facet normal 0.831469 -0.555571 0
    outer loop
      vertex 6.28378 6.21622 0
      vertex 5.91093 5.65821 6.5
      vertex 5.91093 5.65821 0
    endloop
  endfacet
  facet normal 0 0 1
    outer loop
      vertex 8.71622 6.21622 6.5
      vertex 10 6.41336 6.5
      vertex 9.56475 7.06475 6.5
    endloop
  endfacet
  facet normal 0 0 1
    outer loop
      vertex 10 6.41336 6.5
      vertex 9.22 5 6.5
      vertex 10 3.58664 6.5
    endloop
  endfacet
  facet normal -0 0 1
    outer loop
      vertex 9.08907 4.34179 6.5
      vertex 10 3.58664 6.5
      vertex 9.22 5 6.5
    endloop
  endfacet
  facet normal 0 0 1
    outer loop
      vertex 10 6.41336 6.5
      vertex 9.08907 5.65821 6.5
      vertex 9.22 5 6.5
    endloop
  endfacet
  facet normal 0 0 1
    outer loop
      vertex 10 6.41336 6.5
      vertex 8.71622 6.21622 6.5
      vertex 9.08907 5.65821 6.5
    endloop
  endfacet
  facet normal 0 0 1
    outer loop
      vertex 8.61744 7.69773 6.5
      vertex 8.71622 6.21622 6.5
      vertex 9.56475 7.06475 6.5
    endloop
  endfacet
  facet normal 0 0 1
    outer loop
      vertex 8.61744 7.69773 6.5
      vertex 8.15821 6.58907 6.5
      vertex 8.71622 6.21622 6.5
    endloop
  endfacet
  facet normal 0 0 1
    outer loop
      vertex 7.5 7.92 6.5
      vertex 8.15821 6.58907 6.5
      vertex 8.61744 7.69773 6.5
    endloop
  endfacet
  facet normal 0 0 1
    outer loop
      vertex 7.5 7.92 6.5
      vertex 7.5 6.72 6.5
      vertex 8.15821 6.58907 6.5
    endloop
  endfacet
  facet normal 0 0 1
    outer loop
      vertex 7.5 7.92 6.5
      vertex 6.84179 6.58907 6.5
      vertex 7.5 6.72 6.5
    endloop
  endfacet
  facet normal -0 0 1
    outer loop
      vertex 6.38256 7.69773 6.5
      vertex 6.84179 6.58907 6.5
      vertex 7.5 7.92 6.5
    endloop
  endfacet
  facet normal 0 0 1
    outer loop
      vertex 6.38256 7.69773 6.5
      vertex 6.28378 6.21622 6.5
      vertex 6.84179 6.58907 6.5
    endloop
  endfacet
  facet normal -0 0 1
    outer loop
      vertex 5.43525 7.06475 6.5
      vertex 6.28378 6.21622 6.5
      vertex 6.38256 7.69773 6.5
    endloop
  endfacet
  facet normal -0 0 1
    outer loop
      vertex 4.80227 6.11744 6.5
      vertex 5.91093 5.65821 6.5
      vertex 5.43525 7.06475 6.5
    endloop
  endfacet
  facet normal 0 0 1
    outer loop
      vertex 6.28378 6.21622 6.5
      vertex 5.43525 7.06475 6.5
      vertex 5.91093 5.65821 6.5
    endloop
  endfacet
  facet normal -0 0 1
    outer loop
      vertex 8.71622 3.78378 6.5
      vertex 10 3.58664 6.5
      vertex 9.08907 4.34179 6.5
    endloop
  endfacet
  facet normal 0 0 1
    outer loop
      vertex 10 3.58664 6.5
      vertex 8.71622 3.78378 6.5
      vertex 9.56475 2.93525 6.5
    endloop
  endfacet
  facet normal 0 0 1
    outer loop
      vertex 8.71622 3.78378 6.5
      vertex 8.61744 2.30227 6.5
      vertex 9.56475 2.93525 6.5
    endloop
  endfacet
  facet normal -0 0 1
    outer loop
      vertex 8.15821 3.41093 6.5
      vertex 8.61744 2.30227 6.5
      vertex 8.71622 3.78378 6.5
    endloop
  endfacet
  facet normal -0 0 1
    outer loop
      vertex 7.5 3.28 6.5
      vertex 8.61744 2.30227 6.5
      vertex 8.15821 3.41093 6.5
    endloop
  endfacet
  facet normal 0 0 1
    outer loop
      vertex 7.5 3.28 6.5
      vertex 7.5 2.08 6.5
      vertex 8.61744 2.30227 6.5
    endloop
  endfacet
  facet normal 0 0 1
    outer loop
      vertex 6.84179 3.41093 6.5
      vertex 7.5 2.08 6.5
      vertex 7.5 3.28 6.5
    endloop
  endfacet
  facet normal 0 0 1
    outer loop
      vertex 6.84179 3.41093 6.5
      vertex 6.38256 2.30227 6.5
      vertex 7.5 2.08 6.5
    endloop
  endfacet
  facet normal 0 0 1
    outer loop
      vertex 6.28378 3.78378 6.5
      vertex 6.38256 2.30227 6.5
      vertex 6.84179 3.41093 6.5
    endloop
  endfacet
  facet normal 0 0 1
    outer loop
      vertex 5.43525 2.93525 6.5
      vertex 6.28378 3.78378 6.5
      vertex 5.91093 4.34179 6.5
    endloop
  endfacet
  facet normal 0 0 1
    outer loop
      vertex 6.28378 3.78378 6.5
      vertex 5.43525 2.93525 6.5
      vertex 6.38256 2.30227 6.5
    endloop
  endfacet
  facet normal 0 0 1
    outer loop
      vertex 4.80227 3.88256 6.5
      vertex 5.91093 4.34179 6.5
      vertex 5.78 5 6.5
    endloop
  endfacet
  facet normal 0 0 1
    outer loop
      vertex 5.91093 5.65821 6.5
      vertex 4.80227 6.11744 6.5
      vertex 5.78 5 6.5
    endloop
  endfacet
  facet normal 0 0 1
    outer loop
      vertex 4.58 5 6.5
      vertex 5.78 5 6.5
      vertex 4.80227 6.11744 6.5
    endloop
  endfacet
  facet normal 0 0 1
    outer loop
      vertex 5.91093 4.34179 6.5
      vertex 4.80227 3.88256 6.5
      vertex 5.43525 2.93525 6.5
    endloop
  endfacet
  facet normal 0 0 1
    outer loop
      vertex 5.78 5 6.5
      vertex 4.58 5 6.5
      vertex 4.80227 3.88256 6.5
    endloop
  endfacet
  facet normal 0.19509 -0.980785 0
    outer loop
      vertex 6.84179 6.58907 0
      vertex 7.5 6.72 6.5
      vertex 6.84179 6.58907 6.5
    endloop
  endfacet
  facet normal 0.19509 -0.980785 0
    outer loop
      vertex 7.5 6.72 6.5
      vertex 6.84179 6.58907 0
      vertex 7.5 6.72 0
    endloop
  endfacet
  facet normal -0.980785 0.19509 0
    outer loop
      vertex 9.08907 4.34179 0
      vertex 9.22 5 6.5
      vertex 9.22 5 0
    endloop
  endfacet
  facet normal -0.980785 0.19509 0
    outer loop
      vertex 9.22 5 6.5
      vertex 9.08907 4.34179 0
      vertex 9.08907 4.34179 6.5
    endloop
  endfacet
  facet normal 0.555571 0.831469 -0
    outer loop
      vertex 6.84179 3.41093 0
      vertex 6.28378 3.78378 6.5
      vertex 6.84179 3.41093 6.5
    endloop
  endfacet
  facet normal 0.555571 0.831469 0
    outer loop
      vertex 6.28378 3.78378 6.5
      vertex 6.84179 3.41093 0
      vertex 6.28378 3.78378 0
    endloop
  endfacet
  facet normal 0.980785 0.19509 0
    outer loop
      vertex 5.91093 4.34179 6.5
      vertex 5.78 5 0
      vertex 5.78 5 6.5
    endloop
  endfacet
  facet normal 0.980785 0.19509 0
    outer loop
      vertex 5.78 5 0
      vertex 5.91093 4.34179 6.5
      vertex 5.91093 4.34179 0
    endloop
  endfacet
  facet normal -0.19509 0.980785 0
    outer loop
      vertex 8.15821 3.41093 0
      vertex 7.5 3.28 6.5
      vertex 8.15821 3.41093 6.5
    endloop
  endfacet
  facet normal -0.19509 0.980785 0
    outer loop
      vertex 7.5 3.28 6.5
      vertex 8.15821 3.41093 0
      vertex 7.5 3.28 0
    endloop
  endfacet
  facet normal 0.19509 0.980785 -0
    outer loop
      vertex 7.5 3.28 0
      vertex 6.84179 3.41093 6.5
      vertex 7.5 3.28 6.5
    endloop
  endfacet
  facet normal 0.19509 0.980785 0
    outer loop
      vertex 6.84179 3.41093 6.5
      vertex 7.5 3.28 0
      vertex 6.84179 3.41093 0
    endloop
  endfacet
  facet normal 0.831469 0.555571 0
    outer loop
      vertex 6.28378 3.78378 6.5
      vertex 5.91093 4.34179 0
      vertex 5.91093 4.34179 6.5
    endloop
  endfacet
  facet normal 0.831469 0.555571 0
    outer loop
      vertex 5.91093 4.34179 0
      vertex 6.28378 3.78378 6.5
      vertex 6.28378 3.78378 0
    endloop
  endfacet
  facet normal -0.555571 0.831469 0
    outer loop
      vertex 8.71622 3.78378 0
      vertex 8.15821 3.41093 6.5
      vertex 8.71622 3.78378 6.5
    endloop
  endfacet
  facet normal -0.555571 0.831469 0
    outer loop
      vertex 8.15821 3.41093 6.5
      vertex 8.71622 3.78378 0
      vertex 8.15821 3.41093 0
    endloop
  endfacet
  facet normal -0.831469 0.555571 0
    outer loop
      vertex 8.71622 3.78378 0
      vertex 9.08907 4.34179 6.5
      vertex 9.08907 4.34179 0
    endloop
  endfacet
  facet normal -0.831469 0.555571 0
    outer loop
      vertex 9.08907 4.34179 6.5
      vertex 8.71622 3.78378 0
      vertex 8.71622 3.78378 6.5
    endloop
  endfacet
  facet normal 0.980785 -0.19509 0
    outer loop
      vertex 4.58 5 9.5
      vertex 4.80227 6.11744 6.5
      vertex 4.80227 6.11744 9.5
    endloop
  endfacet
  facet normal 0.980785 -0.19509 0
    outer loop
      vertex 4.80227 6.11744 6.5
      vertex 4.58 5 9.5
      vertex 4.58 5 6.5
    endloop
  endfacet
  facet normal 0.19509 -0.980785 0
    outer loop
      vertex 6.38256 7.69773 6.5
      vertex 7.5 7.92 9.5
      vertex 6.38256 7.69773 9.5
    endloop
  endfacet
  facet normal 0.19509 -0.980785 0
    outer loop
      vertex 7.5 7.92 9.5
      vertex 6.38256 7.69773 6.5
      vertex 7.5 7.92 6.5
    endloop
  endfacet
  facet normal -0.19509 0.980785 0
    outer loop
      vertex 8.61744 2.30227 6.5
      vertex 7.5 2.08 9.5
      vertex 8.61744 2.30227 9.5
    endloop
  endfacet
  facet normal -0.19509 0.980785 0
    outer loop
      vertex 7.5 2.08 9.5
      vertex 8.61744 2.30227 6.5
      vertex 7.5 2.08 6.5
    endloop
  endfacet
  facet normal -0.55557 0.83147 0
    outer loop
      vertex 9.56475 2.93525 6.5
      vertex 8.61744 2.30227 9.5
      vertex 9.56475 2.93525 9.5
    endloop
  endfacet
  facet normal -0.55557 0.83147 0
    outer loop
      vertex 8.61744 2.30227 9.5
      vertex 9.56475 2.93525 6.5
      vertex 8.61744 2.30227 6.5
    endloop
  endfacet
  facet normal -0.55557 -0.83147 0
    outer loop
      vertex 8.61744 7.69773 6.5
      vertex 9.56475 7.06475 9.5
      vertex 8.61744 7.69773 9.5
    endloop
  endfacet
  facet normal -0.55557 -0.83147 -0
    outer loop
      vertex 9.56475 7.06475 9.5
      vertex 8.61744 7.69773 6.5
      vertex 9.56475 7.06475 6.5
    endloop
  endfacet
  facet normal -0.83147 -0.55557 0
    outer loop
      vertex 10 6.41336 6.5
      vertex 9.56475 7.06475 9.5
      vertex 9.56475 7.06475 6.5
    endloop
  endfacet
  facet normal -0.83147 -0.55557 0
    outer loop
      vertex 9.56475 7.06475 9.5
      vertex 10 6.41336 6.5
      vertex 10 6.41336 9.5
    endloop
  endfacet
  facet normal -0.19509 -0.980785 0
    outer loop
      vertex 7.5 7.92 6.5
      vertex 8.61744 7.69773 9.5
      vertex 7.5 7.92 9.5
    endloop
  endfacet
  facet normal -0.19509 -0.980785 -0
    outer loop
      vertex 8.61744 7.69773 9.5
      vertex 7.5 7.92 6.5
      vertex 8.61744 7.69773 6.5
    endloop
  endfacet
  facet normal 0.83147 -0.55557 0
    outer loop
      vertex 4.80227 6.11744 9.5
      vertex 5.43525 7.06475 6.5
      vertex 5.43525 7.06475 9.5
    endloop
  endfacet
  facet normal 0.83147 -0.55557 0
    outer loop
      vertex 5.43525 7.06475 6.5
      vertex 4.80227 6.11744 9.5
      vertex 4.80227 6.11744 6.5
    endloop
  endfacet
  facet normal 0.55557 -0.83147 0
    outer loop
      vertex 5.43525 7.06475 6.5
      vertex 6.38256 7.69773 9.5
      vertex 5.43525 7.06475 9.5
    endloop
  endfacet
  facet normal 0.55557 -0.83147 0
    outer loop
      vertex 6.38256 7.69773 9.5
      vertex 5.43525 7.06475 6.5
      vertex 6.38256 7.69773 6.5
    endloop
  endfacet
  facet normal -0.83147 0.55557 0
    outer loop
      vertex 9.56475 2.93525 6.5
      vertex 10 3.58664 9.5
      vertex 10 3.58664 6.5
    endloop
  endfacet
  facet normal -0.83147 0.55557 0
    outer loop
      vertex 10 3.58664 9.5
      vertex 9.56475 2.93525 6.5
      vertex 9.56475 2.93525 9.5
    endloop
  endfacet
  facet normal 0.55557 0.83147 -0
    outer loop
      vertex 6.38256 2.30227 6.5
      vertex 5.43525 2.93525 9.5
      vertex 6.38256 2.30227 9.5
    endloop
  endfacet
  facet normal 0.55557 0.83147 0
    outer loop
      vertex 5.43525 2.93525 9.5
      vertex 6.38256 2.30227 6.5
      vertex 5.43525 2.93525 6.5
    endloop
  endfacet
  facet normal 0.83147 0.55557 0
    outer loop
      vertex 5.43525 2.93525 9.5
      vertex 4.80227 3.88256 6.5
      vertex 4.80227 3.88256 9.5
    endloop
  endfacet
  facet normal 0.83147 0.55557 0
    outer loop
      vertex 4.80227 3.88256 6.5
      vertex 5.43525 2.93525 9.5
      vertex 5.43525 2.93525 6.5
    endloop
  endfacet
  facet normal 0.980785 0.19509 0
    outer loop
      vertex 4.80227 3.88256 9.5
      vertex 4.58 5 6.5
      vertex 4.58 5 9.5
    endloop
  endfacet
  facet normal 0.980785 0.19509 0
    outer loop
      vertex 4.58 5 6.5
      vertex 4.80227 3.88256 9.5
      vertex 4.80227 3.88256 6.5
    endloop
  endfacet
  facet normal 0.19509 0.980785 -0
    outer loop
      vertex 7.5 2.08 6.5
      vertex 6.38256 2.30227 9.5
      vertex 7.5 2.08 9.5
    endloop
  endfacet
  facet normal 0.19509 0.980785 0
    outer loop
      vertex 6.38256 2.30227 9.5
      vertex 7.5 2.08 6.5
      vertex 6.38256 2.30227 6.5
    endloop
  endfacet
  facet normal -1 0 0
    outer loop
      vertex -10 12.5 0
      vertex -10 6.41336 6.5
      vertex -10 12.5 9.5
    endloop
  endfacet
  facet normal -1 0 0
    outer loop
      vertex -10 12.5 0
      vertex -10 3.58664 6.5
      vertex -10 6.41336 6.5
    endloop
  endfacet
  facet normal -1 0 0
    outer loop
      vertex -10 3.58664 6.5
      vertex -10 -3.58664 6.5
      vertex -10 3.58664 9.5
    endloop
  endfacet
  facet normal -1 0 0
    outer loop
      vertex -10 12.5 0
      vertex -10 -3.58664 6.5
      vertex -10 3.58664 6.5
    endloop
  endfacet
  facet normal -1 0 0
    outer loop
      vertex -10 -12.5 0
      vertex -10 -3.58664 6.5
      vertex -10 12.5 0
    endloop
  endfacet
  facet normal -1 -0 0
    outer loop
      vertex -10 -3.58664 6.5
      vertex -10 -12.5 0
      vertex -10 -6.41336 6.5
    endloop
  endfacet
  facet normal -1 0 0
    outer loop
      vertex -10 -12.5 9.5
      vertex -10 -6.41336 6.5
      vertex -10 -12.5 0
    endloop
  endfacet
  facet normal -1 0 0
    outer loop
      vertex -10 -6.41336 6.5
      vertex -10 -12.5 9.5
      vertex -10 -6.41336 9.5
    endloop
  endfacet
  facet normal -1 -0 0
    outer loop
      vertex -10 12.5 9.5
      vertex -10 6.41336 6.5
      vertex -10 6.41336 9.5
    endloop
  endfacet
  facet normal -1 -0 0
    outer loop
      vertex -10 3.58664 9.5
      vertex -10 -3.58664 6.5
      vertex -10 -3.58664 9.5
    endloop
  endfacet
  facet normal 0 0 1
    outer loop
      vertex -4.80227 -3.88256 9.5
      vertex 4.80227 -3.88256 9.5
      vertex -4.80227 3.88256 9.5
    endloop
  endfacet
  facet normal 0 0 1
    outer loop
      vertex 4.80227 -3.88256 9.5
      vertex -4.80227 -3.88256 9.5
      vertex -4.58 -5 9.5
    endloop
  endfacet
  facet normal -0 0 1
    outer loop
      vertex -5.43525 2.93525 9.5
      vertex -4.80227 -3.88256 9.5
      vertex -4.80227 3.88256 9.5
    endloop
  endfacet
  facet normal 0 0 1
    outer loop
      vertex -5.43525 2.93525 9.5
      vertex -5.43525 -2.93525 9.5
      vertex -4.80227 -3.88256 9.5
    endloop
  endfacet
  facet normal -0 0 1
    outer loop
      vertex -6.38256 2.30227 9.5
      vertex -5.43525 -2.93525 9.5
      vertex -5.43525 2.93525 9.5
    endloop
  endfacet
  facet normal 0 0 1
    outer loop
      vertex -6.38256 2.30227 9.5
      vertex -6.38256 -2.30227 9.5
      vertex -5.43525 -2.93525 9.5
    endloop
  endfacet
  facet normal -0 0 1
    outer loop
      vertex -7.5 2.08 9.5
      vertex -6.38256 -2.30227 9.5
      vertex -6.38256 2.30227 9.5
    endloop
  endfacet
  facet normal 0 0 1
    outer loop
      vertex -7.5 2.08 9.5
      vertex -7.5 -2.08 9.5
      vertex -6.38256 -2.30227 9.5
    endloop
  endfacet
  facet normal 0 0 1
    outer loop
      vertex -8.61744 2.30227 9.5
      vertex -7.5 -2.08 9.5
      vertex -7.5 2.08 9.5
    endloop
  endfacet
  facet normal 0 0 1
    outer loop
      vertex -8.61744 2.30227 9.5
      vertex -8.61744 -2.30227 9.5
      vertex -7.5 -2.08 9.5
    endloop
  endfacet
  facet normal 0 0 1
    outer loop
      vertex -9.56475 2.93525 9.5
      vertex -8.61744 -2.30227 9.5
      vertex -8.61744 2.30227 9.5
    endloop
  endfacet
  facet normal 0 0 1
    outer loop
      vertex -9.56475 2.93525 9.5
      vertex -9.56475 -2.93525 9.5
      vertex -8.61744 -2.30227 9.5
    endloop
  endfacet
  facet normal 0 0 1
    outer loop
      vertex -10 3.58664 9.5
      vertex -9.56475 -2.93525 9.5
      vertex -9.56475 2.93525 9.5
    endloop
  endfacet
  facet normal 0 0 1
    outer loop
      vertex -9.56475 -2.93525 9.5
      vertex -10 3.58664 9.5
      vertex -10 -3.58664 9.5
    endloop
  endfacet
  facet normal 0 0 1
    outer loop
      vertex 10 12.5 9.5
      vertex 9.56475 7.06475 9.5
      vertex 10 6.41336 9.5
    endloop
  endfacet
  facet normal 0 0 1
    outer loop
      vertex 10 12.5 9.5
      vertex 8.61744 7.69773 9.5
      vertex 9.56475 7.06475 9.5
    endloop
  endfacet
  facet normal 0 0 1
    outer loop
      vertex 10 12.5 9.5
      vertex 7.5 7.92 9.5
      vertex 8.61744 7.69773 9.5
    endloop
  endfacet
  facet normal 0 0 1
    outer loop
      vertex 10 12.5 9.5
      vertex 6.38256 7.69773 9.5
      vertex 7.5 7.92 9.5
    endloop
  endfacet
  facet normal 0 0 1
    outer loop
      vertex 10 12.5 9.5
      vertex 5.43525 7.06475 9.5
      vertex 6.38256 7.69773 9.5
    endloop
  endfacet
  facet normal 0 0 1
    outer loop
      vertex 4.80227 3.88256 9.5
      vertex -4.80227 3.88256 9.5
      vertex 4.80227 -3.88256 9.5
    endloop
  endfacet
  facet normal 0 0 1
    outer loop
      vertex 4.80227 6.11744 9.5
      vertex -4.58 5 9.5
      vertex 4.58 5 9.5
    endloop
  endfacet
  facet normal 0 0 1
    outer loop
      vertex -4.80227 6.11744 9.5
      vertex 4.80227 6.11744 9.5
      vertex 5.43525 7.06475 9.5
    endloop
  endfacet
  facet normal 0 0 1
    outer loop
      vertex -5.43525 7.06475 9.5
      vertex 5.43525 7.06475 9.5
      vertex 10 12.5 9.5
    endloop
  endfacet
  facet normal 0 0 1
    outer loop
      vertex 4.80227 6.11744 9.5
      vertex -4.80227 6.11744 9.5
      vertex -4.58 5 9.5
    endloop
  endfacet
  facet normal 0 0 1
    outer loop
      vertex 5.43525 7.06475 9.5
      vertex -5.43525 7.06475 9.5
      vertex -4.80227 6.11744 9.5
    endloop
  endfacet
  facet normal 0 0 1
    outer loop
      vertex 10 12.5 9.5
      vertex -6.38256 7.69773 9.5
      vertex -5.43525 7.06475 9.5
    endloop
  endfacet
  facet normal -0 0 1
    outer loop
      vertex -10 12.5 9.5
      vertex -6.38256 7.69773 9.5
      vertex 10 12.5 9.5
    endloop
  endfacet
  facet normal 0 0 1
    outer loop
      vertex -6.38256 7.69773 9.5
      vertex -10 12.5 9.5
      vertex -7.5 7.92 9.5
    endloop
  endfacet
  facet normal 0 0 1
    outer loop
      vertex -7.5 7.92 9.5
      vertex -10 12.5 9.5
      vertex -8.61744 7.69773 9.5
    endloop
  endfacet
  facet normal 0 0 1
    outer loop
      vertex -10 12.5 9.5
      vertex -9.56475 7.06475 9.5
      vertex -8.61744 7.69773 9.5
    endloop
  endfacet
  facet normal 0 0 1
    outer loop
      vertex -9.56475 7.06475 9.5
      vertex -10 12.5 9.5
      vertex -10 6.41336 9.5
    endloop
  endfacet
  facet normal -0 0 1
    outer loop
      vertex 9.56475 2.93525 9.5
      vertex 10 -3.58664 9.5
      vertex 10 3.58664 9.5
    endloop
  endfacet
  facet normal 0 0 1
    outer loop
      vertex 9.56475 2.93525 9.5
      vertex 9.56475 -2.93525 9.5
      vertex 10 -3.58664 9.5
    endloop
  endfacet
  facet normal -0 0 1
    outer loop
      vertex 8.61744 2.30227 9.5
      vertex 9.56475 -2.93525 9.5
      vertex 9.56475 2.93525 9.5
    endloop
  endfacet
  facet normal 0 0 1
    outer loop
      vertex 8.61744 2.30227 9.5
      vertex 8.61744 -2.30227 9.5
      vertex 9.56475 -2.93525 9.5
    endloop
  endfacet
  facet normal -0 0 1
    outer loop
      vertex 7.5 2.08 9.5
      vertex 8.61744 -2.30227 9.5
      vertex 8.61744 2.30227 9.5
    endloop
  endfacet
  facet normal 0 0 1
    outer loop
      vertex 7.5 2.08 9.5
      vertex 7.5 -2.08 9.5
      vertex 8.61744 -2.30227 9.5
    endloop
  endfacet
  facet normal 0 0 1
    outer loop
      vertex 6.38256 2.30227 9.5
      vertex 7.5 -2.08 9.5
      vertex 7.5 2.08 9.5
    endloop
  endfacet
  facet normal 0 0 1
    outer loop
      vertex 6.38256 2.30227 9.5
      vertex 6.38256 -2.30227 9.5
      vertex 7.5 -2.08 9.5
    endloop
  endfacet
  facet normal 0 0 1
    outer loop
      vertex 5.43525 2.93525 9.5
      vertex 6.38256 -2.30227 9.5
      vertex 6.38256 2.30227 9.5
    endloop
  endfacet
  facet normal 0 0 1
    outer loop
      vertex 5.43525 2.93525 9.5
      vertex 5.43525 -2.93525 9.5
      vertex 6.38256 -2.30227 9.5
    endloop
  endfacet
  facet normal 0 0 1
    outer loop
      vertex 4.80227 3.88256 9.5
      vertex 5.43525 -2.93525 9.5
      vertex 5.43525 2.93525 9.5
    endloop
  endfacet
  facet normal 0 0 1
    outer loop
      vertex 4.80227 3.88256 9.5
      vertex 4.80227 -3.88256 9.5
      vertex 5.43525 -2.93525 9.5
    endloop
  endfacet
  facet normal -0 0 1
    outer loop
      vertex -4.58 5 9.5
      vertex 4.80227 3.88256 9.5
      vertex 4.58 5 9.5
    endloop
  endfacet
  facet normal 0 0 1
    outer loop
      vertex -4.80227 3.88256 9.5
      vertex 4.80227 3.88256 9.5
      vertex -4.58 5 9.5
    endloop
  endfacet
  facet normal -0 0 1
    outer loop
      vertex 9.56475 -7.06475 9.5
      vertex 10 -12.5 9.5
      vertex 10 -6.41336 9.5
    endloop
  endfacet
  facet normal -0 0 1
    outer loop
      vertex 8.61744 -7.69773 9.5
      vertex 10 -12.5 9.5
      vertex 9.56475 -7.06475 9.5
    endloop
  endfacet
  facet normal -0 0 1
    outer loop
      vertex 7.5 -7.92 9.5
      vertex 10 -12.5 9.5
      vertex 8.61744 -7.69773 9.5
    endloop
  endfacet
  facet normal 0 0 1
    outer loop
      vertex 6.38256 -7.69773 9.5
      vertex 10 -12.5 9.5
      vertex 7.5 -7.92 9.5
    endloop
  endfacet
  facet normal 0 0 1
    outer loop
      vertex 5.43525 -7.06475 9.5
      vertex 10 -12.5 9.5
      vertex 6.38256 -7.69773 9.5
    endloop
  endfacet
  facet normal 0 0 1
    outer loop
      vertex 4.80227 -3.88256 9.5
      vertex -4.58 -5 9.5
      vertex 4.58 -5 9.5
    endloop
  endfacet
  facet normal 0 0 1
    outer loop
      vertex 4.58 -5 9.5
      vertex -4.58 -5 9.5
      vertex 4.80227 -6.11744 9.5
    endloop
  endfacet
  facet normal 0 0 1
    outer loop
      vertex -4.80227 -6.11744 9.5
      vertex 4.80227 -6.11744 9.5
      vertex -4.58 -5 9.5
    endloop
  endfacet
  facet normal 0 0 1
    outer loop
      vertex 4.80227 -6.11744 9.5
      vertex -4.80227 -6.11744 9.5
      vertex 5.43525 -7.06475 9.5
    endloop
  endfacet
  facet normal 0 0 1
    outer loop
      vertex -5.43525 -7.06475 9.5
      vertex 5.43525 -7.06475 9.5
      vertex -4.80227 -6.11744 9.5
    endloop
  endfacet
  facet normal 0 0 1
    outer loop
      vertex 5.43525 -7.06475 9.5
      vertex -5.43525 -7.06475 9.5
      vertex 10 -12.5 9.5
    endloop
  endfacet
  facet normal -0 0 1
    outer loop
      vertex -6.38256 -7.69773 9.5
      vertex 10 -12.5 9.5
      vertex -5.43525 -7.06475 9.5
    endloop
  endfacet
  facet normal 0 0 1
    outer loop
      vertex -10 -12.5 9.5
      vertex -6.38256 -7.69773 9.5
      vertex -7.5 -7.92 9.5
    endloop
  endfacet
  facet normal 0 0 1
    outer loop
      vertex -10 -12.5 9.5
      vertex -7.5 -7.92 9.5
      vertex -8.61744 -7.69773 9.5
    endloop
  endfacet
  facet normal 0 0 1
    outer loop
      vertex -6.38256 -7.69773 9.5
      vertex -10 -12.5 9.5
      vertex 10 -12.5 9.5
    endloop
  endfacet
  facet normal 0 0 1
    outer loop
      vertex -9.56475 -7.06475 9.5
      vertex -10 -12.5 9.5
      vertex -8.61744 -7.69773 9.5
    endloop
  endfacet
  facet normal 0 0 1
    outer loop
      vertex -10 -12.5 9.5
      vertex -9.56475 -7.06475 9.5
      vertex -10 -6.41336 9.5
    endloop
  endfacet
  facet normal 1 0 0
    outer loop
      vertex 10 -6.41336 9.5
      vertex 10 -12.5 9.5
      vertex 10 -6.41336 6.5
    endloop
  endfacet
  facet normal 1 0 0
    outer loop
      vertex 10 3.58664 9.5
      vertex 10 -3.58664 9.5
      vertex 10 3.58664 6.5
    endloop
  endfacet
  facet normal 1 0 0
    outer loop
      vertex 10 6.41336 6.5
      vertex 10 12.5 9.5
      vertex 10 6.41336 9.5
    endloop
  endfacet
  facet normal 1 0 0
    outer loop
      vertex 10 12.5 9.5
      vertex 10 6.41336 6.5
      vertex 10 12.5 0
    endloop
  endfacet
  facet normal 1 -0 0
    outer loop
      vertex 10 3.58664 6.5
      vertex 10 12.5 0
      vertex 10 6.41336 6.5
    endloop
  endfacet
  facet normal 1 0 0
    outer loop
      vertex 10 -3.58664 6.5
      vertex 10 3.58664 6.5
      vertex 10 -3.58664 9.5
    endloop
  endfacet
  facet normal 1 0 0
    outer loop
      vertex 10 3.58664 6.5
      vertex 10 -3.58664 6.5
      vertex 10 12.5 0
    endloop
  endfacet
  facet normal 1 0 0
    outer loop
      vertex 10 -12.5 0
      vertex 10 -3.58664 6.5
      vertex 10 -6.41336 6.5
    endloop
  endfacet
  facet normal 1 0 0
    outer loop
      vertex 10 -3.58664 6.5
      vertex 10 -12.5 0
      vertex 10 12.5 0
    endloop
  endfacet
  facet normal 1 0 0
    outer loop
      vertex 10 -12.5 0
      vertex 10 -6.41336 6.5
      vertex 10 -12.5 9.5
    endloop
  endfacet
  facet normal 0 1 -0
    outer loop
      vertex 10 12.5 0
      vertex -10 12.5 9.5
      vertex 10 12.5 9.5
    endloop
  endfacet
  facet normal 0 1 0
    outer loop
      vertex -10 12.5 9.5
      vertex 10 12.5 0
      vertex -10 12.5 0
    endloop
  endfacet
  facet normal 0 0 -1
    outer loop
      vertex -5.91093 4.34179 0
      vertex 5.91093 4.34179 0
      vertex -5.91093 -4.34179 0
    endloop
  endfacet
  facet normal 0 0 -1
    outer loop
      vertex 5.91093 4.34179 0
      vertex -5.91093 4.34179 0
      vertex -5.78 5 0
    endloop
  endfacet
  facet normal 0 0 -1
    outer loop
      vertex -6.28378 -3.78378 0
      vertex -5.91093 4.34179 0
      vertex -5.91093 -4.34179 0
    endloop
  endfacet
  facet normal 0 0 -1
    outer loop
      vertex -6.28378 -3.78378 0
      vertex -6.28378 3.78378 0
      vertex -5.91093 4.34179 0
    endloop
  endfacet
  facet normal 0 0 -1
    outer loop
      vertex -6.84179 -3.41093 0
      vertex -6.28378 3.78378 0
      vertex -6.28378 -3.78378 0
    endloop
  endfacet
  facet normal 0 0 -1
    outer loop
      vertex -6.84179 -3.41093 0
      vertex -6.84179 3.41093 0
      vertex -6.28378 3.78378 0
    endloop
  endfacet
  facet normal 0 0 -1
    outer loop
      vertex -7.5 -3.28 0
      vertex -6.84179 3.41093 0
      vertex -6.84179 -3.41093 0
    endloop
  endfacet
  facet normal 0 0 -1
    outer loop
      vertex -7.5 -3.28 0
      vertex -7.5 3.28 0
      vertex -6.84179 3.41093 0
    endloop
  endfacet
  facet normal 0 0 -1
    outer loop
      vertex -8.15821 -3.41093 0
      vertex -7.5 3.28 0
      vertex -7.5 -3.28 0
    endloop
  endfacet
  facet normal 0 0 -1
    outer loop
      vertex -8.15821 -3.41093 0
      vertex -8.15821 3.41093 0
      vertex -7.5 3.28 0
    endloop
  endfacet
  facet normal 0 0 -1
    outer loop
      vertex -8.71622 -3.78378 0
      vertex -8.15821 3.41093 0
      vertex -8.15821 -3.41093 0
    endloop
  endfacet
  facet normal 0 0 -1
    outer loop
      vertex -8.71622 -3.78378 0
      vertex -8.71622 3.78378 0
      vertex -8.15821 3.41093 0
    endloop
  endfacet
  facet normal 0 0 -1
    outer loop
      vertex -9.08907 -4.34179 0
      vertex -8.71622 3.78378 0
      vertex -8.71622 -3.78378 0
    endloop
  endfacet
  facet normal 0 0 -1
    outer loop
      vertex -9.08907 -4.34179 0
      vertex -9.08907 4.34179 0
      vertex -8.71622 3.78378 0
    endloop
  endfacet
  facet normal 0 0 -1
    outer loop
      vertex -9.22 -5 0
      vertex -9.08907 4.34179 0
      vertex -9.08907 -4.34179 0
    endloop
  endfacet
  facet normal -0 0 -1
    outer loop
      vertex -9.08907 4.34179 0
      vertex -9.22 -5 0
      vertex -9.22 5 0
    endloop
  endfacet
  facet normal 0 0 -1
    outer loop
      vertex 9.08907 -4.34179 0
      vertex 9.22 5 0
      vertex 9.22 -5 0
    endloop
  endfacet
  facet normal 0 0 -1
    outer loop
      vertex 9.08907 -4.34179 0
      vertex 9.08907 4.34179 0
      vertex 9.22 5 0
    endloop
  endfacet
  facet normal 0 0 -1
    outer loop
      vertex 8.71622 -3.78378 0
      vertex 9.08907 4.34179 0
      vertex 9.08907 -4.34179 0
    endloop
  endfacet
  facet normal 0 0 -1
    outer loop
      vertex 8.71622 -3.78378 0
      vertex 8.71622 3.78378 0
      vertex 9.08907 4.34179 0
    endloop
  endfacet
  facet normal 0 0 -1
    outer loop
      vertex 8.15821 -3.41093 0
      vertex 8.71622 3.78378 0
      vertex 8.71622 -3.78378 0
    endloop
  endfacet
  facet normal 0 0 -1
    outer loop
      vertex 8.15821 -3.41093 0
      vertex 8.15821 3.41093 0
      vertex 8.71622 3.78378 0
    endloop
  endfacet
  facet normal 0 0 -1
    outer loop
      vertex 7.5 -3.28 0
      vertex 8.15821 3.41093 0
      vertex 8.15821 -3.41093 0
    endloop
  endfacet
  facet normal 0 0 -1
    outer loop
      vertex 7.5 -3.28 0
      vertex 7.5 3.28 0
      vertex 8.15821 3.41093 0
    endloop
  endfacet
  facet normal 0 0 -1
    outer loop
      vertex 6.84179 -3.41093 0
      vertex 7.5 3.28 0
      vertex 7.5 -3.28 0
    endloop
  endfacet
  facet normal 0 0 -1
    outer loop
      vertex 6.84179 -3.41093 0
      vertex 6.84179 3.41093 0
      vertex 7.5 3.28 0
    endloop
  endfacet
  facet normal 0 0 -1
    outer loop
      vertex 6.28378 -3.78378 0
      vertex 6.84179 3.41093 0
      vertex 6.84179 -3.41093 0
    endloop
  endfacet
  facet normal 0 0 -1
    outer loop
      vertex 6.28378 -3.78378 0
      vertex 6.28378 3.78378 0
      vertex 6.84179 3.41093 0
    endloop
  endfacet
  facet normal 0 0 -1
    outer loop
      vertex 5.91093 -4.34179 0
      vertex 6.28378 3.78378 0
      vertex 6.28378 -3.78378 0
    endloop
  endfacet
  facet normal 0 0 -1
    outer loop
      vertex 5.91093 -4.34179 0
      vertex 5.91093 4.34179 0
      vertex 6.28378 3.78378 0
    endloop
  endfacet
  facet normal 0 0 -1
    outer loop
      vertex -5.78 -5 0
      vertex 5.91093 -4.34179 0
      vertex 5.78 -5 0
    endloop
  endfacet
  facet normal 0 0 -1
    outer loop
      vertex -5.91093 -4.34179 0
      vertex 5.91093 -4.34179 0
      vertex -5.78 -5 0
    endloop
  endfacet
  facet normal 0 0 -1
    outer loop
      vertex 10 -12.5 0
      vertex 9.22 -5 0
      vertex 10 12.5 0
    endloop
  endfacet
  facet normal 0 0 -1
    outer loop
      vertex 10 -12.5 0
      vertex 9.08907 -5.65821 0
      vertex 9.22 -5 0
    endloop
  endfacet
  facet normal 0 0 -1
    outer loop
      vertex 10 -12.5 0
      vertex 8.71622 -6.21622 0
      vertex 9.08907 -5.65821 0
    endloop
  endfacet
  facet normal 0 0 -1
    outer loop
      vertex 10 -12.5 0
      vertex 8.15821 -6.58907 0
      vertex 8.71622 -6.21622 0
    endloop
  endfacet
  facet normal 0 0 -1
    outer loop
      vertex 10 -12.5 0
      vertex 7.5 -6.72 0
      vertex 8.15821 -6.58907 0
    endloop
  endfacet
  facet normal 0 0 -1
    outer loop
      vertex 10 -12.5 0
      vertex 6.84179 -6.58907 0
      vertex 7.5 -6.72 0
    endloop
  endfacet
  facet normal 0 0 -1
    outer loop
      vertex 10 -12.5 0
      vertex 6.28378 -6.21622 0
      vertex 6.84179 -6.58907 0
    endloop
  endfacet
  facet normal 0 0 -1
    outer loop
      vertex -6.28378 -6.21622 0
      vertex 6.28378 -6.21622 0
      vertex 10 -12.5 0
    endloop
  endfacet
  facet normal 0 0 -1
    outer loop
      vertex 5.91093 -4.34179 0
      vertex -5.91093 -4.34179 0
      vertex 5.91093 4.34179 0
    endloop
  endfacet
  facet normal 0 0 -1
    outer loop
      vertex 5.91093 -5.65821 0
      vertex -5.78 -5 0
      vertex 5.78 -5 0
    endloop
  endfacet
  facet normal 0 0 -1
    outer loop
      vertex 6.28378 -6.21622 0
      vertex -6.28378 -6.21622 0
      vertex 5.91093 -5.65821 0
    endloop
  endfacet
  facet normal 0 0 -1
    outer loop
      vertex 5.91093 -5.65821 0
      vertex -5.91093 -5.65821 0
      vertex -5.78 -5 0
    endloop
  endfacet
  facet normal -0 0 -1
    outer loop
      vertex 5.91093 -5.65821 0
      vertex -6.28378 -6.21622 0
      vertex -5.91093 -5.65821 0
    endloop
  endfacet
  facet normal 0 0 -1
    outer loop
      vertex -10 -12.5 0
      vertex -6.28378 -6.21622 0
      vertex 10 -12.5 0
    endloop
  endfacet
  facet normal 0 0 -1
    outer loop
      vertex -6.28378 -6.21622 0
      vertex -10 -12.5 0
      vertex -6.84179 -6.58907 0
    endloop
  endfacet
  facet normal 0 0 -1
    outer loop
      vertex -6.84179 -6.58907 0
      vertex -10 -12.5 0
      vertex -7.5 -6.72 0
    endloop
  endfacet
  facet normal -0 0 -1
    outer loop
      vertex -9.22 -5 0
      vertex -10 -12.5 0
      vertex -9.22 5 0
    endloop
  endfacet
  facet normal -0 0 -1
    outer loop
      vertex -9.08907 -5.65821 0
      vertex -10 -12.5 0
      vertex -9.22 -5 0
    endloop
  endfacet
  facet normal -0 0 -1
    outer loop
      vertex -8.71622 -6.21622 0
      vertex -10 -12.5 0
      vertex -9.08907 -5.65821 0
    endloop
  endfacet
  facet normal -0 0 -1
    outer loop
      vertex -8.15821 -6.58907 0
      vertex -10 -12.5 0
      vertex -8.71622 -6.21622 0
    endloop
  endfacet
  facet normal -0 0 -1
    outer loop
      vertex -7.5 -6.72 0
      vertex -10 -12.5 0
      vertex -8.15821 -6.58907 0
    endloop
  endfacet
  facet normal 0 0 -1
    outer loop
      vertex 9.22 5 0
      vertex 10 12.5 0
      vertex 9.22 -5 0
    endloop
  endfacet
  facet normal 0 0 -1
    outer loop
      vertex 9.08907 5.65821 0
      vertex 10 12.5 0
      vertex 9.22 5 0
    endloop
  endfacet
  facet normal 0 0 -1
    outer loop
      vertex 8.71622 6.21622 0
      vertex 10 12.5 0
      vertex 9.08907 5.65821 0
    endloop
  endfacet
  facet normal 0 0 -1
    outer loop
      vertex 8.15821 6.58907 0
      vertex 10 12.5 0
      vertex 8.71622 6.21622 0
    endloop
  endfacet
  facet normal 0 0 -1
    outer loop
      vertex 7.5 6.72 0
      vertex 10 12.5 0
      vertex 8.15821 6.58907 0
    endloop
  endfacet
  facet normal 0 0 -1
    outer loop
      vertex 6.84179 6.58907 0
      vertex 10 12.5 0
      vertex 7.5 6.72 0
    endloop
  endfacet
  facet normal 0 0 -1
    outer loop
      vertex 6.28378 6.21622 0
      vertex 10 12.5 0
      vertex 6.84179 6.58907 0
    endloop
  endfacet
  facet normal 0 0 -1
    outer loop
      vertex -6.28378 6.21622 0
      vertex 6.28378 6.21622 0
      vertex 5.91093 5.65821 0
    endloop
  endfacet
  facet normal 0 0 -1
    outer loop
      vertex 5.91093 4.34179 0
      vertex -5.78 5 0
      vertex 5.78 5 0
    endloop
  endfacet
  facet normal 0 0 -1
    outer loop
      vertex 5.78 5 0
      vertex -5.78 5 0
      vertex 5.91093 5.65821 0
    endloop
  endfacet
  facet normal 0 0 -1
    outer loop
      vertex -5.91093 5.65821 0
      vertex 5.91093 5.65821 0
      vertex -5.78 5 0
    endloop
  endfacet
  facet normal 0 0 -1
    outer loop
      vertex -6.28378 6.21622 0
      vertex 5.91093 5.65821 0
      vertex -5.91093 5.65821 0
    endloop
  endfacet
  facet normal 0 0 -1
    outer loop
      vertex 6.28378 6.21622 0
      vertex -6.28378 6.21622 0
      vertex 10 12.5 0
    endloop
  endfacet
  facet normal 0 0 -1
    outer loop
      vertex -10 12.5 0
      vertex -6.28378 6.21622 0
      vertex -6.84179 6.58907 0
    endloop
  endfacet
  facet normal 0 0 -1
    outer loop
      vertex -10 12.5 0
      vertex -6.84179 6.58907 0
      vertex -7.5 6.72 0
    endloop
  endfacet
  facet normal 0 0 -1
    outer loop
      vertex -10 12.5 0
      vertex -7.5 6.72 0
      vertex -8.15821 6.58907 0
    endloop
  endfacet
  facet normal 0 0 -1
    outer loop
      vertex -6.28378 6.21622 0
      vertex -10 12.5 0
      vertex 10 12.5 0
    endloop
  endfacet
  facet normal 0 0 -1
    outer loop
      vertex -8.71622 6.21622 0
      vertex -10 12.5 0
      vertex -8.15821 6.58907 0
    endloop
  endfacet
  facet normal 0 0 -1
    outer loop
      vertex -9.08907 5.65821 0
      vertex -10 12.5 0
      vertex -8.71622 6.21622 0
    endloop
  endfacet
  facet normal 0 0 -1
    outer loop
      vertex -9.22 5 0
      vertex -10 12.5 0
      vertex -9.08907 5.65821 0
    endloop
  endfacet
  facet normal 0 0 -1
    outer loop
      vertex -10 12.5 0
      vertex -9.22 5 0
      vertex -10 -12.5 0
    endloop
  endfacet
  facet normal 0 -1 0
    outer loop
      vertex -10 -12.5 0
      vertex 10 -12.5 9.5
      vertex -10 -12.5 9.5
    endloop
  endfacet
  facet normal 0 -1 -0
    outer loop
      vertex 10 -12.5 9.5
      vertex -10 -12.5 0
      vertex 10 -12.5 0
    endloop
  endfacet
endsolid OpenSCAD_Model
